<?xml version="1.0" encoding="UTF-8"?>
<svg xmlns="http://www.w3.org/2000/svg" viewBox="19.78 140.00 34.22 42.02">
<path d="M 49.00 145.00 L 48.03 145.03 L 47.39 145.29 L 46.70 145.52 L 45.92 145.79 L 45.17 146.12 L 44.42 146.45 L 43.61 146.86 L 42.78 147.28 L 42.10 147.52 L 41.43 147.76 L 40.74 147.99 L 39.91 148.35 L 39.10 148.72 L 38.33 149.04 L 37.58 149.37 L 36.82 149.69 L 36.05 150.01 L 35.27 150.32 L 34.50 150.64 L 33.70 150.93 L 32.87 151.21 L 32.02 151.46 L 31.49 151.22 L 31.08 150.80 L 30.38 150.71 L 29.57 150.72 L 28.68 150.81 L 28.17 150.39 L 27.74 149.87 L 27.37 149.40 L 27.22 148.81 L 27.07 148.46 L 26.48 149.04 L 26.00 149.77 L 25.72 150.56 L 25.99 150.94 L 26.71 150.86 L 27.29 151.12 L 27.91 151.42 L 28.54 151.74 L 29.20 152.06 L 29.84 152.38 L 30.49 152.70 L 31.19 152.92 L 31.96 152.99 L 32.52 153.24 L 33.10 153.38 L 33.94 153.11 L 34.79 152.75 L 35.58 152.37 L 36.31 152.02 L 37.06 151.64 L 37.85 151.23 L 38.61 150.88 L 39.37 150.55 L 40.12 150.23 L 40.83 149.86 L 41.45 149.52 L 41.71 149.59 L 41.36 150.42 L 40.98 151.23 L 40.58 152.03 L 40.13 152.79 L 39.70 153.54 L 39.31 154.24 L 38.88 155.01 L 38.44 155.78 L 37.99 156.55 L 37.52 157.29 L 37.06 158.05 L 36.63 158.82 L 36.19 159.59 L 35.73 160.35 L 35.26 161.09 L 34.78 161.84 L 34.32 162.59 L 33.88 163.36 L 33.44 164.13 L 33.02 164.87 L 32.64 165.61 L 32.24 166.40 L 31.84 167.20 L 31.40 167.97 L 30.90 168.69 L 30.31 169.35 L 29.65 169.96 L 29.01 170.41 L 28.43 170.72 L 27.85 171.02 L 27.25 171.39 L 26.57 171.98 L 25.99 172.65 L 25.51 173.38 L 25.16 174.21 L 24.92 175.06 L 24.79 175.85 L 24.84 176.37 L 24.78 177.02" fill="none" stroke="#000000" stroke-width="0.5" stroke-linejoin="round" stroke-linecap="round"/>
</svg>