<?xml version="1.0" encoding="UTF-8"?>
<svg xmlns="http://www.w3.org/2000/svg" viewBox="15.82 140.00 38.18 42.82">
<path d="M 49.00 145.00 L 48.62 145.03 L 48.28 145.26 L 47.92 145.46 L 47.61 145.55 L 47.21 145.78 L 46.80 146.01 L 46.41 146.23 L 46.12 146.32 L 45.68 146.62 L 45.22 146.96 L 44.77 147.29 L 44.40 147.54 L 43.98 147.85 L 43.52 148.23 L 43.05 148.66 L 42.63 149.02 L 42.13 149.52 L 41.67 149.99 L 41.22 150.46 L 40.73 151.01 L 40.26 151.55 L 39.79 152.09 L 39.32 152.65 L 38.86 153.21 L 38.41 153.78 L 37.96 154.37 L 37.50 154.96 L 37.03 155.54 L 36.57 156.11 L 36.11 156.64 L 35.69 157.11 L 35.21 157.60 L 34.71 158.08 L 34.23 158.51 L 33.86 158.78 L 33.44 159.07 L 33.01 159.37 L 32.60 159.60 L 32.32 159.66 L 32.04 159.71 L 31.72 159.80 L 31.31 160.02 L 30.95 160.17 L 30.62 160.30 L 30.22 160.54 L 29.82 160.77 L 29.40 161.05 L 28.96 161.36 L 28.58 161.61 L 28.15 161.94 L 27.69 162.35 L 27.22 162.78 L 26.77 163.23 L 26.29 163.75 L 25.82 164.29 L 25.36 164.85 L 24.90 165.44 L 24.46 166.03 L 24.02 166.64 L 23.60 167.25 L 23.19 167.87 L 22.80 168.47 L 22.44 169.08 L 22.09 169.71 L 21.80 170.29 L 21.56 170.82 L 21.35 171.34 L 21.12 171.92 L 21.00 172.39 L 20.91 172.82 L 20.83 173.25 L 20.85 173.56 L 20.88 173.86 L 20.89 174.21 L 20.82 174.66 L 20.89 174.93 L 20.96 175.19 L 21.04 175.45 L 21.19 175.63 L 21.38 175.75 L 21.46 176.01 L 21.59 176.22 L 21.78 176.34 L 21.97 176.46 L 22.14 176.60 L 22.23 176.87 L 22.36 177.06 L 22.56 177.18 L 22.75 177.30 L 22.94 177.41 L 23.18 177.46 L 23.48 177.43 L 23.68 177.53 L 23.87 177.65 L 24.06 177.77 L 24.32 177.79 L 24.59 177.74 L 24.73 177.82" fill="none" stroke="#000000" stroke-width="0.5" stroke-linejoin="round" stroke-linecap="round"/>
</svg>