<?xml version="1.0" encoding="UTF-8"?>
<svg xmlns="http://www.w3.org/2000/svg" viewBox="20.44 140.00 33.56 41.98">
<path d="M 49.00 145.00 L 48.25 145.76 L 47.56 146.59 L 46.85 147.42 L 46.14 148.21 L 45.43 149.03 L 44.71 149.85 L 44.01 150.65 L 43.28 151.46 L 42.56 152.28 L 41.85 153.07 L 41.15 153.86 L 40.43 154.67 L 39.70 155.48 L 38.99 156.28 L 38.29 157.10 L 37.60 157.94 L 36.93 158.77 L 36.26 159.60 L 35.53 160.41 L 34.74 161.18 L 34.02 161.80 L 33.68 161.76 L 33.47 161.41 L 33.24 161.00 L 33.05 160.47 L 32.86 159.96 L 32.86 159.24 L 32.91 158.51 L 33.01 157.80 L 33.30 156.94 L 33.68 156.02 L 34.17 155.04 L 34.69 154.08 L 35.24 153.14 L 35.80 152.21 L 36.34 151.27 L 36.84 150.30 L 37.34 149.32 L 37.60 148.61 L 37.55 148.26 L 36.69 148.95 L 36.81 148.25 L 37.01 147.41 L 37.27 146.60 L 37.60 145.76 L 37.67 145.41 L 37.26 145.81 L 36.66 146.58 L 36.04 147.47 L 35.46 148.38 L 34.82 149.26 L 34.11 150.07 L 33.34 150.82 L 32.94 150.94 L 32.86 150.56 L 32.90 150.05 L 32.94 149.66 L 32.67 149.86 L 32.10 150.63 L 31.66 151.43 L 31.31 152.32 L 31.00 153.28 L 30.85 154.05 L 30.75 154.75 L 30.64 155.45 L 30.45 156.28 L 30.16 157.20 L 29.81 158.13 L 29.45 159.00 L 29.03 159.88 L 28.54 160.86 L 28.04 161.84 L 27.64 162.67 L 28.35 162.01 L 29.15 161.30 L 29.91 160.74 L 30.26 160.82 L 30.18 161.54 L 30.32 162.05 L 30.36 162.73 L 30.40 163.45 L 30.67 163.85 L 30.91 164.28 L 31.06 164.83 L 31.00 165.57 L 31.01 166.12 L 30.90 166.75 L 30.44 167.75 L 29.95 168.73 L 29.41 169.68 L 28.85 170.61 L 28.29 171.54 L 27.76 172.49 L 27.24 173.45 L 26.78 174.36 L 26.34 175.24 L 25.90 176.11 L 25.44 176.98" fill="none" stroke="#000000" stroke-width="0.5" stroke-linejoin="round" stroke-linecap="round"/>
</svg>