<?xml version="1.0" encoding="UTF-8"?>
<svg xmlns="http://www.w3.org/2000/svg" viewBox="13.81 140.00 40.74 42.94">
<path d="M 49.00 145.00 L 49.17 145.79 L 48.99 146.56 L 48.86 147.36 L 48.89 148.05 L 48.92 148.74 L 48.96 149.43 L 49.00 150.12 L 49.03 150.82 L 49.28 151.24 L 49.50 151.62 L 49.56 152.06 L 49.42 152.54 L 49.08 153.12 L 48.40 153.92 L 47.70 154.55 L 46.98 154.99 L 46.34 155.17 L 45.69 155.34 L 45.03 155.50 L 44.37 155.66 L 43.83 155.64 L 43.37 155.52 L 42.98 155.28 L 42.63 155.00 L 42.21 154.79 L 41.80 154.59 L 41.40 154.39 L 41.08 154.08 L 40.50 154.15 L 39.88 154.33 L 39.02 154.87 L 38.00 155.67 L 36.91 156.61 L 35.84 157.56 L 34.77 158.52 L 33.71 159.48 L 32.64 160.43 L 31.57 161.39 L 30.58 162.23 L 29.68 162.93 L 28.60 163.87 L 27.51 164.82 L 26.53 165.68 L 25.79 166.29 L 24.85 167.28 L 23.75 168.60 L 22.64 170.05 L 21.65 171.50 L 20.73 173.00 L 19.97 174.41 L 19.31 175.75 L 18.81 176.83 L 19.32 176.52 L 20.13 175.77 L 21.37 174.41 L 22.57 173.09 L 23.72 171.79 L 24.79 170.58 L 25.89 169.40 L 27.03 168.24 L 28.17 167.14 L 29.24 166.18 L 30.11 165.52 L 30.95 164.97 L 31.86 164.34 L 32.73 163.80 L 33.59 163.28 L 34.45 162.77 L 35.33 162.25 L 36.19 161.74 L 36.59 161.87 L 36.74 162.36 L 36.38 163.55 L 36.35 164.29 L 36.28 165.08 L 36.10 166.03 L 35.93 166.98 L 36.07 167.52 L 36.33 167.91 L 36.50 168.42 L 36.76 168.82 L 37.05 169.04 L 37.30 169.13 L 37.05 169.69 L 36.52 170.42 L 35.88 171.10 L 35.38 171.40 L 34.71 171.74 L 33.85 172.26 L 32.87 172.98 L 31.85 173.78 L 30.94 174.42 L 29.90 175.26 L 28.84 176.11 L 27.93 176.73 L 27.12 177.20 L 26.34 177.69 L 25.80 177.94" fill="none" stroke="#000000" stroke-width="0.5" stroke-linejoin="round" stroke-linecap="round"/>
</svg>