<?xml version="1.0" encoding="UTF-8"?>
<svg xmlns="http://www.w3.org/2000/svg" viewBox="17.79 140.00 36.53 42.75">
<path d="M 49.00 145.00 L 48.94 145.70 L 48.68 146.25 L 48.89 146.26 L 49.32 145.98 L 49.03 146.59 L 48.71 147.16 L 48.61 147.55 L 48.53 148.13 L 48.16 148.99 L 47.73 149.77 L 47.18 150.63 L 46.42 151.66 L 45.52 152.69 L 44.79 153.30 L 44.22 153.46 L 43.64 153.52 L 43.38 153.06 L 43.09 152.57 L 42.81 152.09 L 42.52 151.61 L 42.28 151.07 L 42.15 150.41 L 42.01 149.74 L 41.50 149.60 L 41.22 149.14 L 40.81 148.84 L 40.38 148.60 L 39.83 148.59 L 39.42 148.38 L 38.89 148.34 L 37.76 149.13 L 37.17 149.18 L 36.47 149.40 L 36.21 149.01 L 35.75 148.82 L 35.82 147.90 L 35.85 147.17 L 35.81 146.76 L 36.04 146.20 L 35.50 146.93 L 34.99 147.80 L 34.67 148.61 L 34.67 149.22 L 34.37 150.34 L 34.28 151.19 L 34.50 151.58 L 35.16 151.28 L 35.84 150.99 L 36.04 151.41 L 36.05 152.00 L 36.68 151.68 L 37.29 151.34 L 37.09 152.14 L 37.52 152.05 L 38.41 151.24 L 39.28 150.44 L 38.68 151.75 L 38.13 153.05 L 38.36 153.34 L 38.83 153.33 L 39.25 153.28 L 39.78 152.96 L 40.25 152.60 L 39.95 153.29 L 39.58 154.05 L 39.57 154.30 L 39.99 153.81 L 40.42 153.32 L 40.36 153.51 L 39.68 154.50 L 38.98 155.32 L 38.18 156.07 L 37.30 156.77 L 36.38 157.48 L 35.47 158.18 L 34.53 158.93 L 33.60 159.68 L 32.69 160.45 L 31.76 161.26 L 30.85 162.09 L 29.93 163.00 L 29.01 163.98 L 28.12 164.99 L 27.25 166.11 L 26.42 167.27 L 25.67 168.43 L 25.00 169.59 L 24.38 170.78 L 23.89 171.88 L 23.47 173.00 L 23.07 174.13 L 22.90 175.04 L 22.83 175.86 L 22.79 176.70 L 23.10 177.11 L 23.43 177.51 L 23.82 177.72 L 24.26 177.75" fill="none" stroke="#000000" stroke-width="0.5" stroke-linejoin="round" stroke-linecap="round"/>
</svg>