<?xml version="1.0" encoding="UTF-8"?>
<svg xmlns="http://www.w3.org/2000/svg" viewBox="13.72 140.00 40.28 42.83">
<path d="M 49.00 145.00 L 48.65 145.41 L 48.32 145.84 L 47.99 146.26 L 47.65 146.68 L 47.31 147.10 L 46.98 147.52 L 46.64 147.93 L 46.28 148.34 L 45.91 148.74 L 45.55 149.13 L 45.21 149.50 L 44.86 149.88 L 44.49 150.28 L 44.13 150.68 L 43.79 151.10 L 43.45 151.52 L 43.11 151.94 L 42.77 152.35 L 42.44 152.77 L 42.10 153.19 L 41.76 153.61 L 41.43 154.03 L 41.08 154.45 L 40.72 154.85 L 40.34 155.24 L 39.97 155.61 L 39.60 155.96 L 39.22 156.30 L 38.80 156.66 L 38.40 157.00 L 38.02 157.34 L 37.64 157.68 L 37.22 158.04 L 36.81 158.38 L 36.40 158.70 L 35.98 159.01 L 35.55 159.32 L 35.14 159.63 L 34.79 159.88 L 34.37 160.20 L 33.94 160.55 L 33.52 160.91 L 33.17 161.17 L 32.78 161.48 L 32.36 161.81 L 31.97 162.04 L 31.54 162.36 L 31.11 162.65 L 30.73 162.88 L 30.33 163.21 L 29.91 163.52 L 29.49 163.85 L 29.06 164.20 L 28.65 164.53 L 28.24 164.84 L 27.81 165.15 L 27.39 165.46 L 26.99 165.73 L 26.61 165.99 L 26.16 166.33 L 25.75 166.66 L 25.36 166.99 L 24.97 167.33 L 24.55 167.69 L 24.16 168.03 L 23.79 168.38 L 23.42 168.74 L 23.02 169.12 L 22.63 169.49 L 22.25 169.87 L 21.90 170.23 L 21.53 170.60 L 21.16 170.99 L 20.81 171.37 L 20.46 171.78 L 20.11 172.19 L 19.78 172.61 L 19.50 173.03 L 19.22 173.50 L 19.00 173.96 L 18.83 174.45 L 18.72 174.98 L 18.77 175.41 L 18.93 175.78 L 19.20 176.05 L 19.52 176.32 L 19.86 176.60 L 20.19 176.88 L 20.55 177.12 L 20.92 177.33 L 21.36 177.45 L 21.82 177.53 L 22.28 177.60 L 22.73 177.66 L 23.19 177.73 L 23.64 177.80 L 24.05 177.83 L 24.41 177.83" fill="none" stroke="#000000" stroke-width="0.5" stroke-linejoin="round" stroke-linecap="round"/>
</svg>