<?xml version="1.0" encoding="UTF-8"?>
<svg xmlns="http://www.w3.org/2000/svg" viewBox="20.62 140.00 37.55 42.63">
<path d="M 49.00 145.00 L 49.70 145.62 L 50.03 145.96 L 50.61 146.11 L 51.14 146.46 L 51.59 146.91 L 51.93 147.50 L 52.23 148.12 L 52.66 148.54 L 52.88 149.13 L 53.04 149.72 L 53.16 150.28 L 53.11 151.01 L 53.03 151.74 L 52.91 152.43 L 52.84 153.04 L 52.80 153.69 L 52.74 154.44 L 52.83 155.04 L 52.95 155.59 L 53.06 156.14 L 53.03 156.75 L 52.87 157.30 L 52.52 157.83 L 52.12 158.16 L 51.96 157.96 L 51.82 157.49 L 51.67 156.84 L 51.48 156.17 L 51.26 155.54 L 51.03 154.91 L 50.74 154.31 L 50.43 153.71 L 50.01 153.23 L 49.49 152.89 L 48.87 152.71 L 48.42 152.28 L 47.78 152.11 L 47.05 152.07 L 46.41 151.91 L 45.79 151.73 L 45.17 151.54 L 44.53 151.34 L 43.97 151.19 L 43.55 151.15 L 43.26 151.20 L 43.04 151.43 L 42.90 151.79 L 42.88 152.25 L 42.93 152.87 L 42.98 153.57 L 43.03 154.27 L 43.07 154.96 L 43.12 155.64 L 43.24 156.20 L 43.30 156.82 L 43.29 157.48 L 43.27 158.12 L 43.14 158.79 L 42.97 159.45 L 42.74 160.07 L 42.46 160.68 L 42.18 161.28 L 41.85 161.86 L 41.50 162.41 L 41.13 162.92 L 40.72 163.45 L 40.32 163.97 L 39.93 164.51 L 39.51 165.02 L 39.10 165.54 L 38.69 166.05 L 38.31 166.59 L 37.94 167.14 L 37.53 167.66 L 37.09 168.13 L 36.65 168.57 L 36.19 168.98 L 35.71 169.40 L 35.17 169.81 L 34.69 170.14 L 34.18 170.55 L 33.67 170.99 L 33.16 171.44 L 32.68 171.91 L 32.18 172.36 L 31.67 172.81 L 31.17 173.24 L 30.72 173.60 L 30.23 174.01 L 29.71 174.46 L 29.16 174.88 L 28.64 175.32 L 28.14 175.75 L 27.67 176.09 L 27.13 176.47 L 26.57 176.88 L 26.07 177.24 L 25.62 177.63" fill="none" stroke="#000000" stroke-width="0.5" stroke-linejoin="round" stroke-linecap="round"/>
</svg>