<?xml version="1.0" encoding="UTF-8"?>
<svg xmlns="http://www.w3.org/2000/svg" viewBox="13.91 140.00 41.08 42.18">
<path d="M 49.00 145.00 L 49.58 145.30 L 49.72 145.64 L 49.59 146.48 L 49.72 147.02 L 49.95 147.36 L 49.99 147.91 L 49.82 148.70 L 49.51 149.53 L 49.11 150.29 L 48.55 151.01 L 47.96 151.58 L 47.40 151.94 L 47.25 151.67 L 47.11 151.41 L 46.88 151.38 L 46.31 151.97 L 45.79 152.64 L 45.37 153.28 L 44.96 154.01 L 44.52 154.78 L 43.99 155.55 L 43.37 156.26 L 42.69 156.91 L 42.09 157.32 L 41.91 157.06 L 41.99 156.35 L 42.02 155.59 L 41.93 154.97 L 41.77 154.41 L 41.64 153.80 L 41.38 153.34 L 41.07 152.92 L 40.87 152.34 L 40.62 151.84 L 40.28 151.43 L 39.95 151.02 L 39.58 150.65 L 39.11 150.43 L 38.63 150.20 L 38.16 149.98 L 37.65 149.81 L 37.13 149.65 L 36.60 149.52 L 36.02 149.47 L 35.49 149.37 L 34.96 149.28 L 34.34 149.33 L 33.65 149.49 L 33.01 149.60 L 32.39 149.69 L 31.72 149.89 L 31.16 149.99 L 30.58 150.20 L 29.94 150.61 L 29.25 151.19 L 28.58 151.85 L 27.95 152.55 L 27.36 153.28 L 26.80 154.03 L 26.26 154.80 L 25.73 155.57 L 25.20 156.35 L 24.69 157.14 L 24.20 157.94 L 23.70 158.73 L 23.21 159.52 L 22.72 160.33 L 22.22 161.13 L 21.73 161.93 L 21.22 162.71 L 20.70 163.49 L 20.19 164.28 L 19.73 165.11 L 19.32 165.95 L 19.00 166.77 L 18.91 167.38 L 18.97 167.91 L 19.11 168.45 L 19.28 169.01 L 19.46 169.59 L 19.61 170.22 L 19.90 170.65 L 20.20 171.08 L 20.41 171.63 L 20.65 172.15 L 20.97 172.55 L 21.20 173.08 L 21.36 173.69 L 21.56 174.27 L 21.83 174.75 L 22.16 175.15 L 22.63 175.37 L 23.11 175.59 L 23.59 175.82 L 24.05 176.04 L 24.51 176.25 L 24.77 176.61 L 24.78 177.18" fill="none" stroke="#000000" stroke-width="0.5" stroke-linejoin="round" stroke-linecap="round"/>
</svg>