<?xml version="1.0" encoding="UTF-8"?>
<svg xmlns="http://www.w3.org/2000/svg" viewBox="14.68 140.00 42.51 42.51">
<path d="M 49.00 145.00 L 47.42 145.09 L 46.43 145.39 L 45.48 145.46 L 44.30 145.62 L 43.05 145.86 L 41.77 146.17 L 40.58 146.34 L 39.33 146.60 L 38.07 146.88 L 37.04 146.88 L 35.93 147.00 L 34.70 147.28 L 33.25 147.83 L 31.95 148.18 L 30.81 148.34 L 29.78 148.34 L 28.63 148.46 L 27.40 148.67 L 26.10 148.96 L 24.86 149.15 L 23.70 149.21 L 22.60 149.16 L 21.71 148.78 L 20.93 148.44 L 20.36 148.26 L 19.93 148.35 L 19.68 148.66 L 19.69 149.10 L 20.35 149.13 L 21.13 149.42 L 22.00 149.82 L 22.86 150.22 L 24.00 150.19 L 25.30 149.91 L 26.49 149.74 L 27.75 149.47 L 29.02 149.19 L 30.21 149.02 L 31.29 148.99 L 32.42 148.91 L 33.70 148.61 L 34.92 148.40 L 36.13 148.17 L 37.40 147.85 L 38.60 147.65 L 39.82 147.40 L 41.10 147.10 L 42.30 146.91 L 43.48 146.76 L 44.64 146.63 L 45.85 146.47 L 47.06 146.31 L 48.25 146.19 L 49.33 146.22 L 50.49 146.12 L 51.42 146.37 L 51.69 147.51 L 51.95 148.64 L 52.15 149.72 L 52.19 150.91 L 52.17 152.11 L 51.63 153.73 L 50.97 155.23 L 50.25 156.55 L 49.36 157.88 L 48.31 159.22 L 47.09 160.47 L 45.66 161.63 L 44.46 162.30 L 43.56 162.40 L 42.80 162.12 L 41.93 161.80 L 40.93 161.52 L 40.24 161.24 L 39.77 161.13 L 39.52 161.18 L 39.63 161.23 L 40.03 161.34 L 40.65 161.61 L 41.35 162.25 L 42.32 162.47 L 43.25 162.48 L 43.80 162.66 L 43.52 163.62 L 42.70 165.00 L 41.77 166.17 L 40.62 167.27 L 39.31 168.33 L 38.00 169.27 L 36.72 170.19 L 35.45 171.12 L 34.14 172.02 L 32.76 173.01 L 31.40 174.01 L 30.21 174.75 L 28.95 175.57 L 27.60 176.59 L 26.41 177.51" fill="none" stroke="#000000" stroke-width="0.5" stroke-linejoin="round" stroke-linecap="round"/>
</svg>