<?xml version="1.0" encoding="UTF-8"?>
<svg xmlns="http://www.w3.org/2000/svg" viewBox="19.86 140.00 45.96 42.41">
<path d="M 49.00 145.00 L 50.18 145.31 L 50.86 145.37 L 51.53 145.62 L 52.29 145.95 L 53.06 146.28 L 53.98 146.42 L 54.87 146.61 L 55.63 146.93 L 56.37 147.24 L 57.11 147.55 L 57.45 148.39 L 57.74 149.28 L 58.08 150.11 L 58.39 150.92 L 58.81 151.58 L 59.24 152.25 L 59.50 153.14 L 59.77 153.98 L 60.04 154.79 L 60.25 155.66 L 60.47 156.52 L 60.69 157.38 L 60.82 158.08 L 60.79 158.72 L 60.69 159.36 L 60.52 160.03 L 60.31 160.74 L 59.96 161.54 L 59.63 162.20 L 59.42 162.75 L 59.08 163.47 L 58.57 164.15 L 57.92 164.73 L 57.43 164.76 L 57.12 164.27 L 56.63 163.81 L 55.78 163.74 L 54.96 163.70 L 54.19 163.69 L 53.70 163.30 L 52.87 163.45 L 52.06 163.60 L 51.61 163.25 L 51.59 162.31 L 51.43 161.57 L 51.15 161.11 L 50.47 161.31 L 49.61 161.73 L 48.73 162.16 L 47.93 162.49 L 47.15 162.74 L 46.96 162.11 L 46.52 161.69 L 45.85 161.70 L 45.12 161.97 L 44.55 162.21 L 43.92 162.80 L 43.30 163.42 L 42.67 164.04 L 42.04 164.63 L 41.64 164.66 L 41.59 164.01 L 41.47 163.31 L 40.76 163.34 L 40.06 163.39 L 39.20 163.64 L 38.35 164.04 L 37.71 164.40 L 37.33 164.68 L 36.72 165.21 L 36.05 165.76 L 35.50 166.27 L 35.17 166.58 L 34.70 167.00 L 34.04 167.58 L 33.40 168.07 L 32.85 168.64 L 32.28 169.27 L 31.69 169.90 L 31.13 170.54 L 30.62 171.22 L 30.13 171.93 L 29.59 172.61 L 29.05 173.30 L 28.56 174.02 L 28.12 174.77 L 27.73 175.53 L 27.30 176.24 L 26.79 176.87 L 26.24 177.41 L 26.00 177.35 L 25.84 176.90 L 25.86 176.22 L 25.83 175.67 L 25.78 175.37 L 25.41 175.82 L 25.12 176.32 L 24.86 176.97" fill="none" stroke="#000000" stroke-width="0.5" stroke-linejoin="round" stroke-linecap="round"/>
</svg>