<?xml version="1.0" encoding="UTF-8"?>
<svg xmlns="http://www.w3.org/2000/svg" viewBox="19.99 140.00 34.01 42.32">
<path d="M 49.00 145.00 L 48.22 145.12 L 47.64 145.40 L 47.00 145.62 L 46.32 145.75 L 45.67 145.84 L 45.33 145.62 L 45.20 145.22 L 44.99 145.07 L 44.49 145.54 L 44.09 146.09 L 43.80 146.64 L 43.55 147.14 L 43.17 147.65 L 42.71 148.11 L 42.25 148.36 L 41.80 148.34 L 41.48 147.94 L 41.03 147.56 L 40.50 147.36 L 39.99 147.30 L 39.51 147.49 L 39.03 147.94 L 38.66 148.46 L 38.48 148.82 L 38.21 149.30 L 37.84 149.77 L 37.41 150.16 L 37.00 150.29 L 36.70 150.23 L 36.43 150.18 L 36.00 150.53 L 35.74 150.91 L 35.56 151.25 L 35.39 151.61 L 35.20 151.96 L 34.83 152.39 L 34.50 152.72 L 34.29 152.88 L 33.98 153.22 L 33.79 153.61 L 33.70 154.02 L 33.76 154.30 L 33.73 154.78 L 33.59 155.36 L 33.46 155.95 L 33.29 156.58 L 33.16 157.22 L 33.28 157.61 L 33.56 158.04 L 33.97 158.43 L 34.40 158.75 L 34.67 159.13 L 34.80 159.67 L 34.72 160.45 L 34.64 161.22 L 34.61 161.77 L 34.61 162.07 L 34.42 162.47 L 34.12 162.88 L 33.85 163.19 L 33.65 163.39 L 33.43 163.66 L 33.14 164.15 L 33.18 164.48 L 33.38 164.89 L 33.71 165.37 L 34.13 165.69 L 34.39 166.09 L 34.43 166.62 L 34.28 167.35 L 34.11 168.06 L 33.92 168.77 L 33.81 169.39 L 33.82 169.97 L 33.95 170.54 L 34.14 171.16 L 34.33 171.78 L 34.48 172.37 L 34.51 172.87 L 34.31 173.41 L 33.96 173.92 L 33.64 174.19 L 33.23 174.39 L 32.72 174.60 L 32.01 174.88 L 31.30 175.15 L 30.57 175.41 L 30.06 175.35 L 29.50 175.25 L 28.91 175.13 L 28.27 175.05 L 27.72 174.97 L 27.16 174.99 L 26.54 175.33 L 26.02 175.74 L 25.61 176.25 L 25.27 176.79 L 24.99 177.32" fill="none" stroke="#000000" stroke-width="0.5" stroke-linejoin="round" stroke-linecap="round"/>
</svg>