<?xml version="1.0" encoding="UTF-8"?>
<svg xmlns="http://www.w3.org/2000/svg" viewBox="20.51 140.00 33.49 42.24">
<path d="M 49.00 145.00 L 48.51 145.07 L 48.11 145.32 L 47.64 145.60 L 47.24 145.73 L 46.84 145.86 L 46.42 146.02 L 45.88 146.33 L 45.48 146.46 L 45.07 146.59 L 44.66 146.72 L 44.25 146.84 L 43.89 146.89 L 43.61 146.84 L 43.19 146.96 L 42.78 147.09 L 42.37 147.21 L 41.96 147.33 L 41.54 147.45 L 41.13 147.58 L 40.96 147.37 L 40.67 147.34 L 40.26 147.46 L 39.71 147.77 L 39.29 147.92 L 38.93 147.96 L 38.77 147.75 L 38.61 147.54 L 38.45 147.33 L 38.52 146.81 L 38.66 146.21 L 38.76 145.69 L 38.44 145.85 L 38.04 146.22 L 37.78 146.41 L 37.40 146.89 L 37.29 147.11 L 37.07 147.60 L 37.06 147.88 L 36.86 148.32 L 36.79 148.49 L 36.67 148.69 L 36.46 148.90 L 36.66 148.46 L 36.67 148.20 L 36.60 148.06 L 36.32 148.22 L 36.01 148.43 L 35.67 148.78 L 35.57 148.90 L 35.52 149.01 L 35.15 149.65 L 34.73 150.40 L 34.63 150.81 L 34.79 150.95 L 35.18 150.80 L 35.36 150.96 L 35.35 151.40 L 35.28 151.89 L 35.08 152.55 L 34.99 153.07 L 34.81 153.69 L 34.64 154.28 L 34.53 154.79 L 34.29 155.46 L 34.16 155.98 L 33.98 156.56 L 33.64 157.37 L 33.44 157.98 L 33.32 158.48 L 33.21 158.99 L 33.05 159.57 L 32.87 160.20 L 32.77 160.72 L 32.56 161.36 L 32.41 161.92 L 32.28 162.44 L 32.03 163.12 L 31.78 163.81 L 31.53 164.49 L 31.28 165.18 L 31.16 165.69 L 31.00 166.25 L 30.78 166.87 L 30.66 167.37 L 30.38 168.08 L 30.03 168.87 L 29.77 169.52 L 29.62 170.00 L 29.37 170.61 L 28.99 171.39 L 28.68 172.07 L 28.30 172.80 L 27.87 173.54 L 27.44 174.28 L 26.98 175.04 L 26.48 175.80 L 26.01 176.52 L 25.51 177.24" fill="none" stroke="#000000" stroke-width="0.5" stroke-linejoin="round" stroke-linecap="round"/>
</svg>