<?xml version="1.0" encoding="UTF-8"?>
<svg xmlns="http://www.w3.org/2000/svg" viewBox="18.30 140.00 35.70 42.67">
<path d="M 49.00 145.00 L 48.69 145.01 L 48.41 145.20 L 48.09 145.40 L 47.73 145.61 L 47.38 145.81 L 47.04 145.99 L 46.78 146.06 L 46.54 146.08 L 46.31 146.09 L 46.00 146.22 L 45.70 146.36 L 45.39 146.52 L 45.04 146.79 L 44.69 147.10 L 44.33 147.45 L 43.97 147.86 L 43.63 148.28 L 43.31 148.73 L 43.01 149.17 L 42.73 149.62 L 42.46 150.07 L 42.19 150.53 L 41.91 150.99 L 41.63 151.45 L 41.35 151.90 L 41.05 152.36 L 40.74 152.81 L 40.43 153.27 L 40.11 153.72 L 39.78 154.16 L 39.45 154.59 L 39.11 155.03 L 38.78 155.45 L 38.44 155.87 L 38.10 156.28 L 37.75 156.71 L 37.41 157.14 L 37.08 157.56 L 36.75 158.00 L 36.41 158.43 L 36.07 158.86 L 35.75 159.29 L 35.42 159.72 L 35.08 160.16 L 34.74 160.59 L 34.41 161.03 L 34.09 161.46 L 33.76 161.89 L 33.42 162.32 L 33.08 162.76 L 32.76 163.20 L 32.43 163.63 L 32.12 164.06 L 31.80 164.49 L 31.49 164.93 L 31.19 165.37 L 30.89 165.82 L 30.57 166.27 L 30.26 166.71 L 29.94 167.14 L 29.61 167.56 L 29.26 167.98 L 28.91 168.38 L 28.58 168.75 L 28.23 169.13 L 27.87 169.54 L 27.51 169.94 L 27.15 170.34 L 26.80 170.75 L 26.45 171.16 L 26.09 171.56 L 25.72 171.96 L 25.36 172.33 L 25.01 172.69 L 24.67 173.05 L 24.34 173.42 L 24.03 173.81 L 23.74 174.25 L 23.48 174.70 L 23.33 175.08 L 23.30 175.36 L 23.31 175.63 L 23.38 175.84 L 23.51 175.97 L 23.70 175.98 L 24.04 175.79 L 24.41 175.54 L 24.81 175.22 L 25.17 174.96 L 25.33 175.00 L 25.25 175.37 L 25.23 175.68 L 25.22 175.97 L 25.22 176.25 L 25.18 176.60 L 25.11 176.98 L 24.99 177.39 L 24.94 177.67" fill="none" stroke="#000000" stroke-width="0.5" stroke-linejoin="round" stroke-linecap="round"/>
</svg>