<?xml version="1.0" encoding="UTF-8"?>
<svg xmlns="http://www.w3.org/2000/svg" viewBox="20.33 140.00 33.67 42.41">
<path d="M 49.00 145.00 L 48.91 145.64 L 48.62 146.20 L 48.32 146.81 L 48.02 147.41 L 47.68 147.99 L 47.29 148.54 L 46.87 149.05 L 46.40 149.53 L 45.89 149.92 L 45.29 150.26 L 44.66 150.46 L 44.06 150.45 L 43.56 150.20 L 43.04 149.90 L 42.49 149.56 L 41.93 149.23 L 41.32 148.96 L 40.65 148.80 L 40.04 148.58 L 39.52 148.31 L 38.96 148.34 L 38.53 148.45 L 38.20 148.71 L 37.91 149.21 L 37.81 149.70 L 37.86 150.27 L 37.95 150.87 L 37.99 151.39 L 38.04 151.73 L 37.82 152.23 L 37.49 152.76 L 37.11 153.25 L 36.72 153.74 L 36.40 154.30 L 36.19 154.91 L 36.24 155.31 L 36.57 155.47 L 36.81 155.88 L 36.87 156.62 L 36.93 157.38 L 37.04 158.07 L 37.18 158.71 L 37.52 159.06 L 37.99 159.18 L 38.50 159.12 L 39.13 158.81 L 39.74 158.45 L 40.35 158.08 L 40.96 157.71 L 41.45 157.57 L 41.59 157.97 L 41.67 158.53 L 41.76 159.14 L 41.78 159.85 L 41.74 160.53 L 41.64 161.17 L 41.50 161.77 L 41.27 162.40 L 40.99 163.02 L 40.65 163.59 L 40.23 164.11 L 39.77 164.59 L 39.30 165.02 L 38.80 165.42 L 38.26 165.80 L 37.69 166.15 L 37.10 166.49 L 36.49 166.82 L 35.86 167.12 L 35.27 167.32 L 34.68 167.52 L 34.08 167.71 L 33.46 167.89 L 32.81 168.13 L 32.16 168.41 L 31.59 168.63 L 31.02 168.89 L 30.41 169.22 L 29.79 169.54 L 29.17 169.86 L 28.57 170.18 L 28.03 170.42 L 27.50 170.70 L 26.99 171.10 L 26.58 171.57 L 26.30 172.10 L 26.13 172.69 L 26.57 172.62 L 27.06 172.55 L 27.51 172.56 L 27.44 173.21 L 27.27 173.88 L 27.03 174.53 L 26.72 175.13 L 26.39 175.71 L 26.04 176.28 L 25.69 176.85 L 25.33 177.41" fill="none" stroke="#000000" stroke-width="0.5" stroke-linejoin="round" stroke-linecap="round"/>
</svg>