<?xml version="1.0" encoding="UTF-8"?>
<svg xmlns="http://www.w3.org/2000/svg" viewBox="13.45 140.00 41.68 42.03">
<path d="M 49.00 145.00 L 47.66 145.01 L 47.00 145.51 L 46.44 146.09 L 45.81 147.00 L 46.18 146.92 L 46.75 146.98 L 47.52 147.19 L 48.67 147.12 L 49.61 147.28 L 50.02 147.78 L 50.14 148.31 L 49.95 148.96 L 49.26 149.97 L 48.44 151.00 L 47.53 152.11 L 46.62 153.28 L 45.90 154.59 L 45.77 155.44 L 46.07 156.05 L 46.69 156.50 L 47.25 157.11 L 47.97 157.33 L 48.86 156.99 L 48.36 158.27 L 47.66 159.60 L 46.79 160.80 L 45.67 161.98 L 44.36 163.10 L 43.16 163.82 L 42.23 164.05 L 41.94 163.24 L 41.47 162.64 L 41.10 162.14 L 41.09 161.53 L 40.41 162.26 L 39.84 163.30 L 39.69 164.17 L 39.76 164.91 L 39.87 165.60 L 39.90 166.22 L 39.16 167.63 L 38.26 168.97 L 37.21 170.20 L 36.02 171.33 L 34.82 172.44 L 33.69 173.46 L 32.51 174.48 L 31.20 175.52 L 29.85 176.52 L 28.81 177.03 L 28.17 176.91 L 28.26 175.76 L 28.41 174.44 L 28.56 173.12 L 28.89 171.63 L 29.26 170.16 L 29.51 168.91 L 29.89 167.49 L 30.32 165.96 L 30.71 164.41 L 30.95 163.03 L 31.06 161.73 L 31.02 160.72 L 31.05 159.88 L 31.11 159.32 L 30.24 160.36 L 29.66 161.37 L 29.24 162.49 L 28.97 163.73 L 28.77 165.01 L 28.44 166.41 L 27.99 167.92 L 27.43 169.35 L 26.70 170.65 L 25.79 171.83 L 24.95 172.59 L 24.30 172.76 L 23.63 172.63 L 22.81 172.38 L 21.91 172.08 L 21.01 171.77 L 20.48 170.95 L 19.99 170.16 L 19.56 169.64 L 19.44 169.10 L 19.34 168.98 L 18.64 170.10 L 18.45 170.95 L 18.56 171.85 L 18.95 172.73 L 19.38 173.65 L 19.94 174.40 L 20.58 175.07 L 21.44 175.43 L 22.31 175.79 L 23.09 176.23 L 23.94 176.35 L 24.60 176.51" fill="none" stroke="#000000" stroke-width="0.5" stroke-linejoin="round" stroke-linecap="round"/>
</svg>