<?xml version="1.0" encoding="UTF-8"?>
<svg xmlns="http://www.w3.org/2000/svg" viewBox="14.73 140.00 39.27 42.06">
<path d="M 49.00 145.00 L 48.55 146.08 L 48.00 147.09 L 47.48 148.12 L 46.98 149.17 L 46.50 150.20 L 45.99 151.21 L 45.39 152.18 L 44.66 153.06 L 43.90 153.90 L 43.24 154.56 L 42.85 154.92 L 42.18 155.77 L 41.56 156.68 L 41.11 157.63 L 40.88 158.61 L 40.73 159.62 L 40.59 160.61 L 40.30 161.63 L 39.85 162.62 L 39.18 163.54 L 38.36 164.28 L 37.45 164.80 L 36.81 164.62 L 36.18 164.15 L 35.53 163.55 L 34.82 162.92 L 34.11 162.29 L 33.45 161.59 L 32.81 160.87 L 32.13 160.26 L 31.50 159.69 L 30.79 159.37 L 29.81 159.55 L 28.74 160.00 L 27.71 160.54 L 26.69 161.15 L 25.73 161.77 L 24.79 162.39 L 23.87 162.96 L 22.90 163.58 L 21.95 164.19 L 21.14 164.82 L 20.39 165.57 L 19.73 166.41 L 20.26 165.87 L 21.09 165.17 L 21.98 164.60 L 22.89 164.13 L 23.77 163.70 L 24.74 163.12 L 25.74 162.48 L 26.72 161.84 L 27.70 161.23 L 28.73 160.66 L 29.79 160.22 L 30.66 160.19 L 31.23 160.72 L 31.86 161.30 L 32.54 161.91 L 33.26 162.55 L 33.97 163.18 L 34.68 163.82 L 35.22 164.33 L 35.58 164.76 L 35.70 165.22 L 35.25 166.11 L 34.63 166.94 L 33.82 167.72 L 32.92 168.31 L 31.97 168.97 L 31.03 169.64 L 30.17 170.34 L 29.44 171.07 L 28.80 171.90 L 29.17 171.56 L 29.94 170.89 L 30.82 170.31 L 31.80 169.90 L 32.82 169.51 L 33.88 169.04 L 34.38 169.44 L 35.20 169.31 L 36.18 168.76 L 36.63 168.65 L 36.47 169.01 L 35.76 169.83 L 35.05 170.40 L 34.17 170.83 L 33.18 171.19 L 32.16 171.52 L 31.20 171.90 L 30.32 172.34 L 29.51 172.83 L 28.66 173.50 L 27.82 174.31 L 27.06 175.19 L 26.37 176.12 L 25.68 177.06" fill="none" stroke="#000000" stroke-width="0.5" stroke-linejoin="round" stroke-linecap="round"/>
</svg>