<?xml version="1.0" encoding="UTF-8"?>
<svg xmlns="http://www.w3.org/2000/svg" viewBox="20.07 140.00 38.54 42.48">
<path d="M 49.00 145.00 L 49.19 145.66 L 49.20 146.13 L 49.28 146.65 L 49.41 147.21 L 49.65 147.67 L 49.91 148.14 L 50.27 148.52 L 50.63 148.91 L 51.08 149.20 L 51.47 149.55 L 51.93 149.82 L 52.43 149.99 L 52.70 150.46 L 52.95 150.94 L 53.13 151.49 L 53.30 152.01 L 53.50 152.43 L 53.60 152.91 L 53.61 153.42 L 53.50 153.98 L 53.33 154.48 L 53.09 154.96 L 52.76 155.40 L 52.38 155.79 L 51.93 156.11 L 51.44 156.37 L 50.98 156.51 L 50.54 156.54 L 50.02 156.64 L 49.49 156.73 L 49.03 156.85 L 48.60 157.07 L 48.26 157.39 L 47.97 157.84 L 47.80 158.36 L 47.88 158.74 L 48.12 159.06 L 48.47 159.22 L 48.87 159.27 L 48.79 159.73 L 48.54 160.21 L 48.23 160.57 L 48.00 160.64 L 47.61 160.81 L 47.16 161.02 L 46.66 161.27 L 46.21 161.59 L 45.79 161.95 L 45.39 162.33 L 45.02 162.73 L 44.65 163.14 L 44.27 163.54 L 43.88 163.92 L 43.48 164.31 L 43.13 164.68 L 42.78 165.06 L 42.43 165.48 L 42.07 165.89 L 41.74 166.32 L 41.41 166.75 L 41.12 167.21 L 40.82 167.67 L 40.52 168.12 L 40.25 168.56 L 39.93 168.99 L 39.57 169.40 L 39.17 169.77 L 38.81 169.96 L 38.39 170.14 L 37.94 170.31 L 37.43 170.44 L 36.88 170.63 L 36.32 170.84 L 35.81 170.98 L 35.31 171.11 L 34.82 171.25 L 34.32 171.39 L 33.82 171.56 L 33.32 171.81 L 32.85 172.09 L 32.37 172.36 L 31.88 172.66 L 31.38 172.97 L 30.95 173.15 L 30.48 173.37 L 29.97 173.61 L 29.49 173.78 L 29.02 173.98 L 28.52 174.23 L 28.02 174.48 L 27.54 174.76 L 27.11 175.06 L 26.69 175.37 L 26.27 175.73 L 25.90 176.13 L 25.59 176.58 L 25.31 177.05 L 25.07 177.48" fill="none" stroke="#000000" stroke-width="0.5" stroke-linejoin="round" stroke-linecap="round"/>
</svg>