<?xml version="1.0" encoding="UTF-8"?>
<svg xmlns="http://www.w3.org/2000/svg" viewBox="20.37 140.00 33.63 42.82">
<path d="M 49.00 145.00 L 48.79 145.46 L 48.54 145.85 L 48.29 146.25 L 48.03 146.66 L 47.75 147.07 L 47.47 147.47 L 47.17 147.85 L 46.87 148.24 L 46.57 148.63 L 46.26 149.02 L 45.99 149.43 L 45.73 149.84 L 45.46 150.25 L 45.20 150.64 L 44.95 151.04 L 44.71 151.47 L 44.50 151.92 L 44.28 152.36 L 44.07 152.78 L 43.88 153.21 L 43.72 153.66 L 43.54 154.15 L 43.39 154.61 L 43.24 155.07 L 43.06 155.51 L 42.89 155.96 L 42.70 156.39 L 42.47 156.83 L 42.23 157.26 L 41.99 157.69 L 41.73 158.11 L 41.46 158.49 L 41.18 158.86 L 40.90 159.27 L 40.66 159.66 L 40.41 160.03 L 40.15 160.41 L 39.93 160.85 L 39.75 161.32 L 39.60 161.75 L 39.57 161.98 L 39.43 162.32 L 39.19 162.75 L 38.91 163.15 L 38.57 163.48 L 38.20 163.77 L 37.81 164.04 L 37.40 164.29 L 36.99 164.55 L 36.60 164.82 L 36.19 165.10 L 35.79 165.41 L 35.42 165.72 L 35.05 166.01 L 34.69 166.34 L 34.33 166.66 L 34.00 166.97 L 33.67 167.34 L 33.34 167.70 L 33.03 168.08 L 32.75 168.49 L 32.48 168.90 L 32.21 169.31 L 31.98 169.74 L 31.75 170.18 L 31.53 170.62 L 31.34 171.05 L 31.12 171.49 L 30.90 171.92 L 30.68 172.33 L 30.42 172.73 L 30.11 173.12 L 29.78 173.48 L 29.42 173.79 L 29.04 174.07 L 28.64 174.33 L 28.21 174.57 L 27.75 174.79 L 27.27 175.00 L 26.83 175.14 L 26.40 175.23 L 26.00 175.39 L 25.68 175.60 L 25.44 175.87 L 25.37 176.10 L 25.61 176.10 L 26.00 176.07 L 26.43 176.17 L 26.84 176.25 L 27.23 176.26 L 27.63 176.10 L 27.70 176.23 L 27.42 176.63 L 27.09 176.94 L 26.73 177.17 L 26.35 177.34 L 25.93 177.56 L 25.52 177.82" fill="none" stroke="#000000" stroke-width="0.5" stroke-linejoin="round" stroke-linecap="round"/>
</svg>