<?xml version="1.0" encoding="UTF-8"?>
<svg xmlns="http://www.w3.org/2000/svg" viewBox="20.85 140.00 33.15 41.37">
<path d="M 49.00 145.00 L 48.33 145.57 L 47.82 146.09 L 47.35 146.52 L 46.73 147.13 L 46.11 147.73 L 45.55 148.24 L 45.40 148.19 L 45.26 148.13 L 45.11 148.07 L 44.95 148.02 L 45.02 147.66 L 45.09 147.30 L 45.02 147.14 L 45.14 146.72 L 45.45 146.04 L 45.66 145.55 L 45.81 145.23 L 44.73 146.66 L 44.01 147.67 L 43.82 148.03 L 43.67 148.41 L 43.54 148.82 L 43.43 149.24 L 43.46 149.46 L 43.60 149.53 L 43.68 149.68 L 43.70 149.93 L 43.65 150.26 L 43.97 150.04 L 44.25 149.79 L 44.51 149.51 L 43.46 150.97 L 42.85 151.75 L 42.14 152.60 L 41.14 153.77 L 40.51 154.43 L 39.84 155.13 L 39.07 155.99 L 38.07 157.16 L 37.18 158.21 L 36.30 159.23 L 35.08 160.74 L 34.05 162.00 L 33.22 162.99 L 32.13 164.37 L 30.99 165.81 L 29.80 167.35 L 28.63 168.90 L 27.49 170.49 L 26.32 172.16 L 25.85 172.92 L 26.02 172.82 L 26.87 171.84 L 27.67 170.95 L 28.48 170.05 L 29.48 168.88 L 30.37 167.87 L 31.22 166.90 L 32.08 165.93 L 32.86 165.05 L 33.70 164.11 L 34.69 162.94 L 35.69 161.77 L 36.50 160.86 L 37.10 160.24 L 38.09 159.10 L 38.96 158.11 L 39.70 157.33 L 40.31 156.72 L 40.93 156.11 L 41.55 155.50 L 42.17 154.89 L 42.68 154.43 L 43.19 153.98 L 43.81 153.37 L 44.43 152.76 L 44.70 152.62 L 44.18 153.53 L 43.65 154.43 L 43.05 155.36 L 41.86 157.05 L 40.66 158.68 L 39.48 160.22 L 38.58 161.30 L 37.99 161.92 L 37.54 162.32 L 37.17 162.59 L 36.82 162.83 L 36.38 163.22 L 35.63 164.06 L 34.71 165.17 L 33.51 166.69 L 32.29 168.26 L 31.04 169.92 L 29.87 171.48 L 28.68 173.07 L 27.45 174.73 L 26.22 176.37" fill="none" stroke="#000000" stroke-width="0.5" stroke-linejoin="round" stroke-linecap="round"/>
</svg>