<?xml version="1.0" encoding="UTF-8"?>
<svg xmlns="http://www.w3.org/2000/svg" viewBox="19.69 140.00 34.31 42.43">
<path d="M 49.00 145.00 L 48.47 145.18 L 48.09 145.38 L 47.73 145.46 L 47.29 145.60 L 46.85 145.70 L 46.43 145.75 L 45.95 145.92 L 45.49 146.06 L 45.05 146.20 L 44.63 146.35 L 44.17 146.52 L 43.69 146.69 L 43.21 146.83 L 42.79 146.88 L 42.38 146.90 L 41.95 146.90 L 41.45 146.99 L 40.98 147.06 L 40.55 147.10 L 40.07 147.21 L 39.61 147.32 L 39.16 147.42 L 38.71 147.56 L 38.27 147.70 L 37.85 147.86 L 37.42 148.07 L 36.99 148.28 L 36.55 148.51 L 36.12 148.75 L 35.75 148.93 L 35.38 149.16 L 34.99 149.42 L 34.60 149.69 L 34.22 150.00 L 33.88 150.31 L 33.56 150.60 L 33.23 150.95 L 32.91 151.29 L 32.61 151.63 L 32.31 152.00 L 32.01 152.36 L 31.71 152.72 L 31.43 153.11 L 31.17 153.49 L 30.91 153.86 L 30.67 154.24 L 30.41 154.61 L 30.16 155.01 L 29.94 155.43 L 29.71 155.85 L 29.48 156.26 L 29.25 156.67 L 29.04 157.07 L 28.85 157.50 L 28.66 157.94 L 28.49 158.38 L 28.32 158.81 L 28.16 159.25 L 28.01 159.69 L 27.87 160.14 L 27.72 160.59 L 27.58 161.04 L 27.44 161.49 L 27.29 161.94 L 27.15 162.39 L 27.01 162.85 L 26.89 163.31 L 26.77 163.77 L 26.66 164.22 L 26.57 164.64 L 26.45 165.10 L 26.33 165.56 L 26.21 166.02 L 26.08 166.48 L 25.96 166.95 L 25.84 167.41 L 25.75 167.84 L 25.67 168.29 L 25.57 168.77 L 25.49 169.23 L 25.43 169.65 L 25.33 170.14 L 25.23 170.62 L 25.15 171.07 L 25.08 171.51 L 24.99 172.00 L 24.94 172.47 L 24.89 172.93 L 24.85 173.38 L 24.80 173.84 L 24.78 174.29 L 24.74 174.79 L 24.69 175.31 L 24.74 175.72 L 24.78 176.15 L 24.81 176.63 L 24.86 177.03 L 24.86 177.43" fill="none" stroke="#000000" stroke-width="0.5" stroke-linejoin="round" stroke-linecap="round"/>
</svg>