<?xml version="1.0" encoding="UTF-8"?>
<svg xmlns="http://www.w3.org/2000/svg" viewBox="13.65 140.00 40.35 41.50">
<path d="M 49.00 145.00 L 48.86 146.46 L 48.41 147.70 L 47.95 148.94 L 47.55 150.06 L 47.06 151.15 L 46.30 152.52 L 45.50 153.86 L 44.67 155.17 L 43.83 156.50 L 43.10 157.84 L 42.46 159.23 L 42.04 160.49 L 41.69 161.72 L 41.40 162.87 L 40.96 164.07 L 40.36 165.27 L 39.55 166.59 L 38.71 167.70 L 37.70 168.75 L 36.48 169.77 L 35.32 170.47 L 34.26 170.91 L 33.72 170.51 L 33.04 170.15 L 32.36 169.71 L 31.83 169.03 L 31.52 168.07 L 31.28 167.01 L 30.99 166.04 L 30.70 165.08 L 30.41 164.12 L 30.02 163.30 L 29.65 162.43 L 29.47 161.27 L 28.95 160.59 L 28.34 160.05 L 27.82 159.37 L 27.41 158.52 L 27.09 157.54 L 26.78 156.56 L 26.31 155.79 L 25.67 155.25 L 24.83 155.00 L 23.99 154.76 L 23.23 154.39 L 22.11 154.54 L 21.23 154.35 L 20.71 153.68 L 20.29 152.87 L 19.87 152.04 L 19.54 151.24 L 19.37 150.61 L 19.25 150.31 L 18.84 150.83 L 18.65 151.45 L 18.76 152.04 L 19.16 152.65 L 19.60 153.44 L 19.91 154.42 L 20.23 155.40 L 20.63 156.24 L 21.27 156.79 L 21.79 157.50 L 22.24 158.33 L 22.77 159.04 L 23.41 159.60 L 24.18 159.98 L 25.12 160.12 L 26.02 160.26 L 26.73 160.60 L 27.02 161.47 L 27.10 162.65 L 26.95 164.09 L 27.25 164.92 L 27.82 165.41 L 27.87 166.63 L 28.32 167.39 L 28.93 167.96 L 29.67 168.32 L 30.17 169.05 L 30.56 169.87 L 30.70 170.72 L 30.71 171.37 L 30.43 172.04 L 29.61 173.08 L 28.83 173.66 L 27.86 174.10 L 26.80 174.32 L 26.31 173.67 L 25.80 173.14 L 25.43 172.79 L 24.84 173.15 L 24.54 173.49 L 24.77 173.48 L 25.17 173.59 L 25.56 174.00 L 25.44 175.19 L 25.09 176.50" fill="none" stroke="#000000" stroke-width="0.5" stroke-linejoin="round" stroke-linecap="round"/>
</svg>