<?xml version="1.0" encoding="UTF-8"?>
<svg xmlns="http://www.w3.org/2000/svg" viewBox="13.86 140.00 40.14 42.72">
<path d="M 49.00 145.00 L 48.57 145.24 L 48.23 145.53 L 47.87 145.82 L 47.50 146.10 L 47.08 146.43 L 46.59 146.88 L 46.22 147.16 L 45.82 147.47 L 45.39 147.84 L 44.96 148.20 L 44.54 148.56 L 44.11 148.92 L 43.64 149.35 L 43.19 149.74 L 42.82 150.02 L 42.36 150.44 L 41.92 150.81 L 41.56 151.09 L 41.06 151.57 L 40.54 152.06 L 40.06 152.51 L 39.67 152.84 L 39.28 153.17 L 38.76 153.67 L 38.26 154.15 L 37.78 154.61 L 37.30 155.07 L 36.83 155.53 L 36.33 156.00 L 35.82 156.51 L 35.34 156.98 L 34.85 157.45 L 34.35 157.96 L 33.86 158.45 L 33.36 158.94 L 32.78 159.56 L 32.31 160.02 L 31.96 160.32 L 31.40 160.92 L 30.85 161.51 L 30.38 161.98 L 29.82 162.59 L 29.26 163.20 L 28.77 163.71 L 28.26 164.28 L 27.70 164.93 L 27.08 165.64 L 26.49 166.33 L 25.95 166.98 L 25.40 167.63 L 24.84 168.30 L 24.25 169.03 L 23.65 169.76 L 23.06 170.51 L 22.49 171.25 L 21.92 172.00 L 21.36 172.77 L 20.81 173.56 L 20.30 174.31 L 19.85 175.05 L 19.41 175.79 L 19.10 176.40 L 18.93 176.85 L 18.89 177.13 L 18.89 177.39 L 18.86 177.69 L 19.05 177.71 L 19.28 177.66 L 19.45 177.69 L 19.63 177.72 L 19.84 177.70 L 20.13 177.58 L 20.35 177.54 L 20.52 177.57 L 20.80 177.45 L 21.10 177.30 L 21.49 177.03 L 21.74 176.96 L 21.91 176.99 L 22.08 177.02 L 22.17 177.17 L 22.20 177.38 L 22.30 177.51 L 22.52 177.46 L 23.03 177.02 L 23.21 177.02 L 23.24 177.23 L 23.08 177.69 L 23.30 177.65 L 23.65 177.43 L 23.82 177.46 L 23.99 177.49 L 24.17 177.51 L 24.46 177.39 L 24.71 177.31 L 24.89 177.34 L 24.94 177.51 L 24.92 177.72" fill="none" stroke="#000000" stroke-width="0.5" stroke-linejoin="round" stroke-linecap="round"/>
</svg>