<?xml version="1.0" encoding="UTF-8"?>
<svg xmlns="http://www.w3.org/2000/svg" viewBox="20.27 140.00 33.73 42.54">
<path d="M 49.00 145.00 L 48.82 145.00 L 48.70 145.05 L 48.50 145.21 L 48.24 145.46 L 47.93 145.79 L 47.57 146.18 L 47.20 146.59 L 46.95 146.85 L 46.74 147.03 L 46.53 147.22 L 46.26 147.48 L 45.95 147.82 L 45.61 148.20 L 45.26 148.61 L 44.91 149.02 L 44.71 149.24 L 44.47 149.52 L 44.15 149.93 L 43.81 150.35 L 43.48 150.78 L 43.16 151.21 L 42.85 151.64 L 42.56 152.07 L 42.26 152.53 L 42.05 152.89 L 42.00 153.07 L 41.87 153.34 L 41.77 153.55 L 41.70 153.67 L 41.62 153.76 L 41.52 153.82 L 41.45 153.81 L 41.46 153.64 L 41.37 153.60 L 41.14 153.76 L 40.81 154.07 L 40.56 154.30 L 40.33 154.51 L 39.99 154.91 L 39.65 155.31 L 39.31 155.72 L 38.96 156.14 L 38.64 156.51 L 38.34 156.86 L 38.07 157.17 L 37.80 157.48 L 37.50 157.83 L 37.16 158.25 L 36.83 158.67 L 36.50 159.09 L 36.19 159.51 L 35.88 159.93 L 35.57 160.36 L 35.26 160.79 L 34.96 161.23 L 34.66 161.66 L 34.37 162.09 L 34.07 162.52 L 33.77 162.96 L 33.47 163.39 L 33.16 163.83 L 32.85 164.27 L 32.55 164.71 L 32.28 165.12 L 32.01 165.52 L 31.71 165.97 L 31.41 166.42 L 31.11 166.86 L 30.83 167.30 L 30.60 167.69 L 30.44 168.00 L 30.31 168.27 L 30.17 168.58 L 30.01 168.94 L 29.79 169.37 L 29.61 169.73 L 29.43 170.10 L 29.22 170.53 L 29.10 170.84 L 29.01 171.11 L 29.00 171.28 L 29.00 171.45 L 28.94 171.69 L 28.81 172.00 L 28.77 172.14 L 28.61 172.43 L 28.32 172.87 L 28.02 173.30 L 27.71 173.73 L 27.40 174.16 L 27.09 174.60 L 26.79 175.05 L 26.50 175.50 L 26.25 175.91 L 26.01 176.31 L 25.77 176.72 L 25.53 177.12 L 25.27 177.54" fill="none" stroke="#000000" stroke-width="0.5" stroke-linejoin="round" stroke-linecap="round"/>
</svg>