<?xml version="1.0" encoding="UTF-8"?>
<svg xmlns="http://www.w3.org/2000/svg" viewBox="15.44 140.00 38.56 42.77">
<path d="M 49.00 145.00 L 48.28 145.29 L 47.78 145.57 L 47.25 145.79 L 46.68 145.99 L 46.11 146.18 L 45.54 146.39 L 44.95 146.66 L 44.32 146.97 L 43.70 147.28 L 43.10 147.57 L 42.56 147.78 L 42.04 148.01 L 41.53 148.28 L 40.97 148.64 L 40.41 149.05 L 39.85 149.49 L 39.34 149.92 L 38.87 150.35 L 38.40 150.79 L 37.89 151.23 L 37.36 151.69 L 36.83 152.13 L 36.32 152.55 L 35.82 152.96 L 35.30 153.34 L 34.76 153.72 L 34.20 154.12 L 33.62 154.51 L 33.04 154.86 L 32.45 155.18 L 31.90 155.39 L 31.30 155.57 L 30.68 155.73 L 30.10 155.76 L 29.57 155.69 L 28.99 155.66 L 28.40 155.63 L 27.80 155.59 L 27.46 155.23 L 27.27 154.67 L 27.08 154.09 L 26.95 153.41 L 26.74 152.86 L 26.40 152.46 L 25.98 152.17 L 25.44 152.03 L 25.00 151.80 L 24.53 151.63 L 23.88 151.76 L 23.24 151.91 L 22.66 152.10 L 22.16 152.35 L 21.73 152.65 L 21.26 153.16 L 20.89 153.72 L 20.64 154.31 L 20.48 154.95 L 20.44 155.55 L 20.44 156.14 L 20.47 156.75 L 20.51 157.37 L 20.56 157.99 L 20.61 158.61 L 20.65 159.24 L 20.70 159.86 L 20.75 160.49 L 20.80 161.11 L 20.84 161.73 L 20.90 162.36 L 20.96 163.00 L 21.04 163.65 L 21.43 163.88 L 21.98 163.89 L 22.23 164.32 L 22.35 164.94 L 22.45 165.60 L 22.56 166.22 L 22.74 166.71 L 22.87 167.30 L 22.96 167.95 L 23.09 168.53 L 23.27 169.03 L 23.35 169.64 L 23.40 170.26 L 23.44 170.88 L 23.44 171.50 L 23.39 172.21 L 23.37 172.86 L 23.39 173.47 L 23.41 174.07 L 23.45 174.69 L 23.50 175.31 L 23.55 175.94 L 23.58 176.55 L 23.60 177.15 L 23.65 177.77 L 24.07 177.77 L 24.50 177.65" fill="none" stroke="#000000" stroke-width="0.5" stroke-linejoin="round" stroke-linecap="round"/>
</svg>