<?xml version="1.0" encoding="UTF-8"?>
<svg xmlns="http://www.w3.org/2000/svg" viewBox="20.22 140.00 33.78 42.96">
<path d="M 49.00 145.00 L 48.97 145.18 L 48.84 145.43 L 48.71 145.69 L 48.66 145.85 L 48.52 146.14 L 48.41 146.38 L 48.35 146.56 L 48.21 146.85 L 48.12 147.07 L 48.03 147.27 L 47.89 147.56 L 47.68 147.93 L 47.55 148.20 L 47.47 148.40 L 47.32 148.69 L 47.11 149.05 L 46.92 149.39 L 46.77 149.68 L 46.55 150.05 L 46.31 150.44 L 46.08 150.83 L 45.84 151.22 L 45.58 151.64 L 45.36 152.00 L 45.20 152.28 L 44.95 152.68 L 44.69 153.10 L 44.39 153.57 L 44.12 153.98 L 43.86 154.39 L 43.61 154.77 L 43.35 155.18 L 43.07 155.61 L 42.76 156.07 L 42.45 156.53 L 42.14 156.98 L 41.86 157.40 L 41.58 157.81 L 41.27 158.27 L 40.95 158.72 L 40.64 159.18 L 40.32 159.63 L 40.00 160.08 L 39.68 160.53 L 39.36 160.98 L 39.03 161.43 L 38.71 161.88 L 38.39 162.33 L 38.07 162.78 L 37.74 163.23 L 37.41 163.68 L 37.09 164.12 L 36.76 164.55 L 36.43 164.99 L 36.10 165.44 L 35.76 165.88 L 35.43 166.32 L 35.11 166.75 L 34.78 167.17 L 34.45 167.61 L 34.12 168.04 L 33.84 168.40 L 33.52 168.81 L 33.18 169.25 L 32.85 169.68 L 32.52 170.10 L 32.18 170.53 L 31.86 170.94 L 31.57 171.29 L 31.25 171.69 L 30.92 172.09 L 30.63 172.44 L 30.30 172.85 L 29.99 173.23 L 29.69 173.59 L 29.35 174.00 L 29.04 174.37 L 28.76 174.71 L 28.53 174.96 L 28.20 175.36 L 27.88 175.73 L 27.58 176.07 L 27.35 176.31 L 27.11 176.56 L 26.90 176.76 L 26.70 176.95 L 26.46 177.18 L 26.25 177.39 L 26.05 177.57 L 25.81 177.80 L 25.65 177.92 L 25.55 177.96 L 25.48 177.95 L 25.48 177.84 L 25.41 177.84 L 25.30 177.88 L 25.35 177.72 L 25.22 177.83" fill="none" stroke="#000000" stroke-width="0.5" stroke-linejoin="round" stroke-linecap="round"/>
</svg>