<?xml version="1.0" encoding="UTF-8"?>
<svg xmlns="http://www.w3.org/2000/svg" viewBox="20.12 140.00 33.88 42.57">
<path d="M 49.00 145.00 L 48.88 145.43 L 48.70 145.81 L 48.52 146.20 L 48.33 146.58 L 48.14 146.95 L 47.93 147.32 L 47.71 147.69 L 47.49 148.04 L 47.25 148.39 L 47.01 148.75 L 46.78 149.11 L 46.58 149.48 L 46.39 149.86 L 46.24 150.23 L 46.13 150.60 L 46.01 150.99 L 45.88 151.40 L 45.77 151.73 L 45.61 152.07 L 45.38 152.42 L 45.11 152.75 L 44.80 153.05 L 44.47 153.33 L 44.16 153.58 L 43.83 153.85 L 43.49 154.12 L 43.14 154.39 L 42.81 154.67 L 42.48 154.94 L 42.16 155.19 L 41.82 155.46 L 41.50 155.75 L 41.21 156.05 L 40.97 156.35 L 40.73 156.69 L 40.52 157.05 L 40.33 157.43 L 40.18 157.84 L 40.02 158.24 L 39.87 158.64 L 39.70 159.03 L 39.50 159.41 L 39.31 159.79 L 39.10 160.15 L 38.87 160.51 L 38.62 160.84 L 38.34 161.16 L 38.05 161.47 L 37.75 161.77 L 37.42 162.06 L 37.09 162.33 L 36.78 162.57 L 36.43 162.84 L 36.08 163.11 L 35.74 163.39 L 35.47 163.65 L 35.20 163.97 L 34.94 164.31 L 34.71 164.66 L 34.52 165.04 L 34.33 165.41 L 34.14 165.79 L 33.95 166.17 L 33.73 166.53 L 33.51 166.89 L 33.28 167.24 L 33.05 167.60 L 32.84 167.98 L 32.63 168.35 L 32.41 168.71 L 32.20 169.07 L 31.99 169.44 L 31.76 169.79 L 31.54 170.14 L 31.31 170.50 L 31.09 170.86 L 30.88 171.23 L 30.65 171.58 L 30.41 171.92 L 30.17 172.26 L 29.87 172.57 L 29.53 172.84 L 29.18 173.07 L 28.86 173.24 L 28.56 173.38 L 28.17 173.62 L 27.79 173.86 L 27.44 174.13 L 27.16 174.39 L 26.88 174.71 L 26.59 175.02 L 26.32 175.34 L 26.09 175.69 L 25.89 176.06 L 25.69 176.44 L 25.50 176.82 L 25.30 177.19 L 25.12 177.57" fill="none" stroke="#000000" stroke-width="0.5" stroke-linejoin="round" stroke-linecap="round"/>
</svg>