<?xml version="1.0" encoding="UTF-8"?>
<svg xmlns="http://www.w3.org/2000/svg" viewBox="14.29 140.00 46.50 42.78">
<path d="M 49.00 145.00 L 49.83 145.21 L 50.30 145.24 L 50.82 145.35 L 51.30 145.66 L 51.67 146.13 L 52.13 146.47 L 52.62 146.78 L 52.95 147.31 L 53.39 147.68 L 53.88 147.98 L 54.36 148.27 L 54.76 148.67 L 54.94 149.35 L 55.20 149.89 L 55.43 150.44 L 55.59 151.10 L 55.66 151.85 L 55.77 152.36 L 55.79 152.80 L 55.57 153.39 L 55.12 154.10 L 54.63 154.70 L 54.06 155.22 L 53.41 155.67 L 52.73 156.17 L 52.08 156.66 L 51.51 157.08 L 50.91 157.68 L 50.33 158.31 L 49.78 158.97 L 49.29 159.64 L 48.81 160.34 L 48.32 161.05 L 47.83 161.77 L 47.33 162.48 L 46.84 163.18 L 46.36 163.90 L 45.88 164.62 L 45.43 165.30 L 44.98 166.01 L 44.50 166.74 L 44.02 167.46 L 43.51 168.17 L 43.01 168.86 L 42.50 169.55 L 41.99 170.26 L 41.50 170.98 L 41.02 171.70 L 40.55 172.41 L 40.09 173.10 L 39.60 173.80 L 39.09 174.49 L 38.55 175.16 L 37.95 175.79 L 37.30 176.38 L 36.62 176.92 L 35.99 177.25 L 35.40 177.44 L 34.86 177.44 L 34.13 177.61 L 33.51 177.56 L 33.05 177.28 L 32.58 177.00 L 32.10 176.70 L 31.49 176.56 L 30.90 176.40 L 30.41 176.11 L 29.84 175.92 L 29.23 175.80 L 28.73 175.51 L 28.21 175.25 L 27.60 175.12 L 27.04 174.91 L 26.54 174.61 L 26.08 174.33 L 25.65 174.08 L 25.22 173.82 L 24.42 174.07 L 23.73 174.18 L 23.31 173.92 L 22.80 173.86 L 22.33 173.78 L 22.01 173.61 L 21.45 173.95 L 20.81 174.54 L 20.28 175.18 L 19.86 175.91 L 19.50 176.73 L 19.29 177.48 L 19.78 177.37 L 20.42 177.13 L 21.11 176.94 L 21.54 177.19 L 22.23 177.13 L 22.87 177.14 L 23.35 177.43 L 23.75 177.66 L 24.16 177.78" fill="none" stroke="#000000" stroke-width="0.5" stroke-linejoin="round" stroke-linecap="round"/>
</svg>