<?xml version="1.0" encoding="UTF-8"?>
<svg xmlns="http://www.w3.org/2000/svg" viewBox="17.82 140.00 36.18 42.26">
<path d="M 49.00 145.00 L 48.62 145.65 L 48.22 146.28 L 47.87 146.90 L 47.53 147.55 L 47.21 148.24 L 46.94 148.93 L 46.66 149.61 L 46.37 150.27 L 46.12 150.94 L 45.86 151.63 L 45.58 152.35 L 45.30 153.02 L 44.98 153.67 L 44.62 154.28 L 44.22 154.91 L 43.79 155.52 L 43.34 156.08 L 42.85 156.60 L 42.33 157.15 L 41.85 157.70 L 41.43 158.29 L 41.08 158.92 L 40.75 159.55 L 40.48 160.19 L 40.23 160.88 L 39.96 161.56 L 39.65 162.22 L 39.27 162.84 L 38.84 163.46 L 38.39 164.02 L 37.90 164.54 L 37.33 165.05 L 36.73 165.51 L 36.11 165.93 L 35.46 166.29 L 34.83 166.60 L 34.22 166.92 L 33.79 167.04 L 33.94 166.46 L 34.24 165.76 L 34.58 165.08 L 34.95 164.43 L 35.31 163.76 L 35.63 163.14 L 35.45 163.18 L 34.91 163.65 L 34.31 164.13 L 33.66 164.57 L 32.99 164.95 L 32.30 165.28 L 31.93 165.07 L 31.70 164.57 L 31.61 163.84 L 31.50 163.10 L 31.45 162.37 L 31.55 161.63 L 31.62 161.03 L 31.84 160.35 L 32.09 159.61 L 32.32 158.85 L 32.52 158.11 L 32.32 157.83 L 31.72 158.04 L 31.25 158.11 L 30.73 158.34 L 30.23 158.71 L 29.76 159.25 L 29.40 159.87 L 29.12 160.53 L 28.88 161.19 L 28.62 161.88 L 28.35 162.59 L 28.06 163.30 L 27.77 163.97 L 27.45 164.61 L 27.11 165.25 L 26.77 165.91 L 26.42 166.57 L 26.05 167.23 L 25.66 167.86 L 25.28 168.46 L 24.89 169.08 L 24.48 169.72 L 24.08 170.34 L 23.67 170.97 L 23.31 171.63 L 23.02 172.34 L 22.82 173.08 L 22.98 173.49 L 23.54 173.46 L 24.18 173.42 L 24.66 173.72 L 24.87 174.47 L 24.99 175.17 L 25.34 175.43 L 25.59 175.73 L 25.41 176.53 L 25.19 177.26" fill="none" stroke="#000000" stroke-width="0.5" stroke-linejoin="round" stroke-linecap="round"/>
</svg>