<?xml version="1.0" encoding="UTF-8"?>
<svg xmlns="http://www.w3.org/2000/svg" viewBox="19.08 140.00 34.92 42.59">
<path d="M 49.00 145.00 L 48.63 145.28 L 48.30 145.59 L 47.96 145.89 L 47.62 146.16 L 47.27 146.41 L 46.90 146.68 L 46.53 146.94 L 46.18 147.20 L 45.83 147.47 L 45.46 147.75 L 45.09 148.03 L 44.74 148.31 L 44.41 148.56 L 44.07 148.84 L 43.72 149.13 L 43.37 149.42 L 43.03 149.73 L 42.71 150.04 L 42.41 150.37 L 42.09 150.68 L 41.75 150.99 L 41.40 151.28 L 41.06 151.52 L 40.70 151.75 L 40.32 151.96 L 39.91 152.15 L 39.51 152.35 L 39.13 152.56 L 38.75 152.79 L 38.39 153.04 L 38.01 153.31 L 37.63 153.59 L 37.27 153.87 L 36.95 154.13 L 36.61 154.40 L 36.27 154.70 L 35.94 155.01 L 35.63 155.33 L 35.33 155.66 L 35.04 156.01 L 34.78 156.36 L 34.52 156.73 L 34.25 157.08 L 33.99 157.44 L 33.75 157.82 L 33.53 158.21 L 33.30 158.60 L 33.07 158.96 L 32.83 159.30 L 32.58 159.66 L 32.31 160.01 L 32.02 160.35 L 31.70 160.66 L 31.37 160.97 L 31.04 161.28 L 30.71 161.59 L 30.38 161.90 L 30.05 162.21 L 29.72 162.52 L 29.39 162.82 L 29.06 163.13 L 28.73 163.44 L 28.40 163.75 L 28.08 164.06 L 27.75 164.37 L 27.43 164.69 L 27.14 165.02 L 26.85 165.36 L 26.57 165.71 L 26.29 166.06 L 26.02 166.43 L 25.77 166.79 L 25.49 167.14 L 25.22 167.50 L 24.95 167.85 L 24.71 168.22 L 24.50 168.62 L 24.31 169.03 L 24.17 169.45 L 24.11 169.86 L 24.08 170.31 L 24.08 170.77 L 24.11 171.20 L 24.21 171.55 L 24.24 171.99 L 24.24 172.45 L 24.23 172.90 L 24.20 173.35 L 24.14 173.82 L 24.10 174.28 L 24.09 174.72 L 24.08 175.18 L 24.09 175.65 L 24.17 176.03 L 24.28 176.43 L 24.35 176.94 L 24.43 177.35 L 24.58 177.59" fill="none" stroke="#000000" stroke-width="0.5" stroke-linejoin="round" stroke-linecap="round"/>
</svg>