<?xml version="1.0" encoding="UTF-8"?>
<svg xmlns="http://www.w3.org/2000/svg" viewBox="19.24 140.00 34.76 42.37">
<path d="M 49.00 145.00 L 48.52 145.35 L 48.11 145.75 L 47.69 146.17 L 47.25 146.55 L 46.79 146.92 L 46.27 147.29 L 45.92 147.35 L 45.76 147.10 L 45.53 146.87 L 45.26 146.60 L 44.97 146.32 L 44.73 145.98 L 44.36 145.83 L 43.96 145.71 L 43.58 145.60 L 43.18 145.54 L 42.72 145.59 L 42.23 145.72 L 41.73 145.90 L 41.27 146.06 L 40.80 146.29 L 40.32 146.57 L 39.84 146.85 L 39.34 147.16 L 38.82 147.49 L 38.37 147.69 L 38.20 147.46 L 38.20 146.95 L 38.16 146.50 L 38.06 146.18 L 37.81 146.17 L 37.42 146.44 L 37.00 146.86 L 36.65 147.33 L 36.36 147.84 L 36.10 148.38 L 35.89 148.87 L 35.65 149.36 L 35.38 149.88 L 35.11 150.41 L 34.81 150.92 L 34.49 151.41 L 34.19 151.92 L 33.90 152.45 L 33.66 152.99 L 33.47 153.48 L 33.29 153.98 L 33.12 154.49 L 32.94 155.00 L 32.72 155.51 L 32.45 156.03 L 32.13 156.55 L 31.79 157.04 L 31.44 157.53 L 31.09 158.01 L 30.75 158.51 L 30.43 159.01 L 30.13 159.51 L 29.86 160.04 L 29.61 160.58 L 29.36 161.13 L 29.13 161.62 L 28.89 162.09 L 28.60 162.60 L 28.28 163.11 L 27.95 163.61 L 27.59 164.10 L 27.24 164.58 L 26.91 165.08 L 26.63 165.60 L 26.37 166.14 L 26.13 166.69 L 26.05 167.02 L 25.88 167.47 L 25.65 168.03 L 25.41 168.60 L 25.24 169.09 L 25.09 169.58 L 24.89 170.13 L 24.92 170.41 L 24.90 170.75 L 24.71 171.33 L 24.54 171.94 L 24.36 172.53 L 24.40 172.81 L 24.32 173.33 L 24.28 173.81 L 24.26 174.30 L 24.56 174.34 L 24.46 174.91 L 24.33 175.48 L 24.24 176.00 L 24.58 175.94 L 24.81 176.05 L 24.87 176.41 L 25.15 176.44 L 25.14 176.85 L 25.01 177.37" fill="none" stroke="#000000" stroke-width="0.5" stroke-linejoin="round" stroke-linecap="round"/>
</svg>