<?xml version="1.0" encoding="UTF-8"?>
<svg xmlns="http://www.w3.org/2000/svg" viewBox="13.92 140.00 40.08 42.39">
<path d="M 49.00 145.00 L 48.52 145.52 L 48.10 146.08 L 47.67 146.63 L 47.24 147.17 L 46.82 147.70 L 46.38 148.25 L 45.91 148.78 L 45.41 149.28 L 44.89 149.76 L 44.55 150.02 L 44.22 150.30 L 43.72 150.81 L 43.26 151.32 L 42.84 151.86 L 42.46 152.45 L 42.10 153.04 L 41.73 153.61 L 41.36 154.19 L 41.01 154.79 L 40.67 155.40 L 40.32 155.99 L 39.97 156.58 L 39.61 157.16 L 39.27 157.76 L 38.90 158.35 L 38.51 158.92 L 38.07 159.45 L 37.61 159.98 L 37.18 160.43 L 36.74 160.83 L 36.18 161.28 L 35.64 161.64 L 35.12 161.93 L 34.67 162.10 L 34.22 162.20 L 33.84 162.17 L 33.38 162.28 L 32.96 162.47 L 32.61 162.72 L 32.21 163.24 L 32.03 163.62 L 32.12 163.80 L 32.39 163.87 L 32.68 163.95 L 32.72 164.32 L 32.55 164.92 L 32.31 165.52 L 31.98 166.14 L 31.63 166.73 L 31.25 167.31 L 30.84 167.88 L 30.41 168.41 L 29.92 168.91 L 29.45 169.34 L 29.09 169.57 L 28.64 169.82 L 28.09 170.12 L 27.51 170.40 L 26.99 170.59 L 26.61 170.56 L 26.22 170.53 L 25.82 170.48 L 25.42 170.44 L 24.93 170.51 L 24.41 170.63 L 23.89 170.76 L 23.48 170.75 L 23.05 170.77 L 22.55 170.90 L 22.04 171.03 L 21.56 171.18 L 21.08 171.34 L 20.58 171.58 L 20.06 171.90 L 19.63 172.29 L 19.24 172.79 L 18.92 173.35 L 18.97 173.54 L 19.24 173.59 L 19.61 173.62 L 20.04 173.68 L 20.46 173.74 L 20.84 173.84 L 21.06 174.15 L 21.53 174.12 L 22.07 174.00 L 22.32 174.28 L 22.64 174.45 L 23.06 174.51 L 23.49 174.57 L 23.82 174.76 L 24.05 175.09 L 24.29 175.42 L 24.52 175.74 L 24.74 176.06 L 24.94 176.38 L 24.93 176.90 L 24.88 177.39" fill="none" stroke="#000000" stroke-width="0.5" stroke-linejoin="round" stroke-linecap="round"/>
</svg>