<?xml version="1.0" encoding="UTF-8"?>
<svg xmlns="http://www.w3.org/2000/svg" viewBox="20.59 140.00 50.85 42.23">
<path d="M 49.00 145.00 L 49.29 146.08 L 49.30 146.84 L 49.44 147.58 L 49.65 148.38 L 49.88 149.19 L 50.12 150.01 L 50.34 150.86 L 50.58 151.71 L 50.89 152.50 L 51.26 153.18 L 51.75 153.68 L 52.47 153.85 L 53.30 153.77 L 54.15 153.56 L 54.96 153.32 L 55.83 152.89 L 56.67 152.38 L 57.43 151.92 L 58.22 151.38 L 59.06 150.83 L 59.88 150.29 L 60.57 149.87 L 61.26 149.48 L 62.13 148.98 L 63.06 148.50 L 63.92 148.16 L 64.53 148.25 L 65.23 148.26 L 65.95 148.23 L 66.44 148.38 L 66.33 149.08 L 65.95 149.87 L 65.41 150.61 L 64.77 151.20 L 64.04 151.69 L 63.25 152.13 L 62.44 152.58 L 61.63 153.04 L 60.84 153.48 L 60.01 154.00 L 59.21 154.51 L 58.45 154.97 L 57.66 155.51 L 56.87 156.05 L 56.11 156.56 L 55.32 157.12 L 54.51 157.66 L 53.64 158.16 L 52.77 158.57 L 51.92 158.82 L 51.26 158.70 L 50.58 158.47 L 49.91 158.12 L 49.28 157.64 L 48.66 157.15 L 48.03 156.67 L 47.41 156.19 L 46.86 155.61 L 46.38 154.96 L 45.99 154.27 L 45.56 153.79 L 45.07 153.51 L 44.14 153.90 L 43.19 154.37 L 42.33 154.82 L 41.59 155.28 L 40.96 155.65 L 40.25 156.18 L 39.51 156.83 L 38.81 157.52 L 38.16 158.25 L 37.51 158.98 L 36.83 159.69 L 36.13 160.34 L 35.43 160.95 L 34.76 161.48 L 34.00 162.03 L 33.19 162.60 L 32.37 163.14 L 31.59 163.63 L 30.81 164.09 L 30.04 164.54 L 29.31 165.03 L 28.65 165.57 L 28.03 166.29 L 27.54 167.08 L 27.16 167.94 L 27.03 168.71 L 26.97 169.55 L 26.97 170.41 L 27.00 171.31 L 27.02 172.20 L 27.03 173.07 L 26.96 173.89 L 26.78 174.70 L 26.49 175.53 L 26.08 176.39 L 25.59 177.23" fill="none" stroke="#000000" stroke-width="0.5" stroke-linejoin="round" stroke-linecap="round"/>
</svg>