<?xml version="1.0" encoding="UTF-8"?>
<svg xmlns="http://www.w3.org/2000/svg" viewBox="20.16 140.00 34.85 41.75">
<path d="M 49.00 145.00 L 48.52 146.06 L 48.19 147.10 L 48.02 148.16 L 48.02 149.22 L 48.22 150.30 L 48.50 151.37 L 48.81 152.45 L 49.06 153.65 L 49.23 154.97 L 49.53 156.10 L 49.77 157.15 L 49.89 158.11 L 50.01 159.08 L 49.94 160.23 L 49.70 161.50 L 49.50 162.47 L 49.16 163.41 L 48.69 164.43 L 48.18 165.54 L 47.56 166.57 L 46.83 167.52 L 46.01 168.39 L 45.16 169.23 L 44.29 170.05 L 43.42 170.83 L 42.52 171.61 L 41.58 172.38 L 40.59 173.12 L 39.61 173.81 L 38.62 174.41 L 37.56 174.95 L 36.42 175.44 L 35.25 175.78 L 34.09 175.97 L 32.90 176.05 L 31.83 175.91 L 30.88 175.76 L 30.07 175.62 L 30.01 174.68 L 30.35 173.50 L 30.87 172.40 L 31.57 171.42 L 32.39 170.56 L 33.26 169.75 L 34.15 168.98 L 35.03 168.21 L 35.86 167.41 L 36.73 166.60 L 37.61 165.78 L 38.51 164.98 L 39.43 164.26 L 40.40 163.60 L 41.45 163.04 L 42.44 162.64 L 43.29 162.18 L 43.93 161.62 L 44.54 160.72 L 44.77 159.87 L 44.61 159.08 L 43.61 158.94 L 42.56 158.69 L 41.63 158.46 L 41.12 158.21 L 41.32 157.54 L 41.78 156.88 L 41.88 156.86 L 42.15 156.61 L 42.56 156.12 L 43.01 155.28 L 42.99 154.58 L 42.85 153.68 L 42.62 152.68 L 41.89 152.47 L 40.77 153.05 L 39.77 153.73 L 38.89 154.52 L 38.08 155.42 L 37.35 156.36 L 36.68 157.35 L 36.03 158.36 L 35.39 159.36 L 34.74 160.34 L 34.08 161.35 L 33.43 162.36 L 32.76 163.35 L 32.08 164.33 L 31.39 165.31 L 30.73 166.31 L 30.07 167.31 L 29.40 168.30 L 28.73 169.29 L 28.10 170.31 L 27.51 171.36 L 26.96 172.44 L 26.47 173.50 L 26.03 174.59 L 25.58 175.68 L 25.16 176.75" fill="none" stroke="#000000" stroke-width="0.5" stroke-linejoin="round" stroke-linecap="round"/>
</svg>