<?xml version="1.0" encoding="UTF-8"?>
<svg xmlns="http://www.w3.org/2000/svg" viewBox="20.67 140.00 38.21 42.81">
<path d="M 49.00 145.00 L 48.74 145.20 L 48.48 145.68 L 48.26 146.20 L 48.20 146.57 L 48.21 147.00 L 48.34 147.38 L 48.49 147.74 L 48.56 148.21 L 48.63 148.68 L 48.73 149.10 L 48.98 149.33 L 49.13 149.69 L 49.27 150.07 L 49.34 150.54 L 49.56 150.82 L 49.84 151.01 L 50.14 151.18 L 50.44 151.34 L 50.80 151.42 L 51.26 151.37 L 51.59 151.48 L 51.91 151.60 L 52.37 151.54 L 52.83 151.49 L 53.21 151.53 L 53.50 151.68 L 53.76 151.82 L 53.89 152.10 L 53.64 152.82 L 53.19 153.76 L 52.68 154.73 L 52.13 155.67 L 51.54 156.57 L 50.89 157.45 L 50.16 158.32 L 49.56 158.94 L 49.16 159.17 L 49.02 158.96 L 49.11 158.35 L 49.23 157.67 L 49.39 156.91 L 49.11 156.77 L 48.84 156.58 L 48.56 156.41 L 48.11 156.47 L 47.65 156.53 L 47.20 156.59 L 46.74 156.65 L 46.36 156.60 L 46.07 156.44 L 45.77 156.27 L 45.42 156.17 L 44.98 156.20 L 44.68 156.04 L 44.38 155.88 L 44.08 155.71 L 43.63 155.75 L 43.23 155.73 L 42.94 155.57 L 42.54 155.59 L 42.16 155.70 L 41.84 155.86 L 41.19 156.62 L 40.62 157.41 L 40.16 158.19 L 39.87 158.88 L 39.63 159.59 L 39.35 160.35 L 39.03 161.14 L 38.65 161.98 L 38.19 162.89 L 37.66 163.85 L 37.12 164.79 L 36.57 165.73 L 36.03 166.67 L 35.51 167.63 L 35.03 168.58 L 34.64 169.42 L 34.47 169.97 L 34.23 170.65 L 33.84 171.52 L 33.40 172.40 L 32.89 173.31 L 32.31 174.22 L 31.65 175.14 L 30.95 176.00 L 30.22 176.80 L 29.61 177.32 L 29.02 177.72 L 28.61 177.81 L 28.31 177.69 L 28.11 177.41 L 27.96 177.05 L 27.76 176.79 L 27.36 176.79 L 26.78 177.07 L 26.20 177.43 L 25.67 177.78" fill="none" stroke="#000000" stroke-width="0.5" stroke-linejoin="round" stroke-linecap="round"/>
</svg>