<?xml version="1.0" encoding="UTF-8"?>
<svg xmlns="http://www.w3.org/2000/svg" viewBox="14.78 140.00 39.22 42.81">
<path d="M 49.00 145.00 L 48.61 145.62 L 48.16 146.14 L 47.66 146.58 L 47.07 147.01 L 46.64 147.13 L 46.10 147.26 L 45.44 147.37 L 44.71 147.50 L 43.99 147.67 L 43.28 147.90 L 42.59 148.14 L 41.91 148.41 L 41.22 148.74 L 40.56 149.05 L 39.90 149.37 L 39.24 149.72 L 38.58 150.06 L 37.92 150.40 L 37.28 150.72 L 36.62 151.05 L 35.96 151.39 L 35.31 151.71 L 34.66 152.04 L 33.98 152.38 L 33.31 152.72 L 32.68 153.03 L 32.04 153.31 L 31.35 153.67 L 30.68 153.99 L 30.05 154.27 L 29.39 154.61 L 28.73 154.94 L 28.08 155.26 L 27.44 155.61 L 26.80 155.97 L 26.15 156.35 L 25.52 156.73 L 24.90 157.11 L 24.27 157.51 L 23.65 157.90 L 23.06 158.30 L 22.49 158.74 L 21.95 159.22 L 21.42 159.73 L 20.95 160.30 L 20.53 160.90 L 20.18 161.56 L 19.94 162.27 L 19.79 163.01 L 19.78 163.72 L 20.07 164.12 L 20.45 164.38 L 21.06 164.34 L 21.73 164.17 L 22.45 163.80 L 23.08 163.41 L 23.68 163.00 L 24.28 162.54 L 24.87 162.10 L 25.45 161.67 L 26.03 161.24 L 26.63 160.81 L 27.24 160.37 L 27.83 159.94 L 28.41 159.51 L 28.98 159.07 L 29.55 158.60 L 29.66 158.72 L 29.36 159.39 L 29.03 160.06 L 28.72 160.73 L 28.42 161.40 L 28.14 162.09 L 27.91 162.79 L 27.75 163.51 L 27.64 164.25 L 27.58 164.98 L 27.64 165.64 L 27.72 166.36 L 27.82 167.15 L 28.01 167.83 L 28.20 168.43 L 28.41 168.89 L 28.41 169.54 L 28.26 170.26 L 27.98 170.96 L 27.61 171.61 L 27.20 172.21 L 26.76 172.79 L 26.32 173.37 L 25.85 173.95 L 25.39 174.52 L 24.94 175.10 L 24.56 175.72 L 24.25 176.40 L 24.01 177.14 L 23.97 177.61 L 24.14 177.81" fill="none" stroke="#000000" stroke-width="0.5" stroke-linejoin="round" stroke-linecap="round"/>
</svg>