<?xml version="1.0" encoding="UTF-8"?>
<svg xmlns="http://www.w3.org/2000/svg" viewBox="20.06 140.00 33.94 42.65">
<path d="M 49.00 145.00 L 48.94 145.31 L 48.65 145.75 L 48.13 146.47 L 47.44 147.39 L 47.25 147.56 L 47.10 147.63 L 46.86 147.75 L 46.55 147.97 L 46.21 148.21 L 45.87 148.46 L 45.58 148.65 L 45.34 148.76 L 45.09 148.88 L 44.89 148.94 L 44.71 148.95 L 44.75 148.68 L 44.76 148.44 L 44.69 148.31 L 44.74 148.02 L 44.80 147.72 L 44.87 147.41 L 44.81 147.26 L 44.85 147.00 L 45.05 146.52 L 45.24 146.03 L 45.42 145.59 L 45.52 145.26 L 45.34 145.35 L 44.82 145.97 L 44.25 146.71 L 43.81 147.33 L 43.54 147.76 L 43.31 148.22 L 43.10 148.69 L 42.90 149.17 L 42.77 149.56 L 42.71 149.86 L 42.77 150.00 L 42.84 150.13 L 42.90 150.27 L 42.85 150.56 L 42.78 150.87 L 42.72 151.18 L 42.64 151.51 L 42.56 151.84 L 42.49 152.15 L 42.53 152.33 L 42.59 152.46 L 42.66 152.60 L 42.84 152.57 L 43.04 152.51 L 43.09 152.63 L 43.15 152.68 L 42.96 153.05 L 42.29 154.02 L 41.63 154.96 L 40.95 155.88 L 40.25 156.78 L 39.55 157.69 L 38.85 158.60 L 38.14 159.50 L 37.43 160.40 L 36.72 161.27 L 36.02 162.08 L 35.87 162.14 L 35.78 162.09 L 35.85 161.80 L 36.15 161.18 L 36.41 160.61 L 36.61 160.13 L 36.73 159.76 L 36.80 159.46 L 36.89 159.17 L 36.59 159.45 L 36.04 160.15 L 35.35 161.07 L 34.93 161.69 L 34.51 162.34 L 34.03 163.07 L 33.53 163.84 L 32.94 164.72 L 32.29 165.67 L 31.62 166.65 L 30.97 167.59 L 30.35 168.52 L 29.89 169.27 L 29.48 169.97 L 29.14 170.60 L 28.92 171.08 L 28.60 171.69 L 28.17 172.44 L 27.82 173.08 L 27.40 173.80 L 26.88 174.64 L 26.29 175.59 L 25.73 176.50 L 25.28 177.24 L 25.06 177.65" fill="none" stroke="#000000" stroke-width="0.5" stroke-linejoin="round" stroke-linecap="round"/>
</svg>