<?xml version="1.0" encoding="UTF-8"?>
<svg xmlns="http://www.w3.org/2000/svg" viewBox="20.48 140.00 40.69 42.50">
<path d="M 49.00 145.00 L 49.39 145.67 L 49.44 146.19 L 49.40 146.97 L 49.51 147.67 L 49.68 148.28 L 49.90 148.83 L 50.09 149.53 L 50.31 150.22 L 50.62 150.83 L 50.92 151.44 L 51.33 151.94 L 51.75 152.45 L 52.09 153.08 L 52.49 153.63 L 52.95 154.11 L 53.29 154.75 L 53.67 155.33 L 54.12 155.79 L 54.56 156.24 L 54.91 156.85 L 55.15 157.60 L 55.58 158.04 L 55.94 158.43 L 56.17 158.85 L 56.14 159.44 L 55.90 160.09 L 55.52 160.67 L 55.05 161.10 L 54.45 161.43 L 53.80 161.68 L 53.14 161.81 L 52.57 161.73 L 51.94 161.66 L 51.23 161.66 L 50.70 161.65 L 50.33 161.74 L 49.99 162.09 L 49.84 162.40 L 49.81 162.74 L 50.00 163.00 L 50.03 163.63 L 49.94 164.37 L 49.79 165.08 L 49.56 165.73 L 49.22 166.30 L 48.80 166.80 L 48.35 167.17 L 48.02 167.44 L 47.71 167.76 L 47.43 168.16 L 47.22 168.61 L 47.21 169.08 L 47.37 169.59 L 47.67 170.20 L 47.98 170.81 L 48.30 171.39 L 48.71 171.82 L 48.91 172.44 L 48.99 173.11 L 48.95 173.69 L 48.68 174.29 L 48.29 174.82 L 47.88 175.12 L 47.35 175.34 L 46.74 175.49 L 46.04 175.58 L 45.37 175.63 L 44.72 175.66 L 44.03 175.74 L 43.33 175.83 L 42.63 175.93 L 41.95 176.03 L 41.26 176.14 L 40.57 176.23 L 39.86 176.32 L 39.16 176.41 L 38.56 176.45 L 38.04 176.34 L 37.38 176.40 L 36.59 176.63 L 36.06 176.51 L 35.52 176.45 L 34.84 176.56 L 34.13 176.64 L 33.42 176.73 L 32.73 176.82 L 32.03 176.91 L 31.35 176.97 L 30.67 176.99 L 29.97 177.04 L 29.26 177.07 L 28.67 176.91 L 27.94 176.94 L 27.42 176.82 L 27.13 176.53 L 26.57 176.73 L 26.01 177.06 L 25.48 177.50" fill="none" stroke="#000000" stroke-width="0.5" stroke-linejoin="round" stroke-linecap="round"/>
</svg>