<?xml version="1.0" encoding="UTF-8"?>
<svg xmlns="http://www.w3.org/2000/svg" viewBox="20.43 140.00 33.70 42.96">
<path d="M 49.00 145.00 L 49.12 145.44 L 49.10 145.75 L 49.12 146.08 L 49.10 146.51 L 49.09 146.93 L 49.10 147.29 L 49.12 147.65 L 49.10 148.06 L 49.07 148.48 L 49.08 148.84 L 49.05 149.26 L 49.01 149.66 L 49.01 150.01 L 48.96 150.43 L 48.88 150.86 L 48.80 151.28 L 48.77 151.62 L 48.66 152.06 L 48.56 152.49 L 48.53 152.81 L 48.41 153.24 L 48.28 153.67 L 48.16 154.09 L 48.01 154.51 L 47.86 154.92 L 47.70 155.34 L 47.52 155.77 L 47.35 156.16 L 47.15 156.57 L 46.93 156.98 L 46.70 157.39 L 46.48 157.79 L 46.24 158.18 L 45.99 158.58 L 45.75 158.96 L 45.51 159.35 L 45.26 159.75 L 44.99 160.13 L 44.73 160.50 L 44.47 160.87 L 44.21 161.23 L 43.93 161.58 L 43.64 161.93 L 43.36 162.27 L 43.08 162.62 L 42.78 162.98 L 42.47 163.33 L 42.18 163.70 L 41.88 164.05 L 41.57 164.41 L 41.26 164.76 L 40.97 165.09 L 40.67 165.43 L 40.36 165.78 L 40.03 166.12 L 39.70 166.45 L 39.39 166.77 L 39.08 167.09 L 38.77 167.41 L 38.45 167.74 L 38.12 168.08 L 37.80 168.43 L 37.49 168.77 L 37.19 169.10 L 36.87 169.44 L 36.55 169.78 L 36.24 170.10 L 35.92 170.42 L 35.59 170.76 L 35.28 171.09 L 34.96 171.41 L 34.64 171.74 L 34.30 172.07 L 33.97 172.38 L 33.64 172.69 L 33.31 172.99 L 32.97 173.29 L 32.62 173.58 L 32.26 173.86 L 31.89 174.14 L 31.55 174.39 L 31.21 174.62 L 30.86 174.85 L 30.50 175.10 L 30.11 175.36 L 29.74 175.60 L 29.38 175.82 L 29.04 176.03 L 28.69 176.25 L 28.32 176.46 L 27.92 176.71 L 27.53 176.95 L 27.21 177.07 L 26.87 177.24 L 26.49 177.42 L 26.10 177.59 L 25.74 177.79 L 25.43 177.96" fill="none" stroke="#000000" stroke-width="0.5" stroke-linejoin="round" stroke-linecap="round"/>
</svg>