<?xml version="1.0" encoding="UTF-8"?>
<svg xmlns="http://www.w3.org/2000/svg" viewBox="13.65 140.00 40.35 42.32">
<path d="M 49.00 145.00 L 48.15 146.27 L 47.31 147.53 L 46.49 148.77 L 45.72 150.00 L 44.97 151.27 L 44.23 152.56 L 43.59 153.78 L 42.97 154.98 L 42.41 156.14 L 41.89 157.26 L 41.34 158.38 L 40.76 159.53 L 40.05 160.81 L 39.29 162.08 L 38.44 163.30 L 37.51 164.45 L 36.80 165.15 L 36.60 165.01 L 36.34 164.82 L 36.01 164.59 L 35.42 164.62 L 34.84 164.66 L 34.27 164.70 L 33.71 164.75 L 33.02 165.00 L 32.19 165.45 L 31.32 165.95 L 30.47 166.44 L 29.66 166.88 L 29.11 166.94 L 28.45 167.11 L 27.70 167.41 L 27.10 167.48 L 26.60 167.41 L 26.23 167.15 L 25.86 166.88 L 25.40 166.74 L 24.82 166.77 L 24.63 166.25 L 24.39 165.81 L 24.02 165.54 L 23.82 165.05 L 23.65 164.54 L 23.58 163.89 L 23.62 163.11 L 23.69 162.31 L 23.77 161.53 L 23.93 160.68 L 24.20 159.74 L 24.61 158.71 L 25.18 157.53 L 25.81 156.28 L 26.51 154.90 L 27.09 153.66 L 27.36 152.82 L 27.14 152.60 L 27.23 151.95 L 27.17 151.52 L 26.34 152.25 L 25.39 153.25 L 24.40 154.41 L 23.47 155.62 L 22.61 156.88 L 21.82 158.19 L 21.16 159.42 L 20.69 160.47 L 20.72 160.94 L 20.59 161.73 L 20.45 162.59 L 20.38 163.39 L 20.24 164.29 L 20.20 165.04 L 20.32 165.58 L 20.26 166.36 L 20.17 167.19 L 20.00 168.12 L 19.92 168.91 L 19.82 169.68 L 19.71 170.44 L 19.37 171.54 L 18.97 172.73 L 18.65 173.83 L 18.85 174.22 L 19.26 174.36 L 19.83 174.31 L 20.23 174.53 L 20.60 174.80 L 21.18 174.76 L 21.77 174.73 L 22.35 174.70 L 22.94 174.67 L 23.42 174.78 L 23.79 175.05 L 24.16 175.31 L 24.41 175.74 L 24.56 176.31 L 24.66 176.83 L 24.70 177.32" fill="none" stroke="#000000" stroke-width="0.5" stroke-linejoin="round" stroke-linecap="round"/>
</svg>