<?xml version="1.0" encoding="UTF-8"?>
<svg xmlns="http://www.w3.org/2000/svg" viewBox="14.02 140.00 39.98 42.13">
<path d="M 49.00 145.00 L 48.13 145.22 L 47.48 145.61 L 46.80 145.95 L 46.25 146.02 L 45.62 146.19 L 44.88 146.51 L 44.16 146.84 L 43.44 147.18 L 42.73 147.52 L 41.84 148.08 L 41.07 148.53 L 40.43 148.86 L 40.12 148.82 L 39.34 149.43 L 38.39 150.25 L 37.41 151.10 L 37.06 151.09 L 37.00 150.66 L 36.49 150.77 L 35.85 150.96 L 35.10 151.27 L 34.35 151.59 L 33.70 151.77 L 33.15 151.85 L 32.45 152.14 L 31.73 152.47 L 31.01 152.81 L 30.15 153.38 L 29.38 153.85 L 28.69 154.23 L 27.85 154.84 L 26.99 155.44 L 26.12 156.04 L 25.48 156.51 L 24.95 156.98 L 24.52 157.53 L 24.30 157.95 L 24.24 158.30 L 24.34 158.50 L 24.73 158.37 L 24.48 158.98 L 23.82 160.02 L 23.11 160.92 L 22.28 161.77 L 21.38 162.59 L 20.76 163.03 L 20.23 163.50 L 19.76 164.02 L 19.02 165.04 L 19.04 165.21 L 19.43 165.02 L 20.10 164.65 L 20.90 164.18 L 21.77 163.63 L 22.47 163.29 L 23.14 162.85 L 23.75 162.34 L 23.69 162.78 L 23.30 163.68 L 22.89 164.61 L 23.33 164.36 L 23.73 164.15 L 24.24 163.87 L 25.09 163.26 L 25.92 162.63 L 26.78 161.92 L 27.70 161.11 L 28.50 160.46 L 29.30 159.82 L 30.13 159.19 L 30.97 158.57 L 31.78 158.05 L 32.48 157.71 L 33.19 157.37 L 33.67 157.38 L 33.74 157.97 L 33.63 158.82 L 33.56 159.59 L 33.56 160.24 L 33.45 161.00 L 33.24 161.89 L 32.89 162.95 L 32.65 163.85 L 32.41 164.76 L 32.07 165.84 L 32.06 166.48 L 32.16 166.94 L 32.35 167.21 L 32.12 168.00 L 31.65 169.04 L 31.05 170.16 L 30.38 171.24 L 29.66 172.27 L 28.92 173.29 L 28.18 174.26 L 27.42 175.20 L 26.62 176.18 L 25.84 177.13" fill="none" stroke="#000000" stroke-width="0.5" stroke-linejoin="round" stroke-linecap="round"/>
</svg>