<?xml version="1.0" encoding="UTF-8"?>
<svg xmlns="http://www.w3.org/2000/svg" viewBox="20.43 140.00 37.23 42.97">
<path d="M 49.00 145.00 L 49.37 145.13 L 49.59 145.15 L 49.84 145.19 L 50.11 145.26 L 50.39 145.32 L 50.68 145.37 L 51.03 145.32 L 51.35 145.33 L 51.52 145.53 L 51.71 145.72 L 51.91 145.90 L 52.09 146.10 L 52.26 146.31 L 52.43 146.51 L 52.49 146.86 L 52.54 147.22 L 52.62 147.54 L 52.64 147.92 L 52.66 148.30 L 52.66 148.69 L 52.59 149.17 L 52.52 149.64 L 52.43 150.10 L 52.34 150.56 L 52.14 151.13 L 51.94 151.69 L 51.75 152.20 L 51.47 152.81 L 51.18 153.42 L 50.88 154.02 L 50.57 154.62 L 50.24 155.21 L 49.91 155.80 L 49.56 156.40 L 49.19 157.01 L 48.81 157.62 L 48.42 158.21 L 48.03 158.80 L 47.62 159.39 L 47.20 159.97 L 46.78 160.55 L 46.35 161.13 L 45.91 161.70 L 45.47 162.26 L 45.02 162.82 L 44.57 163.38 L 44.12 163.94 L 43.68 164.46 L 43.22 164.99 L 42.75 165.53 L 42.30 166.02 L 41.83 166.52 L 41.36 167.02 L 40.89 167.49 L 40.43 167.96 L 39.96 168.44 L 39.47 168.93 L 39.00 169.41 L 38.53 169.88 L 38.06 170.34 L 37.58 170.80 L 37.09 171.25 L 36.60 171.68 L 36.14 172.07 L 35.72 172.39 L 35.28 172.72 L 34.80 173.09 L 34.32 173.46 L 33.83 173.83 L 33.40 174.18 L 33.07 174.46 L 32.71 174.84 L 32.34 175.25 L 31.96 175.68 L 31.50 176.23 L 31.09 176.76 L 30.72 177.25 L 30.35 177.70 L 30.59 177.25 L 30.91 176.66 L 31.24 176.02 L 31.39 175.60 L 31.31 175.44 L 30.98 175.55 L 30.64 175.64 L 30.26 175.77 L 29.83 175.98 L 29.37 176.22 L 28.95 176.42 L 28.60 176.52 L 28.19 176.71 L 27.77 176.90 L 27.39 177.04 L 26.96 177.24 L 26.56 177.41 L 26.21 177.50 L 25.79 177.75 L 25.43 177.97" fill="none" stroke="#000000" stroke-width="0.5" stroke-linejoin="round" stroke-linecap="round"/>
</svg>