<?xml version="1.0" encoding="UTF-8"?>
<svg xmlns="http://www.w3.org/2000/svg" viewBox="14.88 140.00 39.12 42.68">
<path d="M 49.00 145.00 L 47.88 145.25 L 47.05 145.72 L 46.16 146.14 L 45.32 146.37 L 44.43 146.65 L 43.44 147.04 L 42.47 147.36 L 41.52 147.63 L 40.63 147.79 L 39.84 147.79 L 39.05 147.76 L 38.13 147.90 L 37.21 148.03 L 36.29 148.17 L 35.38 148.31 L 34.46 148.44 L 33.53 148.57 L 32.74 148.50 L 32.17 148.11 L 31.22 148.22 L 30.33 148.22 L 29.51 148.12 L 28.71 148.02 L 27.91 147.93 L 27.11 147.84 L 26.20 147.93 L 25.29 148.07 L 24.46 148.27 L 23.69 148.62 L 22.97 149.17 L 22.16 149.96 L 21.47 150.77 L 20.95 151.59 L 20.46 152.64 L 20.11 153.71 L 19.88 154.73 L 19.89 155.48 L 20.22 156.00 L 20.94 156.12 L 21.79 156.15 L 22.75 156.05 L 23.59 156.10 L 24.38 156.19 L 25.18 156.28 L 26.08 156.23 L 26.98 156.13 L 27.75 156.20 L 28.69 156.04 L 29.73 155.76 L 30.52 155.84 L 31.31 155.93 L 32.12 156.02 L 32.93 156.12 L 33.75 156.22 L 34.56 156.32 L 35.49 156.25 L 36.38 156.20 L 37.18 156.29 L 38.08 156.21 L 38.98 156.14 L 39.77 156.22 L 40.65 156.16 L 41.58 156.03 L 42.53 155.92 L 43.44 155.86 L 44.25 155.96 L 44.92 156.30 L 45.52 156.74 L 46.12 157.16 L 46.71 157.40 L 47.02 157.79 L 46.84 158.62 L 46.41 159.54 L 45.78 160.44 L 44.99 161.28 L 44.12 161.99 L 43.29 162.61 L 42.52 163.12 L 41.63 163.76 L 40.73 164.44 L 39.86 165.13 L 39.03 165.86 L 38.19 166.64 L 37.36 167.45 L 36.58 168.29 L 35.84 169.16 L 35.12 170.04 L 34.38 170.93 L 33.62 171.81 L 32.84 172.67 L 32.05 173.44 L 31.22 174.17 L 30.37 174.83 L 29.57 175.32 L 28.68 175.89 L 27.71 176.51 L 26.82 177.11 L 26.03 177.68" fill="none" stroke="#000000" stroke-width="0.5" stroke-linejoin="round" stroke-linecap="round"/>
</svg>