<?xml version="1.0" encoding="UTF-8"?>
<svg xmlns="http://www.w3.org/2000/svg" viewBox="14.35 140.00 48.29 41.85">
<path d="M 49.00 145.00 L 48.92 146.06 L 48.56 147.17 L 48.84 147.60 L 49.46 147.73 L 50.13 147.88 L 50.79 148.20 L 51.42 148.61 L 52.07 148.99 L 52.75 149.32 L 53.29 149.86 L 53.83 150.39 L 54.41 150.87 L 54.92 151.44 L 55.43 152.02 L 55.94 152.59 L 56.43 153.16 L 56.91 153.71 L 57.34 154.27 L 57.57 155.07 L 57.64 155.98 L 57.59 156.93 L 57.45 157.81 L 57.14 158.78 L 56.71 159.80 L 56.18 160.80 L 55.55 161.72 L 54.82 162.58 L 54.03 163.35 L 53.25 164.02 L 52.49 164.54 L 51.67 165.00 L 50.73 165.52 L 49.81 165.98 L 48.98 166.36 L 48.16 166.74 L 47.27 167.16 L 46.31 167.71 L 45.42 168.18 L 44.60 168.56 L 43.67 169.10 L 42.79 169.58 L 41.97 169.96 L 41.03 170.50 L 40.07 171.04 L 39.24 171.41 L 38.41 171.82 L 37.54 172.23 L 36.62 172.70 L 35.67 173.25 L 34.86 173.63 L 33.97 174.10 L 32.99 174.62 L 32.04 175.02 L 31.14 175.32 L 30.46 175.25 L 30.07 174.68 L 29.78 173.92 L 29.36 173.30 L 28.98 172.64 L 28.72 171.82 L 28.46 171.01 L 28.21 170.19 L 27.95 169.37 L 27.69 168.55 L 27.24 167.99 L 26.86 167.34 L 26.60 166.53 L 26.34 165.71 L 26.10 164.90 L 25.86 164.10 L 25.61 163.29 L 24.94 163.04 L 24.25 162.83 L 23.82 162.32 L 23.14 162.24 L 22.41 162.48 L 21.66 162.93 L 20.84 163.58 L 20.20 164.32 L 19.71 165.18 L 19.35 166.16 L 19.56 166.59 L 19.96 166.83 L 20.62 166.88 L 21.40 167.01 L 21.84 167.62 L 22.15 168.40 L 22.57 169.01 L 22.95 169.67 L 23.21 170.49 L 23.47 171.30 L 23.72 172.12 L 23.96 172.92 L 24.21 173.73 L 24.45 174.53 L 24.67 175.32 L 24.81 176.05 L 24.78 176.85" fill="none" stroke="#000000" stroke-width="0.5" stroke-linejoin="round" stroke-linecap="round"/>
</svg>