<?xml version="1.0" encoding="UTF-8"?>
<svg xmlns="http://www.w3.org/2000/svg" viewBox="20.11 140.00 43.90 42.32">
<path d="M 49.00 145.00 L 49.70 145.49 L 50.19 145.54 L 50.79 145.58 L 51.27 145.92 L 51.95 146.00 L 52.55 146.14 L 52.98 146.44 L 53.33 146.67 L 53.90 146.62 L 54.61 146.38 L 55.33 146.10 L 55.49 146.55 L 55.66 147.01 L 55.83 147.58 L 56.02 148.28 L 56.42 148.70 L 57.01 148.85 L 57.59 149.00 L 58.06 149.30 L 58.37 149.78 L 58.54 150.46 L 58.68 151.15 L 58.76 151.81 L 58.93 152.28 L 59.00 152.78 L 58.88 153.44 L 58.71 154.08 L 58.46 154.68 L 58.15 155.26 L 57.81 155.81 L 57.42 156.33 L 57.00 156.83 L 56.59 157.33 L 56.20 157.78 L 55.76 158.24 L 55.28 158.69 L 54.77 159.12 L 54.27 159.53 L 53.77 159.89 L 53.23 160.23 L 52.68 160.55 L 52.10 160.85 L 51.49 161.14 L 50.89 161.43 L 50.31 161.65 L 49.74 161.82 L 49.12 162.04 L 48.49 162.26 L 47.90 162.41 L 47.29 162.60 L 46.65 162.84 L 46.06 163.00 L 45.46 163.16 L 44.79 163.40 L 44.17 163.54 L 43.56 163.68 L 42.99 163.77 L 42.34 163.91 L 41.67 164.09 L 41.06 164.15 L 40.44 164.26 L 39.82 164.39 L 39.22 164.46 L 38.58 164.61 L 37.90 164.80 L 37.28 164.93 L 36.70 165.07 L 36.20 165.20 L 35.65 165.50 L 35.14 165.86 L 34.64 166.30 L 34.22 166.76 L 33.81 167.25 L 33.40 167.75 L 32.97 168.25 L 32.53 168.70 L 32.08 169.11 L 31.56 169.53 L 31.00 169.91 L 30.42 170.21 L 29.85 170.46 L 29.29 170.55 L 28.64 170.65 L 27.98 170.75 L 27.64 170.57 L 27.30 170.59 L 26.92 170.83 L 26.57 171.20 L 26.29 171.72 L 26.10 172.34 L 26.01 173.02 L 25.95 173.61 L 25.89 174.19 L 25.81 174.80 L 25.68 175.47 L 25.53 176.12 L 25.34 176.73 L 25.11 177.32" fill="none" stroke="#000000" stroke-width="0.5" stroke-linejoin="round" stroke-linecap="round"/>
</svg>