<?xml version="1.0" encoding="UTF-8"?>
<svg xmlns="http://www.w3.org/2000/svg" viewBox="20.16 140.00 33.84 42.65">
<path d="M 49.00 145.00 L 48.86 145.01 L 48.76 145.05 L 48.65 145.09 L 48.53 145.12 L 48.41 145.15 L 48.26 145.24 L 48.03 145.43 L 47.85 145.57 L 47.67 145.70 L 47.45 145.90 L 47.23 146.10 L 46.99 146.34 L 46.72 146.62 L 46.47 146.88 L 46.21 147.18 L 45.93 147.50 L 45.63 147.86 L 45.34 148.21 L 45.07 148.56 L 44.78 148.92 L 44.49 149.29 L 44.20 149.67 L 43.92 150.05 L 43.64 150.43 L 43.36 150.81 L 43.09 151.19 L 42.81 151.57 L 42.54 151.96 L 42.27 152.34 L 42.01 152.72 L 41.73 153.10 L 41.46 153.48 L 41.20 153.85 L 40.94 154.19 L 40.67 154.57 L 40.38 154.95 L 40.10 155.32 L 39.82 155.70 L 39.53 156.08 L 39.25 156.46 L 38.96 156.83 L 38.67 157.21 L 38.39 157.59 L 38.10 157.96 L 37.82 158.34 L 37.53 158.72 L 37.26 159.10 L 36.98 159.49 L 36.71 159.87 L 36.45 160.24 L 36.19 160.62 L 35.92 161.00 L 35.65 161.39 L 35.38 161.77 L 35.10 162.15 L 34.83 162.53 L 34.55 162.91 L 34.27 163.30 L 33.99 163.68 L 33.71 164.06 L 33.44 164.44 L 33.16 164.83 L 32.89 165.21 L 32.62 165.59 L 32.35 165.98 L 32.08 166.36 L 31.81 166.74 L 31.55 167.13 L 31.28 167.52 L 31.02 167.91 L 30.79 168.26 L 30.58 168.58 L 30.32 168.97 L 30.08 169.36 L 29.83 169.75 L 29.58 170.14 L 29.36 170.49 L 29.16 170.82 L 28.92 171.20 L 28.69 171.57 L 28.47 171.94 L 28.23 172.32 L 27.99 172.70 L 27.79 173.04 L 27.58 173.39 L 27.36 173.76 L 27.16 174.08 L 26.93 174.47 L 26.70 174.86 L 26.50 175.18 L 26.32 175.51 L 26.12 175.86 L 25.91 176.23 L 25.83 176.43 L 25.68 176.72 L 25.48 177.07 L 25.33 177.35 L 25.16 177.65" fill="none" stroke="#000000" stroke-width="0.5" stroke-linejoin="round" stroke-linecap="round"/>
</svg>