<?xml version="1.0" encoding="UTF-8"?>
<svg xmlns="http://www.w3.org/2000/svg" viewBox="14.36 140.00 39.64 42.57">
<path d="M 49.00 145.00 L 48.40 145.76 L 47.81 146.51 L 47.20 147.24 L 46.57 147.95 L 46.01 148.54 L 45.45 149.12 L 44.86 149.73 L 44.20 150.42 L 43.62 151.02 L 43.02 151.65 L 42.37 152.35 L 41.79 152.92 L 41.15 153.56 L 40.56 154.13 L 40.21 154.37 L 39.63 154.94 L 38.97 155.57 L 38.29 156.20 L 37.68 156.75 L 37.19 157.13 L 36.70 157.50 L 36.16 157.91 L 35.54 158.44 L 34.92 158.98 L 34.30 159.52 L 33.68 160.07 L 33.06 160.61 L 32.56 160.95 L 32.02 161.34 L 31.41 161.79 L 31.01 161.95 L 30.53 162.21 L 29.98 162.57 L 29.44 162.89 L 28.93 163.19 L 28.42 163.47 L 27.88 163.78 L 27.35 164.07 L 26.93 164.22 L 26.50 164.35 L 26.07 164.49 L 25.63 164.63 L 25.20 164.76 L 24.77 164.90 L 24.35 165.04 L 23.88 165.25 L 23.37 165.59 L 22.90 165.95 L 22.42 166.41 L 21.81 167.16 L 21.26 167.91 L 20.79 168.68 L 20.40 169.43 L 20.06 170.15 L 19.84 170.79 L 19.62 171.45 L 19.37 172.18 L 19.46 172.48 L 19.42 172.96 L 19.36 173.50 L 19.47 173.82 L 19.59 174.14 L 19.78 174.36 L 20.10 174.42 L 20.25 174.70 L 20.44 174.94 L 20.69 175.08 L 20.88 175.32 L 21.13 175.46 L 21.45 175.52 L 21.88 175.41 L 22.29 175.34 L 22.63 175.36 L 22.95 175.40 L 23.26 175.45 L 23.67 175.36 L 24.11 175.23 L 24.55 175.10 L 24.99 174.96 L 25.42 174.83 L 25.86 174.69 L 26.29 174.56 L 26.72 174.42 L 27.14 174.28 L 27.63 174.05 L 28.17 173.74 L 28.72 173.43 L 29.19 173.15 L 29.54 172.95 L 29.86 172.73 L 29.67 173.13 L 29.16 173.87 L 28.57 174.61 L 27.95 175.29 L 27.35 175.90 L 26.76 176.46 L 26.18 177.03 L 25.64 177.57" fill="none" stroke="#000000" stroke-width="0.5" stroke-linejoin="round" stroke-linecap="round"/>
</svg>