<?xml version="1.0" encoding="UTF-8"?>
<svg xmlns="http://www.w3.org/2000/svg" viewBox="18.82 140.00 35.18 42.91">
<path d="M 49.00 145.00 L 48.01 145.74 L 47.19 146.59 L 46.34 147.43 L 45.45 148.26 L 44.49 149.13 L 43.51 149.94 L 42.55 150.67 L 41.98 150.79 L 41.29 150.99 L 40.51 151.22 L 39.73 151.40 L 38.93 151.60 L 38.15 151.77 L 37.46 151.80 L 36.65 151.99 L 35.98 151.98 L 35.40 151.88 L 34.76 151.95 L 34.17 152.05 L 33.43 152.45 L 32.51 153.34 L 31.71 154.33 L 31.04 155.40 L 31.43 155.23 L 32.05 154.91 L 32.73 154.66 L 33.53 154.43 L 34.29 154.16 L 34.90 153.89 L 35.32 153.66 L 34.98 154.27 L 34.34 155.10 L 33.61 155.86 L 32.77 156.54 L 31.81 157.30 L 30.89 157.99 L 30.01 158.63 L 29.13 159.28 L 28.24 159.93 L 27.36 160.58 L 26.46 161.26 L 25.58 162.08 L 24.84 162.91 L 24.25 163.77 L 23.97 164.39 L 23.85 165.00 L 23.82 165.68 L 23.88 166.43 L 23.97 167.19 L 24.02 168.00 L 23.98 168.94 L 23.99 169.80 L 24.08 170.56 L 24.16 171.32 L 24.26 172.09 L 24.35 172.87 L 24.45 173.64 L 24.55 174.41 L 24.65 175.19 L 24.76 175.97 L 24.89 176.70 L 25.35 177.01 L 26.01 177.04 L 26.81 176.88 L 27.52 176.86 L 28.10 177.00 L 28.74 177.07 L 29.44 177.05 L 30.14 177.02 L 30.92 176.88 L 31.69 176.72 L 32.37 176.68 L 33.17 176.47 L 34.03 176.17 L 34.87 175.87 L 35.26 176.13 L 35.94 175.96 L 36.87 175.39 L 37.73 174.72 L 38.36 174.13 L 38.35 174.20 L 37.69 174.96 L 36.91 175.68 L 36.05 176.28 L 35.29 176.55 L 34.52 176.81 L 33.75 177.02 L 32.97 177.20 L 32.16 177.43 L 31.43 177.53 L 30.72 177.60 L 29.88 177.82 L 29.17 177.86 L 28.54 177.79 L 27.95 177.65 L 27.25 177.67 L 26.62 177.75 L 26.01 177.91" fill="none" stroke="#000000" stroke-width="0.5" stroke-linejoin="round" stroke-linecap="round"/>
</svg>