<?xml version="1.0" encoding="UTF-8"?>
<svg xmlns="http://www.w3.org/2000/svg" viewBox="20.91 140.00 33.46 42.88">
<path d="M 49.00 145.00 L 49.37 145.83 L 49.37 146.44 L 49.30 147.24 L 49.31 147.99 L 49.26 148.68 L 49.10 149.42 L 48.88 150.19 L 48.64 150.96 L 48.38 151.73 L 48.14 152.47 L 47.94 153.17 L 47.77 153.90 L 47.61 154.66 L 47.47 155.44 L 47.34 156.21 L 47.23 156.97 L 47.13 157.76 L 46.96 158.48 L 46.75 159.09 L 46.46 159.59 L 45.99 160.12 L 45.42 160.53 L 44.74 160.79 L 43.97 160.88 L 43.43 160.57 L 42.99 160.05 L 42.56 159.45 L 42.18 158.78 L 41.87 158.05 L 41.41 157.56 L 40.68 157.49 L 39.89 157.57 L 39.11 157.65 L 38.30 157.79 L 37.48 157.92 L 36.72 158.02 L 36.10 158.00 L 35.52 157.96 L 34.73 158.26 L 33.97 158.58 L 33.28 158.95 L 32.68 159.39 L 32.12 159.88 L 31.59 160.44 L 31.11 161.04 L 30.69 161.68 L 30.34 162.38 L 30.06 163.13 L 29.86 163.92 L 29.76 164.69 L 29.78 165.35 L 30.10 165.62 L 30.67 165.53 L 31.38 165.17 L 32.06 164.75 L 32.69 164.26 L 33.32 163.76 L 33.98 163.29 L 34.67 162.85 L 35.29 162.65 L 35.99 162.50 L 36.76 162.41 L 37.50 162.48 L 38.16 162.66 L 38.76 162.95 L 39.08 163.66 L 39.32 164.49 L 39.66 165.14 L 40.00 165.79 L 40.34 166.44 L 40.55 167.15 L 40.74 167.73 L 40.80 168.30 L 40.56 169.07 L 40.24 169.79 L 39.82 170.44 L 39.32 171.03 L 38.80 171.60 L 38.26 172.16 L 37.71 172.70 L 37.13 173.23 L 36.55 173.77 L 36.02 174.28 L 35.50 174.79 L 34.94 175.33 L 34.33 175.83 L 33.68 176.29 L 32.99 176.71 L 32.37 176.91 L 31.77 176.92 L 31.12 176.89 L 30.35 176.94 L 29.55 177.01 L 28.77 177.10 L 28.03 177.21 L 27.29 177.33 L 26.57 177.58 L 25.91 177.88" fill="none" stroke="#000000" stroke-width="0.5" stroke-linejoin="round" stroke-linecap="round"/>
</svg>