<?xml version="1.0" encoding="UTF-8"?>
<svg xmlns="http://www.w3.org/2000/svg" viewBox="19.64 140.00 34.36 42.48">
<path d="M 49.00 145.00 L 48.46 145.19 L 48.06 145.48 L 47.63 145.78 L 47.23 146.00 L 46.80 146.28 L 46.34 146.59 L 45.91 146.91 L 45.55 147.21 L 45.21 147.50 L 44.82 147.85 L 44.43 148.21 L 44.06 148.57 L 43.74 148.97 L 43.43 149.39 L 43.13 149.81 L 42.90 150.22 L 42.69 150.67 L 42.50 151.17 L 42.36 151.66 L 42.21 152.13 L 42.02 152.57 L 41.79 153.02 L 41.50 153.45 L 41.17 153.82 L 40.77 154.17 L 40.35 154.45 L 39.95 154.67 L 39.52 154.94 L 39.09 155.21 L 38.66 155.52 L 38.24 155.85 L 37.84 156.19 L 37.44 156.53 L 37.05 156.89 L 36.70 157.25 L 36.40 157.66 L 36.14 158.11 L 35.92 158.51 L 35.76 158.84 L 35.61 159.16 L 35.38 159.63 L 35.15 160.11 L 34.93 160.58 L 34.72 161.06 L 34.60 161.56 L 34.63 162.02 L 34.79 162.42 L 35.11 162.70 L 35.53 162.91 L 36.06 163.00 L 36.57 163.09 L 37.07 163.17 L 37.54 163.23 L 38.01 163.20 L 38.50 163.04 L 38.46 163.51 L 38.31 164.02 L 38.08 164.50 L 37.81 164.94 L 37.47 165.33 L 37.10 165.70 L 36.70 166.04 L 36.31 166.31 L 35.89 166.55 L 35.41 166.84 L 34.94 167.04 L 34.47 167.22 L 33.99 167.38 L 33.48 167.53 L 32.98 167.64 L 32.51 167.72 L 31.99 167.83 L 31.45 167.95 L 30.92 168.08 L 30.51 168.10 L 30.10 168.17 L 29.61 168.40 L 29.14 168.65 L 28.70 168.95 L 28.29 169.28 L 27.90 169.64 L 27.55 170.02 L 27.22 170.41 L 26.90 170.82 L 26.61 171.25 L 26.33 171.69 L 26.08 172.15 L 25.83 172.61 L 25.60 173.07 L 25.38 173.56 L 25.18 174.05 L 25.02 174.54 L 24.88 175.02 L 24.78 175.52 L 24.71 176.05 L 24.68 176.61 L 24.64 177.12 L 24.67 177.48" fill="none" stroke="#000000" stroke-width="0.5" stroke-linejoin="round" stroke-linecap="round"/>
</svg>