<?xml version="1.0" encoding="UTF-8"?>
<svg xmlns="http://www.w3.org/2000/svg" viewBox="18.39 140.00 35.61 42.36">
<path d="M 49.00 145.00 L 48.42 145.15 L 47.99 145.42 L 47.54 145.66 L 47.05 145.88 L 46.56 146.10 L 46.07 146.32 L 45.59 146.54 L 45.10 146.76 L 44.64 147.00 L 44.17 147.23 L 43.69 147.46 L 43.14 147.72 L 42.62 147.88 L 42.13 147.97 L 41.77 147.92 L 41.50 147.82 L 41.28 147.78 L 40.91 148.17 L 40.66 148.63 L 40.61 149.04 L 40.72 149.45 L 40.89 149.90 L 41.10 150.38 L 41.32 150.87 L 41.54 151.35 L 41.76 151.84 L 41.98 152.33 L 42.19 152.81 L 42.39 153.28 L 42.56 153.74 L 42.62 154.23 L 42.58 154.70 L 42.40 155.12 L 42.07 155.52 L 41.67 155.79 L 41.29 155.86 L 40.95 155.78 L 40.61 155.71 L 40.23 155.72 L 39.73 156.01 L 39.31 156.35 L 38.95 156.74 L 38.64 157.17 L 38.36 157.60 L 38.07 158.05 L 37.79 158.49 L 37.50 158.92 L 37.18 159.35 L 36.84 159.76 L 36.48 160.15 L 36.10 160.53 L 35.75 160.91 L 35.44 161.32 L 35.15 161.77 L 34.90 162.22 L 34.66 162.65 L 34.41 163.04 L 34.10 163.46 L 33.78 163.81 L 33.41 164.11 L 32.96 164.36 L 32.46 164.57 L 31.93 164.76 L 31.43 164.88 L 30.96 164.98 L 30.47 165.07 L 29.95 165.18 L 29.42 165.37 L 28.98 165.51 L 28.56 165.69 L 28.13 166.03 L 27.77 166.42 L 27.49 166.86 L 27.29 167.27 L 27.09 167.63 L 26.88 167.99 L 26.58 168.42 L 26.24 168.78 L 25.84 169.07 L 25.39 169.32 L 24.93 169.56 L 24.52 169.83 L 24.16 170.17 L 23.83 170.58 L 23.61 171.00 L 23.47 171.47 L 23.39 172.00 L 23.44 172.46 L 23.55 172.89 L 23.59 173.47 L 23.67 174.02 L 23.80 174.56 L 23.98 175.01 L 24.17 175.48 L 24.38 175.96 L 24.58 176.43 L 24.71 176.88 L 24.75 177.36" fill="none" stroke="#000000" stroke-width="0.5" stroke-linejoin="round" stroke-linecap="round"/>
</svg>