<?xml version="1.0" encoding="UTF-8"?>
<svg xmlns="http://www.w3.org/2000/svg" viewBox="14.49 140.00 39.51 42.46">
<path d="M 49.00 145.00 L 48.47 145.35 L 48.02 145.77 L 47.55 146.18 L 47.08 146.58 L 46.62 146.98 L 46.17 147.39 L 45.70 147.83 L 45.24 148.29 L 44.81 148.74 L 44.39 149.20 L 43.96 149.68 L 43.53 150.17 L 43.11 150.66 L 42.70 151.16 L 42.29 151.66 L 41.89 152.16 L 41.50 152.67 L 41.11 153.19 L 40.73 153.70 L 40.36 154.22 L 39.99 154.75 L 39.63 155.28 L 39.26 155.80 L 38.86 156.29 L 38.41 156.76 L 37.95 157.19 L 37.48 157.54 L 37.05 157.74 L 36.54 157.99 L 36.05 158.19 L 35.63 158.27 L 35.10 158.50 L 34.54 158.77 L 34.05 158.93 L 33.50 159.16 L 32.98 159.31 L 32.52 159.36 L 32.14 159.31 L 31.71 159.31 L 31.17 159.45 L 30.59 159.65 L 30.07 159.78 L 29.60 159.82 L 29.07 159.94 L 28.62 159.91 L 28.21 159.80 L 27.80 159.69 L 27.31 159.69 L 26.83 159.68 L 26.43 159.58 L 25.91 159.65 L 25.39 159.71 L 24.89 159.74 L 24.41 159.77 L 23.97 159.77 L 23.59 159.69 L 23.05 159.88 L 22.53 160.10 L 22.07 160.29 L 21.58 160.66 L 21.13 161.07 L 20.74 161.53 L 20.39 162.07 L 20.12 162.60 L 19.95 163.09 L 19.78 163.67 L 19.67 164.24 L 19.59 164.82 L 19.49 165.45 L 19.53 165.93 L 19.65 166.33 L 19.78 166.74 L 19.86 167.27 L 19.96 167.80 L 20.13 168.24 L 20.32 168.65 L 20.52 169.05 L 20.82 169.34 L 21.07 169.71 L 21.28 170.12 L 21.48 170.57 L 21.70 170.96 L 22.01 171.24 L 22.24 171.63 L 22.43 172.07 L 22.64 172.49 L 22.89 172.86 L 23.19 173.15 L 23.40 173.56 L 23.60 173.97 L 23.78 174.42 L 23.95 174.86 L 24.12 175.28 L 24.31 175.68 L 24.41 176.19 L 24.47 176.76 L 24.61 177.12 L 24.69 177.46" fill="none" stroke="#000000" stroke-width="0.5" stroke-linejoin="round" stroke-linecap="round"/>
</svg>