<?xml version="1.0" encoding="UTF-8"?>
<svg xmlns="http://www.w3.org/2000/svg" viewBox="18.62 140.00 35.38 42.88">
<path d="M 49.00 145.00 L 48.66 145.04 L 48.47 145.08 L 48.33 145.03 L 48.06 145.11 L 47.79 145.20 L 47.42 145.42 L 47.09 145.60 L 46.82 145.70 L 46.56 145.79 L 46.26 145.94 L 45.90 146.18 L 45.54 146.42 L 45.20 146.67 L 44.86 146.92 L 44.47 147.26 L 44.06 147.62 L 43.74 147.89 L 43.35 148.24 L 42.95 148.62 L 42.59 148.94 L 42.22 149.30 L 41.85 149.68 L 41.45 150.09 L 41.04 150.54 L 40.65 150.99 L 40.27 151.42 L 39.87 151.87 L 39.49 152.32 L 39.11 152.74 L 38.73 153.17 L 38.34 153.62 L 37.94 154.08 L 37.57 154.51 L 37.19 154.97 L 36.79 155.43 L 36.40 155.89 L 36.04 156.35 L 35.67 156.80 L 35.29 157.28 L 34.92 157.76 L 34.56 158.25 L 34.21 158.75 L 33.89 159.22 L 33.57 159.71 L 33.24 160.23 L 32.94 160.73 L 32.65 161.22 L 32.37 161.72 L 32.11 162.23 L 31.84 162.74 L 31.61 163.19 L 31.40 163.62 L 31.14 164.13 L 30.88 164.65 L 30.62 165.16 L 30.41 165.58 L 30.19 166.02 L 29.89 166.51 L 29.57 166.97 L 29.21 167.42 L 28.87 167.80 L 28.77 167.78 L 28.80 167.52 L 28.95 167.06 L 28.99 166.79 L 28.84 166.82 L 28.54 167.09 L 28.13 167.55 L 27.74 168.02 L 27.38 168.52 L 27.05 169.03 L 26.74 169.52 L 26.43 170.01 L 26.14 170.49 L 25.84 170.99 L 25.53 171.52 L 25.23 172.03 L 24.95 172.52 L 24.67 173.02 L 24.40 173.53 L 24.14 174.05 L 23.94 174.52 L 23.77 174.95 L 23.75 175.22 L 23.67 175.59 L 23.65 175.89 L 23.72 176.08 L 23.68 176.41 L 23.62 176.79 L 23.73 176.94 L 23.75 177.21 L 23.83 177.41 L 24.00 177.48 L 24.13 177.61 L 24.29 177.70 L 24.47 177.78 L 24.63 177.84 L 24.76 177.88" fill="none" stroke="#000000" stroke-width="0.5" stroke-linejoin="round" stroke-linecap="round"/>
</svg>