<?xml version="1.0" encoding="UTF-8"?>
<svg xmlns="http://www.w3.org/2000/svg" viewBox="13.95 140.00 40.05 42.35">
<path d="M 49.00 145.00 L 48.73 146.12 L 48.28 147.06 L 47.83 147.99 L 47.31 149.01 L 46.71 150.01 L 46.02 150.99 L 45.26 151.90 L 44.45 152.71 L 43.62 153.45 L 42.80 154.06 L 41.96 154.64 L 41.09 155.20 L 40.20 155.75 L 39.30 156.29 L 38.37 156.80 L 37.47 157.21 L 36.65 157.49 L 36.38 157.05 L 35.81 157.05 L 35.03 157.37 L 34.03 157.99 L 33.04 158.63 L 32.15 159.17 L 31.34 159.59 L 30.51 159.98 L 29.64 160.35 L 28.74 160.69 L 27.93 160.87 L 27.15 160.98 L 26.35 161.08 L 25.65 161.00 L 24.97 160.86 L 24.35 160.64 L 23.72 160.41 L 23.09 160.17 L 22.45 159.94 L 21.89 159.64 L 21.40 159.31 L 20.84 159.34 L 20.25 159.71 L 19.61 160.43 L 19.24 161.06 L 19.03 161.78 L 18.95 162.59 L 18.99 163.49 L 19.17 164.24 L 19.67 164.58 L 20.34 164.69 L 20.93 164.91 L 21.44 165.22 L 22.23 165.11 L 23.11 164.86 L 24.02 164.53 L 24.92 164.18 L 25.73 163.94 L 26.48 163.76 L 27.38 163.41 L 28.28 163.07 L 29.20 162.74 L 29.97 162.61 L 30.75 162.51 L 31.53 162.45 L 32.23 162.53 L 32.85 162.68 L 33.40 162.85 L 34.14 162.75 L 35.05 162.40 L 36.09 161.82 L 36.83 161.64 L 37.64 161.37 L 38.53 161.02 L 39.31 160.89 L 40.08 160.78 L 40.88 160.67 L 41.67 160.45 L 42.17 160.43 L 42.40 160.58 L 41.85 161.63 L 41.27 162.56 L 40.58 163.44 L 39.75 164.29 L 38.88 165.09 L 37.99 165.86 L 37.11 166.59 L 36.39 167.08 L 35.65 167.62 L 34.88 168.25 L 34.03 169.03 L 33.18 169.88 L 32.36 170.77 L 31.59 171.66 L 30.81 172.54 L 30.02 173.40 L 29.19 174.24 L 28.36 175.04 L 27.54 175.79 L 26.74 176.57 L 25.95 177.35" fill="none" stroke="#000000" stroke-width="0.5" stroke-linejoin="round" stroke-linecap="round"/>
</svg>