<?xml version="1.0" encoding="UTF-8"?>
<svg xmlns="http://www.w3.org/2000/svg" viewBox="21.09 140.00 32.91 41.40">
<path d="M 49.00 145.00 L 48.35 145.41 L 47.85 145.92 L 47.26 146.54 L 46.17 147.80 L 44.92 149.29 L 43.78 150.62 L 42.93 151.55 L 42.28 152.19 L 41.69 152.75 L 41.16 153.24 L 41.58 152.47 L 42.65 150.86 L 43.76 149.22 L 44.90 147.59 L 46.06 145.98 L 46.70 145.09 L 45.57 146.63 L 44.39 148.23 L 43.22 149.83 L 42.07 151.45 L 40.93 153.08 L 39.84 154.71 L 39.74 155.03 L 40.59 154.09 L 41.20 153.52 L 41.75 153.07 L 42.17 152.79 L 42.02 153.31 L 41.28 154.63 L 40.44 156.08 L 39.93 157.09 L 39.52 157.96 L 39.28 158.60 L 39.58 158.49 L 39.90 158.33 L 39.60 158.98 L 38.53 160.60 L 37.74 161.73 L 36.78 162.98 L 36.24 163.56 L 36.07 163.56 L 35.77 163.67 L 35.48 163.70 L 35.24 163.64 L 35.22 163.30 L 35.23 162.93 L 35.24 162.57 L 35.65 161.67 L 36.19 160.60 L 36.83 159.41 L 37.40 158.30 L 37.93 157.26 L 38.32 156.41 L 38.68 155.57 L 39.03 154.74 L 39.23 154.11 L 39.33 153.61 L 39.33 153.23 L 39.19 153.14 L 39.05 153.15 L 38.96 153.19 L 38.82 153.41 L 38.73 153.66 L 38.77 153.85 L 38.58 154.45 L 38.34 155.13 L 38.03 155.91 L 37.68 156.74 L 37.32 157.58 L 36.96 158.41 L 36.48 159.39 L 36.01 160.37 L 35.61 161.25 L 35.15 162.21 L 34.66 163.23 L 34.30 164.06 L 34.04 164.77 L 33.89 165.33 L 33.89 165.70 L 33.95 165.99 L 34.07 166.19 L 34.47 166.01 L 34.96 165.69 L 35.53 165.22 L 35.73 165.16 L 35.40 165.73 L 34.23 167.34 L 33.28 168.56 L 32.72 169.14 L 32.38 169.31 L 31.94 169.58 L 31.50 169.85 L 31.05 170.16 L 30.45 170.74 L 29.56 171.79 L 28.38 173.30 L 27.22 174.84 L 26.09 176.40" fill="none" stroke="#000000" stroke-width="0.5" stroke-linejoin="round" stroke-linecap="round"/>
</svg>