<?xml version="1.0" encoding="UTF-8"?>
<svg xmlns="http://www.w3.org/2000/svg" viewBox="13.61 140.00 40.39 42.58">
<path d="M 49.00 145.00 L 48.51 145.40 L 48.09 145.86 L 47.66 146.30 L 47.23 146.75 L 46.79 147.20 L 46.34 147.70 L 45.90 148.19 L 45.49 148.67 L 45.05 149.19 L 44.61 149.71 L 44.20 150.22 L 43.82 150.70 L 43.41 151.22 L 42.98 151.74 L 42.54 152.27 L 42.14 152.76 L 41.73 153.22 L 41.31 153.67 L 40.83 154.16 L 40.38 154.59 L 40.05 154.87 L 39.61 155.31 L 39.17 155.75 L 38.73 156.18 L 38.27 156.67 L 37.82 157.17 L 37.41 157.64 L 36.99 158.13 L 36.53 158.63 L 36.06 159.13 L 35.65 159.54 L 35.29 159.88 L 34.85 160.29 L 34.39 160.72 L 33.93 161.15 L 33.48 161.58 L 33.04 162.01 L 32.60 162.46 L 32.18 162.91 L 31.75 163.38 L 31.29 163.88 L 30.83 164.38 L 30.36 164.85 L 29.92 165.29 L 29.63 165.48 L 29.34 165.65 L 28.87 166.07 L 28.39 166.48 L 27.90 166.88 L 27.42 167.29 L 27.07 167.50 L 26.74 167.69 L 26.38 167.94 L 25.93 168.30 L 25.46 168.73 L 25.01 169.16 L 24.54 169.61 L 24.06 170.10 L 23.67 170.47 L 23.31 170.82 L 22.87 171.26 L 22.40 171.75 L 21.95 172.24 L 21.55 172.70 L 21.12 173.21 L 20.69 173.73 L 20.27 174.27 L 19.88 174.82 L 19.50 175.37 L 19.17 175.93 L 18.87 176.50 L 18.61 177.11 L 18.74 177.21 L 18.94 177.26 L 19.16 177.30 L 19.55 177.14 L 19.97 176.92 L 20.39 176.68 L 20.83 176.40 L 21.25 176.16 L 21.67 175.91 L 22.12 175.63 L 22.45 175.52 L 22.78 175.42 L 23.19 175.20 L 23.57 175.05 L 23.95 174.89 L 24.38 174.68 L 24.70 174.62 L 24.91 174.72 L 24.92 175.09 L 25.03 175.35 L 25.17 175.56 L 25.17 175.93 L 25.18 176.30 L 25.15 176.71 L 25.02 177.20 L 24.93 177.58" fill="none" stroke="#000000" stroke-width="0.5" stroke-linejoin="round" stroke-linecap="round"/>
</svg>