<?xml version="1.0" encoding="UTF-8"?>
<svg xmlns="http://www.w3.org/2000/svg" viewBox="20.36 140.00 33.64 43.00">
<path d="M 49.00 145.00 L 48.99 145.37 L 48.87 145.67 L 48.71 146.05 L 48.50 146.51 L 48.30 146.94 L 48.09 147.34 L 47.88 147.74 L 47.65 148.19 L 47.43 148.62 L 47.21 149.02 L 46.98 149.41 L 46.73 149.81 L 46.44 150.21 L 46.13 150.57 L 45.79 150.89 L 45.49 151.15 L 45.30 151.29 L 45.09 151.48 L 44.79 151.84 L 44.53 152.20 L 44.30 152.59 L 44.10 153.01 L 43.92 153.43 L 43.73 153.85 L 43.54 154.27 L 43.35 154.69 L 43.17 155.11 L 42.98 155.53 L 42.79 155.95 L 42.60 156.37 L 42.42 156.79 L 42.23 157.21 L 42.04 157.63 L 41.86 158.05 L 41.67 158.47 L 41.48 158.89 L 41.29 159.31 L 41.11 159.73 L 40.92 160.15 L 40.73 160.57 L 40.54 160.99 L 40.36 161.41 L 40.17 161.83 L 39.98 162.25 L 39.79 162.68 L 39.61 163.10 L 39.42 163.52 L 39.23 163.94 L 39.04 164.36 L 38.85 164.77 L 38.65 165.18 L 38.44 165.59 L 38.22 166.03 L 38.01 166.46 L 37.80 166.87 L 37.60 167.28 L 37.41 167.69 L 37.22 168.11 L 37.03 168.53 L 36.83 168.94 L 36.63 169.35 L 36.40 169.78 L 36.16 170.22 L 35.93 170.61 L 35.67 171.02 L 35.40 171.44 L 35.13 171.85 L 34.84 172.26 L 34.54 172.65 L 34.22 173.04 L 33.91 173.39 L 33.58 173.73 L 33.23 174.05 L 32.92 174.30 L 32.63 174.51 L 32.30 174.75 L 31.93 175.03 L 31.55 175.31 L 31.23 175.50 L 30.94 175.65 L 30.66 175.78 L 30.30 175.99 L 29.96 176.17 L 29.62 176.35 L 29.29 176.53 L 28.99 176.64 L 28.68 176.76 L 28.33 176.93 L 28.04 177.02 L 27.76 177.08 L 27.49 177.15 L 27.14 177.31 L 26.81 177.46 L 26.53 177.53 L 26.18 177.70 L 25.85 177.83 L 25.59 177.91 L 25.36 178.00" fill="none" stroke="#000000" stroke-width="0.5" stroke-linejoin="round" stroke-linecap="round"/>
</svg>