<?xml version="1.0" encoding="UTF-8"?>
<svg xmlns="http://www.w3.org/2000/svg" viewBox="19.74 140.00 34.26 42.69">
<path d="M 49.00 145.00 L 48.61 145.01 L 48.31 145.18 L 47.97 145.38 L 47.58 145.61 L 47.25 145.80 L 46.90 146.02 L 46.52 146.27 L 46.16 146.52 L 45.87 146.73 L 45.56 146.98 L 45.23 147.27 L 44.91 147.60 L 44.61 147.93 L 44.32 148.26 L 44.02 148.61 L 43.72 148.93 L 43.43 149.25 L 43.14 149.59 L 42.84 149.92 L 42.54 150.26 L 42.25 150.60 L 41.97 150.94 L 41.68 151.29 L 41.40 151.63 L 41.12 151.95 L 40.82 152.30 L 40.52 152.63 L 40.24 152.95 L 39.95 153.28 L 39.64 153.61 L 39.32 153.93 L 39.03 154.26 L 38.77 154.60 L 38.51 154.95 L 38.26 155.30 L 38.04 155.66 L 37.83 156.06 L 37.65 156.46 L 37.49 156.87 L 37.34 157.27 L 37.19 157.67 L 37.04 158.05 L 36.87 158.44 L 36.67 158.84 L 36.44 159.23 L 36.17 159.60 L 35.89 159.95 L 35.61 160.26 L 35.31 160.59 L 35.01 160.91 L 34.69 161.23 L 34.39 161.56 L 34.10 161.90 L 33.81 162.24 L 33.52 162.58 L 33.23 162.93 L 32.95 163.27 L 32.66 163.61 L 32.39 163.97 L 32.13 164.34 L 31.90 164.71 L 31.69 165.08 L 31.48 165.44 L 31.30 165.79 L 31.08 166.20 L 30.86 166.60 L 30.64 167.00 L 30.41 167.39 L 30.19 167.78 L 29.98 168.15 L 29.76 168.53 L 29.53 168.92 L 29.29 169.31 L 29.02 169.68 L 28.74 170.03 L 28.45 170.37 L 28.15 170.70 L 27.86 171.01 L 27.56 171.31 L 27.25 171.63 L 26.96 171.97 L 26.71 172.34 L 26.50 172.73 L 26.35 173.14 L 26.28 173.47 L 26.32 173.65 L 26.46 173.72 L 26.42 174.01 L 26.25 174.45 L 26.05 174.86 L 25.81 175.25 L 25.56 175.63 L 25.31 176.01 L 25.09 176.41 L 24.90 176.83 L 24.74 177.28 L 24.74 177.51 L 24.76 177.69" fill="none" stroke="#000000" stroke-width="0.5" stroke-linejoin="round" stroke-linecap="round"/>
</svg>