<?xml version="1.0" encoding="UTF-8"?>
<svg xmlns="http://www.w3.org/2000/svg" viewBox="20.24 140.00 33.76 42.61">
<path d="M 49.00 145.00 L 48.62 145.26 L 48.31 145.61 L 47.96 145.95 L 47.61 146.29 L 47.29 146.63 L 46.97 146.93 L 46.59 147.25 L 46.21 147.54 L 45.82 147.80 L 45.44 148.06 L 45.03 148.30 L 44.60 148.52 L 44.14 148.73 L 43.69 148.93 L 43.26 149.10 L 42.89 149.19 L 42.45 149.37 L 41.99 149.58 L 41.54 149.78 L 41.09 149.99 L 40.64 150.20 L 40.19 150.39 L 39.82 150.48 L 39.40 150.64 L 38.94 150.84 L 38.49 151.05 L 38.06 151.27 L 37.63 151.50 L 37.21 151.73 L 36.78 151.96 L 36.36 152.18 L 35.93 152.41 L 35.52 152.65 L 35.14 152.91 L 34.75 153.16 L 34.37 153.45 L 33.99 153.77 L 33.67 154.08 L 33.36 154.42 L 33.04 154.79 L 32.73 155.16 L 32.45 155.55 L 32.19 155.95 L 31.93 156.36 L 31.68 156.77 L 31.45 157.17 L 31.21 157.60 L 31.02 158.03 L 30.84 158.48 L 30.67 158.94 L 30.59 159.36 L 30.49 159.80 L 30.42 160.27 L 30.41 160.73 L 30.35 161.24 L 30.32 161.70 L 30.31 162.16 L 30.29 162.62 L 30.25 163.14 L 30.24 163.62 L 30.24 164.09 L 30.26 164.57 L 30.29 165.07 L 30.33 165.56 L 30.47 165.92 L 30.55 166.37 L 30.61 166.89 L 30.67 167.40 L 30.76 167.84 L 30.89 168.21 L 30.95 168.71 L 31.01 169.23 L 31.06 169.74 L 31.18 170.11 L 31.28 170.54 L 31.34 171.06 L 31.37 171.55 L 31.39 171.97 L 31.48 172.29 L 31.41 172.80 L 31.29 173.28 L 31.16 173.65 L 30.94 174.03 L 30.70 174.40 L 30.40 174.73 L 30.01 175.04 L 29.59 175.30 L 29.23 175.41 L 28.82 175.56 L 28.35 175.74 L 27.95 175.81 L 27.52 175.96 L 27.07 176.16 L 26.63 176.38 L 26.23 176.63 L 25.89 176.92 L 25.56 177.25 L 25.24 177.61" fill="none" stroke="#000000" stroke-width="0.5" stroke-linejoin="round" stroke-linecap="round"/>
</svg>