<?xml version="1.0" encoding="UTF-8"?>
<svg xmlns="http://www.w3.org/2000/svg" viewBox="13.69 140.00 40.56 42.77">
<path d="M 49.00 145.00 L 49.25 145.93 L 49.08 146.71 L 48.74 147.84 L 48.51 148.96 L 48.28 150.02 L 48.08 150.99 L 47.80 151.83 L 47.33 152.66 L 46.73 153.39 L 46.37 153.47 L 45.84 153.52 L 45.27 153.35 L 44.99 152.55 L 44.24 152.46 L 43.34 152.63 L 42.38 152.97 L 41.46 153.35 L 40.59 153.76 L 39.63 154.37 L 38.72 155.02 L 37.94 155.78 L 37.31 156.64 L 36.77 157.65 L 36.66 158.33 L 36.93 158.75 L 37.59 158.92 L 38.26 159.27 L 38.91 159.67 L 39.53 160.16 L 40.31 160.41 L 40.98 160.82 L 41.59 161.31 L 42.20 161.79 L 42.80 162.27 L 43.51 162.61 L 44.33 162.75 L 44.82 163.30 L 45.10 164.03 L 45.22 164.82 L 45.14 165.77 L 44.89 166.86 L 44.52 168.01 L 44.15 169.07 L 43.81 170.05 L 43.40 171.12 L 43.03 172.18 L 42.67 173.14 L 42.17 174.06 L 41.50 174.95 L 40.71 175.77 L 40.22 175.90 L 39.92 175.53 L 39.76 174.81 L 39.53 174.05 L 39.40 173.13 L 39.47 171.95 L 39.34 171.01 L 39.15 170.14 L 38.75 169.52 L 38.19 169.05 L 37.48 168.74 L 36.64 168.58 L 36.02 168.14 L 35.31 167.82 L 34.49 167.66 L 33.70 167.45 L 32.89 167.27 L 32.06 167.11 L 31.28 166.89 L 30.57 166.57 L 29.89 166.21 L 29.06 166.05 L 28.25 165.87 L 27.47 165.65 L 26.66 165.51 L 25.87 165.38 L 25.13 165.29 L 24.32 165.42 L 23.49 165.73 L 22.53 166.35 L 21.61 167.09 L 20.79 167.90 L 20.07 168.79 L 19.45 169.78 L 18.95 170.84 L 18.69 171.80 L 18.72 172.57 L 19.17 172.95 L 19.70 173.37 L 20.00 174.18 L 20.43 174.82 L 20.75 175.61 L 21.01 176.46 L 21.21 177.36 L 21.75 177.77 L 22.60 177.77 L 23.55 177.47 L 24.22 177.39" fill="none" stroke="#000000" stroke-width="0.5" stroke-linejoin="round" stroke-linecap="round"/>
</svg>