<?xml version="1.0" encoding="UTF-8"?>
<svg xmlns="http://www.w3.org/2000/svg" viewBox="20.41 140.00 42.56 42.01">
<path d="M 49.00 145.00 L 50.32 145.65 L 51.02 145.90 L 51.81 146.26 L 52.89 146.45 L 53.93 146.69 L 54.88 147.06 L 55.97 147.22 L 56.87 147.59 L 57.54 148.18 L 57.92 148.87 L 57.97 149.68 L 57.65 150.58 L 57.06 151.37 L 56.27 151.98 L 55.45 152.22 L 54.54 152.21 L 53.55 152.13 L 52.49 151.99 L 51.53 151.65 L 50.58 151.28 L 49.64 150.89 L 48.73 150.45 L 47.75 150.12 L 46.65 149.96 L 45.69 149.61 L 44.67 149.36 L 43.57 149.19 L 42.67 148.76 L 41.77 148.34 L 40.82 147.96 L 39.74 147.78 L 38.71 147.55 L 37.81 147.22 L 36.82 147.13 L 35.85 147.17 L 34.97 147.37 L 34.10 147.81 L 33.28 148.44 L 32.61 149.24 L 32.15 150.19 L 31.91 151.22 L 31.94 152.17 L 32.31 152.86 L 32.85 153.55 L 33.57 154.19 L 34.19 155.06 L 34.80 155.94 L 35.38 156.87 L 36.15 157.54 L 36.96 158.15 L 37.89 158.61 L 38.85 159.05 L 39.83 159.45 L 40.76 159.91 L 41.69 160.34 L 42.59 160.71 L 43.07 161.47 L 43.33 162.24 L 43.20 163.15 L 42.71 164.07 L 42.02 164.77 L 41.20 165.19 L 40.45 165.11 L 39.64 164.79 L 38.75 164.36 L 37.93 163.76 L 37.14 163.08 L 36.34 162.41 L 35.49 161.81 L 34.50 161.40 L 33.70 160.75 L 32.87 160.14 L 31.88 159.74 L 30.93 159.28 L 30.03 158.79 L 29.36 158.20 L 28.74 157.93 L 28.26 157.91 L 27.53 158.67 L 27.10 159.40 L 26.96 160.16 L 27.03 161.05 L 27.07 162.21 L 27.19 163.25 L 27.33 164.15 L 27.44 165.02 L 27.41 166.03 L 27.22 167.14 L 27.05 168.14 L 26.79 169.17 L 26.50 170.25 L 26.33 171.27 L 26.19 172.31 L 26.08 173.36 L 26.08 174.23 L 26.02 175.07 L 25.77 176.02 L 25.41 177.01" fill="none" stroke="#000000" stroke-width="0.5" stroke-linejoin="round" stroke-linecap="round"/>
</svg>