<?xml version="1.0" encoding="UTF-8"?>
<svg xmlns="http://www.w3.org/2000/svg" viewBox="20.43 140.00 33.57 42.77">
<path d="M 49.00 145.00 L 48.56 145.05 L 48.23 145.23 L 47.80 145.46 L 47.41 145.55 L 47.04 145.61 L 46.74 145.54 L 46.49 145.36 L 46.24 145.28 L 46.05 145.23 L 45.96 145.16 L 45.73 145.42 L 45.53 145.76 L 45.37 146.14 L 45.27 146.56 L 45.15 146.96 L 44.96 147.39 L 44.76 147.82 L 44.53 148.25 L 44.30 148.69 L 44.11 149.13 L 43.95 149.54 L 43.82 149.94 L 43.79 150.21 L 43.72 150.56 L 43.57 151.04 L 43.40 151.53 L 43.27 151.95 L 43.15 152.35 L 43.05 152.77 L 42.94 153.21 L 42.84 153.60 L 42.83 153.86 L 42.65 154.32 L 42.46 154.78 L 42.27 155.22 L 42.06 155.64 L 41.85 156.06 L 41.64 156.49 L 41.45 156.93 L 41.22 157.37 L 40.99 157.76 L 40.80 158.10 L 40.59 158.48 L 40.37 158.88 L 40.11 159.27 L 39.84 159.64 L 39.58 160.02 L 39.34 160.39 L 39.08 160.77 L 38.78 161.15 L 38.46 161.53 L 38.15 161.91 L 37.85 162.27 L 37.54 162.59 L 37.19 162.94 L 36.83 163.26 L 36.51 163.57 L 36.18 163.88 L 35.83 164.19 L 35.45 164.52 L 35.09 164.82 L 34.74 165.10 L 34.39 165.39 L 34.01 165.66 L 33.63 165.92 L 33.26 166.19 L 32.88 166.46 L 32.52 166.74 L 32.20 167.05 L 31.93 167.39 L 31.71 167.75 L 31.55 168.12 L 31.50 168.40 L 31.46 168.75 L 31.37 169.23 L 31.29 169.66 L 31.20 170.08 L 31.10 170.50 L 30.94 170.96 L 30.81 171.35 L 30.63 171.75 L 30.40 172.19 L 30.16 172.62 L 29.90 173.04 L 29.65 173.44 L 29.39 173.85 L 29.11 174.25 L 28.83 174.63 L 28.50 175.00 L 28.20 175.34 L 27.90 175.66 L 27.57 175.97 L 27.20 176.29 L 26.82 176.61 L 26.47 176.90 L 26.12 177.19 L 25.77 177.48 L 25.43 177.77" fill="none" stroke="#000000" stroke-width="0.5" stroke-linejoin="round" stroke-linecap="round"/>
</svg>