<?xml version="1.0" encoding="UTF-8"?>
<svg xmlns="http://www.w3.org/2000/svg" viewBox="13.02 140.00 40.98 42.38">
<path d="M 49.00 145.00 L 48.39 145.44 L 47.88 145.95 L 47.34 146.44 L 46.80 146.93 L 46.26 147.42 L 45.71 147.92 L 45.11 148.51 L 44.55 149.07 L 44.03 149.58 L 43.42 150.20 L 42.87 150.77 L 42.36 151.30 L 41.79 151.91 L 41.21 152.54 L 40.61 153.19 L 40.05 153.81 L 39.50 154.44 L 38.94 155.06 L 38.36 155.70 L 37.77 156.34 L 37.20 156.96 L 36.65 157.55 L 36.08 158.14 L 35.49 158.74 L 34.96 159.25 L 34.40 159.78 L 33.78 160.36 L 33.30 160.75 L 32.84 161.12 L 32.28 161.60 L 31.72 162.07 L 31.15 162.54 L 30.57 163.01 L 30.10 163.33 L 29.63 163.61 L 29.16 163.89 L 28.67 164.17 L 28.21 164.41 L 27.87 164.47 L 27.42 164.67 L 26.97 164.87 L 26.61 164.92 L 26.27 164.98 L 25.92 165.03 L 25.57 165.08 L 25.10 165.31 L 24.60 165.58 L 24.26 165.65 L 23.86 165.81 L 23.38 166.09 L 22.91 166.38 L 22.38 166.78 L 21.81 167.25 L 21.26 167.73 L 20.72 168.23 L 20.19 168.75 L 19.62 169.36 L 19.07 170.02 L 18.55 170.73 L 18.07 171.49 L 18.02 171.74 L 18.36 171.54 L 18.67 171.45 L 19.01 171.39 L 19.36 171.35 L 19.72 171.30 L 20.08 171.25 L 20.44 171.21 L 20.79 171.16 L 21.15 171.12 L 21.43 171.19 L 21.65 171.34 L 22.00 171.30 L 22.25 171.41 L 22.40 171.66 L 22.76 171.61 L 23.04 171.69 L 23.26 171.84 L 23.61 171.80 L 23.90 171.84 L 24.12 171.98 L 24.56 171.82 L 25.00 171.63 L 25.34 171.57 L 25.67 171.50 L 25.77 171.74 L 25.51 172.47 L 25.37 173.04 L 25.23 173.60 L 25.10 174.17 L 25.10 174.58 L 25.14 174.95 L 25.24 175.23 L 25.35 175.51 L 25.39 175.88 L 25.39 176.29 L 25.24 176.84 L 25.06 177.38" fill="none" stroke="#000000" stroke-width="0.5" stroke-linejoin="round" stroke-linecap="round"/>
</svg>