<?xml version="1.0" encoding="UTF-8"?>
<svg xmlns="http://www.w3.org/2000/svg" viewBox="20.23 140.00 39.29 42.55">
<path d="M 49.00 145.00 L 49.69 145.18 L 50.07 145.23 L 50.47 145.39 L 50.92 145.58 L 51.39 145.78 L 51.86 145.98 L 52.32 146.20 L 52.72 146.50 L 53.11 146.81 L 53.47 147.14 L 53.83 147.46 L 54.11 147.84 L 54.29 148.30 L 54.46 148.76 L 54.51 149.29 L 54.51 149.79 L 54.50 150.22 L 54.37 150.69 L 54.19 151.17 L 53.95 151.62 L 53.66 152.04 L 53.34 152.42 L 52.98 152.79 L 52.63 153.15 L 52.25 153.46 L 51.87 153.79 L 51.47 154.11 L 51.08 154.36 L 50.66 154.67 L 50.24 154.95 L 49.83 155.18 L 49.41 155.46 L 49.00 155.72 L 48.57 155.96 L 48.13 156.26 L 47.72 156.51 L 47.31 156.78 L 46.90 157.06 L 46.45 157.34 L 46.01 157.61 L 45.58 157.88 L 45.19 158.12 L 44.76 158.39 L 44.32 158.66 L 43.86 158.93 L 43.42 159.19 L 42.99 159.43 L 42.57 159.66 L 42.15 159.88 L 41.71 160.15 L 41.27 160.43 L 40.86 160.72 L 40.45 161.01 L 40.04 161.33 L 39.65 161.64 L 39.28 161.90 L 38.88 162.23 L 38.49 162.56 L 38.12 162.87 L 37.73 163.21 L 37.34 163.55 L 36.96 163.88 L 36.63 164.18 L 36.25 164.51 L 35.86 164.85 L 35.46 165.19 L 35.12 165.52 L 34.77 165.86 L 34.40 166.22 L 34.02 166.57 L 33.65 166.92 L 33.29 167.28 L 32.95 167.62 L 32.59 167.96 L 32.23 168.32 L 31.87 168.69 L 31.54 169.07 L 31.21 169.45 L 30.88 169.84 L 30.55 170.22 L 30.22 170.61 L 29.89 170.99 L 29.57 171.38 L 29.26 171.78 L 28.95 172.18 L 28.65 172.59 L 28.35 172.99 L 28.06 173.40 L 27.76 173.80 L 27.47 174.22 L 27.18 174.63 L 26.89 175.05 L 26.61 175.45 L 26.32 175.86 L 26.04 176.28 L 25.78 176.72 L 25.50 177.14 L 25.23 177.55" fill="none" stroke="#000000" stroke-width="0.5" stroke-linejoin="round" stroke-linecap="round"/>
</svg>