<?xml version="1.0" encoding="UTF-8"?>
<svg xmlns="http://www.w3.org/2000/svg" viewBox="21.17 140.00 37.40 42.97">
<path d="M 49.00 145.00 L 50.38 145.32 L 50.69 145.94 L 50.91 146.92 L 51.10 148.11 L 51.33 149.20 L 51.52 150.15 L 51.53 151.17 L 51.39 152.12 L 51.04 153.15 L 50.51 154.12 L 49.86 154.97 L 49.08 155.75 L 48.24 156.46 L 47.44 157.14 L 46.63 157.85 L 45.76 158.54 L 44.85 159.25 L 43.99 159.87 L 43.13 160.44 L 42.19 161.02 L 41.19 161.52 L 40.17 161.95 L 39.20 162.35 L 38.22 162.77 L 37.21 163.21 L 36.14 163.69 L 35.03 164.15 L 33.95 164.55 L 33.02 164.76 L 32.04 164.93 L 30.97 165.13 L 29.85 165.46 L 29.06 165.77 L 28.49 166.23 L 28.12 166.82 L 27.95 167.50 L 28.40 167.74 L 29.29 167.79 L 30.43 167.76 L 31.58 167.72 L 32.74 167.68 L 33.87 167.65 L 34.91 167.74 L 35.94 167.83 L 37.08 167.79 L 38.24 167.75 L 39.40 167.70 L 40.51 167.69 L 41.50 167.81 L 42.53 167.82 L 43.59 167.71 L 44.70 167.45 L 45.77 167.11 L 46.72 166.63 L 47.54 165.99 L 48.21 165.21 L 48.77 164.34 L 49.22 163.51 L 49.60 162.74 L 50.10 161.90 L 50.82 161.07 L 51.70 160.39 L 52.46 160.22 L 53.00 160.61 L 53.25 161.54 L 53.39 162.70 L 53.51 163.84 L 53.57 164.94 L 53.53 165.97 L 53.30 166.99 L 52.90 167.91 L 52.32 168.81 L 51.65 169.56 L 50.91 170.13 L 49.99 170.75 L 49.04 171.32 L 48.14 171.84 L 47.17 172.45 L 46.16 173.04 L 45.11 173.59 L 44.11 173.99 L 43.08 174.31 L 42.08 174.46 L 41.01 174.56 L 39.92 174.65 L 38.82 174.74 L 37.76 174.85 L 36.71 174.97 L 35.63 175.21 L 34.50 175.55 L 33.40 175.86 L 32.30 176.17 L 31.18 176.47 L 30.17 176.68 L 29.20 176.86 L 28.22 177.03 L 27.14 177.47 L 26.17 177.97" fill="none" stroke="#000000" stroke-width="0.5" stroke-linejoin="round" stroke-linecap="round"/>
</svg>