<?xml version="1.0" encoding="UTF-8"?>
<svg xmlns="http://www.w3.org/2000/svg" viewBox="17.06 140.00 40.66 42.84">
<path d="M 49.00 145.00 L 49.57 145.73 L 50.06 145.84 L 50.60 146.02 L 51.11 146.40 L 51.62 146.78 L 52.10 147.14 L 52.55 147.33 L 52.71 147.71 L 52.67 148.22 L 52.37 148.93 L 51.99 149.60 L 51.53 150.25 L 51.03 150.87 L 50.56 151.50 L 50.11 152.14 L 49.66 152.80 L 49.21 153.45 L 48.77 154.11 L 48.34 154.77 L 47.92 155.44 L 47.50 156.11 L 47.09 156.76 L 46.67 157.41 L 46.24 158.08 L 45.79 158.73 L 45.29 159.35 L 44.76 159.95 L 44.22 160.50 L 43.67 161.03 L 43.07 161.52 L 42.42 161.97 L 41.73 162.39 L 41.06 162.68 L 40.35 162.91 L 39.70 162.96 L 39.13 162.80 L 38.56 162.57 L 38.02 162.25 L 37.51 161.88 L 37.01 161.51 L 36.46 161.21 L 35.78 161.14 L 35.11 161.09 L 34.45 161.11 L 33.78 161.22 L 33.19 161.50 L 32.70 161.92 L 32.28 162.54 L 32.14 163.03 L 32.18 163.54 L 32.41 164.03 L 32.73 164.58 L 33.05 165.13 L 33.38 165.68 L 33.59 166.39 L 33.81 167.06 L 34.12 167.60 L 34.32 168.28 L 34.51 168.96 L 34.83 169.51 L 35.05 170.17 L 35.25 170.88 L 35.56 171.42 L 35.83 171.94 L 36.06 172.43 L 36.12 173.11 L 36.01 173.91 L 35.80 174.63 L 35.50 175.29 L 35.10 175.90 L 34.60 176.46 L 34.00 176.95 L 33.35 177.31 L 32.72 177.45 L 32.09 177.51 L 31.45 177.47 L 30.77 177.41 L 30.13 177.26 L 29.51 177.06 L 28.93 176.79 L 28.32 176.56 L 27.68 176.36 L 27.17 176.00 L 26.67 175.67 L 26.08 175.47 L 25.34 175.52 L 24.67 175.57 L 24.13 175.61 L 23.51 175.93 L 22.95 176.38 L 22.44 176.99 L 22.06 177.68 L 22.22 177.84 L 22.85 177.55 L 23.53 177.32 L 24.15 177.18 L 24.69 177.06 L 25.05 177.07" fill="none" stroke="#000000" stroke-width="0.5" stroke-linejoin="round" stroke-linecap="round"/>
</svg>