<?xml version="1.0" encoding="UTF-8"?>
<svg xmlns="http://www.w3.org/2000/svg" viewBox="18.78 140.00 35.69 42.38">
<path d="M 49.00 145.00 L 49.29 145.61 L 49.33 146.03 L 49.39 146.48 L 49.47 146.94 L 49.42 147.41 L 49.25 147.85 L 48.96 148.27 L 48.63 148.55 L 48.27 148.73 L 47.87 148.83 L 47.36 148.97 L 46.84 149.12 L 46.30 149.26 L 45.77 149.39 L 45.27 149.48 L 44.79 149.52 L 44.31 149.56 L 43.81 149.63 L 43.29 149.76 L 42.77 149.90 L 42.26 150.06 L 41.75 150.23 L 41.25 150.37 L 40.75 150.52 L 40.23 150.65 L 39.69 150.77 L 39.19 150.80 L 38.67 150.81 L 38.13 150.80 L 37.65 150.66 L 37.21 150.44 L 36.83 150.15 L 36.36 149.96 L 35.88 149.82 L 35.39 149.76 L 34.87 149.77 L 34.36 149.86 L 33.85 150.01 L 33.35 150.19 L 32.86 150.41 L 32.41 150.67 L 31.99 150.91 L 31.57 151.20 L 31.16 151.54 L 30.78 151.87 L 30.44 152.25 L 30.14 152.68 L 29.84 153.11 L 29.60 153.54 L 29.39 153.97 L 29.17 154.45 L 28.99 154.96 L 28.82 155.46 L 28.66 155.93 L 28.51 156.40 L 28.37 156.89 L 28.21 157.40 L 28.03 157.89 L 27.83 158.37 L 27.59 158.83 L 27.33 159.27 L 27.05 159.71 L 26.76 160.15 L 26.48 160.59 L 26.18 161.02 L 25.90 161.45 L 25.65 161.90 L 25.40 162.36 L 25.19 162.83 L 24.97 163.30 L 24.76 163.78 L 24.57 164.27 L 24.41 164.78 L 24.26 165.30 L 24.13 165.79 L 24.03 166.26 L 23.97 166.75 L 23.87 167.31 L 23.83 167.84 L 23.81 168.35 L 23.80 168.85 L 23.82 169.33 L 23.87 169.79 L 23.85 170.36 L 23.84 170.89 L 23.84 171.38 L 23.82 171.89 L 23.80 172.44 L 23.78 173.01 L 23.82 173.50 L 23.87 174.01 L 23.95 174.52 L 24.08 175.02 L 24.22 175.51 L 24.36 176.02 L 24.51 176.52 L 24.64 176.96 L 24.70 177.38" fill="none" stroke="#000000" stroke-width="0.5" stroke-linejoin="round" stroke-linecap="round"/>
</svg>