<?xml version="1.0" encoding="UTF-8"?>
<svg xmlns="http://www.w3.org/2000/svg" viewBox="20.52 140.00 33.88 42.83">
<path d="M 49.00 145.00 L 49.20 145.63 L 49.22 146.03 L 49.30 146.44 L 49.29 147.07 L 49.34 147.58 L 49.38 148.08 L 49.41 148.58 L 49.37 149.17 L 49.32 149.73 L 49.28 150.27 L 49.20 150.83 L 49.12 151.40 L 49.02 151.94 L 48.95 152.47 L 48.86 153.02 L 48.73 153.60 L 48.69 154.06 L 48.58 154.58 L 48.43 155.15 L 48.31 155.69 L 48.16 156.25 L 47.98 156.82 L 47.84 157.38 L 47.72 157.93 L 47.60 158.52 L 47.54 159.05 L 47.54 159.53 L 47.51 160.00 L 47.42 160.51 L 47.31 161.04 L 47.14 161.64 L 46.95 162.24 L 46.83 162.76 L 46.78 163.21 L 46.71 163.77 L 46.72 164.30 L 46.78 164.82 L 46.81 165.32 L 46.92 165.76 L 47.01 166.25 L 46.99 166.91 L 47.13 167.37 L 47.36 167.72 L 47.51 168.10 L 47.63 168.40 L 47.67 168.61 L 47.36 169.08 L 47.11 169.25 L 46.80 169.30 L 46.42 169.30 L 46.00 169.31 L 45.54 169.41 L 44.97 169.70 L 44.42 169.99 L 43.90 170.26 L 43.42 170.47 L 42.91 170.65 L 42.41 170.80 L 42.00 170.78 L 41.51 170.86 L 40.95 171.06 L 40.57 171.06 L 40.14 171.20 L 39.64 171.51 L 39.18 171.86 L 38.78 172.27 L 38.42 172.71 L 38.10 173.17 L 37.83 173.67 L 37.58 174.22 L 37.37 174.76 L 37.20 175.26 L 36.97 175.77 L 36.69 176.25 L 36.36 176.68 L 35.98 177.00 L 35.57 177.21 L 35.20 177.23 L 34.75 177.21 L 34.26 177.21 L 33.79 177.15 L 33.27 177.17 L 32.66 177.28 L 32.17 177.23 L 31.71 177.14 L 31.33 176.93 L 30.83 176.84 L 30.37 176.71 L 29.97 176.53 L 29.50 176.47 L 28.97 176.50 L 28.40 176.64 L 27.92 176.67 L 27.43 176.82 L 26.94 177.01 L 26.45 177.21 L 25.96 177.52 L 25.52 177.83" fill="none" stroke="#000000" stroke-width="0.5" stroke-linejoin="round" stroke-linecap="round"/>
</svg>