<?xml version="1.0" encoding="UTF-8"?>
<svg xmlns="http://www.w3.org/2000/svg" viewBox="16.45 140.00 37.55 42.40">
<path d="M 49.00 145.00 L 48.65 145.37 L 48.35 145.77 L 48.05 146.19 L 47.75 146.61 L 47.46 147.03 L 47.16 147.45 L 46.84 147.85 L 46.52 148.25 L 46.19 148.62 L 45.87 148.94 L 45.49 149.30 L 45.11 149.64 L 44.73 149.98 L 44.35 150.32 L 43.96 150.65 L 43.56 150.97 L 43.15 151.29 L 42.74 151.61 L 42.33 151.92 L 41.93 152.22 L 41.52 152.52 L 41.09 152.83 L 40.64 153.12 L 40.20 153.41 L 39.80 153.65 L 39.42 153.85 L 38.95 154.11 L 38.47 154.38 L 38.02 154.61 L 37.61 154.79 L 37.13 155.02 L 36.64 155.22 L 36.18 155.37 L 35.74 155.52 L 35.28 155.67 L 34.77 155.88 L 34.28 156.10 L 33.84 156.25 L 33.38 156.47 L 32.90 156.70 L 32.46 156.86 L 31.99 157.07 L 31.52 157.30 L 31.08 157.46 L 30.61 157.67 L 30.13 157.90 L 29.68 158.08 L 29.20 158.28 L 28.69 158.50 L 28.22 158.64 L 27.74 158.78 L 27.26 158.91 L 26.76 159.02 L 26.24 159.12 L 25.72 159.22 L 25.20 159.31 L 24.81 159.27 L 24.35 159.36 L 23.88 159.51 L 23.37 159.72 L 22.89 159.97 L 22.46 160.27 L 22.16 160.53 L 21.90 160.86 L 21.68 161.28 L 21.50 161.74 L 21.45 162.16 L 21.48 162.62 L 21.48 163.16 L 21.52 163.71 L 21.61 164.19 L 21.70 164.67 L 21.81 165.18 L 21.94 165.69 L 22.09 166.18 L 22.35 166.53 L 22.49 167.02 L 22.62 167.53 L 22.76 168.05 L 22.89 168.57 L 23.02 169.08 L 23.22 169.51 L 23.43 169.91 L 23.56 170.43 L 23.69 170.94 L 23.79 171.43 L 23.88 171.92 L 23.94 172.44 L 23.96 173.00 L 24.03 173.52 L 24.12 174.00 L 24.21 174.49 L 24.32 174.99 L 24.43 175.49 L 24.55 175.99 L 24.66 176.49 L 24.73 176.96 L 24.75 177.40" fill="none" stroke="#000000" stroke-width="0.5" stroke-linejoin="round" stroke-linecap="round"/>
</svg>