<?xml version="1.0" encoding="UTF-8"?>
<svg xmlns="http://www.w3.org/2000/svg" viewBox="20.02 140.00 33.98 42.79">
<path d="M 49.00 145.00 L 48.86 145.01 L 48.68 145.17 L 48.48 145.34 L 48.26 145.51 L 48.05 145.68 L 47.84 145.85 L 47.62 146.02 L 47.51 146.05 L 47.37 146.13 L 47.23 146.22 L 46.94 146.50 L 46.62 146.83 L 46.32 147.15 L 46.13 147.34 L 45.82 147.68 L 45.47 148.09 L 45.16 148.45 L 44.84 148.84 L 44.49 149.27 L 44.13 149.69 L 43.80 150.09 L 43.50 150.45 L 43.16 150.86 L 42.81 151.27 L 42.50 151.62 L 42.19 151.97 L 41.88 152.32 L 41.60 152.63 L 41.30 152.97 L 40.98 153.33 L 40.62 153.75 L 40.30 154.11 L 40.02 154.44 L 39.71 154.79 L 39.37 155.19 L 39.02 155.60 L 38.71 155.96 L 38.41 156.31 L 38.10 156.67 L 37.76 157.09 L 37.41 157.51 L 37.06 157.95 L 36.72 158.38 L 36.39 158.82 L 36.04 159.28 L 35.70 159.74 L 35.36 160.21 L 35.02 160.68 L 34.69 161.15 L 34.35 161.62 L 34.02 162.09 L 33.69 162.56 L 33.37 163.04 L 33.06 163.50 L 32.80 163.92 L 32.58 164.30 L 32.31 164.74 L 32.14 165.08 L 31.99 165.36 L 31.93 165.54 L 31.75 165.89 L 31.51 166.33 L 31.36 166.64 L 31.19 166.98 L 31.05 167.28 L 31.00 167.47 L 30.94 167.65 L 30.89 167.83 L 30.69 168.21 L 30.46 168.63 L 30.31 168.95 L 30.13 169.29 L 30.00 169.57 L 29.94 169.75 L 29.70 170.18 L 29.49 170.57 L 29.34 170.88 L 29.19 171.20 L 29.05 171.49 L 28.99 171.67 L 28.87 171.93 L 28.69 172.23 L 28.37 172.69 L 28.05 173.15 L 27.73 173.57 L 27.43 173.93 L 27.11 174.33 L 26.76 174.76 L 26.42 175.20 L 26.09 175.64 L 25.78 176.10 L 25.60 176.40 L 25.46 176.66 L 25.39 176.84 L 25.27 177.13 L 25.14 177.43 L 25.08 177.62 L 25.02 177.79" fill="none" stroke="#000000" stroke-width="0.5" stroke-linejoin="round" stroke-linecap="round"/>
</svg>