<?xml version="1.0" encoding="UTF-8"?>
<svg xmlns="http://www.w3.org/2000/svg" viewBox="20.71 140.00 33.29 42.97">
<path d="M 49.00 145.00 L 48.37 145.24 L 47.94 145.54 L 47.44 145.85 L 46.88 146.18 L 46.34 146.43 L 45.77 146.65 L 45.19 146.83 L 44.87 146.59 L 44.50 146.38 L 43.98 146.34 L 43.46 146.30 L 42.93 146.31 L 42.36 146.44 L 41.80 146.59 L 41.24 146.79 L 40.66 147.07 L 40.17 147.27 L 39.63 147.58 L 39.11 147.90 L 38.61 148.24 L 38.14 148.64 L 37.69 149.05 L 37.25 149.52 L 36.83 150.00 L 36.44 150.50 L 36.06 151.01 L 35.68 151.52 L 35.30 152.03 L 34.93 152.54 L 34.54 153.04 L 34.12 153.52 L 33.70 154.00 L 33.31 154.45 L 32.93 154.88 L 32.51 155.36 L 32.10 155.84 L 31.70 156.34 L 31.35 156.87 L 31.04 157.43 L 30.78 158.01 L 30.60 158.58 L 30.50 159.12 L 30.47 159.66 L 30.49 160.23 L 30.54 160.82 L 30.61 161.42 L 30.78 161.90 L 30.96 162.40 L 31.15 162.89 L 31.37 163.41 L 31.58 163.92 L 31.83 164.39 L 32.21 164.68 L 32.46 165.17 L 32.75 165.60 L 33.13 165.92 L 33.36 166.44 L 33.69 166.82 L 34.09 167.12 L 34.38 167.57 L 34.65 168.05 L 35.05 168.36 L 35.45 168.66 L 35.86 168.96 L 36.23 169.30 L 36.51 169.76 L 36.78 170.23 L 37.01 170.76 L 37.35 171.11 L 37.65 171.48 L 37.82 171.96 L 37.94 172.41 L 37.93 172.91 L 37.76 173.50 L 37.49 174.08 L 37.14 174.61 L 36.71 175.09 L 36.24 175.47 L 35.74 175.80 L 35.21 176.12 L 34.78 176.22 L 34.30 176.33 L 33.68 176.58 L 33.10 176.72 L 32.52 176.85 L 32.06 176.86 L 31.58 176.86 L 31.08 176.86 L 30.42 177.08 L 29.87 177.17 L 29.38 177.17 L 28.82 177.32 L 28.27 177.42 L 27.79 177.41 L 27.18 177.59 L 26.60 177.75 L 26.17 177.78 L 25.71 177.97" fill="none" stroke="#000000" stroke-width="0.5" stroke-linejoin="round" stroke-linecap="round"/>
</svg>