<?xml version="1.0" encoding="UTF-8"?>
<svg xmlns="http://www.w3.org/2000/svg" viewBox="13.01 140.00 44.23 42.03">
<path d="M 49.00 145.00 L 49.97 145.66 L 50.42 146.01 L 50.88 146.51 L 51.32 147.23 L 51.67 148.08 L 51.99 148.75 L 52.17 149.22 L 52.24 149.48 L 52.00 149.89 L 51.78 150.24 L 51.77 150.28 L 51.66 150.44 L 51.28 150.86 L 51.00 151.12 L 50.70 151.42 L 50.36 151.70 L 50.04 151.81 L 49.83 151.70 L 49.47 151.79 L 48.97 152.38 L 48.72 153.02 L 48.67 153.57 L 48.63 154.05 L 48.58 154.35 L 48.45 154.45 L 48.23 154.33 L 47.97 154.18 L 47.61 154.04 L 47.05 154.25 L 46.45 154.70 L 45.88 155.23 L 45.30 155.81 L 44.77 156.44 L 44.25 156.88 L 43.98 156.75 L 44.12 155.85 L 44.12 154.99 L 43.99 154.19 L 43.86 153.40 L 43.58 152.72 L 43.22 152.12 L 43.04 151.35 L 42.65 150.91 L 41.82 151.14 L 40.97 151.47 L 40.19 151.76 L 39.42 152.06 L 38.64 152.38 L 37.86 152.67 L 37.08 152.96 L 36.27 153.25 L 35.46 153.52 L 34.65 153.75 L 33.85 153.92 L 33.02 154.08 L 32.21 154.20 L 31.43 154.28 L 30.66 154.34 L 29.83 154.50 L 28.96 154.71 L 28.14 154.89 L 27.36 155.09 L 26.61 155.30 L 25.84 155.60 L 25.10 155.94 L 24.36 156.35 L 23.63 156.82 L 22.95 157.32 L 22.31 157.83 L 21.69 158.38 L 21.09 158.96 L 20.48 159.54 L 19.86 160.12 L 19.22 160.69 L 18.71 161.27 L 18.31 161.93 L 18.01 162.65 L 18.17 162.94 L 18.54 163.19 L 18.95 163.65 L 19.45 164.27 L 19.89 165.01 L 20.31 165.74 L 20.73 166.47 L 21.15 167.20 L 21.57 167.92 L 21.98 168.65 L 22.40 169.38 L 22.81 170.10 L 23.22 170.83 L 23.62 171.54 L 24.00 172.23 L 24.32 172.97 L 24.52 173.81 L 24.69 174.64 L 24.83 175.44 L 24.83 176.27 L 24.77 177.03" fill="none" stroke="#000000" stroke-width="0.5" stroke-linejoin="round" stroke-linecap="round"/>
</svg>