<?xml version="1.0" encoding="UTF-8"?>
<svg xmlns="http://www.w3.org/2000/svg" viewBox="20.38 140.00 33.62 42.87">
<path d="M 49.00 145.00 L 48.63 145.00 L 48.39 145.10 L 48.14 145.15 L 47.84 145.24 L 47.49 145.39 L 47.15 145.54 L 46.81 145.68 L 46.54 145.76 L 46.29 145.86 L 46.03 146.07 L 45.74 146.39 L 45.49 146.77 L 45.39 147.03 L 45.33 147.31 L 45.29 147.63 L 45.20 148.05 L 45.13 148.45 L 45.11 148.77 L 45.04 149.14 L 44.96 149.54 L 44.91 149.88 L 44.84 150.22 L 44.72 150.63 L 44.57 151.08 L 44.42 151.52 L 44.30 151.91 L 44.17 152.30 L 44.04 152.68 L 43.90 153.10 L 43.72 153.55 L 43.58 153.93 L 43.40 154.35 L 43.21 154.77 L 43.02 155.21 L 42.82 155.64 L 42.61 156.08 L 42.40 156.51 L 42.19 156.94 L 41.98 157.37 L 41.77 157.80 L 41.56 158.23 L 41.35 158.66 L 41.14 159.09 L 40.93 159.52 L 40.72 159.95 L 40.51 160.38 L 40.30 160.81 L 40.09 161.24 L 39.88 161.67 L 39.65 162.09 L 39.43 162.51 L 39.20 162.94 L 38.95 163.38 L 38.72 163.80 L 38.49 164.22 L 38.25 164.63 L 38.03 165.05 L 37.79 165.47 L 37.55 165.92 L 37.31 166.33 L 37.07 166.74 L 36.83 167.15 L 36.56 167.57 L 36.29 167.98 L 36.01 168.36 L 35.74 168.70 L 35.45 169.06 L 35.13 169.45 L 34.79 169.82 L 34.46 170.20 L 34.16 170.59 L 33.89 170.93 L 33.59 171.28 L 33.28 171.64 L 32.95 172.02 L 32.67 172.37 L 32.37 172.71 L 32.03 173.08 L 31.68 173.45 L 31.35 173.80 L 31.05 174.11 L 30.69 174.47 L 30.34 174.79 L 30.00 175.08 L 29.66 175.36 L 29.30 175.63 L 28.93 175.89 L 28.60 176.07 L 28.31 176.18 L 28.07 176.23 L 27.75 176.38 L 27.42 176.54 L 27.03 176.79 L 26.68 177.01 L 26.37 177.19 L 26.02 177.40 L 25.66 177.67 L 25.38 177.87" fill="none" stroke="#000000" stroke-width="0.5" stroke-linejoin="round" stroke-linecap="round"/>
</svg>