<?xml version="1.0" encoding="UTF-8"?>
<svg xmlns="http://www.w3.org/2000/svg" viewBox="20.58 140.00 37.17 42.50">
<path d="M 49.00 145.00 L 49.01 145.83 L 48.83 146.51 L 48.70 147.23 L 48.64 148.01 L 48.64 148.79 L 48.70 149.55 L 48.88 150.22 L 49.48 150.39 L 50.20 150.48 L 50.96 150.60 L 51.64 150.79 L 52.23 151.00 L 52.69 151.18 L 52.75 151.72 L 52.58 152.38 L 52.26 153.03 L 51.83 153.62 L 51.32 154.17 L 50.78 154.67 L 50.24 155.18 L 49.70 155.70 L 49.22 156.23 L 48.80 156.82 L 48.46 157.50 L 48.26 158.19 L 48.24 158.86 L 48.66 159.15 L 49.24 159.42 L 49.87 159.72 L 50.53 160.05 L 51.11 160.47 L 51.61 160.97 L 51.95 161.70 L 52.23 162.24 L 52.37 162.66 L 52.27 163.06 L 52.04 163.34 L 51.94 163.10 L 51.82 162.53 L 51.54 161.85 L 51.02 161.39 L 50.38 161.08 L 49.85 160.64 L 49.36 160.33 L 48.94 160.17 L 48.41 160.43 L 47.94 160.88 L 47.58 161.44 L 47.34 162.08 L 47.20 162.80 L 47.07 163.52 L 46.94 164.24 L 46.79 164.98 L 46.59 165.71 L 46.38 166.37 L 46.09 167.03 L 45.72 167.67 L 45.29 168.28 L 44.77 168.81 L 44.19 169.27 L 43.55 169.63 L 42.86 169.92 L 42.17 170.09 L 41.45 170.20 L 40.71 170.23 L 40.00 170.15 L 39.27 170.05 L 38.51 169.93 L 37.87 169.63 L 37.28 169.28 L 36.77 168.86 L 36.43 168.24 L 36.20 167.52 L 36.09 166.73 L 35.99 166.01 L 35.72 165.60 L 35.02 165.87 L 34.33 166.16 L 33.66 166.49 L 33.03 166.91 L 32.50 167.34 L 32.04 167.82 L 31.60 168.41 L 31.22 169.03 L 30.91 169.69 L 30.65 170.37 L 30.39 171.06 L 30.11 171.74 L 29.80 172.43 L 29.45 173.08 L 29.07 173.72 L 28.64 174.33 L 28.17 174.91 L 27.66 175.46 L 27.14 175.97 L 26.62 176.47 L 26.10 176.98 L 25.58 177.50" fill="none" stroke="#000000" stroke-width="0.5" stroke-linejoin="round" stroke-linecap="round"/>
</svg>