<?xml version="1.0" encoding="UTF-8"?>
<svg xmlns="http://www.w3.org/2000/svg" viewBox="17.07 140.00 36.93 42.87">
<path d="M 49.00 145.00 L 48.58 145.59 L 48.20 146.21 L 47.83 146.84 L 47.53 147.49 L 47.29 148.17 L 47.08 148.88 L 46.98 149.45 L 46.83 149.91 L 46.53 150.41 L 46.23 150.70 L 46.19 150.41 L 46.08 149.96 L 45.73 149.63 L 45.27 149.32 L 44.75 149.14 L 44.17 149.09 L 43.53 149.17 L 42.87 149.38 L 42.24 149.63 L 41.64 149.92 L 41.02 150.32 L 40.47 150.74 L 39.96 151.20 L 39.48 151.74 L 39.04 152.32 L 38.66 152.94 L 38.34 153.57 L 38.06 154.22 L 37.81 154.90 L 37.62 155.58 L 37.44 156.28 L 37.34 156.95 L 37.27 157.63 L 37.21 158.31 L 37.21 158.88 L 37.16 159.46 L 37.02 160.12 L 36.80 160.84 L 36.55 161.55 L 36.30 162.23 L 36.06 162.92 L 35.88 163.62 L 35.77 164.30 L 35.76 164.88 L 35.77 165.48 L 35.73 166.17 L 35.69 166.85 L 35.62 167.51 L 35.53 168.20 L 35.42 168.93 L 35.31 169.70 L 35.34 170.30 L 35.39 170.90 L 35.47 171.52 L 35.60 172.17 L 35.74 172.84 L 35.99 173.40 L 36.28 173.92 L 36.70 174.30 L 37.09 174.53 L 37.46 174.70 L 37.63 175.03 L 37.42 175.73 L 37.10 176.35 L 36.64 176.88 L 36.05 177.35 L 35.55 177.59 L 35.04 177.71 L 34.47 177.76 L 33.94 177.65 L 33.31 177.62 L 32.61 177.66 L 32.02 177.54 L 31.46 177.41 L 30.91 177.28 L 30.35 177.15 L 29.71 177.11 L 28.97 177.23 L 28.42 177.10 L 27.88 176.98 L 27.33 176.88 L 26.63 176.92 L 25.95 176.95 L 25.30 176.95 L 24.73 176.81 L 24.15 176.66 L 23.58 176.49 L 23.16 176.11 L 22.75 175.93 L 22.39 175.96 L 22.07 176.21 L 22.09 176.28 L 22.21 176.50 L 22.40 176.89 L 22.80 177.26 L 23.34 177.47 L 23.81 177.65 L 24.14 177.87" fill="none" stroke="#000000" stroke-width="0.5" stroke-linejoin="round" stroke-linecap="round"/>
</svg>