<?xml version="1.0" encoding="UTF-8"?>
<svg xmlns="http://www.w3.org/2000/svg" viewBox="13.05 140.00 42.88 42.40">
<path d="M 49.00 145.00 L 49.57 145.43 L 49.90 145.55 L 50.30 145.71 L 50.48 146.27 L 50.67 146.79 L 50.85 147.26 L 50.93 147.75 L 50.88 148.26 L 50.66 148.88 L 50.31 149.57 L 49.91 150.17 L 49.43 150.74 L 48.88 151.28 L 48.34 151.77 L 47.81 152.23 L 47.27 152.67 L 46.66 153.12 L 46.04 153.51 L 45.44 153.88 L 44.90 154.15 L 44.35 154.40 L 43.75 154.69 L 43.08 155.03 L 42.47 155.31 L 41.87 155.53 L 41.27 155.74 L 40.68 155.89 L 40.15 155.92 L 39.55 156.03 L 38.93 156.12 L 38.36 156.11 L 37.84 156.05 L 37.39 155.85 L 37.01 155.56 L 36.52 155.47 L 36.01 155.48 L 35.52 155.53 L 34.85 155.87 L 34.18 156.23 L 33.51 156.62 L 32.95 156.87 L 32.38 157.12 L 31.80 157.34 L 31.19 157.56 L 30.58 157.77 L 29.98 157.98 L 29.36 158.19 L 28.74 158.39 L 28.11 158.59 L 27.56 158.68 L 27.03 158.70 L 26.40 158.88 L 25.80 159.00 L 25.33 158.96 L 24.71 159.16 L 24.08 159.36 L 23.46 159.56 L 22.85 159.77 L 22.25 159.98 L 21.65 160.20 L 21.07 160.44 L 20.51 160.69 L 19.91 161.04 L 19.35 161.47 L 18.84 161.99 L 18.44 162.58 L 18.18 163.16 L 18.05 163.74 L 18.29 163.98 L 18.68 164.17 L 19.18 164.29 L 19.58 164.59 L 19.98 164.90 L 20.38 165.20 L 20.92 165.30 L 21.33 165.55 L 21.65 165.90 L 21.80 166.44 L 21.89 167.05 L 21.91 167.74 L 21.91 168.41 L 21.99 168.97 L 22.11 169.49 L 22.12 170.17 L 22.19 170.81 L 22.35 171.35 L 22.53 171.85 L 22.75 172.32 L 22.98 172.81 L 23.15 173.37 L 23.35 173.89 L 23.57 174.38 L 23.74 174.94 L 23.94 175.47 L 24.17 175.94 L 24.40 176.42 L 24.52 176.94 L 24.60 177.40" fill="none" stroke="#000000" stroke-width="0.5" stroke-linejoin="round" stroke-linecap="round"/>
</svg>