<?xml version="1.0" encoding="UTF-8"?>
<svg xmlns="http://www.w3.org/2000/svg" viewBox="20.04 140.00 33.96 42.49">
<path d="M 49.00 145.00 L 48.71 145.38 L 48.40 145.75 L 48.08 146.10 L 47.75 146.43 L 47.43 146.76 L 47.14 147.11 L 46.85 147.47 L 46.59 147.83 L 46.35 148.21 L 46.16 148.64 L 45.98 149.10 L 45.78 149.53 L 45.63 149.88 L 45.44 150.31 L 45.24 150.75 L 45.05 151.21 L 44.85 151.60 L 44.65 152.02 L 44.45 152.45 L 44.25 152.90 L 44.07 153.32 L 43.89 153.74 L 43.69 154.18 L 43.48 154.59 L 43.27 154.98 L 43.04 155.39 L 42.84 155.80 L 42.62 156.20 L 42.38 156.56 L 42.12 156.95 L 41.87 157.34 L 41.63 157.74 L 41.35 158.13 L 41.06 158.51 L 40.77 158.88 L 40.48 159.27 L 40.17 159.62 L 39.82 159.96 L 39.49 160.29 L 39.19 160.57 L 38.88 160.86 L 38.51 161.18 L 38.12 161.48 L 37.75 161.78 L 37.41 162.04 L 37.04 162.28 L 36.65 162.56 L 36.27 162.78 L 35.89 163.02 L 35.49 163.32 L 35.15 163.59 L 34.84 163.87 L 34.50 164.21 L 34.14 164.54 L 33.79 164.87 L 33.47 165.21 L 33.17 165.56 L 32.85 165.89 L 32.49 166.22 L 32.10 166.51 L 31.70 166.76 L 31.41 166.80 L 31.33 166.42 L 31.20 166.00 L 31.02 165.56 L 30.72 165.29 L 30.35 165.15 L 29.93 165.13 L 29.43 165.26 L 28.98 165.43 L 28.58 165.63 L 28.21 165.89 L 27.85 166.22 L 27.54 166.57 L 27.28 166.95 L 27.08 167.38 L 26.88 167.81 L 26.75 168.22 L 26.66 168.66 L 26.54 169.15 L 26.47 169.60 L 26.40 170.04 L 26.32 170.51 L 26.24 171.00 L 26.18 171.47 L 26.13 171.89 L 26.04 172.37 L 25.95 172.85 L 25.86 173.32 L 25.76 173.79 L 25.67 174.26 L 25.58 174.74 L 25.49 175.22 L 25.44 175.66 L 25.37 176.11 L 25.28 176.58 L 25.18 177.05 L 25.04 177.49" fill="none" stroke="#000000" stroke-width="0.5" stroke-linejoin="round" stroke-linecap="round"/>
</svg>