<?xml version="1.0" encoding="UTF-8"?>
<svg xmlns="http://www.w3.org/2000/svg" viewBox="20.12 140.00 33.88 42.57">
<path d="M 49.00 145.00 L 48.75 145.38 L 48.48 145.73 L 48.20 146.08 L 47.93 146.43 L 47.67 146.77 L 47.39 147.12 L 47.08 147.45 L 46.79 147.80 L 46.52 148.13 L 46.23 148.44 L 45.92 148.77 L 45.59 149.07 L 45.28 149.38 L 44.99 149.71 L 44.70 150.03 L 44.40 150.37 L 44.14 150.74 L 43.91 151.12 L 43.71 151.53 L 43.54 151.94 L 43.40 152.35 L 43.28 152.78 L 43.20 153.23 L 43.15 153.68 L 43.14 154.12 L 43.13 154.56 L 43.17 154.97 L 43.20 155.39 L 43.20 155.88 L 43.22 156.33 L 43.24 156.78 L 43.28 157.18 L 43.30 157.62 L 43.28 158.08 L 43.26 158.51 L 43.19 158.93 L 43.09 159.37 L 42.96 159.81 L 42.81 160.24 L 42.63 160.63 L 42.43 161.02 L 42.19 161.40 L 41.93 161.76 L 41.64 162.10 L 41.34 162.42 L 41.06 162.74 L 40.77 163.05 L 40.49 163.40 L 40.24 163.77 L 40.02 164.17 L 39.87 164.58 L 39.75 165.01 L 39.64 165.44 L 39.56 165.84 L 39.52 166.18 L 39.40 166.62 L 39.26 167.06 L 39.09 167.46 L 38.86 167.82 L 38.62 168.20 L 38.35 168.55 L 38.04 168.86 L 37.69 169.16 L 37.35 169.40 L 37.01 169.63 L 36.65 169.87 L 36.25 170.11 L 35.84 170.35 L 35.47 170.56 L 35.11 170.78 L 34.74 171.01 L 34.35 171.25 L 33.96 171.51 L 33.59 171.75 L 33.20 171.99 L 32.81 172.24 L 32.45 172.42 L 32.08 172.59 L 31.64 172.81 L 31.22 172.98 L 30.85 173.12 L 30.48 173.27 L 30.09 173.44 L 29.66 173.67 L 29.24 173.88 L 28.83 174.08 L 28.44 174.27 L 28.05 174.45 L 27.69 174.60 L 27.31 174.81 L 26.94 175.07 L 26.60 175.36 L 26.29 175.68 L 26.01 176.03 L 25.76 176.40 L 25.54 176.80 L 25.32 177.19 L 25.12 177.57" fill="none" stroke="#000000" stroke-width="0.5" stroke-linejoin="round" stroke-linecap="round"/>
</svg>