<?xml version="1.0" encoding="UTF-8"?>
<svg xmlns="http://www.w3.org/2000/svg" viewBox="19.71 140.00 34.29 42.74">
<path d="M 49.00 145.00 L 48.61 145.02 L 48.29 145.19 L 47.94 145.37 L 47.62 145.47 L 47.31 145.56 L 46.93 145.77 L 46.56 145.98 L 46.18 146.23 L 45.78 146.53 L 45.36 146.86 L 44.97 147.16 L 44.62 147.40 L 44.24 147.67 L 43.84 147.97 L 43.46 148.24 L 43.10 148.48 L 42.71 148.79 L 42.31 149.08 L 41.93 149.37 L 41.53 149.68 L 41.17 149.97 L 40.78 150.28 L 40.38 150.60 L 39.97 150.95 L 39.64 151.20 L 39.25 151.51 L 38.85 151.85 L 38.47 152.17 L 38.11 152.47 L 37.72 152.82 L 37.32 153.19 L 36.93 153.54 L 36.57 153.88 L 36.20 154.25 L 35.83 154.63 L 35.46 155.02 L 35.08 155.44 L 34.71 155.86 L 34.36 156.27 L 34.02 156.69 L 33.67 157.12 L 33.32 157.56 L 32.98 158.00 L 32.65 158.45 L 32.33 158.90 L 32.03 159.37 L 31.74 159.85 L 31.47 160.33 L 31.23 160.79 L 31.01 161.25 L 30.80 161.72 L 30.61 162.20 L 30.42 162.69 L 30.28 163.12 L 30.17 163.54 L 30.05 163.95 L 29.93 164.36 L 29.78 164.80 L 29.60 165.29 L 29.40 165.82 L 29.28 166.23 L 29.35 166.37 L 29.60 166.22 L 29.94 165.93 L 30.33 165.56 L 30.73 165.16 L 31.13 164.77 L 31.48 164.43 L 31.32 164.81 L 31.17 165.22 L 31.02 165.65 L 30.86 166.14 L 30.69 166.59 L 30.54 167.01 L 30.34 167.46 L 30.11 167.94 L 29.85 168.43 L 29.57 168.91 L 29.28 169.38 L 28.98 169.85 L 28.68 170.32 L 28.36 170.78 L 28.05 171.24 L 27.74 171.70 L 27.43 172.16 L 27.11 172.62 L 26.80 173.08 L 26.50 173.54 L 26.20 174.01 L 25.91 174.49 L 25.63 174.98 L 25.38 175.45 L 25.15 175.91 L 24.96 176.39 L 24.78 176.89 L 24.71 177.29 L 24.72 177.55 L 24.77 177.74" fill="none" stroke="#000000" stroke-width="0.5" stroke-linejoin="round" stroke-linecap="round"/>
</svg>