<?xml version="1.0" encoding="UTF-8"?>
<svg xmlns="http://www.w3.org/2000/svg" viewBox="18.52 140.00 54.99 41.49">
<path d="M 49.00 145.00 L 50.62 145.57 L 51.44 145.85 L 52.14 146.56 L 53.10 147.18 L 54.10 147.75 L 54.46 148.97 L 55.05 149.66 L 55.84 150.10 L 55.71 151.81 L 55.78 153.26 L 56.42 153.93 L 57.22 154.40 L 58.20 154.86 L 59.27 155.37 L 60.34 155.89 L 61.41 156.38 L 62.63 156.66 L 63.85 156.95 L 65.07 157.24 L 66.17 157.69 L 67.22 158.23 L 67.97 158.64 L 68.41 158.94 L 68.51 159.15 L 68.03 159.61 L 67.26 159.89 L 66.20 160.00 L 65.24 159.42 L 64.28 158.81 L 63.08 158.53 L 61.97 158.12 L 60.89 157.66 L 59.55 157.56 L 58.35 157.26 L 57.48 156.50 L 56.51 155.89 L 55.55 155.34 L 54.41 155.12 L 53.36 154.77 L 51.97 154.88 L 50.94 154.51 L 50.36 153.52 L 49.61 152.76 L 48.84 151.92 L 48.33 150.98 L 47.92 150.31 L 47.61 149.88 L 46.70 150.64 L 45.75 151.86 L 44.90 153.33 L 44.28 154.92 L 43.78 156.55 L 43.34 158.24 L 43.13 159.78 L 43.36 160.85 L 43.75 161.84 L 44.88 161.89 L 45.98 161.99 L 46.12 163.05 L 45.71 164.37 L 45.01 165.61 L 44.20 166.58 L 44.74 165.67 L 45.18 164.90 L 45.34 164.47 L 44.69 165.30 L 43.96 166.45 L 43.21 167.79 L 42.34 169.32 L 41.31 170.70 L 40.07 171.90 L 38.75 172.81 L 37.37 173.60 L 36.71 173.72 L 36.12 174.07 L 35.66 174.59 L 35.86 174.29 L 36.14 173.91 L 36.13 173.92 L 35.08 175.25 L 34.39 175.65 L 33.73 175.65 L 33.13 175.08 L 33.09 173.54 L 33.25 171.67 L 32.50 171.09 L 31.83 170.48 L 30.89 170.18 L 29.55 170.30 L 28.09 170.68 L 26.63 171.13 L 25.39 171.74 L 24.41 172.54 L 23.66 173.51 L 23.52 174.11 L 23.67 174.78 L 23.92 175.52 L 24.15 176.49" fill="none" stroke="#000000" stroke-width="0.5" stroke-linejoin="round" stroke-linecap="round"/>
</svg>