<?xml version="1.0" encoding="UTF-8"?>
<svg xmlns="http://www.w3.org/2000/svg" viewBox="20.27 140.00 33.73 42.29">
<path d="M 49.00 145.00 L 48.50 145.04 L 48.16 145.20 L 47.77 145.36 L 47.29 145.58 L 46.78 145.84 L 46.33 146.01 L 46.01 146.00 L 45.64 146.07 L 45.24 146.18 L 44.83 146.29 L 44.36 146.49 L 43.89 146.72 L 43.43 146.96 L 42.96 147.23 L 42.46 147.55 L 41.93 147.93 L 41.40 148.32 L 40.88 148.71 L 40.37 149.11 L 39.87 149.51 L 39.39 149.92 L 38.83 150.45 L 38.29 150.98 L 37.77 151.53 L 37.29 152.11 L 36.82 152.74 L 36.39 153.40 L 36.03 154.05 L 35.81 154.61 L 35.69 155.12 L 35.71 155.49 L 35.76 155.88 L 35.84 156.24 L 36.05 156.43 L 36.17 156.75 L 36.25 157.12 L 36.44 157.30 L 36.47 157.72 L 36.38 158.28 L 36.30 158.85 L 36.35 159.22 L 36.54 159.40 L 36.79 159.49 L 37.23 159.30 L 37.71 159.05 L 38.26 158.68 L 38.81 158.31 L 39.36 157.95 L 39.75 157.82 L 40.14 157.70 L 40.48 157.65 L 40.65 157.81 L 41.07 157.61 L 41.63 157.23 L 42.25 156.75 L 42.63 156.57 L 42.89 156.54 L 43.34 156.16 L 43.55 156.06 L 43.21 156.60 L 42.76 157.20 L 42.32 157.68 L 41.86 158.12 L 41.37 158.53 L 40.82 159.00 L 40.26 159.49 L 39.76 159.90 L 39.27 160.31 L 38.76 160.72 L 38.18 161.23 L 37.69 161.63 L 37.22 162.01 L 36.73 162.42 L 36.16 162.94 L 35.60 163.45 L 35.12 163.87 L 34.62 164.36 L 34.10 164.90 L 33.58 165.45 L 33.04 166.02 L 32.50 166.62 L 32.01 167.19 L 31.52 167.76 L 31.03 168.34 L 30.52 168.96 L 30.02 169.58 L 29.53 170.22 L 29.04 170.86 L 28.57 171.50 L 28.11 172.16 L 27.66 172.82 L 27.24 173.48 L 26.87 174.12 L 26.52 174.77 L 26.19 175.43 L 25.88 176.09 L 25.62 176.64 L 25.27 177.29" fill="none" stroke="#000000" stroke-width="0.5" stroke-linejoin="round" stroke-linecap="round"/>
</svg>