<?xml version="1.0" encoding="UTF-8"?>
<svg xmlns="http://www.w3.org/2000/svg" viewBox="20.56 140.00 36.60 42.79">
<path d="M 49.00 145.00 L 49.41 145.59 L 49.66 145.85 L 50.14 145.90 L 50.58 146.13 L 51.01 146.36 L 51.26 146.80 L 51.54 147.21 L 51.74 147.70 L 51.84 148.24 L 52.07 148.53 L 52.16 149.00 L 52.14 149.60 L 52.12 150.14 L 52.06 150.62 L 52.01 151.07 L 51.89 151.62 L 51.76 152.18 L 51.66 152.70 L 51.56 153.21 L 51.48 153.74 L 51.40 154.17 L 51.24 154.59 L 51.00 155.00 L 50.79 155.38 L 50.57 155.74 L 50.32 156.10 L 50.02 156.47 L 49.72 156.85 L 49.39 157.23 L 49.02 157.60 L 48.70 157.72 L 48.63 157.38 L 48.47 157.08 L 48.21 156.86 L 47.64 157.04 L 47.11 157.25 L 46.65 157.50 L 46.27 157.77 L 45.89 158.06 L 45.45 158.40 L 45.01 158.73 L 44.58 159.04 L 44.17 159.26 L 43.71 159.45 L 43.22 159.62 L 42.75 159.69 L 42.28 159.86 L 41.81 160.11 L 41.45 160.23 L 41.00 160.53 L 40.60 160.88 L 40.25 161.15 L 39.89 161.50 L 39.50 161.87 L 39.12 162.20 L 38.78 162.55 L 38.39 162.92 L 37.95 163.25 L 37.55 163.61 L 37.22 163.88 L 36.96 163.96 L 36.53 164.30 L 36.15 164.58 L 35.85 164.79 L 35.51 165.14 L 35.15 165.54 L 34.82 165.94 L 34.52 166.36 L 34.21 166.74 L 33.87 167.11 L 33.53 167.48 L 33.22 167.84 L 32.86 168.21 L 32.51 168.60 L 32.18 169.01 L 31.91 169.46 L 31.67 169.94 L 31.46 170.44 L 31.28 170.92 L 31.06 171.37 L 30.83 171.81 L 30.59 172.25 L 30.34 172.66 L 30.05 173.06 L 29.71 173.47 L 29.34 173.85 L 28.95 174.22 L 28.59 174.60 L 28.23 174.97 L 27.92 175.28 L 27.59 175.66 L 27.23 176.05 L 26.92 176.47 L 26.63 176.91 L 26.32 177.24 L 25.96 177.59 L 25.70 177.77 L 25.56 177.79" fill="none" stroke="#000000" stroke-width="0.5" stroke-linejoin="round" stroke-linecap="round"/>
</svg>