<?xml version="1.0" encoding="UTF-8"?>
<svg xmlns="http://www.w3.org/2000/svg" viewBox="20.73 140.00 38.51 42.89">
<path d="M 49.00 145.00 L 49.82 145.39 L 50.29 145.51 L 50.82 145.69 L 51.32 146.09 L 51.81 146.50 L 52.31 146.90 L 52.80 147.30 L 53.26 147.68 L 53.68 148.02 L 53.85 148.57 L 53.92 149.15 L 53.82 149.85 L 53.67 150.50 L 53.47 151.13 L 53.22 151.71 L 52.96 152.29 L 52.69 152.87 L 52.42 153.47 L 52.20 154.08 L 52.02 154.72 L 51.84 155.36 L 52.05 155.48 L 52.17 155.67 L 51.95 156.28 L 51.70 156.89 L 51.37 157.45 L 50.97 157.95 L 50.53 158.43 L 50.11 158.89 L 49.73 159.38 L 49.42 159.94 L 49.19 160.55 L 49.11 161.11 L 49.38 161.35 L 49.87 161.41 L 50.48 161.43 L 51.14 161.38 L 51.79 161.32 L 52.45 161.23 L 53.14 161.09 L 53.72 161.03 L 54.23 161.00 L 54.24 161.58 L 54.15 162.22 L 53.97 162.86 L 53.72 163.45 L 53.41 164.01 L 53.06 164.55 L 52.66 165.05 L 52.23 165.54 L 51.79 166.01 L 51.37 166.45 L 50.93 166.90 L 50.45 167.35 L 49.93 167.76 L 49.41 168.14 L 48.87 168.48 L 48.32 168.72 L 47.71 168.91 L 47.05 169.07 L 46.46 169.05 L 45.86 168.99 L 45.21 168.93 L 44.70 168.77 L 44.23 168.64 L 43.80 168.54 L 43.13 168.85 L 42.52 169.17 L 41.97 169.51 L 41.46 169.88 L 40.91 170.22 L 40.34 170.55 L 39.75 170.87 L 39.18 171.13 L 38.62 171.36 L 38.08 171.61 L 37.56 171.88 L 37.02 172.19 L 36.45 172.58 L 35.92 172.97 L 35.44 173.36 L 34.95 173.75 L 34.42 174.12 L 33.84 174.50 L 33.31 174.77 L 32.77 175.03 L 32.19 175.29 L 31.59 175.50 L 31.00 175.71 L 30.43 175.93 L 29.83 176.17 L 29.21 176.44 L 28.59 176.72 L 28.01 176.94 L 27.43 177.15 L 26.84 177.36 L 26.26 177.62 L 25.73 177.89" fill="none" stroke="#000000" stroke-width="0.5" stroke-linejoin="round" stroke-linecap="round"/>
</svg>