<?xml version="1.0" encoding="UTF-8"?>
<svg xmlns="http://www.w3.org/2000/svg" viewBox="20.48 140.00 33.52 42.63">
<path d="M 49.00 145.00 L 48.59 145.42 L 48.21 145.87 L 47.82 146.31 L 47.43 146.75 L 47.04 147.19 L 46.65 147.63 L 46.26 148.06 L 45.86 148.50 L 45.47 148.94 L 45.08 149.38 L 44.69 149.82 L 44.30 150.25 L 43.90 150.69 L 43.51 151.13 L 43.12 151.57 L 42.73 152.01 L 42.34 152.44 L 41.95 152.88 L 41.55 153.32 L 41.16 153.76 L 40.77 154.19 L 40.38 154.63 L 39.99 155.07 L 39.59 155.51 L 39.20 155.95 L 38.81 156.38 L 38.42 156.82 L 38.04 157.27 L 37.71 157.75 L 37.45 158.29 L 37.27 158.86 L 37.27 159.33 L 37.61 159.42 L 38.04 159.53 L 38.56 159.62 L 39.27 159.52 L 39.84 159.60 L 40.38 159.73 L 40.90 159.87 L 41.40 160.08 L 41.83 160.40 L 42.05 160.95 L 42.23 161.47 L 42.31 161.92 L 42.26 162.38 L 42.06 162.91 L 41.86 163.37 L 41.61 163.89 L 41.38 164.44 L 41.21 165.00 L 41.33 165.35 L 41.63 165.64 L 41.90 166.12 L 42.20 166.62 L 42.59 166.97 L 42.86 167.45 L 43.06 167.91 L 43.08 168.49 L 43.07 169.04 L 43.00 169.65 L 42.86 170.27 L 42.83 170.70 L 42.71 171.15 L 42.51 171.68 L 42.30 172.21 L 41.98 172.69 L 41.56 173.11 L 41.07 173.47 L 40.62 173.61 L 40.14 173.72 L 39.61 173.80 L 39.04 173.84 L 38.42 173.98 L 37.89 174.02 L 37.44 174.03 L 36.90 174.25 L 36.40 174.50 L 35.90 174.82 L 35.41 175.18 L 34.91 175.54 L 34.42 175.90 L 33.96 176.18 L 33.45 176.42 L 32.90 176.64 L 32.34 176.82 L 31.82 176.90 L 31.25 177.02 L 30.63 177.15 L 30.04 177.19 L 29.45 177.21 L 28.93 177.16 L 28.43 177.04 L 27.89 176.94 L 27.24 177.08 L 26.81 177.03 L 26.49 176.95 L 25.98 177.26 L 25.48 177.63" fill="none" stroke="#000000" stroke-width="0.5" stroke-linejoin="round" stroke-linecap="round"/>
</svg>