<?xml version="1.0" encoding="UTF-8"?>
<svg xmlns="http://www.w3.org/2000/svg" viewBox="19.28 140.00 34.72 42.21">
<path d="M 49.00 145.00 L 48.58 145.49 L 48.25 146.05 L 47.88 146.60 L 47.61 146.92 L 47.31 147.35 L 47.03 147.89 L 46.79 148.46 L 46.52 148.98 L 46.24 149.45 L 46.06 149.83 L 45.81 150.42 L 45.60 151.07 L 45.40 151.72 L 45.13 152.31 L 44.96 152.70 L 44.75 153.21 L 44.49 153.83 L 44.21 154.48 L 43.90 155.11 L 43.60 155.74 L 43.37 156.37 L 43.24 156.97 L 43.16 157.62 L 43.15 158.32 L 43.21 159.06 L 43.36 159.70 L 43.62 160.20 L 43.86 160.69 L 44.04 161.22 L 44.03 161.92 L 43.93 162.65 L 43.72 163.31 L 43.39 163.89 L 42.94 164.39 L 42.44 164.75 L 41.91 164.97 L 41.45 164.93 L 41.04 164.63 L 40.83 163.96 L 40.60 163.28 L 40.38 162.61 L 40.18 161.98 L 39.90 161.46 L 39.72 160.81 L 39.63 160.04 L 39.49 159.37 L 39.35 158.75 L 39.24 158.10 L 39.13 157.40 L 39.05 156.66 L 38.90 155.98 L 38.75 155.32 L 38.60 154.70 L 38.20 154.53 L 37.67 154.63 L 37.02 154.94 L 36.36 155.30 L 35.74 155.68 L 35.23 156.03 L 34.80 156.36 L 34.37 156.77 L 33.93 157.30 L 33.59 157.88 L 33.35 158.48 L 33.14 159.03 L 32.88 159.55 L 32.59 160.03 L 32.28 160.49 L 31.90 160.97 L 31.46 161.46 L 30.93 161.92 L 30.43 162.39 L 29.97 162.85 L 29.57 163.25 L 29.11 163.71 L 28.62 164.19 L 28.12 164.66 L 27.65 165.16 L 27.17 165.67 L 26.72 166.19 L 26.32 166.73 L 25.99 167.28 L 25.70 167.89 L 25.47 168.50 L 25.28 169.06 L 25.19 169.55 L 25.08 170.10 L 24.89 170.82 L 24.70 171.53 L 24.52 172.16 L 24.46 172.63 L 24.35 173.31 L 24.28 174.05 L 24.29 174.77 L 24.37 175.40 L 24.50 176.01 L 24.58 176.64 L 24.62 177.21" fill="none" stroke="#000000" stroke-width="0.5" stroke-linejoin="round" stroke-linecap="round"/>
</svg>