<?xml version="1.0" encoding="UTF-8"?>
<svg xmlns="http://www.w3.org/2000/svg" viewBox="18.10 140.00 35.96 42.36">
<path d="M 49.00 145.00 L 49.06 145.57 L 48.94 146.05 L 48.84 146.55 L 48.77 147.07 L 48.70 147.59 L 48.62 148.11 L 48.54 148.63 L 48.45 149.14 L 48.35 149.63 L 48.23 150.12 L 48.04 150.59 L 47.76 151.03 L 47.40 151.40 L 47.01 151.64 L 46.58 151.77 L 46.21 151.68 L 45.81 151.49 L 45.38 151.28 L 44.87 151.18 L 44.37 151.11 L 43.86 151.04 L 43.28 151.07 L 42.73 151.07 L 42.34 150.88 L 41.94 150.70 L 41.46 150.59 L 40.85 150.67 L 40.45 150.51 L 40.01 150.45 L 39.50 150.52 L 38.96 150.62 L 38.42 150.75 L 37.89 150.89 L 37.44 150.95 L 37.01 151.14 L 36.62 151.37 L 36.24 151.62 L 35.88 151.88 L 35.50 152.24 L 35.17 152.59 L 34.86 152.96 L 34.50 153.33 L 34.11 153.69 L 33.69 154.02 L 33.28 154.36 L 32.96 154.59 L 32.76 154.75 L 32.41 155.11 L 32.04 155.46 L 31.71 155.79 L 31.42 156.19 L 31.13 156.61 L 30.82 157.02 L 30.47 157.41 L 30.14 157.80 L 29.82 158.21 L 29.50 158.62 L 29.17 159.01 L 28.82 159.40 L 28.50 159.80 L 28.18 160.21 L 27.86 160.61 L 27.53 161.02 L 27.23 161.43 L 26.94 161.86 L 26.68 162.31 L 26.44 162.77 L 26.21 163.25 L 26.03 163.72 L 25.89 164.20 L 25.76 164.73 L 25.68 165.25 L 25.65 165.70 L 25.61 166.18 L 25.57 166.70 L 25.52 167.23 L 25.45 167.76 L 25.37 168.27 L 25.27 168.77 L 25.14 169.25 L 24.96 169.71 L 24.74 170.19 L 24.51 170.66 L 24.25 171.12 L 23.99 171.56 L 23.72 172.00 L 23.48 172.47 L 23.30 172.97 L 23.16 173.51 L 23.10 174.02 L 23.17 174.45 L 23.32 174.85 L 23.53 175.28 L 23.72 175.80 L 23.96 176.27 L 24.21 176.72 L 24.47 177.02 L 24.64 177.36" fill="none" stroke="#000000" stroke-width="0.5" stroke-linejoin="round" stroke-linecap="round"/>
</svg>