<?xml version="1.0" encoding="UTF-8"?>
<svg xmlns="http://www.w3.org/2000/svg" viewBox="14.91 140.00 39.09 42.50">
<path d="M 49.00 145.00 L 48.52 145.32 L 48.17 145.70 L 47.83 146.10 L 47.48 146.53 L 47.15 146.97 L 46.85 147.45 L 46.60 147.95 L 46.34 148.45 L 46.09 148.93 L 45.88 149.38 L 45.64 149.88 L 45.40 150.39 L 45.16 150.89 L 44.89 151.37 L 44.61 151.85 L 44.33 152.34 L 44.05 152.82 L 43.74 153.29 L 43.43 153.75 L 43.12 154.21 L 42.78 154.65 L 42.43 155.09 L 42.07 155.53 L 41.70 155.93 L 41.30 156.32 L 40.89 156.71 L 40.47 157.08 L 40.06 157.46 L 39.66 157.84 L 39.24 158.21 L 38.83 158.60 L 38.42 158.99 L 38.02 159.38 L 37.61 159.77 L 37.16 160.12 L 36.70 160.45 L 36.22 160.77 L 35.75 160.95 L 35.21 161.15 L 34.67 161.30 L 34.18 161.30 L 33.64 161.34 L 33.05 161.39 L 32.50 161.35 L 31.95 161.29 L 31.38 161.23 L 30.84 161.08 L 30.33 160.89 L 29.82 160.67 L 29.37 160.36 L 28.93 160.03 L 28.42 159.79 L 27.90 159.60 L 27.39 159.42 L 26.90 159.25 L 26.36 159.18 L 25.78 159.21 L 25.22 159.29 L 24.67 159.41 L 24.15 159.55 L 23.63 159.77 L 23.13 160.03 L 22.67 160.32 L 22.25 160.68 L 21.85 161.08 L 21.49 161.50 L 21.17 161.96 L 20.89 162.45 L 20.65 162.97 L 20.44 163.50 L 20.27 163.99 L 20.14 164.51 L 20.03 165.09 L 19.94 165.68 L 19.93 166.17 L 19.92 166.70 L 19.91 167.29 L 19.95 167.86 L 20.01 168.40 L 20.07 168.95 L 20.16 169.50 L 20.26 170.04 L 20.36 170.61 L 20.48 171.19 L 20.61 171.74 L 20.82 172.21 L 21.01 172.73 L 21.19 173.29 L 21.44 173.78 L 21.69 174.28 L 21.95 174.78 L 22.22 175.28 L 22.55 175.73 L 22.90 176.17 L 23.28 176.57 L 23.71 176.92 L 24.07 177.23 L 24.37 177.50" fill="none" stroke="#000000" stroke-width="0.5" stroke-linejoin="round" stroke-linecap="round"/>
</svg>