<?xml version="1.0" encoding="UTF-8"?>
<svg xmlns="http://www.w3.org/2000/svg" viewBox="17.98 140.00 54.19 42.58">
<path d="M 49.00 145.00 L 47.27 145.44 L 46.26 145.83 L 45.19 146.09 L 43.81 146.59 L 42.54 146.91 L 41.33 147.21 L 40.10 147.81 L 39.08 148.57 L 38.17 149.62 L 37.45 150.86 L 37.82 151.02 L 38.50 151.17 L 39.47 151.32 L 40.68 151.27 L 41.83 151.19 L 42.80 151.34 L 44.08 151.01 L 45.65 150.25 L 46.81 150.02 L 48.08 149.57 L 49.43 149.05 L 50.82 148.56 L 52.22 148.09 L 53.41 147.96 L 53.92 148.83 L 54.63 149.46 L 55.33 150.17 L 55.90 151.09 L 56.48 152.01 L 57.06 152.93 L 57.64 153.85 L 58.36 154.57 L 59.21 155.11 L 60.03 155.71 L 60.60 156.63 L 61.09 157.67 L 61.74 158.48 L 62.61 159.00 L 63.24 159.84 L 63.90 160.66 L 64.72 161.25 L 65.30 162.15 L 65.98 162.86 L 66.80 163.35 L 67.12 164.45 L 67.09 165.92 L 67.17 167.04 L 67.00 168.22 L 66.27 169.73 L 65.26 171.22 L 64.23 172.32 L 63.68 172.35 L 63.75 171.21 L 63.66 169.97 L 63.48 168.65 L 63.23 167.40 L 62.45 166.84 L 61.84 166.03 L 61.27 165.12 L 60.69 164.20 L 59.93 163.52 L 59.21 162.81 L 58.63 161.88 L 57.83 161.25 L 57.14 160.49 L 56.55 159.58 L 55.68 159.06 L 54.73 158.63 L 53.65 158.40 L 52.75 157.93 L 51.93 157.37 L 51.09 156.87 L 49.99 156.77 L 48.74 156.94 L 47.52 157.13 L 46.15 157.58 L 44.79 158.09 L 43.47 158.62 L 42.18 159.18 L 40.79 159.86 L 39.24 160.71 L 37.84 161.39 L 36.70 161.69 L 35.59 161.94 L 34.14 162.59 L 32.93 163.09 L 31.83 163.67 L 30.71 164.56 L 29.42 165.87 L 28.21 167.27 L 27.13 168.71 L 26.12 170.25 L 25.15 171.84 L 24.28 173.50 L 23.51 175.21 L 22.98 176.79 L 23.16 177.42 L 23.66 177.58" fill="none" stroke="#000000" stroke-width="0.5" stroke-linejoin="round" stroke-linecap="round"/>
</svg>