<?xml version="1.0" encoding="UTF-8"?>
<svg xmlns="http://www.w3.org/2000/svg" viewBox="17.37 140.00 36.63 42.76">
<path d="M 49.00 145.00 L 48.46 145.03 L 48.09 145.21 L 47.66 145.41 L 47.20 145.58 L 46.74 145.78 L 46.29 145.99 L 45.91 146.13 L 45.48 146.34 L 45.00 146.60 L 44.56 146.83 L 44.13 147.05 L 43.72 147.26 L 43.28 147.49 L 42.85 147.73 L 42.43 147.98 L 42.01 148.25 L 41.60 148.55 L 41.18 148.86 L 40.78 149.17 L 40.39 149.49 L 40.01 149.83 L 39.65 150.17 L 39.28 150.53 L 38.91 150.89 L 38.55 151.27 L 38.20 151.65 L 37.87 152.01 L 37.53 152.39 L 37.18 152.78 L 36.85 153.17 L 36.54 153.59 L 36.25 154.01 L 35.97 154.44 L 35.70 154.87 L 35.43 155.31 L 35.16 155.74 L 34.90 156.18 L 34.64 156.63 L 34.37 157.07 L 34.12 157.52 L 33.87 157.97 L 33.66 158.44 L 33.47 158.92 L 33.33 159.40 L 33.22 159.89 L 33.15 160.38 L 33.17 160.81 L 33.20 161.27 L 33.23 161.77 L 33.33 162.11 L 33.41 162.41 L 33.37 162.78 L 33.20 163.27 L 32.99 163.75 L 32.74 164.21 L 32.46 164.64 L 32.19 165.07 L 31.94 165.52 L 31.72 165.99 L 31.49 166.45 L 31.26 166.87 L 30.97 167.27 L 30.63 167.65 L 30.30 167.93 L 29.94 168.14 L 29.55 168.28 L 29.09 168.44 L 28.64 168.56 L 28.20 168.67 L 27.72 168.83 L 27.28 168.95 L 26.84 169.06 L 26.38 169.20 L 25.91 169.35 L 25.45 169.52 L 25.04 169.65 L 24.64 169.82 L 24.23 170.08 L 23.84 170.39 L 23.49 170.75 L 23.19 171.16 L 22.95 171.61 L 22.76 172.09 L 22.62 172.55 L 22.54 172.98 L 22.47 173.44 L 22.39 173.98 L 22.37 174.49 L 22.39 174.98 L 22.54 175.33 L 22.73 175.67 L 22.94 176.02 L 23.17 176.38 L 23.35 176.82 L 23.54 177.23 L 23.84 177.50 L 24.15 177.66 L 24.44 177.76" fill="none" stroke="#000000" stroke-width="0.5" stroke-linejoin="round" stroke-linecap="round"/>
</svg>