<?xml version="1.0" encoding="UTF-8"?>
<svg xmlns="http://www.w3.org/2000/svg" viewBox="20.27 140.00 33.73 42.65">
<path d="M 49.00 145.00 L 48.59 145.25 L 48.44 145.37 L 48.29 145.45 L 48.13 145.57 L 47.84 145.82 L 47.55 146.13 L 47.30 146.49 L 47.02 146.79 L 46.74 147.11 L 46.45 147.46 L 46.17 147.80 L 45.92 148.16 L 45.66 148.52 L 45.41 148.89 L 45.16 149.25 L 44.90 149.60 L 44.62 149.95 L 44.34 150.29 L 44.07 150.61 L 43.81 150.93 L 43.51 151.27 L 43.20 151.59 L 42.91 151.92 L 42.65 152.25 L 42.40 152.60 L 42.14 152.96 L 41.86 153.29 L 41.62 153.62 L 41.38 153.98 L 41.17 154.35 L 40.94 154.72 L 40.70 155.07 L 40.48 155.41 L 40.23 155.77 L 40.03 156.17 L 39.82 156.54 L 39.61 156.87 L 39.53 157.04 L 39.35 157.36 L 39.15 157.73 L 38.97 158.11 L 38.75 158.49 L 38.54 158.88 L 38.34 159.28 L 38.16 159.67 L 38.00 160.07 L 37.85 160.50 L 37.75 160.91 L 37.66 161.33 L 37.57 161.75 L 37.49 162.17 L 37.38 162.58 L 37.26 163.01 L 37.12 163.43 L 36.95 163.85 L 36.77 164.23 L 36.56 164.61 L 36.32 164.98 L 36.06 165.34 L 35.79 165.69 L 35.53 166.02 L 35.29 166.38 L 35.04 166.74 L 34.80 167.09 L 34.56 167.44 L 34.32 167.81 L 34.10 168.19 L 33.86 168.53 L 33.61 168.83 L 33.35 169.14 L 33.09 169.47 L 32.86 169.84 L 32.61 170.20 L 32.33 170.54 L 32.08 170.83 L 31.81 171.16 L 31.54 171.48 L 31.26 171.77 L 30.91 172.06 L 30.57 172.35 L 30.24 172.64 L 29.94 172.93 L 29.62 173.20 L 29.28 173.50 L 28.97 173.79 L 28.66 174.08 L 28.35 174.40 L 28.08 174.72 L 27.80 175.03 L 27.50 175.35 L 27.20 175.65 L 26.97 175.87 L 26.77 176.05 L 26.46 176.37 L 26.14 176.67 L 25.83 176.97 L 25.55 177.31 L 25.27 177.65" fill="none" stroke="#000000" stroke-width="0.5" stroke-linejoin="round" stroke-linecap="round"/>
</svg>