<?xml version="1.0" encoding="UTF-8"?>
<svg xmlns="http://www.w3.org/2000/svg" viewBox="20.23 140.00 33.92 42.55">
<path d="M 49.00 145.00 L 48.82 145.01 L 48.72 145.08 L 48.64 145.16 L 48.43 145.45 L 48.32 145.67 L 48.33 145.77 L 48.39 145.85 L 48.53 145.86 L 48.69 145.84 L 48.76 145.94 L 48.85 146.01 L 49.01 145.98 L 49.11 146.03 L 49.15 146.14 L 49.03 146.45 L 48.84 146.85 L 48.60 147.29 L 48.35 147.73 L 48.07 148.19 L 47.78 148.67 L 47.51 149.11 L 47.23 149.55 L 46.92 150.02 L 46.61 150.49 L 46.30 150.96 L 45.98 151.42 L 45.66 151.89 L 45.33 152.35 L 44.99 152.80 L 44.64 153.24 L 44.31 153.60 L 44.04 153.87 L 43.82 154.04 L 43.79 153.93 L 43.61 154.01 L 43.40 154.15 L 43.14 154.36 L 42.80 154.70 L 42.45 155.04 L 42.65 154.65 L 42.72 154.42 L 42.38 154.76 L 42.08 155.03 L 41.83 155.23 L 41.60 155.43 L 41.32 155.68 L 40.95 156.07 L 40.60 156.44 L 40.27 156.80 L 39.95 157.15 L 39.59 157.56 L 39.22 157.97 L 38.90 158.33 L 38.58 158.69 L 38.26 159.05 L 37.92 159.42 L 37.54 159.85 L 37.22 160.22 L 36.90 160.58 L 36.57 160.95 L 36.19 161.38 L 35.88 161.72 L 35.60 162.02 L 35.24 162.44 L 34.92 162.80 L 34.57 163.21 L 34.21 163.65 L 33.87 164.06 L 33.53 164.49 L 33.18 164.93 L 32.83 165.39 L 32.49 165.84 L 32.16 166.30 L 31.83 166.76 L 31.52 167.23 L 31.21 167.70 L 30.91 168.16 L 30.65 168.58 L 30.35 169.04 L 30.05 169.51 L 29.74 169.99 L 29.44 170.46 L 29.18 170.89 L 28.90 171.34 L 28.61 171.82 L 28.36 172.25 L 28.11 172.68 L 27.85 173.11 L 27.59 173.56 L 27.33 174.01 L 27.07 174.44 L 26.79 174.91 L 26.50 175.39 L 26.24 175.83 L 25.99 176.26 L 25.74 176.69 L 25.48 177.12 L 25.23 177.55" fill="none" stroke="#000000" stroke-width="0.5" stroke-linejoin="round" stroke-linecap="round"/>
</svg>