<?xml version="1.0" encoding="UTF-8"?>
<svg xmlns="http://www.w3.org/2000/svg" viewBox="13.18 140.00 40.96 42.10">
<path d="M 49.00 145.00 L 49.13 145.81 L 48.99 146.49 L 48.84 147.23 L 48.77 147.92 L 48.62 148.68 L 48.31 149.57 L 48.02 150.34 L 47.61 151.12 L 47.10 151.94 L 46.56 152.72 L 45.95 153.44 L 45.29 154.15 L 44.64 154.75 L 44.01 155.28 L 43.32 155.91 L 42.67 156.48 L 42.07 157.04 L 41.39 157.73 L 40.72 158.44 L 40.09 159.18 L 39.54 159.93 L 39.01 160.70 L 38.42 161.46 L 37.86 162.09 L 37.32 162.62 L 36.85 162.96 L 36.28 163.32 L 35.68 163.60 L 35.09 163.77 L 34.44 164.12 L 33.74 164.61 L 33.01 165.15 L 32.21 165.77 L 31.44 166.32 L 30.79 166.66 L 30.30 166.71 L 29.78 166.68 L 29.30 166.50 L 28.76 166.41 L 28.18 166.39 L 27.50 166.53 L 26.80 166.71 L 26.12 166.90 L 25.41 167.16 L 24.72 167.41 L 24.06 167.61 L 23.25 167.99 L 22.57 168.15 L 22.00 168.14 L 21.51 168.00 L 21.01 167.81 L 20.51 167.62 L 20.07 167.37 L 19.70 167.04 L 19.55 166.43 L 19.50 165.68 L 19.47 164.95 L 19.38 164.32 L 19.36 163.68 L 19.42 163.00 L 19.63 162.30 L 19.54 162.22 L 18.96 162.99 L 18.62 163.63 L 18.44 164.27 L 18.23 165.10 L 18.18 165.86 L 18.21 166.55 L 18.34 167.15 L 18.56 167.68 L 18.85 168.15 L 19.22 168.53 L 19.61 168.87 L 20.04 169.17 L 20.55 169.36 L 21.13 169.42 L 21.75 169.42 L 22.32 169.43 L 22.94 169.34 L 23.63 169.15 L 24.45 168.79 L 25.14 168.60 L 25.73 168.57 L 26.32 168.54 L 26.91 168.58 L 27.47 168.62 L 27.95 168.72 L 28.34 168.83 L 28.16 169.62 L 27.86 170.48 L 27.48 171.39 L 27.07 172.28 L 26.64 173.15 L 26.32 173.90 L 26.00 174.72 L 25.66 175.61 L 25.41 176.37 L 25.12 177.10" fill="none" stroke="#000000" stroke-width="0.5" stroke-linejoin="round" stroke-linecap="round"/>
</svg>