<?xml version="1.0" encoding="UTF-8"?>
<svg xmlns="http://www.w3.org/2000/svg" viewBox="20.90 140.00 35.86 42.32">
<path d="M 49.00 145.00 L 49.23 145.72 L 48.96 146.16 L 48.27 147.01 L 47.76 147.45 L 47.47 147.31 L 47.30 146.80 L 47.23 146.19 L 47.45 145.34 L 47.48 145.04 L 46.91 145.92 L 46.55 146.84 L 46.39 147.77 L 46.71 148.27 L 47.07 148.81 L 47.48 149.37 L 48.18 149.61 L 49.06 149.60 L 49.75 149.85 L 50.35 150.22 L 50.87 150.69 L 51.31 151.22 L 51.62 151.86 L 51.75 152.65 L 51.65 153.63 L 51.41 154.58 L 51.00 155.46 L 50.40 156.30 L 50.38 156.07 L 50.62 155.20 L 50.59 154.48 L 50.16 154.11 L 49.46 153.99 L 48.57 154.08 L 47.70 154.12 L 46.96 153.97 L 46.38 153.58 L 45.90 153.03 L 45.35 152.54 L 44.73 152.15 L 44.11 151.76 L 43.50 151.36 L 43.04 150.76 L 42.56 150.24 L 42.01 149.91 L 41.40 149.71 L 40.43 150.01 L 39.41 150.43 L 38.82 150.34 L 38.71 149.70 L 38.86 148.94 L 39.14 148.22 L 38.52 148.99 L 37.96 149.67 L 37.50 150.19 L 37.09 150.57 L 36.84 150.78 L 36.78 150.75 L 37.08 150.27 L 36.61 150.90 L 36.42 151.49 L 36.57 151.95 L 37.07 152.26 L 37.72 152.56 L 38.49 152.73 L 39.17 153.03 L 39.79 153.42 L 40.41 153.81 L 41.00 154.17 L 41.55 154.51 L 42.08 154.84 L 42.16 155.74 L 42.09 156.75 L 42.15 157.50 L 42.00 158.41 L 41.76 159.36 L 41.46 160.33 L 41.08 161.30 L 40.60 162.31 L 40.10 163.26 L 39.55 164.16 L 38.93 165.06 L 38.29 165.95 L 37.62 166.80 L 36.92 167.61 L 36.18 168.41 L 35.40 169.17 L 34.62 169.93 L 33.86 170.65 L 33.11 171.35 L 32.31 172.07 L 31.48 172.79 L 30.65 173.49 L 29.86 174.13 L 29.06 174.72 L 28.23 175.36 L 27.42 175.98 L 26.66 176.60 L 25.90 177.32" fill="none" stroke="#000000" stroke-width="0.5" stroke-linejoin="round" stroke-linecap="round"/>
</svg>