<?xml version="1.0" encoding="UTF-8"?>
<svg xmlns="http://www.w3.org/2000/svg" viewBox="21.15 140.00 35.21 42.97">
<path d="M 49.00 145.00 L 49.77 145.13 L 50.19 145.14 L 50.63 145.22 L 51.19 145.20 L 51.36 145.66 L 51.15 146.57 L 50.60 147.91 L 50.02 149.23 L 49.40 150.53 L 48.75 151.79 L 48.04 153.02 L 47.26 154.23 L 46.30 155.55 L 45.35 156.68 L 44.36 157.70 L 43.40 158.53 L 43.09 158.38 L 43.16 157.65 L 43.48 156.55 L 43.78 155.45 L 44.08 154.34 L 44.38 153.23 L 44.10 152.94 L 43.55 153.07 L 42.83 153.57 L 41.92 154.51 L 41.02 155.67 L 40.26 156.87 L 39.90 157.75 L 39.95 158.25 L 40.25 158.58 L 40.51 159.01 L 40.67 159.63 L 41.01 160.00 L 41.31 160.41 L 41.47 161.03 L 41.62 161.65 L 41.86 162.15 L 42.20 162.51 L 42.41 163.04 L 42.71 163.47 L 43.31 163.48 L 43.56 163.96 L 43.79 164.47 L 44.13 164.83 L 44.63 164.97 L 45.19 165.03 L 45.35 165.65 L 45.81 165.83 L 46.41 165.84 L 47.01 165.85 L 47.61 165.85 L 48.19 165.88 L 48.64 166.06 L 48.96 166.40 L 49.13 166.93 L 48.86 168.06 L 48.65 169.07 L 48.49 169.93 L 48.36 170.71 L 47.82 171.93 L 47.15 173.18 L 46.39 174.37 L 45.43 175.62 L 44.49 176.66 L 43.56 177.51 L 42.78 177.97 L 42.34 177.87 L 42.15 177.37 L 41.57 177.37 L 40.97 177.36 L 40.38 177.35 L 39.78 177.35 L 39.19 177.34 L 38.59 177.33 L 38.43 176.72 L 38.02 176.48 L 37.46 176.44 L 37.32 175.84 L 36.67 175.92 L 35.86 176.22 L 35.27 176.22 L 34.86 175.98 L 34.52 175.62 L 34.06 175.41 L 33.69 175.07 L 33.36 174.69 L 33.20 174.08 L 32.74 173.88 L 32.18 173.82 L 31.84 173.46 L 31.42 173.25 L 30.85 173.27 L 30.07 173.64 L 29.18 174.22 L 28.18 175.02 L 27.17 175.96 L 26.15 177.01" fill="none" stroke="#000000" stroke-width="0.5" stroke-linejoin="round" stroke-linecap="round"/>
</svg>