<?xml version="1.0" encoding="UTF-8"?>
<svg xmlns="http://www.w3.org/2000/svg" viewBox="15.66 140.00 38.34 42.47">
<path d="M 49.00 145.00 L 48.37 145.21 L 47.92 145.55 L 47.42 145.88 L 46.85 146.27 L 46.33 146.63 L 45.81 146.96 L 45.27 147.37 L 44.75 147.72 L 44.26 148.03 L 43.71 148.45 L 43.21 148.80 L 42.74 149.13 L 42.20 149.57 L 41.64 149.98 L 41.09 150.37 L 40.59 150.68 L 40.08 150.97 L 39.57 151.27 L 39.05 151.56 L 38.49 151.90 L 37.89 152.26 L 37.33 152.55 L 36.81 152.79 L 36.41 152.86 L 35.86 153.10 L 35.29 153.35 L 34.72 153.61 L 34.16 153.87 L 33.60 154.13 L 33.01 154.37 L 32.50 154.51 L 32.00 154.61 L 31.54 154.64 L 30.96 154.82 L 30.36 155.01 L 29.88 155.03 L 29.35 155.10 L 28.82 155.17 L 28.32 155.17 L 27.83 155.17 L 27.29 155.21 L 26.73 155.27 L 26.22 155.27 L 25.79 155.16 L 25.40 155.00 L 24.85 155.07 L 24.33 155.13 L 23.85 155.15 L 23.26 155.39 L 22.74 155.57 L 22.30 155.68 L 21.75 156.08 L 21.30 156.50 L 20.97 156.92 L 20.78 157.35 L 20.68 157.80 L 20.66 158.31 L 20.82 158.73 L 21.03 159.15 L 21.29 159.51 L 21.46 160.00 L 21.73 160.32 L 22.07 160.47 L 22.54 160.39 L 22.80 160.57 L 22.66 161.24 L 22.52 161.90 L 22.41 162.54 L 22.42 163.02 L 22.86 162.98 L 22.90 163.51 L 22.96 164.08 L 23.03 164.65 L 23.19 165.07 L 23.50 165.25 L 23.89 165.33 L 23.84 166.01 L 23.82 166.63 L 23.82 167.16 L 23.83 167.69 L 23.79 168.29 L 23.72 168.96 L 23.73 169.51 L 23.75 170.06 L 23.78 170.60 L 23.82 171.16 L 23.87 171.72 L 23.91 172.27 L 23.96 172.83 L 24.00 173.39 L 24.06 173.95 L 24.12 174.52 L 24.21 175.04 L 24.38 175.45 L 24.50 175.95 L 24.57 176.53 L 24.60 177.08 L 24.66 177.47" fill="none" stroke="#000000" stroke-width="0.5" stroke-linejoin="round" stroke-linecap="round"/>
</svg>