<?xml version="1.0" encoding="UTF-8"?>
<svg xmlns="http://www.w3.org/2000/svg" viewBox="18.17 140.00 46.43 41.76">
<path d="M 49.00 145.00 L 49.85 146.22 L 50.10 147.00 L 50.25 148.10 L 50.45 149.31 L 50.45 150.68 L 51.44 150.38 L 52.45 149.96 L 52.12 151.20 L 51.51 152.67 L 52.47 152.03 L 52.19 153.00 L 51.43 154.24 L 50.95 155.05 L 50.46 155.71 L 50.44 155.72 L 49.59 156.85 L 48.57 157.97 L 47.46 159.10 L 46.40 160.27 L 45.30 161.42 L 44.13 162.52 L 43.03 163.36 L 42.10 164.13 L 41.51 164.73 L 40.86 165.69 L 41.01 165.92 L 41.57 166.03 L 42.45 166.16 L 43.58 166.34 L 44.62 166.67 L 45.61 167.08 L 46.60 167.48 L 47.60 167.86 L 48.66 168.14 L 49.81 168.33 L 50.58 169.02 L 51.22 169.89 L 51.92 170.70 L 52.76 171.32 L 53.73 171.79 L 54.75 172.18 L 55.66 172.73 L 56.55 173.29 L 57.60 173.65 L 58.45 174.08 L 59.09 174.39 L 59.60 174.35 L 59.03 175.28 L 58.37 175.83 L 57.93 175.54 L 57.26 175.07 L 56.43 174.49 L 55.52 173.93 L 54.52 173.51 L 53.52 173.08 L 52.50 172.69 L 51.51 172.26 L 50.64 171.66 L 49.83 171.09 L 48.93 170.77 L 47.98 170.50 L 46.44 171.03 L 46.22 169.77 L 45.46 169.24 L 44.69 168.71 L 43.74 168.32 L 42.74 167.90 L 41.74 167.47 L 40.74 167.05 L 39.83 166.52 L 38.97 165.92 L 38.00 165.49 L 36.89 165.32 L 35.88 165.13 L 34.99 164.90 L 33.78 165.40 L 32.54 166.11 L 31.28 166.90 L 30.61 166.96 L 30.79 165.85 L 30.51 165.41 L 29.56 166.12 L 28.57 166.92 L 27.58 167.56 L 28.07 166.22 L 28.43 165.05 L 28.16 164.81 L 27.22 165.71 L 26.26 166.59 L 25.35 167.55 L 24.52 168.80 L 23.85 170.10 L 23.56 171.26 L 23.38 172.64 L 23.17 174.23 L 23.56 175.15 L 23.87 175.98 L 24.11 176.76" fill="none" stroke="#000000" stroke-width="0.5" stroke-linejoin="round" stroke-linecap="round"/>
</svg>