<?xml version="1.0" encoding="UTF-8"?>
<svg xmlns="http://www.w3.org/2000/svg" viewBox="17.68 140.00 36.32 42.47">
<path d="M 49.00 145.00 L 48.61 145.29 L 48.29 145.65 L 47.95 146.02 L 47.60 146.38 L 47.26 146.75 L 46.93 147.12 L 46.59 147.49 L 46.24 147.85 L 45.89 148.21 L 45.54 148.57 L 45.19 148.93 L 44.84 149.29 L 44.49 149.65 L 44.15 150.03 L 43.83 150.40 L 43.50 150.78 L 43.17 151.16 L 42.85 151.54 L 42.52 151.92 L 42.19 152.30 L 41.84 152.66 L 41.46 153.00 L 41.07 153.33 L 40.68 153.62 L 40.28 153.90 L 39.85 154.17 L 39.42 154.42 L 38.99 154.66 L 38.56 154.91 L 38.14 155.17 L 37.73 155.45 L 37.33 155.74 L 36.95 156.06 L 36.59 156.41 L 36.25 156.79 L 35.95 157.18 L 35.66 157.59 L 35.39 158.01 L 35.13 158.44 L 34.89 158.88 L 34.64 159.32 L 34.41 159.76 L 34.17 160.21 L 33.94 160.65 L 33.71 161.10 L 33.50 161.56 L 33.30 162.03 L 33.12 162.50 L 33.00 162.91 L 32.84 163.40 L 32.71 163.88 L 32.60 164.36 L 32.48 164.84 L 32.36 165.35 L 32.26 165.83 L 32.17 166.28 L 32.00 166.72 L 31.79 167.13 L 31.50 167.49 L 31.15 167.80 L 30.81 168.00 L 30.43 168.14 L 30.00 168.30 L 29.53 168.53 L 29.09 168.78 L 28.69 169.05 L 28.30 169.38 L 27.94 169.74 L 27.61 170.11 L 27.32 170.51 L 27.04 170.93 L 26.77 171.35 L 26.52 171.78 L 26.26 172.21 L 25.99 172.63 L 25.72 173.04 L 25.42 173.44 L 25.09 173.81 L 24.71 174.14 L 24.29 174.41 L 23.87 174.63 L 23.45 174.79 L 23.39 174.48 L 23.45 174.09 L 23.31 174.09 L 22.99 174.47 L 22.80 174.90 L 22.70 175.39 L 22.68 175.94 L 22.84 176.32 L 23.06 176.68 L 23.34 176.97 L 23.79 177.04 L 24.27 177.01 L 24.75 176.90 L 25.24 176.69 L 25.26 177.00 L 25.11 177.47" fill="none" stroke="#000000" stroke-width="0.5" stroke-linejoin="round" stroke-linecap="round"/>
</svg>