<?xml version="1.0" encoding="UTF-8"?>
<svg xmlns="http://www.w3.org/2000/svg" viewBox="19.45 140.00 34.55 42.84">
<path d="M 49.00 145.00 L 48.76 145.00 L 48.60 145.07 L 48.42 145.12 L 48.17 145.25 L 47.90 145.39 L 47.64 145.54 L 47.40 145.64 L 47.22 145.68 L 46.96 145.81 L 46.70 145.96 L 46.44 146.11 L 46.18 146.25 L 45.92 146.40 L 45.66 146.56 L 45.40 146.71 L 45.13 146.88 L 44.80 147.15 L 44.55 147.31 L 44.30 147.48 L 43.95 147.80 L 43.61 148.11 L 43.29 148.41 L 42.93 148.77 L 42.57 149.13 L 42.23 149.47 L 41.92 149.77 L 41.56 150.14 L 41.23 150.48 L 40.90 150.82 L 40.55 151.19 L 40.19 151.58 L 39.84 151.97 L 39.50 152.37 L 39.14 152.80 L 38.81 153.19 L 38.47 153.60 L 38.13 154.02 L 37.81 154.41 L 37.48 154.83 L 37.13 155.28 L 36.78 155.72 L 36.44 156.15 L 36.10 156.60 L 35.76 157.05 L 35.42 157.50 L 35.09 157.95 L 34.75 158.40 L 34.42 158.86 L 34.10 159.31 L 33.77 159.77 L 33.45 160.22 L 33.13 160.68 L 32.82 161.14 L 32.51 161.61 L 32.22 162.07 L 31.93 162.53 L 31.67 162.95 L 31.39 163.41 L 31.11 163.88 L 30.82 164.35 L 30.55 164.82 L 30.27 165.30 L 30.08 165.69 L 29.90 166.07 L 29.72 166.45 L 29.55 166.84 L 29.38 167.25 L 29.17 167.71 L 29.05 168.04 L 28.97 168.33 L 28.87 168.65 L 28.75 169.01 L 28.64 169.34 L 28.56 169.61 L 28.40 169.97 L 28.17 170.39 L 27.90 170.85 L 27.59 171.33 L 27.27 171.79 L 26.95 172.25 L 26.63 172.71 L 26.31 173.18 L 26.01 173.65 L 25.74 174.09 L 25.50 174.52 L 25.26 174.96 L 25.04 175.41 L 24.88 175.78 L 24.74 176.15 L 24.64 176.48 L 24.58 176.76 L 24.52 177.04 L 24.47 177.33 L 24.45 177.58 L 24.50 177.75 L 24.62 177.81 L 24.76 177.82 L 24.87 177.84" fill="none" stroke="#000000" stroke-width="0.5" stroke-linejoin="round" stroke-linecap="round"/>
</svg>