<?xml version="1.0" encoding="UTF-8"?>
<svg xmlns="http://www.w3.org/2000/svg" viewBox="20.30 140.00 33.70 43.00">
<path d="M 49.00 145.00 L 48.59 145.46 L 48.19 145.98 L 47.77 146.55 L 47.36 147.12 L 46.96 147.70 L 46.60 148.27 L 46.25 148.84 L 45.93 149.40 L 45.63 149.95 L 45.41 150.43 L 45.18 150.92 L 44.93 151.44 L 44.73 151.93 L 44.54 152.40 L 44.36 152.87 L 44.20 153.32 L 44.08 153.72 L 43.97 154.10 L 43.88 154.46 L 43.71 154.94 L 43.56 155.35 L 43.42 155.67 L 43.19 156.04 L 42.97 156.33 L 42.77 156.54 L 42.49 156.79 L 42.11 157.10 L 41.72 157.42 L 41.32 157.76 L 40.92 158.10 L 40.53 158.44 L 40.14 158.78 L 39.72 159.18 L 39.28 159.62 L 38.89 160.01 L 38.47 160.46 L 38.03 160.96 L 37.59 161.48 L 37.15 162.01 L 36.74 162.56 L 36.33 163.13 L 35.94 163.71 L 35.58 164.29 L 35.28 164.83 L 35.08 165.28 L 34.92 165.70 L 34.80 166.11 L 34.82 166.34 L 34.84 166.59 L 34.83 166.89 L 34.82 167.19 L 34.86 167.41 L 35.02 167.48 L 35.10 167.66 L 35.17 167.86 L 35.35 167.90 L 35.55 167.93 L 35.78 167.90 L 35.96 167.95 L 36.12 168.02 L 36.37 167.97 L 36.58 167.93 L 36.72 167.94 L 36.73 168.08 L 36.39 168.64 L 36.01 169.22 L 35.61 169.75 L 35.19 170.28 L 34.75 170.83 L 34.31 171.36 L 33.86 171.88 L 33.40 172.40 L 33.01 172.81 L 32.65 173.18 L 32.25 173.60 L 31.82 174.03 L 31.35 174.54 L 30.95 174.94 L 30.57 175.31 L 30.09 175.80 L 29.91 175.84 L 30.00 175.49 L 29.81 175.51 L 29.66 175.47 L 29.50 175.44 L 29.12 175.70 L 28.74 175.97 L 28.36 176.26 L 27.97 176.57 L 27.57 176.89 L 27.16 177.21 L 26.87 177.36 L 26.58 177.51 L 26.28 177.65 L 25.98 177.79 L 25.72 177.86 L 25.50 177.92 L 25.30 178.00" fill="none" stroke="#000000" stroke-width="0.5" stroke-linejoin="round" stroke-linecap="round"/>
</svg>