<?xml version="1.0" encoding="UTF-8"?>
<svg xmlns="http://www.w3.org/2000/svg" viewBox="20.56 140.00 33.44 42.58">
<path d="M 49.00 145.00 L 48.46 145.19 L 48.12 145.36 L 47.78 145.45 L 47.49 145.42 L 47.26 145.30 L 47.00 145.23 L 46.70 145.23 L 46.35 145.31 L 45.86 145.58 L 45.40 145.80 L 45.30 145.54 L 45.13 145.38 L 44.88 145.34 L 44.52 145.42 L 44.06 145.67 L 43.56 145.98 L 43.38 145.89 L 42.98 146.13 L 42.52 146.47 L 42.00 146.90 L 41.52 147.32 L 41.06 147.75 L 40.58 148.23 L 40.06 148.73 L 39.56 149.23 L 39.10 149.71 L 38.68 150.15 L 38.24 150.63 L 37.79 151.16 L 37.32 151.72 L 36.88 152.31 L 36.47 152.90 L 36.08 153.51 L 35.74 154.11 L 35.42 154.71 L 35.19 155.27 L 35.06 155.77 L 35.07 156.11 L 35.17 156.38 L 35.23 156.72 L 35.31 157.06 L 35.43 157.34 L 35.66 157.48 L 35.92 157.58 L 36.19 157.66 L 36.46 157.74 L 36.74 157.81 L 37.11 157.75 L 37.44 157.74 L 37.71 157.82 L 37.98 157.89 L 38.25 157.97 L 38.61 157.93 L 38.96 157.89 L 39.23 157.97 L 39.48 158.06 L 39.69 158.20 L 39.72 158.58 L 39.68 159.05 L 39.62 159.53 L 39.55 159.99 L 39.47 160.45 L 39.35 160.94 L 39.17 161.50 L 38.95 162.08 L 38.72 162.66 L 38.43 163.30 L 38.18 163.86 L 37.92 164.43 L 37.62 165.06 L 37.32 165.67 L 37.05 166.22 L 36.74 166.78 L 36.38 167.41 L 36.00 168.03 L 35.60 168.64 L 35.18 169.24 L 34.75 169.83 L 34.29 170.40 L 33.83 170.95 L 33.36 171.47 L 32.90 171.93 L 32.45 172.35 L 31.96 172.80 L 31.47 173.22 L 30.99 173.62 L 30.50 174.00 L 30.04 174.32 L 29.63 174.59 L 29.22 174.82 L 28.77 175.12 L 28.26 175.50 L 27.83 175.77 L 27.36 176.11 L 26.87 176.49 L 26.46 176.77 L 26.01 177.14 L 25.56 177.58" fill="none" stroke="#000000" stroke-width="0.5" stroke-linejoin="round" stroke-linecap="round"/>
</svg>