<?xml version="1.0" encoding="UTF-8"?>
<svg xmlns="http://www.w3.org/2000/svg" viewBox="19.71 140.00 34.29 42.16">
<path d="M 49.00 145.00 L 48.68 145.70 L 48.31 146.35 L 47.98 146.98 L 47.66 147.64 L 47.38 148.37 L 47.16 149.12 L 46.96 149.86 L 46.91 150.46 L 46.89 151.15 L 46.86 151.94 L 46.88 152.68 L 46.91 153.36 L 46.91 154.07 L 46.85 154.88 L 46.76 155.64 L 46.65 156.30 L 46.51 156.88 L 46.23 157.61 L 45.91 158.31 L 45.56 158.98 L 45.16 159.62 L 44.77 160.27 L 44.35 160.87 L 43.86 161.44 L 43.28 161.95 L 42.69 162.31 L 42.23 162.29 L 42.06 161.68 L 41.78 161.03 L 41.41 160.39 L 41.00 159.78 L 40.35 159.49 L 39.65 159.26 L 38.90 159.10 L 38.16 158.94 L 37.43 158.78 L 36.71 158.64 L 36.04 158.57 L 35.39 158.60 L 34.79 158.74 L 34.14 159.14 L 33.56 159.65 L 33.10 160.24 L 32.74 160.90 L 32.49 161.53 L 33.09 161.12 L 33.77 160.76 L 34.50 160.48 L 35.26 160.27 L 35.93 160.28 L 36.60 160.39 L 37.30 160.57 L 37.99 160.83 L 38.67 161.11 L 39.34 161.41 L 39.91 161.85 L 40.34 162.47 L 40.73 163.13 L 41.10 163.75 L 41.41 164.29 L 41.64 164.83 L 41.65 165.53 L 41.50 166.33 L 41.30 167.10 L 41.04 167.81 L 40.66 168.45 L 40.22 168.99 L 39.70 169.41 L 39.18 169.62 L 38.63 169.66 L 38.01 169.57 L 37.35 169.31 L 36.63 169.10 L 35.88 168.93 L 35.22 168.67 L 34.53 168.46 L 33.81 168.32 L 33.03 168.32 L 32.29 168.31 L 31.60 168.29 L 30.79 168.47 L 30.07 168.60 L 29.40 168.72 L 28.68 168.97 L 27.97 169.27 L 27.31 169.61 L 26.73 169.95 L 26.14 170.43 L 25.64 170.99 L 25.24 171.62 L 24.98 172.28 L 24.87 172.84 L 24.79 173.50 L 24.76 174.25 L 24.75 175.04 L 24.79 175.79 L 24.77 176.50 L 24.71 177.16" fill="none" stroke="#000000" stroke-width="0.5" stroke-linejoin="round" stroke-linecap="round"/>
</svg>