<?xml version="1.0" encoding="UTF-8"?>
<svg xmlns="http://www.w3.org/2000/svg" viewBox="20.31 140.00 33.69 42.55">
<path d="M 49.00 145.00 L 48.78 145.17 L 48.59 145.37 L 48.39 145.56 L 48.19 145.75 L 47.99 145.94 L 47.81 146.13 L 48.10 145.66 L 48.40 145.19 L 48.46 145.04 L 48.27 145.24 L 48.01 145.54 L 47.72 145.88 L 47.42 146.23 L 47.08 146.64 L 46.76 147.03 L 46.47 147.40 L 46.23 147.70 L 45.94 148.05 L 45.63 148.44 L 45.46 148.62 L 45.45 148.58 L 45.59 148.35 L 45.38 148.61 L 45.12 148.95 L 44.80 149.40 L 44.88 149.33 L 44.90 149.36 L 44.84 149.52 L 44.63 149.88 L 44.39 150.28 L 44.12 150.70 L 43.84 151.14 L 43.54 151.58 L 43.23 152.03 L 42.92 152.48 L 42.61 152.94 L 42.28 153.39 L 41.96 153.85 L 41.64 154.29 L 41.32 154.74 L 41.00 155.20 L 40.67 155.65 L 40.35 156.11 L 40.02 156.57 L 39.70 157.02 L 39.38 157.48 L 39.08 157.92 L 38.80 158.33 L 38.52 158.74 L 38.23 159.14 L 37.97 159.50 L 37.75 159.81 L 37.43 160.23 L 37.08 160.67 L 36.75 161.07 L 36.57 161.28 L 36.36 161.52 L 36.13 161.80 L 35.85 162.15 L 35.51 162.58 L 35.17 163.01 L 34.88 163.37 L 34.63 163.66 L 34.44 163.87 L 34.23 164.12 L 33.94 164.49 L 33.65 164.87 L 33.36 165.27 L 33.06 165.72 L 32.78 166.14 L 32.57 166.46 L 32.27 166.91 L 31.96 167.37 L 31.66 167.83 L 31.36 168.28 L 31.06 168.72 L 30.78 169.13 L 30.50 169.55 L 30.20 170.01 L 29.89 170.47 L 29.60 170.92 L 29.33 171.33 L 29.09 171.72 L 28.88 172.07 L 28.68 172.41 L 28.44 172.79 L 28.17 173.21 L 27.89 173.66 L 27.60 174.12 L 27.39 174.48 L 27.18 174.82 L 26.98 175.14 L 26.85 175.37 L 26.60 175.74 L 26.29 176.19 L 25.97 176.65 L 25.64 177.11 L 25.31 177.55" fill="none" stroke="#000000" stroke-width="0.5" stroke-linejoin="round" stroke-linecap="round"/>
</svg>