<?xml version="1.0" encoding="UTF-8"?>
<svg xmlns="http://www.w3.org/2000/svg" viewBox="17.22 140.00 36.78 42.08">
<path d="M 49.00 145.00 L 48.58 145.67 L 48.03 146.28 L 47.43 146.87 L 46.88 147.29 L 46.27 147.67 L 45.60 148.01 L 44.91 148.33 L 44.22 148.65 L 43.52 148.97 L 42.80 149.27 L 42.09 149.57 L 41.47 149.71 L 40.88 149.77 L 40.11 150.04 L 39.49 150.09 L 38.89 150.14 L 38.25 150.24 L 37.55 150.38 L 36.76 150.63 L 36.15 150.62 L 35.53 150.60 L 34.91 150.56 L 34.41 150.30 L 33.91 150.03 L 33.40 149.77 L 32.88 149.50 L 32.46 149.13 L 32.13 148.65 L 31.80 148.18 L 31.59 147.54 L 31.42 146.85 L 31.09 146.38 L 30.77 145.90 L 30.47 145.45 L 30.24 145.05 L 29.83 145.10 L 29.37 145.46 L 28.87 146.11 L 28.52 146.82 L 28.40 147.41 L 28.33 148.04 L 28.22 148.64 L 27.91 149.32 L 27.45 149.98 L 27.10 150.29 L 27.06 150.03 L 26.75 150.18 L 26.31 150.58 L 25.79 151.24 L 25.48 151.69 L 25.17 152.14 L 24.86 152.59 L 24.63 152.93 L 24.39 153.29 L 24.01 153.84 L 23.66 154.36 L 23.46 154.89 L 23.36 155.50 L 23.52 155.97 L 23.75 156.50 L 23.83 157.23 L 24.06 157.79 L 24.29 158.34 L 24.39 159.06 L 24.60 159.63 L 24.87 160.12 L 24.96 160.86 L 25.09 161.56 L 25.39 162.02 L 25.68 162.47 L 25.86 162.94 L 25.78 163.56 L 25.57 164.09 L 25.19 164.58 L 24.74 164.95 L 24.33 165.09 L 23.88 165.19 L 23.37 165.49 L 22.81 166.08 L 22.43 166.69 L 22.27 167.25 L 22.22 167.89 L 22.42 168.38 L 22.74 168.85 L 23.06 169.33 L 23.39 169.80 L 23.71 170.27 L 24.03 170.74 L 24.16 171.47 L 24.27 172.22 L 24.56 172.70 L 24.85 173.15 L 25.13 173.60 L 25.21 174.34 L 25.27 175.05 L 25.29 175.74 L 25.24 176.39 L 25.08 177.08" fill="none" stroke="#000000" stroke-width="0.5" stroke-linejoin="round" stroke-linecap="round"/>
</svg>