<?xml version="1.0" encoding="UTF-8"?>
<svg xmlns="http://www.w3.org/2000/svg" viewBox="20.54 140.00 51.09 40.78">
<path d="M 49.00 145.00 L 50.29 145.91 L 50.93 146.37 L 51.68 146.94 L 52.40 147.82 L 53.19 148.61 L 54.08 149.25 L 55.23 149.52 L 56.33 149.84 L 57.21 150.46 L 58.52 150.48 L 59.84 150.46 L 60.97 150.67 L 62.27 150.63 L 63.70 150.42 L 65.10 149.92 L 66.07 149.76 L 66.63 150.14 L 65.83 152.41 L 65.23 154.40 L 65.21 155.59 L 66.10 155.06 L 66.17 155.50 L 65.75 156.32 L 64.70 157.54 L 64.06 157.69 L 63.01 157.88 L 61.67 157.99 L 60.56 157.79 L 59.67 157.76 L 59.02 157.90 L 57.90 159.19 L 57.24 160.38 L 57.00 161.53 L 57.31 162.43 L 58.16 163.03 L 59.19 163.35 L 60.18 163.46 L 60.17 164.45 L 59.58 165.71 L 58.34 167.36 L 57.49 167.93 L 56.40 168.32 L 55.35 168.19 L 54.67 167.34 L 53.88 166.62 L 53.09 165.93 L 52.72 164.66 L 52.50 163.18 L 52.40 161.64 L 52.28 160.56 L 52.03 160.04 L 51.54 160.22 L 50.34 161.72 L 49.19 163.49 L 48.18 165.40 L 47.14 167.43 L 45.93 169.33 L 44.55 171.13 L 43.02 172.87 L 41.95 173.84 L 41.48 173.80 L 42.39 171.68 L 43.33 169.45 L 44.26 167.20 L 45.04 165.15 L 45.62 163.25 L 45.81 161.73 L 45.92 160.15 L 45.96 158.52 L 45.95 156.85 L 45.64 155.58 L 45.15 154.52 L 44.30 153.92 L 42.96 153.95 L 41.65 153.94 L 40.49 153.71 L 39.33 153.48 L 38.17 153.25 L 37.00 153.01 L 35.95 152.66 L 35.12 152.08 L 33.81 152.20 L 32.40 152.76 L 31.01 153.80 L 29.94 154.92 L 29.16 156.11 L 28.76 157.23 L 28.76 158.23 L 28.74 159.69 L 28.72 161.34 L 28.67 162.96 L 28.58 164.56 L 28.47 166.14 L 28.01 168.14 L 27.54 170.07 L 27.05 171.94 L 26.38 173.83 L 25.54 175.78" fill="none" stroke="#000000" stroke-width="0.5" stroke-linejoin="round" stroke-linecap="round"/>
</svg>