<?xml version="1.0" encoding="UTF-8"?>
<svg xmlns="http://www.w3.org/2000/svg" viewBox="20.04 140.00 33.96 42.50">
<path d="M 49.00 145.00 L 48.91 145.46 L 48.70 145.86 L 48.50 146.30 L 48.31 146.74 L 48.13 147.19 L 47.96 147.65 L 47.82 148.07 L 47.69 148.50 L 47.58 148.94 L 47.46 149.44 L 47.37 149.93 L 47.30 150.39 L 47.27 150.80 L 47.25 151.23 L 47.22 151.72 L 47.19 152.23 L 47.16 152.71 L 47.18 153.13 L 47.19 153.61 L 47.19 154.13 L 47.25 154.59 L 47.34 155.04 L 47.45 155.48 L 47.54 155.96 L 47.69 156.33 L 47.85 156.69 L 47.87 157.23 L 47.94 157.72 L 48.01 158.19 L 48.06 158.63 L 48.12 159.06 L 48.16 159.49 L 48.11 159.98 L 48.01 160.43 L 47.85 160.85 L 47.62 161.26 L 47.34 161.62 L 47.01 161.95 L 46.63 162.23 L 46.21 162.46 L 45.78 162.66 L 45.37 162.83 L 44.96 162.97 L 44.53 163.10 L 44.03 163.30 L 43.58 163.44 L 43.15 163.54 L 42.71 163.65 L 42.26 163.77 L 41.81 163.90 L 41.38 164.01 L 40.91 164.18 L 40.44 164.37 L 40.02 164.49 L 39.60 164.64 L 39.16 164.81 L 38.71 165.00 L 38.28 165.17 L 37.84 165.37 L 37.39 165.60 L 36.99 165.73 L 36.57 165.91 L 36.12 166.14 L 35.73 166.28 L 35.34 166.47 L 34.90 166.71 L 34.46 166.96 L 34.06 167.20 L 33.68 167.44 L 33.29 167.70 L 32.88 167.96 L 32.49 168.24 L 32.10 168.52 L 31.72 168.80 L 31.33 169.08 L 30.95 169.36 L 30.58 169.65 L 30.23 169.96 L 29.89 170.27 L 29.55 170.60 L 29.24 170.95 L 28.95 171.31 L 28.67 171.67 L 28.38 172.05 L 28.09 172.42 L 27.82 172.81 L 27.56 173.20 L 27.30 173.59 L 27.03 173.98 L 26.75 174.37 L 26.50 174.77 L 26.25 175.16 L 26.00 175.53 L 25.78 175.90 L 25.57 176.28 L 25.38 176.71 L 25.22 177.11 L 25.04 177.50" fill="none" stroke="#000000" stroke-width="0.5" stroke-linejoin="round" stroke-linecap="round"/>
</svg>