<?xml version="1.0" encoding="UTF-8"?>
<svg xmlns="http://www.w3.org/2000/svg" viewBox="20.89 140.00 33.11 42.58">
<path d="M 49.00 145.00 L 48.18 145.01 L 47.60 145.32 L 46.99 145.73 L 46.39 146.23 L 45.82 146.91 L 45.67 147.23 L 46.29 146.73 L 46.98 146.36 L 47.63 146.20 L 48.16 146.24 L 48.63 146.23 L 48.80 146.51 L 48.50 147.35 L 47.97 148.40 L 47.38 149.41 L 46.72 150.39 L 46.00 151.31 L 45.25 152.22 L 44.50 153.10 L 43.81 153.83 L 43.08 154.58 L 42.32 155.36 L 41.52 156.17 L 40.75 157.04 L 40.03 157.95 L 39.35 158.91 L 38.73 159.88 L 38.17 160.84 L 37.63 161.74 L 37.07 162.61 L 36.43 163.53 L 35.80 164.34 L 35.12 165.10 L 34.30 165.84 L 33.41 166.52 L 32.59 167.03 L 32.19 166.91 L 31.89 166.57 L 31.65 166.12 L 31.54 165.46 L 31.52 164.74 L 31.67 163.97 L 31.98 163.21 L 31.63 163.58 L 31.11 164.40 L 30.79 165.17 L 30.68 165.87 L 30.73 166.54 L 30.82 167.21 L 30.95 167.88 L 31.12 168.44 L 31.39 168.84 L 31.95 168.74 L 32.69 168.33 L 33.54 167.70 L 34.43 166.95 L 35.23 166.17 L 35.92 165.41 L 35.50 166.07 L 34.84 166.98 L 34.14 167.87 L 33.39 168.73 L 32.56 169.52 L 31.70 170.29 L 30.84 170.96 L 30.20 171.23 L 29.59 171.39 L 28.98 171.46 L 28.33 171.50 L 27.76 171.47 L 27.41 171.38 L 27.18 171.38 L 26.82 171.80 L 26.70 172.13 L 26.79 172.45 L 27.08 172.72 L 27.62 172.83 L 28.25 172.81 L 28.99 172.61 L 29.61 172.49 L 30.19 172.33 L 30.97 171.83 L 31.82 171.15 L 32.67 170.37 L 33.46 169.55 L 34.19 168.71 L 34.02 169.08 L 33.37 170.06 L 32.70 171.03 L 32.00 171.97 L 31.25 172.88 L 30.47 173.75 L 29.68 174.56 L 28.97 175.18 L 28.23 175.77 L 27.44 176.33 L 26.63 176.96 L 25.89 177.58" fill="none" stroke="#000000" stroke-width="0.5" stroke-linejoin="round" stroke-linecap="round"/>
</svg>