<?xml version="1.0" encoding="UTF-8"?>
<svg xmlns="http://www.w3.org/2000/svg" viewBox="21.01 140.00 32.99 42.47">
<path d="M 49.00 145.00 L 48.38 145.06 L 47.92 145.66 L 47.33 146.58 L 46.79 147.47 L 46.54 148.27 L 46.39 149.13 L 46.13 150.23 L 46.00 151.17 L 45.90 152.02 L 45.73 152.95 L 45.49 154.01 L 45.24 155.06 L 45.02 156.02 L 44.77 156.96 L 44.50 157.91 L 44.14 158.93 L 43.74 159.93 L 43.30 160.90 L 42.81 161.91 L 42.32 162.92 L 41.84 163.92 L 41.41 164.90 L 41.03 165.90 L 40.69 166.91 L 40.46 167.86 L 40.24 168.83 L 40.05 169.80 L 39.85 170.78 L 39.58 171.70 L 39.19 172.54 L 38.60 173.38 L 38.07 173.92 L 37.85 173.83 L 37.94 173.11 L 38.11 172.12 L 38.27 171.12 L 38.46 170.13 L 38.75 169.08 L 39.04 168.08 L 39.30 167.15 L 39.63 166.13 L 39.96 165.09 L 40.30 164.05 L 40.60 163.13 L 40.93 162.20 L 41.32 161.20 L 41.74 160.18 L 42.21 159.16 L 42.66 158.20 L 43.12 157.22 L 43.58 156.19 L 43.96 155.17 L 44.29 154.19 L 44.54 153.25 L 44.73 152.27 L 44.86 151.25 L 44.95 150.20 L 44.72 149.52 L 44.39 148.90 L 44.11 148.14 L 43.57 147.70 L 42.98 147.42 L 42.46 147.26 L 41.79 147.58 L 41.14 148.21 L 40.56 149.08 L 40.20 149.93 L 40.18 150.58 L 40.23 151.29 L 40.10 152.32 L 39.98 153.30 L 39.82 154.27 L 39.62 155.24 L 39.34 156.32 L 39.09 157.34 L 38.85 158.29 L 38.59 159.22 L 38.28 160.17 L 37.91 161.18 L 37.50 162.20 L 37.02 163.22 L 36.55 164.16 L 36.04 165.11 L 35.49 166.08 L 34.95 167.05 L 34.38 168.00 L 33.80 168.95 L 33.22 169.90 L 32.63 170.83 L 32.00 171.74 L 31.34 172.63 L 30.64 173.48 L 29.92 174.28 L 29.16 174.99 L 28.32 175.69 L 27.47 176.34 L 26.76 176.85 L 26.01 177.47" fill="none" stroke="#000000" stroke-width="0.5" stroke-linejoin="round" stroke-linecap="round"/>
</svg>