<?xml version="1.0" encoding="UTF-8"?>
<svg xmlns="http://www.w3.org/2000/svg" viewBox="13.60 140.00 49.88 42.76">
<path d="M 49.00 145.00 L 50.08 145.28 L 50.71 145.31 L 51.25 145.64 L 51.81 146.12 L 52.30 146.73 L 52.76 147.37 L 53.39 147.77 L 54.02 148.17 L 54.63 148.59 L 54.95 149.39 L 55.50 149.88 L 56.03 150.39 L 56.35 151.19 L 56.80 151.83 L 57.30 152.38 L 57.89 152.75 L 58.19 153.44 L 58.39 154.16 L 58.48 154.97 L 58.27 156.13 L 58.07 157.19 L 57.89 158.14 L 57.65 159.04 L 57.32 159.99 L 56.85 160.95 L 56.22 161.85 L 55.46 162.65 L 54.67 163.22 L 54.03 163.41 L 53.55 163.23 L 53.34 162.59 L 53.37 161.59 L 53.42 160.55 L 53.51 159.47 L 53.54 158.45 L 53.33 157.73 L 53.08 156.98 L 52.80 156.21 L 52.40 155.52 L 51.78 155.13 L 51.16 154.74 L 50.53 154.35 L 49.90 153.95 L 49.10 153.82 L 48.28 153.72 L 47.47 153.63 L 46.67 153.55 L 45.89 153.48 L 45.01 153.58 L 44.12 153.74 L 43.20 153.95 L 42.30 154.17 L 41.40 154.41 L 40.52 154.65 L 39.65 154.91 L 38.79 155.18 L 37.81 155.61 L 36.87 156.02 L 36.00 156.37 L 35.21 156.68 L 34.29 157.12 L 33.34 157.60 L 32.33 158.14 L 31.49 158.45 L 30.65 158.73 L 29.82 159.01 L 28.94 159.26 L 27.99 159.58 L 26.98 159.99 L 26.22 160.02 L 25.43 160.09 L 24.63 160.31 L 23.99 160.48 L 23.44 160.74 L 22.69 161.59 L 22.10 162.49 L 21.63 163.45 L 21.58 164.08 L 21.43 164.95 L 21.16 166.06 L 20.97 167.06 L 20.77 168.00 L 20.55 168.91 L 20.24 169.95 L 19.90 171.00 L 19.53 172.03 L 19.17 173.07 L 18.86 174.15 L 18.60 175.27 L 18.68 176.06 L 19.03 176.58 L 19.58 176.92 L 20.19 177.30 L 20.92 177.53 L 21.74 177.63 L 22.56 177.73 L 23.30 177.76 L 23.94 177.73" fill="none" stroke="#000000" stroke-width="0.5" stroke-linejoin="round" stroke-linecap="round"/>
</svg>