<?xml version="1.0" encoding="UTF-8"?>
<svg xmlns="http://www.w3.org/2000/svg" viewBox="20.04 140.00 33.96 42.33">
<path d="M 49.00 145.00 L 48.43 145.30 L 48.00 145.69 L 47.55 146.08 L 47.08 146.46 L 46.59 146.84 L 46.08 147.22 L 45.57 147.56 L 45.05 147.86 L 44.53 148.08 L 43.98 148.28 L 43.40 148.45 L 42.80 148.60 L 42.22 148.73 L 41.67 148.83 L 41.07 148.99 L 40.47 149.15 L 39.88 149.31 L 39.29 149.48 L 38.71 149.65 L 38.14 149.82 L 37.57 150.01 L 37.02 150.20 L 36.44 150.45 L 35.88 150.71 L 35.34 150.97 L 34.81 151.25 L 34.28 151.56 L 33.76 151.89 L 33.28 152.22 L 32.79 152.57 L 32.33 152.98 L 31.89 153.38 L 31.49 153.80 L 31.14 154.29 L 30.85 154.83 L 30.64 155.39 L 30.59 155.93 L 30.60 156.50 L 30.74 157.02 L 31.02 157.48 L 31.51 157.67 L 32.09 157.77 L 32.77 157.78 L 33.35 157.90 L 33.93 158.05 L 34.50 158.19 L 35.09 158.35 L 35.68 158.51 L 36.28 158.68 L 36.83 158.92 L 37.35 159.21 L 37.88 159.50 L 38.38 159.83 L 38.82 160.24 L 39.23 160.67 L 39.60 161.14 L 39.93 161.64 L 40.19 162.16 L 40.39 162.70 L 40.52 163.25 L 40.53 163.88 L 40.48 164.49 L 40.31 165.07 L 40.06 165.58 L 39.74 166.05 L 39.35 166.44 L 38.91 166.79 L 38.39 167.08 L 37.83 167.32 L 37.26 167.53 L 36.70 167.71 L 36.12 167.89 L 35.53 168.05 L 34.93 168.21 L 34.37 168.31 L 33.80 168.43 L 33.22 168.60 L 32.63 168.77 L 32.06 168.96 L 31.47 169.21 L 30.94 169.43 L 30.41 169.67 L 29.88 169.99 L 29.38 170.31 L 28.91 170.66 L 28.46 171.08 L 28.05 171.53 L 27.67 172.00 L 27.32 172.50 L 27.00 173.01 L 26.69 173.53 L 26.39 174.06 L 26.11 174.60 L 25.85 175.16 L 25.62 175.73 L 25.41 176.30 L 25.24 176.81 L 25.04 177.33" fill="none" stroke="#000000" stroke-width="0.5" stroke-linejoin="round" stroke-linecap="round"/>
</svg>