<?xml version="1.0" encoding="UTF-8"?>
<svg xmlns="http://www.w3.org/2000/svg" viewBox="19.39 140.00 34.61 42.37">
<path d="M 49.00 145.00 L 48.47 145.02 L 48.09 145.25 L 47.70 145.49 L 47.29 145.75 L 46.91 146.06 L 46.54 146.40 L 46.18 146.75 L 45.84 147.10 L 45.49 147.45 L 45.15 147.76 L 44.79 148.11 L 44.44 148.41 L 44.07 148.74 L 43.74 149.10 L 43.42 149.44 L 43.12 149.80 L 42.81 150.17 L 42.50 150.55 L 42.19 150.93 L 41.88 151.31 L 41.56 151.69 L 41.24 152.02 L 40.89 152.34 L 40.52 152.65 L 40.14 152.90 L 39.74 153.14 L 39.29 153.39 L 38.89 153.51 L 38.49 153.64 L 38.02 153.86 L 37.56 154.07 L 37.13 154.28 L 36.71 154.53 L 36.30 154.81 L 35.93 155.10 L 35.56 155.39 L 35.19 155.70 L 34.82 156.02 L 34.49 156.34 L 34.15 156.66 L 33.79 156.99 L 33.45 157.35 L 33.16 157.70 L 32.89 158.09 L 32.65 158.50 L 32.43 158.93 L 32.25 159.38 L 32.09 159.85 L 31.93 160.32 L 31.78 160.77 L 31.62 161.22 L 31.43 161.67 L 31.24 162.12 L 31.03 162.57 L 30.82 163.02 L 30.61 163.45 L 30.41 163.89 L 30.21 164.34 L 30.04 164.80 L 29.90 165.28 L 29.77 165.77 L 29.69 166.26 L 29.64 166.74 L 29.65 167.20 L 29.67 167.67 L 29.72 168.15 L 29.76 168.64 L 29.81 169.13 L 29.87 169.63 L 29.95 170.14 L 30.03 170.65 L 30.21 171.08 L 30.40 171.52 L 30.60 171.89 L 30.74 172.22 L 30.82 172.44 L 30.76 172.67 L 30.49 173.00 L 30.17 173.23 L 29.79 173.35 L 29.30 173.50 L 28.81 173.67 L 28.38 173.77 L 27.96 173.88 L 27.50 174.11 L 27.06 174.33 L 26.65 174.56 L 26.25 174.86 L 25.87 175.15 L 25.47 175.44 L 25.06 175.76 L 24.73 176.09 L 24.51 176.42 L 24.39 176.75 L 24.50 176.85 L 24.77 176.80 L 24.91 176.99 L 24.94 177.37" fill="none" stroke="#000000" stroke-width="0.5" stroke-linejoin="round" stroke-linecap="round"/>
</svg>