<?xml version="1.0" encoding="UTF-8"?>
<svg xmlns="http://www.w3.org/2000/svg" viewBox="20.52 140.00 52.29 42.24">
<path d="M 49.00 145.00 L 49.57 145.91 L 49.89 146.34 L 50.56 146.46 L 51.33 146.64 L 51.92 147.07 L 52.46 147.57 L 53.00 148.09 L 53.78 148.28 L 54.47 148.59 L 55.12 148.95 L 55.89 149.14 L 56.56 149.50 L 57.13 149.98 L 57.66 150.52 L 58.26 150.98 L 58.84 151.47 L 59.37 152.01 L 59.90 152.54 L 60.42 153.08 L 60.78 153.84 L 61.29 154.39 L 61.85 154.86 L 62.62 155.04 L 63.29 155.38 L 63.95 155.71 L 64.73 155.90 L 65.31 156.38 L 65.85 156.90 L 66.45 157.33 L 66.97 157.70 L 67.45 157.81 L 67.81 157.78 L 67.39 158.48 L 66.90 158.95 L 66.30 159.26 L 65.58 159.44 L 64.78 159.56 L 63.93 159.76 L 63.09 159.93 L 62.30 160.05 L 61.49 160.16 L 60.63 160.33 L 59.77 160.47 L 59.10 160.35 L 58.32 160.35 L 57.48 160.43 L 56.65 160.49 L 55.96 160.36 L 55.15 160.39 L 54.23 160.54 L 53.47 160.45 L 52.75 160.30 L 52.02 160.14 L 51.28 159.98 L 50.54 159.81 L 49.74 159.72 L 48.86 159.74 L 48.11 159.57 L 47.46 159.26 L 46.81 158.93 L 46.04 158.74 L 45.40 158.37 L 44.71 158.07 L 43.94 157.88 L 43.33 157.46 L 42.61 157.23 L 41.91 157.02 L 41.37 156.63 L 40.58 156.74 L 39.81 156.97 L 39.07 157.25 L 38.25 157.78 L 37.49 158.34 L 36.84 158.89 L 36.21 159.53 L 35.56 160.19 L 34.95 160.89 L 34.40 161.63 L 33.88 162.38 L 33.42 163.14 L 32.97 163.91 L 32.51 164.72 L 32.13 165.52 L 31.71 166.33 L 31.29 167.15 L 30.93 167.97 L 30.50 168.79 L 30.12 169.54 L 29.79 170.26 L 29.35 171.08 L 28.92 171.87 L 28.47 172.63 L 27.96 173.40 L 27.50 174.21 L 27.02 175.01 L 26.52 175.77 L 26.03 176.49 L 25.52 177.24" fill="none" stroke="#000000" stroke-width="0.5" stroke-linejoin="round" stroke-linecap="round"/>
</svg>