<?xml version="1.0" encoding="UTF-8"?>
<svg xmlns="http://www.w3.org/2000/svg" viewBox="20.10 140.00 33.90 43.00">
<path d="M 49.00 145.00 L 48.50 145.59 L 48.02 146.20 L 47.55 146.81 L 47.07 147.45 L 46.56 148.14 L 46.39 148.39 L 46.76 147.92 L 47.12 147.45 L 47.09 147.53 L 46.59 148.26 L 46.09 148.98 L 45.59 149.70 L 45.09 150.43 L 45.02 150.58 L 44.61 151.19 L 44.91 150.86 L 44.61 151.34 L 44.66 151.34 L 45.19 150.68 L 45.73 150.00 L 46.21 149.40 L 45.95 149.82 L 45.52 150.49 L 45.12 151.10 L 44.77 151.67 L 44.33 152.33 L 43.91 152.96 L 43.54 153.50 L 43.05 154.18 L 42.54 154.87 L 42.07 155.49 L 41.59 156.11 L 41.06 156.80 L 40.54 157.49 L 40.03 158.17 L 39.52 158.86 L 39.00 159.56 L 38.48 160.26 L 37.96 160.98 L 37.43 161.68 L 36.92 162.37 L 36.40 163.06 L 35.88 163.75 L 35.35 164.45 L 34.82 165.14 L 34.29 165.84 L 33.77 166.52 L 33.25 167.20 L 32.72 167.88 L 32.20 168.54 L 31.72 169.14 L 31.23 169.75 L 30.74 170.34 L 30.58 170.48 L 30.81 170.11 L 30.94 169.90 L 30.40 170.60 L 29.92 171.22 L 29.52 171.74 L 29.61 171.59 L 29.37 171.92 L 28.90 172.57 L 28.68 172.88 L 28.32 173.39 L 28.09 173.71 L 27.98 173.85 L 27.74 174.18 L 27.63 174.34 L 27.74 174.20 L 27.52 174.50 L 27.28 174.87 L 27.06 175.25 L 26.69 175.86 L 26.87 175.72 L 26.71 176.06 L 26.50 176.46 L 26.80 176.17 L 26.82 176.26 L 26.64 176.63 L 26.54 176.86 L 26.40 177.11 L 26.15 177.48 L 26.07 177.57 L 26.03 177.56 L 26.09 177.39 L 26.03 177.34 L 25.92 177.34 L 25.82 177.34 L 25.74 177.31 L 25.74 177.20 L 25.81 177.03 L 25.68 177.17 L 25.56 177.33 L 25.47 177.48 L 25.37 177.62 L 25.18 177.90 L 25.12 177.98 L 25.10 178.00" fill="none" stroke="#000000" stroke-width="0.5" stroke-linejoin="round" stroke-linecap="round"/>
</svg>