<?xml version="1.0" encoding="UTF-8"?>
<svg xmlns="http://www.w3.org/2000/svg" viewBox="19.89 140.00 34.11 42.45">
<path d="M 49.00 145.00 L 48.61 145.31 L 48.28 145.65 L 47.96 145.98 L 47.65 146.31 L 47.34 146.67 L 47.05 147.05 L 46.80 147.46 L 46.61 147.91 L 46.44 148.36 L 46.30 148.81 L 46.22 149.25 L 46.09 149.71 L 45.96 150.13 L 45.87 150.44 L 45.67 150.84 L 45.45 151.26 L 45.22 151.68 L 44.96 152.09 L 44.75 152.50 L 44.55 152.93 L 44.35 153.35 L 44.17 153.77 L 44.03 154.23 L 43.91 154.73 L 44.02 154.98 L 44.31 155.01 L 44.66 155.01 L 45.09 155.00 L 45.29 155.29 L 45.30 155.79 L 45.26 156.26 L 45.17 156.73 L 45.03 157.18 L 44.85 157.62 L 44.64 158.06 L 44.41 158.49 L 44.17 158.91 L 43.89 159.29 L 43.59 159.65 L 43.28 159.98 L 42.95 160.27 L 42.56 160.55 L 42.14 160.77 L 41.74 160.95 L 41.34 161.13 L 40.92 161.31 L 40.45 161.55 L 39.97 161.76 L 39.53 161.92 L 39.09 162.07 L 38.72 162.13 L 38.29 162.23 L 37.80 162.40 L 37.32 162.59 L 36.90 162.75 L 36.49 162.93 L 36.06 163.16 L 35.62 163.39 L 35.19 163.64 L 34.78 163.88 L 34.35 164.12 L 33.92 164.36 L 33.51 164.56 L 33.11 164.76 L 32.68 164.99 L 32.24 165.22 L 31.82 165.46 L 31.41 165.70 L 31.00 165.95 L 30.62 166.23 L 30.26 166.52 L 29.91 166.83 L 29.57 167.18 L 29.23 167.52 L 28.90 167.88 L 28.57 168.23 L 28.24 168.56 L 27.90 168.89 L 27.58 169.24 L 27.28 169.60 L 26.99 169.95 L 26.72 170.32 L 26.46 170.71 L 26.22 171.13 L 26.01 171.57 L 25.80 171.99 L 25.60 172.42 L 25.43 172.86 L 25.28 173.33 L 25.14 173.79 L 25.06 174.22 L 24.96 174.72 L 24.91 175.21 L 24.90 175.68 L 24.92 176.11 L 24.98 176.52 L 24.95 177.01 L 24.89 177.45" fill="none" stroke="#000000" stroke-width="0.5" stroke-linejoin="round" stroke-linecap="round"/>
</svg>