<?xml version="1.0" encoding="UTF-8"?>
<svg xmlns="http://www.w3.org/2000/svg" viewBox="18.34 140.00 35.66 42.47">
<path d="M 49.00 145.00 L 48.49 145.25 L 48.08 145.57 L 47.63 145.87 L 47.22 146.18 L 46.90 146.53 L 46.59 146.87 L 46.38 147.04 L 46.19 147.16 L 45.83 147.51 L 45.54 147.81 L 45.20 148.12 L 44.79 148.38 L 44.36 148.73 L 43.99 149.12 L 43.70 149.57 L 43.44 150.04 L 43.21 150.46 L 43.04 150.76 L 42.76 151.18 L 42.45 151.59 L 42.10 151.95 L 41.69 152.28 L 41.28 152.60 L 40.89 152.92 L 40.48 153.28 L 40.09 153.66 L 39.73 154.05 L 39.39 154.47 L 39.06 154.89 L 38.73 155.30 L 38.40 155.72 L 38.08 156.14 L 37.78 156.58 L 37.48 157.02 L 37.17 157.46 L 36.87 157.90 L 36.61 158.36 L 36.36 158.84 L 36.13 159.31 L 35.93 159.75 L 35.72 160.25 L 35.55 160.76 L 35.41 161.28 L 35.28 161.80 L 35.19 162.32 L 35.13 162.86 L 35.11 163.38 L 35.10 163.89 L 35.10 164.41 L 35.12 164.95 L 35.11 165.53 L 35.16 166.03 L 35.22 166.52 L 35.23 167.05 L 35.24 167.57 L 35.21 168.07 L 35.11 168.58 L 34.97 169.10 L 34.80 169.64 L 34.62 170.16 L 34.44 170.67 L 34.27 171.13 L 34.09 171.62 L 33.92 172.11 L 33.72 172.62 L 33.51 173.12 L 33.30 173.62 L 33.05 174.09 L 32.77 174.53 L 32.48 174.93 L 32.14 175.30 L 31.76 175.63 L 31.34 175.95 L 30.88 176.18 L 30.41 176.40 L 29.91 176.64 L 29.41 176.84 L 28.92 177.03 L 28.41 177.18 L 27.86 177.32 L 27.27 177.45 L 26.84 177.31 L 26.47 177.04 L 26.11 176.71 L 25.72 176.36 L 25.32 176.04 L 24.75 175.93 L 24.28 175.75 L 23.94 175.60 L 23.66 175.63 L 23.44 175.81 L 23.34 176.09 L 23.57 176.16 L 23.91 176.32 L 24.34 176.57 L 24.58 176.97 L 24.78 177.27 L 24.97 177.47" fill="none" stroke="#000000" stroke-width="0.5" stroke-linejoin="round" stroke-linecap="round"/>
</svg>