<?xml version="1.0" encoding="UTF-8"?>
<svg xmlns="http://www.w3.org/2000/svg" viewBox="20.23 140.00 40.01 42.33">
<path d="M 49.00 145.00 L 49.33 145.84 L 49.38 146.44 L 49.55 147.03 L 49.78 147.66 L 50.03 148.31 L 50.29 148.97 L 50.55 149.63 L 50.88 150.19 L 51.20 150.79 L 51.48 151.46 L 51.77 152.14 L 52.19 152.66 L 52.67 153.10 L 53.16 153.55 L 53.58 154.12 L 53.98 154.72 L 54.45 155.16 L 54.91 155.59 L 55.24 156.00 L 55.22 156.64 L 55.18 157.07 L 54.98 157.59 L 54.73 158.13 L 54.48 158.68 L 54.05 159.21 L 53.86 159.38 L 53.76 159.53 L 53.56 160.00 L 53.30 160.55 L 52.88 161.09 L 52.48 161.39 L 52.15 161.81 L 51.88 162.25 L 51.66 162.70 L 51.44 163.15 L 51.16 163.79 L 51.03 164.45 L 51.06 165.04 L 51.07 165.54 L 51.05 166.13 L 50.98 166.78 L 50.84 167.52 L 50.67 168.19 L 50.52 168.82 L 50.44 169.43 L 50.32 170.19 L 50.32 170.81 L 50.35 171.37 L 50.28 172.06 L 50.16 172.74 L 49.97 173.38 L 49.69 173.86 L 49.39 174.14 L 48.88 174.45 L 48.38 174.52 L 47.87 174.34 L 47.30 174.10 L 46.69 173.84 L 46.12 173.60 L 45.55 173.36 L 44.88 173.27 L 44.09 173.34 L 43.53 173.11 L 42.90 173.00 L 42.24 172.90 L 41.63 172.64 L 40.93 172.51 L 40.23 172.36 L 39.64 172.10 L 39.19 171.77 L 38.81 171.53 L 38.19 171.69 L 37.52 171.92 L 36.79 172.24 L 36.21 172.37 L 35.72 172.39 L 35.36 172.17 L 34.90 171.92 L 34.10 172.05 L 33.34 172.13 L 32.63 172.14 L 32.09 171.92 L 31.45 171.79 L 30.76 171.67 L 30.08 171.55 L 29.46 171.47 L 29.00 171.33 L 28.48 171.47 L 27.91 171.86 L 27.41 172.33 L 27.03 172.89 L 26.73 173.51 L 26.47 174.17 L 26.26 174.79 L 26.05 175.40 L 25.80 176.06 L 25.53 176.70 L 25.23 177.33" fill="none" stroke="#000000" stroke-width="0.5" stroke-linejoin="round" stroke-linecap="round"/>
</svg>