<?xml version="1.0" encoding="UTF-8"?>
<svg xmlns="http://www.w3.org/2000/svg" viewBox="20.45 140.00 36.67 42.74">
<path d="M 49.00 145.00 L 49.65 145.26 L 50.02 145.32 L 50.45 145.44 L 50.80 145.76 L 51.16 146.09 L 51.47 146.44 L 51.74 146.82 L 51.93 147.26 L 52.06 147.74 L 52.11 148.26 L 52.12 148.75 L 52.10 149.23 L 52.02 149.74 L 51.91 150.23 L 51.77 150.69 L 51.59 151.15 L 51.38 151.61 L 51.13 152.05 L 50.88 152.48 L 50.60 152.89 L 50.29 153.28 L 49.98 153.65 L 49.64 153.99 L 49.27 154.32 L 48.89 154.66 L 48.52 154.91 L 48.13 155.19 L 47.75 155.51 L 47.43 155.79 L 47.14 156.17 L 46.90 156.60 L 46.70 157.04 L 46.58 157.48 L 46.51 157.90 L 46.40 158.38 L 46.27 158.87 L 46.13 159.34 L 45.95 159.83 L 45.77 160.30 L 45.58 160.74 L 45.36 161.16 L 45.11 161.56 L 44.80 161.96 L 44.47 162.32 L 44.10 162.62 L 43.69 162.84 L 43.21 163.08 L 42.71 163.21 L 42.26 163.23 L 41.98 162.96 L 41.60 162.83 L 41.22 162.77 L 40.91 162.75 L 40.52 163.02 L 40.17 163.36 L 39.89 163.73 L 39.66 164.14 L 39.44 164.58 L 39.22 165.04 L 38.97 165.47 L 38.69 165.86 L 38.40 166.23 L 38.08 166.58 L 37.73 166.93 L 37.37 167.27 L 37.00 167.57 L 36.65 167.90 L 36.31 168.25 L 35.98 168.62 L 35.68 169.02 L 35.40 169.42 L 35.12 169.83 L 34.84 170.24 L 34.54 170.64 L 34.24 171.03 L 33.91 171.40 L 33.56 171.76 L 33.18 172.10 L 32.79 172.41 L 32.39 172.71 L 32.04 172.98 L 31.68 173.26 L 31.31 173.57 L 30.94 173.91 L 30.57 174.26 L 30.23 174.62 L 29.89 174.98 L 29.52 175.30 L 29.13 175.62 L 28.74 175.94 L 28.36 176.18 L 27.93 176.44 L 27.46 176.69 L 27.03 176.89 L 26.66 177.03 L 26.31 177.16 L 25.86 177.44 L 25.45 177.74" fill="none" stroke="#000000" stroke-width="0.5" stroke-linejoin="round" stroke-linecap="round"/>
</svg>