<?xml version="1.0" encoding="UTF-8"?>
<svg xmlns="http://www.w3.org/2000/svg" viewBox="20.22 140.00 33.78 42.64">
<path d="M 49.00 145.00 L 48.62 145.23 L 48.33 145.53 L 48.05 145.83 L 47.75 146.12 L 47.48 146.42 L 47.24 146.71 L 46.99 147.04 L 46.74 147.37 L 46.50 147.71 L 46.24 148.04 L 45.98 148.36 L 45.71 148.68 L 45.44 149.00 L 45.19 149.32 L 44.92 149.64 L 44.65 149.96 L 44.40 150.29 L 44.14 150.61 L 43.89 150.94 L 43.63 151.28 L 43.38 151.60 L 43.12 151.92 L 42.85 152.24 L 42.58 152.56 L 42.33 152.88 L 42.06 153.20 L 41.79 153.52 L 41.53 153.85 L 41.28 154.17 L 41.01 154.49 L 40.74 154.81 L 40.48 155.13 L 40.23 155.45 L 39.96 155.77 L 39.69 156.10 L 39.44 156.42 L 39.19 156.75 L 38.95 157.10 L 38.69 157.42 L 38.46 157.75 L 38.25 158.06 L 38.01 158.40 L 37.80 158.76 L 37.57 159.11 L 37.33 159.45 L 37.11 159.81 L 36.88 160.15 L 36.66 160.48 L 36.44 160.80 L 36.19 161.12 L 35.93 161.45 L 35.66 161.76 L 35.39 162.08 L 35.16 162.42 L 34.92 162.76 L 34.69 163.05 L 34.45 163.38 L 34.22 163.73 L 34.01 164.09 L 33.76 164.42 L 33.53 164.77 L 33.29 165.11 L 33.08 165.46 L 32.88 165.77 L 32.64 166.12 L 32.42 166.47 L 32.21 166.82 L 31.98 167.17 L 31.73 167.51 L 31.48 167.83 L 31.23 168.18 L 31.00 168.52 L 30.77 168.86 L 30.55 169.22 L 30.31 169.56 L 30.08 169.92 L 29.88 170.28 L 29.68 170.65 L 29.47 171.01 L 29.25 171.37 L 29.03 171.73 L 28.80 172.08 L 28.57 172.42 L 28.33 172.77 L 28.08 173.09 L 27.85 173.44 L 27.61 173.79 L 27.39 174.14 L 27.17 174.49 L 26.94 174.84 L 26.72 175.20 L 26.52 175.57 L 26.33 175.92 L 26.12 176.24 L 25.88 176.59 L 25.67 176.94 L 25.46 177.30 L 25.22 177.64" fill="none" stroke="#000000" stroke-width="0.5" stroke-linejoin="round" stroke-linecap="round"/>
</svg>