<?xml version="1.0" encoding="UTF-8"?>
<svg xmlns="http://www.w3.org/2000/svg" viewBox="20.00 140.00 40.31 41.82">
<path d="M 49.00 145.00 L 50.06 145.19 L 50.40 145.53 L 50.30 146.66 L 50.58 147.45 L 50.64 148.43 L 50.65 149.37 L 50.52 150.21 L 50.07 151.02 L 49.46 151.62 L 49.05 151.50 L 48.53 151.11 L 47.84 150.57 L 47.08 149.85 L 46.32 149.16 L 45.50 148.56 L 44.42 148.36 L 43.36 148.16 L 42.33 147.99 L 41.35 147.85 L 40.51 147.84 L 39.74 148.20 L 39.15 148.80 L 39.17 149.04 L 39.79 148.91 L 40.44 149.17 L 41.29 149.55 L 42.34 149.81 L 42.96 150.68 L 43.69 151.41 L 44.45 152.10 L 45.08 152.98 L 45.86 153.66 L 46.69 154.28 L 47.47 154.97 L 48.11 155.86 L 48.90 156.55 L 49.74 157.17 L 50.58 157.79 L 51.43 158.42 L 52.20 159.15 L 52.90 159.82 L 53.60 160.34 L 54.30 160.85 L 54.58 161.86 L 54.80 162.83 L 55.28 163.33 L 55.31 164.28 L 55.28 165.30 L 55.03 166.28 L 54.53 167.10 L 53.87 167.72 L 53.42 167.64 L 52.99 167.17 L 52.50 166.40 L 51.71 165.72 L 50.87 165.10 L 50.00 164.52 L 49.06 164.02 L 48.19 163.45 L 47.35 162.83 L 46.56 162.19 L 45.94 161.32 L 45.04 160.83 L 43.94 160.61 L 43.03 160.15 L 42.18 159.67 L 41.48 159.15 L 40.54 159.03 L 39.54 159.09 L 38.36 159.47 L 37.29 159.79 L 36.30 160.04 L 35.31 160.24 L 34.23 160.47 L 33.25 160.53 L 32.36 160.46 L 31.28 160.69 L 30.22 160.87 L 29.18 161.03 L 28.09 161.28 L 27.15 161.54 L 26.37 161.90 L 25.94 162.16 L 25.42 162.90 L 25.08 163.73 L 25.05 164.50 L 25.13 165.50 L 25.23 166.50 L 25.36 167.52 L 25.39 168.61 L 25.35 169.75 L 25.46 170.66 L 25.46 171.72 L 25.40 172.83 L 25.44 173.79 L 25.41 174.78 L 25.23 175.82 L 25.00 176.82" fill="none" stroke="#000000" stroke-width="0.5" stroke-linejoin="round" stroke-linecap="round"/>
</svg>