<?xml version="1.0" encoding="UTF-8"?>
<svg xmlns="http://www.w3.org/2000/svg" viewBox="20.46 140.00 33.54 42.06">
<path d="M 49.00 145.00 L 48.18 145.34 L 47.54 145.83 L 46.81 146.31 L 46.04 146.76 L 45.36 147.04 L 44.84 147.06 L 44.33 147.04 L 43.86 146.94 L 43.52 146.65 L 42.98 146.64 L 42.30 146.83 L 41.61 147.02 L 41.02 147.10 L 40.51 147.04 L 39.96 147.04 L 39.40 147.02 L 38.89 146.94 L 38.37 146.88 L 37.86 146.81 L 37.34 146.76 L 36.65 146.95 L 36.01 147.06 L 35.50 146.99 L 35.00 146.93 L 34.46 146.89 L 33.90 146.89 L 33.38 146.84 L 32.82 146.85 L 32.12 147.03 L 31.56 147.04 L 31.04 147.00 L 30.76 146.76 L 30.48 146.70 L 30.15 146.90 L 29.55 147.71 L 29.21 148.37 L 29.04 149.04 L 29.09 149.62 L 29.27 150.11 L 29.55 150.49 L 29.91 150.79 L 30.27 151.10 L 30.60 151.46 L 30.85 151.92 L 31.21 152.23 L 31.58 152.54 L 31.95 152.85 L 32.31 153.16 L 32.68 153.46 L 33.04 153.77 L 33.52 153.93 L 34.00 154.07 L 34.36 154.37 L 34.65 154.79 L 34.94 155.19 L 35.30 155.50 L 35.67 155.81 L 36.07 156.06 L 36.60 156.14 L 36.99 156.41 L 37.35 156.71 L 37.70 157.01 L 37.87 157.51 L 37.92 158.08 L 37.92 158.62 L 37.70 159.34 L 37.23 160.29 L 36.71 161.21 L 36.13 162.10 L 35.51 162.95 L 34.85 163.78 L 34.16 164.59 L 33.43 165.33 L 32.68 165.98 L 32.05 166.36 L 31.57 166.43 L 31.26 166.16 L 31.01 165.74 L 30.79 165.28 L 30.62 164.85 L 30.54 164.50 L 30.29 164.60 L 29.79 165.24 L 29.47 165.84 L 29.25 166.52 L 29.12 167.26 L 29.06 167.99 L 29.11 168.56 L 29.03 169.28 L 28.86 170.07 L 28.69 170.80 L 28.40 171.60 L 27.96 172.56 L 27.49 173.49 L 27.00 174.41 L 26.50 175.31 L 25.99 176.19 L 25.46 177.06" fill="none" stroke="#000000" stroke-width="0.5" stroke-linejoin="round" stroke-linecap="round"/>
</svg>