<?xml version="1.0" encoding="UTF-8"?>
<svg xmlns="http://www.w3.org/2000/svg" viewBox="20.39 140.00 33.61 42.90">
<path d="M 49.00 145.00 L 48.69 145.31 L 48.40 145.66 L 48.11 146.03 L 47.81 146.39 L 47.52 146.76 L 47.23 147.13 L 46.95 147.50 L 46.66 147.87 L 46.39 148.25 L 46.12 148.64 L 45.87 149.03 L 45.64 149.42 L 45.43 149.81 L 45.26 150.19 L 45.10 150.58 L 44.93 150.99 L 44.81 151.35 L 44.70 151.71 L 44.58 152.07 L 44.43 152.49 L 44.32 152.84 L 44.17 153.22 L 44.01 153.60 L 43.83 154.00 L 43.62 154.41 L 43.42 154.81 L 43.20 155.20 L 42.98 155.61 L 42.75 156.01 L 42.52 156.40 L 42.29 156.78 L 42.06 157.17 L 41.81 157.58 L 41.57 157.97 L 41.32 158.35 L 41.08 158.74 L 40.83 159.13 L 40.57 159.52 L 40.32 159.90 L 40.06 160.28 L 39.79 160.67 L 39.52 161.03 L 39.25 161.39 L 38.97 161.73 L 38.68 162.08 L 38.36 162.43 L 38.05 162.75 L 37.75 163.06 L 37.46 163.36 L 37.15 163.69 L 36.83 164.02 L 36.51 164.37 L 36.22 164.70 L 35.93 165.04 L 35.63 165.41 L 35.34 165.77 L 35.06 166.15 L 34.81 166.55 L 34.57 166.95 L 34.42 167.27 L 34.25 167.65 L 34.11 168.02 L 33.99 168.37 L 33.86 168.71 L 33.68 169.12 L 33.48 169.53 L 33.27 169.92 L 33.02 170.31 L 32.75 170.69 L 32.46 171.06 L 32.18 171.39 L 31.87 171.72 L 31.56 172.04 L 31.24 172.35 L 30.93 172.64 L 30.62 172.95 L 30.32 173.26 L 30.01 173.59 L 29.72 173.95 L 29.43 174.33 L 29.17 174.71 L 28.95 175.09 L 28.74 175.50 L 28.55 175.89 L 28.41 176.23 L 28.26 176.55 L 28.05 176.90 L 27.79 177.27 L 27.51 177.57 L 27.24 177.77 L 27.00 177.85 L 26.78 177.84 L 26.55 177.83 L 26.32 177.81 L 26.08 177.79 L 25.86 177.77 L 25.64 177.79 L 25.39 177.90" fill="none" stroke="#000000" stroke-width="0.5" stroke-linejoin="round" stroke-linecap="round"/>
</svg>