<?xml version="1.0" encoding="UTF-8"?>
<svg xmlns="http://www.w3.org/2000/svg" viewBox="13.99 140.00 40.01 42.78">
<path d="M 49.00 145.00 L 48.36 145.01 L 47.96 145.12 L 47.58 145.12 L 47.13 145.12 L 46.62 145.22 L 46.12 145.33 L 45.63 145.45 L 45.14 145.60 L 44.53 145.91 L 43.89 146.28 L 43.25 146.67 L 42.79 146.80 L 42.27 147.00 L 41.66 147.29 L 41.16 147.41 L 40.67 147.52 L 40.18 147.63 L 39.68 147.75 L 39.17 147.88 L 38.55 148.18 L 38.06 148.35 L 37.60 148.53 L 37.04 148.88 L 36.37 149.36 L 35.70 149.86 L 35.16 150.22 L 34.61 150.57 L 34.02 150.94 L 33.38 151.33 L 32.86 151.55 L 32.39 151.69 L 31.78 151.99 L 31.25 152.16 L 30.75 152.26 L 30.25 152.38 L 29.82 152.40 L 29.44 152.34 L 28.81 152.64 L 28.31 152.80 L 27.82 152.96 L 27.25 153.30 L 26.71 153.75 L 26.24 154.26 L 25.78 154.94 L 25.68 155.29 L 25.68 155.63 L 25.76 156.03 L 26.06 156.12 L 26.15 156.36 L 26.08 156.65 L 25.63 157.28 L 25.27 157.62 L 24.89 157.82 L 24.46 157.98 L 23.99 158.24 L 23.47 158.66 L 22.91 159.26 L 22.39 159.94 L 21.96 160.61 L 21.57 161.28 L 21.23 161.99 L 20.89 162.74 L 20.54 163.51 L 20.33 164.12 L 20.05 164.83 L 19.77 165.55 L 19.59 166.18 L 19.35 166.93 L 19.12 167.68 L 18.99 168.34 L 19.04 168.75 L 19.09 169.20 L 19.00 169.89 L 19.08 170.35 L 19.17 170.79 L 19.14 171.41 L 19.16 171.99 L 19.29 172.42 L 19.42 172.86 L 19.64 173.18 L 20.01 173.31 L 20.39 173.44 L 20.72 173.64 L 21.03 173.87 L 21.19 174.30 L 21.45 174.58 L 21.75 174.80 L 22.25 174.74 L 22.68 174.79 L 22.81 175.23 L 22.95 175.67 L 23.18 176.00 L 23.55 176.13 L 23.85 176.36 L 24.12 176.63 L 24.27 177.08 L 24.37 177.49 L 24.49 177.78" fill="none" stroke="#000000" stroke-width="0.5" stroke-linejoin="round" stroke-linecap="round"/>
</svg>