<?xml version="1.0" encoding="UTF-8"?>
<svg xmlns="http://www.w3.org/2000/svg" viewBox="14.56 140.00 39.44 42.86">
<path d="M 49.00 145.00 L 48.34 145.29 L 47.82 145.67 L 47.33 145.92 L 46.84 146.08 L 46.30 146.27 L 45.71 146.49 L 45.29 146.48 L 44.91 146.41 L 44.62 146.20 L 44.06 146.32 L 43.54 146.39 L 43.23 146.17 L 42.89 146.00 L 42.44 145.98 L 42.07 145.84 L 41.76 145.63 L 41.16 145.85 L 40.65 145.95 L 40.23 145.94 L 39.65 146.13 L 39.17 146.17 L 38.92 145.89 L 38.79 145.51 L 38.47 145.42 L 38.06 145.45 L 37.42 145.86 L 36.85 146.23 L 36.37 146.54 L 35.82 146.96 L 35.23 147.39 L 34.63 147.81 L 34.12 148.09 L 33.67 148.27 L 33.20 148.46 L 32.67 148.73 L 32.15 149.01 L 31.58 149.37 L 30.98 149.81 L 30.49 150.14 L 30.00 150.50 L 29.47 150.95 L 28.91 151.42 L 28.38 151.91 L 27.88 152.42 L 27.38 152.94 L 26.88 153.46 L 26.36 154.00 L 25.87 154.53 L 25.39 155.06 L 24.93 155.61 L 24.48 156.17 L 24.03 156.76 L 23.63 157.38 L 23.25 157.99 L 22.89 158.61 L 22.59 159.22 L 22.27 159.90 L 21.98 160.54 L 21.73 161.12 L 21.48 161.73 L 21.24 162.40 L 21.01 163.10 L 20.86 163.69 L 20.73 164.25 L 20.62 164.81 L 20.43 165.45 L 20.24 166.03 L 20.08 166.59 L 19.82 167.31 L 19.57 168.04 L 19.58 168.45 L 19.56 168.93 L 19.58 169.44 L 19.87 169.66 L 20.08 169.97 L 20.15 170.49 L 20.14 171.12 L 20.26 171.57 L 20.40 171.98 L 20.50 172.45 L 20.57 173.00 L 20.64 173.52 L 20.90 173.70 L 21.26 173.75 L 21.52 173.94 L 21.36 174.70 L 21.39 175.19 L 21.50 175.56 L 21.45 176.17 L 21.67 176.49 L 22.09 176.56 L 22.46 176.70 L 22.79 176.92 L 23.12 177.16 L 23.46 177.39 L 23.79 177.62 L 24.07 177.82 L 24.40 177.86" fill="none" stroke="#000000" stroke-width="0.5" stroke-linejoin="round" stroke-linecap="round"/>
</svg>