<?xml version="1.0" encoding="UTF-8"?>
<svg xmlns="http://www.w3.org/2000/svg" viewBox="20.35 140.00 33.69 43.00">
<path d="M 49.00 145.00 L 49.03 145.38 L 48.96 145.69 L 48.91 146.01 L 48.87 146.35 L 48.82 146.70 L 48.71 147.11 L 48.63 147.44 L 48.54 147.78 L 48.31 148.28 L 48.09 148.77 L 47.87 149.25 L 47.67 149.69 L 47.51 150.11 L 47.39 150.51 L 47.28 150.90 L 47.20 151.27 L 47.16 151.60 L 47.07 152.00 L 46.99 152.39 L 46.95 152.72 L 46.88 153.10 L 46.79 153.50 L 46.75 153.84 L 46.71 154.17 L 46.67 154.50 L 46.59 154.90 L 46.51 155.29 L 46.47 155.61 L 46.38 156.00 L 46.27 156.41 L 46.16 156.79 L 46.02 157.18 L 45.85 157.57 L 45.59 158.05 L 45.30 158.52 L 44.99 158.98 L 44.65 159.42 L 44.30 159.83 L 43.94 160.22 L 43.60 160.56 L 43.24 160.91 L 42.84 161.27 L 42.48 161.54 L 42.15 161.76 L 41.84 161.95 L 41.53 162.11 L 41.23 162.26 L 40.88 162.47 L 40.53 162.70 L 40.18 162.93 L 39.83 163.18 L 39.47 163.46 L 39.09 163.76 L 38.75 164.02 L 38.41 164.30 L 38.06 164.64 L 37.71 165.01 L 37.34 165.40 L 36.98 165.83 L 36.64 166.25 L 36.30 166.66 L 35.95 167.09 L 35.58 167.51 L 35.21 167.92 L 34.86 168.25 L 34.50 168.58 L 34.17 168.85 L 33.85 169.10 L 33.54 169.36 L 33.16 169.72 L 32.80 170.11 L 32.46 170.53 L 32.14 170.97 L 31.86 171.40 L 31.61 171.81 L 31.34 172.28 L 31.09 172.74 L 30.85 173.19 L 30.59 173.64 L 30.32 174.11 L 30.03 174.58 L 29.73 175.05 L 29.41 175.48 L 29.07 175.90 L 28.77 176.25 L 28.48 176.54 L 28.15 176.88 L 27.79 177.21 L 27.41 177.54 L 26.99 177.92 L 26.90 177.83 L 26.88 177.62 L 26.64 177.68 L 26.32 177.81 L 26.04 177.88 L 25.77 177.92 L 25.56 177.93 L 25.35 178.00" fill="none" stroke="#000000" stroke-width="0.5" stroke-linejoin="round" stroke-linecap="round"/>
</svg>