<?xml version="1.0" encoding="UTF-8"?>
<svg xmlns="http://www.w3.org/2000/svg" viewBox="16.78 140.00 37.22 42.46">
<path d="M 49.00 145.00 L 48.54 145.23 L 48.19 145.55 L 47.81 145.86 L 47.41 146.17 L 47.00 146.48 L 46.61 146.76 L 46.21 147.04 L 45.81 147.31 L 45.41 147.59 L 45.02 147.87 L 44.63 148.16 L 44.22 148.47 L 43.81 148.78 L 43.42 149.07 L 43.03 149.35 L 42.62 149.62 L 42.20 149.88 L 41.77 150.13 L 41.33 150.38 L 40.88 150.62 L 40.44 150.84 L 40.01 151.03 L 39.59 151.21 L 39.13 151.44 L 38.67 151.66 L 38.22 151.87 L 37.75 152.10 L 37.33 152.28 L 36.89 152.46 L 36.43 152.66 L 35.95 152.87 L 35.51 153.02 L 35.08 153.15 L 34.60 153.37 L 34.16 153.49 L 33.71 153.64 L 33.22 153.86 L 32.79 153.95 L 32.33 154.12 L 31.86 154.33 L 31.45 154.43 L 30.98 154.62 L 30.50 154.83 L 30.05 155.02 L 29.63 155.20 L 29.20 155.42 L 28.78 155.67 L 28.36 155.94 L 27.96 156.24 L 27.54 156.54 L 27.16 156.85 L 26.79 157.16 L 26.46 157.45 L 26.08 157.79 L 25.73 158.14 L 25.38 158.50 L 25.07 158.89 L 24.76 159.27 L 24.46 159.67 L 24.19 160.08 L 23.93 160.50 L 23.67 160.91 L 23.44 161.33 L 23.24 161.79 L 23.05 162.26 L 22.90 162.68 L 22.76 163.07 L 22.58 163.54 L 22.43 164.02 L 22.28 164.51 L 22.13 164.99 L 22.01 165.48 L 21.92 165.96 L 21.86 166.44 L 21.84 166.89 L 21.81 167.40 L 21.79 167.89 L 21.79 168.37 L 21.78 168.90 L 21.80 169.41 L 21.85 169.88 L 21.96 170.29 L 22.02 170.80 L 22.10 171.32 L 22.21 171.82 L 22.34 172.29 L 22.50 172.74 L 22.70 173.14 L 22.90 173.56 L 23.01 174.10 L 23.21 174.52 L 23.39 174.96 L 23.50 175.51 L 23.74 175.91 L 23.98 176.32 L 24.22 176.73 L 24.43 177.12 L 24.58 177.46" fill="none" stroke="#000000" stroke-width="0.5" stroke-linejoin="round" stroke-linecap="round"/>
</svg>