<?xml version="1.0" encoding="UTF-8"?>
<svg xmlns="http://www.w3.org/2000/svg" viewBox="20.00 140.00 34.00 42.34">
<path d="M 49.00 145.00 L 48.50 145.33 L 48.06 145.71 L 47.55 146.07 L 47.00 146.36 L 46.51 146.52 L 46.15 146.44 L 45.62 146.54 L 45.07 146.66 L 44.52 146.84 L 44.03 147.09 L 43.57 147.41 L 43.16 147.84 L 42.83 148.32 L 42.57 148.85 L 42.43 149.41 L 42.33 149.96 L 42.20 150.44 L 42.12 150.78 L 41.95 151.16 L 41.68 151.58 L 41.32 151.99 L 40.87 152.37 L 40.39 152.75 L 39.96 153.13 L 39.56 153.52 L 39.16 153.95 L 38.77 154.40 L 38.40 154.85 L 38.06 155.33 L 37.74 155.83 L 37.45 156.35 L 37.21 156.90 L 37.01 157.45 L 36.85 158.00 L 36.76 158.54 L 36.70 159.10 L 36.65 159.72 L 36.64 160.32 L 36.66 160.91 L 36.69 161.45 L 36.72 161.96 L 36.70 162.47 L 36.58 163.04 L 36.38 163.61 L 36.14 164.15 L 35.85 164.67 L 35.54 165.17 L 35.22 165.67 L 34.91 166.17 L 34.59 166.66 L 34.26 167.15 L 33.95 167.65 L 33.64 168.15 L 33.34 168.65 L 33.06 169.16 L 32.79 169.68 L 32.56 170.24 L 32.38 170.81 L 32.23 171.37 L 32.13 171.95 L 32.09 172.50 L 32.08 173.08 L 32.04 173.63 L 31.93 174.14 L 31.72 174.57 L 31.38 174.97 L 31.15 175.00 L 31.13 174.58 L 30.95 174.18 L 30.75 173.68 L 30.64 173.01 L 30.45 172.46 L 30.26 171.92 L 30.07 171.38 L 29.92 170.83 L 29.73 170.47 L 29.41 170.45 L 28.96 170.82 L 28.61 171.27 L 28.38 171.76 L 28.23 172.23 L 28.06 172.64 L 27.80 173.02 L 27.38 173.42 L 27.10 173.40 L 26.82 173.20 L 26.50 172.90 L 26.18 172.66 L 25.72 172.86 L 25.34 173.21 L 25.06 173.67 L 25.00 174.07 L 25.03 174.53 L 25.09 175.09 L 25.16 175.64 L 25.21 176.18 L 25.13 176.78 L 25.00 177.34" fill="none" stroke="#000000" stroke-width="0.5" stroke-linejoin="round" stroke-linecap="round"/>
</svg>