<?xml version="1.0" encoding="UTF-8"?>
<svg xmlns="http://www.w3.org/2000/svg" viewBox="20.07 140.00 33.93 42.52">
<path d="M 49.00 145.00 L 48.59 145.06 L 48.29 145.28 L 47.92 145.57 L 47.56 145.84 L 47.23 146.10 L 46.90 146.39 L 46.56 146.69 L 46.23 146.95 L 45.90 147.22 L 45.56 147.52 L 45.23 147.78 L 44.90 148.04 L 44.56 148.34 L 44.23 148.62 L 43.90 148.90 L 43.56 149.20 L 43.23 149.50 L 42.95 149.80 L 42.71 150.14 L 42.51 150.53 L 42.36 150.92 L 42.30 151.30 L 42.30 151.70 L 42.32 152.14 L 42.35 152.57 L 42.36 153.00 L 42.35 153.41 L 42.32 153.82 L 42.22 154.28 L 42.10 154.71 L 41.97 155.13 L 41.82 155.55 L 41.66 155.97 L 41.48 156.37 L 41.31 156.75 L 41.12 157.14 L 40.90 157.53 L 40.68 157.90 L 40.43 158.26 L 40.18 158.62 L 39.91 158.97 L 39.64 159.32 L 39.35 159.65 L 39.08 160.00 L 38.82 160.36 L 38.59 160.74 L 38.37 161.11 L 38.15 161.47 L 37.95 161.84 L 37.75 162.23 L 37.53 162.62 L 37.33 162.99 L 37.11 163.36 L 36.88 163.73 L 36.65 164.10 L 36.43 164.47 L 36.20 164.85 L 35.97 165.23 L 35.73 165.58 L 35.47 165.93 L 35.21 166.29 L 34.95 166.65 L 34.67 166.98 L 34.36 167.30 L 34.04 167.62 L 33.74 167.92 L 33.44 168.21 L 33.13 168.53 L 32.82 168.84 L 32.51 169.16 L 32.20 169.48 L 31.88 169.80 L 31.58 170.10 L 31.28 170.39 L 30.97 170.70 L 30.65 171.01 L 30.31 171.31 L 29.96 171.60 L 29.62 171.86 L 29.28 172.10 L 28.94 172.34 L 28.60 172.59 L 28.26 172.86 L 27.91 173.15 L 27.58 173.45 L 27.23 173.75 L 26.89 174.02 L 26.53 174.26 L 26.17 174.48 L 25.85 174.71 L 25.56 174.99 L 25.33 175.33 L 25.21 175.66 L 25.17 175.98 L 25.18 176.31 L 25.24 176.64 L 25.19 177.08 L 25.07 177.52" fill="none" stroke="#000000" stroke-width="0.5" stroke-linejoin="round" stroke-linecap="round"/>
</svg>