<?xml version="1.0" encoding="UTF-8"?>
<svg xmlns="http://www.w3.org/2000/svg" viewBox="19.34 140.00 34.66 42.64">
<path d="M 49.00 145.00 L 48.20 145.00 L 47.70 145.24 L 47.17 145.57 L 46.61 146.01 L 46.03 146.58 L 45.42 147.27 L 44.93 147.88 L 44.40 148.68 L 43.91 149.52 L 43.46 150.38 L 43.02 151.21 L 42.74 151.87 L 42.62 152.34 L 42.26 153.12 L 41.86 153.91 L 41.40 154.76 L 40.91 155.59 L 40.44 156.43 L 40.00 157.26 L 39.68 158.00 L 39.45 158.70 L 39.23 159.51 L 38.99 160.38 L 38.76 161.24 L 38.59 161.98 L 38.38 162.76 L 38.12 163.58 L 37.84 164.43 L 37.51 165.31 L 37.18 166.19 L 36.88 167.03 L 36.60 167.83 L 36.33 168.64 L 36.05 169.49 L 35.79 170.35 L 35.53 171.22 L 35.33 172.06 L 35.19 172.86 L 35.13 173.63 L 35.23 174.25 L 35.37 174.67 L 35.52 174.95 L 35.66 175.08 L 35.22 175.80 L 34.66 176.46 L 33.98 177.03 L 33.29 177.36 L 32.66 177.54 L 32.14 177.53 L 31.49 177.64 L 30.96 177.57 L 30.85 176.94 L 30.75 176.31 L 30.69 175.63 L 30.75 174.81 L 30.72 174.14 L 30.69 173.49 L 30.78 172.70 L 30.86 171.90 L 30.94 171.09 L 31.02 170.29 L 31.02 169.57 L 30.93 168.95 L 30.82 168.32 L 30.70 167.67 L 30.58 167.04 L 30.30 166.64 L 30.15 166.05 L 30.18 165.20 L 30.07 164.53 L 29.88 163.98 L 29.57 163.57 L 29.25 163.14 L 28.85 162.80 L 28.31 162.77 L 27.91 162.65 L 27.55 162.57 L 26.81 163.22 L 26.15 163.93 L 25.60 164.71 L 25.21 165.50 L 24.91 166.30 L 24.73 167.04 L 24.68 167.70 L 24.71 168.30 L 24.59 169.18 L 24.50 169.99 L 24.53 170.61 L 24.74 170.95 L 24.62 171.76 L 24.45 172.68 L 24.36 173.49 L 24.34 174.19 L 24.42 174.81 L 24.52 175.43 L 24.64 176.07 L 24.70 176.67 L 24.71 177.24" fill="none" stroke="#000000" stroke-width="0.5" stroke-linejoin="round" stroke-linecap="round"/>
</svg>