<?xml version="1.0" encoding="UTF-8"?>
<svg xmlns="http://www.w3.org/2000/svg" viewBox="14.13 140.00 39.87 42.01">
<path d="M 49.00 145.00 L 48.01 145.63 L 47.15 146.36 L 46.24 147.02 L 45.36 147.58 L 44.56 148.00 L 43.74 148.49 L 42.86 149.15 L 42.00 149.87 L 41.18 150.64 L 40.35 151.47 L 39.54 152.31 L 38.75 153.15 L 38.00 153.96 L 37.21 154.78 L 36.39 155.61 L 35.56 156.43 L 34.73 157.25 L 33.89 158.06 L 33.09 158.82 L 32.29 159.60 L 31.50 160.39 L 30.73 161.25 L 30.01 162.16 L 29.40 163.15 L 28.83 164.16 L 28.27 165.01 L 27.74 165.70 L 27.19 166.23 L 27.38 165.52 L 27.37 164.85 L 27.15 164.15 L 26.87 163.32 L 26.58 162.53 L 26.25 161.85 L 25.59 161.77 L 24.76 162.09 L 23.89 162.65 L 23.01 163.43 L 22.24 164.30 L 21.59 165.27 L 21.00 166.28 L 20.50 167.22 L 20.25 167.80 L 21.06 166.97 L 21.94 166.17 L 22.87 165.41 L 23.80 164.73 L 24.52 164.46 L 25.06 164.60 L 25.36 165.23 L 25.62 165.97 L 25.77 166.89 L 25.79 167.98 L 25.85 168.99 L 25.96 169.92 L 26.16 170.72 L 26.38 171.54 L 26.54 172.46 L 26.69 173.42 L 26.85 174.29 L 26.96 174.88 L 26.85 175.42 L 26.62 175.79 L 26.41 175.83 L 26.26 175.45 L 26.09 174.76 L 25.94 173.80 L 25.82 172.85 L 25.71 171.93 L 25.58 171.04 L 25.57 169.96 L 25.44 169.00 L 25.20 168.19 L 24.83 167.57 L 24.35 167.12 L 23.54 167.23 L 22.73 167.59 L 21.96 168.15 L 21.17 168.99 L 20.56 169.86 L 20.07 170.82 L 19.60 171.83 L 19.25 172.70 L 19.13 173.17 L 19.94 172.32 L 20.77 171.49 L 21.64 170.68 L 22.52 169.90 L 23.14 169.66 L 23.42 170.06 L 23.47 170.95 L 23.59 171.87 L 23.75 172.80 L 23.88 173.74 L 24.08 174.60 L 24.33 175.41 L 24.42 176.27 L 24.50 177.01" fill="none" stroke="#000000" stroke-width="0.5" stroke-linejoin="round" stroke-linecap="round"/>
</svg>