<?xml version="1.0" encoding="UTF-8"?>
<svg xmlns="http://www.w3.org/2000/svg" viewBox="20.32 140.00 34.23 42.67">
<path d="M 49.00 145.00 L 49.33 145.27 L 49.48 145.42 L 49.56 145.71 L 49.43 146.33 L 49.27 146.91 L 48.96 147.56 L 48.39 148.44 L 47.91 149.11 L 47.49 149.58 L 46.81 150.28 L 46.06 150.98 L 45.33 151.61 L 44.73 152.05 L 44.16 152.44 L 43.58 152.80 L 42.96 153.21 L 42.43 153.47 L 42.00 153.59 L 41.56 153.71 L 41.20 153.70 L 40.93 153.58 L 40.73 153.42 L 40.66 153.15 L 40.73 152.78 L 40.03 153.58 L 39.28 154.53 L 38.61 155.49 L 38.01 156.49 L 37.45 157.49 L 36.98 158.44 L 36.77 159.09 L 36.94 159.25 L 37.19 159.35 L 37.37 159.54 L 37.39 159.99 L 37.95 159.65 L 38.64 159.13 L 39.05 158.99 L 39.72 158.48 L 40.41 157.95 L 41.04 157.53 L 41.52 157.29 L 42.01 157.08 L 42.60 156.73 L 43.10 156.52 L 43.54 156.40 L 43.98 156.28 L 44.31 156.31 L 44.55 156.40 L 44.72 156.55 L 44.52 157.15 L 43.95 158.18 L 43.36 159.19 L 42.73 160.20 L 42.06 161.22 L 41.41 162.20 L 40.75 163.19 L 40.08 164.21 L 39.45 165.21 L 38.83 166.20 L 38.23 167.20 L 37.70 168.15 L 37.19 169.06 L 36.71 169.94 L 36.18 170.92 L 35.62 171.95 L 35.12 172.83 L 34.60 173.68 L 34.01 174.54 L 33.29 175.51 L 32.65 176.26 L 31.98 176.94 L 31.26 177.59 L 30.95 177.59 L 30.66 177.55 L 30.22 177.67 L 29.94 177.57 L 29.79 177.27 L 29.75 176.82 L 29.56 176.57 L 29.43 176.26 L 29.40 175.80 L 29.38 175.35 L 29.40 174.83 L 29.50 174.20 L 29.42 173.82 L 29.25 173.57 L 29.22 173.12 L 29.20 172.67 L 29.21 172.21 L 29.37 171.62 L 29.06 171.77 L 28.43 172.46 L 27.68 173.41 L 27.00 174.36 L 26.38 175.36 L 25.78 176.35 L 25.32 177.14" fill="none" stroke="#000000" stroke-width="0.5" stroke-linejoin="round" stroke-linecap="round"/>
</svg>