<?xml version="1.0" encoding="UTF-8"?>
<svg xmlns="http://www.w3.org/2000/svg" viewBox="20.29 140.00 33.71 42.53">
<path d="M 49.00 145.00 L 48.60 145.40 L 48.26 145.79 L 47.89 146.17 L 47.51 146.57 L 47.12 146.95 L 46.74 147.30 L 46.35 147.71 L 45.99 148.09 L 45.63 148.47 L 45.29 148.90 L 44.92 149.32 L 44.56 149.74 L 44.21 150.17 L 43.89 150.58 L 43.56 150.99 L 43.22 151.43 L 42.87 151.85 L 42.49 152.26 L 42.08 152.65 L 41.64 152.98 L 41.21 153.17 L 40.72 153.32 L 40.21 153.38 L 39.69 153.34 L 39.18 153.30 L 38.66 153.26 L 38.13 153.26 L 37.56 153.35 L 36.98 153.44 L 36.42 153.53 L 35.88 153.65 L 35.40 153.69 L 34.91 153.75 L 34.33 153.96 L 33.82 154.12 L 33.34 154.28 L 32.81 154.53 L 32.28 154.77 L 31.80 155.03 L 31.39 155.24 L 30.94 155.48 L 30.45 155.81 L 30.02 156.12 L 29.63 156.47 L 29.27 156.84 L 28.85 157.23 L 28.46 157.62 L 28.09 158.04 L 27.78 158.44 L 27.47 158.88 L 27.20 159.36 L 26.97 159.88 L 26.86 160.39 L 26.85 160.90 L 26.93 161.41 L 27.36 161.55 L 27.91 161.61 L 28.46 161.67 L 28.90 161.94 L 29.33 162.21 L 29.91 162.29 L 30.40 162.49 L 30.87 162.70 L 31.43 162.77 L 32.00 162.84 L 32.53 162.89 L 32.99 162.91 L 33.12 163.28 L 33.07 163.77 L 32.90 164.33 L 32.68 164.85 L 32.38 165.31 L 32.04 165.75 L 31.70 166.19 L 31.36 166.61 L 31.03 167.03 L 30.69 167.46 L 30.35 167.89 L 30.02 168.34 L 29.75 168.83 L 29.48 169.32 L 29.23 169.81 L 29.01 170.25 L 28.77 170.73 L 28.55 171.25 L 28.33 171.77 L 28.09 172.25 L 27.87 172.69 L 27.63 173.20 L 27.41 173.72 L 27.18 174.24 L 26.95 174.68 L 26.72 175.14 L 26.45 175.63 L 26.19 176.13 L 25.91 176.61 L 25.60 177.07 L 25.29 177.53" fill="none" stroke="#000000" stroke-width="0.5" stroke-linejoin="round" stroke-linecap="round"/>
</svg>