<?xml version="1.0" encoding="UTF-8"?>
<svg xmlns="http://www.w3.org/2000/svg" viewBox="20.44 140.00 33.56 42.80">
<path d="M 49.00 145.00 L 48.92 145.44 L 48.75 145.86 L 48.60 146.32 L 48.50 146.77 L 48.40 147.18 L 48.33 147.52 L 48.24 147.89 L 48.08 148.35 L 47.92 148.81 L 47.75 149.25 L 47.59 149.67 L 47.46 150.10 L 47.36 150.53 L 47.29 150.98 L 47.22 151.43 L 47.13 151.86 L 47.02 152.28 L 46.88 152.69 L 46.69 153.13 L 46.48 153.54 L 46.24 153.94 L 46.00 154.33 L 45.78 154.74 L 45.59 155.17 L 45.42 155.57 L 45.27 155.96 L 45.11 156.34 L 44.93 156.77 L 44.74 157.20 L 44.54 157.62 L 44.35 158.05 L 44.18 158.47 L 44.04 158.90 L 43.96 159.34 L 43.90 159.81 L 43.83 160.26 L 43.86 160.54 L 43.81 160.89 L 43.65 161.34 L 43.46 161.77 L 43.20 162.15 L 42.88 162.48 L 42.52 162.78 L 42.16 163.04 L 41.83 163.24 L 41.50 163.42 L 41.15 163.67 L 40.83 163.98 L 40.55 164.35 L 40.34 164.73 L 40.21 165.13 L 40.11 165.60 L 40.04 166.08 L 40.03 166.46 L 39.99 166.82 L 39.92 167.20 L 39.76 167.65 L 39.55 168.07 L 39.28 168.44 L 38.99 168.80 L 38.70 169.13 L 38.38 169.45 L 38.05 169.78 L 37.73 170.09 L 37.40 170.40 L 37.07 170.73 L 36.76 171.04 L 36.44 171.33 L 36.09 171.65 L 35.73 171.95 L 35.41 172.23 L 35.09 172.52 L 34.71 172.78 L 34.30 173.05 L 33.93 173.25 L 33.66 173.32 L 33.28 173.53 L 32.85 173.74 L 32.40 173.93 L 31.95 174.13 L 31.51 174.27 L 31.08 174.38 L 30.71 174.43 L 30.35 174.47 L 29.93 174.62 L 29.47 174.84 L 29.06 175.08 L 28.73 175.35 L 28.43 175.66 L 28.13 175.94 L 27.80 176.20 L 27.43 176.50 L 27.17 176.71 L 26.94 176.83 L 26.59 177.03 L 26.16 177.28 L 25.78 177.53 L 25.44 177.80" fill="none" stroke="#000000" stroke-width="0.5" stroke-linejoin="round" stroke-linecap="round"/>
</svg>