<?xml version="1.0" encoding="UTF-8"?>
<svg xmlns="http://www.w3.org/2000/svg" viewBox="20.53 140.00 48.14 42.74">
<path d="M 49.00 145.00 L 49.66 145.67 L 50.10 145.86 L 50.69 146.00 L 51.25 146.33 L 51.87 146.58 L 52.56 146.75 L 53.14 147.09 L 53.71 147.43 L 54.29 147.77 L 54.88 148.12 L 55.46 148.46 L 56.05 148.81 L 56.63 149.15 L 57.21 149.49 L 57.77 149.86 L 58.22 150.38 L 58.67 150.89 L 59.12 151.41 L 59.56 151.92 L 60.00 152.43 L 60.44 152.93 L 60.87 153.45 L 61.25 154.03 L 61.61 154.58 L 62.01 155.05 L 62.28 155.71 L 62.51 156.40 L 62.75 157.05 L 63.06 157.58 L 63.33 158.15 L 63.53 158.82 L 63.65 159.45 L 63.67 160.00 L 63.60 160.48 L 63.30 161.06 L 62.89 161.56 L 62.38 161.97 L 61.79 162.25 L 61.19 162.46 L 60.57 162.66 L 59.92 162.83 L 59.26 163.00 L 58.64 163.20 L 58.03 163.40 L 57.41 163.60 L 56.72 163.92 L 56.09 164.17 L 55.50 164.40 L 54.94 164.63 L 54.30 164.88 L 53.62 165.17 L 52.98 165.42 L 52.37 165.62 L 51.78 165.84 L 51.17 166.05 L 50.55 166.27 L 49.86 166.58 L 49.22 166.82 L 48.61 167.02 L 48.00 167.22 L 47.36 167.41 L 46.75 167.61 L 46.14 167.81 L 45.50 168.07 L 44.91 168.45 L 44.43 168.76 L 43.98 169.10 L 43.51 169.52 L 42.98 169.94 L 42.44 170.37 L 41.90 170.79 L 41.35 171.04 L 40.75 171.26 L 40.13 171.46 L 39.47 171.63 L 38.82 171.80 L 38.16 171.97 L 37.51 172.15 L 36.89 172.34 L 36.28 172.54 L 35.63 172.79 L 34.95 173.08 L 34.30 173.32 L 33.70 173.53 L 33.11 173.75 L 32.50 173.95 L 31.88 174.18 L 31.18 174.49 L 30.57 174.73 L 29.99 174.96 L 29.42 175.19 L 28.78 175.46 L 28.15 175.79 L 27.62 176.09 L 27.11 176.45 L 26.55 176.86 L 26.01 177.30 L 25.53 177.74" fill="none" stroke="#000000" stroke-width="0.5" stroke-linejoin="round" stroke-linecap="round"/>
</svg>