<?xml version="1.0" encoding="UTF-8"?>
<svg xmlns="http://www.w3.org/2000/svg" viewBox="20.55 140.00 36.59 42.71">
<path d="M 49.00 145.00 L 48.37 145.03 L 47.94 145.25 L 47.48 145.48 L 46.96 145.75 L 46.44 146.06 L 45.97 146.41 L 45.56 146.80 L 45.20 147.25 L 44.90 147.78 L 44.68 148.32 L 44.59 148.83 L 44.68 149.20 L 44.72 149.73 L 44.78 150.28 L 44.84 150.90 L 45.00 151.37 L 45.20 151.81 L 45.39 152.24 L 45.60 152.69 L 45.77 153.21 L 45.88 153.78 L 46.12 154.16 L 46.50 154.31 L 47.03 154.21 L 47.56 154.11 L 48.13 153.95 L 48.74 153.74 L 49.28 153.65 L 49.51 153.99 L 49.71 154.42 L 49.93 154.88 L 50.15 155.34 L 50.39 155.80 L 50.60 156.25 L 50.81 156.70 L 51.02 157.14 L 51.12 157.75 L 51.27 158.29 L 51.48 158.74 L 51.77 159.02 L 52.04 159.27 L 52.14 159.67 L 51.99 160.25 L 51.75 160.80 L 51.42 161.30 L 51.04 161.72 L 50.62 162.10 L 50.16 162.46 L 49.68 162.80 L 49.19 163.13 L 48.71 163.47 L 48.22 163.81 L 47.72 164.14 L 47.21 164.46 L 46.70 164.77 L 46.21 165.03 L 45.72 165.24 L 45.20 165.51 L 44.69 165.75 L 44.25 165.92 L 43.73 166.23 L 43.22 166.54 L 42.71 166.87 L 42.22 167.20 L 41.74 167.54 L 41.23 167.86 L 40.71 168.18 L 40.20 168.48 L 39.79 168.66 L 39.30 168.94 L 38.78 169.26 L 38.27 169.57 L 37.78 169.90 L 37.29 170.24 L 36.81 170.58 L 36.32 170.91 L 35.83 171.25 L 35.33 171.58 L 34.82 171.89 L 34.30 172.21 L 33.85 172.44 L 33.41 172.66 L 32.89 172.97 L 32.38 173.29 L 31.88 173.62 L 31.39 173.95 L 30.90 174.28 L 30.38 174.60 L 29.87 174.92 L 29.38 175.19 L 28.97 175.37 L 28.45 175.68 L 27.94 176.00 L 27.43 176.32 L 26.94 176.65 L 26.46 176.99 L 25.99 177.34 L 25.55 177.71" fill="none" stroke="#000000" stroke-width="0.5" stroke-linejoin="round" stroke-linecap="round"/>
</svg>