<?xml version="1.0" encoding="UTF-8"?>
<svg xmlns="http://www.w3.org/2000/svg" viewBox="20.98 140.00 36.15 42.34">
<path d="M 49.00 145.00 L 49.48 145.90 L 49.50 146.62 L 49.50 147.53 L 49.60 148.43 L 49.69 149.31 L 49.78 150.20 L 49.82 151.16 L 49.89 152.05 L 49.97 152.92 L 50.04 153.80 L 50.03 154.80 L 50.03 155.79 L 50.13 156.67 L 50.23 157.57 L 50.39 158.42 L 50.67 159.17 L 50.95 159.94 L 51.25 160.69 L 51.64 161.30 L 51.96 161.93 L 52.13 162.68 L 52.07 163.65 L 51.86 164.64 L 51.48 165.61 L 50.92 166.52 L 50.20 167.35 L 49.85 167.41 L 49.87 166.70 L 49.75 165.96 L 49.46 165.24 L 49.06 164.63 L 48.65 164.01 L 48.24 163.39 L 48.00 162.52 L 47.77 161.66 L 47.36 161.04 L 47.00 160.36 L 46.69 159.58 L 46.30 158.90 L 45.89 158.25 L 45.46 157.62 L 45.10 156.91 L 44.87 156.13 L 44.54 155.76 L 44.10 155.87 L 43.52 156.51 L 43.05 157.35 L 43.01 157.93 L 43.18 158.54 L 43.55 159.13 L 43.84 159.90 L 44.01 160.84 L 44.39 161.49 L 44.74 162.17 L 45.04 162.94 L 45.34 163.72 L 45.64 164.47 L 46.03 165.10 L 46.30 165.92 L 46.50 166.83 L 47.01 167.33 L 47.50 167.86 L 47.91 168.48 L 48.28 169.18 L 48.56 169.94 L 48.76 170.71 L 48.88 171.46 L 48.82 172.31 L 48.44 173.33 L 47.91 174.25 L 47.25 175.06 L 46.54 175.66 L 45.78 176.07 L 44.96 176.32 L 44.10 176.43 L 43.39 176.25 L 42.74 175.96 L 42.22 175.46 L 41.60 175.10 L 40.86 174.88 L 39.96 174.90 L 39.15 174.79 L 38.43 174.58 L 37.73 174.39 L 36.98 174.25 L 36.15 174.25 L 35.20 174.40 L 34.30 174.51 L 33.49 174.53 L 32.78 174.43 L 31.98 174.48 L 31.08 174.71 L 30.20 174.96 L 29.29 175.32 L 28.37 175.76 L 27.50 176.25 L 26.73 176.75 L 25.98 177.34" fill="none" stroke="#000000" stroke-width="0.5" stroke-linejoin="round" stroke-linecap="round"/>
</svg>