<?xml version="1.0" encoding="UTF-8"?>
<svg xmlns="http://www.w3.org/2000/svg" viewBox="19.97 140.00 34.03 42.47">
<path d="M 49.00 145.00 L 48.86 145.50 L 48.67 145.92 L 48.51 146.35 L 48.34 146.83 L 48.17 147.30 L 48.03 147.74 L 47.88 148.20 L 47.71 148.67 L 47.56 149.12 L 47.40 149.53 L 47.21 149.99 L 47.04 150.47 L 46.85 150.94 L 46.67 151.37 L 46.49 151.79 L 46.29 152.24 L 46.09 152.69 L 45.87 153.14 L 45.64 153.57 L 45.41 154.01 L 45.17 154.44 L 44.94 154.87 L 44.70 155.30 L 44.46 155.73 L 44.23 156.16 L 43.98 156.59 L 43.71 156.99 L 43.44 157.40 L 43.16 157.80 L 42.86 158.18 L 42.56 158.56 L 42.26 158.94 L 41.97 159.32 L 41.70 159.73 L 41.43 160.14 L 41.17 160.55 L 40.93 160.98 L 40.70 161.41 L 40.46 161.84 L 40.23 162.28 L 39.99 162.71 L 39.75 163.14 L 39.52 163.57 L 39.28 164.00 L 39.04 164.43 L 38.77 164.84 L 38.50 165.24 L 38.23 165.65 L 37.97 166.05 L 37.70 166.46 L 37.43 166.86 L 37.17 167.28 L 36.93 167.71 L 36.66 168.11 L 36.35 168.49 L 36.00 168.84 L 35.90 168.75 L 35.96 168.31 L 35.98 167.82 L 35.94 167.33 L 35.77 167.01 L 35.38 166.98 L 34.87 167.07 L 34.31 167.19 L 33.88 167.21 L 33.48 167.20 L 33.09 167.18 L 32.56 167.37 L 32.11 167.46 L 31.67 167.56 L 31.17 167.76 L 30.70 167.91 L 30.28 168.04 L 29.92 168.12 L 29.43 168.33 L 28.95 168.56 L 28.51 168.78 L 28.12 168.98 L 27.71 169.23 L 27.30 169.50 L 26.92 169.80 L 26.57 170.15 L 26.26 170.51 L 25.99 170.92 L 25.76 171.36 L 25.58 171.82 L 25.46 172.28 L 25.37 172.75 L 25.32 173.21 L 25.29 173.70 L 25.26 174.18 L 25.23 174.66 L 25.22 175.16 L 25.17 175.68 L 25.13 176.16 L 25.16 176.55 L 25.10 176.99 L 24.97 177.47" fill="none" stroke="#000000" stroke-width="0.5" stroke-linejoin="round" stroke-linecap="round"/>
</svg>