<?xml version="1.0" encoding="UTF-8"?>
<svg xmlns="http://www.w3.org/2000/svg" viewBox="18.43 140.00 35.57 42.43">
<path d="M 49.00 145.00 L 48.65 145.31 L 48.34 145.64 L 48.03 145.98 L 47.70 146.30 L 47.38 146.63 L 47.08 146.97 L 46.78 147.32 L 46.49 147.67 L 46.23 148.02 L 45.98 148.39 L 45.75 148.78 L 45.52 149.17 L 45.27 149.54 L 45.01 149.91 L 44.75 150.28 L 44.46 150.63 L 44.16 150.97 L 43.83 151.30 L 43.51 151.62 L 43.18 151.95 L 42.86 152.27 L 42.53 152.60 L 42.21 152.92 L 41.89 153.25 L 41.56 153.57 L 41.25 153.91 L 40.95 154.25 L 40.65 154.60 L 40.37 154.95 L 40.10 155.32 L 39.82 155.68 L 39.52 156.02 L 39.20 156.34 L 38.87 156.59 L 38.52 156.82 L 38.13 157.04 L 37.73 157.22 L 37.34 157.41 L 36.95 157.59 L 36.51 157.83 L 36.09 158.05 L 35.70 158.23 L 35.32 158.42 L 34.90 158.62 L 34.47 158.81 L 34.06 159.01 L 33.66 159.22 L 33.28 159.40 L 32.85 159.65 L 32.44 159.86 L 32.03 160.07 L 31.66 160.27 L 31.27 160.47 L 30.87 160.69 L 30.46 160.94 L 30.09 161.19 L 29.75 161.45 L 29.39 161.75 L 29.04 162.05 L 28.70 162.36 L 28.37 162.69 L 28.04 163.01 L 27.72 163.34 L 27.40 163.66 L 27.07 163.99 L 26.75 164.31 L 26.42 164.64 L 26.10 164.97 L 25.79 165.30 L 25.49 165.65 L 25.20 166.00 L 24.93 166.35 L 24.67 166.71 L 24.43 167.10 L 24.22 167.49 L 24.02 167.90 L 23.84 168.32 L 23.70 168.77 L 23.60 169.22 L 23.53 169.63 L 23.48 170.06 L 23.47 170.51 L 23.43 171.02 L 23.46 171.47 L 23.51 171.89 L 23.58 172.30 L 23.67 172.74 L 23.73 173.24 L 23.84 173.69 L 23.97 174.08 L 24.12 174.45 L 24.22 174.91 L 24.30 175.42 L 24.43 175.85 L 24.56 176.28 L 24.70 176.68 L 24.82 177.03 L 24.84 177.43" fill="none" stroke="#000000" stroke-width="0.5" stroke-linejoin="round" stroke-linecap="round"/>
</svg>