<?xml version="1.0" encoding="UTF-8"?>
<svg xmlns="http://www.w3.org/2000/svg" viewBox="15.93 140.00 56.34 41.51">
<path d="M 49.00 145.00 L 49.65 146.07 L 50.08 146.46 L 50.85 146.53 L 51.71 146.67 L 52.66 146.68 L 53.82 146.36 L 54.88 146.19 L 55.95 146.02 L 56.99 145.89 L 57.69 146.26 L 58.50 146.52 L 59.39 146.68 L 60.29 146.86 L 61.15 147.09 L 61.92 147.44 L 62.64 147.88 L 63.30 148.39 L 63.87 149.04 L 64.43 149.68 L 64.97 150.33 L 65.35 151.20 L 65.72 152.07 L 66.09 152.94 L 66.45 153.80 L 66.80 154.65 L 67.13 155.49 L 67.27 156.51 L 67.25 157.47 L 66.97 158.38 L 66.26 159.51 L 65.66 160.09 L 65.19 160.12 L 64.84 159.64 L 64.44 158.92 L 64.06 158.05 L 63.69 157.19 L 63.32 156.32 L 62.95 155.45 L 62.57 154.58 L 62.03 153.93 L 61.29 153.54 L 60.58 153.10 L 59.88 152.63 L 59.31 151.98 L 58.63 151.50 L 57.92 151.07 L 57.38 150.44 L 56.64 150.12 L 55.55 150.27 L 54.47 150.43 L 53.46 150.51 L 52.54 150.46 L 51.69 150.32 L 50.71 150.32 L 49.62 150.47 L 48.68 150.42 L 47.86 150.36 L 47.24 150.36 L 46.90 150.25 L 46.31 150.74 L 45.54 151.68 L 44.79 152.76 L 44.05 153.97 L 43.21 155.25 L 42.29 156.41 L 41.23 157.46 L 40.05 158.40 L 39.01 158.94 L 38.10 159.13 L 37.50 158.78 L 36.91 158.33 L 36.42 157.75 L 35.52 157.82 L 34.48 158.22 L 33.29 158.94 L 32.12 159.74 L 30.95 160.61 L 29.77 161.56 L 28.67 162.36 L 27.55 163.17 L 26.41 164.00 L 25.44 164.67 L 24.50 165.46 L 23.56 166.41 L 22.61 167.61 L 21.82 168.89 L 21.21 170.25 L 20.97 171.39 L 20.93 172.45 L 21.04 173.45 L 21.54 174.06 L 22.24 174.44 L 23.13 174.60 L 24.02 174.77 L 24.86 174.90 L 25.59 174.94 L 25.83 175.46 L 25.54 176.51" fill="none" stroke="#000000" stroke-width="0.5" stroke-linejoin="round" stroke-linecap="round"/>
</svg>