<?xml version="1.0" encoding="UTF-8"?>
<svg xmlns="http://www.w3.org/2000/svg" viewBox="19.34 140.00 34.66 42.44">
<path d="M 49.00 145.00 L 48.51 145.26 L 48.17 145.63 L 47.85 146.02 L 47.53 146.45 L 47.25 146.89 L 47.03 147.30 L 46.80 147.77 L 46.57 148.27 L 46.36 148.78 L 46.13 149.27 L 45.90 149.75 L 45.70 150.17 L 45.49 150.66 L 45.29 151.18 L 45.08 151.69 L 44.87 152.15 L 44.68 152.58 L 44.46 153.09 L 44.26 153.60 L 44.05 154.11 L 43.87 154.56 L 43.70 155.05 L 43.50 155.56 L 43.33 156.04 L 43.13 156.51 L 42.89 157.00 L 42.65 157.49 L 42.39 157.97 L 42.15 158.45 L 41.95 158.97 L 41.82 159.52 L 41.78 160.05 L 41.93 160.46 L 42.21 160.79 L 42.61 161.03 L 43.00 161.26 L 43.33 161.51 L 43.39 162.02 L 43.37 162.57 L 43.26 163.13 L 43.06 163.63 L 42.84 164.08 L 42.57 164.49 L 42.27 164.89 L 41.94 165.32 L 41.60 165.71 L 41.27 166.09 L 40.92 166.50 L 40.56 166.90 L 40.22 167.32 L 39.93 167.72 L 39.62 168.14 L 39.30 168.57 L 38.96 168.98 L 38.63 169.41 L 38.31 169.84 L 38.00 170.26 L 37.69 170.68 L 37.37 171.11 L 37.02 171.52 L 36.63 171.90 L 36.22 172.27 L 35.85 172.49 L 35.51 172.61 L 35.05 172.78 L 34.52 172.93 L 33.91 173.10 L 33.39 173.13 L 32.96 173.06 L 32.64 172.88 L 32.34 172.72 L 31.86 172.87 L 31.35 173.13 L 30.86 173.43 L 30.39 173.71 L 29.90 173.97 L 29.42 174.11 L 29.24 173.73 L 29.01 173.32 L 28.77 172.90 L 28.53 172.48 L 28.29 172.06 L 27.91 171.86 L 27.32 172.05 L 27.04 171.94 L 26.68 172.09 L 26.26 172.41 L 25.85 172.77 L 25.50 173.19 L 25.21 173.64 L 24.96 174.12 L 24.73 174.61 L 24.54 175.11 L 24.41 175.63 L 24.34 176.18 L 24.34 176.74 L 24.46 177.11 L 24.57 177.44" fill="none" stroke="#000000" stroke-width="0.5" stroke-linejoin="round" stroke-linecap="round"/>
</svg>