<?xml version="1.0" encoding="UTF-8"?>
<svg xmlns="http://www.w3.org/2000/svg" viewBox="20.77 140.00 44.04 42.73">
<path d="M 49.00 145.00 L 50.00 145.63 L 50.39 146.10 L 50.81 146.71 L 51.32 147.41 L 51.88 148.04 L 52.52 148.57 L 53.18 149.08 L 53.78 149.67 L 54.50 150.05 L 55.15 150.50 L 55.68 151.08 L 55.99 151.93 L 56.27 152.77 L 56.53 153.59 L 57.25 153.77 L 58.00 153.67 L 58.59 153.54 L 58.71 153.82 L 58.43 154.36 L 57.93 154.93 L 57.38 155.53 L 56.87 156.04 L 56.50 156.60 L 56.33 157.15 L 56.28 157.75 L 56.37 158.44 L 56.56 159.21 L 56.76 159.99 L 56.96 160.76 L 57.07 161.67 L 57.18 162.61 L 57.41 163.42 L 57.71 164.10 L 58.13 164.60 L 58.82 164.65 L 59.51 164.47 L 59.81 164.52 L 59.38 165.25 L 58.85 165.77 L 58.18 166.12 L 57.38 166.37 L 56.64 166.32 L 56.01 166.00 L 55.47 165.50 L 55.01 164.81 L 54.64 164.00 L 53.94 163.64 L 53.39 163.10 L 53.07 162.27 L 52.62 161.61 L 52.22 160.93 L 51.93 160.09 L 51.63 159.23 L 51.31 158.39 L 50.86 157.73 L 50.38 157.06 L 49.84 156.47 L 49.31 155.90 L 48.78 155.54 L 48.17 155.56 L 47.46 155.86 L 46.85 156.32 L 46.31 156.90 L 45.81 157.56 L 45.39 158.20 L 44.92 158.85 L 44.39 159.49 L 43.86 160.14 L 43.27 160.74 L 42.66 161.32 L 42.05 161.90 L 41.47 162.51 L 40.91 163.13 L 40.36 163.76 L 39.82 164.40 L 39.29 165.05 L 38.75 165.69 L 38.21 166.33 L 37.64 166.94 L 37.05 167.54 L 36.46 168.14 L 35.84 168.72 L 35.23 169.30 L 34.62 169.88 L 34.00 170.47 L 33.39 171.05 L 32.77 171.63 L 32.16 172.21 L 31.54 172.79 L 30.93 173.37 L 30.30 173.94 L 29.66 174.50 L 29.01 175.07 L 28.39 175.60 L 27.76 176.13 L 27.07 176.66 L 26.39 177.20 L 25.77 177.73" fill="none" stroke="#000000" stroke-width="0.5" stroke-linejoin="round" stroke-linecap="round"/>
</svg>