<?xml version="1.0" encoding="UTF-8"?>
<svg xmlns="http://www.w3.org/2000/svg" viewBox="20.41 140.00 33.59 42.64">
<path d="M 49.00 145.00 L 48.53 145.23 L 48.21 145.60 L 47.84 145.99 L 47.46 146.33 L 47.10 146.67 L 46.75 146.98 L 46.36 147.30 L 45.89 147.58 L 45.36 147.82 L 44.91 147.93 L 44.47 147.96 L 43.91 148.11 L 43.41 148.12 L 42.93 148.10 L 42.43 148.15 L 41.92 148.22 L 41.40 148.33 L 40.87 148.57 L 40.43 148.70 L 39.96 148.94 L 39.51 149.27 L 39.12 149.56 L 38.74 149.89 L 38.32 150.25 L 37.88 150.60 L 37.53 150.93 L 37.26 151.30 L 36.94 151.63 L 36.67 151.87 L 36.45 152.08 L 36.15 152.43 L 35.83 152.81 L 35.46 153.20 L 35.10 153.56 L 34.83 153.93 L 34.59 154.30 L 34.36 154.62 L 34.08 155.03 L 33.83 155.45 L 33.56 155.89 L 33.28 156.34 L 33.02 156.81 L 32.77 157.29 L 32.65 157.58 L 32.53 157.93 L 32.36 158.42 L 32.20 158.93 L 32.04 159.42 L 31.87 159.92 L 31.71 160.47 L 31.69 160.99 L 31.75 161.47 L 31.88 161.92 L 32.06 162.40 L 32.26 162.90 L 32.47 163.41 L 32.72 163.87 L 32.99 164.30 L 33.22 164.80 L 33.44 165.31 L 33.67 165.83 L 33.94 166.30 L 34.26 166.70 L 34.61 167.06 L 35.03 167.31 L 35.55 167.43 L 36.13 167.44 L 36.39 167.81 L 36.51 168.25 L 36.59 168.66 L 36.52 169.17 L 36.33 169.69 L 36.08 170.16 L 35.74 170.56 L 35.36 170.91 L 34.94 171.27 L 34.55 171.49 L 34.10 171.69 L 33.58 171.98 L 33.15 172.13 L 32.75 172.26 L 32.27 172.53 L 31.76 172.79 L 31.27 173.05 L 30.80 173.33 L 30.36 173.60 L 29.93 173.86 L 29.47 174.15 L 29.00 174.46 L 28.56 174.77 L 28.17 175.05 L 27.76 175.39 L 27.34 175.75 L 26.93 176.11 L 26.54 176.48 L 26.15 176.86 L 25.78 177.25 L 25.41 177.64" fill="none" stroke="#000000" stroke-width="0.5" stroke-linejoin="round" stroke-linecap="round"/>
</svg>