<?xml version="1.0" encoding="UTF-8"?>
<svg xmlns="http://www.w3.org/2000/svg" viewBox="13.98 140.00 40.02 42.42">
<path d="M 49.00 145.00 L 48.78 145.52 L 48.50 146.00 L 48.23 146.48 L 47.98 146.98 L 47.73 147.49 L 47.48 148.00 L 47.25 148.48 L 47.02 148.95 L 46.78 149.46 L 46.55 149.98 L 46.32 150.50 L 46.08 151.01 L 45.87 151.49 L 45.65 151.96 L 45.41 152.47 L 45.19 152.99 L 44.96 153.52 L 44.74 154.04 L 44.55 154.55 L 44.40 155.07 L 44.23 155.58 L 44.04 156.06 L 43.79 156.51 L 43.47 156.91 L 43.06 157.25 L 42.61 157.51 L 42.18 157.62 L 41.74 157.63 L 41.19 157.83 L 40.68 157.99 L 40.20 158.11 L 39.64 158.38 L 39.10 158.61 L 38.64 158.75 L 38.17 158.93 L 37.64 159.13 L 37.08 159.31 L 36.54 159.50 L 36.02 159.66 L 35.51 159.76 L 34.94 159.93 L 34.41 160.04 L 33.97 160.01 L 33.39 160.16 L 32.80 160.28 L 32.24 160.35 L 31.75 160.32 L 31.24 160.31 L 30.66 160.36 L 30.11 160.39 L 29.56 160.43 L 29.00 160.49 L 28.44 160.56 L 27.88 160.63 L 27.33 160.70 L 26.77 160.77 L 26.22 160.84 L 25.66 160.91 L 25.12 160.98 L 24.59 161.07 L 24.10 161.19 L 23.60 161.38 L 23.13 161.63 L 22.63 161.95 L 22.15 162.28 L 21.71 162.65 L 21.34 162.99 L 21.00 163.34 L 20.64 163.76 L 20.30 164.20 L 20.01 164.68 L 19.77 165.18 L 19.55 165.68 L 19.36 166.18 L 19.18 166.74 L 19.06 167.29 L 18.98 167.85 L 18.98 168.36 L 19.03 168.90 L 19.11 169.47 L 19.30 169.96 L 19.50 170.47 L 19.72 170.99 L 20.00 171.47 L 20.33 171.91 L 20.70 172.29 L 21.09 172.67 L 21.47 173.06 L 21.80 173.54 L 22.17 173.96 L 22.55 174.34 L 22.93 174.72 L 23.27 175.16 L 23.52 175.70 L 23.84 176.13 L 24.20 176.50 L 24.38 176.99 L 24.53 177.42" fill="none" stroke="#000000" stroke-width="0.5" stroke-linejoin="round" stroke-linecap="round"/>
</svg>