<?xml version="1.0" encoding="UTF-8"?>
<svg xmlns="http://www.w3.org/2000/svg" viewBox="20.09 140.00 33.91 42.57">
<path d="M 49.00 145.00 L 48.62 145.03 L 48.33 145.21 L 47.99 145.40 L 47.60 145.64 L 47.32 145.74 L 46.98 145.95 L 46.64 146.17 L 46.32 146.37 L 45.98 146.63 L 45.65 146.90 L 45.32 147.18 L 45.00 147.48 L 44.70 147.78 L 44.41 148.09 L 44.11 148.40 L 43.80 148.72 L 43.51 149.03 L 43.22 149.34 L 42.92 149.66 L 42.62 149.97 L 42.32 150.29 L 42.04 150.60 L 41.76 150.92 L 41.48 151.26 L 41.20 151.59 L 40.93 151.92 L 40.66 152.27 L 40.39 152.61 L 40.14 152.96 L 39.88 153.32 L 39.62 153.66 L 39.36 154.02 L 39.11 154.37 L 38.87 154.73 L 38.61 155.08 L 38.35 155.43 L 38.09 155.78 L 37.85 156.14 L 37.62 156.51 L 37.39 156.88 L 37.16 157.25 L 36.97 157.60 L 36.79 157.99 L 36.60 158.39 L 36.43 158.77 L 36.27 159.14 L 36.08 159.54 L 35.90 159.92 L 35.74 160.27 L 35.54 160.66 L 35.35 161.06 L 35.16 161.47 L 34.99 161.85 L 34.82 162.22 L 34.69 162.57 L 34.53 162.98 L 34.36 163.39 L 34.21 163.78 L 34.05 164.15 L 33.90 164.53 L 33.74 164.94 L 33.59 165.35 L 33.46 165.74 L 33.33 166.12 L 33.22 166.51 L 33.10 166.91 L 32.99 167.29 L 32.87 167.66 L 32.74 168.04 L 32.55 168.44 L 32.35 168.79 L 32.13 169.11 L 31.87 169.43 L 31.60 169.74 L 31.31 170.04 L 30.99 170.33 L 30.66 170.63 L 30.35 170.92 L 30.04 171.21 L 29.73 171.50 L 29.40 171.80 L 29.09 172.09 L 28.78 172.38 L 28.49 172.68 L 28.19 173.00 L 27.90 173.32 L 27.62 173.66 L 27.35 173.99 L 27.09 174.32 L 26.82 174.66 L 26.55 175.01 L 26.30 175.35 L 26.05 175.71 L 25.82 176.09 L 25.61 176.47 L 25.41 176.87 L 25.26 177.21 L 25.09 177.57" fill="none" stroke="#000000" stroke-width="0.5" stroke-linejoin="round" stroke-linecap="round"/>
</svg>