<?xml version="1.0" encoding="UTF-8"?>
<svg xmlns="http://www.w3.org/2000/svg" viewBox="16.17 140.00 52.33 42.42">
<path d="M 49.00 145.00 L 50.06 145.59 L 50.57 145.91 L 51.07 146.45 L 51.71 146.97 L 52.26 147.55 L 52.98 147.88 L 53.79 148.07 L 54.04 149.03 L 54.74 149.39 L 55.53 149.60 L 56.21 149.98 L 56.95 150.34 L 57.73 150.66 L 58.58 150.91 L 59.17 151.52 L 59.76 152.12 L 60.39 152.69 L 61.12 153.12 L 61.77 153.64 L 62.39 154.16 L 62.92 154.72 L 63.25 155.45 L 63.45 156.24 L 63.50 157.11 L 63.41 157.97 L 63.15 158.75 L 62.73 159.41 L 62.15 159.96 L 61.53 160.27 L 60.94 160.26 L 60.30 160.03 L 59.57 159.73 L 58.72 159.54 L 58.03 159.10 L 57.42 158.59 L 56.58 158.40 L 55.73 158.21 L 54.87 158.02 L 54.03 157.83 L 53.27 157.52 L 52.51 157.19 L 51.64 156.99 L 50.84 156.69 L 50.10 156.33 L 49.40 155.93 L 48.59 155.67 L 47.74 155.48 L 46.89 155.29 L 46.06 155.12 L 45.26 154.97 L 44.49 154.83 L 43.68 154.80 L 42.80 154.98 L 42.00 155.15 L 41.21 155.38 L 40.36 155.75 L 39.55 156.09 L 38.77 156.41 L 38.00 156.75 L 37.25 157.09 L 36.51 157.44 L 35.77 157.79 L 34.96 158.24 L 34.18 158.64 L 33.44 158.99 L 32.72 159.36 L 31.95 159.70 L 31.17 160.03 L 30.38 160.44 L 29.69 160.75 L 29.00 161.13 L 28.29 161.65 L 27.62 162.16 L 26.97 162.68 L 26.26 163.22 L 25.54 163.73 L 24.91 164.13 L 24.45 164.44 L 23.86 164.95 L 23.30 165.53 L 22.88 166.18 L 22.57 166.97 L 22.43 167.77 L 22.53 168.41 L 22.45 169.14 L 22.32 169.87 L 22.22 170.58 L 21.98 171.38 L 21.72 172.18 L 21.48 172.96 L 21.25 173.76 L 21.17 174.60 L 21.22 175.47 L 21.45 176.23 L 21.97 176.71 L 22.75 176.91 L 23.39 177.19 L 23.95 177.42" fill="none" stroke="#000000" stroke-width="0.5" stroke-linejoin="round" stroke-linecap="round"/>
</svg>