<?xml version="1.0" encoding="UTF-8"?>
<svg xmlns="http://www.w3.org/2000/svg" viewBox="20.94 140.00 35.27 42.70">
<path d="M 49.00 145.00 L 49.65 146.11 L 49.93 146.69 L 50.25 147.40 L 50.39 148.50 L 50.61 149.47 L 50.83 150.37 L 50.91 151.42 L 50.99 152.47 L 51.08 153.53 L 51.13 154.56 L 51.12 155.55 L 51.21 156.19 L 50.87 157.09 L 50.29 158.01 L 50.05 158.13 L 50.23 157.27 L 50.27 156.30 L 50.11 155.36 L 49.86 154.45 L 49.59 153.53 L 49.29 152.58 L 48.99 151.64 L 48.65 150.73 L 48.29 149.83 L 47.91 148.92 L 47.51 148.00 L 46.86 147.41 L 46.27 146.78 L 45.70 146.15 L 44.98 145.74 L 43.92 145.94 L 43.00 146.21 L 42.44 146.42 L 41.79 147.19 L 41.40 147.99 L 41.43 148.58 L 41.93 148.96 L 42.44 149.60 L 43.01 150.30 L 43.57 151.01 L 43.95 151.93 L 44.31 152.82 L 44.62 153.73 L 44.90 154.66 L 45.05 155.73 L 45.20 156.76 L 45.43 157.66 L 45.56 158.64 L 45.63 159.69 L 45.69 160.72 L 45.71 161.73 L 45.71 162.76 L 45.61 163.89 L 45.54 164.94 L 45.49 165.89 L 45.35 166.97 L 45.21 168.09 L 45.04 169.22 L 44.98 170.18 L 44.91 171.20 L 44.78 172.30 L 44.68 173.29 L 44.47 174.15 L 44.00 175.01 L 43.37 175.77 L 42.63 176.33 L 42.13 176.23 L 41.32 176.22 L 40.35 176.21 L 39.38 176.12 L 38.43 176.04 L 37.47 175.96 L 36.51 175.89 L 35.51 175.88 L 34.53 175.82 L 33.58 175.77 L 32.61 175.78 L 32.01 175.32 L 31.82 174.34 L 31.72 173.27 L 31.65 172.22 L 31.64 171.23 L 31.67 170.25 L 31.59 169.41 L 30.54 170.01 L 30.32 169.71 L 30.65 168.96 L 30.31 169.21 L 29.68 169.95 L 29.29 170.66 L 28.91 171.60 L 28.68 172.52 L 28.50 173.39 L 28.12 174.31 L 27.71 175.24 L 27.19 176.11 L 26.53 177.01 L 25.94 177.70" fill="none" stroke="#000000" stroke-width="0.5" stroke-linejoin="round" stroke-linecap="round"/>
</svg>