<?xml version="1.0" encoding="UTF-8"?>
<svg xmlns="http://www.w3.org/2000/svg" viewBox="18.75 140.00 35.25 42.67">
<path d="M 49.00 145.00 L 48.55 145.24 L 48.20 145.51 L 47.83 145.76 L 47.45 146.00 L 47.05 146.23 L 46.64 146.48 L 46.23 146.73 L 45.83 146.96 L 45.45 147.20 L 45.06 147.43 L 44.67 147.67 L 44.27 147.95 L 43.90 148.20 L 43.51 148.47 L 43.12 148.75 L 42.74 149.00 L 42.38 149.25 L 42.01 149.51 L 41.62 149.79 L 41.23 150.06 L 40.85 150.33 L 40.48 150.63 L 40.14 150.90 L 39.78 151.19 L 39.41 151.49 L 39.04 151.79 L 38.68 152.08 L 38.32 152.36 L 37.95 152.66 L 37.60 152.94 L 37.26 153.23 L 36.91 153.54 L 36.55 153.86 L 36.19 154.17 L 35.85 154.49 L 35.51 154.79 L 35.17 155.09 L 34.83 155.41 L 34.48 155.73 L 34.14 156.06 L 33.82 156.40 L 33.49 156.73 L 33.17 157.07 L 32.85 157.41 L 32.53 157.75 L 32.21 158.09 L 31.89 158.43 L 31.57 158.77 L 31.25 159.12 L 30.94 159.47 L 30.65 159.82 L 30.35 160.18 L 30.05 160.54 L 29.75 160.90 L 29.47 161.27 L 29.20 161.64 L 28.91 162.01 L 28.63 162.37 L 28.36 162.75 L 28.13 163.16 L 27.95 163.61 L 27.82 164.08 L 27.80 164.50 L 27.90 164.89 L 28.10 165.24 L 28.40 165.53 L 28.68 165.83 L 28.89 166.14 L 29.03 166.43 L 28.99 166.86 L 28.84 167.33 L 28.65 167.77 L 28.41 168.17 L 28.17 168.57 L 27.92 168.96 L 27.69 169.36 L 27.46 169.77 L 27.24 170.18 L 27.01 170.60 L 26.80 171.02 L 26.60 171.44 L 26.40 171.86 L 26.21 172.26 L 26.01 172.68 L 25.80 173.10 L 25.60 173.52 L 25.36 173.93 L 25.12 174.32 L 24.87 174.72 L 24.61 175.10 L 24.32 175.46 L 24.07 175.86 L 23.88 176.28 L 23.75 176.72 L 23.88 176.92 L 24.05 177.17 L 24.16 177.51 L 24.44 177.67" fill="none" stroke="#000000" stroke-width="0.5" stroke-linejoin="round" stroke-linecap="round"/>
</svg>