<?xml version="1.0" encoding="UTF-8"?>
<svg xmlns="http://www.w3.org/2000/svg" viewBox="20.57 140.00 51.66 41.67">
<path d="M 49.00 145.00 L 48.13 146.57 L 47.65 147.62 L 47.89 147.83 L 48.39 147.79 L 49.11 147.63 L 49.68 147.77 L 50.33 147.77 L 51.09 147.64 L 52.01 147.27 L 52.66 147.27 L 53.00 147.69 L 53.75 147.55 L 54.60 147.28 L 55.51 146.94 L 55.93 147.28 L 56.39 147.56 L 56.94 147.72 L 57.12 148.40 L 57.26 149.13 L 57.78 149.35 L 58.43 149.37 L 59.18 149.23 L 59.93 149.09 L 60.61 148.85 L 61.35 148.29 L 61.29 148.68 L 60.65 149.87 L 59.94 151.15 L 59.28 152.37 L 59.77 152.03 L 60.26 151.90 L 60.73 152.00 L 61.29 152.16 L 61.98 152.15 L 62.74 152.02 L 63.31 152.16 L 63.97 152.17 L 64.72 152.03 L 65.29 152.13 L 66.04 151.97 L 67.04 151.36 L 67.23 151.74 L 66.92 152.57 L 66.10 153.86 L 64.99 155.32 L 64.17 156.13 L 63.32 156.74 L 62.66 156.94 L 61.84 157.23 L 60.91 157.65 L 59.99 158.08 L 59.21 158.34 L 58.50 158.51 L 57.35 159.35 L 56.45 160.03 L 55.87 160.30 L 54.78 161.28 L 53.61 162.35 L 52.72 163.08 L 51.98 163.83 L 51.33 164.45 L 50.27 165.47 L 50.32 164.94 L 49.47 165.64 L 48.54 166.45 L 47.96 166.71 L 47.05 167.20 L 46.54 167.07 L 45.71 167.33 L 44.83 167.66 L 44.07 167.79 L 43.74 167.47 L 43.64 166.87 L 43.18 166.78 L 42.27 167.31 L 41.85 167.16 L 41.69 166.66 L 40.83 167.13 L 40.04 167.38 L 39.29 167.51 L 38.53 167.65 L 37.84 167.69 L 37.30 167.54 L 36.57 167.65 L 35.79 167.86 L 34.89 168.30 L 34.00 168.75 L 32.98 169.46 L 31.78 170.42 L 30.99 170.93 L 30.03 171.84 L 29.52 172.15 L 28.73 172.79 L 27.74 173.82 L 26.78 174.96 L 26.47 175.42 L 26.08 175.99 L 25.57 176.67" fill="none" stroke="#000000" stroke-width="0.5" stroke-linejoin="round" stroke-linecap="round"/>
</svg>