<?xml version="1.0" encoding="UTF-8"?>
<svg xmlns="http://www.w3.org/2000/svg" viewBox="20.83 140.00 33.17 42.09">
<path d="M 49.00 145.00 L 48.98 145.37 L 48.57 145.76 L 48.13 146.08 L 48.12 145.69 L 47.80 145.47 L 47.29 145.35 L 46.70 145.32 L 46.25 145.27 L 45.92 145.28 L 45.55 145.61 L 45.36 145.93 L 45.41 146.16 L 45.68 146.33 L 46.27 146.30 L 46.90 146.26 L 47.32 146.41 L 47.59 146.56 L 47.59 146.86 L 46.84 148.01 L 46.31 148.63 L 45.54 149.36 L 44.69 150.00 L 43.99 150.43 L 43.27 151.08 L 42.73 151.68 L 42.69 151.79 L 43.10 151.49 L 43.73 151.05 L 44.30 150.81 L 44.90 150.47 L 45.60 149.80 L 45.12 150.56 L 44.38 151.58 L 43.71 152.47 L 43.11 153.20 L 42.58 153.80 L 43.20 152.80 L 42.62 153.46 L 41.84 154.43 L 41.04 155.35 L 40.24 156.22 L 39.41 157.13 L 38.60 158.08 L 37.77 159.17 L 38.28 158.57 L 39.17 157.57 L 40.06 156.70 L 40.89 155.93 L 41.60 155.28 L 42.46 154.42 L 43.09 153.91 L 42.45 155.12 L 42.48 155.36 L 43.16 154.69 L 42.53 155.83 L 41.92 156.99 L 41.31 158.14 L 40.68 159.27 L 40.01 160.44 L 39.32 161.61 L 38.66 162.73 L 37.96 163.89 L 37.26 165.04 L 36.57 166.14 L 35.80 167.26 L 34.98 168.36 L 34.09 169.42 L 33.26 170.32 L 32.47 171.07 L 31.69 171.67 L 30.73 172.48 L 29.99 173.00 L 29.97 172.60 L 30.57 171.45 L 31.22 170.27 L 31.91 169.08 L 32.64 167.90 L 33.39 166.74 L 34.12 165.61 L 34.69 164.57 L 35.35 163.36 L 35.88 162.34 L 35.94 161.99 L 35.48 162.42 L 34.54 163.45 L 33.61 164.48 L 32.77 165.55 L 32.04 166.54 L 31.31 167.55 L 30.58 168.62 L 29.84 169.77 L 29.20 170.94 L 28.63 172.11 L 28.21 173.05 L 27.76 173.96 L 27.27 174.86 L 26.54 176.03 L 25.83 177.09" fill="none" stroke="#000000" stroke-width="0.5" stroke-linejoin="round" stroke-linecap="round"/>
</svg>