<?xml version="1.0" encoding="UTF-8"?>
<svg xmlns="http://www.w3.org/2000/svg" viewBox="20.24 140.00 50.37 42.25">
<path d="M 49.00 145.00 L 49.91 145.47 L 50.43 145.54 L 51.10 145.55 L 51.91 145.56 L 52.78 145.48 L 53.54 145.55 L 54.22 145.76 L 54.83 146.07 L 55.51 146.31 L 56.24 146.51 L 57.03 146.62 L 57.82 146.72 L 58.61 146.82 L 59.27 147.08 L 59.97 147.31 L 60.77 147.42 L 61.53 147.60 L 62.21 147.91 L 62.89 148.22 L 63.58 148.53 L 64.27 148.84 L 64.86 149.08 L 65.35 149.27 L 65.61 149.47 L 65.28 150.16 L 64.80 150.75 L 64.30 151.05 L 63.74 151.14 L 63.02 151.33 L 62.23 151.46 L 61.43 151.59 L 60.76 151.57 L 60.08 151.56 L 59.28 151.69 L 58.47 151.81 L 57.68 151.94 L 57.00 151.92 L 56.25 151.96 L 55.44 152.08 L 54.73 152.06 L 54.05 152.03 L 53.25 152.15 L 52.44 152.26 L 51.63 152.39 L 50.94 152.39 L 50.24 152.36 L 49.44 152.46 L 48.67 152.52 L 47.99 152.50 L 47.21 152.61 L 46.41 152.73 L 45.60 152.85 L 44.90 152.87 L 44.23 152.86 L 43.47 152.96 L 42.69 153.10 L 41.91 153.25 L 41.17 153.41 L 40.45 153.59 L 39.76 153.80 L 39.05 154.04 L 38.31 154.35 L 37.59 154.72 L 36.99 155.00 L 36.39 155.38 L 35.77 155.84 L 35.15 156.31 L 34.56 156.81 L 34.02 157.35 L 33.53 157.91 L 33.08 158.50 L 32.64 159.10 L 32.21 159.71 L 31.79 160.34 L 31.43 161.02 L 31.08 161.71 L 30.74 162.41 L 30.45 163.03 L 30.16 163.69 L 29.89 164.42 L 29.66 165.18 L 29.42 165.90 L 29.20 166.57 L 28.96 167.28 L 28.73 168.03 L 28.50 168.79 L 28.25 169.51 L 28.03 170.17 L 27.76 170.88 L 27.48 171.61 L 27.20 172.33 L 26.90 173.04 L 26.62 173.76 L 26.34 174.49 L 26.09 175.17 L 25.85 175.84 L 25.56 176.55 L 25.24 177.25" fill="none" stroke="#000000" stroke-width="0.5" stroke-linejoin="round" stroke-linecap="round"/>
</svg>