<?xml version="1.0" encoding="UTF-8"?>
<svg xmlns="http://www.w3.org/2000/svg" viewBox="17.44 140.00 39.98 42.45">
<path d="M 49.00 145.00 L 49.78 145.55 L 50.10 145.88 L 50.35 146.43 L 50.59 147.16 L 50.79 147.92 L 50.98 148.67 L 51.25 149.28 L 51.50 149.90 L 51.65 150.63 L 51.80 151.35 L 51.90 152.13 L 51.94 152.98 L 52.06 153.69 L 52.18 154.40 L 52.29 155.10 L 52.36 155.87 L 52.41 156.64 L 52.42 157.40 L 52.37 158.19 L 52.29 158.95 L 52.14 159.71 L 51.81 160.44 L 51.36 161.07 L 50.84 161.52 L 50.48 161.49 L 50.12 161.24 L 49.64 160.91 L 49.08 160.51 L 48.48 160.17 L 47.86 159.88 L 47.23 159.59 L 46.61 159.33 L 45.93 159.18 L 45.23 159.08 L 44.51 159.04 L 43.76 159.12 L 43.03 159.22 L 42.34 159.36 L 41.58 159.65 L 40.85 159.99 L 40.14 160.38 L 39.46 160.82 L 38.80 161.31 L 38.19 161.86 L 37.62 162.46 L 37.08 163.09 L 36.58 163.75 L 36.12 164.46 L 35.72 165.20 L 35.36 165.96 L 35.07 166.72 L 34.84 167.51 L 34.67 168.31 L 34.64 169.01 L 34.64 169.74 L 34.66 170.51 L 34.68 171.36 L 34.78 172.06 L 34.92 172.71 L 35.10 173.36 L 35.12 174.26 L 35.24 174.92 L 35.43 175.25 L 35.30 175.76 L 34.96 176.34 L 34.49 176.83 L 33.94 177.13 L 33.29 177.29 L 32.55 177.39 L 31.81 177.44 L 31.08 177.45 L 30.36 177.41 L 29.65 177.33 L 28.95 177.22 L 28.24 177.10 L 27.56 176.91 L 26.93 176.64 L 26.41 176.22 L 25.92 175.73 L 25.42 175.32 L 24.95 175.00 L 24.63 174.58 L 24.52 173.93 L 24.62 172.98 L 24.74 172.11 L 24.76 171.50 L 24.63 171.22 L 24.00 171.67 L 23.42 172.24 L 22.92 172.92 L 22.60 173.65 L 22.45 174.37 L 22.44 175.10 L 22.57 175.81 L 22.87 176.40 L 23.34 176.83 L 23.80 177.15 L 24.20 177.43" fill="none" stroke="#000000" stroke-width="0.5" stroke-linejoin="round" stroke-linecap="round"/>
</svg>