<?xml version="1.0" encoding="UTF-8"?>
<svg xmlns="http://www.w3.org/2000/svg" viewBox="13.35 140.00 40.65 42.39">
<path d="M 49.00 145.00 L 48.43 145.36 L 47.96 145.75 L 47.47 146.12 L 46.99 146.46 L 46.51 146.83 L 46.01 147.20 L 45.48 147.59 L 44.99 147.99 L 44.56 148.37 L 44.12 148.77 L 43.63 149.17 L 43.13 149.59 L 42.67 149.99 L 42.20 150.38 L 41.73 150.80 L 41.27 151.21 L 40.82 151.61 L 40.40 152.07 L 39.99 152.55 L 39.60 153.04 L 39.28 153.55 L 38.98 154.09 L 38.68 154.64 L 38.48 155.14 L 38.27 155.70 L 38.04 156.31 L 37.90 156.88 L 37.74 157.43 L 37.58 158.04 L 37.44 158.68 L 37.32 159.33 L 37.25 159.92 L 37.19 160.51 L 37.16 161.13 L 37.15 161.76 L 37.14 162.39 L 37.12 163.02 L 37.11 163.65 L 37.10 164.28 L 37.09 164.91 L 37.09 165.55 L 37.11 166.20 L 37.12 166.85 L 37.18 167.40 L 37.22 167.93 L 37.18 168.54 L 37.05 169.17 L 36.83 169.75 L 36.51 170.27 L 36.12 170.75 L 35.71 171.10 L 35.27 171.35 L 34.67 171.68 L 34.18 171.78 L 33.57 171.96 L 32.92 172.12 L 32.22 172.23 L 31.75 172.00 L 31.29 171.70 L 30.80 171.39 L 30.19 171.17 L 29.59 170.96 L 29.00 170.73 L 28.45 170.46 L 27.85 170.24 L 27.26 170.03 L 26.66 169.82 L 26.08 169.62 L 25.50 169.42 L 24.92 169.22 L 24.24 169.17 L 23.63 169.06 L 23.10 168.89 L 22.48 168.89 L 21.86 168.89 L 21.17 169.02 L 20.57 169.11 L 20.04 169.18 L 19.49 169.41 L 19.02 169.73 L 18.64 170.18 L 18.35 170.75 L 18.41 171.09 L 18.58 171.48 L 18.75 172.07 L 19.13 172.52 L 19.50 173.00 L 19.85 173.54 L 20.32 173.94 L 20.82 174.29 L 21.26 174.74 L 21.70 175.19 L 22.13 175.65 L 22.57 176.10 L 23.16 176.33 L 23.69 176.64 L 24.06 177.04 L 24.35 177.39" fill="none" stroke="#000000" stroke-width="0.5" stroke-linejoin="round" stroke-linecap="round"/>
</svg>