<?xml version="1.0" encoding="UTF-8"?>
<svg xmlns="http://www.w3.org/2000/svg" viewBox="20.23 140.00 33.77 43.00">
<path d="M 49.00 145.00 L 48.13 145.84 L 47.47 146.59 L 46.90 147.19 L 46.19 147.97 L 45.37 148.95 L 44.45 150.16 L 43.64 151.28 L 42.93 152.34 L 42.63 152.91 L 42.55 153.20 L 43.28 152.42 L 44.07 151.56 L 44.93 150.62 L 45.89 149.53 L 46.76 148.58 L 47.34 148.03 L 47.29 148.36 L 47.24 148.71 L 47.19 149.05 L 46.93 149.63 L 46.46 150.44 L 45.65 151.67 L 44.82 152.91 L 43.92 154.20 L 43.23 155.12 L 42.93 155.48 L 41.94 156.78 L 41.08 157.92 L 40.24 159.07 L 39.34 160.29 L 38.49 161.44 L 38.87 160.93 L 39.41 160.17 L 38.44 161.49 L 37.55 162.72 L 36.73 163.84 L 35.85 165.04 L 35.22 165.94 L 35.36 165.79 L 36.20 164.68 L 35.63 165.49 L 34.89 166.49 L 34.22 167.31 L 33.58 168.04 L 32.91 168.74 L 32.17 169.51 L 31.42 170.29 L 30.68 171.07 L 29.95 171.85 L 29.69 172.00 L 30.40 170.82 L 31.12 169.64 L 31.86 168.45 L 32.70 167.16 L 33.48 165.97 L 34.23 164.82 L 35.14 163.46 L 35.99 162.22 L 35.22 163.25 L 34.37 164.43 L 33.49 165.69 L 32.65 166.90 L 31.85 168.12 L 31.07 169.35 L 30.33 170.55 L 29.61 171.73 L 28.90 172.92 L 28.66 173.48 L 29.15 173.03 L 29.87 172.28 L 30.62 171.51 L 31.34 170.72 L 31.98 169.97 L 32.57 169.24 L 31.70 170.45 L 30.83 171.60 L 29.96 172.69 L 29.07 173.75 L 28.17 174.81 L 27.26 175.87 L 26.30 176.99 L 25.52 177.84 L 25.23 178.00 L 25.65 177.16 L 26.00 176.41 L 26.28 175.74 L 26.45 175.24 L 26.63 174.74 L 26.82 174.25 L 27.62 172.98 L 28.26 172.00 L 27.41 173.16 L 26.66 174.26 L 26.32 174.86 L 25.98 175.52 L 25.68 176.18 L 25.51 176.68 L 25.24 177.25" fill="none" stroke="#000000" stroke-width="0.5" stroke-linejoin="round" stroke-linecap="round"/>
</svg>