<?xml version="1.0" encoding="UTF-8"?>
<svg xmlns="http://www.w3.org/2000/svg" viewBox="20.62 140.00 40.95 42.19">
<path d="M 49.00 145.00 L 50.15 145.90 L 50.67 146.34 L 51.20 146.79 L 51.60 147.22 L 51.53 147.85 L 51.09 148.52 L 50.55 148.90 L 49.83 149.06 L 48.93 149.09 L 47.89 149.10 L 46.88 149.05 L 45.88 149.01 L 44.85 149.03 L 43.86 148.98 L 42.83 148.98 L 41.76 149.07 L 40.83 148.93 L 39.83 148.90 L 38.75 148.99 L 37.82 148.85 L 36.83 148.82 L 35.74 148.91 L 34.77 148.83 L 33.75 148.83 L 32.76 148.88 L 31.96 148.92 L 31.24 149.24 L 30.60 149.81 L 30.65 149.85 L 31.32 149.45 L 32.16 149.17 L 33.07 149.15 L 34.08 149.12 L 35.13 149.04 L 36.06 149.17 L 37.07 149.18 L 38.13 149.11 L 39.07 149.25 L 40.08 149.26 L 41.15 149.19 L 42.12 149.27 L 43.15 149.26 L 44.18 149.26 L 45.16 149.35 L 46.21 149.35 L 47.26 149.37 L 48.23 149.46 L 49.18 149.61 L 50.20 149.68 L 51.34 149.62 L 51.86 150.45 L 52.36 151.29 L 52.90 152.11 L 53.59 152.77 L 54.60 153.00 L 55.56 153.16 L 56.34 153.19 L 56.57 153.58 L 56.40 154.13 L 55.88 154.80 L 55.23 155.27 L 54.42 155.62 L 53.45 155.96 L 52.49 156.31 L 51.53 156.66 L 50.56 157.06 L 49.59 157.51 L 48.77 157.80 L 47.88 158.22 L 46.96 158.71 L 46.04 159.21 L 45.15 159.73 L 44.30 160.28 L 43.47 160.84 L 42.64 161.40 L 41.78 161.99 L 40.94 162.60 L 40.17 163.21 L 39.40 163.81 L 38.60 164.46 L 37.80 165.13 L 37.05 165.75 L 36.29 166.42 L 35.53 167.10 L 34.73 167.74 L 33.96 168.42 L 33.21 169.09 L 32.46 169.71 L 31.69 170.41 L 30.96 171.09 L 30.27 171.76 L 29.56 172.51 L 28.86 173.25 L 28.17 174.01 L 27.52 174.80 L 26.89 175.59 L 26.25 176.39 L 25.62 177.19" fill="none" stroke="#000000" stroke-width="0.5" stroke-linejoin="round" stroke-linecap="round"/>
</svg>