<?xml version="1.0" encoding="UTF-8"?>
<svg xmlns="http://www.w3.org/2000/svg" viewBox="19.49 140.00 34.51 42.73">
<path d="M 49.00 145.00 L 48.79 145.02 L 48.56 145.19 L 48.27 145.43 L 48.01 145.61 L 47.72 145.82 L 47.44 146.02 L 47.27 146.07 L 47.03 146.22 L 46.76 146.42 L 46.40 146.74 L 46.07 147.04 L 45.76 147.32 L 45.41 147.66 L 45.08 147.96 L 44.77 148.23 L 44.41 148.57 L 44.08 148.87 L 43.78 149.13 L 43.48 149.40 L 43.14 149.73 L 42.78 150.09 L 42.38 150.50 L 42.07 150.80 L 41.76 151.11 L 41.42 151.46 L 41.05 151.87 L 40.68 152.29 L 40.31 152.73 L 39.93 153.20 L 39.54 153.68 L 39.16 154.16 L 38.78 154.64 L 38.43 155.08 L 38.04 155.55 L 37.66 156.00 L 37.28 156.43 L 37.46 156.07 L 37.69 155.63 L 37.78 155.38 L 37.58 155.52 L 37.25 155.86 L 36.87 156.28 L 36.50 156.70 L 36.12 157.16 L 35.74 157.64 L 35.37 158.14 L 35.01 158.64 L 34.65 159.14 L 34.34 159.60 L 34.03 160.07 L 33.71 160.58 L 33.39 161.09 L 33.09 161.57 L 32.85 161.99 L 32.53 162.50 L 32.23 162.99 L 31.94 163.46 L 31.62 163.96 L 31.29 164.47 L 30.96 164.97 L 30.62 165.47 L 30.28 165.97 L 29.92 166.48 L 29.57 166.98 L 29.21 167.48 L 28.86 167.98 L 28.51 168.48 L 28.16 168.98 L 27.80 169.47 L 27.45 169.97 L 27.09 170.47 L 26.74 170.97 L 26.39 171.48 L 26.05 171.98 L 25.72 172.48 L 25.42 172.97 L 25.19 173.39 L 24.93 173.88 L 24.73 174.30 L 24.66 174.56 L 24.60 174.82 L 24.54 175.09 L 24.49 175.37 L 24.54 175.50 L 24.61 175.62 L 24.67 175.74 L 24.74 175.87 L 24.80 175.99 L 24.86 176.11 L 24.83 176.37 L 24.83 176.58 L 24.89 176.70 L 24.95 176.82 L 25.02 176.94 L 25.00 177.18 L 24.98 177.41 L 25.03 177.52 L 24.98 177.73" fill="none" stroke="#000000" stroke-width="0.5" stroke-linejoin="round" stroke-linecap="round"/>
</svg>