<?xml version="1.0" encoding="UTF-8"?>
<svg xmlns="http://www.w3.org/2000/svg" viewBox="15.83 140.00 38.17 42.49">
<path d="M 49.00 145.00 L 48.79 145.49 L 48.53 145.95 L 48.29 146.41 L 48.05 146.88 L 47.81 147.35 L 47.57 147.81 L 47.34 148.28 L 47.09 148.74 L 46.81 149.18 L 46.53 149.62 L 46.25 150.05 L 45.94 150.45 L 45.63 150.86 L 45.29 151.26 L 44.96 151.66 L 44.64 152.07 L 44.32 152.46 L 43.99 152.85 L 43.68 153.26 L 43.37 153.67 L 43.08 154.09 L 42.81 154.53 L 42.53 154.97 L 42.27 155.42 L 42.03 155.89 L 41.79 156.36 L 41.55 156.82 L 41.29 157.28 L 41.01 157.71 L 40.69 158.12 L 40.35 158.50 L 40.00 158.86 L 39.62 159.21 L 39.24 159.56 L 38.86 159.92 L 38.48 160.28 L 38.10 160.64 L 37.72 161.00 L 37.36 161.35 L 37.01 161.72 L 36.67 162.09 L 36.33 162.48 L 36.02 162.89 L 35.73 163.32 L 35.43 163.75 L 35.13 164.17 L 34.82 164.58 L 34.50 164.97 L 34.16 165.34 L 33.79 165.70 L 33.41 166.06 L 33.07 166.43 L 32.72 166.82 L 32.37 167.21 L 32.03 167.60 L 31.71 167.99 L 31.38 168.38 L 31.07 168.80 L 30.73 169.18 L 30.38 169.55 L 30.00 169.92 L 29.57 170.23 L 29.15 170.49 L 28.74 170.72 L 28.30 170.93 L 27.86 171.14 L 27.36 171.40 L 26.87 171.66 L 26.42 171.92 L 26.01 172.15 L 25.58 172.42 L 25.13 172.71 L 24.68 173.00 L 24.25 173.31 L 23.83 173.62 L 23.41 173.94 L 22.99 174.26 L 22.60 174.59 L 22.22 174.95 L 21.84 175.31 L 21.48 175.69 L 21.19 176.12 L 20.97 176.58 L 20.83 177.01 L 21.16 176.88 L 21.58 176.70 L 22.10 176.55 L 22.66 176.43 L 23.16 176.36 L 23.48 176.49 L 23.93 176.44 L 24.46 176.30 L 25.01 176.10 L 25.47 175.91 L 25.67 176.02 L 25.56 176.49 L 25.39 177.00 L 25.19 177.49" fill="none" stroke="#000000" stroke-width="0.5" stroke-linejoin="round" stroke-linecap="round"/>
</svg>