<?xml version="1.0" encoding="UTF-8"?>
<svg xmlns="http://www.w3.org/2000/svg" viewBox="19.70 140.00 34.38 42.12">
<path d="M 49.00 145.00 L 49.08 145.96 L 48.87 146.61 L 48.71 147.15 L 48.30 147.91 L 47.79 148.60 L 47.17 149.18 L 46.48 149.56 L 45.84 149.85 L 45.35 150.11 L 45.01 150.36 L 44.60 150.94 L 44.42 151.36 L 44.38 151.74 L 44.11 152.45 L 43.73 153.17 L 43.23 153.81 L 42.85 154.02 L 42.32 154.51 L 41.85 155.04 L 41.43 155.59 L 41.36 155.74 L 41.20 155.96 L 40.89 156.34 L 40.43 156.86 L 40.16 156.82 L 39.56 156.92 L 38.80 156.98 L 38.00 157.02 L 37.21 157.07 L 36.43 157.10 L 35.69 157.05 L 34.88 157.08 L 34.23 156.87 L 33.84 156.33 L 33.51 155.75 L 33.32 155.02 L 33.20 154.22 L 33.21 153.39 L 33.28 152.62 L 33.38 151.94 L 33.68 151.08 L 34.03 150.25 L 34.40 149.44 L 34.78 148.63 L 35.10 147.78 L 35.32 146.96 L 35.44 146.15 L 35.38 145.48 L 34.63 145.62 L 33.85 145.74 L 33.16 145.73 L 32.44 145.81 L 31.71 145.97 L 30.94 146.29 L 30.21 146.67 L 29.52 147.21 L 28.95 147.83 L 28.45 148.49 L 27.98 149.13 L 27.53 149.71 L 27.05 150.32 L 26.57 151.01 L 26.19 151.62 L 25.79 152.29 L 25.41 153.09 L 25.32 153.69 L 25.41 154.29 L 25.62 154.87 L 25.81 155.55 L 25.93 156.30 L 25.90 157.17 L 25.84 158.03 L 25.75 158.86 L 25.61 159.73 L 25.51 160.58 L 25.45 161.44 L 25.43 162.33 L 25.60 163.04 L 25.92 163.61 L 26.48 163.87 L 26.98 164.08 L 27.35 164.36 L 27.32 165.09 L 27.07 165.98 L 26.75 166.83 L 26.44 167.62 L 26.08 168.40 L 25.76 169.21 L 25.54 169.96 L 25.28 170.78 L 25.04 171.65 L 24.91 172.46 L 24.79 173.28 L 24.70 174.10 L 24.76 174.81 L 24.78 175.62 L 24.71 176.46 L 24.70 177.12" fill="none" stroke="#000000" stroke-width="0.5" stroke-linejoin="round" stroke-linecap="round"/>
</svg>