<?xml version="1.0" encoding="UTF-8"?>
<svg xmlns="http://www.w3.org/2000/svg" viewBox="20.41 140.00 33.59 42.77">
<path d="M 49.00 145.00 L 48.69 145.34 L 48.43 145.70 L 48.16 146.07 L 47.90 146.45 L 47.65 146.84 L 47.41 147.23 L 47.15 147.61 L 46.88 147.97 L 46.57 148.31 L 46.25 148.64 L 45.95 148.95 L 45.66 149.21 L 45.33 149.52 L 45.00 149.84 L 44.70 150.19 L 44.44 150.55 L 44.17 150.93 L 43.92 151.31 L 43.67 151.70 L 43.43 152.09 L 43.20 152.49 L 42.97 152.89 L 42.74 153.28 L 42.51 153.68 L 42.29 154.08 L 42.08 154.50 L 41.88 154.91 L 41.68 155.31 L 41.49 155.70 L 41.29 156.12 L 41.08 156.53 L 40.86 156.94 L 40.64 157.34 L 40.43 157.76 L 40.22 158.16 L 40.02 158.55 L 39.83 158.96 L 39.64 159.39 L 39.46 159.81 L 39.27 160.23 L 39.11 160.63 L 38.93 161.06 L 38.76 161.49 L 38.61 161.90 L 38.45 162.33 L 38.29 162.78 L 38.17 163.21 L 38.04 163.64 L 37.92 164.08 L 37.82 164.53 L 37.72 164.97 L 37.62 165.42 L 37.51 165.87 L 37.41 166.32 L 37.31 166.77 L 37.21 167.22 L 37.13 167.68 L 37.04 168.14 L 36.98 168.58 L 36.96 168.99 L 36.92 169.48 L 36.90 169.98 L 36.92 170.42 L 36.97 170.81 L 37.06 171.19 L 37.06 171.70 L 37.08 172.12 L 37.08 172.43 L 36.91 172.81 L 36.67 173.16 L 36.35 173.44 L 35.97 173.64 L 35.61 173.70 L 35.26 173.67 L 34.81 173.76 L 34.35 173.89 L 33.93 173.97 L 33.48 174.11 L 33.01 174.28 L 32.55 174.42 L 32.18 174.45 L 31.81 174.49 L 31.37 174.64 L 30.93 174.80 L 30.51 174.97 L 30.10 175.19 L 29.68 175.42 L 29.25 175.63 L 28.84 175.87 L 28.47 176.05 L 28.11 176.17 L 27.66 176.40 L 27.25 176.59 L 26.92 176.73 L 26.54 176.97 L 26.14 177.21 L 25.75 177.49 L 25.41 177.77" fill="none" stroke="#000000" stroke-width="0.5" stroke-linejoin="round" stroke-linecap="round"/>
</svg>