<?xml version="1.0" encoding="UTF-8"?>
<svg xmlns="http://www.w3.org/2000/svg" viewBox="19.55 140.00 34.45 42.69">
<path d="M 49.00 145.00 L 48.27 145.05 L 47.73 145.35 L 47.15 145.65 L 46.45 146.04 L 45.75 146.46 L 45.03 147.04 L 44.45 147.60 L 43.98 148.20 L 43.43 149.05 L 43.33 149.39 L 43.40 149.60 L 43.13 150.41 L 42.82 151.31 L 42.46 152.25 L 42.13 153.10 L 41.81 153.92 L 41.49 154.76 L 41.18 155.61 L 40.86 156.46 L 40.56 157.32 L 40.26 158.18 L 39.99 159.03 L 39.76 159.84 L 39.59 160.61 L 39.44 161.38 L 39.32 162.16 L 39.32 162.80 L 39.31 163.46 L 39.31 164.15 L 39.41 164.71 L 39.55 165.20 L 39.58 165.87 L 39.62 166.53 L 39.66 167.20 L 39.82 167.71 L 39.98 168.22 L 40.15 168.73 L 40.43 169.04 L 40.70 169.28 L 40.67 169.81 L 40.30 170.69 L 39.83 171.57 L 39.24 172.41 L 38.58 173.16 L 37.87 173.84 L 37.23 174.28 L 36.61 174.60 L 36.00 174.80 L 35.57 174.68 L 35.17 174.50 L 34.93 174.09 L 34.76 173.60 L 34.64 173.06 L 34.65 172.38 L 34.70 171.66 L 34.83 170.87 L 34.97 170.09 L 35.11 169.30 L 35.24 168.51 L 35.34 167.74 L 35.32 167.08 L 35.18 166.64 L 34.99 166.35 L 34.72 166.32 L 34.22 166.68 L 33.49 167.34 L 32.83 167.95 L 32.22 168.63 L 32.06 168.71 L 31.75 168.90 L 31.07 169.61 L 30.84 169.83 L 30.87 169.88 L 30.48 170.49 L 30.03 171.04 L 29.63 171.64 L 29.42 172.09 L 29.28 172.45 L 28.82 173.14 L 28.28 173.76 L 27.79 174.28 L 27.45 174.59 L 27.30 174.70 L 27.22 174.66 L 27.01 174.62 L 26.40 175.06 L 26.00 175.42 L 26.00 175.44 L 26.04 175.60 L 25.74 176.08 L 25.39 176.50 L 25.06 176.89 L 24.84 177.15 L 24.90 177.03 L 24.85 177.07 L 24.71 177.26 L 24.55 177.53 L 24.55 177.69" fill="none" stroke="#000000" stroke-width="0.5" stroke-linejoin="round" stroke-linecap="round"/>
</svg>