<?xml version="1.0" encoding="UTF-8"?>
<svg xmlns="http://www.w3.org/2000/svg" viewBox="18.72 140.00 35.28 42.62">
<path d="M 49.00 145.00 L 48.46 145.65 L 47.92 146.30 L 47.35 146.92 L 46.69 147.49 L 45.99 147.97 L 45.22 148.38 L 44.61 148.40 L 43.86 148.48 L 43.06 148.55 L 42.36 148.47 L 41.62 148.62 L 40.88 148.90 L 40.10 149.30 L 39.37 149.80 L 38.70 150.34 L 38.10 150.82 L 37.47 151.38 L 36.85 151.95 L 36.26 152.49 L 35.66 153.07 L 35.03 153.65 L 34.41 154.24 L 33.82 154.80 L 33.22 155.34 L 32.59 155.93 L 31.97 156.46 L 31.36 156.96 L 30.73 157.54 L 30.12 158.09 L 29.54 158.64 L 28.93 159.23 L 28.30 159.81 L 27.69 160.40 L 27.14 160.97 L 26.58 161.57 L 26.00 162.19 L 25.43 162.82 L 24.88 163.46 L 24.45 164.18 L 24.06 164.95 L 23.72 165.74 L 24.03 165.64 L 24.61 165.25 L 25.31 164.79 L 26.10 164.32 L 26.77 163.83 L 27.41 163.33 L 28.02 162.86 L 28.73 162.34 L 29.42 161.83 L 30.06 161.32 L 30.68 160.84 L 31.34 160.35 L 32.06 159.84 L 32.73 159.39 L 33.40 158.93 L 34.10 158.46 L 34.84 158.03 L 35.61 157.62 L 36.38 157.27 L 37.19 156.95 L 37.96 156.75 L 38.75 156.61 L 39.54 156.49 L 40.31 156.35 L 40.99 156.21 L 41.02 156.79 L 40.77 157.61 L 40.46 158.42 L 40.09 159.19 L 39.66 159.91 L 39.21 160.59 L 38.75 161.27 L 38.27 161.97 L 37.80 162.66 L 37.29 163.34 L 36.77 164.00 L 36.24 164.65 L 35.71 165.31 L 35.19 165.97 L 34.66 166.63 L 34.14 167.29 L 33.64 167.97 L 33.17 168.67 L 32.69 169.36 L 32.24 170.04 L 31.78 170.71 L 31.31 171.41 L 30.83 172.11 L 30.33 172.79 L 29.81 173.44 L 29.28 174.10 L 28.76 174.76 L 28.19 175.39 L 27.59 176.00 L 26.96 176.58 L 26.39 177.08 L 25.81 177.62" fill="none" stroke="#000000" stroke-width="0.5" stroke-linejoin="round" stroke-linecap="round"/>
</svg>