<?xml version="1.0" encoding="UTF-8"?>
<svg xmlns="http://www.w3.org/2000/svg" viewBox="20.11 140.00 33.89 43.00">
<path d="M 49.00 145.00 L 48.71 145.40 L 48.42 145.79 L 48.15 146.18 L 47.86 146.58 L 47.57 146.98 L 47.28 147.38 L 46.99 147.78 L 46.70 148.18 L 46.42 148.56 L 46.13 148.96 L 45.84 149.35 L 45.56 149.73 L 45.27 150.13 L 44.97 150.53 L 44.68 150.92 L 44.39 151.31 L 44.11 151.69 L 43.82 152.07 L 43.52 152.46 L 43.23 152.85 L 42.95 153.23 L 42.65 153.62 L 42.36 154.01 L 42.07 154.39 L 41.79 154.77 L 41.49 155.16 L 41.20 155.55 L 40.91 155.93 L 40.62 156.32 L 40.33 156.72 L 40.04 157.10 L 39.75 157.49 L 39.45 157.88 L 39.17 158.26 L 38.88 158.64 L 38.59 159.02 L 38.29 159.41 L 38.00 159.80 L 37.72 160.18 L 37.42 160.58 L 37.13 160.96 L 36.84 161.34 L 36.55 161.71 L 36.25 162.11 L 35.94 162.50 L 35.65 162.89 L 35.37 163.26 L 35.08 163.64 L 34.78 164.03 L 34.49 164.42 L 34.20 164.80 L 33.91 165.20 L 33.62 165.59 L 33.34 165.97 L 33.04 166.36 L 32.74 166.75 L 32.46 167.13 L 32.17 167.51 L 31.88 167.89 L 31.58 168.29 L 31.29 168.66 L 31.00 169.04 L 30.72 169.42 L 30.42 169.82 L 30.13 170.20 L 29.84 170.58 L 29.54 170.98 L 29.25 171.36 L 28.97 171.74 L 28.69 172.13 L 28.41 172.53 L 28.15 172.92 L 27.96 173.22 L 27.78 173.53 L 27.61 173.85 L 27.44 174.16 L 27.27 174.48 L 27.10 174.79 L 26.94 175.11 L 26.81 175.39 L 26.77 175.55 L 26.84 175.55 L 26.89 175.59 L 26.85 175.76 L 27.01 175.64 L 27.19 175.50 L 27.35 175.34 L 27.30 175.47 L 27.13 175.74 L 26.86 176.13 L 26.57 176.50 L 26.27 176.87 L 25.98 177.20 L 25.74 177.46 L 25.62 177.55 L 25.51 177.61 L 25.26 177.87 L 25.11 178.00" fill="none" stroke="#000000" stroke-width="0.5" stroke-linejoin="round" stroke-linecap="round"/>
</svg>