<?xml version="1.0" encoding="UTF-8"?>
<svg xmlns="http://www.w3.org/2000/svg" viewBox="20.51 140.00 40.70 42.65">
<path d="M 49.00 145.00 L 49.42 145.68 L 49.53 146.15 L 49.71 146.66 L 49.95 147.21 L 50.18 147.76 L 50.42 148.32 L 50.66 148.87 L 50.89 149.42 L 51.13 149.98 L 51.36 150.53 L 51.60 151.08 L 51.82 151.62 L 52.03 152.16 L 52.23 152.72 L 52.36 153.38 L 52.56 153.98 L 52.80 154.52 L 53.15 154.94 L 53.60 155.28 L 54.16 155.50 L 54.60 155.87 L 54.99 156.30 L 55.35 156.77 L 55.62 157.35 L 55.88 157.88 L 56.17 158.25 L 56.21 158.65 L 56.06 159.06 L 55.86 159.28 L 55.64 159.30 L 55.34 159.27 L 54.95 159.29 L 54.46 159.47 L 53.93 159.82 L 53.48 160.21 L 53.10 160.66 L 52.74 161.12 L 52.39 161.59 L 52.01 162.03 L 51.61 162.47 L 51.24 162.93 L 50.86 163.37 L 50.44 163.82 L 50.04 164.26 L 49.63 164.71 L 49.21 165.13 L 48.75 165.53 L 48.27 165.89 L 47.80 166.18 L 47.33 166.48 L 46.83 166.75 L 46.29 167.07 L 45.77 167.40 L 45.28 167.69 L 44.75 167.99 L 44.18 168.30 L 43.63 168.55 L 43.23 168.56 L 42.65 168.78 L 42.06 168.96 L 41.51 169.09 L 41.02 169.27 L 40.49 169.52 L 39.99 169.75 L 40.16 169.13 L 40.32 168.57 L 40.45 168.07 L 39.92 168.40 L 39.33 168.66 L 38.76 168.89 L 38.39 168.85 L 38.04 168.78 L 37.52 168.97 L 36.93 169.25 L 36.36 169.56 L 35.83 169.89 L 35.33 170.17 L 34.81 170.44 L 34.29 170.70 L 33.78 170.96 L 33.29 171.24 L 32.80 171.56 L 32.30 171.94 L 31.81 172.31 L 31.33 172.69 L 30.88 173.09 L 30.48 173.43 L 30.05 173.81 L 29.57 174.20 L 29.09 174.59 L 28.63 174.98 L 28.23 175.32 L 27.78 175.68 L 27.30 176.05 L 26.81 176.44 L 26.36 176.83 L 25.93 177.23 L 25.51 177.65" fill="none" stroke="#000000" stroke-width="0.5" stroke-linejoin="round" stroke-linecap="round"/>
</svg>