<?xml version="1.0" encoding="UTF-8"?>
<svg xmlns="http://www.w3.org/2000/svg" viewBox="20.47 140.00 43.38 42.29">
<path d="M 49.00 145.00 L 50.06 145.30 L 50.30 145.77 L 50.52 146.33 L 51.29 146.22 L 52.14 145.99 L 53.07 145.66 L 53.97 145.38 L 54.75 145.28 L 55.33 145.43 L 55.71 145.88 L 55.88 146.64 L 55.89 147.60 L 55.83 148.51 L 55.74 149.34 L 55.64 150.11 L 55.49 150.96 L 55.32 151.86 L 55.22 152.74 L 55.15 153.63 L 55.20 154.47 L 55.41 155.20 L 55.71 155.89 L 56.10 156.53 L 56.35 157.35 L 56.58 158.16 L 56.77 158.96 L 56.88 159.87 L 56.99 160.79 L 57.10 161.70 L 57.39 162.38 L 57.70 163.06 L 57.95 163.87 L 58.21 164.70 L 58.47 165.53 L 58.71 166.35 L 58.85 167.09 L 58.84 167.72 L 58.66 168.22 L 58.13 168.83 L 57.62 169.04 L 57.08 168.92 L 56.42 168.59 L 55.76 168.13 L 55.11 167.62 L 54.52 167.10 L 53.92 166.83 L 53.29 166.90 L 52.68 167.29 L 52.14 167.82 L 51.71 168.41 L 51.42 169.04 L 51.16 169.83 L 50.89 170.69 L 50.61 171.51 L 50.31 172.27 L 49.99 173.00 L 49.53 173.69 L 48.95 174.31 L 48.26 174.81 L 47.91 174.55 L 47.54 174.08 L 47.13 173.44 L 46.64 172.74 L 46.17 172.06 L 45.70 171.38 L 45.37 170.53 L 45.01 169.75 L 44.54 169.12 L 43.62 169.09 L 42.75 168.97 L 41.98 168.68 L 41.26 168.34 L 40.50 168.01 L 39.70 167.70 L 38.82 167.52 L 38.08 167.14 L 37.41 166.70 L 36.67 166.43 L 35.91 166.24 L 35.12 166.20 L 34.28 166.43 L 33.52 166.72 L 32.80 167.08 L 32.07 167.61 L 31.42 168.15 L 30.83 168.74 L 30.28 169.39 L 29.72 170.04 L 29.18 170.71 L 28.71 171.41 L 28.28 172.15 L 27.87 172.91 L 27.52 173.60 L 27.14 174.32 L 26.76 175.06 L 26.37 175.83 L 25.93 176.57 L 25.47 177.29" fill="none" stroke="#000000" stroke-width="0.5" stroke-linejoin="round" stroke-linecap="round"/>
</svg>