<?xml version="1.0" encoding="UTF-8"?>
<svg xmlns="http://www.w3.org/2000/svg" viewBox="20.62 140.00 33.38 41.16">
<path d="M 49.00 145.00 L 48.16 146.77 L 46.94 148.51 L 45.49 150.45 L 43.87 152.49 L 43.15 153.09 L 43.02 152.67 L 43.17 151.73 L 43.23 150.79 L 43.29 149.84 L 43.35 148.89 L 43.33 148.04 L 43.19 147.34 L 42.94 146.80 L 42.62 146.35 L 42.27 145.93 L 41.87 145.57 L 41.30 145.45 L 40.74 145.33 L 40.18 145.20 L 39.56 145.17 L 38.90 145.20 L 38.12 145.40 L 37.12 145.93 L 36.26 146.46 L 35.44 147.18 L 34.51 148.32 L 34.00 149.12 L 34.36 148.97 L 34.79 148.99 L 35.22 149.23 L 35.57 149.64 L 35.73 150.30 L 35.84 151.02 L 35.75 152.00 L 35.58 153.11 L 35.30 154.35 L 35.35 155.15 L 35.48 155.84 L 35.83 156.25 L 36.29 156.50 L 36.92 156.53 L 37.28 156.93 L 37.51 157.42 L 37.53 158.04 L 37.03 159.16 L 36.01 160.79 L 34.55 162.77 L 33.17 164.39 L 31.92 165.59 L 30.88 166.34 L 30.67 165.84 L 30.66 165.02 L 30.72 164.07 L 30.65 163.30 L 30.55 162.57 L 30.64 161.59 L 30.71 160.62 L 30.77 159.67 L 30.85 158.70 L 30.91 157.74 L 30.78 157.04 L 30.65 156.34 L 30.51 155.63 L 30.27 155.07 L 29.92 154.66 L 29.39 154.50 L 28.76 154.47 L 27.93 154.73 L 27.29 154.96 L 26.76 155.31 L 26.28 155.84 L 25.86 156.52 L 25.62 157.23 L 25.83 157.58 L 26.17 158.00 L 26.56 158.36 L 27.11 158.49 L 27.55 158.79 L 27.68 159.49 L 27.82 160.19 L 27.95 160.89 L 27.93 161.78 L 27.84 162.76 L 27.75 163.74 L 27.56 164.85 L 27.28 166.09 L 27.15 167.11 L 27.11 168.03 L 27.24 168.73 L 27.37 169.43 L 27.51 170.13 L 27.90 170.48 L 28.45 170.60 L 29.04 170.60 L 29.10 171.21 L 28.65 172.34 L 27.56 174.22 L 26.33 176.16" fill="none" stroke="#000000" stroke-width="0.5" stroke-linejoin="round" stroke-linecap="round"/>
</svg>