<?xml version="1.0" encoding="UTF-8"?>
<svg xmlns="http://www.w3.org/2000/svg" viewBox="20.88 140.00 49.84 42.83">
<path d="M 49.00 145.00 L 48.61 145.75 L 48.52 146.26 L 48.75 146.45 L 49.14 146.57 L 49.64 146.76 L 50.28 146.84 L 50.90 146.91 L 51.41 147.12 L 52.14 147.00 L 52.90 146.82 L 53.65 146.63 L 54.40 146.45 L 55.15 146.26 L 55.91 146.08 L 56.55 146.10 L 57.19 146.11 L 57.87 146.10 L 58.40 146.32 L 59.04 146.40 L 59.68 146.48 L 60.22 146.71 L 60.77 146.93 L 61.31 147.16 L 61.84 147.41 L 62.27 147.81 L 62.66 148.26 L 63.04 148.72 L 63.47 149.12 L 63.84 149.59 L 64.23 150.02 L 64.65 150.41 L 64.90 151.01 L 65.15 151.61 L 65.38 152.21 L 65.55 152.86 L 65.71 153.50 L 65.70 154.29 L 65.63 155.04 L 65.52 155.75 L 65.17 156.66 L 64.69 157.61 L 64.14 158.51 L 63.53 159.37 L 62.91 160.17 L 62.26 160.95 L 61.53 161.72 L 60.77 162.44 L 60.01 163.10 L 59.31 163.63 L 58.55 164.11 L 57.75 164.57 L 56.97 164.94 L 56.27 165.16 L 55.55 165.37 L 54.80 165.56 L 54.05 165.74 L 53.51 165.61 L 52.88 165.60 L 52.11 165.77 L 51.48 165.73 L 50.81 165.77 L 50.04 165.94 L 49.49 165.80 L 48.84 165.78 L 48.06 165.93 L 47.54 165.72 L 47.01 165.50 L 46.43 165.35 L 45.77 165.28 L 45.20 165.12 L 44.67 164.91 L 44.14 164.70 L 43.35 164.85 L 42.70 164.81 L 42.19 164.66 L 41.66 164.70 L 41.15 164.83 L 40.52 165.26 L 39.76 166.00 L 39.04 166.78 L 38.36 167.59 L 37.72 168.42 L 37.07 169.19 L 36.37 169.95 L 35.61 170.71 L 34.87 171.41 L 34.17 172.05 L 33.50 172.61 L 32.71 173.27 L 31.91 173.90 L 31.11 174.52 L 30.36 175.07 L 29.61 175.57 L 28.85 176.05 L 28.06 176.52 L 27.26 176.97 L 26.50 177.45 L 25.88 177.83" fill="none" stroke="#000000" stroke-width="0.5" stroke-linejoin="round" stroke-linecap="round"/>
</svg>