<?xml version="1.0" encoding="UTF-8"?>
<svg xmlns="http://www.w3.org/2000/svg" viewBox="20.41 140.00 33.59 42.59">
<path d="M 49.00 145.00 L 48.61 145.01 L 48.39 145.06 L 48.17 145.05 L 47.88 145.09 L 47.59 145.16 L 47.30 145.25 L 46.94 145.49 L 46.56 145.80 L 46.15 146.21 L 45.76 146.66 L 45.38 147.13 L 45.02 147.62 L 44.67 148.11 L 44.32 148.61 L 43.97 149.12 L 43.61 149.61 L 43.25 150.09 L 42.89 150.55 L 42.54 151.00 L 42.15 151.47 L 41.76 151.92 L 41.38 152.35 L 40.99 152.80 L 40.57 153.25 L 40.16 153.67 L 39.76 154.08 L 39.45 154.35 L 39.05 154.74 L 38.64 155.13 L 38.21 155.53 L 37.79 155.92 L 37.35 156.30 L 36.99 156.56 L 36.67 156.74 L 36.38 156.85 L 36.05 157.00 L 35.63 157.27 L 35.31 157.41 L 34.98 157.54 L 34.56 157.80 L 34.26 157.89 L 34.03 157.88 L 33.70 157.99 L 33.33 158.15 L 33.02 158.23 L 32.81 158.26 L 32.71 158.24 L 32.62 158.30 L 32.37 158.69 L 32.46 158.72 L 32.65 158.73 L 32.89 158.75 L 32.93 159.05 L 33.01 159.30 L 33.15 159.46 L 33.11 159.87 L 33.08 160.25 L 33.11 160.55 L 33.24 160.70 L 33.27 160.99 L 33.20 161.44 L 33.20 161.72 L 33.18 162.00 L 33.13 162.33 L 32.90 162.92 L 32.85 163.27 L 32.94 163.38 L 32.92 163.63 L 32.91 163.91 L 32.71 164.45 L 32.54 164.90 L 32.40 165.30 L 32.15 165.83 L 31.93 166.36 L 31.72 166.89 L 31.60 167.29 L 31.52 167.63 L 31.49 167.90 L 31.28 168.42 L 31.03 168.94 L 30.75 169.44 L 30.46 169.93 L 30.18 170.42 L 29.89 170.92 L 29.64 171.36 L 29.37 171.81 L 29.08 172.29 L 28.78 172.81 L 28.48 173.33 L 28.15 173.84 L 27.80 174.34 L 27.48 174.81 L 27.16 175.27 L 26.83 175.74 L 26.50 176.19 L 26.13 176.66 L 25.75 177.14 L 25.41 177.59" fill="none" stroke="#000000" stroke-width="0.5" stroke-linejoin="round" stroke-linecap="round"/>
</svg>