<?xml version="1.0" encoding="UTF-8"?>
<svg xmlns="http://www.w3.org/2000/svg" viewBox="19.31 140.00 41.06 42.07">
<path d="M 49.00 145.00 L 49.08 145.95 L 49.04 146.59 L 49.13 147.17 L 49.21 147.89 L 49.27 148.71 L 49.34 149.51 L 49.43 150.24 L 49.52 150.97 L 49.58 151.77 L 49.65 152.57 L 49.76 153.32 L 49.87 154.06 L 49.99 154.81 L 50.13 155.57 L 50.28 156.34 L 50.45 157.13 L 50.66 157.87 L 50.92 158.58 L 51.30 159.15 L 51.60 159.87 L 51.91 160.61 L 52.36 161.15 L 52.73 161.80 L 53.05 162.55 L 53.49 163.16 L 53.90 163.74 L 54.28 164.36 L 54.58 165.10 L 54.81 165.88 L 55.05 166.55 L 55.33 167.07 L 55.36 167.88 L 55.31 168.66 L 55.16 169.39 L 54.89 170.04 L 54.53 170.67 L 54.07 171.27 L 53.56 171.81 L 52.96 172.28 L 52.32 172.72 L 51.67 173.16 L 51.02 173.52 L 50.36 173.86 L 49.63 174.24 L 48.94 174.47 L 48.21 174.69 L 47.44 174.93 L 46.76 174.99 L 46.04 175.06 L 45.26 175.18 L 44.46 175.28 L 43.73 175.30 L 42.97 175.34 L 42.17 175.42 L 41.40 175.41 L 40.63 175.39 L 39.85 175.36 L 39.16 175.18 L 38.40 175.08 L 37.59 175.01 L 36.86 174.80 L 36.15 174.60 L 35.44 174.40 L 34.72 174.19 L 33.89 174.13 L 33.10 174.00 L 32.37 173.78 L 31.67 173.52 L 30.99 173.22 L 30.40 172.80 L 29.96 172.22 L 29.65 171.57 L 29.42 170.89 L 29.31 170.15 L 29.32 169.31 L 29.35 168.48 L 29.33 167.69 L 29.32 166.89 L 29.24 166.19 L 29.01 165.73 L 28.39 165.86 L 27.70 166.20 L 27.07 166.65 L 26.54 167.19 L 26.10 167.79 L 25.74 168.43 L 25.42 169.12 L 25.15 169.83 L 24.91 170.56 L 24.69 171.30 L 24.51 172.07 L 24.34 172.87 L 24.31 173.56 L 24.31 174.29 L 24.33 175.09 L 24.45 175.84 L 24.57 176.48 L 24.63 177.07" fill="none" stroke="#000000" stroke-width="0.5" stroke-linejoin="round" stroke-linecap="round"/>
</svg>