<?xml version="1.0" encoding="UTF-8"?>
<svg xmlns="http://www.w3.org/2000/svg" viewBox="20.82 140.00 51.87 42.17">
<path d="M 49.00 145.00 L 50.42 145.82 L 51.21 146.07 L 52.21 146.31 L 53.54 146.34 L 54.70 146.54 L 55.64 147.01 L 56.16 148.03 L 56.58 149.23 L 56.97 150.40 L 57.41 151.38 L 57.83 152.34 L 58.01 153.62 L 58.10 154.87 L 58.11 155.99 L 58.05 156.84 L 57.66 157.90 L 57.12 158.97 L 56.51 159.89 L 55.71 160.75 L 54.81 161.57 L 53.86 162.35 L 53.08 163.19 L 52.47 164.12 L 52.00 165.19 L 52.23 165.62 L 52.84 165.87 L 53.49 166.42 L 54.48 166.82 L 55.67 167.04 L 56.99 167.07 L 58.20 167.21 L 59.34 167.37 L 60.39 167.64 L 61.57 167.71 L 62.78 167.66 L 63.95 167.57 L 65.12 167.37 L 66.30 167.03 L 67.32 166.58 L 67.69 166.64 L 67.19 167.53 L 66.58 168.45 L 66.04 169.32 L 65.59 170.18 L 65.16 171.08 L 64.92 171.57 L 64.85 171.71 L 64.23 172.48 L 63.98 172.63 L 63.72 172.65 L 63.37 172.61 L 62.61 173.04 L 61.77 173.85 L 60.99 174.69 L 60.23 175.56 L 59.39 176.42 L 59.05 176.28 L 59.00 175.43 L 58.99 174.27 L 58.76 173.20 L 58.16 172.66 L 57.00 173.01 L 55.86 173.37 L 54.73 173.79 L 53.61 174.35 L 52.69 174.92 L 52.19 175.22 L 52.72 174.14 L 53.09 173.10 L 53.38 172.11 L 53.51 171.24 L 52.76 171.36 L 51.79 171.44 L 50.54 171.47 L 49.42 171.21 L 48.27 170.95 L 47.08 170.76 L 46.30 170.13 L 45.68 169.48 L 44.67 169.56 L 43.48 170.07 L 42.34 170.66 L 41.28 171.35 L 40.31 172.03 L 39.34 172.70 L 38.34 173.38 L 37.30 173.99 L 36.22 174.58 L 35.09 175.13 L 33.98 175.52 L 32.83 175.86 L 31.73 176.00 L 30.57 176.10 L 29.37 176.16 L 28.27 176.30 L 27.38 176.46 L 26.75 176.50 L 25.82 177.17" fill="none" stroke="#000000" stroke-width="0.5" stroke-linejoin="round" stroke-linecap="round"/>
</svg>