<?xml version="1.0" encoding="UTF-8"?>
<svg xmlns="http://www.w3.org/2000/svg" viewBox="14.82 140.00 42.59 41.32">
<path d="M 49.00 145.00 L 49.63 146.63 L 49.68 147.85 L 49.86 149.16 L 50.31 150.38 L 50.81 151.53 L 51.30 152.67 L 51.80 153.82 L 52.11 155.16 L 52.32 156.50 L 52.41 157.83 L 52.21 159.27 L 51.74 160.76 L 50.96 162.32 L 49.98 163.80 L 48.87 165.13 L 47.66 166.33 L 48.00 165.11 L 48.52 163.46 L 48.95 161.80 L 49.17 160.34 L 49.36 158.84 L 49.49 157.31 L 49.58 155.74 L 49.63 154.16 L 49.59 152.66 L 49.37 151.32 L 49.10 149.95 L 48.89 148.68 L 48.52 148.04 L 48.11 147.91 L 47.38 148.66 L 46.70 149.79 L 46.25 151.10 L 46.02 152.56 L 45.90 154.10 L 45.74 155.61 L 45.48 157.05 L 44.99 158.44 L 44.16 159.86 L 43.02 161.23 L 43.30 160.16 L 43.36 158.97 L 43.06 157.97 L 42.81 157.00 L 42.77 156.18 L 41.82 157.09 L 41.28 157.92 L 41.18 158.63 L 41.07 159.80 L 40.98 161.23 L 40.77 162.69 L 40.29 164.06 L 39.49 165.39 L 38.32 166.73 L 37.23 167.46 L 36.10 167.79 L 35.10 167.56 L 33.92 167.31 L 32.81 166.87 L 31.98 166.01 L 31.02 165.34 L 30.14 164.57 L 29.58 163.38 L 29.03 162.19 L 28.48 161.01 L 27.93 159.82 L 27.38 158.64 L 26.68 157.65 L 25.94 156.71 L 25.38 155.52 L 24.77 154.36 L 24.01 153.43 L 23.24 152.52 L 22.48 151.60 L 22.02 150.54 L 21.82 149.61 L 21.14 149.88 L 20.46 150.69 L 19.92 151.88 L 19.82 152.98 L 20.05 154.14 L 20.51 155.27 L 20.92 156.55 L 21.24 157.96 L 21.74 159.16 L 22.25 160.32 L 22.77 161.48 L 23.30 162.65 L 23.81 163.80 L 24.25 165.04 L 24.58 166.40 L 24.89 167.76 L 25.16 169.14 L 25.38 170.47 L 25.54 171.78 L 25.64 173.11 L 25.34 174.77 L 24.93 176.32" fill="none" stroke="#000000" stroke-width="0.5" stroke-linejoin="round" stroke-linecap="round"/>
</svg>