<?xml version="1.0" encoding="UTF-8"?>
<svg xmlns="http://www.w3.org/2000/svg" viewBox="13.72 140.00 46.01 42.83">
<path d="M 49.00 145.00 L 48.43 147.22 L 47.53 149.17 L 46.70 151.15 L 46.07 153.31 L 45.61 155.62 L 45.33 158.05 L 46.39 158.96 L 47.92 159.57 L 49.81 160.06 L 51.79 160.51 L 53.42 160.58 L 54.50 160.48 L 54.73 160.64 L 53.69 161.66 L 52.24 162.38 L 50.40 162.81 L 48.28 163.05 L 45.98 163.43 L 43.68 163.81 L 41.41 164.18 L 39.90 163.52 L 39.24 161.60 L 38.78 159.31 L 38.21 157.08 L 37.64 155.10 L 37.21 153.33 L 36.81 151.55 L 36.70 149.54 L 37.20 147.34 L 37.03 146.89 L 35.97 148.56 L 35.37 150.27 L 35.10 151.95 L 35.39 153.65 L 35.88 155.69 L 36.43 157.80 L 37.14 159.80 L 37.67 162.00 L 38.08 164.24 L 38.99 165.78 L 40.67 166.18 L 43.02 165.62 L 45.16 165.38 L 47.32 165.03 L 49.58 164.59 L 51.53 164.21 L 53.04 163.63 L 54.13 162.90 L 53.28 164.14 L 52.12 165.07 L 50.51 165.91 L 48.55 166.57 L 46.51 167.17 L 44.44 167.94 L 42.29 168.82 L 40.08 169.66 L 37.88 170.33 L 35.69 170.81 L 33.86 170.53 L 31.95 170.13 L 29.75 169.90 L 27.60 169.47 L 25.47 169.00 L 23.40 168.61 L 21.38 168.25 L 19.67 168.12 L 19.88 166.22 L 19.55 166.08 L 18.76 167.56 L 18.72 168.98 L 19.98 169.45 L 21.82 169.96 L 23.94 170.39 L 26.10 170.85 L 28.29 171.23 L 30.52 171.55 L 32.56 171.91 L 34.48 172.19 L 36.31 172.41 L 38.59 171.83 L 40.87 171.06 L 42.98 170.32 L 45.05 169.55 L 46.95 168.66 L 48.62 167.60 L 49.50 167.04 L 48.59 168.39 L 47.25 169.81 L 45.68 170.97 L 43.75 171.93 L 41.69 172.88 L 39.66 173.69 L 37.61 174.48 L 35.50 175.24 L 33.43 175.86 L 31.37 176.40 L 29.43 177.06 L 27.63 177.83" fill="none" stroke="#000000" stroke-width="0.5" stroke-linejoin="round" stroke-linecap="round"/>
</svg>