<?xml version="1.0" encoding="UTF-8"?>
<svg xmlns="http://www.w3.org/2000/svg" viewBox="20.16 140.00 33.84 42.57">
<path d="M 49.00 145.00 L 48.68 145.30 L 48.39 145.63 L 48.07 145.95 L 47.75 146.25 L 47.41 146.54 L 47.05 146.81 L 46.65 147.05 L 46.27 147.24 L 45.88 147.42 L 45.46 147.57 L 45.03 147.72 L 44.61 147.88 L 44.22 147.97 L 43.82 148.08 L 43.38 148.30 L 43.03 148.40 L 42.65 148.56 L 42.22 148.79 L 41.79 149.01 L 41.47 149.18 L 41.19 149.38 L 40.85 149.66 L 40.50 149.95 L 40.17 150.26 L 39.86 150.57 L 39.59 150.91 L 39.34 151.27 L 39.12 151.64 L 38.99 152.01 L 38.93 152.41 L 38.93 152.85 L 39.11 153.15 L 39.25 153.48 L 39.31 153.83 L 39.35 154.17 L 39.25 154.61 L 39.10 155.05 L 38.92 155.47 L 38.70 155.85 L 38.49 156.25 L 38.30 156.65 L 38.11 157.06 L 37.92 157.47 L 37.73 157.88 L 37.54 158.28 L 37.29 158.65 L 37.02 158.99 L 36.73 159.31 L 36.50 159.48 L 36.20 159.74 L 35.89 160.05 L 35.60 160.38 L 35.36 160.75 L 35.17 161.11 L 35.01 161.49 L 34.86 161.90 L 34.68 162.32 L 34.48 162.72 L 34.27 163.10 L 34.06 163.49 L 33.87 163.89 L 33.68 164.30 L 33.51 164.67 L 33.39 165.03 L 33.23 165.46 L 33.07 165.89 L 32.90 166.31 L 32.71 166.72 L 32.51 167.12 L 32.29 167.50 L 32.07 167.89 L 31.84 168.26 L 31.59 168.62 L 31.32 168.97 L 31.02 169.29 L 30.71 169.61 L 30.43 169.94 L 30.13 170.25 L 29.82 170.57 L 29.51 170.89 L 29.20 171.21 L 28.92 171.56 L 28.65 171.90 L 28.36 172.24 L 28.09 172.58 L 27.82 172.94 L 27.58 173.32 L 27.35 173.69 L 27.09 174.05 L 26.86 174.43 L 26.63 174.81 L 26.41 175.20 L 26.18 175.59 L 25.96 175.97 L 25.76 176.37 L 25.57 176.77 L 25.37 177.18 L 25.16 177.57" fill="none" stroke="#000000" stroke-width="0.5" stroke-linejoin="round" stroke-linecap="round"/>
</svg>