<?xml version="1.0" encoding="UTF-8"?>
<svg xmlns="http://www.w3.org/2000/svg" viewBox="13.50 140.00 40.50 42.51">
<path d="M 49.00 145.00 L 48.14 145.02 L 47.66 145.19 L 47.17 145.28 L 46.57 145.42 L 45.84 145.69 L 45.13 145.90 L 44.55 145.95 L 44.25 145.57 L 43.68 145.46 L 43.03 145.44 L 42.41 145.37 L 41.81 145.35 L 41.11 145.49 L 40.42 145.64 L 39.72 145.77 L 39.01 145.91 L 38.60 145.71 L 38.27 145.42 L 37.75 145.39 L 37.10 145.61 L 36.48 145.84 L 35.89 146.06 L 35.24 146.37 L 34.62 146.58 L 34.07 146.64 L 33.48 146.73 L 32.79 146.87 L 32.14 146.94 L 31.58 146.88 L 30.86 146.98 L 30.12 147.09 L 29.74 146.68 L 29.25 146.42 L 28.67 146.35 L 28.06 146.36 L 27.48 146.40 L 26.78 146.68 L 26.17 146.96 L 25.64 147.22 L 25.15 147.60 L 24.67 148.06 L 24.22 148.54 L 23.79 148.99 L 23.34 149.42 L 22.88 149.85 L 22.47 150.21 L 22.03 150.54 L 21.46 150.87 L 20.81 151.20 L 20.22 151.58 L 19.89 151.81 L 19.60 152.04 L 19.31 152.38 L 19.07 152.81 L 18.81 153.44 L 18.72 154.04 L 18.71 154.58 L 18.62 155.26 L 18.58 155.97 L 18.60 156.67 L 18.67 157.24 L 18.75 157.80 L 18.83 158.37 L 18.81 159.08 L 18.76 159.79 L 18.68 160.48 L 18.62 161.12 L 18.59 161.78 L 18.51 162.47 L 18.50 163.08 L 18.55 163.62 L 18.92 163.63 L 19.14 163.84 L 19.13 164.45 L 19.03 165.20 L 19.06 165.88 L 19.43 166.14 L 19.76 166.52 L 20.07 167.07 L 20.37 167.70 L 20.89 167.98 L 21.31 168.37 L 21.52 169.03 L 21.72 169.69 L 21.86 170.30 L 21.94 170.87 L 22.02 171.46 L 21.96 172.23 L 21.96 172.97 L 22.08 173.57 L 22.28 174.04 L 22.66 174.32 L 23.02 174.74 L 23.17 175.49 L 23.30 176.27 L 23.64 176.76 L 23.95 177.15 L 24.21 177.51" fill="none" stroke="#000000" stroke-width="0.5" stroke-linejoin="round" stroke-linecap="round"/>
</svg>