<?xml version="1.0" encoding="UTF-8"?>
<svg xmlns="http://www.w3.org/2000/svg" viewBox="14.13 140.00 39.87 42.12">
<path d="M 49.00 145.00 L 48.14 145.40 L 47.45 145.95 L 46.65 146.50 L 45.86 146.97 L 45.11 147.41 L 44.50 147.64 L 43.72 148.08 L 42.91 148.61 L 42.14 149.07 L 41.39 149.60 L 40.62 150.18 L 39.91 150.68 L 39.21 151.23 L 38.48 151.83 L 37.75 152.44 L 37.04 153.05 L 36.32 153.67 L 35.55 154.24 L 34.74 154.76 L 33.93 155.22 L 33.82 154.60 L 33.73 153.85 L 33.74 152.91 L 33.60 152.20 L 33.54 151.51 L 33.69 150.66 L 33.10 150.98 L 32.41 151.63 L 31.79 152.34 L 31.18 153.06 L 30.53 153.72 L 29.80 154.36 L 29.44 154.30 L 29.31 153.73 L 29.01 153.23 L 28.71 152.67 L 28.48 152.12 L 27.80 152.39 L 27.10 152.92 L 26.42 153.59 L 25.87 154.33 L 25.39 155.14 L 24.96 155.99 L 24.56 156.84 L 24.17 157.68 L 23.81 158.49 L 23.43 159.35 L 23.07 160.24 L 22.72 161.12 L 22.39 161.99 L 22.08 162.84 L 21.81 163.72 L 21.56 164.62 L 21.33 165.52 L 21.16 166.35 L 20.95 167.22 L 20.74 168.10 L 20.52 169.02 L 20.31 169.94 L 20.08 170.85 L 19.94 171.68 L 19.82 172.55 L 19.56 173.44 L 19.35 174.14 L 19.13 174.66 L 19.65 173.96 L 20.10 173.21 L 20.43 172.37 L 20.66 171.50 L 20.89 170.65 L 21.09 169.84 L 21.37 168.92 L 21.67 168.01 L 21.98 167.16 L 22.32 166.33 L 22.68 165.49 L 23.09 164.62 L 23.57 163.83 L 24.13 163.09 L 24.78 162.39 L 24.82 162.65 L 24.58 163.43 L 24.38 164.32 L 24.27 165.21 L 24.18 166.08 L 24.11 166.94 L 24.03 167.84 L 23.97 168.73 L 23.93 169.62 L 23.90 170.52 L 23.89 171.43 L 23.96 172.24 L 24.05 173.07 L 24.16 173.91 L 24.27 174.75 L 24.41 175.61 L 24.47 176.42 L 24.51 177.12" fill="none" stroke="#000000" stroke-width="0.5" stroke-linejoin="round" stroke-linecap="round"/>
</svg>