<?xml version="1.0" encoding="UTF-8"?>
<svg xmlns="http://www.w3.org/2000/svg" viewBox="13.46 140.00 42.02 42.60">
<path d="M 49.00 145.00 L 49.26 145.67 L 49.28 146.16 L 49.34 146.69 L 49.61 147.04 L 49.82 147.48 L 49.93 148.04 L 50.05 148.61 L 50.21 149.07 L 50.47 149.31 L 50.48 149.77 L 50.09 150.66 L 49.38 151.88 L 48.61 153.03 L 47.78 154.16 L 46.93 155.32 L 46.27 156.24 L 45.69 157.08 L 45.04 158.04 L 44.30 159.12 L 43.53 160.28 L 42.71 161.45 L 41.83 162.59 L 40.91 163.65 L 40.01 164.60 L 39.16 165.43 L 39.30 164.86 L 39.69 163.91 L 40.18 162.76 L 40.72 161.54 L 41.18 160.41 L 41.43 159.56 L 41.65 158.70 L 41.81 157.87 L 41.90 157.09 L 41.91 156.41 L 41.86 155.82 L 41.76 155.27 L 41.86 154.43 L 41.85 153.75 L 41.54 153.47 L 41.22 153.19 L 40.95 152.86 L 40.83 152.29 L 40.71 151.73 L 40.59 151.16 L 40.28 150.86 L 39.80 150.80 L 39.30 150.75 L 38.97 150.47 L 38.53 150.34 L 38.00 150.34 L 37.66 150.07 L 37.34 149.78 L 37.02 149.50 L 36.49 149.52 L 35.86 149.70 L 35.19 149.97 L 34.46 150.34 L 33.70 150.83 L 32.91 151.48 L 32.20 152.18 L 31.42 153.16 L 30.69 154.21 L 30.15 155.11 L 29.65 156.04 L 29.16 157.00 L 28.45 158.22 L 27.70 159.42 L 26.92 160.63 L 26.10 161.81 L 25.28 162.98 L 24.46 164.12 L 23.64 165.29 L 22.82 166.47 L 22.01 167.65 L 21.20 168.82 L 20.42 169.99 L 19.68 171.22 L 19.03 172.42 L 18.46 173.61 L 18.80 173.62 L 19.14 173.74 L 19.22 174.29 L 19.62 174.47 L 20.14 174.47 L 20.67 174.47 L 21.12 174.59 L 21.44 174.88 L 21.76 175.16 L 22.16 175.35 L 22.75 175.26 L 23.28 175.26 L 23.64 175.49 L 23.75 176.05 L 23.87 176.62 L 24.02 177.14 L 24.29 177.39 L 24.52 177.60" fill="none" stroke="#000000" stroke-width="0.5" stroke-linejoin="round" stroke-linecap="round"/>
</svg>