<?xml version="1.0" encoding="UTF-8"?>
<svg xmlns="http://www.w3.org/2000/svg" viewBox="19.68 140.00 34.32 42.98">
<path d="M 49.00 145.00 L 48.39 146.18 L 47.52 147.28 L 46.49 148.51 L 46.71 147.98 L 47.20 147.07 L 47.17 146.88 L 46.16 147.99 L 45.25 148.96 L 44.27 150.02 L 43.89 150.23 L 44.33 149.26 L 44.74 148.26 L 44.41 148.29 L 43.61 149.10 L 42.62 150.38 L 41.79 151.60 L 41.07 152.84 L 40.50 154.06 L 39.87 155.41 L 39.26 156.75 L 38.72 157.99 L 38.12 159.34 L 37.53 160.72 L 37.03 161.98 L 36.61 163.17 L 36.31 164.25 L 35.88 165.56 L 35.55 166.76 L 35.48 167.64 L 35.29 168.71 L 35.14 169.78 L 35.13 170.70 L 35.25 171.45 L 35.40 172.18 L 35.53 172.98 L 36.07 173.20 L 36.49 173.50 L 36.51 174.11 L 36.38 174.69 L 35.96 175.39 L 35.21 176.30 L 34.41 176.99 L 33.53 177.52 L 32.56 177.98 L 31.99 177.85 L 31.67 177.35 L 31.18 177.06 L 30.87 176.55 L 30.72 175.83 L 30.74 174.92 L 30.94 173.79 L 31.17 172.66 L 31.41 171.53 L 31.69 170.37 L 31.95 169.22 L 32.19 168.09 L 32.26 167.20 L 32.39 166.20 L 32.61 165.07 L 32.82 163.92 L 32.93 162.93 L 32.98 162.04 L 33.04 161.15 L 33.24 160.11 L 33.56 158.98 L 34.03 157.74 L 34.61 156.42 L 35.27 155.04 L 35.97 153.60 L 36.62 152.20 L 37.13 150.94 L 37.55 149.84 L 37.97 148.83 L 38.26 148.11 L 37.87 148.52 L 37.03 149.73 L 36.36 150.87 L 35.78 152.08 L 35.25 153.34 L 34.63 154.71 L 34.04 156.03 L 33.49 157.26 L 32.84 158.57 L 32.13 159.91 L 31.40 161.25 L 30.61 162.63 L 29.81 164.02 L 29.02 165.43 L 28.28 166.78 L 27.62 168.07 L 27.06 169.29 L 26.47 170.65 L 25.94 171.99 L 25.60 173.11 L 25.30 174.22 L 25.05 175.34 L 24.77 176.43 L 24.68 177.16" fill="none" stroke="#000000" stroke-width="0.5" stroke-linejoin="round" stroke-linecap="round"/>
</svg>