<?xml version="1.0" encoding="UTF-8"?>
<svg xmlns="http://www.w3.org/2000/svg" viewBox="20.62 140.00 51.93 42.44">
<path d="M 49.00 145.00 L 49.99 145.32 L 50.49 145.47 L 50.99 145.77 L 51.67 145.94 L 52.35 146.03 L 53.02 146.11 L 53.91 145.85 L 54.75 145.61 L 55.48 145.49 L 56.27 145.30 L 57.08 145.14 L 57.88 145.07 L 58.60 145.14 L 59.26 145.35 L 59.84 145.71 L 60.32 146.21 L 60.74 146.79 L 61.15 147.37 L 61.44 148.07 L 61.67 148.79 L 61.88 149.49 L 62.00 150.30 L 62.06 151.21 L 62.20 152.05 L 62.58 152.55 L 63.13 152.89 L 63.57 153.43 L 64.07 153.94 L 64.67 154.31 L 65.17 154.83 L 65.60 155.42 L 66.02 156.01 L 66.43 156.59 L 66.78 157.23 L 67.04 157.97 L 67.26 158.68 L 67.45 159.39 L 67.55 160.19 L 67.53 161.02 L 67.44 161.79 L 67.31 162.42 L 66.93 163.21 L 66.47 163.96 L 65.92 164.61 L 65.26 165.19 L 64.56 165.69 L 63.82 166.09 L 63.07 166.40 L 62.31 166.66 L 61.68 166.68 L 60.99 166.75 L 60.19 166.97 L 59.36 167.19 L 58.54 167.40 L 57.71 167.61 L 57.06 167.57 L 56.35 167.59 L 55.58 167.68 L 54.79 167.77 L 54.00 167.89 L 53.19 168.11 L 52.61 168.09 L 51.92 168.31 L 51.14 168.68 L 50.33 169.14 L 49.57 169.58 L 48.84 169.99 L 48.11 170.40 L 47.38 170.76 L 46.68 171.07 L 45.90 171.45 L 45.10 171.80 L 44.27 172.14 L 43.55 172.33 L 42.85 172.47 L 42.12 172.60 L 41.35 172.78 L 40.55 173.01 L 39.76 173.25 L 38.98 173.50 L 38.20 173.75 L 37.42 174.00 L 36.64 174.24 L 35.85 174.48 L 35.07 174.73 L 34.34 174.91 L 33.62 175.05 L 32.76 175.37 L 31.96 175.60 L 31.23 175.72 L 30.50 175.85 L 29.74 175.98 L 28.92 176.20 L 28.16 176.32 L 27.43 176.49 L 26.74 176.80 L 26.19 177.05 L 25.62 177.44" fill="none" stroke="#000000" stroke-width="0.5" stroke-linejoin="round" stroke-linecap="round"/>
</svg>