<?xml version="1.0" encoding="UTF-8"?>
<svg xmlns="http://www.w3.org/2000/svg" viewBox="13.57 140.00 40.43 42.89">
<path d="M 49.00 145.00 L 48.43 145.40 L 47.96 145.87 L 47.49 146.34 L 47.00 146.79 L 46.49 147.27 L 45.97 147.77 L 45.48 148.25 L 45.02 148.73 L 44.55 149.20 L 44.06 149.67 L 43.56 150.19 L 43.10 150.68 L 42.66 151.19 L 42.21 151.74 L 41.76 152.30 L 41.33 152.87 L 40.90 153.44 L 40.50 154.03 L 40.11 154.63 L 39.72 155.23 L 39.36 155.80 L 39.01 156.39 L 38.65 157.01 L 38.34 157.61 L 38.01 158.22 L 37.65 158.83 L 37.31 159.41 L 36.94 160.00 L 36.55 160.60 L 36.13 161.17 L 35.68 161.73 L 35.20 162.25 L 34.72 162.72 L 34.23 163.17 L 33.73 163.62 L 33.31 163.94 L 32.84 164.33 L 32.34 164.84 L 31.88 165.34 L 31.46 165.85 L 31.02 166.35 L 30.52 166.84 L 30.02 167.28 L 29.72 167.38 L 29.52 167.20 L 29.43 166.78 L 29.13 166.54 L 28.83 166.30 L 28.55 166.02 L 28.22 165.80 L 27.88 165.60 L 27.55 165.38 L 27.28 165.10 L 26.97 164.86 L 26.62 164.69 L 26.15 164.68 L 25.77 164.57 L 25.40 164.43 L 24.95 164.43 L 24.53 164.44 L 24.12 164.49 L 23.64 164.71 L 23.12 165.10 L 22.63 165.56 L 22.16 166.10 L 21.74 166.66 L 21.35 167.20 L 20.94 167.77 L 20.51 168.34 L 20.07 168.89 L 19.66 169.40 L 19.27 169.94 L 18.93 170.50 L 18.71 170.98 L 18.57 171.48 L 18.61 171.87 L 18.77 172.23 L 19.09 172.42 L 19.43 172.62 L 19.77 172.82 L 20.08 173.05 L 20.36 173.33 L 20.67 173.56 L 20.93 173.85 L 21.08 174.31 L 21.31 174.65 L 21.58 174.92 L 21.90 175.12 L 22.11 175.48 L 22.25 175.93 L 22.56 176.15 L 22.77 176.51 L 22.91 176.96 L 23.23 177.17 L 23.53 177.42 L 23.80 177.70 L 24.08 177.87 L 24.41 177.89" fill="none" stroke="#000000" stroke-width="0.5" stroke-linejoin="round" stroke-linecap="round"/>
</svg>