<?xml version="1.0" encoding="UTF-8"?>
<svg xmlns="http://www.w3.org/2000/svg" viewBox="20.65 140.00 33.35 42.93">
<path d="M 49.00 145.00 L 48.67 145.50 L 48.31 145.98 L 47.93 146.43 L 47.54 146.88 L 47.16 147.32 L 46.80 147.73 L 46.41 148.18 L 46.02 148.62 L 45.63 149.08 L 45.24 149.53 L 44.84 149.97 L 44.44 150.42 L 44.08 150.83 L 43.74 151.28 L 43.38 151.76 L 43.06 152.23 L 42.77 152.71 L 42.49 153.24 L 42.22 153.79 L 41.94 154.32 L 41.65 154.81 L 41.37 155.30 L 41.08 155.83 L 40.82 156.38 L 40.55 156.91 L 40.29 157.41 L 40.05 157.92 L 39.80 158.47 L 39.55 159.02 L 39.32 159.55 L 39.06 160.09 L 38.78 160.63 L 38.49 161.11 L 38.15 161.56 L 37.75 162.00 L 37.33 162.36 L 36.84 162.68 L 36.29 162.95 L 35.77 163.11 L 35.23 163.27 L 34.66 163.43 L 34.07 163.60 L 33.49 163.74 L 32.93 163.88 L 32.36 164.02 L 31.77 164.19 L 31.19 164.36 L 30.67 164.52 L 30.24 164.75 L 29.85 165.12 L 29.57 165.60 L 29.48 166.03 L 29.75 166.20 L 30.18 166.35 L 30.72 166.48 L 31.28 166.63 L 31.80 166.68 L 32.33 166.60 L 32.71 166.57 L 32.53 167.18 L 32.31 167.76 L 32.10 168.34 L 31.88 168.92 L 31.78 169.45 L 31.82 169.91 L 32.13 170.15 L 32.69 170.09 L 33.17 170.13 L 33.61 170.14 L 34.22 169.90 L 34.81 169.63 L 35.34 169.35 L 35.69 169.26 L 35.54 169.84 L 35.40 170.43 L 35.26 171.02 L 35.10 171.59 L 34.95 172.17 L 34.79 172.75 L 34.56 173.27 L 34.26 173.74 L 33.90 174.17 L 33.58 174.41 L 33.18 174.64 L 32.65 174.93 L 32.10 175.10 L 31.55 175.31 L 30.99 175.58 L 30.49 175.76 L 29.94 176.00 L 29.38 176.27 L 28.81 176.53 L 28.30 176.74 L 27.76 176.96 L 27.20 177.22 L 26.67 177.39 L 26.15 177.64 L 25.65 177.93" fill="none" stroke="#000000" stroke-width="0.5" stroke-linejoin="round" stroke-linecap="round"/>
</svg>