<?xml version="1.0" encoding="UTF-8"?>
<svg xmlns="http://www.w3.org/2000/svg" viewBox="20.39 140.00 40.26 42.56">
<path d="M 49.00 145.00 L 49.74 145.22 L 50.24 145.16 L 50.78 145.21 L 51.17 145.58 L 51.53 145.97 L 51.86 146.40 L 52.12 146.91 L 52.32 147.49 L 52.48 148.12 L 52.66 148.72 L 53.00 149.11 L 53.25 149.60 L 53.53 150.05 L 53.84 150.48 L 53.98 151.13 L 54.16 151.74 L 54.38 152.29 L 54.63 152.79 L 54.97 153.18 L 55.24 153.65 L 55.46 154.17 L 55.60 154.74 L 55.65 155.33 L 55.63 155.86 L 55.51 156.36 L 55.25 156.90 L 54.89 157.35 L 54.43 157.71 L 53.89 157.97 L 53.41 157.99 L 52.99 157.79 L 52.61 157.42 L 52.22 157.00 L 51.76 156.66 L 51.25 156.38 L 50.75 156.10 L 50.22 155.93 L 49.71 155.82 L 49.22 155.78 L 48.68 155.95 L 48.15 156.24 L 47.69 156.61 L 47.31 157.05 L 46.97 157.52 L 46.68 157.99 L 46.41 158.49 L 46.12 159.01 L 45.82 159.51 L 45.49 159.99 L 45.15 160.46 L 44.80 160.93 L 44.44 161.38 L 44.06 161.83 L 43.68 162.27 L 43.32 162.73 L 42.97 163.19 L 42.58 163.63 L 42.15 164.04 L 41.73 164.44 L 41.32 164.77 L 40.90 165.09 L 40.41 165.44 L 39.91 165.73 L 39.41 166.05 L 38.94 166.38 L 38.52 166.67 L 38.07 167.06 L 37.64 167.46 L 37.21 167.86 L 36.80 168.29 L 36.40 168.72 L 35.99 169.12 L 35.56 169.52 L 35.09 169.89 L 34.60 170.18 L 34.08 170.48 L 33.58 170.68 L 33.10 170.76 L 32.48 170.96 L 31.93 171.00 L 31.40 170.98 L 30.85 171.06 L 30.46 170.94 L 29.93 171.13 L 29.44 171.42 L 29.00 171.77 L 28.62 172.22 L 28.31 172.72 L 28.05 173.25 L 27.84 173.77 L 27.63 174.30 L 27.39 174.80 L 27.11 175.31 L 26.80 175.81 L 26.49 176.25 L 26.15 176.67 L 25.77 177.12 L 25.39 177.56" fill="none" stroke="#000000" stroke-width="0.5" stroke-linejoin="round" stroke-linecap="round"/>
</svg>