<?xml version="1.0" encoding="UTF-8"?>
<svg xmlns="http://www.w3.org/2000/svg" viewBox="13.74 140.00 40.26 42.88">
<path d="M 49.00 145.00 L 48.27 145.23 L 47.84 145.46 L 47.42 145.62 L 46.83 145.95 L 46.23 146.29 L 45.63 146.65 L 45.03 146.99 L 44.44 147.28 L 43.89 147.49 L 43.46 147.51 L 42.95 147.59 L 42.36 147.77 L 41.79 147.96 L 41.24 148.16 L 40.68 148.38 L 40.06 148.71 L 39.49 149.02 L 39.01 149.27 L 38.50 149.65 L 38.01 150.12 L 37.55 150.65 L 37.18 151.27 L 36.92 151.85 L 36.72 152.44 L 36.72 152.90 L 36.63 153.59 L 36.69 154.13 L 37.09 154.21 L 37.43 154.32 L 37.64 154.54 L 37.55 155.13 L 37.32 155.80 L 37.02 156.46 L 36.66 157.08 L 36.28 157.69 L 35.86 158.27 L 35.43 158.84 L 35.02 159.42 L 34.62 160.01 L 34.22 160.58 L 33.84 161.14 L 33.46 161.72 L 33.09 162.34 L 32.75 162.97 L 32.42 163.59 L 32.13 164.20 L 31.84 164.86 L 31.59 165.51 L 31.39 166.11 L 31.19 166.72 L 31.00 167.37 L 30.81 168.06 L 30.65 168.69 L 30.49 169.31 L 30.38 169.87 L 30.21 170.54 L 30.04 171.22 L 29.87 171.85 L 29.65 172.38 L 29.36 172.85 L 28.91 173.41 L 28.57 173.67 L 28.14 173.85 L 27.58 174.06 L 27.07 174.08 L 26.57 174.06 L 26.00 174.12 L 25.47 174.12 L 24.99 174.08 L 24.50 174.03 L 23.92 174.10 L 23.31 174.22 L 22.84 174.19 L 22.33 174.24 L 21.82 174.33 L 21.26 174.53 L 20.68 174.81 L 20.10 175.17 L 19.62 175.58 L 19.20 176.10 L 18.86 176.71 L 18.74 177.18 L 18.97 177.33 L 19.33 177.47 L 19.82 177.52 L 20.18 177.74 L 20.59 177.88 L 21.20 177.72 L 21.88 177.48 L 22.43 177.41 L 22.85 177.51 L 23.31 177.57 L 23.80 177.61 L 24.30 177.66 L 24.84 177.51 L 25.27 177.31 L 25.55 177.21 L 25.35 177.65" fill="none" stroke="#000000" stroke-width="0.5" stroke-linejoin="round" stroke-linecap="round"/>
</svg>