<?xml version="1.0" encoding="UTF-8"?>
<svg xmlns="http://www.w3.org/2000/svg" viewBox="20.80 140.00 43.01 42.78">
<path d="M 49.00 145.00 L 48.25 145.01 L 47.78 145.26 L 47.29 145.61 L 46.81 146.06 L 46.35 146.72 L 46.10 147.30 L 46.25 147.57 L 46.45 147.96 L 46.71 148.40 L 47.03 148.81 L 47.38 149.17 L 47.82 149.39 L 48.38 149.44 L 48.93 149.49 L 49.46 149.52 L 50.04 149.48 L 50.76 149.20 L 51.36 149.02 L 51.93 148.86 L 52.69 148.40 L 53.39 148.02 L 54.03 147.68 L 54.69 147.30 L 55.38 146.93 L 56.16 146.48 L 56.47 146.73 L 56.62 147.22 L 56.98 147.47 L 57.43 147.66 L 57.85 147.90 L 58.15 148.32 L 58.29 148.93 L 58.48 149.45 L 58.72 149.88 L 58.80 150.48 L 58.67 151.19 L 58.58 151.63 L 58.21 152.21 L 57.75 152.70 L 57.37 152.85 L 57.17 152.54 L 56.77 152.34 L 56.37 152.09 L 56.24 151.48 L 56.11 150.87 L 55.99 150.27 L 55.47 150.25 L 54.86 150.38 L 54.22 150.60 L 53.53 150.89 L 52.84 151.22 L 52.14 151.57 L 51.47 151.91 L 50.82 152.24 L 50.20 152.59 L 49.52 153.01 L 48.80 153.50 L 48.09 154.00 L 47.41 154.48 L 46.80 154.90 L 46.19 155.35 L 45.58 155.92 L 45.02 156.56 L 44.50 157.31 L 44.16 157.93 L 43.90 158.58 L 43.63 159.32 L 43.36 160.11 L 43.07 160.85 L 42.72 161.60 L 42.29 162.41 L 41.82 163.20 L 41.31 163.96 L 40.76 164.70 L 40.21 165.42 L 39.64 166.13 L 39.07 166.84 L 38.47 167.53 L 37.88 168.22 L 37.28 168.91 L 36.69 169.60 L 36.09 170.29 L 35.47 170.97 L 34.82 171.62 L 34.17 172.23 L 33.51 172.76 L 32.87 173.22 L 32.27 173.58 L 31.67 173.94 L 31.04 174.38 L 30.35 174.89 L 29.61 175.46 L 28.87 176.02 L 28.27 176.38 L 27.66 176.73 L 27.01 177.07 L 26.38 177.41 L 25.80 177.78" fill="none" stroke="#000000" stroke-width="0.5" stroke-linejoin="round" stroke-linecap="round"/>
</svg>