<?xml version="1.0" encoding="UTF-8"?>
<svg xmlns="http://www.w3.org/2000/svg" viewBox="20.30 140.00 33.70 42.66">
<path d="M 49.00 145.00 L 48.70 145.33 L 48.35 145.62 L 47.97 145.86 L 47.63 146.00 L 47.29 146.11 L 46.96 146.22 L 46.62 146.49 L 46.37 146.84 L 46.20 147.27 L 46.32 147.50 L 46.53 147.71 L 46.75 147.92 L 46.95 148.13 L 47.01 148.40 L 46.84 148.83 L 46.59 149.22 L 46.28 149.54 L 45.92 149.79 L 45.54 150.03 L 45.15 150.26 L 44.79 150.48 L 44.43 150.73 L 44.07 151.01 L 43.71 151.31 L 43.38 151.64 L 43.07 151.97 L 42.75 152.30 L 42.41 152.62 L 42.06 152.93 L 41.72 153.20 L 41.38 153.47 L 41.01 153.72 L 40.62 153.98 L 40.23 154.25 L 39.89 154.48 L 39.54 154.74 L 39.16 155.01 L 38.76 155.28 L 38.38 155.52 L 38.01 155.77 L 37.63 156.00 L 37.23 156.23 L 36.84 156.46 L 36.46 156.70 L 36.08 156.95 L 35.71 157.20 L 35.33 157.49 L 34.98 157.77 L 34.66 158.05 L 34.31 158.36 L 33.95 158.66 L 33.61 158.97 L 33.31 159.28 L 33.02 159.60 L 32.72 159.94 L 32.43 160.29 L 32.17 160.66 L 31.92 161.04 L 31.69 161.42 L 31.45 161.81 L 31.22 162.21 L 31.02 162.61 L 30.83 163.02 L 30.65 163.45 L 30.51 163.89 L 30.39 164.32 L 30.30 164.75 L 30.20 165.19 L 30.10 165.63 L 30.01 166.07 L 29.90 166.54 L 29.80 166.99 L 29.74 167.38 L 29.64 167.84 L 29.53 168.29 L 29.49 168.70 L 29.38 169.15 L 29.27 169.60 L 29.20 169.99 L 29.07 170.42 L 28.93 170.87 L 28.78 171.32 L 28.62 171.74 L 28.45 172.16 L 28.28 172.58 L 28.10 173.01 L 27.92 173.43 L 27.72 173.83 L 27.51 174.24 L 27.30 174.64 L 27.07 175.03 L 26.84 175.42 L 26.61 175.80 L 26.35 176.18 L 26.10 176.56 L 25.85 176.92 L 25.57 177.29 L 25.30 177.66" fill="none" stroke="#000000" stroke-width="0.5" stroke-linejoin="round" stroke-linecap="round"/>
</svg>