<?xml version="1.0" encoding="UTF-8"?>
<svg xmlns="http://www.w3.org/2000/svg" viewBox="20.22 140.00 33.78 42.63">
<path d="M 49.00 145.00 L 48.65 145.27 L 48.35 145.59 L 48.04 145.90 L 47.71 146.20 L 47.37 146.49 L 47.02 146.77 L 46.68 147.04 L 46.36 147.27 L 46.00 147.51 L 45.61 147.76 L 45.21 148.00 L 44.86 148.20 L 44.49 148.40 L 44.10 148.59 L 43.69 148.82 L 43.33 148.96 L 42.97 149.13 L 42.58 149.36 L 42.18 149.54 L 41.77 149.75 L 41.37 149.92 L 41.00 150.02 L 40.60 150.19 L 40.22 150.32 L 39.83 150.44 L 39.39 150.65 L 38.98 150.82 L 38.61 150.95 L 38.26 151.10 L 37.88 151.35 L 37.62 151.52 L 37.36 151.81 L 37.13 152.18 L 36.95 152.57 L 36.85 152.97 L 36.78 153.37 L 36.71 153.79 L 36.64 154.23 L 36.55 154.67 L 36.46 155.07 L 36.35 155.49 L 36.22 155.93 L 36.10 156.37 L 35.98 156.79 L 35.87 157.18 L 35.74 157.58 L 35.60 158.01 L 35.46 158.43 L 35.30 158.84 L 35.13 159.25 L 34.96 159.66 L 34.79 160.07 L 34.63 160.47 L 34.46 160.88 L 34.29 161.29 L 34.12 161.70 L 33.95 162.11 L 33.78 162.51 L 33.62 162.92 L 33.45 163.33 L 33.28 163.74 L 33.11 164.14 L 32.94 164.55 L 32.75 164.94 L 32.55 165.33 L 32.35 165.72 L 32.15 166.11 L 31.95 166.50 L 31.75 166.89 L 31.55 167.27 L 31.35 167.66 L 31.16 168.04 L 30.95 168.43 L 30.73 168.82 L 30.51 169.18 L 30.28 169.55 L 30.06 169.93 L 29.85 170.32 L 29.64 170.70 L 29.41 171.06 L 29.21 171.44 L 28.99 171.83 L 28.77 172.21 L 28.54 172.57 L 28.31 172.94 L 28.10 173.33 L 27.89 173.71 L 27.66 174.08 L 27.45 174.45 L 27.24 174.83 L 27.02 175.21 L 26.79 175.56 L 26.53 175.91 L 26.26 176.24 L 26.00 176.59 L 25.74 176.95 L 25.47 177.28 L 25.22 177.63" fill="none" stroke="#000000" stroke-width="0.5" stroke-linejoin="round" stroke-linecap="round"/>
</svg>