<?xml version="1.0" encoding="UTF-8"?>
<svg xmlns="http://www.w3.org/2000/svg" viewBox="20.14 140.00 33.86 42.42">
<path d="M 49.00 145.00 L 48.46 145.61 L 47.95 146.25 L 47.43 146.88 L 46.88 147.48 L 46.31 148.08 L 45.74 148.63 L 45.15 149.13 L 44.53 149.60 L 43.86 150.04 L 43.23 150.34 L 42.59 150.56 L 41.94 150.74 L 41.47 150.60 L 41.07 150.31 L 40.49 150.26 L 39.99 150.10 L 39.63 149.73 L 39.54 149.02 L 39.33 148.51 L 39.05 148.11 L 39.02 147.41 L 39.02 146.73 L 39.09 146.10 L 39.23 145.54 L 38.86 145.87 L 38.41 146.48 L 38.04 147.16 L 37.79 147.84 L 37.72 148.47 L 37.56 149.28 L 37.59 149.88 L 37.71 150.38 L 37.74 151.05 L 37.78 151.77 L 37.88 152.44 L 38.22 152.78 L 38.46 153.29 L 38.68 153.86 L 38.93 154.41 L 39.29 154.77 L 39.62 155.10 L 39.81 155.54 L 39.79 156.20 L 39.59 156.99 L 39.33 157.74 L 39.02 158.46 L 38.67 159.21 L 38.31 159.96 L 37.91 160.62 L 37.44 161.22 L 36.89 161.76 L 36.52 161.98 L 36.31 161.93 L 36.22 161.68 L 36.34 161.09 L 35.86 161.31 L 35.19 161.80 L 34.54 162.30 L 34.04 162.69 L 33.88 162.68 L 33.66 162.83 L 33.18 163.49 L 32.93 163.99 L 32.81 164.58 L 32.78 165.25 L 32.81 165.95 L 33.08 166.34 L 33.27 166.83 L 33.30 167.50 L 33.56 167.79 L 33.51 168.41 L 33.26 169.17 L 32.98 169.91 L 32.65 170.65 L 32.30 171.39 L 31.96 172.08 L 31.59 172.76 L 31.23 173.45 L 30.88 174.16 L 30.43 174.83 L 29.93 175.42 L 29.52 175.79 L 29.62 175.37 L 29.76 174.79 L 29.95 174.00 L 30.01 173.28 L 30.07 172.65 L 30.21 172.07 L 29.75 172.37 L 29.22 172.83 L 28.66 173.37 L 28.10 173.95 L 27.57 174.54 L 27.05 175.09 L 26.53 175.64 L 26.05 176.22 L 25.56 176.84 L 25.14 177.42" fill="none" stroke="#000000" stroke-width="0.5" stroke-linejoin="round" stroke-linecap="round"/>
</svg>