<?xml version="1.0" encoding="UTF-8"?>
<svg xmlns="http://www.w3.org/2000/svg" viewBox="20.53 140.00 33.47 42.90">
<path d="M 49.00 145.00 L 48.85 145.48 L 48.60 145.94 L 48.35 146.44 L 48.11 146.95 L 47.87 147.46 L 47.68 147.91 L 47.48 148.36 L 47.31 148.82 L 47.08 149.34 L 46.94 149.70 L 47.01 149.75 L 46.73 150.25 L 46.47 150.69 L 46.19 151.14 L 45.87 151.61 L 45.57 152.08 L 45.26 152.54 L 44.95 153.00 L 44.65 153.47 L 44.34 153.94 L 44.02 154.41 L 43.69 154.86 L 43.37 155.32 L 43.07 155.80 L 42.78 156.31 L 42.53 156.78 L 42.44 157.00 L 42.42 157.08 L 42.16 157.47 L 41.89 157.85 L 41.63 158.22 L 41.36 158.59 L 41.03 159.04 L 40.81 159.33 L 40.63 159.55 L 40.46 159.79 L 40.28 160.06 L 40.05 160.29 L 39.68 160.64 L 39.30 161.02 L 39.05 161.23 L 38.73 161.55 L 38.34 161.95 L 38.07 162.19 L 37.79 162.48 L 37.41 162.91 L 37.03 163.34 L 36.68 163.78 L 36.35 164.26 L 36.06 164.76 L 35.78 165.26 L 35.96 165.19 L 36.27 164.97 L 36.63 164.67 L 36.65 164.81 L 36.45 165.26 L 36.23 165.75 L 36.05 166.21 L 36.02 166.41 L 35.95 166.63 L 36.07 166.65 L 35.85 167.19 L 35.61 167.71 L 35.50 168.04 L 35.52 168.13 L 35.25 168.63 L 35.03 169.07 L 34.79 169.53 L 34.50 170.02 L 34.19 170.50 L 33.90 170.91 L 33.61 171.28 L 33.33 171.64 L 33.00 172.04 L 32.66 172.39 L 32.35 172.66 L 31.98 173.08 L 31.65 173.46 L 31.29 173.82 L 30.94 174.16 L 30.64 174.43 L 30.52 174.44 L 30.26 174.65 L 29.84 175.04 L 29.43 175.38 L 29.06 175.67 L 28.65 176.06 L 28.41 176.24 L 28.23 176.31 L 27.81 176.69 L 27.43 176.99 L 27.15 177.18 L 26.86 177.37 L 26.43 177.68 L 26.02 177.90 L 25.87 177.80 L 25.73 177.73 L 25.53 177.76" fill="none" stroke="#000000" stroke-width="0.5" stroke-linejoin="round" stroke-linecap="round"/>
</svg>