<?xml version="1.0" encoding="UTF-8"?>
<svg xmlns="http://www.w3.org/2000/svg" viewBox="19.70 140.00 34.30 42.40">
<path d="M 49.00 145.00 L 48.61 145.15 L 48.39 145.45 L 48.19 145.85 L 47.97 146.30 L 47.79 146.85 L 47.81 147.27 L 47.74 147.84 L 47.66 148.43 L 47.63 148.96 L 47.61 149.41 L 47.56 149.86 L 47.42 150.44 L 47.25 151.00 L 47.05 151.53 L 46.82 152.05 L 46.59 152.56 L 46.36 153.08 L 46.13 153.59 L 45.90 154.10 L 45.67 154.62 L 45.46 155.15 L 45.28 155.69 L 45.09 156.24 L 44.93 156.71 L 44.72 157.10 L 44.40 157.54 L 44.21 157.66 L 44.28 157.28 L 44.34 156.78 L 44.35 156.34 L 44.15 156.24 L 43.72 156.60 L 43.32 156.99 L 42.95 157.40 L 42.59 157.82 L 42.23 158.24 L 41.85 158.63 L 41.45 158.95 L 41.02 159.28 L 40.60 159.65 L 40.28 160.01 L 40.00 160.46 L 39.79 160.97 L 39.70 161.44 L 39.72 161.94 L 39.83 162.45 L 39.88 163.03 L 40.01 163.47 L 40.18 163.77 L 40.13 164.31 L 40.00 164.89 L 39.83 165.45 L 39.62 165.97 L 39.39 166.49 L 39.16 167.00 L 38.93 167.52 L 38.70 168.03 L 38.46 168.54 L 38.23 169.06 L 38.00 169.57 L 37.77 170.09 L 37.54 170.60 L 37.31 171.11 L 37.08 171.63 L 36.85 172.14 L 36.62 172.66 L 36.39 173.17 L 36.16 173.69 L 35.93 174.20 L 35.69 174.71 L 35.39 175.16 L 35.02 175.58 L 34.69 175.86 L 34.73 175.50 L 34.78 175.00 L 34.63 174.65 L 34.06 174.79 L 33.55 174.86 L 33.00 174.96 L 32.44 175.08 L 31.91 175.13 L 31.35 175.24 L 30.79 175.36 L 30.27 175.41 L 29.68 175.51 L 29.09 175.59 L 28.53 175.61 L 28.07 175.49 L 27.62 175.36 L 27.04 175.37 L 26.45 175.44 L 25.93 175.50 L 25.67 175.46 L 25.31 175.74 L 24.97 176.17 L 24.87 176.48 L 24.77 176.93 L 24.70 177.40" fill="none" stroke="#000000" stroke-width="0.5" stroke-linejoin="round" stroke-linecap="round"/>
</svg>