<?xml version="1.0" encoding="UTF-8"?>
<svg xmlns="http://www.w3.org/2000/svg" viewBox="13.92 140.00 40.08 42.54">
<path d="M 49.00 145.00 L 48.27 146.37 L 47.46 147.68 L 46.66 149.00 L 45.88 150.33 L 45.09 151.66 L 44.29 152.98 L 43.44 154.33 L 42.52 155.74 L 41.52 157.23 L 40.44 158.77 L 39.33 160.28 L 38.18 161.76 L 37.04 163.18 L 36.13 164.23 L 35.35 165.04 L 34.54 165.84 L 33.85 166.43 L 33.13 167.05 L 32.28 167.82 L 31.55 168.43 L 30.83 169.01 L 30.44 169.14 L 30.06 169.25 L 29.67 169.37 L 28.94 169.94 L 28.33 170.36 L 28.30 169.98 L 28.16 169.73 L 27.78 169.84 L 27.38 169.94 L 26.99 170.04 L 26.87 169.76 L 26.84 169.37 L 26.48 169.43 L 26.35 169.17 L 26.32 168.78 L 26.42 168.21 L 26.55 167.61 L 26.67 167.01 L 26.80 166.41 L 26.93 165.81 L 26.98 165.35 L 26.96 164.97 L 27.49 163.85 L 27.96 162.81 L 28.11 162.23 L 28.27 161.65 L 28.69 160.72 L 29.19 159.65 L 29.92 158.28 L 30.18 157.56 L 30.50 156.76 L 30.99 155.75 L 31.24 155.14 L 31.64 154.38 L 31.00 155.11 L 29.85 156.59 L 28.71 158.09 L 27.60 159.60 L 26.50 161.11 L 25.40 162.62 L 24.35 164.10 L 23.28 165.64 L 22.29 167.14 L 21.48 168.46 L 20.95 169.48 L 20.54 170.38 L 20.39 170.96 L 20.24 171.55 L 19.91 172.41 L 19.45 173.45 L 19.30 174.06 L 19.17 174.66 L 19.04 175.25 L 18.92 175.85 L 19.31 175.75 L 19.61 175.76 L 19.65 176.15 L 19.82 176.36 L 20.21 176.26 L 20.60 176.15 L 20.84 176.27 L 20.87 176.66 L 21.11 176.77 L 21.51 176.67 L 21.90 176.57 L 22.29 176.46 L 22.68 176.36 L 23.08 176.26 L 23.47 176.16 L 23.67 176.32 L 23.71 176.71 L 23.98 176.77 L 24.37 176.67 L 24.44 177.01 L 24.49 177.39 L 24.85 177.26 L 24.88 177.54" fill="none" stroke="#000000" stroke-width="0.5" stroke-linejoin="round" stroke-linecap="round"/>
</svg>