<?xml version="1.0" encoding="UTF-8"?>
<svg xmlns="http://www.w3.org/2000/svg" viewBox="15.66 140.00 38.34 42.38">
<path d="M 49.00 145.00 L 48.34 145.16 L 47.84 145.47 L 47.24 145.84 L 46.66 146.10 L 46.10 146.33 L 45.55 146.58 L 45.00 146.81 L 44.42 147.06 L 43.78 147.40 L 43.20 147.67 L 42.66 147.92 L 42.12 148.16 L 41.53 148.45 L 40.89 148.79 L 40.34 149.03 L 39.81 149.28 L 39.28 149.54 L 38.69 149.88 L 38.09 150.26 L 37.49 150.63 L 36.91 151.01 L 36.37 151.35 L 35.85 151.63 L 35.29 152.02 L 34.74 152.41 L 34.21 152.80 L 33.62 153.24 L 33.00 153.65 L 32.38 154.00 L 32.03 153.93 L 31.64 153.82 L 31.20 153.68 L 30.66 153.63 L 30.13 153.55 L 29.75 153.28 L 29.28 153.11 L 28.81 152.95 L 28.33 152.78 L 27.91 152.54 L 27.51 152.26 L 27.15 152.00 L 26.80 151.76 L 26.42 151.57 L 25.72 151.87 L 25.17 152.01 L 24.71 152.14 L 24.24 152.44 L 23.73 152.84 L 23.23 153.29 L 22.79 153.77 L 22.35 154.33 L 21.95 154.93 L 21.58 155.56 L 21.23 156.20 L 20.96 156.82 L 20.77 157.44 L 20.68 158.04 L 20.66 158.65 L 20.68 159.28 L 20.94 159.64 L 21.19 160.03 L 21.44 160.46 L 21.74 160.84 L 22.24 160.96 L 22.78 161.01 L 23.25 161.16 L 23.71 161.32 L 24.17 161.47 L 24.69 161.56 L 25.26 161.57 L 25.76 161.64 L 26.18 161.77 L 26.50 161.97 L 26.58 162.47 L 26.47 163.19 L 26.34 163.89 L 26.22 164.50 L 26.11 165.10 L 25.93 165.77 L 25.78 166.44 L 25.63 167.10 L 25.45 167.77 L 25.32 168.39 L 25.21 168.97 L 25.05 169.65 L 24.89 170.33 L 24.74 170.99 L 24.66 171.57 L 24.52 172.24 L 24.42 172.91 L 24.39 173.52 L 24.37 174.13 L 24.38 174.73 L 24.49 175.21 L 24.54 175.82 L 24.57 176.47 L 24.65 176.95 L 24.69 177.38" fill="none" stroke="#000000" stroke-width="0.5" stroke-linejoin="round" stroke-linecap="round"/>
</svg>