<?xml version="1.0" encoding="UTF-8"?>
<svg xmlns="http://www.w3.org/2000/svg" viewBox="17.90 140.00 36.10 42.44">
<path d="M 49.00 145.00 L 48.66 145.36 L 48.34 145.73 L 48.02 146.10 L 47.69 146.47 L 47.37 146.84 L 47.03 147.20 L 46.67 147.54 L 46.35 147.91 L 46.05 148.28 L 45.79 148.60 L 45.52 148.92 L 45.24 149.29 L 44.96 149.68 L 44.71 150.11 L 44.46 150.52 L 44.20 150.94 L 43.95 151.34 L 43.74 151.70 L 43.47 152.10 L 43.19 152.50 L 42.87 152.87 L 42.52 153.22 L 42.18 153.54 L 41.86 153.83 L 41.50 154.17 L 41.11 154.49 L 40.69 154.80 L 40.27 155.09 L 39.92 155.22 L 39.53 155.32 L 39.03 155.47 L 38.56 155.51 L 38.14 155.45 L 37.67 155.49 L 37.21 155.51 L 36.78 155.52 L 36.27 155.65 L 35.76 155.79 L 35.26 155.93 L 34.81 156.04 L 34.39 156.12 L 33.93 156.25 L 33.44 156.41 L 32.97 156.58 L 32.53 156.78 L 32.11 156.98 L 31.68 157.21 L 31.22 157.47 L 30.77 157.71 L 30.38 157.94 L 29.99 158.17 L 29.57 158.39 L 29.13 158.67 L 28.73 158.92 L 28.34 159.16 L 27.95 159.45 L 27.55 159.74 L 27.20 160.01 L 26.84 160.34 L 26.48 160.68 L 26.13 161.03 L 25.80 161.40 L 25.47 161.77 L 25.15 162.14 L 24.87 162.54 L 24.59 162.94 L 24.33 163.34 L 24.13 163.71 L 23.92 164.15 L 23.75 164.62 L 23.61 165.08 L 23.45 165.48 L 23.32 165.91 L 23.20 166.39 L 23.09 166.91 L 23.00 167.36 L 22.97 167.75 L 22.97 168.14 L 22.91 168.69 L 22.90 169.17 L 22.95 169.55 L 22.91 170.04 L 22.90 170.55 L 22.90 171.07 L 22.91 171.60 L 23.01 172.04 L 23.13 172.45 L 23.27 172.88 L 23.38 173.36 L 23.47 173.89 L 23.59 174.38 L 23.75 174.82 L 23.91 175.27 L 24.09 175.72 L 24.27 176.17 L 24.45 176.63 L 24.59 177.05 L 24.67 177.44" fill="none" stroke="#000000" stroke-width="0.5" stroke-linejoin="round" stroke-linecap="round"/>
</svg>