<?xml version="1.0" encoding="UTF-8"?>
<svg xmlns="http://www.w3.org/2000/svg" viewBox="20.24 140.00 33.76 42.61">
<path d="M 49.00 145.00 L 48.91 145.57 L 48.73 146.06 L 48.59 146.53 L 48.50 146.98 L 48.38 147.46 L 48.23 147.98 L 48.09 148.48 L 47.94 149.01 L 47.77 149.56 L 47.68 150.01 L 47.58 150.44 L 47.48 150.88 L 47.31 151.44 L 47.14 151.98 L 46.97 152.48 L 46.80 152.96 L 46.62 153.47 L 46.42 154.01 L 46.24 154.51 L 46.04 155.02 L 45.83 155.56 L 45.63 156.06 L 45.43 156.55 L 45.19 157.07 L 44.95 157.58 L 44.70 158.10 L 44.43 158.63 L 44.16 159.15 L 43.89 159.65 L 43.63 160.15 L 43.36 160.67 L 43.07 161.19 L 42.80 161.69 L 42.51 162.18 L 42.20 162.69 L 41.89 163.20 L 41.58 163.70 L 41.26 164.19 L 40.93 164.69 L 40.59 165.17 L 40.26 165.66 L 39.91 166.14 L 39.56 166.61 L 39.20 167.08 L 38.83 167.54 L 38.45 168.00 L 38.08 168.46 L 37.72 168.92 L 37.37 169.40 L 37.01 169.87 L 36.64 170.33 L 36.27 170.79 L 35.90 171.25 L 35.54 171.68 L 35.18 172.09 L 34.79 172.53 L 34.40 172.98 L 34.01 173.43 L 33.64 173.89 L 33.27 174.34 L 32.89 174.80 L 32.50 175.24 L 32.10 175.68 L 31.70 176.12 L 31.32 176.50 L 30.89 176.89 L 30.41 177.27 L 29.99 177.51 L 29.65 177.61 L 29.46 177.46 L 29.29 177.24 L 29.24 176.85 L 29.28 176.37 L 29.33 175.89 L 29.42 175.42 L 29.55 174.92 L 29.73 174.41 L 29.94 173.90 L 30.17 173.38 L 30.41 172.82 L 30.64 172.27 L 30.85 171.73 L 30.82 171.52 L 30.65 171.51 L 30.21 171.85 L 29.75 172.22 L 29.32 172.63 L 28.92 173.00 L 28.52 173.41 L 28.10 173.84 L 27.72 174.22 L 27.34 174.64 L 26.95 175.09 L 26.57 175.54 L 26.21 176.02 L 25.88 176.51 L 25.56 177.00 L 25.24 177.48" fill="none" stroke="#000000" stroke-width="0.5" stroke-linejoin="round" stroke-linecap="round"/>
</svg>