<?xml version="1.0" encoding="UTF-8"?>
<svg xmlns="http://www.w3.org/2000/svg" viewBox="20.96 140.00 51.46 41.21">
<path d="M 49.00 145.00 L 48.04 146.89 L 47.09 148.71 L 46.46 150.28 L 46.42 151.20 L 47.00 151.43 L 47.88 151.38 L 49.04 151.05 L 50.03 150.96 L 50.90 151.04 L 51.63 151.32 L 52.36 151.62 L 53.09 151.91 L 53.81 152.20 L 54.69 152.24 L 55.75 152.03 L 56.88 151.67 L 58.00 151.30 L 59.12 150.90 L 60.30 150.40 L 61.63 149.68 L 62.88 149.04 L 63.96 148.64 L 65.20 147.95 L 66.42 147.18 L 67.42 146.54 L 66.76 147.96 L 65.75 149.64 L 64.54 151.35 L 63.22 152.87 L 61.83 154.23 L 60.44 155.42 L 59.65 155.63 L 58.54 156.14 L 57.27 156.78 L 56.84 156.19 L 56.08 156.05 L 55.12 156.16 L 53.96 156.50 L 52.94 156.69 L 52.01 156.77 L 50.88 157.13 L 49.71 157.55 L 48.51 158.02 L 47.40 158.39 L 46.28 158.77 L 45.17 159.14 L 43.97 159.62 L 42.82 160.05 L 41.71 160.42 L 40.53 160.93 L 39.54 161.46 L 38.74 162.08 L 37.73 163.34 L 37.51 163.86 L 37.72 164.16 L 38.27 164.32 L 38.84 164.73 L 39.31 165.35 L 39.29 166.63 L 39.38 167.77 L 39.62 168.69 L 40.46 168.78 L 41.33 168.84 L 42.03 169.11 L 42.90 169.08 L 43.93 168.77 L 45.25 167.98 L 46.64 167.04 L 48.04 166.03 L 49.46 164.85 L 49.70 165.18 L 49.20 166.39 L 48.11 168.19 L 46.91 169.90 L 45.60 171.46 L 44.33 172.74 L 43.42 173.33 L 42.29 174.02 L 40.74 175.11 L 39.85 175.21 L 39.29 174.84 L 39.07 173.94 L 38.66 173.20 L 38.16 172.58 L 37.64 172.01 L 36.94 171.66 L 36.12 171.48 L 35.15 171.52 L 34.38 171.28 L 33.58 171.08 L 32.64 171.06 L 31.86 170.93 L 31.25 170.73 L 30.75 170.60 L 29.75 171.41 L 28.37 172.99 L 27.12 174.57 L 25.96 176.21" fill="none" stroke="#000000" stroke-width="0.5" stroke-linejoin="round" stroke-linecap="round"/>
</svg>