<?xml version="1.0" encoding="UTF-8"?>
<svg xmlns="http://www.w3.org/2000/svg" viewBox="20.49 140.00 34.32 42.99">
<path d="M 49.00 145.00 L 49.25 145.35 L 49.33 145.58 L 49.44 145.84 L 49.55 146.17 L 49.64 146.53 L 49.73 146.88 L 49.81 147.23 L 49.80 147.68 L 49.70 148.20 L 49.40 148.86 L 48.97 149.55 L 48.61 150.05 L 48.54 149.99 L 48.76 149.43 L 48.85 148.92 L 48.82 148.50 L 48.58 148.35 L 48.19 148.42 L 47.80 148.47 L 47.51 148.39 L 47.22 148.30 L 46.95 148.19 L 46.78 147.94 L 46.61 147.69 L 46.33 147.58 L 46.06 147.47 L 45.78 147.36 L 45.49 147.28 L 45.20 147.21 L 44.91 147.13 L 44.53 147.19 L 44.03 147.45 L 43.56 147.74 L 43.05 148.15 L 42.44 148.83 L 41.79 149.71 L 41.16 150.67 L 41.28 150.74 L 41.54 150.72 L 41.92 150.63 L 42.25 150.65 L 42.55 150.73 L 42.84 150.81 L 43.13 150.88 L 43.43 150.96 L 43.72 151.03 L 44.12 150.95 L 44.55 150.84 L 45.05 150.62 L 45.47 150.42 L 45.77 150.28 L 46.01 150.09 L 45.73 150.48 L 45.19 151.11 L 44.76 151.45 L 44.32 151.66 L 43.95 151.76 L 43.48 151.97 L 42.99 152.21 L 42.39 152.63 L 41.79 153.08 L 41.17 153.57 L 40.57 154.08 L 39.90 154.73 L 39.19 155.45 L 38.45 156.26 L 37.75 157.07 L 37.06 157.92 L 36.35 158.83 L 35.66 159.75 L 34.99 160.68 L 34.34 161.63 L 33.71 162.57 L 33.10 163.51 L 32.51 164.45 L 31.93 165.41 L 31.40 166.33 L 30.90 167.23 L 30.47 168.06 L 30.02 168.95 L 29.56 169.89 L 29.29 170.57 L 28.98 171.32 L 28.65 172.13 L 28.42 172.84 L 28.24 173.49 L 28.09 174.10 L 27.96 174.71 L 27.92 175.22 L 27.95 175.57 L 28.00 175.78 L 27.94 176.02 L 27.64 176.45 L 27.17 176.99 L 26.76 177.32 L 26.29 177.58 L 25.84 177.84 L 25.49 177.99" fill="none" stroke="#000000" stroke-width="0.5" stroke-linejoin="round" stroke-linecap="round"/>
</svg>