<?xml version="1.0" encoding="UTF-8"?>
<svg xmlns="http://www.w3.org/2000/svg" viewBox="14.46 140.00 39.54 42.69">
<path d="M 49.00 145.00 L 48.66 145.91 L 48.21 146.74 L 47.79 147.59 L 47.40 148.46 L 47.00 149.33 L 46.55 150.15 L 46.10 150.81 L 45.62 151.41 L 45.16 151.88 L 44.99 151.86 L 45.16 151.23 L 45.48 150.31 L 45.73 149.50 L 46.00 148.70 L 46.32 147.78 L 46.57 146.91 L 46.52 146.41 L 46.00 146.53 L 45.45 146.62 L 44.89 146.71 L 44.32 146.79 L 43.76 146.88 L 43.04 147.19 L 42.41 147.40 L 41.87 147.50 L 41.24 147.74 L 40.55 148.07 L 39.87 148.41 L 39.19 148.76 L 38.52 149.11 L 37.79 149.54 L 37.12 149.89 L 36.45 150.24 L 35.78 150.58 L 35.09 150.92 L 34.41 151.23 L 33.75 151.51 L 33.15 151.72 L 32.60 151.82 L 31.89 152.13 L 31.24 152.33 L 30.67 152.42 L 30.10 152.49 L 29.54 152.53 L 29.13 152.34 L 28.72 152.14 L 28.30 151.94 L 27.88 151.74 L 27.46 151.54 L 27.07 151.36 L 26.73 151.22 L 26.52 151.07 L 26.11 151.35 L 25.45 152.12 L 24.91 152.89 L 24.44 153.70 L 24.02 154.56 L 23.61 155.42 L 23.19 156.27 L 22.76 157.11 L 22.30 157.95 L 21.80 158.84 L 21.31 159.72 L 20.81 160.61 L 20.36 161.46 L 19.97 162.33 L 19.62 163.23 L 19.46 163.97 L 19.54 164.45 L 19.91 164.61 L 20.30 164.80 L 20.71 165.01 L 20.97 165.43 L 21.25 165.81 L 21.60 166.09 L 22.02 166.29 L 22.23 166.76 L 22.43 167.23 L 22.69 167.61 L 22.81 168.17 L 22.92 168.71 L 22.96 169.34 L 22.95 170.03 L 22.88 170.77 L 22.82 171.44 L 22.74 172.09 L 22.56 172.89 L 22.32 173.78 L 22.07 174.70 L 22.03 175.36 L 22.13 175.86 L 22.42 176.15 L 22.76 176.43 L 23.18 176.62 L 23.60 176.82 L 23.98 177.08 L 24.19 177.46 L 24.42 177.69" fill="none" stroke="#000000" stroke-width="0.5" stroke-linejoin="round" stroke-linecap="round"/>
</svg>