<?xml version="1.0" encoding="UTF-8"?>
<svg xmlns="http://www.w3.org/2000/svg" viewBox="18.29 140.00 36.27 42.00">
<path d="M 49.00 145.00 L 48.67 146.12 L 47.81 146.99 L 46.74 147.84 L 46.47 147.53 L 46.35 147.14 L 45.97 147.24 L 45.67 147.46 L 45.53 147.97 L 45.41 149.05 L 45.42 150.22 L 45.48 151.30 L 45.58 151.91 L 45.20 153.08 L 44.78 154.34 L 44.39 155.59 L 44.48 156.14 L 45.37 155.91 L 46.44 155.81 L 47.69 155.83 L 48.91 155.84 L 49.32 156.50 L 49.56 157.36 L 49.45 158.70 L 49.25 159.89 L 49.19 160.42 L 48.98 160.83 L 48.29 161.96 L 47.93 163.06 L 47.55 164.21 L 47.14 165.24 L 47.86 164.63 L 48.45 164.16 L 48.52 164.32 L 47.81 165.32 L 46.99 166.06 L 45.90 166.67 L 44.58 167.15 L 43.16 167.56 L 42.05 167.41 L 41.08 166.93 L 40.15 166.23 L 39.43 165.35 L 38.88 164.52 L 38.49 163.70 L 38.66 162.37 L 38.90 160.93 L 39.18 159.54 L 39.56 158.33 L 39.25 158.08 L 39.22 157.38 L 39.63 156.05 L 40.01 154.73 L 40.45 153.45 L 40.93 152.23 L 41.32 151.04 L 41.68 149.94 L 40.90 150.46 L 39.92 151.32 L 38.98 152.26 L 38.15 153.28 L 37.40 154.36 L 36.68 155.46 L 35.88 156.46 L 34.93 157.36 L 33.81 158.17 L 33.19 158.32 L 32.93 158.11 L 32.75 157.95 L 32.17 158.58 L 31.72 159.47 L 31.58 160.54 L 31.74 161.82 L 32.05 162.99 L 32.26 163.88 L 32.39 164.39 L 31.93 165.26 L 31.31 165.82 L 30.46 166.17 L 29.30 166.42 L 28.08 166.42 L 26.98 166.66 L 26.08 167.15 L 25.24 167.67 L 24.92 167.74 L 24.93 167.89 L 24.56 169.09 L 24.38 170.58 L 25.08 170.96 L 25.66 171.09 L 26.10 171.36 L 26.28 171.74 L 25.69 172.73 L 25.05 173.55 L 24.44 174.26 L 23.77 175.11 L 23.43 175.96 L 23.29 176.72 L 23.66 177.00" fill="none" stroke="#000000" stroke-width="0.5" stroke-linejoin="round" stroke-linecap="round"/>
</svg>