<?xml version="1.0" encoding="UTF-8"?>
<svg xmlns="http://www.w3.org/2000/svg" viewBox="15.24 140.00 39.60 42.98">
<path d="M 49.00 145.00 L 49.62 145.03 L 49.83 145.16 L 49.84 145.60 L 49.73 146.12 L 49.26 146.94 L 48.80 147.58 L 48.52 147.80 L 48.35 147.70 L 48.08 147.59 L 47.28 148.10 L 46.79 148.20 L 45.99 148.77 L 45.54 148.86 L 44.67 149.51 L 43.60 150.47 L 43.15 150.57 L 42.72 150.68 L 41.88 151.37 L 40.95 152.23 L 39.89 153.31 L 38.78 154.48 L 37.60 155.76 L 36.54 156.85 L 35.51 157.87 L 34.65 158.61 L 34.30 158.58 L 34.33 158.00 L 34.35 157.41 L 34.49 156.66 L 34.83 155.66 L 35.18 154.66 L 35.54 153.66 L 36.05 152.43 L 36.59 151.16 L 36.52 150.72 L 36.28 150.53 L 36.15 150.16 L 35.38 150.66 L 34.46 151.36 L 33.55 152.05 L 32.91 152.36 L 32.43 152.44 L 31.95 152.52 L 31.46 152.58 L 31.13 152.42 L 31.14 151.82 L 30.78 151.73 L 30.16 152.00 L 29.23 152.69 L 28.63 152.94 L 28.07 153.16 L 27.32 153.67 L 26.69 154.05 L 25.91 154.68 L 24.86 155.78 L 23.77 157.04 L 22.72 158.38 L 21.71 159.82 L 20.80 161.28 L 20.24 162.36 L 20.65 162.23 L 20.72 162.65 L 20.79 163.13 L 21.28 163.05 L 21.76 162.98 L 22.38 162.71 L 23.31 162.02 L 23.92 161.78 L 24.40 161.70 L 24.89 161.63 L 25.38 161.57 L 25.88 161.50 L 26.37 161.44 L 26.87 161.37 L 27.17 161.58 L 27.39 161.90 L 27.67 162.13 L 27.78 162.59 L 27.78 163.19 L 27.77 163.78 L 27.62 164.56 L 27.28 165.57 L 26.94 166.58 L 26.60 167.58 L 26.25 168.58 L 25.90 169.58 L 25.56 170.58 L 25.21 171.58 L 24.87 172.59 L 24.51 173.58 L 24.36 174.31 L 24.24 174.99 L 23.65 176.34 L 23.63 176.93 L 23.83 177.21 L 24.29 177.14 L 24.25 177.72 L 24.38 177.98" fill="none" stroke="#000000" stroke-width="0.5" stroke-linejoin="round" stroke-linecap="round"/>
</svg>