<?xml version="1.0" encoding="UTF-8"?>
<svg xmlns="http://www.w3.org/2000/svg" viewBox="20.51 140.00 33.49 42.98">
<path d="M 49.00 145.00 L 48.36 145.37 L 47.82 145.88 L 47.19 146.48 L 46.49 147.14 L 45.81 147.80 L 45.18 148.41 L 44.53 149.07 L 43.86 149.76 L 43.21 150.46 L 42.55 151.19 L 41.90 151.95 L 41.23 152.74 L 40.57 153.54 L 39.93 154.35 L 39.30 155.17 L 38.68 156.00 L 38.05 156.83 L 37.44 157.67 L 36.83 158.52 L 36.24 159.38 L 35.65 160.23 L 35.01 161.05 L 34.36 161.83 L 33.82 162.37 L 33.54 162.50 L 33.37 162.44 L 33.41 162.01 L 33.69 161.23 L 34.03 160.37 L 34.33 159.61 L 34.56 158.97 L 34.89 158.17 L 35.26 157.31 L 35.52 156.56 L 35.74 155.86 L 35.93 155.18 L 35.91 154.75 L 35.90 154.31 L 35.92 153.79 L 35.93 153.27 L 35.93 152.77 L 35.86 152.36 L 35.85 151.87 L 35.85 151.39 L 35.52 151.38 L 35.57 150.89 L 35.74 150.27 L 36.10 149.41 L 35.73 149.57 L 35.07 150.20 L 34.48 150.82 L 34.73 150.41 L 34.32 151.01 L 33.95 151.67 L 33.83 152.11 L 33.84 152.51 L 33.93 152.87 L 34.09 153.17 L 34.25 153.46 L 34.41 153.77 L 34.41 154.29 L 34.46 154.73 L 34.61 155.01 L 34.62 155.45 L 34.57 155.97 L 34.30 156.76 L 34.02 157.54 L 33.73 158.31 L 33.44 159.06 L 33.15 159.81 L 32.86 160.58 L 32.59 161.34 L 32.34 162.06 L 32.18 162.67 L 31.93 163.41 L 31.68 164.20 L 31.55 164.83 L 31.57 165.25 L 31.69 165.52 L 31.91 165.64 L 31.88 166.08 L 31.51 166.95 L 31.13 167.80 L 30.73 168.63 L 30.31 169.46 L 29.90 170.29 L 29.49 171.12 L 29.08 171.95 L 28.68 172.79 L 28.30 173.62 L 27.98 174.37 L 27.66 175.12 L 27.31 175.85 L 26.92 176.53 L 26.42 177.23 L 25.86 177.89 L 25.75 177.87 L 25.51 177.98" fill="none" stroke="#000000" stroke-width="0.5" stroke-linejoin="round" stroke-linecap="round"/>
</svg>