<?xml version="1.0" encoding="UTF-8"?>
<svg xmlns="http://www.w3.org/2000/svg" viewBox="20.07 140.00 43.89 42.28">
<path d="M 49.00 145.00 L 49.96 145.27 L 50.52 145.32 L 51.06 145.57 L 51.68 145.87 L 52.34 146.14 L 53.00 146.42 L 53.67 146.70 L 54.29 147.02 L 54.90 147.31 L 55.53 147.56 L 56.24 147.68 L 57.03 147.71 L 57.75 147.81 L 58.36 147.91 L 58.83 148.04 L 58.96 148.49 L 58.80 149.15 L 58.46 149.78 L 57.98 150.31 L 57.40 150.71 L 56.77 150.95 L 56.11 151.09 L 55.46 151.08 L 55.01 150.68 L 54.51 150.34 L 53.80 150.24 L 53.04 150.18 L 52.26 150.17 L 51.65 149.93 L 50.99 149.76 L 50.27 149.67 L 49.63 149.47 L 48.99 149.27 L 48.22 149.28 L 47.51 149.22 L 46.82 149.15 L 46.12 149.21 L 45.47 149.21 L 44.83 149.17 L 44.01 149.39 L 43.36 149.40 L 42.78 149.39 L 42.32 149.39 L 41.68 149.61 L 41.17 149.93 L 40.64 150.30 L 40.09 150.71 L 39.74 150.91 L 39.42 151.11 L 39.07 151.30 L 38.67 151.69 L 38.29 151.93 L 37.88 152.36 L 37.44 152.90 L 37.01 153.46 L 36.60 154.03 L 36.30 154.48 L 35.84 155.03 L 35.35 155.54 L 34.80 156.01 L 34.33 156.41 L 33.80 156.84 L 33.24 157.23 L 32.67 157.65 L 32.12 158.05 L 31.57 158.44 L 31.03 158.90 L 30.62 159.27 L 30.24 159.69 L 29.82 160.21 L 29.30 160.69 L 28.82 161.22 L 28.43 161.72 L 28.12 162.06 L 27.69 162.59 L 27.26 163.16 L 27.11 163.41 L 26.86 164.00 L 26.61 164.65 L 26.38 165.34 L 26.26 166.07 L 26.12 166.75 L 26.01 167.39 L 26.01 167.95 L 26.05 168.53 L 26.06 169.19 L 26.09 169.84 L 26.13 170.42 L 26.17 171.08 L 26.20 171.80 L 26.16 172.55 L 26.11 173.24 L 26.06 173.89 L 25.88 174.62 L 25.71 175.31 L 25.56 175.98 L 25.31 176.65 L 25.07 177.28" fill="none" stroke="#000000" stroke-width="0.5" stroke-linejoin="round" stroke-linecap="round"/>
</svg>