<?xml version="1.0" encoding="UTF-8"?>
<svg xmlns="http://www.w3.org/2000/svg" viewBox="15.10 140.00 44.90 42.37">
<path d="M 49.00 145.00 L 48.42 145.75 L 47.91 146.53 L 47.43 147.34 L 46.98 148.20 L 46.62 149.10 L 46.33 150.02 L 46.06 150.93 L 45.86 151.83 L 45.72 152.73 L 45.54 153.75 L 45.45 154.70 L 45.41 155.66 L 45.41 156.66 L 45.54 157.61 L 45.72 158.59 L 46.24 159.21 L 46.65 160.08 L 47.13 160.91 L 47.74 161.60 L 48.35 162.28 L 48.95 163.00 L 49.40 163.92 L 50.00 164.60 L 50.77 165.02 L 51.74 165.15 L 52.76 165.24 L 53.78 165.32 L 54.37 165.85 L 54.79 166.49 L 55.00 167.23 L 54.90 168.10 L 54.55 169.01 L 54.06 169.84 L 53.45 170.39 L 52.64 170.87 L 51.67 171.31 L 51.05 171.00 L 50.34 170.69 L 49.52 170.37 L 48.68 169.91 L 47.94 169.31 L 47.29 168.60 L 46.46 168.13 L 45.68 167.59 L 45.02 166.88 L 44.18 166.42 L 43.31 166.01 L 42.48 165.55 L 41.80 164.86 L 41.09 164.23 L 40.25 163.76 L 39.54 163.14 L 38.88 162.43 L 38.31 161.77 L 37.82 161.18 L 37.43 160.66 L 36.46 161.02 L 35.50 161.49 L 34.58 161.99 L 33.81 162.42 L 33.00 162.83 L 32.13 163.23 L 31.23 163.61 L 30.34 163.97 L 29.49 164.29 L 28.62 164.70 L 27.78 165.12 L 26.98 165.57 L 26.18 166.13 L 25.40 166.73 L 24.70 167.39 L 24.04 168.08 L 23.40 168.78 L 22.81 169.50 L 22.24 170.25 L 21.71 171.04 L 21.21 171.86 L 20.77 172.73 L 20.42 173.65 L 20.16 174.61 L 20.10 175.38 L 20.57 175.39 L 21.33 174.96 L 22.10 174.49 L 22.91 173.92 L 23.71 173.32 L 24.50 172.73 L 25.27 172.25 L 26.12 171.89 L 27.09 171.56 L 27.61 171.84 L 27.90 172.37 L 27.95 173.14 L 27.71 174.14 L 27.36 175.05 L 26.88 175.86 L 26.32 176.62 L 25.73 177.37" fill="none" stroke="#000000" stroke-width="0.5" stroke-linejoin="round" stroke-linecap="round"/>
</svg>