<?xml version="1.0" encoding="UTF-8"?>
<svg xmlns="http://www.w3.org/2000/svg" viewBox="16.56 140.00 37.44 42.44">
<path d="M 49.00 145.00 L 48.86 145.53 L 48.64 146.03 L 48.45 146.55 L 48.28 147.08 L 48.13 147.56 L 48.00 148.00 L 47.79 148.52 L 47.60 149.03 L 47.41 149.55 L 47.17 150.05 L 46.95 150.50 L 46.74 150.95 L 46.50 151.44 L 46.28 151.93 L 46.06 152.41 L 45.82 152.89 L 45.58 153.38 L 45.34 153.87 L 45.09 154.34 L 44.84 154.83 L 44.59 155.31 L 44.36 155.78 L 44.12 156.26 L 43.89 156.75 L 43.68 157.26 L 43.48 157.76 L 43.30 158.27 L 43.12 158.80 L 42.96 159.31 L 42.81 159.80 L 42.65 160.30 L 42.45 160.81 L 42.20 161.28 L 41.85 161.69 L 41.43 162.02 L 40.99 162.21 L 40.67 162.11 L 40.25 161.98 L 39.74 161.87 L 39.18 161.77 L 38.65 161.65 L 38.13 161.53 L 37.60 161.44 L 37.09 161.34 L 36.60 161.27 L 36.04 161.28 L 35.45 161.35 L 34.87 161.44 L 34.40 161.41 L 33.92 161.39 L 33.33 161.53 L 32.81 161.57 L 32.27 161.64 L 31.74 161.77 L 31.23 161.85 L 30.73 161.93 L 30.16 162.13 L 29.66 162.27 L 29.18 162.35 L 28.64 162.57 L 28.13 162.73 L 27.68 162.82 L 27.15 163.03 L 26.61 163.23 L 26.10 163.42 L 25.63 163.59 L 25.15 163.78 L 24.66 164.03 L 24.21 164.29 L 23.79 164.60 L 23.39 164.98 L 23.03 165.39 L 22.72 165.82 L 22.44 166.28 L 22.19 166.76 L 21.98 167.26 L 21.80 167.79 L 21.66 168.33 L 21.58 168.87 L 21.56 169.38 L 21.61 169.87 L 21.71 170.38 L 21.80 170.97 L 21.98 171.49 L 22.22 171.96 L 22.58 172.30 L 22.96 172.66 L 23.35 173.02 L 23.74 173.39 L 24.16 173.71 L 24.63 173.91 L 24.94 174.28 L 25.16 174.73 L 25.21 175.30 L 25.22 175.84 L 25.21 176.37 L 25.09 176.94 L 24.96 177.44" fill="none" stroke="#000000" stroke-width="0.5" stroke-linejoin="round" stroke-linecap="round"/>
</svg>