<?xml version="1.0" encoding="UTF-8"?>
<svg xmlns="http://www.w3.org/2000/svg" viewBox="20.20 140.00 33.80 42.55">
<path d="M 49.00 145.00 L 48.76 145.02 L 48.57 145.13 L 48.32 145.30 L 48.05 145.47 L 47.78 145.63 L 47.52 145.80 L 47.26 145.97 L 46.95 146.22 L 46.61 146.50 L 46.36 146.68 L 46.07 146.91 L 45.74 147.20 L 45.41 147.49 L 45.09 147.78 L 44.77 148.07 L 44.44 148.36 L 44.12 148.65 L 43.81 148.95 L 43.49 149.24 L 43.13 149.60 L 42.79 149.95 L 42.49 150.25 L 42.14 150.62 L 41.79 151.00 L 41.43 151.38 L 41.07 151.76 L 40.73 152.09 L 40.41 152.38 L 40.15 152.58 L 39.90 152.75 L 39.66 152.93 L 39.33 153.22 L 39.00 153.52 L 38.63 153.89 L 38.32 154.22 L 38.02 154.52 L 37.64 154.93 L 37.29 155.30 L 37.00 155.61 L 36.69 155.98 L 36.35 156.38 L 36.00 156.81 L 35.67 157.25 L 35.36 157.71 L 35.06 158.18 L 34.82 158.59 L 34.60 159.00 L 34.39 159.41 L 34.18 159.84 L 34.00 160.24 L 33.87 160.59 L 33.73 160.94 L 33.61 161.29 L 33.49 161.65 L 33.40 161.97 L 33.35 162.24 L 33.32 162.49 L 33.30 162.73 L 33.28 162.98 L 33.25 163.21 L 33.21 163.44 L 33.14 163.64 L 32.88 164.06 L 32.59 164.47 L 32.27 164.85 L 31.97 165.16 L 31.66 165.45 L 31.35 165.75 L 31.04 166.05 L 30.75 166.39 L 30.44 166.79 L 30.15 167.19 L 29.90 167.59 L 29.68 167.99 L 29.48 168.41 L 29.27 168.83 L 29.13 169.18 L 28.97 169.55 L 28.76 169.99 L 28.62 170.35 L 28.49 170.70 L 28.36 171.05 L 28.23 171.39 L 28.09 171.74 L 27.90 172.18 L 27.73 172.57 L 27.58 172.91 L 27.39 173.32 L 27.17 173.75 L 26.96 174.18 L 26.75 174.60 L 26.55 175.01 L 26.33 175.44 L 26.11 175.86 L 25.89 176.29 L 25.66 176.72 L 25.43 177.14 L 25.20 177.55" fill="none" stroke="#000000" stroke-width="0.5" stroke-linejoin="round" stroke-linecap="round"/>
</svg>