<?xml version="1.0" encoding="UTF-8"?>
<svg xmlns="http://www.w3.org/2000/svg" viewBox="20.82 140.00 35.01 42.99">
<path d="M 49.00 145.00 L 48.88 145.75 L 48.77 146.14 L 48.76 146.47 L 48.57 147.16 L 48.43 147.90 L 48.28 148.49 L 48.12 149.00 L 48.09 149.40 L 47.93 150.08 L 47.81 150.79 L 47.70 151.44 L 47.66 151.99 L 47.98 152.25 L 47.99 153.04 L 48.16 153.66 L 48.47 154.10 L 48.83 154.46 L 48.95 155.23 L 49.19 155.74 L 49.57 155.99 L 49.86 156.35 L 49.85 157.18 L 49.95 157.88 L 50.16 158.17 L 50.48 158.15 L 50.55 158.56 L 50.48 159.21 L 50.41 159.88 L 50.37 160.50 L 50.41 160.97 L 50.58 161.24 L 50.81 161.39 L 50.83 161.63 L 50.62 162.18 L 50.40 162.73 L 50.18 163.27 L 50.05 163.76 L 50.12 164.15 L 50.31 164.40 L 50.68 164.39 L 50.62 164.76 L 50.38 165.28 L 50.12 165.81 L 49.87 166.33 L 49.64 166.89 L 49.72 167.26 L 49.88 167.55 L 50.12 167.73 L 50.15 168.03 L 49.87 168.51 L 49.46 168.90 L 48.95 169.13 L 48.41 169.34 L 47.96 169.61 L 47.62 169.97 L 47.50 170.28 L 47.57 170.60 L 47.57 171.05 L 47.73 171.26 L 47.97 171.18 L 47.60 171.66 L 47.22 171.87 L 46.71 171.97 L 46.06 171.98 L 45.38 171.96 L 44.72 171.96 L 44.19 171.86 L 43.58 171.87 L 42.85 171.99 L 42.11 172.12 L 41.55 171.99 L 41.10 171.73 L 40.67 171.43 L 40.13 171.32 L 39.55 171.41 L 38.93 171.66 L 38.31 172.03 L 37.74 172.43 L 37.21 172.84 L 36.68 173.26 L 36.12 173.65 L 35.55 174.02 L 35.01 174.33 L 34.43 174.66 L 33.83 175.01 L 33.24 175.30 L 32.64 175.59 L 32.00 175.92 L 31.42 176.13 L 30.82 176.36 L 30.19 176.60 L 29.53 176.83 L 28.89 177.04 L 28.28 177.20 L 27.61 177.41 L 26.94 177.60 L 26.35 177.78 L 25.82 177.99" fill="none" stroke="#000000" stroke-width="0.5" stroke-linejoin="round" stroke-linecap="round"/>
</svg>