<?xml version="1.0" encoding="UTF-8"?>
<svg xmlns="http://www.w3.org/2000/svg" viewBox="19.41 140.00 35.30 42.22">
<path d="M 49.00 145.00 L 49.39 145.81 L 49.39 146.42 L 49.42 147.12 L 49.48 147.94 L 49.53 148.73 L 49.62 149.36 L 49.71 149.88 L 49.60 150.58 L 49.40 151.29 L 49.13 152.01 L 48.74 152.66 L 48.27 153.23 L 47.73 153.75 L 47.56 153.60 L 47.68 152.95 L 47.77 152.24 L 47.70 151.67 L 47.72 150.95 L 47.76 150.17 L 47.80 149.33 L 47.79 148.52 L 47.66 147.81 L 47.28 147.35 L 46.80 146.93 L 46.23 146.56 L 45.52 146.36 L 44.80 146.23 L 44.06 146.18 L 43.34 146.21 L 42.66 146.34 L 42.02 146.59 L 41.45 147.00 L 40.99 147.56 L 40.69 148.23 L 40.57 148.92 L 40.85 149.32 L 41.32 149.65 L 41.99 149.83 L 42.70 150.02 L 43.41 150.19 L 43.81 150.73 L 44.07 151.41 L 44.23 152.16 L 44.29 152.83 L 44.24 153.48 L 44.08 154.13 L 43.80 154.84 L 43.47 155.52 L 43.13 156.20 L 42.77 156.85 L 42.44 157.50 L 42.19 158.10 L 41.93 158.78 L 41.64 159.50 L 41.37 160.17 L 41.05 160.82 L 40.71 161.48 L 40.38 162.15 L 40.03 162.83 L 39.68 163.49 L 39.33 164.14 L 38.99 164.80 L 38.67 165.48 L 38.37 166.17 L 38.07 166.86 L 37.79 167.53 L 37.51 168.20 L 37.21 168.89 L 36.90 169.58 L 36.56 170.24 L 36.19 170.88 L 35.79 171.50 L 35.40 172.13 L 35.02 172.77 L 34.64 173.42 L 34.27 174.04 L 33.86 174.61 L 33.38 175.16 L 32.84 175.68 L 32.37 175.90 L 31.75 176.09 L 31.06 176.22 L 30.34 176.18 L 29.60 176.14 L 28.91 175.98 L 28.56 175.31 L 28.14 174.71 L 27.69 174.16 L 27.26 173.65 L 26.81 173.29 L 26.29 173.23 L 25.66 173.57 L 25.11 174.07 L 24.72 174.67 L 24.49 175.34 L 24.41 176.07 L 24.43 176.69 L 24.50 177.22" fill="none" stroke="#000000" stroke-width="0.5" stroke-linejoin="round" stroke-linecap="round"/>
</svg>