<?xml version="1.0" encoding="UTF-8"?>
<svg xmlns="http://www.w3.org/2000/svg" viewBox="20.82 140.00 33.18 42.93">
<path d="M 49.00 145.00 L 48.96 145.78 L 48.76 146.45 L 48.59 147.14 L 48.55 147.77 L 48.50 148.44 L 48.39 149.18 L 48.36 149.82 L 48.29 150.46 L 48.12 151.15 L 47.93 151.83 L 47.71 152.51 L 47.42 153.21 L 47.09 153.85 L 46.70 154.45 L 46.28 155.04 L 45.87 155.58 L 45.39 156.09 L 44.83 156.60 L 44.27 157.03 L 43.70 157.44 L 43.11 157.84 L 42.46 158.20 L 41.82 158.51 L 41.21 158.74 L 40.59 158.94 L 39.94 159.14 L 39.29 159.32 L 38.63 159.51 L 37.98 159.69 L 37.32 159.88 L 36.67 160.06 L 36.04 160.27 L 35.44 160.49 L 34.84 160.78 L 34.23 161.17 L 33.59 161.57 L 32.91 161.98 L 32.27 162.28 L 31.75 162.33 L 31.33 162.15 L 30.94 161.83 L 30.56 161.39 L 30.22 160.92 L 29.97 160.30 L 29.82 159.56 L 29.47 159.12 L 29.12 158.66 L 28.85 158.07 L 28.53 157.52 L 28.20 157.06 L 27.96 156.72 L 27.77 156.55 L 27.58 156.62 L 27.31 157.06 L 27.17 157.60 L 27.16 158.23 L 27.25 158.93 L 27.45 159.50 L 27.68 160.06 L 27.92 160.64 L 28.18 161.22 L 28.43 161.80 L 28.69 162.38 L 28.95 162.96 L 29.21 163.55 L 29.47 164.13 L 29.76 164.68 L 30.06 165.21 L 30.32 165.80 L 30.59 166.39 L 30.87 166.94 L 31.24 167.36 L 31.50 167.93 L 31.69 168.60 L 31.94 169.18 L 32.19 169.75 L 32.45 170.33 L 32.71 170.92 L 33.00 171.43 L 33.25 171.97 L 33.43 172.51 L 33.47 173.18 L 33.46 173.83 L 33.28 174.57 L 33.06 175.22 L 32.74 175.85 L 32.27 176.42 L 31.73 176.93 L 31.16 177.27 L 30.72 177.27 L 30.17 177.30 L 29.59 177.30 L 28.96 177.28 L 28.24 177.42 L 27.60 177.49 L 27.02 177.49 L 26.40 177.69 L 25.82 177.93" fill="none" stroke="#000000" stroke-width="0.5" stroke-linejoin="round" stroke-linecap="round"/>
</svg>