<?xml version="1.0" encoding="UTF-8"?>
<svg xmlns="http://www.w3.org/2000/svg" viewBox="20.11 140.00 33.89 42.89">
<path d="M 49.00 145.00 L 48.80 145.08 L 48.61 145.24 L 48.21 145.69 L 47.83 146.09 L 47.58 146.34 L 47.20 146.78 L 46.79 147.29 L 46.37 147.84 L 45.95 148.43 L 45.61 148.96 L 45.57 149.09 L 45.80 148.89 L 45.98 148.79 L 46.14 148.73 L 46.28 148.71 L 46.42 148.69 L 46.45 148.81 L 46.41 149.03 L 46.45 149.14 L 46.46 149.29 L 46.40 149.53 L 46.34 149.78 L 46.27 150.02 L 46.21 150.26 L 46.13 150.50 L 45.87 150.99 L 45.60 151.48 L 45.32 151.97 L 44.98 152.53 L 44.68 153.02 L 44.35 153.56 L 43.97 154.16 L 43.62 154.73 L 43.32 155.23 L 43.04 155.70 L 42.75 156.20 L 42.42 156.76 L 42.16 157.21 L 41.94 157.63 L 41.65 158.13 L 41.33 158.67 L 41.04 159.18 L 40.82 159.56 L 40.49 160.10 L 40.12 160.68 L 39.74 161.26 L 39.37 161.81 L 38.96 162.38 L 38.52 162.96 L 38.08 163.54 L 37.77 163.91 L 37.46 164.25 L 37.09 164.65 L 36.68 165.11 L 36.31 165.52 L 36.00 165.84 L 35.59 166.32 L 35.16 166.82 L 34.76 167.29 L 34.34 167.79 L 33.90 168.32 L 33.49 168.81 L 33.10 169.28 L 32.67 169.81 L 32.24 170.34 L 31.81 170.88 L 31.38 171.44 L 30.93 172.01 L 30.50 172.57 L 30.08 173.12 L 29.64 173.68 L 29.20 174.25 L 28.79 174.80 L 28.36 175.36 L 27.92 175.94 L 27.48 176.51 L 27.03 177.08 L 26.59 177.61 L 26.32 177.89 L 26.41 177.67 L 26.55 177.34 L 26.75 176.95 L 26.92 176.59 L 27.13 176.17 L 27.45 175.60 L 27.62 175.23 L 27.80 174.86 L 28.00 174.47 L 28.23 174.02 L 28.08 174.11 L 27.76 174.44 L 27.30 174.96 L 27.00 175.27 L 26.71 175.59 L 26.34 176.05 L 25.90 176.63 L 25.48 177.20 L 25.11 177.74" fill="none" stroke="#000000" stroke-width="0.5" stroke-linejoin="round" stroke-linecap="round"/>
</svg>