<?xml version="1.0" encoding="UTF-8"?>
<svg xmlns="http://www.w3.org/2000/svg" viewBox="14.39 140.00 39.61 42.40">
<path d="M 49.00 145.00 L 48.03 145.92 L 47.30 146.86 L 46.65 147.79 L 45.90 148.85 L 45.19 149.81 L 44.51 150.74 L 43.82 151.87 L 43.17 152.94 L 42.49 153.96 L 41.76 154.98 L 41.01 156.03 L 40.28 157.13 L 39.64 158.27 L 38.99 159.41 L 38.32 160.54 L 37.73 161.53 L 37.05 162.55 L 36.28 163.62 L 35.44 164.62 L 34.47 165.50 L 33.45 166.26 L 32.62 166.69 L 31.84 166.97 L 30.82 167.52 L 29.71 168.16 L 28.61 168.83 L 27.56 169.45 L 26.51 170.07 L 25.44 170.66 L 24.42 171.06 L 23.33 171.47 L 22.21 171.81 L 21.49 171.52 L 20.77 171.26 L 20.20 171.07 L 20.20 170.44 L 19.77 170.79 L 19.44 171.42 L 19.39 172.08 L 19.46 173.00 L 19.96 173.67 L 20.63 174.18 L 21.43 174.47 L 22.21 174.78 L 22.96 175.09 L 24.08 174.80 L 25.13 174.51 L 26.10 174.24 L 27.25 173.69 L 28.36 173.16 L 29.42 172.66 L 30.36 172.21 L 31.32 171.70 L 32.34 171.10 L 33.43 170.30 L 34.41 169.58 L 35.37 168.86 L 36.37 167.98 L 37.27 167.19 L 38.07 166.44 L 38.97 165.46 L 39.85 164.47 L 40.66 163.43 L 41.38 162.33 L 42.09 161.21 L 42.70 160.13 L 43.30 159.00 L 43.97 157.87 L 44.58 156.86 L 45.23 155.93 L 45.64 155.50 L 44.97 156.62 L 44.43 157.73 L 44.01 158.85 L 43.50 160.07 L 43.05 161.24 L 42.64 162.35 L 42.18 163.54 L 41.73 164.75 L 41.26 165.96 L 40.87 167.06 L 40.45 168.18 L 39.91 169.40 L 39.40 170.44 L 38.75 171.47 L 37.91 172.49 L 37.02 173.38 L 36.09 174.06 L 35.21 174.42 L 34.21 174.76 L 33.13 175.11 L 32.23 175.17 L 31.24 175.34 L 30.20 175.60 L 29.14 175.93 L 28.21 176.20 L 27.22 176.72 L 26.24 177.40" fill="none" stroke="#000000" stroke-width="0.5" stroke-linejoin="round" stroke-linecap="round"/>
</svg>