<?xml version="1.0" encoding="UTF-8"?>
<svg xmlns="http://www.w3.org/2000/svg" viewBox="19.56 140.00 34.44 42.34">
<path d="M 49.00 145.00 L 48.84 145.66 L 48.58 146.25 L 48.34 146.85 L 48.11 147.47 L 47.89 148.09 L 47.67 148.71 L 47.45 149.33 L 47.23 149.94 L 47.01 150.56 L 46.79 151.18 L 46.57 151.80 L 46.33 152.40 L 46.04 152.97 L 45.66 153.48 L 45.20 153.93 L 44.72 154.27 L 44.38 154.25 L 44.36 153.65 L 44.28 153.00 L 44.17 152.33 L 44.07 151.66 L 43.95 150.98 L 43.74 150.35 L 43.48 149.78 L 43.16 149.37 L 42.87 149.01 L 42.53 148.81 L 41.90 149.16 L 41.36 149.56 L 40.91 150.04 L 40.54 150.58 L 40.22 151.13 L 39.94 151.71 L 39.71 152.33 L 39.53 152.97 L 39.37 153.59 L 39.27 154.19 L 39.16 154.83 L 39.04 155.49 L 38.95 156.09 L 38.81 156.69 L 38.59 157.32 L 38.35 157.92 L 38.04 158.48 L 37.71 159.06 L 37.37 159.62 L 37.01 160.15 L 36.65 160.67 L 36.31 161.20 L 35.95 161.74 L 35.61 162.27 L 35.22 162.79 L 34.80 163.30 L 34.39 163.80 L 33.97 164.30 L 33.57 164.80 L 33.16 165.30 L 32.76 165.79 L 32.37 166.29 L 32.00 166.82 L 31.65 167.37 L 31.27 167.88 L 30.81 168.32 L 30.29 168.74 L 29.79 169.01 L 29.71 168.57 L 29.54 168.05 L 29.29 167.48 L 28.99 166.87 L 28.58 166.39 L 28.14 165.93 L 27.70 165.47 L 27.27 165.01 L 26.87 164.58 L 26.41 164.39 L 25.93 164.51 L 25.46 164.82 L 25.05 165.27 L 24.83 165.71 L 24.64 166.33 L 24.56 166.98 L 24.56 167.64 L 24.59 168.27 L 24.67 168.92 L 24.77 169.58 L 24.99 170.12 L 25.18 170.73 L 25.31 171.41 L 25.56 171.98 L 25.75 172.58 L 25.83 173.23 L 26.10 173.58 L 26.13 174.15 L 26.01 174.84 L 25.87 175.51 L 25.66 176.15 L 25.42 176.75 L 25.16 177.34" fill="none" stroke="#000000" stroke-width="0.5" stroke-linejoin="round" stroke-linecap="round"/>
</svg>