<?xml version="1.0" encoding="UTF-8"?>
<svg xmlns="http://www.w3.org/2000/svg" viewBox="19.08 140.00 34.92 42.41">
<path d="M 49.00 145.00 L 48.39 145.00 L 47.99 145.12 L 47.61 145.14 L 47.14 145.22 L 46.72 145.21 L 46.25 145.31 L 45.76 145.45 L 45.36 145.46 L 44.89 145.61 L 44.45 145.72 L 44.04 145.74 L 43.56 145.94 L 43.16 146.02 L 42.76 146.10 L 42.30 146.31 L 41.82 146.50 L 41.38 146.67 L 40.98 146.82 L 40.58 146.97 L 40.13 147.18 L 39.69 147.41 L 39.27 147.64 L 38.86 147.89 L 38.46 148.14 L 38.07 148.40 L 37.67 148.65 L 37.28 148.94 L 36.91 149.24 L 36.55 149.52 L 36.18 149.82 L 35.81 150.12 L 35.47 150.42 L 35.14 150.74 L 34.79 151.06 L 34.44 151.40 L 34.11 151.73 L 33.79 152.07 L 33.47 152.42 L 33.15 152.76 L 32.85 153.11 L 32.56 153.49 L 32.27 153.86 L 31.99 154.25 L 31.73 154.65 L 31.48 155.05 L 31.22 155.45 L 30.97 155.86 L 30.71 156.26 L 30.41 156.63 L 30.07 156.97 L 29.72 157.28 L 29.43 157.52 L 29.13 157.77 L 28.79 158.07 L 28.45 158.41 L 28.17 158.80 L 27.92 159.21 L 27.72 159.61 L 27.55 160.03 L 27.36 160.48 L 27.18 160.93 L 27.03 161.33 L 26.86 161.77 L 26.67 162.22 L 26.53 162.63 L 26.37 163.06 L 26.18 163.51 L 26.03 163.95 L 25.89 164.37 L 25.70 164.82 L 25.54 165.25 L 25.39 165.69 L 25.23 166.16 L 25.09 166.61 L 24.94 167.05 L 24.81 167.47 L 24.68 167.92 L 24.55 168.40 L 24.44 168.87 L 24.33 169.33 L 24.25 169.78 L 24.19 170.24 L 24.14 170.71 L 24.10 171.19 L 24.08 171.69 L 24.09 172.20 L 24.15 172.67 L 24.32 173.02 L 24.51 173.38 L 24.65 173.81 L 24.75 174.27 L 24.83 174.71 L 24.83 175.22 L 24.83 175.72 L 24.83 176.23 L 24.82 176.73 L 24.88 177.06 L 24.89 177.41" fill="none" stroke="#000000" stroke-width="0.5" stroke-linejoin="round" stroke-linecap="round"/>
</svg>