<?xml version="1.0" encoding="UTF-8"?>
<svg xmlns="http://www.w3.org/2000/svg" viewBox="13.77 140.00 40.23 43.00">
<path d="M 49.00 145.00 L 48.88 146.08 L 48.56 146.93 L 48.31 147.82 L 47.97 148.94 L 47.75 149.91 L 47.59 150.79 L 47.51 151.58 L 47.32 152.54 L 47.11 153.49 L 46.92 154.40 L 46.61 155.46 L 46.30 156.54 L 46.07 157.49 L 45.87 158.38 L 45.71 159.25 L 45.46 160.23 L 45.21 161.22 L 44.96 162.20 L 44.64 163.27 L 44.37 164.26 L 44.13 165.13 L 43.78 165.97 L 43.31 166.81 L 42.62 167.74 L 42.77 167.29 L 43.02 166.48 L 43.11 165.70 L 43.12 164.87 L 43.15 163.96 L 43.22 162.97 L 43.04 162.28 L 42.82 161.63 L 42.57 160.98 L 42.26 160.39 L 41.93 159.91 L 41.44 159.70 L 40.76 159.80 L 39.75 160.41 L 38.86 160.88 L 38.02 161.26 L 37.11 161.76 L 36.44 161.85 L 35.88 161.74 L 35.10 162.00 L 34.40 162.20 L 33.73 162.46 L 32.79 163.11 L 31.83 163.79 L 30.85 164.49 L 30.14 164.80 L 29.44 165.01 L 28.78 165.04 L 28.54 164.39 L 28.27 163.78 L 27.98 163.33 L 27.51 163.36 L 26.99 163.75 L 26.30 164.68 L 26.24 165.04 L 26.68 165.01 L 27.10 165.27 L 27.44 165.79 L 27.69 166.49 L 28.22 166.83 L 28.81 167.07 L 29.51 167.16 L 30.16 167.33 L 30.80 167.49 L 31.33 167.58 L 31.68 167.71 L 31.84 167.92 L 31.35 168.83 L 30.73 169.73 L 29.99 170.56 L 29.09 171.31 L 28.20 171.99 L 27.37 172.54 L 26.88 172.61 L 26.21 172.87 L 25.38 173.27 L 24.37 173.87 L 23.42 174.39 L 22.68 174.64 L 22.18 174.58 L 21.61 174.65 L 20.85 175.03 L 20.09 175.69 L 19.37 176.56 L 18.77 177.52 L 19.08 177.50 L 19.85 177.08 L 20.59 176.90 L 21.25 177.00 L 21.75 177.32 L 22.27 177.62 L 22.84 177.89 L 23.41 178.00 L 24.00 177.93" fill="none" stroke="#000000" stroke-width="0.5" stroke-linejoin="round" stroke-linecap="round"/>
</svg>