<?xml version="1.0" encoding="UTF-8"?>
<svg xmlns="http://www.w3.org/2000/svg" viewBox="20.90 140.00 33.10 42.95">
<path d="M 49.00 145.00 L 48.09 146.06 L 47.17 147.03 L 46.65 147.35 L 46.03 147.70 L 45.25 148.14 L 44.42 148.55 L 43.60 148.97 L 42.74 149.48 L 41.81 150.14 L 40.94 150.79 L 40.08 151.49 L 39.11 152.44 L 38.18 153.44 L 37.30 154.49 L 36.44 155.63 L 35.64 156.81 L 34.91 158.01 L 34.20 159.14 L 33.53 160.16 L 32.86 161.12 L 33.54 160.19 L 34.23 159.18 L 35.00 158.02 L 35.75 156.82 L 36.57 155.65 L 37.44 154.51 L 38.33 153.45 L 39.26 152.45 L 40.22 151.50 L 41.10 150.75 L 41.97 150.11 L 42.86 149.48 L 43.78 148.90 L 44.61 148.48 L 45.40 148.14 L 46.11 147.89 L 46.79 147.65 L 47.39 147.46 L 47.21 148.31 L 46.71 149.57 L 46.19 150.85 L 45.77 151.97 L 45.49 152.93 L 45.74 153.17 L 45.42 154.21 L 45.11 155.26 L 44.70 156.41 L 44.25 157.54 L 43.79 158.66 L 43.29 159.83 L 42.72 161.04 L 42.18 162.15 L 41.62 163.21 L 40.91 164.42 L 40.16 165.63 L 39.37 166.83 L 38.50 167.97 L 37.60 169.08 L 36.71 170.12 L 37.28 169.09 L 37.88 167.97 L 38.47 166.77 L 39.01 165.54 L 39.53 164.30 L 39.82 163.34 L 40.03 162.43 L 40.17 161.56 L 40.40 160.64 L 40.73 159.77 L 41.02 159.13 L 40.77 159.28 L 40.11 160.00 L 39.43 160.96 L 39.63 160.92 L 40.05 160.68 L 39.73 161.43 L 39.44 162.14 L 39.07 163.09 L 38.72 164.15 L 38.27 165.28 L 37.75 166.46 L 37.15 167.65 L 36.50 168.82 L 35.74 169.96 L 34.94 171.13 L 34.14 172.29 L 33.86 172.70 L 33.04 173.76 L 32.16 174.78 L 31.24 175.76 L 30.34 176.68 L 29.63 177.18 L 29.01 177.41 L 28.61 177.19 L 27.92 177.32 L 27.20 177.48 L 26.52 177.69 L 25.90 177.95" fill="none" stroke="#000000" stroke-width="0.5" stroke-linejoin="round" stroke-linecap="round"/>
</svg>