<?xml version="1.0" encoding="UTF-8"?>
<svg xmlns="http://www.w3.org/2000/svg" viewBox="19.97 140.00 34.03 42.55">
<path d="M 49.00 145.00 L 48.53 145.01 L 48.21 145.15 L 47.88 145.26 L 47.48 145.39 L 47.08 145.55 L 46.71 145.70 L 46.39 145.83 L 46.01 146.02 L 45.62 146.24 L 45.25 146.46 L 44.93 146.65 L 44.59 146.90 L 44.24 147.15 L 43.90 147.42 L 43.57 147.71 L 43.26 147.99 L 42.96 148.29 L 42.66 148.61 L 42.37 148.93 L 42.09 149.26 L 41.81 149.59 L 41.54 149.93 L 41.28 150.28 L 41.03 150.62 L 40.77 150.98 L 40.52 151.33 L 40.28 151.69 L 40.05 152.06 L 39.83 152.44 L 39.62 152.82 L 39.41 153.20 L 39.23 153.56 L 39.03 153.94 L 38.83 154.33 L 38.63 154.72 L 38.43 155.11 L 38.23 155.49 L 38.03 155.86 L 37.84 156.22 L 37.63 156.61 L 37.42 156.99 L 37.20 157.37 L 36.99 157.75 L 36.78 158.14 L 36.58 158.52 L 36.40 158.88 L 36.20 159.25 L 36.00 159.64 L 35.78 160.02 L 35.56 160.39 L 35.33 160.76 L 35.09 161.13 L 34.84 161.49 L 34.59 161.84 L 34.33 162.19 L 34.08 162.54 L 33.82 162.88 L 33.54 163.21 L 33.27 163.55 L 33.01 163.89 L 32.76 164.21 L 32.48 164.54 L 32.20 164.87 L 31.92 165.21 L 31.64 165.54 L 31.36 165.86 L 31.07 166.18 L 30.79 166.48 L 30.51 166.81 L 30.22 167.13 L 29.92 167.45 L 29.64 167.78 L 29.37 168.10 L 29.10 168.41 L 28.82 168.75 L 28.54 169.08 L 28.28 169.42 L 28.03 169.77 L 27.77 170.12 L 27.52 170.48 L 27.28 170.84 L 27.07 171.22 L 26.86 171.60 L 26.65 171.98 L 26.48 172.35 L 26.30 172.75 L 26.14 173.15 L 26.00 173.55 L 25.86 173.94 L 25.73 174.34 L 25.61 174.75 L 25.49 175.16 L 25.39 175.58 L 25.29 176.00 L 25.23 176.37 L 25.17 176.77 L 25.06 177.19 L 24.97 177.55" fill="none" stroke="#000000" stroke-width="0.5" stroke-linejoin="round" stroke-linecap="round"/>
</svg>