<?xml version="1.0" encoding="UTF-8"?>
<svg xmlns="http://www.w3.org/2000/svg" viewBox="20.49 140.00 38.34 42.72">
<path d="M 49.00 145.00 L 49.67 145.28 L 50.06 145.35 L 50.49 145.46 L 50.89 145.73 L 51.31 145.97 L 51.92 145.95 L 52.32 146.22 L 52.72 146.46 L 53.19 146.59 L 53.50 146.94 L 53.71 147.38 L 53.80 147.90 L 53.83 148.37 L 53.75 148.82 L 53.54 149.28 L 53.27 149.67 L 52.92 150.00 L 52.50 150.28 L 52.05 150.51 L 51.62 150.65 L 51.12 150.85 L 50.59 151.05 L 50.08 151.19 L 49.62 151.26 L 49.14 151.33 L 48.63 151.42 L 48.10 151.50 L 47.58 151.59 L 47.08 151.69 L 46.59 151.79 L 46.12 151.91 L 45.63 152.11 L 45.16 152.35 L 44.73 152.62 L 44.34 152.94 L 43.98 153.32 L 43.67 153.74 L 43.41 154.17 L 43.20 154.62 L 43.01 155.10 L 42.87 155.60 L 42.75 156.13 L 42.63 156.65 L 42.54 157.12 L 42.44 157.55 L 42.26 158.03 L 42.07 158.50 L 41.85 158.98 L 41.57 159.42 L 41.26 159.82 L 40.94 160.19 L 40.62 160.55 L 40.30 160.90 L 39.92 161.27 L 39.50 161.61 L 39.11 161.94 L 38.74 162.25 L 38.34 162.58 L 37.92 162.92 L 37.51 163.26 L 37.12 163.56 L 36.71 163.86 L 36.24 164.16 L 35.80 164.42 L 35.42 164.68 L 35.11 164.92 L 34.75 165.30 L 34.44 165.69 L 34.19 166.12 L 33.98 166.58 L 33.79 167.05 L 33.60 167.52 L 33.40 168.02 L 33.19 168.51 L 32.97 168.97 L 32.75 169.41 L 32.53 169.87 L 32.30 170.34 L 32.05 170.78 L 31.78 171.21 L 31.50 171.65 L 31.24 172.10 L 30.96 172.53 L 30.67 172.94 L 30.36 173.36 L 30.04 173.77 L 29.69 174.15 L 29.32 174.52 L 28.95 174.86 L 28.59 175.18 L 28.21 175.54 L 27.82 175.90 L 27.41 176.24 L 27.00 176.59 L 26.61 176.88 L 26.27 177.10 L 25.89 177.40 L 25.49 177.72" fill="none" stroke="#000000" stroke-width="0.5" stroke-linejoin="round" stroke-linecap="round"/>
</svg>