<?xml version="1.0" encoding="UTF-8"?>
<svg xmlns="http://www.w3.org/2000/svg" viewBox="20.25 140.00 33.75 42.58">
<path d="M 49.00 145.00 L 48.88 145.04 L 48.83 145.04 L 48.80 145.01 L 48.70 145.06 L 48.64 145.06 L 48.61 145.04 L 48.54 145.11 L 48.22 145.53 L 47.96 145.90 L 47.84 146.09 L 47.60 146.46 L 47.28 146.92 L 46.92 147.43 L 46.53 147.96 L 46.23 148.34 L 46.14 148.41 L 45.93 148.64 L 45.76 148.83 L 45.64 148.97 L 45.52 149.13 L 45.39 149.31 L 45.23 149.56 L 44.92 150.01 L 44.59 150.49 L 44.18 151.04 L 44.10 151.12 L 43.94 151.32 L 43.73 151.59 L 43.44 151.98 L 43.30 152.18 L 43.38 152.11 L 43.51 151.98 L 43.36 152.23 L 43.13 152.58 L 42.73 153.14 L 42.49 153.45 L 42.29 153.70 L 42.10 153.94 L 41.78 154.37 L 41.60 154.63 L 41.61 154.64 L 41.54 154.79 L 41.35 155.07 L 41.12 155.42 L 40.84 155.81 L 40.62 156.13 L 40.44 156.39 L 40.16 156.79 L 40.01 157.02 L 39.81 157.31 L 39.57 157.65 L 39.30 158.05 L 38.99 158.49 L 38.67 158.95 L 38.70 158.93 L 38.81 158.81 L 38.93 158.67 L 38.72 158.98 L 38.36 159.51 L 38.05 159.96 L 37.70 160.45 L 37.53 160.68 L 37.21 161.13 L 36.87 161.62 L 36.63 161.98 L 36.48 162.20 L 36.08 162.76 L 35.70 163.31 L 35.52 163.58 L 35.23 164.01 L 34.85 164.55 L 34.48 165.09 L 34.08 165.66 L 33.71 166.18 L 33.43 166.56 L 33.04 167.08 L 32.70 167.52 L 32.43 167.85 L 32.22 168.08 L 31.90 168.45 L 31.56 168.87 L 31.20 169.30 L 30.89 169.68 L 30.51 170.16 L 30.11 170.69 L 29.71 171.21 L 29.31 171.75 L 28.91 172.31 L 28.50 172.87 L 28.11 173.42 L 27.76 173.92 L 27.37 174.47 L 26.98 175.03 L 26.60 175.58 L 26.22 176.14 L 25.85 176.68 L 25.55 177.13 L 25.25 177.58" fill="none" stroke="#000000" stroke-width="0.5" stroke-linejoin="round" stroke-linecap="round"/>
</svg>