<?xml version="1.0" encoding="UTF-8"?>
<svg xmlns="http://www.w3.org/2000/svg" viewBox="14.40 140.00 39.60 42.51">
<path d="M 49.00 145.00 L 48.18 145.22 L 47.70 145.54 L 47.26 145.78 L 46.52 146.37 L 45.79 146.98 L 45.06 147.59 L 44.38 148.13 L 43.68 148.59 L 43.01 148.91 L 42.58 148.81 L 42.14 148.68 L 41.59 148.63 L 40.92 148.72 L 40.30 148.75 L 39.74 148.70 L 39.17 148.64 L 38.62 148.56 L 38.15 148.35 L 37.67 148.14 L 37.20 147.93 L 36.66 147.88 L 36.21 147.76 L 35.81 147.65 L 35.06 148.13 L 34.34 148.64 L 33.65 149.18 L 32.97 149.82 L 32.31 150.43 L 31.67 151.02 L 30.99 151.67 L 30.32 152.25 L 29.64 152.79 L 29.02 153.37 L 28.50 153.93 L 28.08 154.50 L 27.85 154.97 L 27.74 155.42 L 27.59 156.10 L 27.56 156.77 L 27.59 157.36 L 27.48 158.11 L 27.29 158.93 L 27.04 159.74 L 26.82 160.42 L 26.47 161.20 L 26.01 162.02 L 25.52 162.82 L 24.98 163.58 L 24.41 164.31 L 23.83 165.03 L 23.23 165.75 L 22.62 166.45 L 22.03 167.17 L 21.47 167.91 L 20.94 168.67 L 20.44 169.46 L 20.02 170.28 L 19.68 171.10 L 19.43 171.93 L 19.40 172.54 L 19.47 173.12 L 19.58 173.73 L 19.83 174.21 L 20.14 174.62 L 20.47 175.02 L 20.80 175.44 L 21.18 175.78 L 21.65 175.99 L 22.20 176.08 L 22.71 176.21 L 23.16 176.40 L 23.80 176.26 L 24.40 176.11 L 25.00 175.87 L 25.72 175.36 L 26.35 174.79 L 26.88 174.13 L 27.36 173.32 L 27.63 172.65 L 27.59 172.30 L 27.52 171.99 L 27.74 171.39 L 28.08 170.79 L 28.62 170.15 L 29.18 169.73 L 29.59 169.72 L 29.84 170.07 L 30.08 170.42 L 30.09 171.04 L 29.93 171.79 L 29.64 172.59 L 29.23 173.40 L 28.75 174.20 L 28.20 174.95 L 27.59 175.65 L 26.95 176.31 L 26.34 176.91 L 25.75 177.51" fill="none" stroke="#000000" stroke-width="0.5" stroke-linejoin="round" stroke-linecap="round"/>
</svg>