<?xml version="1.0" encoding="UTF-8"?>
<svg xmlns="http://www.w3.org/2000/svg" viewBox="20.45 140.00 33.55 42.70">
<path d="M 49.00 145.00 L 48.41 145.01 L 48.00 145.20 L 47.55 145.38 L 47.18 145.36 L 46.64 145.59 L 46.14 145.75 L 45.81 145.76 L 45.37 145.97 L 44.93 146.19 L 44.45 146.52 L 44.03 146.85 L 43.65 147.18 L 43.28 147.59 L 42.92 148.00 L 42.57 148.43 L 42.26 148.87 L 41.98 149.33 L 41.73 149.83 L 41.50 150.32 L 41.28 150.77 L 41.14 151.20 L 41.01 151.74 L 40.93 152.31 L 41.15 152.53 L 41.38 152.77 L 41.64 153.03 L 41.96 153.32 L 42.31 153.57 L 42.86 153.54 L 43.27 153.70 L 43.58 153.99 L 44.03 154.09 L 44.38 154.32 L 44.67 154.58 L 44.98 154.66 L 45.09 154.85 L 44.87 155.32 L 44.57 155.73 L 44.20 156.07 L 43.80 156.35 L 43.37 156.56 L 42.92 156.79 L 42.44 157.11 L 42.09 157.29 L 41.71 157.57 L 41.28 157.93 L 40.84 158.29 L 40.44 158.67 L 40.06 159.02 L 39.66 159.38 L 39.24 159.76 L 38.85 160.07 L 38.45 160.41 L 38.03 160.79 L 37.66 161.10 L 37.28 161.48 L 36.89 161.88 L 36.51 162.28 L 36.14 162.69 L 35.78 163.11 L 35.40 163.51 L 35.01 163.91 L 34.63 164.30 L 34.26 164.61 L 33.88 165.00 L 33.54 165.41 L 33.29 165.81 L 33.05 166.27 L 32.91 166.54 L 32.83 166.76 L 32.61 167.28 L 32.41 167.73 L 32.15 168.13 L 31.81 168.48 L 31.47 168.85 L 31.16 169.25 L 30.84 169.60 L 30.45 169.96 L 30.06 170.34 L 29.74 170.69 L 29.43 171.11 L 29.12 171.57 L 28.79 172.00 L 28.51 172.45 L 28.26 172.91 L 27.98 173.39 L 27.68 173.83 L 27.36 174.24 L 27.01 174.65 L 26.68 175.04 L 26.36 175.46 L 26.07 175.93 L 25.84 176.44 L 25.82 176.67 L 25.87 176.77 L 25.90 176.86 L 25.70 177.28 L 25.45 177.70" fill="none" stroke="#000000" stroke-width="0.5" stroke-linejoin="round" stroke-linecap="round"/>
</svg>