<?xml version="1.0" encoding="UTF-8"?>
<svg xmlns="http://www.w3.org/2000/svg" viewBox="20.52 140.00 33.48 42.95">
<path d="M 49.00 145.00 L 48.62 145.66 L 48.17 146.29 L 47.73 146.96 L 47.31 147.64 L 46.90 148.26 L 46.49 148.79 L 46.08 149.26 L 45.83 149.45 L 45.60 149.57 L 45.30 149.71 L 44.96 149.87 L 44.54 150.19 L 44.06 150.74 L 43.61 151.35 L 43.22 152.01 L 43.03 152.52 L 42.90 153.04 L 42.82 153.55 L 42.82 154.00 L 42.91 154.34 L 43.00 154.69 L 43.01 155.15 L 43.11 155.51 L 43.24 155.81 L 43.38 156.12 L 43.52 156.43 L 43.68 156.72 L 43.86 156.97 L 44.03 157.22 L 44.20 157.48 L 44.22 157.94 L 44.23 158.41 L 44.36 158.72 L 44.53 158.97 L 44.71 159.23 L 44.86 159.46 L 44.97 159.69 L 45.04 159.95 L 44.82 160.59 L 44.75 161.00 L 45.19 160.69 L 45.69 160.28 L 46.17 159.97 L 46.70 159.64 L 47.22 159.33 L 47.47 159.39 L 47.62 159.56 L 47.56 159.98 L 47.32 160.60 L 46.98 161.29 L 46.57 161.99 L 46.13 162.67 L 45.66 163.32 L 45.18 163.96 L 44.69 164.60 L 44.19 165.23 L 43.68 165.86 L 43.18 166.50 L 42.70 167.14 L 42.24 167.79 L 41.79 168.46 L 41.36 169.11 L 40.94 169.74 L 40.49 170.41 L 40.03 171.07 L 39.53 171.71 L 39.01 172.32 L 38.48 172.87 L 37.94 173.38 L 37.46 173.74 L 37.01 174.02 L 36.52 174.32 L 36.02 174.61 L 35.54 174.86 L 35.15 175.00 L 34.67 175.26 L 34.15 175.57 L 33.58 175.94 L 33.17 176.10 L 32.72 176.31 L 32.21 176.59 L 31.78 176.74 L 31.37 176.84 L 30.98 176.92 L 30.56 177.01 L 30.15 177.10 L 29.86 177.01 L 29.54 176.97 L 29.14 177.03 L 28.73 177.12 L 28.30 177.23 L 27.90 177.30 L 27.50 177.38 L 27.07 177.50 L 26.67 177.58 L 26.27 177.65 L 25.88 177.79 L 25.52 177.95" fill="none" stroke="#000000" stroke-width="0.5" stroke-linejoin="round" stroke-linecap="round"/>
</svg>