<?xml version="1.0" encoding="UTF-8"?>
<svg xmlns="http://www.w3.org/2000/svg" viewBox="21.13 140.00 34.24 42.84">
<path d="M 49.00 145.00 L 49.48 146.15 L 49.48 146.95 L 49.54 147.81 L 49.52 148.94 L 49.49 149.99 L 49.48 150.94 L 49.40 151.93 L 49.33 152.97 L 49.24 154.05 L 49.21 155.05 L 49.24 156.04 L 49.26 157.11 L 49.42 158.09 L 49.67 158.98 L 49.89 159.93 L 50.12 160.89 L 50.34 161.85 L 50.37 162.81 L 50.18 163.63 L 49.80 164.32 L 49.43 164.60 L 49.08 164.54 L 48.44 164.63 L 47.88 164.33 L 47.76 163.28 L 47.75 162.11 L 47.63 161.12 L 47.39 160.23 L 47.15 159.26 L 46.67 158.46 L 45.90 158.01 L 45.09 157.64 L 44.19 157.46 L 43.16 157.52 L 42.14 157.68 L 41.09 157.96 L 40.05 158.24 L 39.02 158.52 L 38.01 158.74 L 37.14 158.77 L 36.19 158.96 L 35.39 159.01 L 35.45 157.98 L 35.61 156.95 L 35.90 155.98 L 36.34 155.08 L 36.29 155.08 L 35.71 155.90 L 35.17 156.69 L 34.66 157.46 L 34.10 158.32 L 33.51 159.05 L 32.84 159.67 L 32.00 160.26 L 31.18 160.73 L 30.38 161.18 L 29.67 161.64 L 28.95 162.23 L 28.31 162.99 L 28.87 162.42 L 29.68 161.85 L 30.44 161.41 L 31.26 161.17 L 32.00 161.06 L 31.82 162.15 L 31.94 162.80 L 31.78 163.69 L 31.43 164.68 L 31.57 165.13 L 31.22 166.12 L 30.88 167.11 L 30.60 168.11 L 30.39 169.11 L 30.29 170.14 L 30.31 171.20 L 30.56 172.10 L 31.02 172.88 L 31.81 173.27 L 32.63 173.67 L 33.44 174.06 L 34.46 174.13 L 35.53 174.04 L 36.32 174.30 L 36.43 175.27 L 36.33 176.16 L 36.22 176.68 L 35.83 177.19 L 35.19 177.67 L 34.49 177.83 L 33.58 177.84 L 32.59 177.74 L 31.61 177.54 L 30.64 177.35 L 29.73 177.19 L 28.96 176.94 L 28.03 176.97 L 27.01 177.37 L 26.13 177.79" fill="none" stroke="#000000" stroke-width="0.5" stroke-linejoin="round" stroke-linecap="round"/>
</svg>