<?xml version="1.0" encoding="UTF-8"?>
<svg xmlns="http://www.w3.org/2000/svg" viewBox="20.24 140.00 33.76 42.61">
<path d="M 49.00 145.00 L 48.64 145.01 L 48.38 145.15 L 48.05 145.33 L 47.72 145.50 L 47.38 145.67 L 47.06 145.84 L 46.72 146.04 L 46.38 146.25 L 46.05 146.46 L 45.75 146.65 L 45.41 146.91 L 45.07 147.18 L 44.75 147.42 L 44.41 147.71 L 44.09 147.96 L 43.76 148.20 L 43.43 148.46 L 43.10 148.69 L 42.78 148.92 L 42.45 149.16 L 42.12 149.41 L 41.80 149.66 L 41.47 149.91 L 41.13 150.20 L 40.82 150.44 L 40.49 150.73 L 40.17 151.01 L 39.87 151.26 L 39.55 151.57 L 39.23 151.88 L 38.93 152.19 L 38.63 152.51 L 38.33 152.85 L 38.03 153.18 L 37.75 153.52 L 37.46 153.86 L 37.17 154.19 L 36.88 154.54 L 36.61 154.89 L 36.33 155.22 L 36.05 155.57 L 35.79 155.93 L 35.53 156.28 L 35.29 156.65 L 35.03 157.02 L 34.79 157.40 L 34.57 157.79 L 34.35 158.18 L 34.13 158.57 L 33.94 158.93 L 33.72 159.32 L 33.51 159.71 L 33.30 160.11 L 33.09 160.51 L 32.88 160.90 L 32.70 161.26 L 32.50 161.64 L 32.30 162.05 L 32.11 162.46 L 31.93 162.86 L 31.77 163.23 L 31.61 163.61 L 31.46 163.99 L 31.31 164.37 L 31.16 164.76 L 30.98 165.18 L 30.82 165.58 L 30.67 165.96 L 30.51 166.34 L 30.36 166.72 L 30.21 167.10 L 30.05 167.51 L 29.87 167.93 L 29.71 168.31 L 29.55 168.68 L 29.39 169.06 L 29.23 169.45 L 29.06 169.87 L 28.90 170.27 L 28.74 170.64 L 28.58 171.01 L 28.42 171.40 L 28.23 171.81 L 28.06 172.21 L 27.89 172.58 L 27.71 172.98 L 27.53 173.39 L 27.37 173.78 L 27.20 174.15 L 27.04 174.52 L 26.85 174.91 L 26.64 175.32 L 26.42 175.71 L 26.19 176.09 L 25.96 176.48 L 25.72 176.86 L 25.48 177.24 L 25.24 177.61" fill="none" stroke="#000000" stroke-width="0.5" stroke-linejoin="round" stroke-linecap="round"/>
</svg>