<?xml version="1.0" encoding="UTF-8"?>
<svg xmlns="http://www.w3.org/2000/svg" viewBox="16.82 140.00 37.18 42.52">
<path d="M 49.00 145.00 L 48.94 145.66 L 48.78 146.22 L 48.68 146.79 L 48.62 147.32 L 48.54 147.87 L 48.41 148.42 L 48.24 149.01 L 48.02 149.58 L 47.77 150.13 L 47.49 150.65 L 47.19 151.16 L 46.86 151.66 L 46.52 152.15 L 46.15 152.61 L 45.77 153.07 L 45.40 153.53 L 45.03 153.99 L 44.65 154.45 L 44.29 154.93 L 43.94 155.42 L 43.60 155.91 L 43.24 156.39 L 42.87 156.85 L 42.50 157.31 L 42.12 157.77 L 41.73 158.22 L 41.32 158.65 L 40.88 159.07 L 40.45 159.48 L 40.03 159.88 L 39.62 160.25 L 39.14 160.64 L 38.66 161.02 L 38.19 161.40 L 37.75 161.76 L 37.31 162.14 L 36.88 162.54 L 36.45 162.97 L 36.06 163.41 L 35.65 163.86 L 35.24 164.30 L 34.83 164.74 L 34.46 165.14 L 34.08 165.57 L 33.68 166.01 L 33.28 166.45 L 32.90 166.92 L 32.51 167.37 L 32.10 167.82 L 31.65 168.20 L 31.13 168.52 L 30.57 168.76 L 30.10 168.72 L 29.74 168.44 L 29.39 168.04 L 29.08 167.54 L 28.78 167.01 L 28.49 166.49 L 28.20 165.97 L 27.92 165.43 L 27.68 164.83 L 27.34 164.35 L 26.92 163.97 L 26.45 163.66 L 25.93 163.49 L 25.49 163.35 L 25.12 163.26 L 24.56 163.57 L 24.08 163.95 L 23.71 164.42 L 23.45 164.98 L 23.30 165.55 L 23.23 166.08 L 23.28 166.52 L 23.38 166.95 L 23.35 167.57 L 23.28 168.18 L 23.18 168.76 L 22.99 169.34 L 22.79 169.91 L 22.59 170.48 L 22.40 171.08 L 22.27 171.65 L 22.19 172.17 L 22.09 172.69 L 22.01 173.23 L 21.94 173.84 L 21.84 174.50 L 21.82 175.05 L 21.82 175.56 L 21.83 176.07 L 22.36 175.93 L 22.98 175.74 L 23.30 176.00 L 23.34 176.66 L 23.74 176.92 L 24.03 177.23 L 24.30 177.52" fill="none" stroke="#000000" stroke-width="0.5" stroke-linejoin="round" stroke-linecap="round"/>
</svg>