<?xml version="1.0" encoding="UTF-8"?>
<svg xmlns="http://www.w3.org/2000/svg" viewBox="15.01 140.00 38.99 42.40">
<path d="M 49.00 145.00 L 48.78 145.55 L 48.53 146.07 L 48.31 146.62 L 48.10 147.18 L 47.95 147.69 L 47.83 148.19 L 47.66 148.78 L 47.54 149.35 L 47.43 149.92 L 47.31 150.50 L 47.20 151.06 L 47.10 151.59 L 46.99 152.09 L 46.81 152.66 L 46.63 153.24 L 46.42 153.80 L 46.19 154.34 L 45.97 154.83 L 45.73 155.34 L 45.48 155.86 L 45.20 156.38 L 44.88 156.86 L 44.52 157.31 L 44.14 157.75 L 43.78 158.18 L 43.40 158.61 L 43.00 159.02 L 42.58 159.44 L 42.17 159.86 L 41.80 160.30 L 41.46 160.75 L 41.11 161.20 L 40.76 161.65 L 40.42 162.11 L 40.10 162.59 L 39.79 163.08 L 39.45 163.55 L 39.09 164.00 L 38.71 164.44 L 38.32 164.86 L 37.90 165.25 L 37.42 165.59 L 36.89 165.90 L 36.36 166.11 L 35.82 166.24 L 35.29 166.28 L 34.71 166.29 L 34.15 166.24 L 33.68 166.02 L 33.08 165.97 L 32.49 165.90 L 32.00 165.67 L 31.43 165.56 L 30.86 165.44 L 30.29 165.29 L 29.69 165.19 L 29.17 164.99 L 28.67 164.76 L 28.18 164.53 L 27.55 164.47 L 26.94 164.38 L 26.46 164.15 L 25.98 163.93 L 25.43 163.79 L 24.80 163.76 L 24.22 163.70 L 23.76 163.56 L 23.29 163.47 L 22.67 163.62 L 22.10 163.79 L 21.60 164.02 L 21.18 164.30 L 20.78 164.70 L 20.43 165.16 L 20.21 165.64 L 20.07 166.21 L 20.01 166.83 L 20.13 167.35 L 20.34 167.81 L 20.62 168.22 L 20.98 168.60 L 21.24 169.11 L 21.43 169.66 L 21.60 170.19 L 21.72 170.73 L 21.76 171.39 L 21.85 171.99 L 21.93 172.59 L 22.07 173.11 L 22.24 173.65 L 22.43 174.20 L 22.64 174.76 L 22.87 175.33 L 23.23 175.72 L 23.58 176.16 L 23.93 176.62 L 24.22 177.03 L 24.45 177.40" fill="none" stroke="#000000" stroke-width="0.5" stroke-linejoin="round" stroke-linecap="round"/>
</svg>