<?xml version="1.0" encoding="UTF-8"?>
<svg xmlns="http://www.w3.org/2000/svg" viewBox="20.95 140.00 48.83 42.99">
<path d="M 49.00 145.00 L 49.93 145.45 L 50.45 145.61 L 51.04 145.83 L 51.52 146.38 L 51.99 146.91 L 52.44 147.43 L 52.86 147.96 L 53.05 148.66 L 53.21 149.35 L 53.34 150.04 L 53.33 150.92 L 53.43 151.68 L 53.63 152.35 L 54.01 152.81 L 54.45 153.33 L 54.92 153.86 L 55.40 154.41 L 55.89 154.96 L 56.38 155.51 L 56.86 156.06 L 57.35 156.61 L 57.84 157.15 L 58.32 157.70 L 58.81 158.25 L 59.30 158.80 L 59.89 159.20 L 60.57 159.47 L 61.25 159.75 L 61.93 160.02 L 62.60 160.32 L 63.08 160.86 L 63.56 161.41 L 64.02 161.94 L 64.42 162.42 L 64.68 162.98 L 64.78 163.62 L 64.68 164.41 L 64.49 165.15 L 64.20 165.82 L 63.83 166.43 L 63.43 167.02 L 63.02 167.61 L 62.62 168.20 L 62.21 168.79 L 61.83 169.39 L 61.44 169.99 L 61.03 170.56 L 60.57 171.11 L 60.07 171.55 L 59.50 171.91 L 58.87 172.19 L 58.21 172.37 L 57.57 172.45 L 56.83 172.62 L 56.09 172.78 L 55.38 172.91 L 54.72 172.99 L 53.99 173.17 L 53.27 173.35 L 52.56 173.54 L 51.90 173.77 L 51.27 174.01 L 50.59 174.30 L 49.87 174.66 L 49.18 174.96 L 48.54 175.21 L 47.87 175.42 L 47.17 175.62 L 46.44 175.79 L 45.81 175.84 L 45.06 175.99 L 44.29 176.14 L 43.53 176.26 L 43.00 176.09 L 42.32 176.11 L 41.57 176.24 L 40.89 176.27 L 40.15 176.44 L 39.42 176.62 L 38.70 176.79 L 37.96 176.97 L 37.22 177.13 L 36.48 177.25 L 35.83 177.26 L 35.15 177.26 L 34.44 177.32 L 33.66 177.46 L 33.01 177.49 L 32.25 177.64 L 31.49 177.79 L 30.71 177.93 L 30.04 177.92 L 29.34 177.90 L 28.62 177.87 L 27.90 177.83 L 27.20 177.81 L 26.56 177.84 L 25.95 177.99" fill="none" stroke="#000000" stroke-width="0.5" stroke-linejoin="round" stroke-linecap="round"/>
</svg>