<?xml version="1.0" encoding="UTF-8"?>
<svg xmlns="http://www.w3.org/2000/svg" viewBox="19.24 140.00 37.83 42.46">
<path d="M 49.00 145.00 L 48.51 145.82 L 47.94 146.58 L 47.36 147.34 L 46.71 148.03 L 45.95 148.66 L 45.12 149.17 L 44.30 149.46 L 43.48 149.59 L 42.60 149.62 L 41.76 149.44 L 40.86 149.30 L 39.88 149.26 L 38.91 149.21 L 37.94 149.18 L 36.99 149.15 L 36.03 149.12 L 35.07 149.09 L 34.11 149.06 L 33.15 149.03 L 32.34 149.10 L 31.71 149.31 L 31.28 149.66 L 30.99 150.16 L 30.94 150.67 L 31.04 151.30 L 31.18 152.19 L 31.25 153.19 L 31.24 154.16 L 31.21 155.12 L 31.13 156.12 L 31.12 157.06 L 32.01 156.83 L 32.92 156.62 L 33.86 156.46 L 34.77 156.41 L 35.67 156.40 L 36.59 156.40 L 37.59 156.31 L 38.60 156.21 L 39.52 156.21 L 40.43 156.19 L 41.32 156.18 L 42.30 156.07 L 43.30 155.91 L 44.29 155.75 L 45.18 155.67 L 46.08 155.59 L 47.07 155.44 L 48.09 155.32 L 49.11 155.22 L 49.95 155.39 L 50.62 155.83 L 51.06 156.60 L 51.44 157.46 L 51.75 158.36 L 51.96 159.30 L 52.07 160.17 L 52.02 161.02 L 51.81 161.86 L 51.38 162.73 L 50.82 163.49 L 50.14 164.15 L 49.32 164.65 L 48.44 165.05 L 47.51 165.31 L 46.64 165.35 L 45.80 165.20 L 44.93 164.99 L 44.03 164.79 L 43.18 164.61 L 42.39 164.45 L 41.39 164.59 L 40.36 164.82 L 39.33 165.10 L 38.54 165.19 L 37.72 165.34 L 36.82 165.57 L 35.79 165.88 L 34.81 166.15 L 33.89 166.36 L 33.07 166.43 L 32.16 166.56 L 31.19 166.74 L 30.30 166.94 L 29.51 167.22 L 28.82 167.60 L 28.14 168.22 L 27.56 168.95 L 27.11 169.73 L 26.74 170.57 L 26.39 171.43 L 26.04 172.29 L 25.64 173.18 L 25.23 174.06 L 24.86 174.97 L 24.57 175.93 L 24.31 176.83 L 24.24 177.46" fill="none" stroke="#000000" stroke-width="0.5" stroke-linejoin="round" stroke-linecap="round"/>
</svg>