<?xml version="1.0" encoding="UTF-8"?>
<svg xmlns="http://www.w3.org/2000/svg" viewBox="20.30 140.00 33.70 42.79">
<path d="M 49.00 145.00 L 48.79 145.80 L 48.32 146.68 L 47.78 147.70 L 47.28 148.72 L 46.78 149.72 L 46.26 150.75 L 45.73 151.78 L 45.20 152.81 L 44.65 153.86 L 44.02 155.02 L 43.46 156.09 L 42.93 157.11 L 42.40 158.14 L 41.87 159.17 L 41.35 160.17 L 40.82 161.19 L 40.18 162.34 L 39.54 163.48 L 38.89 164.62 L 38.22 165.76 L 37.48 166.99 L 36.73 168.22 L 35.97 169.43 L 35.19 170.65 L 34.37 171.88 L 33.49 173.18 L 32.58 174.46 L 31.65 175.71 L 30.71 176.94 L 30.03 177.79 L 30.50 177.03 L 31.33 175.75 L 32.15 174.45 L 32.94 173.18 L 33.72 171.94 L 34.49 170.73 L 34.86 170.04 L 35.50 168.97 L 36.27 167.70 L 36.93 166.57 L 37.59 165.44 L 38.24 164.30 L 38.77 163.28 L 39.18 162.39 L 39.61 161.47 L 40.04 160.52 L 40.39 159.68 L 40.70 158.88 L 40.93 158.24 L 40.29 158.86 L 39.79 159.33 L 40.39 158.33 L 41.19 157.06 L 42.03 155.74 L 42.76 154.57 L 43.45 153.46 L 43.71 152.87 L 44.04 152.13 L 44.82 150.76 L 45.25 149.86 L 45.61 149.05 L 45.98 148.21 L 46.36 147.29 L 46.48 146.74 L 46.46 146.39 L 46.32 146.19 L 45.50 146.92 L 44.72 147.66 L 44.20 148.09 L 43.64 148.65 L 42.64 149.84 L 41.68 151.08 L 40.81 152.24 L 40.03 153.36 L 39.45 154.24 L 38.62 155.49 L 37.86 156.68 L 37.19 157.80 L 36.51 158.92 L 35.80 160.15 L 35.13 161.37 L 34.76 162.20 L 34.50 162.80 L 34.42 163.08 L 34.47 163.11 L 34.14 163.62 L 33.76 164.17 L 32.87 165.37 L 31.97 166.53 L 31.11 167.70 L 30.26 168.96 L 29.42 170.25 L 28.65 171.48 L 27.88 172.70 L 27.14 173.93 L 26.46 175.11 L 25.80 176.24 L 25.30 177.13" fill="none" stroke="#000000" stroke-width="0.5" stroke-linejoin="round" stroke-linecap="round"/>
</svg>