<?xml version="1.0" encoding="UTF-8"?>
<svg xmlns="http://www.w3.org/2000/svg" viewBox="20.31 140.00 34.37 42.67">
<path d="M 49.00 145.00 L 49.56 145.04 L 49.68 145.22 L 49.66 145.65 L 49.63 146.14 L 49.58 146.58 L 49.49 146.97 L 49.37 147.40 L 49.25 147.85 L 49.12 148.29 L 49.02 148.66 L 48.88 149.07 L 48.74 149.49 L 48.63 149.92 L 48.49 150.36 L 48.34 150.77 L 48.18 151.17 L 48.01 151.57 L 47.86 152.00 L 47.71 152.44 L 47.54 152.83 L 47.38 153.19 L 47.20 153.53 L 46.99 153.93 L 46.75 154.31 L 46.48 154.67 L 46.18 155.01 L 45.89 155.35 L 45.59 155.69 L 45.30 156.03 L 45.01 156.37 L 44.71 156.71 L 44.42 157.05 L 44.12 157.39 L 43.83 157.73 L 43.54 158.08 L 43.24 158.42 L 42.95 158.76 L 42.65 159.10 L 42.36 159.44 L 42.07 159.78 L 41.77 160.12 L 41.48 160.46 L 41.18 160.80 L 40.89 161.14 L 40.57 161.46 L 40.22 161.76 L 39.85 162.05 L 39.52 162.21 L 39.13 162.37 L 38.68 162.52 L 38.25 162.57 L 37.83 162.62 L 37.46 162.57 L 37.08 162.56 L 36.64 162.71 L 36.26 162.85 L 35.90 163.04 L 35.54 163.33 L 35.22 163.65 L 34.94 164.00 L 34.69 164.37 L 34.47 164.73 L 34.27 165.11 L 34.05 165.51 L 33.87 165.90 L 33.70 166.30 L 33.53 166.73 L 33.39 167.11 L 33.24 167.47 L 33.08 167.87 L 32.91 168.29 L 32.72 168.70 L 32.51 169.06 L 32.27 169.42 L 32.01 169.79 L 31.75 170.16 L 31.47 170.51 L 31.17 170.85 L 30.88 171.19 L 30.58 171.53 L 30.29 171.87 L 30.00 172.21 L 29.70 172.55 L 29.41 172.89 L 29.12 173.23 L 28.82 173.57 L 28.53 173.91 L 28.23 174.25 L 27.94 174.59 L 27.65 174.93 L 27.35 175.27 L 27.06 175.62 L 26.76 175.96 L 26.47 176.30 L 26.18 176.64 L 25.88 176.98 L 25.59 177.32 L 25.31 177.67" fill="none" stroke="#000000" stroke-width="0.5" stroke-linejoin="round" stroke-linecap="round"/>
</svg>