<?xml version="1.0" encoding="UTF-8"?>
<svg xmlns="http://www.w3.org/2000/svg" viewBox="20.63 140.00 33.76 42.83">
<path d="M 49.00 145.00 L 48.98 145.69 L 48.68 146.17 L 48.36 146.53 L 48.24 146.57 L 48.10 146.68 L 47.98 146.84 L 47.63 147.33 L 47.47 147.69 L 47.45 148.14 L 47.55 148.68 L 47.71 149.32 L 47.87 149.95 L 48.07 150.56 L 48.27 151.17 L 48.48 151.78 L 48.77 152.24 L 49.00 152.75 L 49.16 153.33 L 49.24 154.03 L 49.28 154.73 L 49.33 155.31 L 49.39 155.82 L 49.39 156.39 L 49.29 157.08 L 49.18 157.71 L 49.04 158.31 L 48.89 158.91 L 48.73 159.57 L 48.62 160.19 L 48.49 160.80 L 48.34 161.39 L 48.28 161.92 L 48.17 162.55 L 48.01 163.22 L 47.95 163.73 L 47.82 164.31 L 47.68 164.93 L 47.47 165.54 L 47.21 165.97 L 46.85 166.31 L 46.43 166.57 L 46.19 166.53 L 45.78 166.63 L 45.31 166.78 L 44.83 167.16 L 44.38 167.63 L 43.98 168.11 L 43.67 168.45 L 43.34 168.91 L 43.05 169.30 L 43.10 169.17 L 42.62 169.52 L 42.06 169.84 L 41.45 170.14 L 41.01 170.19 L 40.52 170.09 L 40.03 169.82 L 39.55 169.48 L 39.13 169.04 L 38.77 168.53 L 38.51 167.89 L 38.23 167.28 L 37.87 166.77 L 37.51 166.27 L 37.22 165.84 L 36.91 165.72 L 36.74 165.72 L 36.70 165.73 L 36.71 165.73 L 36.66 165.93 L 36.62 166.28 L 36.47 166.80 L 36.20 167.34 L 35.81 167.85 L 35.44 168.28 L 35.14 168.78 L 34.86 169.33 L 34.61 169.92 L 34.37 170.47 L 34.13 171.00 L 33.89 171.52 L 33.59 172.06 L 33.24 172.57 L 32.81 173.01 L 32.32 173.40 L 31.80 173.74 L 31.31 174.02 L 30.78 174.32 L 30.20 174.65 L 29.62 174.98 L 29.08 175.30 L 28.60 175.58 L 28.11 175.93 L 27.60 176.31 L 27.07 176.69 L 26.55 177.07 L 26.06 177.47 L 25.63 177.83" fill="none" stroke="#000000" stroke-width="0.5" stroke-linejoin="round" stroke-linecap="round"/>
</svg>