<?xml version="1.0" encoding="UTF-8"?>
<svg xmlns="http://www.w3.org/2000/svg" viewBox="20.03 140.00 39.59 42.42">
<path d="M 49.00 145.00 L 49.67 145.38 L 50.00 145.59 L 50.33 145.91 L 50.81 146.16 L 51.25 146.47 L 51.65 146.83 L 52.12 147.06 L 52.53 147.37 L 52.86 147.79 L 53.08 148.33 L 53.35 148.77 L 53.65 149.17 L 53.83 149.69 L 54.02 150.22 L 54.20 150.74 L 54.35 151.24 L 54.48 151.73 L 54.60 152.21 L 54.61 152.80 L 54.61 153.36 L 54.58 153.88 L 54.44 154.36 L 54.22 154.81 L 53.95 155.19 L 53.61 155.49 L 53.20 155.74 L 52.71 155.93 L 52.17 156.08 L 51.69 156.13 L 51.19 156.16 L 50.63 156.30 L 50.12 156.33 L 49.62 156.36 L 49.05 156.49 L 48.53 156.57 L 48.05 156.61 L 47.50 156.73 L 46.94 156.87 L 46.38 157.01 L 45.94 157.02 L 45.44 157.12 L 44.90 157.27 L 44.36 157.42 L 43.83 157.58 L 43.29 157.74 L 42.76 157.90 L 42.29 158.03 L 41.89 158.06 L 41.34 158.30 L 40.79 158.53 L 40.29 158.71 L 39.82 158.92 L 39.35 159.13 L 38.87 159.32 L 38.37 159.58 L 37.89 159.85 L 37.47 160.09 L 37.02 160.38 L 36.54 160.69 L 36.07 160.99 L 35.65 161.28 L 35.24 161.56 L 34.80 161.89 L 34.36 162.22 L 33.93 162.57 L 33.54 162.95 L 33.18 163.33 L 32.82 163.72 L 32.45 164.11 L 32.08 164.51 L 31.72 164.91 L 31.35 165.30 L 30.99 165.71 L 30.66 166.11 L 30.35 166.53 L 30.05 166.92 L 29.73 167.32 L 29.43 167.76 L 29.15 168.21 L 28.85 168.63 L 28.52 169.06 L 28.20 169.49 L 27.91 169.94 L 27.64 170.40 L 27.37 170.87 L 27.14 171.37 L 26.92 171.87 L 26.71 172.36 L 26.52 172.82 L 26.31 173.34 L 26.13 173.86 L 25.95 174.40 L 25.78 174.89 L 25.63 175.37 L 25.49 175.88 L 25.35 176.44 L 25.19 176.95 L 25.03 177.42" fill="none" stroke="#000000" stroke-width="0.5" stroke-linejoin="round" stroke-linecap="round"/>
</svg>