<?xml version="1.0" encoding="UTF-8"?>
<svg xmlns="http://www.w3.org/2000/svg" viewBox="20.62 140.00 33.38 42.97">
<path d="M 49.00 145.00 L 48.59 145.72 L 48.08 146.49 L 47.52 147.33 L 46.97 148.18 L 46.42 149.03 L 45.86 149.87 L 45.34 150.65 L 44.79 151.49 L 44.24 152.33 L 43.69 153.18 L 43.18 153.99 L 42.69 154.79 L 42.21 155.60 L 42.07 155.97 L 41.97 156.29 L 41.84 156.60 L 41.62 156.98 L 41.08 157.74 L 41.03 157.77 L 41.31 157.28 L 41.46 156.90 L 41.56 156.56 L 41.80 156.04 L 42.10 155.46 L 42.51 154.74 L 42.99 153.96 L 43.52 153.12 L 44.07 152.28 L 44.63 151.43 L 45.19 150.59 L 45.75 149.75 L 46.31 148.90 L 46.83 148.09 L 47.36 147.28 L 47.93 146.44 L 48.10 146.16 L 47.71 146.65 L 47.11 147.43 L 46.50 148.23 L 45.92 149.04 L 45.32 149.87 L 44.70 150.71 L 44.07 151.55 L 43.46 152.41 L 42.86 153.26 L 42.28 154.09 L 41.69 154.92 L 41.12 155.75 L 40.52 156.61 L 39.93 157.46 L 39.35 158.29 L 38.78 159.12 L 38.19 159.97 L 37.59 160.83 L 37.01 161.65 L 36.42 162.50 L 35.82 163.36 L 35.23 164.19 L 34.65 165.03 L 34.06 165.90 L 33.49 166.73 L 32.95 167.54 L 32.41 168.34 L 31.85 169.19 L 31.29 170.03 L 30.73 170.87 L 30.16 171.70 L 29.59 172.54 L 29.02 173.40 L 28.45 174.27 L 28.05 174.92 L 27.70 175.53 L 27.26 176.23 L 26.91 176.78 L 26.46 177.44 L 26.06 177.97 L 26.57 177.19 L 27.02 176.47 L 27.31 175.91 L 27.61 175.36 L 28.00 174.71 L 28.46 173.97 L 29.03 173.09 L 29.61 172.24 L 30.18 171.40 L 30.75 170.57 L 31.33 169.72 L 31.77 169.07 L 31.27 169.71 L 30.63 170.54 L 30.00 171.38 L 29.37 172.21 L 28.74 173.05 L 28.12 173.89 L 27.49 174.73 L 26.86 175.57 L 26.23 176.41 L 25.62 177.22" fill="none" stroke="#000000" stroke-width="0.5" stroke-linejoin="round" stroke-linecap="round"/>
</svg>