<?xml version="1.0" encoding="UTF-8"?>
<svg xmlns="http://www.w3.org/2000/svg" viewBox="14.26 140.00 39.74 42.71">
<path d="M 49.00 145.00 L 48.33 145.53 L 47.75 146.19 L 47.11 146.94 L 46.46 147.69 L 45.82 148.46 L 45.21 149.26 L 44.63 150.06 L 44.07 150.87 L 43.54 151.68 L 43.01 152.50 L 42.49 153.34 L 42.00 154.18 L 41.48 155.01 L 40.94 155.82 L 40.35 156.59 L 39.75 157.30 L 39.14 157.95 L 38.63 158.36 L 38.04 158.81 L 37.36 159.34 L 36.72 159.80 L 36.08 160.25 L 35.44 160.69 L 34.80 161.13 L 34.17 161.52 L 33.58 161.86 L 32.98 162.20 L 32.38 162.54 L 31.79 162.83 L 31.18 163.16 L 30.76 163.31 L 30.82 162.84 L 30.38 163.07 L 29.69 163.70 L 29.24 164.09 L 29.42 163.75 L 30.01 162.98 L 30.65 162.24 L 31.16 161.79 L 31.57 161.62 L 31.64 161.94 L 31.79 162.07 L 31.95 162.05 L 32.56 161.25 L 32.83 160.74 L 32.94 160.27 L 33.01 159.68 L 32.83 159.35 L 32.65 158.99 L 32.48 158.61 L 32.17 158.41 L 31.79 158.32 L 31.38 158.31 L 30.96 158.34 L 30.42 158.58 L 29.77 159.01 L 29.16 159.47 L 28.52 160.06 L 27.89 160.75 L 27.25 161.51 L 26.67 162.30 L 26.13 163.11 L 25.63 163.95 L 25.19 164.80 L 24.80 165.61 L 24.41 166.35 L 24.04 166.98 L 23.61 167.59 L 23.05 168.28 L 22.68 168.60 L 22.16 169.03 L 21.57 169.50 L 20.96 170.09 L 20.37 170.81 L 19.81 171.63 L 19.47 172.29 L 19.30 172.86 L 19.26 173.36 L 19.28 173.89 L 19.37 174.36 L 19.53 174.74 L 19.70 175.12 L 19.97 175.38 L 20.28 175.57 L 20.60 175.75 L 20.95 175.87 L 21.40 175.86 L 21.96 175.69 L 22.29 175.82 L 22.32 176.36 L 22.47 176.74 L 22.55 177.21 L 22.60 177.71 L 23.16 177.52 L 23.72 177.34 L 24.27 177.18 L 24.53 177.33 L 24.67 177.56" fill="none" stroke="#000000" stroke-width="0.5" stroke-linejoin="round" stroke-linecap="round"/>
</svg>