<?xml version="1.0" encoding="UTF-8"?>
<svg xmlns="http://www.w3.org/2000/svg" viewBox="20.28 140.00 33.72 42.97">
<path d="M 49.00 145.00 L 48.35 145.99 L 47.69 146.96 L 47.03 147.92 L 46.40 148.86 L 45.81 149.73 L 45.16 150.67 L 44.46 151.64 L 43.70 152.68 L 43.41 153.03 L 43.92 152.26 L 44.50 151.38 L 45.06 150.49 L 45.57 149.67 L 45.96 149.00 L 45.97 148.85 L 45.80 148.94 L 45.61 149.05 L 45.25 149.41 L 44.88 149.79 L 44.23 150.59 L 43.50 151.49 L 42.78 152.43 L 42.06 153.37 L 41.31 154.38 L 40.58 155.39 L 40.93 154.93 L 41.69 153.94 L 42.39 153.06 L 42.99 152.34 L 43.50 151.75 L 43.67 151.65 L 43.79 151.64 L 43.83 151.73 L 43.63 152.15 L 43.28 152.76 L 42.71 153.65 L 42.24 154.42 L 41.69 155.26 L 41.05 156.24 L 40.44 157.17 L 39.84 158.07 L 39.35 158.79 L 38.71 159.71 L 37.95 160.74 L 37.21 161.74 L 36.93 162.05 L 37.27 161.50 L 37.73 160.76 L 38.21 159.98 L 38.70 159.18 L 39.16 158.44 L 39.00 158.56 L 38.49 159.18 L 37.71 160.15 L 36.97 161.09 L 36.27 162.01 L 35.65 162.82 L 34.89 163.86 L 34.14 164.88 L 33.42 165.88 L 32.72 166.89 L 32.01 167.90 L 31.33 168.87 L 30.65 169.83 L 31.31 168.93 L 32.06 167.91 L 32.82 166.89 L 33.58 165.86 L 34.34 164.84 L 34.99 164.01 L 35.66 163.16 L 36.28 162.41 L 36.14 162.72 L 35.75 163.38 L 35.30 164.14 L 35.17 164.45 L 35.07 164.70 L 34.94 164.99 L 34.27 166.02 L 33.60 167.04 L 32.94 168.00 L 32.30 168.92 L 31.69 169.78 L 30.99 170.75 L 30.30 171.71 L 29.58 172.67 L 28.82 173.69 L 28.09 174.64 L 27.39 175.55 L 26.62 176.54 L 25.99 177.31 L 25.51 177.86 L 25.34 177.97 L 25.28 177.92 L 25.51 177.48 L 26.02 176.69 L 26.19 176.40 L 25.63 177.12" fill="none" stroke="#000000" stroke-width="0.5" stroke-linejoin="round" stroke-linecap="round"/>
</svg>