<?xml version="1.0" encoding="UTF-8"?>
<svg xmlns="http://www.w3.org/2000/svg" viewBox="19.21 140.00 34.79 42.76">
<path d="M 49.00 145.00 L 48.49 145.12 L 48.18 145.32 L 47.85 145.51 L 47.43 145.76 L 47.02 146.02 L 46.67 146.25 L 46.37 146.45 L 46.00 146.73 L 45.60 147.00 L 45.20 147.26 L 44.83 147.50 L 44.46 147.71 L 44.07 147.92 L 43.67 148.16 L 43.30 148.34 L 42.92 148.51 L 42.47 148.75 L 42.08 148.90 L 41.73 149.01 L 41.38 149.17 L 40.99 149.37 L 40.60 149.63 L 40.22 149.91 L 39.87 150.23 L 39.55 150.55 L 39.24 150.87 L 38.91 151.19 L 38.58 151.52 L 38.25 151.83 L 37.92 152.15 L 37.60 152.46 L 37.27 152.78 L 36.96 153.11 L 36.63 153.44 L 36.33 153.78 L 36.05 154.14 L 35.77 154.50 L 35.50 154.85 L 35.23 155.20 L 34.96 155.57 L 34.71 155.94 L 34.45 156.31 L 34.20 156.67 L 33.96 157.05 L 33.74 157.45 L 33.55 157.85 L 33.35 158.25 L 33.15 158.65 L 32.95 159.06 L 32.75 159.47 L 32.55 159.89 L 32.38 160.32 L 32.21 160.74 L 32.06 161.14 L 31.95 161.51 L 31.81 161.95 L 31.67 162.40 L 31.52 162.84 L 31.35 163.26 L 31.18 163.69 L 30.99 164.10 L 30.79 164.50 L 30.59 164.91 L 30.39 165.32 L 30.19 165.73 L 29.99 166.14 L 29.80 166.55 L 29.62 166.97 L 29.46 167.39 L 29.29 167.82 L 29.10 168.23 L 28.91 168.64 L 28.74 169.07 L 28.58 169.52 L 28.45 169.93 L 28.36 170.30 L 28.27 170.71 L 28.20 171.17 L 28.13 171.67 L 28.09 172.07 L 27.99 172.47 L 27.83 172.83 L 27.58 173.20 L 27.31 173.47 L 27.04 173.64 L 26.73 173.80 L 26.34 174.00 L 25.93 174.23 L 25.55 174.51 L 25.21 174.82 L 24.91 175.15 L 24.64 175.52 L 24.43 175.93 L 24.28 176.36 L 24.21 176.79 L 24.29 177.14 L 24.32 177.55 L 24.47 177.76" fill="none" stroke="#000000" stroke-width="0.5" stroke-linejoin="round" stroke-linecap="round"/>
</svg>