<?xml version="1.0" encoding="UTF-8"?>
<svg xmlns="http://www.w3.org/2000/svg" viewBox="20.41 140.00 33.59 42.46">
<path d="M 49.00 145.00 L 48.66 145.03 L 48.41 145.27 L 47.96 145.81 L 47.52 146.35 L 47.12 146.92 L 46.76 147.49 L 46.41 148.06 L 46.06 148.66 L 45.73 149.28 L 45.42 149.87 L 45.14 150.45 L 44.93 150.97 L 44.69 151.57 L 44.47 152.15 L 44.28 152.69 L 44.07 153.22 L 43.83 153.77 L 43.49 154.34 L 43.08 154.89 L 42.62 155.42 L 42.60 155.23 L 42.67 154.85 L 42.77 154.36 L 42.84 153.86 L 42.98 153.28 L 43.10 152.75 L 43.21 152.27 L 43.37 151.72 L 43.56 151.14 L 43.78 150.51 L 43.95 149.95 L 44.11 149.39 L 44.26 148.83 L 44.29 148.43 L 44.36 147.99 L 44.30 147.78 L 43.82 148.18 L 43.31 148.64 L 42.80 149.12 L 42.30 149.61 L 41.99 149.92 L 42.04 149.76 L 41.63 150.27 L 41.18 150.78 L 40.76 151.29 L 40.36 151.86 L 40.33 151.89 L 40.04 152.20 L 39.59 152.71 L 39.47 152.77 L 39.39 152.82 L 38.94 153.35 L 38.49 153.88 L 38.06 154.43 L 37.68 155.00 L 37.31 155.59 L 36.96 156.17 L 36.63 156.75 L 36.37 157.25 L 36.10 157.80 L 35.78 158.43 L 35.45 159.05 L 35.21 159.57 L 34.95 160.13 L 34.66 160.75 L 34.49 161.19 L 34.25 161.68 L 33.96 162.22 L 33.63 162.83 L 33.29 163.44 L 32.96 164.06 L 32.68 164.65 L 32.53 165.11 L 32.46 165.49 L 32.32 165.95 L 32.12 166.47 L 31.85 167.02 L 31.52 167.62 L 31.17 168.23 L 30.82 168.84 L 30.52 169.44 L 30.30 170.00 L 30.23 170.37 L 30.17 170.75 L 30.06 171.16 L 29.75 171.74 L 29.47 172.21 L 29.22 172.52 L 28.97 172.79 L 28.54 173.28 L 28.16 173.66 L 27.74 174.13 L 27.34 174.67 L 26.94 175.23 L 26.56 175.81 L 26.19 176.34 L 25.80 176.89 L 25.41 177.46" fill="none" stroke="#000000" stroke-width="0.5" stroke-linejoin="round" stroke-linecap="round"/>
</svg>