<?xml version="1.0" encoding="UTF-8"?>
<svg xmlns="http://www.w3.org/2000/svg" viewBox="19.35 140.00 34.65 42.52">
<path d="M 49.00 145.00 L 48.70 145.33 L 48.43 145.68 L 48.17 146.03 L 47.92 146.38 L 47.67 146.74 L 47.44 147.12 L 47.21 147.51 L 46.98 147.88 L 46.75 148.25 L 46.53 148.64 L 46.32 149.03 L 46.11 149.43 L 45.91 149.82 L 45.72 150.22 L 45.55 150.63 L 45.38 151.03 L 45.20 151.44 L 45.02 151.84 L 44.83 152.25 L 44.64 152.66 L 44.46 153.06 L 44.25 153.45 L 44.02 153.81 L 43.75 154.15 L 43.44 154.43 L 43.11 154.66 L 42.82 154.76 L 42.42 154.90 L 41.97 155.05 L 41.52 155.20 L 41.12 155.32 L 40.74 155.41 L 40.32 155.57 L 39.90 155.74 L 39.50 155.93 L 39.12 156.12 L 38.72 156.35 L 38.33 156.61 L 38.00 156.84 L 37.70 157.13 L 37.41 157.45 L 37.12 157.78 L 36.86 158.12 L 36.63 158.49 L 36.41 158.87 L 36.18 159.24 L 35.94 159.60 L 35.70 159.97 L 35.47 160.35 L 35.24 160.73 L 35.01 161.11 L 34.78 161.48 L 34.53 161.84 L 34.25 162.19 L 33.96 162.53 L 33.67 162.81 L 33.36 163.11 L 33.04 163.41 L 32.68 163.69 L 32.33 163.98 L 31.99 164.26 L 31.68 164.51 L 31.35 164.79 L 31.01 165.08 L 30.67 165.39 L 30.36 165.71 L 30.07 166.04 L 29.81 166.39 L 29.55 166.76 L 29.32 167.14 L 29.11 167.52 L 28.90 167.90 L 28.69 168.28 L 28.46 168.67 L 28.22 169.04 L 27.95 169.39 L 27.67 169.74 L 27.38 170.07 L 27.08 170.39 L 26.79 170.73 L 26.52 171.08 L 26.28 171.44 L 26.06 171.81 L 25.86 172.20 L 25.68 172.60 L 25.48 172.99 L 25.30 173.34 L 25.12 173.68 L 24.93 174.02 L 24.72 174.40 L 24.53 174.79 L 24.38 175.22 L 24.35 175.63 L 24.41 175.96 L 24.51 176.30 L 24.63 176.70 L 24.68 177.15 L 24.72 177.52" fill="none" stroke="#000000" stroke-width="0.5" stroke-linejoin="round" stroke-linecap="round"/>
</svg>