<?xml version="1.0" encoding="UTF-8"?>
<svg xmlns="http://www.w3.org/2000/svg" viewBox="20.62 140.00 41.69 42.89">
<path d="M 49.00 145.00 L 49.70 145.05 L 49.79 145.39 L 49.82 145.91 L 49.84 146.55 L 49.91 147.16 L 50.00 147.76 L 50.17 148.30 L 50.45 148.74 L 50.85 149.08 L 51.27 149.44 L 51.70 149.81 L 52.21 150.09 L 52.71 150.33 L 53.22 150.52 L 53.60 150.82 L 54.13 150.89 L 54.76 150.79 L 55.40 150.69 L 56.00 150.63 L 56.52 150.69 L 56.94 150.88 L 57.20 151.22 L 57.31 151.68 L 57.26 152.23 L 57.06 152.78 L 56.75 153.27 L 56.39 153.71 L 56.02 154.03 L 55.64 154.36 L 55.24 154.78 L 54.90 155.19 L 54.62 155.67 L 54.39 156.12 L 54.14 156.52 L 53.85 156.97 L 53.55 157.39 L 53.27 157.72 L 52.94 158.03 L 52.50 158.42 L 52.04 158.80 L 51.58 159.18 L 51.16 159.58 L 50.77 159.92 L 50.39 160.26 L 49.95 160.65 L 49.50 161.03 L 49.06 161.42 L 48.67 161.83 L 48.29 162.23 L 47.88 162.64 L 47.45 163.04 L 47.02 163.43 L 46.60 163.82 L 46.19 164.20 L 45.78 164.57 L 45.36 164.95 L 44.94 165.36 L 44.54 165.78 L 44.13 166.19 L 43.71 166.60 L 43.26 166.97 L 42.82 167.33 L 42.40 167.65 L 41.97 167.89 L 41.46 168.23 L 40.99 168.56 L 40.57 168.81 L 40.12 169.17 L 39.64 169.52 L 39.17 169.84 L 38.73 170.19 L 38.29 170.54 L 37.82 170.88 L 37.34 171.22 L 36.88 171.58 L 36.46 171.89 L 36.01 172.21 L 35.51 172.55 L 34.99 172.85 L 34.49 173.11 L 34.00 173.31 L 33.49 173.50 L 33.00 173.67 L 32.55 173.85 L 32.03 174.15 L 31.53 174.48 L 31.04 174.83 L 30.58 175.17 L 30.10 175.49 L 29.61 175.80 L 29.14 176.05 L 28.66 176.29 L 28.13 176.56 L 27.60 176.84 L 27.09 177.09 L 26.58 177.33 L 26.08 177.61 L 25.62 177.89" fill="none" stroke="#000000" stroke-width="0.5" stroke-linejoin="round" stroke-linecap="round"/>
</svg>