<?xml version="1.0" encoding="UTF-8"?>
<svg xmlns="http://www.w3.org/2000/svg" viewBox="19.99 140.00 37.26 42.20">
<path d="M 49.00 145.00 L 49.79 145.83 L 50.12 146.32 L 50.58 146.85 L 51.21 147.22 L 51.77 147.54 L 52.25 147.81 L 52.20 148.66 L 52.05 149.50 L 51.82 150.33 L 51.54 151.10 L 51.25 151.83 L 50.95 152.56 L 50.64 153.28 L 50.31 154.01 L 49.91 154.71 L 49.46 155.38 L 48.93 155.98 L 48.29 156.48 L 47.56 156.92 L 46.97 156.95 L 46.62 156.44 L 46.15 155.96 L 45.59 155.46 L 44.93 155.00 L 44.24 154.58 L 43.56 154.17 L 42.87 153.76 L 42.32 153.17 L 41.82 152.56 L 41.35 151.96 L 40.88 151.37 L 40.14 151.15 L 39.23 151.18 L 38.66 150.77 L 38.21 150.22 L 37.62 149.93 L 36.87 149.93 L 36.15 150.00 L 35.43 150.31 L 34.75 150.77 L 34.22 151.29 L 33.79 151.97 L 33.48 152.72 L 33.36 153.47 L 33.38 154.20 L 33.49 154.83 L 33.86 155.08 L 34.60 154.84 L 35.44 154.49 L 36.32 154.13 L 37.09 153.90 L 37.70 153.97 L 38.23 154.27 L 38.68 154.85 L 39.06 155.58 L 39.41 156.38 L 39.87 156.98 L 40.34 157.57 L 40.75 158.24 L 41.05 159.06 L 41.50 159.67 L 41.89 160.38 L 42.19 161.18 L 42.63 161.75 L 43.09 162.15 L 43.36 162.73 L 43.38 163.58 L 43.30 164.45 L 43.10 165.24 L 42.83 165.90 L 42.44 166.49 L 41.92 167.08 L 41.36 167.58 L 40.74 167.95 L 40.04 168.27 L 39.28 168.61 L 38.54 168.90 L 37.79 169.18 L 37.02 169.50 L 36.27 169.75 L 35.52 170.00 L 34.79 170.26 L 34.06 170.53 L 33.27 170.84 L 32.47 171.16 L 31.68 171.45 L 31.03 171.69 L 30.42 171.92 L 29.80 172.14 L 29.04 172.59 L 28.36 173.03 L 27.75 173.48 L 27.20 173.98 L 26.63 174.54 L 26.11 175.15 L 25.68 175.84 L 25.32 176.53 L 24.99 177.20" fill="none" stroke="#000000" stroke-width="0.5" stroke-linejoin="round" stroke-linecap="round"/>
</svg>