<?xml version="1.0" encoding="UTF-8"?>
<svg xmlns="http://www.w3.org/2000/svg" viewBox="19.54 140.00 34.46 42.91">
<path d="M 49.00 145.00 L 48.51 145.03 L 48.20 145.19 L 47.85 145.35 L 47.44 145.60 L 47.06 145.87 L 46.72 146.15 L 46.37 146.47 L 46.04 146.81 L 45.71 147.15 L 45.40 147.49 L 45.07 147.83 L 44.76 148.18 L 44.46 148.51 L 44.19 148.84 L 43.88 149.19 L 43.56 149.54 L 43.25 149.89 L 43.05 150.14 L 42.78 150.49 L 42.51 150.87 L 42.23 151.25 L 41.98 151.63 L 41.76 152.02 L 41.55 152.43 L 41.34 152.85 L 41.14 153.26 L 40.95 153.67 L 40.75 154.10 L 40.58 154.52 L 40.43 154.94 L 40.26 155.37 L 40.09 155.80 L 39.92 156.21 L 39.72 156.64 L 39.52 157.07 L 39.31 157.50 L 39.09 157.90 L 38.87 158.28 L 38.64 158.68 L 38.39 159.08 L 38.13 159.46 L 37.86 159.84 L 37.61 160.24 L 37.38 160.64 L 37.17 161.03 L 37.01 161.35 L 36.81 161.76 L 36.63 162.19 L 36.48 162.61 L 36.33 163.04 L 36.19 163.45 L 36.06 163.85 L 35.93 164.19 L 35.75 164.61 L 35.55 165.03 L 35.33 165.45 L 35.08 165.84 L 34.79 166.21 L 34.48 166.56 L 34.19 166.90 L 33.91 167.22 L 33.62 167.53 L 33.30 167.86 L 32.97 168.20 L 32.65 168.54 L 32.34 168.89 L 32.03 169.25 L 31.70 169.56 L 31.32 169.84 L 30.90 170.11 L 30.60 170.14 L 30.30 170.14 L 30.01 170.12 L 29.69 170.12 L 29.32 170.28 L 28.97 170.58 L 28.68 170.94 L 28.49 171.33 L 28.42 171.63 L 28.37 171.95 L 28.31 172.34 L 28.21 172.80 L 28.07 173.28 L 27.91 173.70 L 27.73 174.10 L 27.53 174.49 L 27.33 174.92 L 27.08 175.32 L 26.79 175.69 L 26.50 175.99 L 26.24 176.19 L 25.93 176.41 L 25.56 176.67 L 25.22 176.89 L 24.94 177.17 L 24.71 177.52 L 24.54 177.84 L 24.58 177.91" fill="none" stroke="#000000" stroke-width="0.5" stroke-linejoin="round" stroke-linecap="round"/>
</svg>