<?xml version="1.0" encoding="UTF-8"?>
<svg xmlns="http://www.w3.org/2000/svg" viewBox="20.57 140.00 39.55 42.57">
<path d="M 49.00 145.00 L 49.55 145.78 L 49.75 146.27 L 50.19 146.59 L 50.86 146.73 L 51.55 146.84 L 52.06 147.20 L 52.76 147.30 L 53.47 147.39 L 54.11 147.57 L 54.72 147.75 L 55.06 148.16 L 55.11 148.67 L 54.97 149.17 L 54.77 149.50 L 54.73 149.43 L 54.66 149.24 L 54.07 149.58 L 53.41 149.93 L 52.75 150.30 L 52.12 150.62 L 51.44 150.89 L 50.84 150.97 L 50.32 150.81 L 49.85 150.51 L 49.25 150.47 L 48.76 150.58 L 48.50 150.67 L 48.19 151.15 L 48.29 151.29 L 48.45 151.59 L 48.58 152.13 L 48.53 152.77 L 48.33 153.31 L 47.98 153.76 L 47.87 153.62 L 47.60 153.45 L 46.99 153.52 L 46.27 153.52 L 45.66 153.58 L 45.22 153.70 L 45.12 153.63 L 45.02 153.84 L 44.99 154.19 L 44.95 154.55 L 44.93 154.91 L 44.78 155.29 L 44.63 155.45 L 44.42 155.47 L 43.78 155.77 L 43.02 155.99 L 42.26 156.19 L 41.73 156.07 L 41.16 155.93 L 40.66 155.84 L 40.17 155.86 L 39.71 156.05 L 39.22 156.50 L 38.83 157.03 L 38.54 157.62 L 38.35 158.29 L 38.15 158.96 L 37.84 159.55 L 37.48 160.01 L 37.09 160.30 L 36.82 160.37 L 36.58 160.47 L 36.34 160.57 L 35.98 160.85 L 35.67 161.30 L 35.45 161.83 L 35.31 162.51 L 35.17 163.22 L 34.98 163.88 L 34.76 164.40 L 34.42 164.95 L 34.02 165.50 L 33.64 165.98 L 33.20 166.43 L 32.74 166.92 L 32.30 167.45 L 31.91 168.03 L 31.59 168.61 L 31.29 169.20 L 31.02 169.82 L 30.73 170.46 L 30.43 171.07 L 30.12 171.65 L 29.78 172.26 L 29.45 172.87 L 29.09 173.47 L 28.73 174.02 L 28.33 174.59 L 27.92 175.14 L 27.47 175.66 L 26.99 176.16 L 26.51 176.64 L 26.06 177.07 L 25.57 177.57" fill="none" stroke="#000000" stroke-width="0.5" stroke-linejoin="round" stroke-linecap="round"/>
</svg>