<?xml version="1.0" encoding="UTF-8"?>
<svg xmlns="http://www.w3.org/2000/svg" viewBox="20.30 140.00 33.70 42.69">
<path d="M 49.00 145.00 L 48.69 145.30 L 48.39 145.61 L 48.10 145.90 L 47.81 146.18 L 47.50 146.45 L 47.17 146.74 L 46.83 147.02 L 46.51 147.28 L 46.19 147.54 L 45.86 147.80 L 45.54 148.06 L 45.22 148.32 L 44.89 148.61 L 44.59 148.92 L 44.30 149.20 L 44.02 149.51 L 43.74 149.83 L 43.48 150.13 L 43.22 150.45 L 42.94 150.78 L 42.66 151.10 L 42.40 151.41 L 42.13 151.72 L 41.84 152.03 L 41.55 152.35 L 41.30 152.66 L 41.06 153.00 L 40.81 153.33 L 40.60 153.67 L 40.37 154.03 L 40.14 154.39 L 39.93 154.71 L 39.70 155.04 L 39.47 155.39 L 39.24 155.74 L 39.00 156.09 L 38.78 156.46 L 38.56 156.83 L 38.33 157.18 L 38.08 157.52 L 37.84 157.87 L 37.61 158.20 L 37.37 158.54 L 37.12 158.88 L 36.86 159.21 L 36.62 159.56 L 36.39 159.91 L 36.16 160.24 L 35.93 160.56 L 35.69 160.90 L 35.43 161.24 L 35.18 161.58 L 34.92 161.91 L 34.68 162.23 L 34.44 162.57 L 34.20 162.92 L 33.97 163.28 L 33.77 163.66 L 33.56 164.02 L 33.35 164.36 L 33.12 164.71 L 32.91 165.07 L 32.72 165.43 L 32.51 165.80 L 32.33 166.16 L 32.17 166.53 L 32.04 166.91 L 31.89 167.32 L 31.74 167.72 L 31.59 168.10 L 31.41 168.50 L 31.24 168.86 L 31.07 169.25 L 30.90 169.65 L 30.74 170.06 L 30.60 170.45 L 30.47 170.84 L 30.34 171.22 L 30.21 171.60 L 30.06 172.01 L 29.89 172.42 L 29.71 172.81 L 29.53 173.17 L 29.33 173.54 L 29.14 173.92 L 28.94 174.30 L 28.71 174.66 L 28.46 175.00 L 28.18 175.32 L 27.90 175.62 L 27.59 175.89 L 27.26 176.15 L 26.91 176.38 L 26.56 176.62 L 26.22 176.86 L 25.89 177.12 L 25.59 177.40 L 25.30 177.69" fill="none" stroke="#000000" stroke-width="0.5" stroke-linejoin="round" stroke-linecap="round"/>
</svg>