<?xml version="1.0" encoding="UTF-8"?>
<svg xmlns="http://www.w3.org/2000/svg" viewBox="20.33 140.00 33.67 42.98">
<path d="M 49.00 145.00 L 48.70 145.40 L 48.42 145.80 L 48.14 146.21 L 47.86 146.62 L 47.59 147.04 L 47.31 147.46 L 47.02 147.86 L 46.71 148.24 L 46.36 148.60 L 46.05 148.87 L 45.75 149.06 L 45.50 149.14 L 45.19 149.25 L 44.87 149.36 L 44.59 149.42 L 44.30 149.48 L 44.01 149.55 L 43.68 149.68 L 43.36 149.82 L 43.04 149.97 L 42.74 150.12 L 42.37 150.37 L 42.01 150.62 L 41.69 150.85 L 41.35 151.14 L 40.99 151.44 L 40.63 151.75 L 40.27 152.06 L 39.92 152.35 L 39.62 152.59 L 39.30 152.87 L 38.95 153.18 L 38.59 153.53 L 38.27 153.87 L 37.96 154.22 L 37.64 154.60 L 37.31 154.98 L 36.98 155.36 L 36.69 155.72 L 36.41 156.08 L 36.11 156.48 L 35.80 156.88 L 35.50 157.28 L 35.22 157.68 L 34.95 158.10 L 34.68 158.52 L 34.42 158.95 L 34.20 159.33 L 33.97 159.71 L 33.72 160.13 L 33.47 160.57 L 33.22 161.00 L 32.96 161.43 L 32.72 161.86 L 32.49 162.29 L 32.29 162.70 L 32.09 163.12 L 31.91 163.54 L 31.77 163.93 L 31.60 164.36 L 31.44 164.79 L 31.32 165.20 L 31.19 165.61 L 31.09 166.00 L 31.09 166.27 L 31.00 166.65 L 30.90 167.04 L 30.83 167.40 L 30.69 167.84 L 30.56 168.26 L 30.48 168.62 L 30.38 169.02 L 30.28 169.41 L 30.22 169.78 L 30.15 170.15 L 30.10 170.52 L 30.04 170.89 L 30.03 171.21 L 30.03 171.52 L 29.98 171.90 L 29.96 172.22 L 29.94 172.52 L 29.81 172.93 L 29.65 173.31 L 29.47 173.68 L 29.21 174.11 L 28.92 174.52 L 28.61 174.91 L 28.28 175.28 L 27.96 175.65 L 27.65 175.98 L 27.31 176.33 L 26.96 176.68 L 26.61 177.00 L 26.26 177.30 L 25.90 177.58 L 25.58 177.81 L 25.33 177.98" fill="none" stroke="#000000" stroke-width="0.5" stroke-linejoin="round" stroke-linecap="round"/>
</svg>