<?xml version="1.0" encoding="UTF-8"?>
<svg xmlns="http://www.w3.org/2000/svg" viewBox="13.33 140.00 40.67 41.99">
<path d="M 49.00 145.00 L 48.18 145.01 L 47.38 145.59 L 46.41 146.30 L 45.52 146.75 L 44.61 147.22 L 43.71 147.65 L 42.87 147.90 L 42.09 148.05 L 41.31 148.17 L 40.43 148.40 L 39.54 148.62 L 38.66 148.85 L 37.91 148.93 L 37.09 149.10 L 36.22 149.34 L 35.31 149.68 L 34.47 149.96 L 33.62 150.28 L 32.68 150.76 L 31.74 151.25 L 30.82 151.74 L 29.91 152.25 L 29.07 152.70 L 28.19 153.24 L 27.28 153.81 L 26.32 154.50 L 25.42 155.16 L 24.61 155.74 L 23.70 156.49 L 22.80 157.25 L 21.93 158.04 L 21.11 158.86 L 20.32 159.73 L 19.59 160.72 L 18.96 161.78 L 18.51 162.81 L 18.33 163.65 L 18.58 164.05 L 19.14 164.19 L 20.03 163.97 L 20.84 163.87 L 21.66 163.76 L 22.54 163.53 L 23.33 163.41 L 24.11 163.28 L 24.98 163.04 L 25.94 162.66 L 26.88 162.30 L 27.59 162.21 L 28.42 161.96 L 29.30 161.67 L 30.31 161.24 L 31.10 161.05 L 31.86 160.89 L 32.68 160.61 L 33.61 160.20 L 34.57 159.73 L 35.53 159.26 L 36.39 158.84 L 37.18 158.50 L 37.95 158.16 L 38.96 157.47 L 39.89 156.85 L 40.77 156.25 L 41.69 155.55 L 42.61 154.88 L 43.47 154.34 L 44.47 153.68 L 45.34 153.15 L 46.03 152.78 L 46.37 152.73 L 45.99 153.53 L 45.34 154.55 L 44.63 155.46 L 43.82 156.29 L 42.96 157.08 L 42.08 157.86 L 41.21 158.64 L 40.35 159.44 L 39.51 160.25 L 38.67 161.06 L 37.81 161.94 L 36.99 162.82 L 36.22 163.68 L 35.41 164.61 L 34.57 165.53 L 33.75 166.45 L 33.00 167.32 L 32.24 168.21 L 31.44 169.15 L 30.64 170.09 L 29.87 171.05 L 29.12 172.02 L 28.36 173.00 L 27.62 173.98 L 26.91 174.99 L 26.21 176.00 L 25.53 176.99" fill="none" stroke="#000000" stroke-width="0.5" stroke-linejoin="round" stroke-linecap="round"/>
</svg>