<?xml version="1.0" encoding="UTF-8"?>
<svg xmlns="http://www.w3.org/2000/svg" viewBox="14.48 140.00 42.02 42.62">
<path d="M 49.00 145.00 L 50.22 145.54 L 50.83 145.66 L 51.10 146.45 L 51.27 147.49 L 51.28 148.60 L 51.50 149.19 L 51.32 150.04 L 50.86 150.90 L 50.23 151.68 L 49.71 151.90 L 49.54 151.32 L 49.36 150.44 L 49.08 149.45 L 48.63 148.53 L 48.00 147.85 L 47.21 147.38 L 46.38 146.92 L 45.37 146.67 L 44.34 146.46 L 43.41 146.16 L 42.53 145.86 L 41.60 145.73 L 40.79 145.76 L 40.10 146.11 L 39.52 146.77 L 39.42 147.23 L 39.79 147.50 L 40.26 148.07 L 40.88 148.75 L 41.62 149.44 L 42.47 149.95 L 43.32 150.47 L 44.15 150.97 L 44.98 151.27 L 45.80 151.52 L 46.69 151.65 L 47.91 151.31 L 48.80 151.37 L 49.33 151.79 L 49.44 152.47 L 49.35 153.16 L 49.01 153.78 L 48.37 154.40 L 47.88 154.43 L 47.15 154.39 L 46.10 154.47 L 44.99 154.50 L 43.99 154.37 L 43.22 153.91 L 42.51 153.28 L 41.82 152.57 L 41.08 151.90 L 40.30 151.28 L 39.47 150.73 L 38.64 150.23 L 37.83 149.82 L 37.02 149.58 L 36.15 149.57 L 35.15 149.92 L 34.18 150.38 L 33.28 150.89 L 32.42 151.46 L 31.60 152.02 L 30.77 152.59 L 29.93 153.16 L 29.08 153.70 L 28.23 154.26 L 27.40 154.80 L 26.60 155.31 L 25.76 155.86 L 24.92 156.44 L 24.12 157.08 L 23.49 157.72 L 22.93 158.47 L 22.44 159.35 L 22.10 160.20 L 21.88 161.09 L 21.78 162.00 L 21.70 163.00 L 21.62 164.05 L 21.54 165.07 L 21.47 166.03 L 21.39 166.96 L 21.25 167.94 L 21.08 168.94 L 20.85 169.97 L 20.60 170.96 L 20.35 171.88 L 20.06 172.82 L 19.80 173.83 L 19.61 174.89 L 19.48 175.98 L 19.65 176.78 L 20.12 177.31 L 21.03 177.40 L 22.01 177.54 L 22.91 177.62 L 23.70 177.62" fill="none" stroke="#000000" stroke-width="0.5" stroke-linejoin="round" stroke-linecap="round"/>
</svg>