<?xml version="1.0" encoding="UTF-8"?>
<svg xmlns="http://www.w3.org/2000/svg" viewBox="17.85 140.00 36.15 42.21">
<path d="M 49.00 145.00 L 48.21 145.56 L 47.57 146.22 L 46.91 146.86 L 46.21 147.49 L 45.49 148.12 L 44.72 148.68 L 43.89 149.19 L 42.98 149.63 L 42.20 149.68 L 41.39 149.61 L 40.52 149.45 L 39.70 149.09 L 38.93 148.64 L 38.22 148.09 L 37.27 147.88 L 36.37 147.62 L 35.55 147.27 L 34.60 147.13 L 33.68 147.01 L 32.83 146.88 L 32.10 146.94 L 31.42 147.26 L 30.81 147.84 L 30.45 148.45 L 30.96 148.24 L 31.78 147.97 L 32.73 147.86 L 33.64 147.89 L 34.48 148.09 L 35.28 148.43 L 36.22 148.63 L 37.13 148.89 L 37.98 149.27 L 38.82 149.64 L 39.68 150.02 L 40.54 150.40 L 41.29 150.71 L 41.84 150.92 L 42.07 151.13 L 41.71 151.71 L 41.19 152.07 L 40.59 152.11 L 40.00 151.68 L 39.22 151.30 L 38.28 151.10 L 37.43 150.78 L 36.59 150.51 L 35.69 150.46 L 34.90 150.38 L 34.10 150.45 L 33.28 150.97 L 32.63 151.54 L 32.15 152.17 L 32.11 152.55 L 32.83 152.12 L 33.71 151.76 L 34.63 151.64 L 35.48 151.61 L 36.39 151.66 L 37.33 151.77 L 38.15 152.12 L 38.89 152.42 L 39.47 152.63 L 39.70 153.12 L 39.67 153.74 L 39.36 154.50 L 38.84 155.28 L 38.20 155.98 L 37.53 156.65 L 36.91 157.32 L 36.26 157.99 L 35.60 158.67 L 34.96 159.33 L 34.34 160.00 L 33.72 160.72 L 33.09 161.42 L 32.46 162.12 L 31.84 162.83 L 31.23 163.53 L 30.63 164.21 L 30.02 164.92 L 29.40 165.63 L 28.79 166.35 L 28.21 167.08 L 27.59 167.80 L 26.96 168.50 L 26.30 169.17 L 25.67 169.82 L 25.05 170.49 L 24.45 171.18 L 23.87 171.92 L 23.40 172.73 L 23.06 173.62 L 22.85 174.60 L 22.94 175.40 L 23.21 176.15 L 23.56 176.73 L 23.96 177.21" fill="none" stroke="#000000" stroke-width="0.5" stroke-linejoin="round" stroke-linecap="round"/>
</svg>