<?xml version="1.0" encoding="UTF-8"?>
<svg xmlns="http://www.w3.org/2000/svg" viewBox="20.24 140.00 34.20 42.60">
<path d="M 49.00 145.00 L 49.29 145.49 L 49.33 145.84 L 49.36 146.28 L 49.41 146.74 L 49.44 147.19 L 49.43 147.65 L 49.40 148.12 L 49.34 148.58 L 49.27 149.01 L 49.18 149.45 L 49.08 149.92 L 48.96 150.38 L 48.85 150.82 L 48.76 151.23 L 48.64 151.69 L 48.52 152.11 L 48.40 152.52 L 48.24 152.95 L 48.07 153.39 L 47.89 153.81 L 47.69 154.22 L 47.49 154.62 L 47.29 155.03 L 47.10 155.46 L 46.91 155.86 L 46.71 156.26 L 46.51 156.67 L 46.32 157.10 L 46.13 157.51 L 45.93 157.91 L 45.73 158.31 L 45.51 158.72 L 45.28 159.11 L 45.04 159.48 L 44.76 159.83 L 44.48 160.19 L 44.18 160.54 L 43.87 160.87 L 43.54 161.19 L 43.20 161.51 L 42.85 161.81 L 42.50 162.10 L 42.17 162.35 L 41.78 162.61 L 41.36 162.86 L 40.95 163.06 L 40.54 163.26 L 40.15 163.39 L 39.76 163.49 L 39.29 163.64 L 38.83 163.80 L 38.41 163.90 L 37.98 163.98 L 37.49 164.12 L 37.08 164.17 L 36.82 164.14 L 36.55 164.24 L 36.26 164.49 L 35.97 164.83 L 35.79 165.16 L 35.64 165.59 L 35.52 166.05 L 35.40 166.51 L 35.27 166.90 L 35.13 167.31 L 34.97 167.74 L 34.80 168.18 L 34.61 168.60 L 34.41 169.00 L 34.19 169.39 L 33.97 169.79 L 33.74 170.19 L 33.49 170.57 L 33.21 170.94 L 32.92 171.30 L 32.62 171.65 L 32.32 171.98 L 32.00 172.30 L 31.66 172.62 L 31.29 172.91 L 30.91 173.19 L 30.54 173.43 L 30.16 173.65 L 29.76 173.86 L 29.35 174.05 L 28.92 174.24 L 28.48 174.42 L 28.04 174.59 L 27.64 174.73 L 27.28 174.85 L 26.93 175.07 L 26.61 175.35 L 26.31 175.70 L 26.09 176.01 L 25.88 176.39 L 25.68 176.79 L 25.47 177.21 L 25.24 177.60" fill="none" stroke="#000000" stroke-width="0.5" stroke-linejoin="round" stroke-linecap="round"/>
</svg>