<?xml version="1.0" encoding="UTF-8"?>
<svg xmlns="http://www.w3.org/2000/svg" viewBox="20.41 140.00 33.59 42.66">
<path d="M 49.00 145.00 L 48.56 145.32 L 48.16 145.72 L 47.71 146.11 L 47.35 146.29 L 47.48 145.74 L 47.47 145.33 L 47.26 145.13 L 46.88 145.17 L 46.50 145.20 L 46.03 145.43 L 45.61 145.71 L 45.26 145.95 L 44.88 146.29 L 44.49 146.69 L 44.13 147.13 L 43.86 147.57 L 43.55 148.06 L 43.29 148.53 L 43.05 149.00 L 42.86 149.51 L 42.69 150.03 L 42.51 150.55 L 42.33 151.06 L 42.12 151.56 L 41.87 152.06 L 41.60 152.56 L 41.30 153.06 L 40.98 153.54 L 40.65 154.02 L 40.31 154.49 L 40.01 154.99 L 39.74 155.51 L 39.54 156.03 L 39.46 156.49 L 39.46 156.89 L 39.56 157.21 L 39.82 157.40 L 40.23 157.39 L 40.78 157.22 L 41.16 157.28 L 41.51 157.38 L 41.80 157.57 L 42.22 157.65 L 42.61 157.77 L 42.90 157.99 L 43.16 158.18 L 43.39 158.36 L 43.37 158.81 L 43.23 159.36 L 43.05 159.92 L 42.85 160.47 L 42.67 160.99 L 42.55 161.41 L 42.41 161.91 L 42.26 162.45 L 42.13 163.00 L 42.03 163.44 L 41.86 163.88 L 41.60 164.34 L 41.25 164.80 L 40.88 165.18 L 40.56 165.40 L 40.22 165.55 L 39.73 165.83 L 39.23 166.11 L 38.79 166.35 L 38.38 166.56 L 37.91 166.84 L 37.42 167.12 L 36.96 167.39 L 36.55 167.60 L 36.11 167.86 L 35.64 168.16 L 35.18 168.47 L 34.73 168.78 L 34.28 169.09 L 33.85 169.42 L 33.41 169.74 L 32.96 170.09 L 32.50 170.43 L 32.08 170.76 L 31.66 171.10 L 31.25 171.46 L 30.83 171.83 L 30.40 172.23 L 30.01 172.64 L 29.62 173.03 L 29.22 173.45 L 28.82 173.88 L 28.45 174.26 L 28.07 174.66 L 27.67 175.09 L 27.29 175.50 L 26.93 175.92 L 26.55 176.36 L 26.15 176.79 L 25.77 177.23 L 25.41 177.66" fill="none" stroke="#000000" stroke-width="0.5" stroke-linejoin="round" stroke-linecap="round"/>
</svg>