<?xml version="1.0" encoding="UTF-8"?>
<svg xmlns="http://www.w3.org/2000/svg" viewBox="21.16 140.00 34.54 42.47">
<path d="M 49.00 145.00 L 48.75 146.23 L 48.30 147.30 L 47.89 148.41 L 47.83 149.11 L 47.73 149.89 L 47.41 150.97 L 47.21 151.89 L 47.17 152.60 L 47.13 153.30 L 47.09 154.01 L 47.05 154.72 L 47.01 155.43 L 46.97 156.15 L 47.13 156.58 L 47.45 156.80 L 48.05 156.63 L 48.71 156.36 L 49.52 155.87 L 50.70 154.80 L 50.64 155.29 L 49.88 156.58 L 48.38 158.70 L 47.00 160.49 L 45.93 161.66 L 45.14 162.36 L 44.91 162.32 L 44.14 163.17 L 43.15 164.49 L 41.94 166.28 L 41.41 167.33 L 41.14 168.21 L 41.08 168.91 L 41.02 169.61 L 40.96 170.30 L 40.54 171.35 L 39.76 172.72 L 38.55 174.50 L 37.01 176.54 L 36.25 177.33 L 35.84 177.47 L 35.93 176.79 L 36.08 175.97 L 36.40 174.91 L 36.98 173.53 L 37.68 172.00 L 38.08 170.89 L 38.91 169.18 L 39.77 167.43 L 40.16 166.31 L 40.55 165.19 L 40.93 164.06 L 41.30 162.92 L 41.44 162.09 L 41.48 161.39 L 41.53 160.68 L 41.57 159.97 L 41.61 159.26 L 41.64 158.55 L 41.74 157.88 L 41.81 157.41 L 41.73 157.31 L 40.59 158.87 L 39.67 160.31 L 39.17 161.35 L 38.75 162.46 L 38.40 163.55 L 38.08 164.61 L 37.71 165.72 L 37.31 166.84 L 36.87 167.92 L 36.06 169.31 L 34.80 171.14 L 33.30 173.13 L 32.75 173.63 L 32.78 173.16 L 32.90 172.45 L 33.27 171.32 L 33.64 170.18 L 34.04 169.03 L 34.70 167.54 L 35.23 166.22 L 35.62 165.10 L 36.38 163.47 L 36.91 162.15 L 37.29 161.02 L 37.69 159.91 L 38.09 158.86 L 38.53 157.88 L 37.27 159.38 L 35.68 161.50 L 34.21 163.58 L 33.05 165.40 L 31.82 167.42 L 30.67 169.40 L 29.58 171.28 L 28.48 173.02 L 27.30 174.83 L 26.16 176.51" fill="none" stroke="#000000" stroke-width="0.5" stroke-linejoin="round" stroke-linecap="round"/>
</svg>