<?xml version="1.0" encoding="UTF-8"?>
<svg xmlns="http://www.w3.org/2000/svg" viewBox="20.23 140.00 37.73 42.55">
<path d="M 49.00 145.00 L 49.40 145.56 L 49.54 145.93 L 49.74 146.34 L 50.02 146.76 L 50.34 147.13 L 50.67 147.48 L 50.97 147.87 L 51.24 148.30 L 51.49 148.75 L 51.73 149.19 L 51.95 149.62 L 52.18 150.06 L 52.32 150.56 L 52.44 151.04 L 52.62 151.43 L 52.69 151.94 L 52.72 152.51 L 52.79 152.99 L 52.83 153.46 L 52.88 153.92 L 52.92 154.44 L 52.91 154.99 L 52.94 155.46 L 52.96 155.91 L 52.92 156.40 L 52.84 156.89 L 52.73 157.37 L 52.58 157.85 L 52.40 158.34 L 52.23 158.80 L 52.05 159.28 L 51.87 159.75 L 51.67 160.20 L 51.47 160.60 L 51.23 161.00 L 50.95 161.39 L 50.63 161.77 L 50.27 162.12 L 49.90 162.44 L 49.53 162.79 L 49.16 163.13 L 48.79 163.46 L 48.40 163.80 L 48.00 164.11 L 47.60 164.39 L 47.20 164.66 L 46.77 164.91 L 46.33 165.16 L 45.89 165.40 L 45.44 165.63 L 44.97 165.85 L 44.50 166.07 L 44.07 166.25 L 43.64 166.40 L 43.16 166.61 L 42.67 166.81 L 42.19 167.00 L 41.74 167.18 L 41.30 167.31 L 40.82 167.50 L 40.33 167.69 L 39.90 167.82 L 39.45 168.02 L 38.99 168.24 L 38.51 168.45 L 38.03 168.67 L 37.56 168.89 L 37.13 169.04 L 36.69 169.18 L 36.20 169.35 L 35.70 169.54 L 35.27 169.67 L 34.83 169.85 L 34.37 170.06 L 33.90 170.29 L 33.45 170.54 L 33.00 170.78 L 32.57 171.02 L 32.13 171.27 L 31.69 171.51 L 31.26 171.76 L 30.83 172.01 L 30.38 172.27 L 29.95 172.53 L 29.56 172.81 L 29.17 173.09 L 28.77 173.39 L 28.37 173.72 L 28.00 174.04 L 27.64 174.39 L 27.29 174.75 L 26.95 175.10 L 26.62 175.48 L 26.31 175.88 L 26.02 176.29 L 25.75 176.72 L 25.49 177.13 L 25.23 177.55" fill="none" stroke="#000000" stroke-width="0.5" stroke-linejoin="round" stroke-linecap="round"/>
</svg>