<?xml version="1.0" encoding="UTF-8"?>
<svg xmlns="http://www.w3.org/2000/svg" viewBox="20.51 140.00 33.49 42.96">
<path d="M 49.00 145.00 L 48.66 145.37 L 48.37 145.77 L 48.10 146.18 L 47.82 146.59 L 47.57 146.98 L 47.35 147.39 L 47.13 147.85 L 46.95 148.28 L 46.77 148.72 L 46.59 149.15 L 46.43 149.60 L 46.27 150.05 L 46.10 150.50 L 45.94 150.95 L 45.74 151.37 L 45.50 151.76 L 45.23 152.13 L 45.10 152.23 L 45.23 151.88 L 45.38 151.42 L 45.49 150.99 L 45.48 150.78 L 45.17 151.04 L 44.81 151.40 L 44.48 151.77 L 44.18 152.17 L 43.90 152.59 L 43.64 153.01 L 43.39 153.44 L 43.13 153.87 L 42.91 154.29 L 42.70 154.71 L 42.48 155.17 L 42.28 155.61 L 42.08 156.03 L 41.89 156.45 L 41.68 156.91 L 41.49 157.37 L 41.30 157.80 L 41.10 158.22 L 40.89 158.64 L 40.66 159.08 L 40.41 159.51 L 40.15 159.94 L 39.88 160.36 L 39.60 160.77 L 39.30 161.17 L 39.00 161.56 L 38.71 161.95 L 38.43 162.33 L 38.14 162.73 L 37.84 163.12 L 37.54 163.53 L 37.27 163.94 L 36.99 164.36 L 36.71 164.77 L 36.43 165.18 L 36.15 165.60 L 35.88 166.01 L 35.60 166.43 L 35.34 166.85 L 35.08 167.28 L 34.83 167.72 L 34.60 168.12 L 34.37 168.54 L 34.13 168.98 L 33.90 169.43 L 33.67 169.86 L 33.46 170.27 L 33.24 170.72 L 33.03 171.17 L 32.85 171.61 L 32.67 172.04 L 32.50 172.49 L 32.34 172.94 L 32.18 173.39 L 32.02 173.84 L 31.86 174.28 L 31.70 174.73 L 31.53 175.18 L 31.35 175.62 L 31.14 176.03 L 30.88 176.41 L 30.59 176.74 L 30.27 177.03 L 29.92 177.26 L 29.55 177.42 L 29.16 177.55 L 28.75 177.67 L 28.37 177.72 L 28.03 177.71 L 27.68 177.71 L 27.32 177.70 L 26.89 177.80 L 26.50 177.84 L 26.15 177.84 L 25.84 177.86 L 25.51 177.96" fill="none" stroke="#000000" stroke-width="0.5" stroke-linejoin="round" stroke-linecap="round"/>
</svg>