<?xml version="1.0" encoding="UTF-8"?>
<svg xmlns="http://www.w3.org/2000/svg" viewBox="20.48 140.00 33.52 42.34">
<path d="M 49.00 145.00 L 48.88 145.01 L 48.78 145.08 L 48.63 145.19 L 48.54 145.22 L 48.41 145.29 L 48.27 145.38 L 48.17 145.41 L 47.96 145.61 L 47.66 145.91 L 47.50 146.03 L 47.34 146.15 L 47.18 146.28 L 46.95 146.50 L 46.65 146.81 L 46.49 146.94 L 46.28 147.13 L 46.07 147.33 L 45.91 147.47 L 45.55 147.90 L 45.11 148.45 L 44.61 149.08 L 44.13 149.71 L 43.64 150.35 L 43.15 150.99 L 42.68 151.61 L 42.23 152.19 L 41.79 152.78 L 41.31 153.42 L 40.82 154.07 L 40.33 154.72 L 39.85 155.37 L 39.37 156.01 L 38.89 156.65 L 38.41 157.30 L 37.94 157.94 L 37.46 158.60 L 36.98 159.26 L 36.52 159.92 L 36.10 160.53 L 35.81 160.98 L 36.25 160.43 L 36.67 159.91 L 37.01 159.50 L 37.11 159.41 L 36.66 160.09 L 36.23 160.74 L 35.85 161.33 L 35.56 161.79 L 35.29 162.24 L 35.12 162.56 L 35.06 162.74 L 34.86 163.10 L 34.69 163.43 L 34.63 163.62 L 34.47 163.92 L 34.27 164.31 L 34.35 164.30 L 34.46 164.24 L 34.63 164.11 L 34.93 163.79 L 35.15 163.58 L 35.37 163.38 L 35.67 163.06 L 35.84 162.92 L 36.10 162.66 L 36.38 162.38 L 36.54 162.26 L 36.63 162.23 L 36.73 162.20 L 36.82 162.17 L 36.82 162.28 L 36.74 162.48 L 36.53 162.85 L 36.28 163.24 L 35.96 163.72 L 35.49 164.37 L 35.02 165.01 L 34.63 165.51 L 34.20 166.05 L 33.77 166.59 L 33.37 167.08 L 32.94 167.63 L 32.48 168.21 L 31.98 168.84 L 31.53 169.41 L 31.10 169.96 L 30.71 170.46 L 30.23 171.07 L 29.75 171.69 L 29.32 172.24 L 28.86 172.84 L 28.37 173.48 L 27.89 174.12 L 27.40 174.76 L 26.92 175.40 L 26.44 176.04 L 25.97 176.69 L 25.48 177.34" fill="none" stroke="#000000" stroke-width="0.5" stroke-linejoin="round" stroke-linecap="round"/>
</svg>