<?xml version="1.0" encoding="UTF-8"?>
<svg xmlns="http://www.w3.org/2000/svg" viewBox="19.13 140.00 34.91 42.77">
<path d="M 49.00 145.00 L 49.04 145.48 L 48.89 145.89 L 48.73 146.34 L 48.58 146.81 L 48.40 147.26 L 48.22 147.70 L 48.03 148.14 L 47.85 148.58 L 47.66 149.02 L 47.48 149.46 L 47.29 149.90 L 47.11 150.34 L 46.92 150.78 L 46.74 151.22 L 46.55 151.66 L 46.37 152.10 L 46.18 152.54 L 45.96 152.96 L 45.74 153.37 L 45.52 153.78 L 45.28 154.18 L 45.01 154.57 L 44.75 154.95 L 44.48 155.33 L 44.21 155.70 L 43.95 156.09 L 43.66 156.46 L 43.37 156.82 L 43.07 157.18 L 42.77 157.53 L 42.47 157.89 L 42.17 158.25 L 41.84 158.59 L 41.52 158.92 L 41.19 159.26 L 40.86 159.59 L 40.52 159.92 L 40.19 160.26 L 39.87 160.60 L 39.54 160.93 L 39.21 161.27 L 38.88 161.60 L 38.55 161.94 L 38.21 162.27 L 37.83 162.56 L 37.43 162.85 L 37.03 163.12 L 36.65 163.35 L 36.28 163.58 L 35.89 163.82 L 35.49 164.10 L 35.10 164.39 L 34.72 164.69 L 34.34 164.99 L 33.94 165.27 L 33.54 165.54 L 33.16 165.77 L 32.77 165.99 L 32.35 166.21 L 31.92 166.47 L 31.51 166.69 L 31.10 166.89 L 30.67 167.15 L 30.26 167.34 L 29.88 167.44 L 29.41 167.66 L 28.95 167.82 L 28.53 167.89 L 28.13 167.98 L 27.69 168.09 L 27.22 168.25 L 26.75 168.41 L 26.31 168.59 L 25.90 168.80 L 25.50 169.01 L 25.11 169.28 L 24.76 169.59 L 24.47 169.96 L 24.26 170.38 L 24.14 170.83 L 24.13 171.28 L 24.30 171.61 L 24.55 171.93 L 24.84 172.28 L 25.15 172.64 L 25.45 172.99 L 25.74 173.34 L 26.10 173.54 L 26.37 173.82 L 26.42 174.31 L 26.45 174.78 L 26.43 175.27 L 26.34 175.77 L 26.27 176.18 L 26.12 176.59 L 25.90 177.00 L 25.65 177.40 L 25.38 177.77" fill="none" stroke="#000000" stroke-width="0.5" stroke-linejoin="round" stroke-linecap="round"/>
</svg>