<?xml version="1.0" encoding="UTF-8"?>
<svg xmlns="http://www.w3.org/2000/svg" viewBox="13.82 140.00 40.18 42.74">
<path d="M 49.00 145.00 L 48.63 145.62 L 48.20 146.19 L 47.74 146.75 L 47.25 147.28 L 46.73 147.76 L 46.19 148.18 L 45.59 148.56 L 44.95 148.88 L 44.32 149.12 L 43.72 149.23 L 43.13 149.27 L 42.51 149.29 L 41.94 149.20 L 41.36 149.14 L 40.75 149.17 L 40.09 149.25 L 39.43 149.35 L 38.73 149.50 L 38.07 149.58 L 37.43 149.61 L 36.87 149.51 L 36.34 149.32 L 35.80 149.12 L 35.20 149.00 L 34.60 148.88 L 34.01 148.77 L 33.38 148.74 L 32.75 148.72 L 32.12 148.73 L 31.50 148.75 L 30.88 148.81 L 30.27 148.92 L 29.67 149.11 L 29.07 149.40 L 28.47 149.78 L 27.90 150.21 L 27.36 150.69 L 26.86 151.22 L 26.40 151.77 L 25.98 152.35 L 25.58 152.94 L 25.22 153.55 L 24.91 154.20 L 24.62 154.87 L 24.37 155.52 L 24.16 156.13 L 23.93 156.80 L 23.71 157.48 L 23.47 158.15 L 23.21 158.79 L 22.93 159.43 L 22.58 160.07 L 22.22 160.69 L 21.84 161.29 L 21.44 161.88 L 21.05 162.49 L 20.68 163.11 L 20.33 163.74 L 20.04 164.38 L 19.77 165.02 L 19.52 165.68 L 19.30 166.36 L 19.11 167.05 L 18.94 167.77 L 18.82 168.44 L 18.83 169.01 L 18.84 169.67 L 18.85 170.37 L 18.89 171.01 L 19.05 171.33 L 19.39 171.23 L 19.82 170.82 L 20.22 170.27 L 20.53 169.77 L 20.84 169.30 L 21.22 168.81 L 21.50 168.66 L 21.70 168.80 L 21.84 169.27 L 22.07 169.81 L 22.34 170.38 L 22.59 170.93 L 22.81 171.46 L 22.96 171.94 L 22.93 172.47 L 22.72 173.08 L 22.42 173.72 L 22.17 174.24 L 21.87 174.82 L 21.57 175.46 L 21.38 176.09 L 21.38 176.68 L 21.56 177.19 L 22.03 177.39 L 22.60 177.51 L 23.20 177.63 L 23.74 177.71 L 24.21 177.74" fill="none" stroke="#000000" stroke-width="0.5" stroke-linejoin="round" stroke-linecap="round"/>
</svg>