<?xml version="1.0" encoding="UTF-8"?>
<svg xmlns="http://www.w3.org/2000/svg" viewBox="20.18 140.00 33.82 42.60">
<path d="M 49.00 145.00 L 48.71 145.32 L 48.45 145.66 L 48.20 146.01 L 47.95 146.36 L 47.71 146.69 L 47.47 147.02 L 47.22 147.38 L 47.00 147.74 L 46.77 148.10 L 46.53 148.46 L 46.31 148.79 L 46.09 149.16 L 45.88 149.53 L 45.64 149.89 L 45.39 150.22 L 45.13 150.52 L 44.85 150.81 L 44.55 151.10 L 44.22 151.39 L 43.89 151.64 L 43.58 151.90 L 43.25 152.17 L 42.89 152.44 L 42.55 152.72 L 42.24 152.95 L 41.95 153.16 L 41.58 153.42 L 41.23 153.67 L 40.90 153.91 L 40.57 154.17 L 40.22 154.44 L 39.88 154.70 L 39.54 154.94 L 39.19 155.21 L 38.87 155.45 L 38.58 155.65 L 38.23 155.92 L 37.86 156.18 L 37.53 156.44 L 37.27 156.65 L 36.95 156.92 L 36.60 157.20 L 36.25 157.48 L 35.96 157.76 L 35.67 158.04 L 35.36 158.35 L 35.05 158.65 L 34.76 158.97 L 34.48 159.30 L 34.20 159.62 L 33.93 159.96 L 33.68 160.31 L 33.43 160.66 L 33.19 160.99 L 32.95 161.32 L 32.70 161.67 L 32.47 162.04 L 32.25 162.41 L 32.02 162.76 L 31.82 163.11 L 31.62 163.47 L 31.41 163.85 L 31.24 164.22 L 31.06 164.60 L 30.85 164.98 L 30.66 165.33 L 30.45 165.69 L 30.25 166.07 L 30.03 166.44 L 29.82 166.80 L 29.62 167.16 L 29.42 167.54 L 29.23 167.91 L 29.06 168.28 L 28.88 168.67 L 28.73 169.07 L 28.56 169.44 L 28.39 169.81 L 28.24 170.21 L 28.08 170.63 L 27.93 171.01 L 27.76 171.38 L 27.60 171.76 L 27.44 172.16 L 27.25 172.55 L 27.09 172.92 L 26.91 173.30 L 26.74 173.71 L 26.60 174.10 L 26.45 174.49 L 26.29 174.86 L 26.16 175.26 L 26.01 175.67 L 25.86 176.08 L 25.71 176.46 L 25.54 176.84 L 25.37 177.20 L 25.18 177.60" fill="none" stroke="#000000" stroke-width="0.5" stroke-linejoin="round" stroke-linecap="round"/>
</svg>