<?xml version="1.0" encoding="UTF-8"?>
<svg xmlns="http://www.w3.org/2000/svg" viewBox="20.49 140.00 34.32 42.96">
<path d="M 49.00 145.00 L 48.86 145.54 L 48.61 146.03 L 48.36 146.55 L 48.09 147.11 L 47.84 147.63 L 47.59 148.16 L 47.34 148.71 L 47.12 149.24 L 46.92 149.75 L 46.74 150.27 L 46.55 150.83 L 46.41 151.36 L 46.31 151.86 L 46.26 152.31 L 46.23 152.76 L 46.20 153.23 L 46.19 153.70 L 46.18 154.18 L 46.17 154.66 L 46.26 155.01 L 46.33 155.41 L 46.34 155.90 L 46.53 156.17 L 46.74 156.41 L 46.86 156.78 L 47.02 157.12 L 47.25 157.37 L 47.54 157.52 L 47.74 157.82 L 48.02 158.00 L 48.32 158.15 L 48.62 158.30 L 48.81 158.61 L 49.09 158.78 L 49.34 158.99 L 49.50 159.32 L 49.62 159.68 L 49.74 160.04 L 49.82 160.40 L 49.79 160.86 L 49.72 161.30 L 49.56 161.80 L 49.31 162.34 L 49.00 162.87 L 48.65 163.37 L 48.27 163.83 L 47.88 164.27 L 47.47 164.68 L 47.05 165.07 L 46.62 165.46 L 46.17 165.84 L 45.72 166.22 L 45.28 166.58 L 44.89 166.88 L 44.45 167.22 L 43.98 167.59 L 43.52 167.95 L 43.09 168.29 L 42.68 168.57 L 42.21 168.93 L 41.77 169.26 L 41.35 169.54 L 40.88 169.89 L 40.41 170.22 L 39.99 170.49 L 39.57 170.77 L 39.14 171.04 L 38.66 171.37 L 38.18 171.70 L 37.75 171.97 L 37.34 172.25 L 36.91 172.52 L 36.44 172.84 L 35.95 173.18 L 35.52 173.44 L 35.08 173.71 L 34.64 173.97 L 34.19 174.22 L 33.74 174.48 L 33.29 174.73 L 32.83 174.98 L 32.36 175.22 L 31.90 175.46 L 31.53 175.58 L 31.11 175.76 L 30.64 176.00 L 30.16 176.23 L 29.68 176.46 L 29.28 176.58 L 28.89 176.70 L 28.49 176.80 L 28.02 177.00 L 27.54 177.18 L 27.14 177.29 L 26.75 177.40 L 26.34 177.52 L 25.87 177.76 L 25.49 177.96" fill="none" stroke="#000000" stroke-width="0.5" stroke-linejoin="round" stroke-linecap="round"/>
</svg>