<?xml version="1.0" encoding="UTF-8"?>
<svg xmlns="http://www.w3.org/2000/svg" viewBox="20.63 140.00 35.11 42.20">
<path d="M 49.00 145.00 L 48.68 145.02 L 48.46 145.10 L 48.23 145.18 L 47.97 145.24 L 47.71 145.30 L 47.45 145.36 L 47.27 145.31 L 47.13 145.21 L 46.87 145.26 L 46.70 145.20 L 46.56 145.11 L 46.31 145.18 L 45.99 145.39 L 45.63 145.72 L 45.08 146.41 L 44.50 147.22 L 44.17 147.76 L 44.10 148.03 L 44.21 148.11 L 44.45 148.06 L 44.83 147.84 L 45.00 147.90 L 45.16 147.96 L 45.42 147.90 L 45.68 147.85 L 45.93 147.79 L 46.07 147.90 L 46.26 147.94 L 46.50 147.90 L 46.64 148.01 L 46.84 148.04 L 47.07 148.01 L 47.20 148.12 L 47.48 148.03 L 47.85 147.81 L 48.00 147.91 L 48.18 147.96 L 48.42 147.91 L 48.56 148.01 L 48.80 147.98 L 49.17 147.76 L 49.36 147.80 L 49.51 147.88 L 49.77 147.82 L 49.92 147.91 L 50.09 147.97 L 50.35 147.91 L 50.33 148.24 L 50.39 148.45 L 50.53 148.56 L 50.66 148.66 L 50.74 148.83 L 50.69 149.14 L 50.46 149.66 L 50.06 150.35 L 49.53 151.16 L 48.94 151.99 L 48.33 152.79 L 47.71 153.56 L 47.11 154.26 L 46.53 154.91 L 45.94 155.57 L 45.34 156.21 L 44.75 156.86 L 44.14 157.50 L 43.58 158.09 L 43.11 158.54 L 42.52 159.15 L 41.96 159.72 L 41.45 160.22 L 40.88 160.81 L 40.31 161.39 L 39.83 161.84 L 39.24 162.45 L 38.64 163.07 L 38.22 163.41 L 37.71 163.91 L 37.20 164.40 L 36.72 164.84 L 36.13 165.42 L 35.55 166.00 L 35.03 166.49 L 34.58 166.91 L 34.12 167.33 L 33.60 167.83 L 33.03 168.42 L 32.44 169.07 L 31.85 169.72 L 31.22 170.43 L 30.57 171.19 L 29.99 171.85 L 29.37 172.58 L 28.73 173.34 L 28.15 174.03 L 27.55 174.76 L 26.92 175.55 L 26.26 176.38 L 25.63 177.20" fill="none" stroke="#000000" stroke-width="0.5" stroke-linejoin="round" stroke-linecap="round"/>
</svg>