<?xml version="1.0" encoding="UTF-8"?>
<svg xmlns="http://www.w3.org/2000/svg" viewBox="20.63 140.00 34.44 42.25">
<path d="M 49.00 145.00 L 49.23 145.84 L 49.37 146.23 L 49.58 146.64 L 49.84 147.08 L 50.01 147.63 L 50.05 148.33 L 50.08 149.02 L 49.89 149.80 L 49.55 150.57 L 49.25 151.04 L 48.97 151.26 L 48.67 151.29 L 48.42 151.05 L 48.15 150.60 L 47.84 150.19 L 47.44 149.89 L 46.85 149.85 L 46.44 149.57 L 46.15 149.11 L 45.80 148.77 L 45.49 148.37 L 45.21 147.91 L 45.11 147.23 L 44.97 146.59 L 44.60 146.26 L 44.32 145.81 L 44.02 145.39 L 43.64 145.07 L 43.07 145.03 L 42.52 145.02 L 41.99 145.02 L 41.33 145.29 L 40.53 145.79 L 39.70 146.40 L 38.92 147.05 L 38.18 147.73 L 37.49 148.44 L 36.79 149.27 L 36.16 150.20 L 35.64 151.14 L 35.30 152.01 L 35.23 152.62 L 35.41 152.99 L 35.93 152.98 L 36.69 152.66 L 37.47 152.31 L 38.20 152.06 L 38.93 151.80 L 39.53 151.72 L 40.05 151.79 L 40.32 152.24 L 40.51 152.79 L 40.63 153.43 L 40.89 153.87 L 41.04 154.46 L 41.10 155.17 L 41.16 155.89 L 41.29 156.49 L 41.62 156.81 L 41.67 157.52 L 41.73 158.23 L 41.79 158.94 L 41.99 159.45 L 42.26 159.90 L 42.33 160.62 L 42.49 161.02 L 42.57 161.31 L 42.63 161.41 L 42.25 161.87 L 41.74 162.28 L 41.20 162.49 L 40.65 162.47 L 40.27 162.17 L 39.76 162.05 L 39.23 161.96 L 38.98 161.52 L 38.54 161.39 L 37.83 161.68 L 37.07 162.07 L 36.28 162.56 L 35.44 163.16 L 34.82 163.58 L 34.18 164.15 L 33.51 164.88 L 32.85 165.72 L 32.23 166.61 L 31.64 167.51 L 31.15 168.33 L 30.60 169.21 L 30.00 170.13 L 29.40 171.08 L 28.79 172.02 L 28.19 172.96 L 27.70 173.84 L 27.22 174.71 L 26.65 175.63 L 26.16 176.44 L 25.63 177.25" fill="none" stroke="#000000" stroke-width="0.5" stroke-linejoin="round" stroke-linecap="round"/>
</svg>