<?xml version="1.0" encoding="UTF-8"?>
<svg xmlns="http://www.w3.org/2000/svg" viewBox="14.02 140.00 39.98 42.96">
<path d="M 49.00 145.00 L 48.30 145.35 L 47.87 145.66 L 47.50 145.88 L 46.92 146.32 L 46.32 146.74 L 45.75 147.16 L 45.25 147.60 L 44.73 148.01 L 44.19 148.46 L 43.64 148.90 L 43.11 149.31 L 42.53 149.74 L 41.96 150.14 L 41.41 150.51 L 40.96 150.83 L 40.42 151.26 L 39.88 151.71 L 39.36 152.19 L 38.89 152.71 L 38.43 153.22 L 37.94 153.72 L 37.44 154.22 L 36.99 154.72 L 36.59 155.22 L 36.18 155.76 L 35.79 156.32 L 35.43 156.90 L 35.08 157.50 L 34.75 158.10 L 34.40 158.71 L 34.04 159.31 L 33.62 159.85 L 33.13 160.34 L 32.56 160.79 L 32.38 160.60 L 32.39 160.05 L 32.31 159.47 L 32.21 158.79 L 32.14 158.02 L 32.00 157.33 L 31.82 156.66 L 31.66 156.02 L 31.25 155.66 L 30.71 155.49 L 29.92 155.71 L 29.40 155.55 L 28.75 155.60 L 28.07 155.81 L 27.56 155.78 L 27.18 155.57 L 26.46 155.90 L 25.83 156.11 L 25.38 156.15 L 24.77 156.50 L 24.20 156.88 L 23.62 157.26 L 23.09 157.67 L 22.61 158.11 L 22.23 158.50 L 21.78 158.92 L 21.35 159.45 L 20.94 159.91 L 20.61 160.32 L 20.31 160.81 L 20.03 161.36 L 19.81 161.98 L 19.70 162.63 L 19.59 163.09 L 19.57 163.41 L 19.46 163.98 L 19.37 164.56 L 19.22 165.21 L 19.03 165.87 L 19.02 166.27 L 19.06 166.83 L 19.06 167.56 L 19.04 168.33 L 19.07 168.96 L 19.17 169.55 L 19.18 170.32 L 19.23 171.13 L 19.57 171.45 L 19.96 171.65 L 20.38 171.87 L 20.41 172.73 L 20.48 173.51 L 20.73 173.96 L 21.10 174.07 L 21.67 174.03 L 22.04 174.29 L 22.01 175.12 L 22.09 175.76 L 22.40 176.05 L 22.78 176.33 L 22.94 177.07 L 23.12 177.77 L 23.57 177.96 L 24.05 177.96" fill="none" stroke="#000000" stroke-width="0.5" stroke-linejoin="round" stroke-linecap="round"/>
</svg>