<?xml version="1.0" encoding="UTF-8"?>
<svg xmlns="http://www.w3.org/2000/svg" viewBox="20.19 140.00 33.81 42.54">
<path d="M 49.00 145.00 L 48.81 145.46 L 48.57 145.88 L 48.34 146.32 L 48.09 146.73 L 47.82 147.14 L 47.55 147.54 L 47.32 147.90 L 47.07 148.27 L 46.80 148.68 L 46.54 149.08 L 46.29 149.50 L 46.04 149.91 L 45.77 150.32 L 45.50 150.72 L 45.21 151.08 L 44.90 151.45 L 44.59 151.82 L 44.32 152.13 L 44.04 152.50 L 43.73 152.87 L 43.41 153.24 L 43.13 153.63 L 42.83 153.98 L 42.51 154.35 L 42.20 154.69 L 41.90 154.99 L 41.58 155.36 L 41.26 155.71 L 40.92 156.04 L 40.61 156.41 L 40.30 156.75 L 40.00 157.05 L 39.68 157.41 L 39.37 157.77 L 39.04 158.12 L 38.73 158.49 L 38.40 158.84 L 38.07 159.18 L 37.76 159.54 L 37.44 159.89 L 37.08 160.21 L 36.67 160.51 L 36.23 160.75 L 35.82 160.86 L 35.51 160.73 L 35.15 160.56 L 34.74 160.34 L 34.44 159.95 L 34.11 159.61 L 33.69 159.40 L 33.49 159.03 L 33.29 158.81 L 33.09 158.78 L 32.73 159.11 L 32.45 159.46 L 32.29 159.83 L 32.18 160.32 L 32.10 160.85 L 32.07 161.32 L 32.08 161.77 L 32.13 162.20 L 32.16 162.71 L 32.23 163.19 L 32.33 163.66 L 32.39 164.20 L 32.52 164.60 L 32.69 164.90 L 32.75 165.27 L 32.69 165.76 L 32.57 166.27 L 32.37 166.72 L 32.11 167.14 L 31.84 167.54 L 31.59 167.93 L 31.33 168.33 L 31.06 168.73 L 30.79 169.14 L 30.53 169.55 L 30.27 169.95 L 30.00 170.36 L 29.73 170.75 L 29.44 171.12 L 29.13 171.49 L 28.82 171.85 L 28.53 172.23 L 28.27 172.62 L 28.00 173.03 L 27.74 173.44 L 27.48 173.85 L 27.22 174.26 L 26.95 174.66 L 26.69 175.05 L 26.43 175.45 L 26.17 175.85 L 25.90 176.26 L 25.66 176.68 L 25.43 177.12 L 25.19 177.54" fill="none" stroke="#000000" stroke-width="0.5" stroke-linejoin="round" stroke-linecap="round"/>
</svg>