<?xml version="1.0" encoding="UTF-8"?>
<svg xmlns="http://www.w3.org/2000/svg" viewBox="15.85 140.00 38.15 42.38">
<path d="M 49.00 145.00 L 48.69 145.55 L 48.32 146.04 L 47.96 146.54 L 47.65 147.00 L 47.34 147.47 L 47.02 148.00 L 46.70 148.54 L 46.43 149.10 L 46.26 149.64 L 46.06 150.25 L 45.89 150.89 L 45.79 151.48 L 45.69 152.08 L 45.63 152.70 L 45.57 153.33 L 45.41 153.88 L 45.22 154.25 L 44.97 154.48 L 44.65 154.56 L 44.46 154.24 L 44.10 153.89 L 43.58 153.56 L 43.05 153.23 L 42.53 152.91 L 41.99 152.61 L 41.42 152.36 L 40.80 152.19 L 40.17 152.02 L 39.66 151.71 L 39.11 151.47 L 38.56 151.25 L 37.91 151.17 L 37.27 151.10 L 36.63 151.03 L 36.01 150.97 L 35.38 150.91 L 34.77 150.87 L 34.18 150.83 L 33.60 150.81 L 32.96 150.90 L 32.28 151.04 L 31.65 151.17 L 31.08 151.26 L 30.53 151.31 L 29.88 151.50 L 29.28 151.65 L 28.69 151.81 L 28.09 152.03 L 27.48 152.24 L 26.90 152.47 L 26.35 152.72 L 25.82 152.99 L 25.28 153.31 L 24.75 153.68 L 24.27 154.08 L 23.81 154.50 L 23.37 154.94 L 22.97 155.43 L 22.63 155.93 L 22.32 156.44 L 22.07 156.92 L 21.81 157.46 L 21.58 158.06 L 21.39 158.69 L 21.22 159.30 L 21.09 159.87 L 20.99 160.47 L 20.92 161.08 L 20.87 161.72 L 20.85 162.38 L 20.86 163.05 L 20.96 163.63 L 21.13 164.18 L 21.31 164.73 L 21.52 165.30 L 21.71 165.92 L 21.88 166.55 L 22.09 167.15 L 22.31 167.73 L 22.55 168.33 L 22.80 168.93 L 23.22 169.33 L 23.68 169.69 L 24.08 170.17 L 24.48 170.66 L 24.88 171.15 L 25.40 171.48 L 25.83 171.89 L 26.19 172.35 L 26.48 172.77 L 26.56 173.34 L 26.55 173.89 L 26.37 174.54 L 26.13 175.14 L 25.87 175.72 L 25.59 176.29 L 25.31 176.86 L 25.06 177.38" fill="none" stroke="#000000" stroke-width="0.5" stroke-linejoin="round" stroke-linecap="round"/>
</svg>