<?xml version="1.0" encoding="UTF-8"?>
<svg xmlns="http://www.w3.org/2000/svg" viewBox="20.36 140.00 38.45 42.42">
<path d="M 49.00 145.00 L 48.51 145.49 L 48.15 146.04 L 47.89 146.59 L 47.72 147.17 L 47.64 147.76 L 47.77 148.25 L 48.26 148.48 L 48.97 148.51 L 49.49 148.85 L 50.01 149.20 L 50.65 149.41 L 51.27 149.66 L 51.61 150.29 L 52.03 150.79 L 52.53 151.17 L 52.87 151.76 L 53.17 152.37 L 53.61 152.71 L 53.81 153.05 L 53.68 153.56 L 53.44 153.95 L 53.21 154.04 L 52.74 154.19 L 52.15 154.25 L 51.44 154.23 L 50.78 154.23 L 50.12 154.25 L 49.59 154.11 L 48.83 154.26 L 48.11 154.38 L 47.46 154.40 L 46.84 154.44 L 46.25 154.50 L 45.73 154.61 L 45.25 154.86 L 44.74 155.34 L 44.36 155.88 L 44.06 156.46 L 43.83 157.04 L 43.65 157.60 L 43.40 158.22 L 43.09 158.84 L 42.71 159.37 L 42.20 159.84 L 41.64 160.24 L 41.38 160.13 L 41.25 159.64 L 41.13 159.07 L 41.06 158.34 L 40.93 157.73 L 40.87 157.04 L 40.82 156.32 L 40.78 155.61 L 40.68 155.00 L 40.50 154.47 L 39.80 154.67 L 39.14 154.82 L 38.57 154.89 L 37.94 155.12 L 37.32 155.41 L 36.75 155.74 L 36.26 156.13 L 35.77 156.61 L 35.32 157.12 L 34.91 157.63 L 34.54 158.21 L 34.18 158.79 L 33.82 159.36 L 33.47 159.92 L 33.12 160.50 L 32.77 161.08 L 32.46 161.66 L 32.14 162.27 L 31.84 162.88 L 31.58 163.50 L 31.31 164.11 L 31.08 164.74 L 30.83 165.37 L 30.57 165.99 L 30.31 166.60 L 30.06 167.25 L 29.81 167.91 L 29.56 168.51 L 29.35 169.05 L 29.11 169.63 L 28.82 170.26 L 28.55 170.88 L 28.25 171.49 L 27.91 172.09 L 27.61 172.67 L 27.33 173.27 L 27.05 173.90 L 26.78 174.53 L 26.57 175.06 L 26.31 175.63 L 26.01 176.25 L 25.71 176.84 L 25.36 177.42" fill="none" stroke="#000000" stroke-width="0.5" stroke-linejoin="round" stroke-linecap="round"/>
</svg>