<?xml version="1.0" encoding="UTF-8"?>
<svg xmlns="http://www.w3.org/2000/svg" viewBox="19.27 140.00 34.99 42.61">
<path d="M 49.00 145.00 L 49.12 145.66 L 49.14 146.05 L 49.26 146.33 L 49.23 146.77 L 49.07 147.21 L 48.80 147.60 L 48.40 147.91 L 48.11 147.87 L 47.80 147.67 L 47.43 147.40 L 47.13 146.97 L 46.77 146.62 L 46.37 146.33 L 45.86 146.22 L 45.34 146.13 L 44.85 146.06 L 44.44 146.05 L 44.06 146.19 L 43.74 146.46 L 43.48 146.85 L 43.36 147.24 L 43.36 147.63 L 43.41 148.10 L 43.43 148.61 L 43.44 149.13 L 43.41 149.66 L 43.34 150.18 L 43.25 150.69 L 43.15 151.19 L 43.03 151.70 L 42.88 152.21 L 42.75 152.71 L 42.61 153.19 L 42.45 153.70 L 42.32 154.18 L 42.17 154.68 L 41.99 155.17 L 41.84 155.64 L 41.68 156.12 L 41.51 156.63 L 41.36 157.12 L 41.21 157.59 L 41.05 158.05 L 40.90 158.54 L 40.75 159.05 L 40.56 159.55 L 40.38 160.01 L 40.21 160.47 L 39.99 160.96 L 39.80 161.42 L 39.63 161.88 L 39.41 162.36 L 39.22 162.83 L 39.05 163.28 L 38.84 163.76 L 38.65 164.24 L 38.45 164.73 L 38.24 165.21 L 38.02 165.67 L 37.80 166.13 L 37.58 166.60 L 37.36 167.08 L 37.13 167.53 L 36.90 167.95 L 36.65 168.39 L 36.39 168.85 L 36.13 169.30 L 35.84 169.73 L 35.55 170.15 L 35.23 170.56 L 34.89 170.96 L 34.54 171.34 L 34.17 171.68 L 33.78 172.01 L 33.38 172.32 L 32.95 172.62 L 32.52 172.91 L 32.07 173.20 L 31.62 173.48 L 31.20 173.69 L 30.75 173.91 L 30.25 174.16 L 29.77 174.34 L 29.29 174.51 L 28.81 174.67 L 28.32 174.80 L 27.84 174.93 L 27.33 175.07 L 26.83 175.23 L 26.36 175.39 L 25.91 175.51 L 25.42 175.76 L 24.99 176.02 L 24.68 176.31 L 24.42 176.74 L 24.27 177.19 L 24.32 177.43 L 24.46 177.61" fill="none" stroke="#000000" stroke-width="0.5" stroke-linejoin="round" stroke-linecap="round"/>
</svg>