<?xml version="1.0" encoding="UTF-8"?>
<svg xmlns="http://www.w3.org/2000/svg" viewBox="20.61 140.00 33.39 42.12">
<path d="M 49.00 145.00 L 48.21 146.09 L 47.40 147.20 L 46.59 148.32 L 45.78 149.45 L 44.98 150.56 L 44.31 151.50 L 43.61 152.46 L 42.89 153.47 L 42.08 154.60 L 41.28 155.71 L 40.54 156.74 L 39.82 157.74 L 39.08 158.78 L 38.29 159.88 L 37.49 160.99 L 36.70 162.09 L 35.95 163.13 L 35.19 164.18 L 34.40 165.28 L 33.59 166.41 L 32.79 167.52 L 32.03 168.57 L 31.24 169.65 L 30.42 170.77 L 29.91 171.46 L 30.07 171.23 L 30.81 170.20 L 31.62 169.07 L 32.42 167.96 L 33.17 166.90 L 33.83 165.98 L 34.42 165.15 L 35.16 164.12 L 35.89 163.09 L 36.64 162.05 L 37.43 160.95 L 38.22 159.84 L 39.01 158.74 L 39.75 157.71 L 40.49 156.68 L 41.23 155.65 L 42.04 154.53 L 42.82 153.43 L 43.53 152.45 L 44.28 151.39 L 45.03 150.35 L 45.73 149.36 L 46.47 148.33 L 47.16 147.36 L 47.77 146.48 L 48.39 145.60 L 48.72 145.11 L 48.76 145.02 L 48.23 145.73 L 47.69 146.44 L 47.08 147.26 L 46.26 148.37 L 45.45 149.49 L 44.63 150.62 L 43.97 151.53 L 43.30 152.47 L 42.56 153.50 L 41.76 154.62 L 40.96 155.73 L 40.22 156.76 L 39.49 157.79 L 38.75 158.82 L 38.01 159.85 L 37.23 160.91 L 36.46 161.97 L 36.26 162.23 L 36.89 161.36 L 37.50 160.48 L 38.12 159.60 L 38.69 158.79 L 38.63 158.83 L 38.26 159.31 L 37.71 160.05 L 37.09 160.88 L 36.27 162.01 L 35.47 163.10 L 34.74 164.13 L 34.16 164.95 L 33.79 165.49 L 33.51 165.89 L 32.89 166.77 L 32.21 167.75 L 31.49 168.77 L 30.87 169.64 L 30.30 170.44 L 29.67 171.34 L 28.94 172.37 L 28.48 173.03 L 27.90 173.86 L 27.22 174.82 L 26.61 175.70 L 26.13 176.38 L 25.61 177.12" fill="none" stroke="#000000" stroke-width="0.5" stroke-linejoin="round" stroke-linecap="round"/>
</svg>