<?xml version="1.0" encoding="UTF-8"?>
<svg xmlns="http://www.w3.org/2000/svg" viewBox="20.07 140.00 38.20 42.21">
<path d="M 49.00 145.00 L 49.96 145.48 L 50.47 145.63 L 50.74 146.22 L 50.96 146.94 L 50.98 147.60 L 50.79 148.17 L 50.32 148.79 L 50.21 148.56 L 50.07 148.09 L 49.70 147.71 L 49.18 147.31 L 48.55 147.22 L 47.79 147.35 L 47.16 147.40 L 46.40 147.81 L 45.85 147.96 L 45.37 148.19 L 44.92 148.66 L 44.55 149.21 L 44.33 149.83 L 44.23 150.54 L 44.67 150.63 L 45.36 150.61 L 46.18 150.51 L 47.04 150.43 L 47.88 150.33 L 48.56 150.44 L 49.30 150.53 L 50.11 150.57 L 51.01 150.54 L 51.62 150.92 L 52.11 151.43 L 52.56 151.99 L 52.93 152.63 L 53.15 153.38 L 53.27 154.12 L 53.22 154.86 L 52.96 155.53 L 52.50 156.15 L 52.25 156.15 L 52.18 155.64 L 51.96 155.11 L 51.65 154.52 L 51.42 153.71 L 51.08 153.05 L 50.21 153.12 L 49.48 153.00 L 48.77 152.85 L 48.04 152.74 L 47.42 152.72 L 46.84 152.89 L 46.34 153.16 L 45.86 153.65 L 45.42 154.23 L 44.99 154.89 L 44.65 155.58 L 44.29 156.25 L 43.90 156.91 L 43.44 157.54 L 42.94 158.09 L 42.45 158.57 L 41.92 159.07 L 41.32 159.52 L 40.72 160.00 L 40.22 160.48 L 39.81 160.93 L 39.54 161.27 L 39.33 161.56 L 38.87 162.21 L 38.48 162.90 L 38.08 163.57 L 37.58 164.14 L 37.02 164.70 L 36.44 165.25 L 35.88 165.76 L 35.29 166.24 L 34.63 166.70 L 34.03 167.20 L 33.61 167.68 L 33.19 168.16 L 32.92 168.46 L 32.70 168.81 L 32.37 169.46 L 32.08 170.13 L 31.66 170.75 L 31.13 171.33 L 30.65 171.92 L 30.20 172.52 L 29.67 173.09 L 29.09 173.63 L 28.49 174.17 L 27.91 174.62 L 27.27 175.05 L 26.65 175.54 L 26.22 175.82 L 25.94 176.08 L 25.48 176.65 L 25.07 177.21" fill="none" stroke="#000000" stroke-width="0.5" stroke-linejoin="round" stroke-linecap="round"/>
</svg>