<?xml version="1.0" encoding="UTF-8"?>
<svg xmlns="http://www.w3.org/2000/svg" viewBox="16.41 140.00 37.59 42.21">
<path d="M 49.00 145.00 L 48.01 145.38 L 47.31 145.94 L 46.64 146.46 L 45.95 147.09 L 45.33 147.82 L 44.81 148.64 L 44.45 149.49 L 44.18 150.36 L 44.02 151.23 L 43.88 152.18 L 43.74 153.17 L 43.65 154.10 L 43.58 155.07 L 43.49 156.10 L 43.52 157.05 L 43.61 157.95 L 43.73 158.87 L 43.89 159.82 L 44.05 160.77 L 44.14 161.66 L 44.24 162.39 L 44.12 163.20 L 43.75 164.11 L 43.21 164.91 L 42.49 165.54 L 41.63 166.00 L 40.77 166.23 L 40.26 165.74 L 39.74 165.09 L 39.24 164.27 L 38.69 163.47 L 38.12 162.70 L 37.56 161.92 L 37.04 161.09 L 36.48 160.35 L 35.78 159.85 L 34.80 159.78 L 33.84 159.76 L 32.93 159.80 L 32.02 159.97 L 31.10 160.28 L 30.21 160.68 L 29.34 161.16 L 28.49 161.68 L 27.64 162.19 L 26.74 162.67 L 25.79 163.08 L 24.90 163.26 L 24.09 163.16 L 23.31 162.89 L 22.57 162.60 L 22.07 162.36 L 21.74 162.34 L 21.41 162.76 L 21.65 162.85 L 22.14 163.05 L 22.89 163.29 L 23.75 163.53 L 24.47 163.81 L 25.42 163.68 L 26.43 163.39 L 27.43 163.01 L 28.32 162.66 L 29.15 162.33 L 30.02 161.98 L 30.96 161.56 L 31.87 161.22 L 32.81 160.93 L 33.80 160.65 L 34.66 160.68 L 35.20 161.23 L 35.62 162.04 L 36.07 162.90 L 36.59 163.74 L 37.14 164.52 L 37.71 165.21 L 38.25 165.75 L 38.73 166.11 L 38.77 166.80 L 38.39 167.70 L 37.79 168.44 L 37.00 169.01 L 36.22 169.26 L 35.53 169.24 L 34.73 169.30 L 33.88 169.42 L 32.96 169.73 L 32.12 170.15 L 31.31 170.70 L 30.56 171.34 L 29.85 172.01 L 29.18 172.72 L 28.55 173.44 L 27.94 174.18 L 27.34 174.92 L 26.73 175.68 L 26.14 176.44 L 25.56 177.21" fill="none" stroke="#000000" stroke-width="0.5" stroke-linejoin="round" stroke-linecap="round"/>
</svg>