<?xml version="1.0" encoding="UTF-8"?>
<svg xmlns="http://www.w3.org/2000/svg" viewBox="19.93 140.00 34.07 42.59">
<path d="M 49.00 145.00 L 48.78 145.40 L 48.54 145.79 L 48.30 146.17 L 48.07 146.57 L 47.83 146.96 L 47.60 147.35 L 47.36 147.74 L 47.10 148.11 L 46.83 148.47 L 46.59 148.85 L 46.37 149.22 L 46.16 149.57 L 45.97 149.91 L 45.75 150.28 L 45.55 150.69 L 45.35 151.10 L 45.13 151.50 L 44.89 151.89 L 44.66 152.28 L 44.43 152.68 L 44.19 153.07 L 43.96 153.46 L 43.72 153.84 L 43.44 154.20 L 43.11 154.52 L 42.74 154.78 L 42.39 154.95 L 42.05 155.00 L 41.64 155.04 L 41.17 155.11 L 40.74 155.09 L 40.30 155.10 L 39.82 155.18 L 39.38 155.15 L 38.93 155.16 L 38.49 155.22 L 38.20 155.06 L 37.80 155.05 L 37.32 155.23 L 36.94 155.34 L 36.63 155.40 L 36.25 155.64 L 35.88 155.91 L 35.61 156.15 L 35.32 156.50 L 35.04 156.86 L 34.78 157.23 L 34.58 157.64 L 34.40 158.07 L 34.25 158.50 L 34.14 158.90 L 34.03 159.30 L 33.93 159.70 L 33.81 160.15 L 33.67 160.61 L 33.52 161.05 L 33.38 161.42 L 33.21 161.81 L 33.02 162.23 L 32.82 162.65 L 32.61 163.05 L 32.37 163.44 L 32.14 163.83 L 31.91 164.22 L 31.67 164.61 L 31.44 165.01 L 31.21 165.40 L 30.97 165.79 L 30.73 166.17 L 30.46 166.54 L 30.18 166.90 L 29.92 167.25 L 29.66 167.58 L 29.39 167.93 L 29.11 168.29 L 28.84 168.66 L 28.60 169.04 L 28.37 169.44 L 28.13 169.83 L 27.90 170.22 L 27.67 170.61 L 27.47 171.03 L 27.28 171.45 L 27.09 171.87 L 26.99 172.16 L 26.81 172.56 L 26.62 172.98 L 26.45 173.42 L 26.26 173.84 L 26.07 174.27 L 25.92 174.64 L 25.78 175.02 L 25.62 175.47 L 25.47 175.92 L 25.33 176.33 L 25.22 176.73 L 25.08 177.17 L 24.93 177.59" fill="none" stroke="#000000" stroke-width="0.5" stroke-linejoin="round" stroke-linecap="round"/>
</svg>