<?xml version="1.0" encoding="UTF-8"?>
<svg xmlns="http://www.w3.org/2000/svg" viewBox="17.92 140.00 36.08 42.43">
<path d="M 49.00 145.00 L 48.58 145.25 L 48.22 145.54 L 47.84 145.82 L 47.49 146.02 L 47.12 146.23 L 46.68 146.46 L 46.22 146.67 L 45.79 146.82 L 45.39 146.94 L 45.05 146.98 L 44.62 147.10 L 44.16 147.28 L 43.69 147.49 L 43.29 147.63 L 42.88 147.81 L 42.45 147.99 L 42.04 148.12 L 41.59 148.33 L 41.19 148.47 L 40.77 148.64 L 40.35 148.85 L 39.94 149.06 L 39.55 149.28 L 39.16 149.54 L 38.76 149.81 L 38.38 150.08 L 38.02 150.37 L 37.68 150.66 L 37.35 150.97 L 37.01 151.29 L 36.69 151.62 L 36.38 151.97 L 36.08 152.30 L 35.78 152.65 L 35.48 153.00 L 35.17 153.34 L 34.87 153.68 L 34.57 154.03 L 34.26 154.38 L 33.96 154.72 L 33.65 155.07 L 33.35 155.41 L 33.05 155.75 L 32.74 156.10 L 32.44 156.45 L 32.16 156.79 L 31.88 157.16 L 31.61 157.54 L 31.34 157.91 L 31.10 158.32 L 30.88 158.73 L 30.66 159.14 L 30.45 159.53 L 30.24 159.93 L 30.02 160.34 L 29.79 160.75 L 29.56 161.15 L 29.31 161.54 L 29.08 161.95 L 28.86 162.36 L 28.63 162.77 L 28.43 163.15 L 28.22 163.55 L 28.01 163.97 L 27.82 164.40 L 27.61 164.82 L 27.40 165.21 L 27.19 165.60 L 26.97 166.01 L 26.75 166.42 L 26.51 166.83 L 26.28 167.23 L 26.05 167.64 L 25.83 168.05 L 25.62 168.44 L 25.42 168.83 L 25.20 169.24 L 24.96 169.64 L 24.70 170.02 L 24.40 170.38 L 24.10 170.71 L 23.82 171.05 L 23.55 171.40 L 23.30 171.79 L 23.10 172.21 L 22.96 172.64 L 22.92 173.04 L 22.95 173.47 L 22.99 173.97 L 23.15 174.38 L 23.33 174.78 L 23.55 175.15 L 23.82 175.50 L 24.07 175.87 L 24.30 176.28 L 24.49 176.71 L 24.65 177.08 L 24.74 177.43" fill="none" stroke="#000000" stroke-width="0.5" stroke-linejoin="round" stroke-linecap="round"/>
</svg>