<?xml version="1.0" encoding="UTF-8"?>
<svg xmlns="http://www.w3.org/2000/svg" viewBox="20.33 140.00 33.67 42.37">
<path d="M 49.00 145.00 L 48.87 145.77 L 48.65 146.36 L 48.45 146.89 L 48.23 147.51 L 48.01 148.16 L 47.72 148.80 L 47.40 149.39 L 47.08 149.98 L 46.72 150.56 L 46.37 151.12 L 45.98 151.64 L 45.51 152.15 L 45.04 152.66 L 44.57 153.16 L 44.08 153.62 L 43.60 154.09 L 43.08 154.58 L 42.57 155.07 L 42.08 155.56 L 41.67 156.09 L 41.28 156.66 L 40.92 157.26 L 40.71 157.80 L 40.57 158.40 L 40.44 159.09 L 40.41 159.78 L 40.41 160.45 L 40.36 161.21 L 40.39 161.88 L 40.44 162.50 L 40.44 163.17 L 40.43 163.90 L 40.37 164.64 L 40.34 165.29 L 40.26 165.95 L 40.14 166.65 L 39.99 167.36 L 39.80 168.04 L 39.60 168.69 L 39.38 169.36 L 39.12 170.03 L 38.85 170.66 L 38.54 171.24 L 38.15 171.82 L 37.71 172.36 L 37.21 172.85 L 36.68 173.24 L 36.08 173.58 L 35.41 173.86 L 34.70 174.06 L 34.01 174.17 L 33.41 174.09 L 32.91 173.89 L 32.58 173.52 L 32.52 172.92 L 32.65 172.19 L 32.82 171.50 L 33.08 170.83 L 33.36 170.22 L 33.63 169.61 L 33.88 168.93 L 34.04 168.22 L 34.16 167.49 L 33.87 167.25 L 33.81 166.58 L 33.70 165.86 L 33.50 165.17 L 33.31 164.48 L 33.01 163.94 L 32.62 163.58 L 31.96 163.59 L 31.20 163.72 L 30.40 163.92 L 29.77 163.93 L 29.21 163.94 L 28.68 164.11 L 28.19 164.39 L 27.74 164.87 L 27.48 165.36 L 27.36 165.95 L 27.36 166.62 L 27.53 167.26 L 27.77 167.83 L 27.94 168.49 L 28.11 169.16 L 28.26 169.82 L 28.32 170.52 L 28.32 171.23 L 28.26 171.85 L 28.07 172.51 L 27.83 173.15 L 27.53 173.79 L 27.18 174.39 L 26.81 174.99 L 26.42 175.57 L 26.06 176.17 L 25.70 176.77 L 25.33 177.37" fill="none" stroke="#000000" stroke-width="0.5" stroke-linejoin="round" stroke-linecap="round"/>
</svg>