<?xml version="1.0" encoding="UTF-8"?>
<svg xmlns="http://www.w3.org/2000/svg" viewBox="19.30 140.00 42.77 42.12">
<path d="M 49.00 145.00 L 50.15 145.33 L 50.87 145.30 L 51.66 145.35 L 52.43 145.63 L 53.31 145.78 L 54.23 145.88 L 55.11 146.01 L 55.79 146.35 L 56.29 146.90 L 56.52 147.78 L 56.69 148.73 L 56.82 149.65 L 56.93 150.50 L 57.07 151.23 L 57.00 152.06 L 56.78 152.86 L 56.44 153.60 L 55.99 154.22 L 55.42 154.82 L 54.76 155.37 L 54.74 154.79 L 54.90 153.86 L 55.00 152.94 L 55.00 152.13 L 54.90 151.40 L 54.78 150.56 L 54.72 149.54 L 54.48 148.71 L 53.99 148.20 L 53.16 148.10 L 52.29 147.97 L 51.45 147.77 L 50.66 147.48 L 49.79 147.32 L 48.93 147.20 L 48.11 147.11 L 47.30 147.12 L 46.46 147.29 L 45.61 147.59 L 44.75 147.99 L 43.96 148.43 L 43.21 148.90 L 42.61 149.46 L 42.12 150.14 L 41.75 150.93 L 41.73 151.53 L 41.89 152.16 L 42.23 152.81 L 42.67 153.54 L 43.11 154.29 L 43.54 155.07 L 43.88 155.94 L 44.27 156.71 L 44.71 157.40 L 45.04 158.23 L 45.32 159.10 L 45.60 159.93 L 45.84 160.72 L 46.02 161.56 L 46.13 162.46 L 46.15 163.39 L 46.17 164.26 L 46.15 165.10 L 46.03 165.99 L 45.87 166.85 L 45.64 167.68 L 45.32 168.50 L 44.93 169.30 L 44.48 170.07 L 43.98 170.80 L 43.43 171.50 L 42.84 172.16 L 42.20 172.79 L 41.53 173.37 L 40.83 173.90 L 40.07 174.37 L 39.27 174.77 L 38.47 175.07 L 37.65 175.30 L 36.79 175.51 L 35.93 175.64 L 35.06 175.73 L 34.17 175.82 L 33.26 175.88 L 32.37 175.87 L 31.53 175.76 L 30.67 175.64 L 29.79 175.51 L 28.89 175.36 L 28.05 175.10 L 27.26 174.84 L 26.55 174.60 L 25.97 174.46 L 25.41 174.64 L 24.81 175.27 L 24.42 176.03 L 24.30 176.62 L 24.36 177.12" fill="none" stroke="#000000" stroke-width="0.5" stroke-linejoin="round" stroke-linecap="round"/>
</svg>