<?xml version="1.0" encoding="UTF-8"?>
<svg xmlns="http://www.w3.org/2000/svg" viewBox="20.29 140.00 33.71 42.62">
<path d="M 49.00 145.00 L 48.96 145.00 L 48.81 145.18 L 48.65 145.37 L 48.49 145.55 L 48.32 145.74 L 48.16 145.92 L 48.00 146.11 L 47.84 146.29 L 47.68 146.48 L 47.52 146.67 L 47.36 146.86 L 47.12 147.19 L 46.87 147.52 L 46.74 147.71 L 46.60 147.90 L 46.41 148.18 L 46.13 148.59 L 45.85 148.99 L 45.57 149.37 L 45.29 149.77 L 45.03 150.15 L 44.75 150.53 L 44.53 150.85 L 44.35 151.10 L 44.13 151.40 L 44.04 151.53 L 43.88 151.75 L 43.62 152.11 L 43.33 152.50 L 43.04 152.90 L 42.75 153.29 L 42.47 153.68 L 42.22 154.03 L 41.94 154.42 L 41.68 154.80 L 41.40 155.20 L 41.14 155.57 L 40.89 155.92 L 40.65 156.28 L 40.38 156.66 L 40.12 157.04 L 39.96 157.27 L 39.69 157.67 L 39.42 158.06 L 39.18 158.41 L 38.95 158.75 L 38.79 158.99 L 38.54 159.35 L 38.26 159.75 L 38.10 159.97 L 37.87 160.30 L 37.62 160.65 L 37.37 161.00 L 37.09 161.39 L 36.80 161.78 L 36.51 162.18 L 36.23 162.56 L 35.94 162.96 L 35.64 163.35 L 35.36 163.74 L 35.08 164.13 L 34.80 164.53 L 34.55 164.89 L 34.31 165.24 L 34.30 165.29 L 34.24 165.39 L 34.05 165.69 L 33.84 166.00 L 33.59 166.36 L 33.32 166.75 L 33.04 167.14 L 32.75 167.54 L 32.46 167.94 L 32.17 168.34 L 31.87 168.74 L 31.58 169.14 L 31.29 169.54 L 31.00 169.92 L 30.72 170.30 L 30.43 170.69 L 30.15 171.07 L 29.86 171.45 L 29.58 171.83 L 29.29 172.22 L 28.99 172.62 L 28.70 173.01 L 28.42 173.39 L 28.13 173.77 L 27.84 174.17 L 27.55 174.56 L 27.26 174.95 L 26.99 175.31 L 26.73 175.66 L 26.44 176.05 L 26.15 176.44 L 25.87 176.83 L 25.58 177.22 L 25.29 177.62" fill="none" stroke="#000000" stroke-width="0.5" stroke-linejoin="round" stroke-linecap="round"/>
</svg>