<?xml version="1.0" encoding="UTF-8"?>
<svg xmlns="http://www.w3.org/2000/svg" viewBox="19.36 140.00 34.79 42.49">
<path d="M 49.00 145.00 L 49.15 145.52 L 49.11 145.92 L 49.07 146.35 L 49.06 146.75 L 48.97 147.14 L 48.78 147.55 L 48.54 147.93 L 48.27 148.26 L 47.96 148.53 L 47.58 148.81 L 47.16 149.04 L 46.74 149.23 L 46.33 149.40 L 45.97 149.45 L 45.55 149.54 L 45.11 149.64 L 44.63 149.78 L 44.18 149.88 L 43.77 149.96 L 43.35 150.05 L 42.91 150.14 L 42.44 150.29 L 42.02 150.41 L 41.63 150.51 L 41.20 150.68 L 40.76 150.87 L 40.35 151.06 L 39.97 151.28 L 39.58 151.50 L 39.18 151.76 L 38.81 152.02 L 38.47 152.27 L 38.12 152.56 L 37.78 152.87 L 37.44 153.18 L 37.12 153.50 L 36.81 153.84 L 36.50 154.17 L 36.20 154.51 L 35.90 154.86 L 35.62 155.22 L 35.35 155.58 L 35.09 155.93 L 34.82 156.28 L 34.57 156.66 L 34.33 157.04 L 34.09 157.42 L 33.89 157.75 L 33.66 158.11 L 33.43 158.50 L 33.21 158.88 L 32.98 159.26 L 32.74 159.65 L 32.52 160.05 L 32.31 160.44 L 32.08 160.83 L 31.87 161.23 L 31.67 161.63 L 31.46 162.03 L 31.23 162.41 L 30.99 162.78 L 30.73 163.15 L 30.48 163.53 L 30.23 163.90 L 29.96 164.27 L 29.70 164.62 L 29.44 164.98 L 29.20 165.37 L 28.96 165.75 L 28.72 166.13 L 28.49 166.50 L 28.25 166.89 L 28.05 167.28 L 27.84 167.68 L 27.61 168.08 L 27.40 168.46 L 27.18 168.86 L 26.96 169.26 L 26.76 169.68 L 26.57 170.08 L 26.39 170.49 L 26.24 170.92 L 26.08 171.35 L 25.95 171.75 L 25.81 172.14 L 25.62 172.57 L 25.45 172.98 L 25.25 173.39 L 25.03 173.79 L 24.84 174.19 L 24.66 174.61 L 24.51 175.06 L 24.41 175.51 L 24.36 175.94 L 24.39 176.37 L 24.47 176.81 L 24.59 177.16 L 24.67 177.49" fill="none" stroke="#000000" stroke-width="0.5" stroke-linejoin="round" stroke-linecap="round"/>
</svg>