<?xml version="1.0" encoding="UTF-8"?>
<svg xmlns="http://www.w3.org/2000/svg" viewBox="14.54 140.00 39.46 42.44">
<path d="M 49.00 145.00 L 48.39 145.34 L 47.87 145.83 L 47.27 146.37 L 46.66 146.89 L 46.08 147.41 L 45.56 147.84 L 44.97 148.38 L 44.39 148.93 L 43.80 149.47 L 43.21 150.05 L 42.63 150.61 L 42.06 151.16 L 41.49 151.71 L 40.92 152.26 L 40.35 152.82 L 39.78 153.40 L 39.23 153.99 L 38.68 154.56 L 38.10 155.18 L 37.53 155.78 L 36.97 156.33 L 36.40 156.89 L 35.84 157.41 L 35.33 157.83 L 34.75 158.34 L 34.12 158.88 L 33.50 159.39 L 32.95 159.81 L 32.40 160.20 L 31.85 160.59 L 31.29 160.97 L 30.71 161.38 L 30.06 161.87 L 29.45 162.29 L 28.87 162.66 L 28.41 162.86 L 27.89 163.10 L 27.28 163.45 L 26.77 163.66 L 26.27 163.87 L 25.66 164.22 L 25.05 164.57 L 24.46 164.91 L 23.99 165.10 L 23.49 165.38 L 22.99 165.81 L 22.56 166.29 L 22.25 166.68 L 22.19 166.79 L 22.38 166.54 L 21.91 167.24 L 21.49 167.85 L 21.08 168.33 L 20.53 168.95 L 20.03 169.56 L 19.57 170.21 L 19.54 170.40 L 20.04 169.97 L 20.46 169.72 L 20.95 169.48 L 21.51 169.10 L 22.04 168.69 L 22.38 168.42 L 21.95 169.16 L 21.55 169.86 L 21.16 170.54 L 21.01 170.91 L 21.47 170.45 L 21.96 170.02 L 22.32 169.84 L 22.02 170.59 L 21.73 171.28 L 21.42 172.02 L 21.73 171.95 L 22.36 171.47 L 22.43 171.79 L 22.53 172.12 L 22.98 171.96 L 23.53 171.61 L 23.95 171.38 L 23.95 171.66 L 23.55 172.41 L 23.17 173.13 L 22.78 173.85 L 22.39 174.61 L 22.11 175.31 L 21.94 175.90 L 21.93 176.30 L 22.38 176.14 L 22.99 175.79 L 23.60 175.45 L 24.14 175.21 L 24.63 175.04 L 24.57 175.67 L 24.60 176.19 L 24.73 176.59 L 24.77 177.03 L 24.78 177.44" fill="none" stroke="#000000" stroke-width="0.5" stroke-linejoin="round" stroke-linecap="round"/>
</svg>