<?xml version="1.0" encoding="UTF-8"?>
<svg xmlns="http://www.w3.org/2000/svg" viewBox="20.45 140.00 35.43 42.66">
<path d="M 49.00 145.00 L 49.25 145.32 L 49.29 145.59 L 49.27 146.00 L 49.36 146.33 L 49.45 146.67 L 49.46 147.11 L 49.57 147.42 L 49.73 147.67 L 49.88 147.93 L 50.04 148.18 L 50.20 148.44 L 50.36 148.69 L 50.62 148.79 L 50.88 148.88 L 50.88 149.31 L 50.84 149.77 L 50.75 150.27 L 50.61 150.81 L 50.44 151.35 L 50.22 151.95 L 49.94 152.60 L 49.65 153.24 L 49.38 153.80 L 49.04 154.44 L 48.68 155.09 L 48.30 155.75 L 47.93 156.39 L 47.54 157.03 L 47.15 157.68 L 46.76 158.31 L 46.37 158.93 L 45.98 159.55 L 45.57 160.20 L 45.16 160.82 L 44.74 161.42 L 44.32 162.05 L 43.89 162.68 L 43.46 163.30 L 43.03 163.89 L 42.58 164.49 L 42.12 165.10 L 41.65 165.70 L 41.18 166.29 L 40.70 166.88 L 40.21 167.47 L 39.71 168.04 L 39.21 168.62 L 38.75 169.15 L 38.29 169.66 L 37.78 170.23 L 37.26 170.79 L 36.76 171.34 L 36.30 171.85 L 35.80 172.38 L 35.30 172.92 L 34.81 173.42 L 34.30 173.94 L 33.78 174.46 L 33.28 174.95 L 32.80 175.39 L 32.31 175.84 L 31.79 176.31 L 31.29 176.75 L 30.78 177.19 L 30.26 177.66 L 30.11 177.64 L 30.40 176.99 L 30.70 176.35 L 31.03 175.68 L 31.32 175.11 L 31.65 174.54 L 32.05 173.90 L 32.46 173.26 L 32.88 172.62 L 33.29 171.98 L 33.66 171.34 L 33.97 170.72 L 34.20 170.13 L 34.14 169.87 L 33.92 169.80 L 33.66 169.77 L 33.20 169.99 L 32.70 170.29 L 32.18 170.65 L 31.76 170.91 L 31.29 171.26 L 30.78 171.68 L 30.26 172.15 L 29.77 172.60 L 29.28 173.07 L 28.75 173.63 L 28.28 174.12 L 27.82 174.63 L 27.31 175.20 L 26.80 175.76 L 26.31 176.34 L 25.88 176.88 L 25.45 177.42" fill="none" stroke="#000000" stroke-width="0.5" stroke-linejoin="round" stroke-linecap="round"/>
</svg>