<?xml version="1.0" encoding="UTF-8"?>
<svg xmlns="http://www.w3.org/2000/svg" viewBox="20.79 140.00 43.45 42.95">
<path d="M 49.00 145.00 L 49.71 145.23 L 50.05 145.35 L 50.27 145.76 L 50.39 146.43 L 50.57 147.01 L 50.86 147.46 L 51.13 147.91 L 51.48 148.26 L 51.81 148.62 L 51.92 149.29 L 52.03 149.96 L 52.13 150.63 L 52.38 151.10 L 52.66 151.55 L 53.02 151.90 L 53.56 152.01 L 54.00 152.25 L 54.36 152.60 L 54.86 152.75 L 55.12 153.23 L 55.25 153.89 L 55.52 154.34 L 55.80 154.78 L 56.04 155.27 L 56.18 155.75 L 56.27 156.14 L 56.43 156.27 L 57.03 155.59 L 57.56 154.85 L 58.01 154.13 L 58.38 153.52 L 58.93 152.79 L 59.24 152.48 L 59.05 152.93 L 58.82 153.56 L 58.52 154.33 L 58.21 155.23 L 57.91 156.14 L 57.64 157.03 L 57.80 157.38 L 57.99 157.76 L 58.13 158.29 L 58.23 158.95 L 58.31 159.60 L 58.36 160.23 L 58.38 160.83 L 58.29 161.54 L 58.05 162.35 L 57.69 163.17 L 57.28 163.84 L 56.79 164.47 L 56.23 165.06 L 55.70 165.48 L 55.05 165.90 L 54.29 166.35 L 53.63 166.64 L 52.98 166.92 L 52.35 167.17 L 51.75 167.37 L 51.05 167.71 L 50.28 168.15 L 49.64 168.44 L 49.00 168.74 L 48.30 169.10 L 47.52 169.53 L 46.90 169.76 L 46.29 169.96 L 45.61 170.22 L 44.92 170.48 L 44.26 170.69 L 43.63 170.87 L 42.96 171.10 L 42.26 171.35 L 41.58 171.60 L 40.95 171.77 L 40.30 171.97 L 39.61 172.23 L 38.91 172.48 L 38.28 172.68 L 37.68 172.87 L 37.02 173.15 L 36.29 173.55 L 35.56 173.99 L 34.94 174.31 L 34.24 174.76 L 33.51 175.22 L 32.77 175.68 L 32.09 176.04 L 31.44 176.32 L 30.77 176.59 L 30.15 176.77 L 29.50 176.96 L 28.79 177.20 L 28.14 177.36 L 27.53 177.47 L 27.03 177.43 L 26.36 177.70 L 25.79 177.95" fill="none" stroke="#000000" stroke-width="0.5" stroke-linejoin="round" stroke-linecap="round"/>
</svg>