<?xml version="1.0" encoding="UTF-8"?>
<svg xmlns="http://www.w3.org/2000/svg" viewBox="20.49 140.00 33.68 42.82">
<path d="M 49.00 145.00 L 49.17 145.40 L 49.11 145.71 L 48.96 146.20 L 48.85 146.72 L 48.74 147.20 L 48.68 147.64 L 48.67 148.13 L 48.72 148.64 L 48.83 149.00 L 48.92 149.30 L 49.02 149.55 L 48.87 150.04 L 48.64 150.47 L 48.41 150.91 L 48.19 151.31 L 48.01 151.72 L 48.04 151.88 L 48.07 152.11 L 47.97 152.63 L 47.96 153.12 L 47.97 153.50 L 47.90 153.95 L 47.81 154.44 L 47.68 154.95 L 47.58 155.39 L 47.45 155.90 L 47.33 156.38 L 47.22 156.80 L 47.13 157.14 L 47.08 157.46 L 46.97 157.87 L 46.82 158.37 L 46.64 158.82 L 46.53 159.20 L 46.49 159.59 L 46.36 160.10 L 46.25 160.57 L 46.16 161.00 L 45.98 161.46 L 45.77 161.91 L 45.55 162.32 L 45.27 162.72 L 44.97 163.10 L 44.64 163.47 L 44.26 163.79 L 43.88 164.12 L 43.53 164.42 L 43.18 164.70 L 42.80 165.03 L 42.42 165.35 L 42.04 165.68 L 41.67 166.01 L 41.29 166.34 L 40.92 166.65 L 40.57 166.94 L 40.20 167.25 L 39.81 167.56 L 39.40 167.87 L 38.99 168.17 L 38.61 168.43 L 38.24 168.67 L 37.86 168.94 L 37.46 169.23 L 37.07 169.54 L 36.69 169.86 L 36.30 170.19 L 35.94 170.52 L 35.60 170.85 L 35.31 171.18 L 35.02 171.55 L 34.73 171.95 L 34.47 172.34 L 34.21 172.74 L 33.93 173.14 L 33.60 173.50 L 33.21 173.81 L 32.82 174.07 L 32.45 174.26 L 32.13 174.39 L 31.71 174.64 L 31.26 174.92 L 30.84 175.21 L 30.47 175.52 L 30.12 175.80 L 29.74 176.11 L 29.34 176.42 L 28.92 176.72 L 28.49 176.99 L 28.09 177.24 L 27.75 177.44 L 27.43 177.57 L 27.49 177.11 L 27.48 176.73 L 27.08 176.93 L 26.73 177.12 L 26.34 177.29 L 25.89 177.55 L 25.49 177.82" fill="none" stroke="#000000" stroke-width="0.5" stroke-linejoin="round" stroke-linecap="round"/>
</svg>