<?xml version="1.0" encoding="UTF-8"?>
<svg xmlns="http://www.w3.org/2000/svg" viewBox="20.41 140.00 37.56 42.58">
<path d="M 49.00 145.00 L 48.47 145.25 L 48.10 145.65 L 47.71 146.10 L 47.32 146.56 L 47.01 147.06 L 46.78 147.63 L 46.60 148.23 L 46.53 148.83 L 46.57 149.38 L 46.73 149.89 L 47.02 150.34 L 47.35 150.81 L 47.70 151.30 L 48.15 151.68 L 48.60 152.07 L 49.05 152.45 L 49.55 152.78 L 50.09 153.05 L 50.62 153.34 L 51.14 153.63 L 51.68 153.90 L 52.19 154.19 L 52.56 154.51 L 52.83 154.83 L 52.97 155.25 L 52.88 155.93 L 52.78 156.58 L 52.68 157.16 L 52.58 157.68 L 52.53 158.20 L 52.45 158.79 L 52.33 159.35 L 52.14 159.88 L 51.85 160.40 L 51.51 160.86 L 51.10 161.27 L 50.63 161.64 L 50.15 161.97 L 49.65 162.24 L 49.09 162.52 L 48.49 162.78 L 47.91 162.94 L 47.36 163.00 L 46.84 162.98 L 46.35 162.90 L 45.82 162.88 L 45.25 162.99 L 44.66 163.20 L 44.14 163.49 L 43.69 163.85 L 43.25 164.24 L 42.89 164.64 L 42.57 165.07 L 42.24 165.53 L 41.99 166.02 L 41.72 166.48 L 41.43 166.95 L 41.21 167.36 L 40.91 167.86 L 40.56 168.35 L 40.31 168.89 L 40.04 169.41 L 39.80 169.89 L 39.67 170.17 L 39.49 170.51 L 39.28 170.97 L 39.07 171.39 L 38.89 171.70 L 38.76 171.95 L 38.60 172.33 L 38.41 172.84 L 38.19 173.36 L 37.95 173.76 L 37.63 174.23 L 37.22 174.67 L 36.85 174.96 L 36.52 175.00 L 36.01 175.18 L 35.36 175.41 L 34.74 175.55 L 34.19 175.59 L 33.68 175.57 L 33.20 175.50 L 32.65 175.52 L 32.05 175.68 L 31.43 175.86 L 30.80 176.06 L 30.16 176.25 L 29.71 176.29 L 29.30 176.30 L 28.89 176.29 L 28.26 176.50 L 27.65 176.69 L 27.11 176.83 L 26.72 176.91 L 26.34 177.00 L 25.90 177.20 L 25.41 177.58" fill="none" stroke="#000000" stroke-width="0.5" stroke-linejoin="round" stroke-linecap="round"/>
</svg>