<?xml version="1.0" encoding="UTF-8"?>
<svg xmlns="http://www.w3.org/2000/svg" viewBox="19.08 140.00 34.92 42.60">
<path d="M 49.00 145.00 L 48.52 145.04 L 48.20 145.16 L 47.90 145.19 L 47.57 145.20 L 47.24 145.20 L 46.91 145.21 L 46.59 145.21 L 46.24 145.28 L 45.87 145.40 L 45.50 145.57 L 45.05 145.85 L 44.57 146.19 L 44.10 146.54 L 43.69 146.80 L 43.29 147.02 L 42.86 147.25 L 42.48 147.38 L 42.12 147.47 L 41.98 147.26 L 41.69 147.26 L 41.24 147.49 L 40.95 147.54 L 40.57 147.74 L 40.10 148.08 L 39.62 148.43 L 39.18 148.74 L 38.78 148.99 L 38.37 149.24 L 37.95 149.49 L 37.54 149.74 L 37.16 149.95 L 36.74 150.25 L 36.28 150.61 L 35.83 150.98 L 35.39 151.36 L 34.96 151.74 L 34.53 152.11 L 34.10 152.49 L 33.66 152.87 L 33.24 153.26 L 32.82 153.65 L 32.41 154.05 L 32.00 154.48 L 31.58 154.95 L 31.17 155.42 L 30.78 155.91 L 30.42 156.42 L 30.08 156.94 L 29.78 157.47 L 29.54 157.98 L 29.39 158.41 L 29.26 158.87 L 29.14 159.34 L 28.98 159.85 L 28.86 160.31 L 28.69 160.81 L 28.46 161.38 L 28.31 161.82 L 28.11 162.32 L 27.84 162.83 L 27.62 163.22 L 27.28 163.68 L 26.95 164.08 L 26.65 164.42 L 26.27 164.84 L 25.87 165.27 L 25.46 165.74 L 25.11 166.23 L 24.79 166.75 L 24.50 167.31 L 24.34 167.76 L 24.23 168.16 L 24.22 168.50 L 24.15 168.97 L 24.11 169.43 L 24.13 169.80 L 24.15 170.16 L 24.15 170.55 L 24.09 171.06 L 24.08 171.47 L 24.11 171.84 L 24.15 172.21 L 24.18 172.59 L 24.22 172.96 L 24.27 173.34 L 24.31 173.72 L 24.35 174.10 L 24.40 174.48 L 24.52 174.77 L 24.69 175.00 L 24.85 175.23 L 25.10 175.35 L 25.40 175.35 L 25.41 175.71 L 25.41 176.07 L 25.23 176.67 L 25.05 177.21 L 24.93 177.60" fill="none" stroke="#000000" stroke-width="0.5" stroke-linejoin="round" stroke-linecap="round"/>
</svg>