<?xml version="1.0" encoding="UTF-8"?>
<svg xmlns="http://www.w3.org/2000/svg" viewBox="13.93 140.00 40.07 42.73">
<path d="M 49.00 145.00 L 48.38 145.23 L 47.93 145.59 L 47.42 145.99 L 46.91 146.37 L 46.42 146.76 L 45.94 147.18 L 45.45 147.59 L 44.96 148.00 L 44.48 148.42 L 44.01 148.82 L 43.53 149.23 L 43.05 149.65 L 42.59 150.08 L 42.14 150.52 L 41.70 150.96 L 41.25 151.42 L 40.81 151.87 L 40.37 152.32 L 39.95 152.78 L 39.54 153.24 L 39.13 153.71 L 38.73 154.20 L 38.35 154.71 L 37.99 155.23 L 37.65 155.76 L 37.31 156.30 L 36.99 156.85 L 36.69 157.42 L 36.42 157.99 L 36.15 158.54 L 35.90 159.07 L 35.65 159.63 L 35.40 160.23 L 35.14 160.82 L 34.86 161.38 L 34.60 161.89 L 34.32 162.45 L 34.03 163.03 L 33.74 163.60 L 33.42 164.13 L 33.10 164.67 L 32.78 165.21 L 32.44 165.75 L 32.08 166.27 L 31.73 166.79 L 31.38 167.31 L 31.04 167.82 L 30.69 168.34 L 30.34 168.86 L 29.99 169.39 L 29.63 169.91 L 29.24 170.41 L 28.84 170.89 L 28.41 171.34 L 27.94 171.77 L 27.43 172.17 L 26.90 172.52 L 26.34 172.79 L 25.73 173.02 L 25.09 173.17 L 24.54 173.11 L 24.05 172.91 L 23.60 172.60 L 23.34 172.02 L 23.09 171.44 L 22.87 170.88 L 22.74 170.24 L 22.63 169.60 L 22.53 168.94 L 22.42 168.27 L 22.26 167.64 L 22.06 167.10 L 21.77 166.78 L 21.45 166.65 L 20.91 166.93 L 20.42 167.31 L 19.99 167.77 L 19.64 168.30 L 19.38 168.87 L 19.16 169.48 L 18.99 170.11 L 18.94 170.67 L 18.93 171.25 L 18.96 171.85 L 19.06 172.47 L 19.17 173.12 L 19.31 173.78 L 19.55 174.35 L 19.85 174.86 L 20.24 175.31 L 20.62 175.81 L 21.01 176.30 L 21.43 176.77 L 22.00 177.02 L 22.59 177.25 L 23.17 177.48 L 23.68 177.66 L 24.16 177.73" fill="none" stroke="#000000" stroke-width="0.5" stroke-linejoin="round" stroke-linecap="round"/>
</svg>