<?xml version="1.0" encoding="UTF-8"?>
<svg xmlns="http://www.w3.org/2000/svg" viewBox="19.87 140.00 34.13 42.89">
<path d="M 49.00 145.00 L 48.77 145.01 L 48.59 145.13 L 48.35 145.31 L 47.99 145.64 L 47.59 146.06 L 47.19 146.52 L 46.79 147.02 L 46.39 147.55 L 46.03 148.08 L 45.69 148.60 L 45.39 149.09 L 45.11 149.59 L 44.83 150.09 L 44.56 150.60 L 44.28 151.10 L 44.05 151.57 L 43.83 152.01 L 43.57 152.50 L 43.32 152.95 L 43.06 153.37 L 42.69 153.88 L 42.35 154.31 L 42.11 154.54 L 41.91 154.66 L 41.89 154.49 L 41.92 154.23 L 41.97 153.95 L 41.94 153.78 L 42.03 153.46 L 42.15 153.10 L 42.32 152.65 L 42.47 152.26 L 42.59 151.90 L 42.62 151.65 L 42.67 151.37 L 42.77 151.03 L 42.86 150.68 L 42.91 150.40 L 42.93 150.17 L 42.83 150.11 L 42.60 150.24 L 42.30 150.49 L 41.90 150.89 L 41.50 151.35 L 41.08 151.84 L 40.67 152.36 L 40.27 152.90 L 39.88 153.45 L 39.51 153.97 L 39.15 154.50 L 38.77 155.03 L 38.39 155.58 L 38.00 156.13 L 37.62 156.68 L 37.23 157.22 L 36.85 157.76 L 36.49 158.28 L 36.12 158.84 L 35.78 159.40 L 35.44 159.94 L 35.20 160.35 L 34.92 160.85 L 34.61 161.40 L 34.33 161.90 L 34.07 162.33 L 33.82 162.73 L 33.46 163.27 L 33.07 163.81 L 32.67 164.35 L 32.27 164.85 L 31.87 165.35 L 31.47 165.85 L 31.06 166.37 L 30.65 166.89 L 30.27 167.40 L 29.89 167.94 L 29.51 168.48 L 29.16 169.01 L 28.83 169.56 L 28.51 170.11 L 28.29 170.53 L 28.09 170.96 L 27.89 171.39 L 27.69 171.83 L 27.50 172.26 L 27.30 172.70 L 27.10 173.13 L 26.90 173.56 L 26.69 173.99 L 26.45 174.48 L 26.14 175.04 L 25.92 175.48 L 25.71 175.93 L 25.45 176.44 L 25.30 176.81 L 25.20 177.13 L 25.07 177.47 L 24.87 177.89" fill="none" stroke="#000000" stroke-width="0.5" stroke-linejoin="round" stroke-linecap="round"/>
</svg>