<?xml version="1.0" encoding="UTF-8"?>
<svg xmlns="http://www.w3.org/2000/svg" viewBox="13.60 140.00 40.40 42.86">
<path d="M 49.00 145.00 L 48.16 145.01 L 47.58 145.30 L 46.91 145.62 L 46.18 145.90 L 45.46 146.20 L 44.76 146.50 L 44.14 146.67 L 43.47 146.94 L 42.78 147.24 L 42.08 147.54 L 41.39 147.87 L 40.71 148.22 L 40.05 148.54 L 39.39 148.87 L 38.73 149.22 L 38.07 149.59 L 37.45 149.94 L 36.81 150.34 L 36.14 150.75 L 35.52 151.17 L 34.95 151.58 L 34.38 151.99 L 33.79 152.48 L 33.24 152.96 L 32.73 153.49 L 32.26 154.08 L 31.78 154.65 L 31.26 155.18 L 30.71 155.69 L 30.15 156.14 L 29.71 156.44 L 29.18 156.81 L 28.59 157.20 L 27.93 157.65 L 27.28 158.10 L 26.64 158.52 L 26.03 158.89 L 25.46 159.14 L 24.84 159.37 L 24.12 159.70 L 23.43 160.00 L 22.75 160.32 L 22.09 160.64 L 21.36 160.98 L 20.64 161.27 L 19.96 161.52 L 19.42 161.76 L 18.98 162.11 L 18.60 162.64 L 18.67 162.82 L 19.01 162.94 L 19.55 163.09 L 20.25 163.26 L 20.99 163.45 L 21.68 163.69 L 22.42 163.86 L 23.16 164.02 L 23.90 164.19 L 24.58 164.43 L 25.28 164.59 L 25.94 164.70 L 26.56 164.78 L 26.73 165.35 L 26.64 166.14 L 26.47 166.87 L 26.23 167.57 L 25.95 168.26 L 25.62 168.95 L 25.25 169.57 L 24.83 170.18 L 24.38 170.77 L 23.91 171.29 L 23.33 171.79 L 22.74 172.25 L 22.26 172.66 L 21.93 173.05 L 21.66 173.50 L 21.48 174.06 L 21.41 174.70 L 21.55 175.33 L 21.84 175.92 L 22.07 176.54 L 22.67 176.64 L 23.39 176.50 L 24.17 176.26 L 24.93 176.00 L 25.66 175.75 L 26.33 175.61 L 27.06 175.43 L 27.78 175.19 L 28.20 175.16 L 28.30 175.38 L 27.92 176.04 L 27.61 176.52 L 27.15 177.01 L 26.82 177.02 L 26.18 177.47 L 25.66 177.86" fill="none" stroke="#000000" stroke-width="0.5" stroke-linejoin="round" stroke-linecap="round"/>
</svg>