<?xml version="1.0" encoding="UTF-8"?>
<svg xmlns="http://www.w3.org/2000/svg" viewBox="19.92 140.00 34.08 42.42">
<path d="M 49.00 145.00 L 48.54 145.37 L 48.12 145.75 L 47.69 146.13 L 47.32 146.35 L 46.88 146.63 L 46.40 146.96 L 46.02 147.17 L 45.58 147.46 L 45.07 147.79 L 44.53 148.09 L 44.17 148.22 L 43.86 148.28 L 43.42 148.45 L 42.88 148.71 L 42.35 148.95 L 41.87 149.09 L 41.34 149.31 L 41.10 149.08 L 40.91 148.73 L 40.82 148.24 L 40.75 147.67 L 40.69 147.12 L 40.54 146.70 L 40.29 146.38 L 40.25 145.83 L 40.12 145.45 L 39.90 145.22 L 39.37 145.47 L 38.84 145.78 L 38.42 146.04 L 38.10 146.32 L 37.76 146.77 L 37.41 147.20 L 37.10 147.59 L 36.88 147.95 L 36.65 148.39 L 36.42 148.84 L 36.15 149.33 L 35.86 149.80 L 35.61 150.29 L 35.37 150.80 L 35.09 151.26 L 34.75 151.70 L 34.49 152.11 L 34.31 152.47 L 34.10 152.92 L 34.04 153.23 L 34.01 153.54 L 34.03 153.92 L 34.05 154.44 L 33.98 155.02 L 33.89 155.57 L 33.83 156.05 L 33.70 156.60 L 33.55 157.17 L 33.46 157.65 L 33.34 158.13 L 33.15 158.67 L 32.97 159.22 L 32.75 159.73 L 32.48 160.22 L 32.20 160.69 L 31.94 161.20 L 31.71 161.73 L 31.51 162.25 L 31.49 162.56 L 31.47 162.92 L 31.43 163.41 L 31.36 164.00 L 31.27 164.54 L 31.19 165.00 L 31.02 165.54 L 30.84 166.09 L 30.65 166.63 L 30.44 167.15 L 30.23 167.67 L 30.01 168.19 L 29.76 168.69 L 29.53 169.20 L 29.31 169.72 L 29.08 170.25 L 28.92 170.68 L 28.72 171.10 L 28.45 171.58 L 28.20 172.08 L 27.94 172.60 L 27.68 173.10 L 27.45 173.56 L 27.28 173.95 L 27.04 174.44 L 26.75 174.91 L 26.42 175.34 L 26.10 175.67 L 25.84 175.97 L 25.59 176.28 L 25.32 176.68 L 25.09 177.04 L 24.92 177.42" fill="none" stroke="#000000" stroke-width="0.5" stroke-linejoin="round" stroke-linecap="round"/>
</svg>