<?xml version="1.0" encoding="UTF-8"?>
<svg xmlns="http://www.w3.org/2000/svg" viewBox="13.81 140.00 40.19 42.49">
<path d="M 49.00 145.00 L 48.31 145.24 L 47.82 145.61 L 47.30 145.97 L 46.71 146.33 L 46.13 146.74 L 45.59 147.11 L 45.06 147.46 L 44.49 147.89 L 43.94 148.28 L 43.41 148.63 L 42.85 149.03 L 42.28 149.45 L 41.77 149.82 L 41.26 150.21 L 40.72 150.66 L 40.17 151.10 L 39.63 151.55 L 39.09 151.99 L 38.57 152.42 L 38.08 152.80 L 37.56 153.22 L 37.02 153.67 L 36.49 154.12 L 35.98 154.58 L 35.46 155.05 L 34.92 155.50 L 34.40 155.96 L 33.94 156.37 L 33.48 156.79 L 32.97 157.28 L 32.45 157.77 L 31.97 158.26 L 31.50 158.75 L 31.01 159.24 L 30.51 159.71 L 30.00 160.19 L 29.50 160.66 L 29.00 161.13 L 28.49 161.61 L 27.99 162.08 L 27.48 162.55 L 26.98 163.02 L 26.47 163.50 L 25.97 163.97 L 25.46 164.44 L 24.96 164.92 L 24.45 165.39 L 23.95 165.86 L 23.45 166.34 L 22.98 166.84 L 22.51 167.34 L 22.04 167.84 L 21.56 168.35 L 21.10 168.86 L 20.66 169.38 L 20.24 169.91 L 19.81 170.45 L 19.42 171.03 L 19.11 171.66 L 18.86 172.34 L 18.81 172.90 L 19.08 173.04 L 19.54 172.94 L 19.76 173.29 L 19.70 174.07 L 19.69 174.79 L 19.93 175.17 L 20.26 175.39 L 20.75 175.47 L 21.36 175.47 L 22.03 175.34 L 22.66 175.24 L 23.23 175.20 L 23.88 175.03 L 24.47 174.93 L 25.03 174.86 L 25.68 174.67 L 26.32 174.47 L 26.93 174.30 L 27.52 174.14 L 28.12 173.94 L 28.73 173.72 L 29.34 173.49 L 29.99 173.22 L 30.55 172.92 L 30.90 172.75 L 30.73 173.18 L 30.40 173.69 L 29.99 174.16 L 29.49 174.61 L 28.91 174.97 L 28.34 175.30 L 27.78 175.62 L 27.24 175.96 L 26.74 176.33 L 26.24 176.74 L 25.81 177.13 L 25.45 177.49" fill="none" stroke="#000000" stroke-width="0.5" stroke-linejoin="round" stroke-linecap="round"/>
</svg>