<?xml version="1.0" encoding="UTF-8"?>
<svg xmlns="http://www.w3.org/2000/svg" viewBox="20.94 140.00 34.13 42.93">
<path d="M 49.00 145.00 L 49.11 146.10 L 49.37 146.41 L 49.68 146.73 L 49.98 147.06 L 50.07 147.45 L 49.90 148.07 L 49.43 149.08 L 49.45 149.35 L 49.33 149.65 L 48.99 150.05 L 48.37 150.71 L 47.91 151.36 L 47.61 151.84 L 47.37 152.18 L 46.82 152.79 L 46.17 153.42 L 45.51 154.06 L 45.17 154.40 L 45.17 154.25 L 45.42 153.74 L 44.75 154.43 L 44.06 155.23 L 43.42 156.00 L 42.81 156.87 L 42.21 157.75 L 41.70 158.53 L 41.17 159.35 L 40.64 160.20 L 40.14 161.08 L 39.72 162.02 L 39.34 162.98 L 38.97 163.96 L 38.68 164.87 L 38.41 165.79 L 38.08 166.66 L 37.72 167.42 L 37.30 168.08 L 36.75 168.69 L 36.47 168.70 L 36.61 167.92 L 36.49 167.31 L 36.24 166.92 L 35.94 166.72 L 36.16 165.87 L 36.58 164.88 L 37.09 163.91 L 37.65 163.00 L 38.24 162.10 L 38.83 161.18 L 39.40 160.28 L 39.98 159.38 L 40.55 158.47 L 41.08 157.53 L 41.58 156.56 L 42.02 155.64 L 42.35 154.77 L 42.70 153.87 L 42.99 153.00 L 42.86 152.64 L 43.21 151.57 L 43.06 151.24 L 42.59 151.54 L 42.59 151.45 L 42.19 152.02 L 41.93 152.54 L 41.78 153.10 L 41.60 153.93 L 41.37 154.82 L 41.06 155.71 L 40.65 156.65 L 40.18 157.60 L 39.63 158.55 L 39.07 159.44 L 38.47 160.32 L 37.87 161.23 L 37.28 162.14 L 36.70 163.07 L 36.15 163.99 L 35.65 164.92 L 35.21 165.85 L 34.83 166.82 L 34.51 167.82 L 34.29 168.62 L 34.11 169.28 L 34.11 169.62 L 33.59 170.58 L 33.04 171.50 L 32.46 172.38 L 31.82 173.23 L 31.19 174.10 L 30.54 174.94 L 29.85 175.75 L 29.12 176.50 L 28.40 177.10 L 27.89 177.26 L 27.28 177.41 L 26.59 177.66 L 25.94 177.93" fill="none" stroke="#000000" stroke-width="0.5" stroke-linejoin="round" stroke-linecap="round"/>
</svg>