<?xml version="1.0" encoding="UTF-8"?>
<svg xmlns="http://www.w3.org/2000/svg" viewBox="20.17 140.00 33.83 42.38">
<path d="M 49.00 145.00 L 48.42 145.33 L 47.92 145.65 L 47.72 145.49 L 47.69 145.04 L 47.23 145.20 L 46.71 145.48 L 46.22 145.83 L 45.78 146.25 L 45.40 146.72 L 45.04 147.20 L 44.66 147.64 L 44.24 148.06 L 43.81 148.43 L 43.46 148.69 L 43.04 149.00 L 42.58 149.32 L 42.06 149.69 L 41.57 150.08 L 41.13 150.48 L 40.77 150.83 L 40.37 151.22 L 39.95 151.65 L 39.52 152.09 L 39.14 152.56 L 38.78 153.04 L 38.45 153.54 L 38.09 154.03 L 37.71 154.49 L 37.33 154.92 L 36.97 155.33 L 36.60 155.75 L 36.21 156.19 L 35.76 156.61 L 35.33 157.03 L 34.93 157.48 L 34.57 157.92 L 34.24 158.41 L 33.95 158.95 L 33.75 159.51 L 33.68 160.09 L 33.77 160.62 L 34.05 161.03 L 34.41 161.42 L 34.85 161.76 L 35.17 162.01 L 35.25 162.32 L 35.11 162.65 L 34.93 162.75 L 34.69 162.67 L 34.35 162.47 L 33.76 162.44 L 33.22 162.45 L 32.74 162.50 L 32.18 162.76 L 31.63 163.08 L 31.11 163.44 L 30.70 163.85 L 30.37 164.32 L 30.11 164.85 L 29.95 165.31 L 30.02 165.46 L 30.31 165.27 L 30.16 165.65 L 29.95 166.12 L 29.72 166.58 L 29.46 167.09 L 29.19 167.55 L 28.94 167.95 L 28.85 168.14 L 28.65 168.52 L 28.43 168.98 L 28.23 169.45 L 27.97 170.00 L 27.83 170.33 L 27.76 170.53 L 27.74 170.76 L 27.67 171.07 L 27.57 171.44 L 27.32 172.01 L 27.11 172.54 L 27.07 173.04 L 27.28 173.45 L 27.63 173.81 L 28.10 174.12 L 28.52 174.26 L 28.74 174.40 L 28.71 174.63 L 28.67 174.61 L 28.50 174.51 L 28.05 174.58 L 27.50 174.63 L 26.99 174.79 L 26.53 175.07 L 26.14 175.45 L 25.82 175.93 L 25.54 176.44 L 25.35 176.90 L 25.17 177.38" fill="none" stroke="#000000" stroke-width="0.5" stroke-linejoin="round" stroke-linecap="round"/>
</svg>