<?xml version="1.0" encoding="UTF-8"?>
<svg xmlns="http://www.w3.org/2000/svg" viewBox="13.10 140.00 40.90 42.46">
<path d="M 49.00 145.00 L 48.35 145.56 L 47.84 146.09 L 47.33 146.58 L 46.81 147.06 L 46.21 147.63 L 45.66 148.15 L 45.13 148.66 L 44.53 149.27 L 43.97 149.84 L 43.42 150.43 L 42.85 151.05 L 42.26 151.70 L 41.68 152.35 L 41.13 152.98 L 40.59 153.63 L 40.03 154.30 L 39.47 154.99 L 38.92 155.69 L 38.39 156.39 L 37.86 157.09 L 37.32 157.80 L 36.79 158.51 L 36.26 159.20 L 35.72 159.91 L 35.17 160.60 L 34.61 161.28 L 34.07 161.95 L 33.53 162.61 L 32.94 163.26 L 32.33 163.90 L 31.70 164.52 L 31.35 164.72 L 30.96 164.94 L 30.50 165.18 L 30.08 165.33 L 29.74 165.37 L 29.47 165.29 L 29.21 165.22 L 28.95 165.14 L 28.55 165.25 L 28.12 165.41 L 27.63 165.66 L 27.21 165.81 L 26.84 165.89 L 26.58 165.82 L 26.20 165.91 L 25.78 166.06 L 25.36 166.22 L 24.92 166.41 L 24.45 166.64 L 24.04 166.79 L 23.59 167.00 L 23.15 167.23 L 22.77 167.41 L 22.36 167.67 L 21.82 168.14 L 21.18 168.76 L 20.58 169.36 L 20.07 169.91 L 19.58 170.46 L 19.05 171.15 L 18.55 171.89 L 18.10 172.66 L 18.26 172.69 L 18.46 172.72 L 18.70 172.78 L 19.15 172.59 L 19.60 172.41 L 20.03 172.27 L 20.29 172.34 L 20.56 172.42 L 20.83 172.50 L 21.05 172.65 L 21.16 172.97 L 21.26 173.28 L 21.37 173.59 L 21.63 173.68 L 21.90 173.76 L 22.17 173.85 L 22.49 173.86 L 22.92 173.72 L 23.24 173.71 L 23.51 173.77 L 23.93 173.62 L 24.35 173.47 L 24.77 173.32 L 25.23 173.10 L 25.68 172.90 L 26.08 172.73 L 26.13 173.04 L 25.96 173.64 L 25.73 174.32 L 25.55 174.92 L 25.39 175.50 L 25.23 176.09 L 25.10 176.66 L 25.07 177.03 L 24.97 177.46" fill="none" stroke="#000000" stroke-width="0.5" stroke-linejoin="round" stroke-linecap="round"/>
</svg>