<?xml version="1.0" encoding="UTF-8"?>
<svg xmlns="http://www.w3.org/2000/svg" viewBox="18.65 140.00 36.78 42.37">
<path d="M 49.00 145.00 L 48.99 145.58 L 48.88 146.07 L 48.82 146.58 L 48.85 147.08 L 48.92 147.58 L 49.04 148.03 L 49.19 148.49 L 49.35 148.97 L 49.45 149.55 L 49.69 149.98 L 49.93 150.38 L 50.15 150.76 L 50.35 151.09 L 50.42 151.47 L 50.30 151.97 L 50.09 152.45 L 49.83 152.88 L 49.52 153.28 L 49.17 153.65 L 48.79 154.01 L 48.40 154.36 L 48.01 154.67 L 47.59 154.97 L 47.15 155.24 L 46.70 155.45 L 46.25 155.65 L 45.80 155.85 L 45.34 156.04 L 44.86 156.27 L 44.39 156.52 L 43.94 156.73 L 43.49 156.95 L 43.03 157.21 L 42.57 157.42 L 42.10 157.63 L 41.59 157.85 L 41.11 157.99 L 40.64 158.08 L 40.17 158.13 L 39.67 158.18 L 39.15 158.23 L 38.63 158.27 L 38.13 158.32 L 37.65 158.36 L 37.16 158.44 L 36.65 158.56 L 36.12 158.70 L 35.60 158.86 L 35.13 158.98 L 34.67 159.08 L 34.17 159.23 L 33.65 159.38 L 33.14 159.54 L 32.67 159.65 L 32.21 159.76 L 31.73 159.93 L 31.25 160.11 L 30.77 160.30 L 30.29 160.55 L 29.83 160.78 L 29.39 160.99 L 28.94 161.26 L 28.52 161.52 L 28.13 161.76 L 27.72 162.10 L 27.32 162.44 L 26.96 162.78 L 26.61 163.16 L 26.27 163.55 L 25.96 163.96 L 25.66 164.38 L 25.37 164.79 L 25.08 165.21 L 24.81 165.64 L 24.55 166.09 L 24.31 166.56 L 24.09 167.02 L 23.91 167.50 L 23.78 167.99 L 23.70 168.49 L 23.65 169.00 L 23.65 169.50 L 23.66 169.98 L 23.68 170.48 L 23.70 171.00 L 23.70 171.56 L 23.74 172.07 L 23.84 172.50 L 23.89 173.00 L 23.94 173.53 L 24.01 174.05 L 24.09 174.58 L 24.19 175.09 L 24.34 175.55 L 24.49 176.02 L 24.65 176.49 L 24.76 176.93 L 24.79 177.37" fill="none" stroke="#000000" stroke-width="0.5" stroke-linejoin="round" stroke-linecap="round"/>
</svg>