<?xml version="1.0" encoding="UTF-8"?>
<svg xmlns="http://www.w3.org/2000/svg" viewBox="20.43 140.00 33.92 42.97">
<path d="M 49.00 145.00 L 49.15 145.38 L 49.08 145.77 L 49.08 146.12 L 49.15 146.44 L 49.22 146.76 L 49.28 147.08 L 49.27 147.51 L 49.30 147.88 L 49.35 148.19 L 49.32 148.61 L 49.29 149.03 L 49.25 149.44 L 49.21 149.85 L 49.17 150.26 L 49.13 150.67 L 49.07 151.12 L 49.05 151.52 L 49.04 151.91 L 49.08 152.22 L 49.09 152.57 L 49.06 152.98 L 48.98 153.42 L 48.92 153.83 L 48.84 154.25 L 48.70 154.75 L 48.63 155.15 L 48.55 155.54 L 48.47 155.92 L 48.33 156.38 L 48.18 156.85 L 48.04 157.29 L 47.87 157.76 L 47.71 158.21 L 47.56 158.62 L 47.39 159.04 L 47.18 159.47 L 46.93 159.92 L 46.67 160.38 L 46.39 160.81 L 46.10 161.24 L 45.82 161.64 L 45.52 162.05 L 45.21 162.46 L 44.91 162.88 L 44.59 163.29 L 44.26 163.69 L 43.94 164.10 L 43.61 164.49 L 43.27 164.89 L 42.95 165.29 L 42.63 165.65 L 42.31 166.03 L 41.96 166.41 L 41.64 166.78 L 41.33 167.15 L 40.99 167.54 L 40.63 167.92 L 40.29 168.28 L 39.96 168.63 L 39.60 169.00 L 39.22 169.35 L 38.87 169.68 L 38.51 170.00 L 38.14 170.32 L 37.75 170.62 L 37.37 170.93 L 36.98 171.23 L 36.64 171.47 L 36.29 171.72 L 35.89 172.02 L 35.49 172.31 L 35.09 172.61 L 34.75 172.83 L 34.38 173.08 L 33.98 173.38 L 33.62 173.59 L 33.24 173.84 L 32.84 174.13 L 32.49 174.35 L 32.11 174.59 L 31.71 174.89 L 31.34 175.12 L 30.97 175.36 L 30.56 175.64 L 30.18 175.85 L 29.83 176.03 L 29.45 176.23 L 29.07 176.42 L 28.69 176.61 L 28.29 176.80 L 27.90 176.98 L 27.54 177.12 L 27.26 177.15 L 26.88 177.31 L 26.48 177.49 L 26.07 177.67 L 25.72 177.83 L 25.43 177.97" fill="none" stroke="#000000" stroke-width="0.5" stroke-linejoin="round" stroke-linecap="round"/>
</svg>