<?xml version="1.0" encoding="UTF-8"?>
<svg xmlns="http://www.w3.org/2000/svg" viewBox="19.61 140.00 34.39 42.36">
<path d="M 49.00 145.00 L 48.85 145.60 L 48.55 146.10 L 48.21 146.59 L 47.84 147.07 L 47.47 147.49 L 47.10 147.90 L 46.69 148.32 L 46.25 148.74 L 45.81 149.17 L 45.33 149.58 L 44.85 149.96 L 44.42 150.33 L 44.21 150.53 L 44.03 150.85 L 43.79 151.38 L 43.97 151.51 L 44.29 151.64 L 44.68 151.70 L 44.72 152.25 L 44.65 152.78 L 44.47 153.37 L 44.30 153.95 L 44.08 154.51 L 43.99 154.85 L 44.15 154.94 L 44.56 154.65 L 44.98 154.39 L 44.86 154.95 L 44.65 155.55 L 44.45 156.12 L 44.43 156.35 L 44.77 156.01 L 45.18 155.59 L 45.60 155.19 L 45.99 154.77 L 46.39 154.34 L 46.39 154.51 L 46.22 155.05 L 46.05 155.62 L 45.87 156.17 L 45.69 156.70 L 45.46 157.24 L 45.19 157.75 L 44.87 158.24 L 44.51 158.72 L 44.14 159.19 L 43.77 159.65 L 43.37 160.11 L 42.96 160.54 L 42.55 160.97 L 42.11 161.40 L 41.66 161.80 L 41.20 162.19 L 40.75 162.58 L 40.31 162.94 L 39.86 163.30 L 39.38 163.70 L 38.90 164.09 L 38.42 164.46 L 37.95 164.84 L 37.47 165.17 L 36.97 165.49 L 36.45 165.83 L 35.94 166.15 L 35.45 166.47 L 34.93 166.81 L 34.41 167.15 L 33.90 167.48 L 33.41 167.80 L 32.90 168.13 L 32.38 168.47 L 31.88 168.78 L 31.39 169.12 L 30.88 169.47 L 30.37 169.81 L 29.86 170.16 L 29.37 170.51 L 28.92 170.86 L 28.46 171.23 L 27.98 171.61 L 27.49 172.01 L 27.00 172.38 L 26.50 172.71 L 25.97 173.00 L 25.52 173.27 L 25.17 173.56 L 24.93 173.92 L 24.86 174.17 L 24.92 174.32 L 25.09 174.42 L 25.04 174.98 L 24.93 175.61 L 24.78 176.21 L 24.61 176.75 L 24.70 176.91 L 25.18 176.58 L 25.29 176.80 L 25.09 177.36" fill="none" stroke="#000000" stroke-width="0.5" stroke-linejoin="round" stroke-linecap="round"/>
</svg>