<?xml version="1.0" encoding="UTF-8"?>
<svg xmlns="http://www.w3.org/2000/svg" viewBox="14.49 140.00 47.60 42.33">
<path d="M 49.00 145.00 L 50.08 146.45 L 50.54 147.31 L 51.18 148.23 L 51.97 149.25 L 52.81 150.18 L 53.76 150.95 L 54.94 151.25 L 56.09 151.37 L 57.08 151.25 L 56.80 152.29 L 56.17 153.22 L 55.22 153.98 L 54.43 153.96 L 53.46 153.70 L 52.38 153.22 L 51.23 152.66 L 50.09 152.09 L 48.94 151.55 L 47.83 151.04 L 47.11 150.06 L 46.67 149.01 L 46.63 147.89 L 46.84 146.95 L 46.46 147.21 L 45.74 147.90 L 44.98 148.56 L 44.06 149.36 L 43.84 149.16 L 43.63 149.06 L 43.38 149.13 L 43.05 149.54 L 43.44 149.57 L 44.02 149.94 L 44.84 150.57 L 45.96 151.13 L 46.87 151.97 L 47.43 153.25 L 48.16 154.31 L 48.89 155.34 L 49.53 156.47 L 50.38 157.31 L 51.49 157.78 L 52.75 157.85 L 53.77 157.79 L 54.55 157.56 L 54.01 158.63 L 53.30 159.46 L 52.41 160.08 L 51.36 160.49 L 50.22 160.83 L 49.05 161.27 L 47.88 161.78 L 46.66 162.43 L 45.52 163.09 L 44.44 163.76 L 43.40 164.46 L 42.35 165.22 L 41.33 166.01 L 40.37 166.85 L 39.44 167.75 L 38.55 168.70 L 37.69 169.67 L 36.82 170.63 L 35.89 171.56 L 34.85 172.39 L 33.75 173.06 L 32.61 173.58 L 31.56 173.68 L 30.35 173.73 L 28.98 173.81 L 27.79 173.52 L 26.71 173.04 L 25.97 172.09 L 25.53 171.19 L 25.31 170.57 L 24.80 170.96 L 24.72 171.37 L 25.00 171.89 L 25.58 172.61 L 26.31 173.32 L 26.89 173.86 L 27.30 174.19 L 26.96 174.99 L 26.19 175.80 L 25.09 176.46 L 23.97 176.53 L 22.78 176.46 L 21.64 176.20 L 20.50 175.84 L 20.12 174.90 L 19.93 174.25 L 19.84 174.06 L 19.49 174.85 L 19.64 175.53 L 20.27 176.16 L 21.33 176.72 L 22.33 177.15 L 23.31 177.33" fill="none" stroke="#000000" stroke-width="0.5" stroke-linejoin="round" stroke-linecap="round"/>
</svg>