<?xml version="1.0" encoding="UTF-8"?>
<svg xmlns="http://www.w3.org/2000/svg" viewBox="16.01 140.00 37.99 42.41">
<path d="M 49.00 145.00 L 48.90 145.56 L 48.73 146.04 L 48.61 146.53 L 48.52 147.03 L 48.45 147.54 L 48.38 148.05 L 48.31 148.57 L 48.22 149.09 L 48.13 149.60 L 48.04 150.11 L 47.95 150.66 L 47.86 151.19 L 47.85 151.63 L 47.80 152.12 L 47.74 152.65 L 47.69 153.18 L 47.61 153.68 L 47.50 154.18 L 47.37 154.67 L 47.20 155.19 L 47.02 155.69 L 46.82 156.17 L 46.61 156.65 L 46.40 157.13 L 46.17 157.60 L 45.93 158.06 L 45.69 158.52 L 45.44 158.99 L 45.17 159.44 L 44.90 159.88 L 44.63 160.32 L 44.35 160.75 L 44.04 161.17 L 43.69 161.55 L 43.32 161.89 L 42.94 162.21 L 42.57 162.49 L 42.14 162.76 L 41.68 163.03 L 41.18 163.32 L 40.74 163.54 L 40.34 163.72 L 39.90 163.93 L 39.41 164.15 L 38.89 164.37 L 38.39 164.57 L 37.92 164.74 L 37.47 164.88 L 36.97 165.04 L 36.45 165.21 L 35.95 165.39 L 35.49 165.52 L 35.03 165.69 L 34.51 165.92 L 34.02 166.13 L 33.57 166.35 L 33.13 166.57 L 32.65 166.83 L 32.17 167.08 L 31.69 167.34 L 31.23 167.57 L 30.76 167.78 L 30.28 167.97 L 29.76 168.15 L 29.25 168.28 L 28.75 168.39 L 28.30 168.43 L 27.83 168.46 L 27.27 168.61 L 26.73 168.73 L 26.26 168.80 L 25.76 168.90 L 25.24 169.03 L 24.75 169.20 L 24.38 169.27 L 23.97 169.48 L 23.54 169.81 L 23.13 170.16 L 22.78 170.55 L 22.44 170.95 L 22.11 171.36 L 21.81 171.79 L 21.55 172.24 L 21.32 172.71 L 21.16 173.18 L 21.05 173.67 L 21.01 174.20 L 21.05 174.71 L 21.15 175.23 L 21.32 175.71 L 21.67 176.00 L 22.12 176.20 L 22.59 176.40 L 23.06 176.61 L 23.55 176.82 L 24.01 177.01 L 24.41 177.17 L 24.65 177.41" fill="none" stroke="#000000" stroke-width="0.5" stroke-linejoin="round" stroke-linecap="round"/>
</svg>