<?xml version="1.0" encoding="UTF-8"?>
<svg xmlns="http://www.w3.org/2000/svg" viewBox="19.92 140.00 34.08 42.54">
<path d="M 49.00 145.00 L 48.38 145.75 L 47.79 146.55 L 47.18 147.36 L 46.57 148.19 L 45.96 149.02 L 45.35 149.84 L 44.74 150.66 L 44.15 151.45 L 43.57 152.23 L 42.97 153.06 L 42.35 153.88 L 41.75 154.70 L 41.15 155.54 L 40.56 156.37 L 39.96 157.21 L 39.37 158.04 L 38.78 158.87 L 38.19 159.71 L 37.60 160.54 L 37.01 161.38 L 36.41 162.20 L 35.78 163.01 L 35.12 163.79 L 34.58 164.36 L 34.41 164.36 L 34.47 164.00 L 34.62 163.45 L 34.85 162.76 L 35.03 162.13 L 35.10 161.65 L 35.12 161.25 L 35.14 160.86 L 35.15 160.46 L 35.39 159.77 L 35.60 159.13 L 35.83 158.52 L 36.05 157.92 L 36.38 157.21 L 36.82 156.34 L 37.14 155.67 L 37.57 154.85 L 37.95 154.10 L 38.29 153.38 L 38.73 152.55 L 39.08 151.86 L 39.48 151.11 L 39.95 150.30 L 40.48 149.43 L 41.00 148.58 L 41.52 147.73 L 42.04 146.85 L 42.51 146.04 L 42.85 145.40 L 42.74 145.37 L 42.09 146.10 L 41.47 146.85 L 40.87 147.63 L 40.29 148.46 L 39.76 149.22 L 39.24 149.98 L 38.73 150.75 L 38.19 151.55 L 37.63 152.37 L 37.05 153.21 L 36.47 154.05 L 35.94 154.87 L 35.45 155.65 L 34.96 156.43 L 34.44 157.25 L 33.89 158.11 L 33.34 158.96 L 32.78 159.82 L 32.24 160.65 L 31.76 161.43 L 31.23 162.29 L 30.76 163.12 L 30.33 163.89 L 29.98 164.55 L 29.53 165.36 L 29.06 166.22 L 28.62 167.04 L 28.29 167.73 L 27.86 168.56 L 27.57 169.23 L 27.35 169.84 L 27.07 170.53 L 26.85 171.17 L 26.64 171.78 L 26.43 172.40 L 26.20 173.06 L 25.95 173.74 L 25.75 174.36 L 25.51 175.03 L 25.34 175.62 L 25.32 176.01 L 25.17 176.59 L 24.99 177.18 L 24.92 177.54" fill="none" stroke="#000000" stroke-width="0.5" stroke-linejoin="round" stroke-linecap="round"/>
</svg>