<?xml version="1.0" encoding="UTF-8"?>
<svg xmlns="http://www.w3.org/2000/svg" viewBox="21.09 140.00 38.07 42.97">
<path d="M 49.00 145.00 L 48.68 145.94 L 48.29 146.88 L 47.94 147.84 L 47.68 148.81 L 47.56 149.76 L 47.41 150.87 L 47.41 151.88 L 47.61 152.73 L 47.91 153.51 L 48.28 154.31 L 48.88 154.90 L 49.69 155.22 L 50.50 155.54 L 51.33 155.87 L 52.16 156.20 L 52.96 156.51 L 53.55 157.04 L 54.06 157.57 L 54.16 158.50 L 54.04 159.48 L 53.74 160.39 L 53.21 161.30 L 52.62 162.07 L 51.96 162.73 L 51.14 163.33 L 50.17 163.88 L 49.18 164.30 L 48.30 164.48 L 47.87 163.91 L 47.34 163.37 L 46.68 162.91 L 45.79 162.76 L 44.85 162.68 L 43.88 162.71 L 43.00 162.65 L 42.13 162.60 L 41.05 162.81 L 40.09 162.84 L 39.22 162.72 L 38.35 162.61 L 37.50 162.40 L 36.72 162.11 L 36.18 161.52 L 35.83 160.69 L 35.61 159.66 L 35.37 158.67 L 35.14 157.84 L 34.92 157.34 L 34.74 157.09 L 34.48 157.29 L 34.13 157.92 L 33.97 158.68 L 33.96 159.61 L 33.99 160.68 L 34.19 161.55 L 34.37 162.51 L 34.58 163.49 L 34.98 164.27 L 35.76 164.56 L 36.56 164.87 L 37.36 165.19 L 38.16 165.49 L 39.05 165.63 L 39.96 165.68 L 40.91 165.64 L 41.87 165.53 L 42.87 165.38 L 43.93 165.16 L 44.83 165.19 L 45.65 165.33 L 46.33 165.55 L 46.74 165.98 L 46.81 166.64 L 46.47 167.69 L 46.02 168.67 L 45.47 169.58 L 44.82 170.43 L 44.10 171.23 L 43.31 171.99 L 42.48 172.68 L 41.64 173.20 L 40.78 173.57 L 39.96 173.72 L 39.08 173.84 L 38.16 173.99 L 37.22 174.13 L 36.25 174.35 L 35.27 174.63 L 34.37 174.80 L 33.41 175.10 L 32.45 175.43 L 31.60 175.64 L 30.64 176.01 L 29.67 176.42 L 28.71 176.80 L 27.79 177.13 L 26.90 177.56 L 26.09 177.97" fill="none" stroke="#000000" stroke-width="0.5" stroke-linejoin="round" stroke-linecap="round"/>
</svg>