<?xml version="1.0" encoding="UTF-8"?>
<svg xmlns="http://www.w3.org/2000/svg" viewBox="20.54 140.00 34.82 42.45">
<path d="M 49.00 145.00 L 48.40 145.53 L 47.85 146.08 L 47.26 146.58 L 46.61 147.08 L 45.99 147.48 L 45.37 147.87 L 44.73 148.23 L 43.99 148.63 L 43.26 149.00 L 42.57 149.32 L 41.88 149.62 L 41.18 149.90 L 40.45 150.20 L 39.71 150.49 L 38.97 150.78 L 38.23 151.08 L 37.51 151.36 L 36.80 151.63 L 36.09 151.94 L 35.40 152.27 L 34.73 152.63 L 34.06 153.08 L 33.45 153.55 L 32.87 154.06 L 32.33 154.64 L 31.84 155.25 L 31.43 155.92 L 31.09 156.64 L 30.85 157.38 L 30.74 158.15 L 30.75 158.90 L 30.89 159.62 L 31.15 160.31 L 31.46 161.03 L 31.87 161.67 L 32.34 162.27 L 32.91 162.76 L 33.42 163.36 L 33.94 163.94 L 34.61 164.31 L 35.35 164.59 L 36.11 164.82 L 36.76 165.17 L 37.44 165.43 L 38.18 165.58 L 39.03 165.57 L 39.87 165.54 L 40.69 165.51 L 41.38 165.64 L 42.15 165.69 L 42.98 165.66 L 43.74 165.73 L 44.48 165.84 L 45.30 165.82 L 46.08 165.87 L 46.83 165.99 L 47.66 166.02 L 48.44 166.13 L 49.06 166.47 L 49.72 166.66 L 50.23 166.92 L 50.35 167.51 L 50.15 168.22 L 49.77 168.85 L 49.24 169.41 L 48.72 169.70 L 48.11 169.90 L 47.35 170.18 L 46.55 170.40 L 45.75 170.61 L 45.01 170.74 L 44.27 170.83 L 43.50 170.91 L 42.72 170.97 L 41.94 171.03 L 41.16 171.09 L 40.37 171.15 L 39.61 171.23 L 38.87 171.32 L 38.15 171.42 L 37.36 171.66 L 36.58 171.92 L 35.82 172.20 L 35.10 172.47 L 34.38 172.75 L 33.65 173.04 L 32.91 173.34 L 32.18 173.64 L 31.46 173.95 L 30.76 174.27 L 30.07 174.60 L 29.37 174.93 L 28.63 175.33 L 27.94 175.69 L 27.30 176.02 L 26.71 176.44 L 26.11 176.93 L 25.54 177.45" fill="none" stroke="#000000" stroke-width="0.5" stroke-linejoin="round" stroke-linecap="round"/>
</svg>