<?xml version="1.0" encoding="UTF-8"?>
<svg xmlns="http://www.w3.org/2000/svg" viewBox="19.77 140.00 34.23 42.60">
<path d="M 49.00 145.00 L 48.51 145.19 L 48.09 145.52 L 47.65 145.86 L 47.22 146.12 L 46.76 146.44 L 46.26 146.83 L 45.85 147.10 L 45.37 147.50 L 44.85 147.99 L 44.32 148.48 L 43.77 149.01 L 43.23 149.54 L 42.77 149.96 L 42.29 150.44 L 41.78 150.94 L 41.26 151.43 L 40.69 151.98 L 40.30 152.26 L 40.34 151.96 L 40.50 151.46 L 40.67 150.92 L 40.83 150.36 L 40.99 149.81 L 41.14 149.29 L 41.25 148.84 L 41.43 148.30 L 41.68 147.68 L 41.97 147.01 L 42.27 146.37 L 42.56 145.78 L 42.85 145.23 L 42.64 145.44 L 42.15 146.06 L 41.69 146.71 L 41.27 147.38 L 40.88 148.08 L 40.54 148.72 L 40.23 149.34 L 39.98 149.83 L 39.64 150.38 L 39.26 151.00 L 38.98 151.48 L 38.87 151.75 L 38.52 152.34 L 38.39 152.67 L 38.27 153.07 L 38.04 153.75 L 38.11 154.02 L 38.20 154.28 L 38.34 154.45 L 38.48 154.56 L 38.57 154.65 L 38.26 155.20 L 37.87 155.79 L 37.47 156.36 L 37.04 156.94 L 36.54 157.60 L 36.10 158.23 L 35.68 158.82 L 35.22 159.43 L 34.74 160.06 L 34.34 160.52 L 33.91 160.97 L 33.47 161.40 L 32.98 161.91 L 32.48 162.49 L 32.00 163.10 L 31.53 163.73 L 31.07 164.38 L 30.62 165.04 L 30.18 165.71 L 29.72 166.39 L 29.27 167.07 L 28.83 167.74 L 28.41 168.41 L 28.01 169.07 L 27.64 169.69 L 27.25 170.35 L 26.84 171.03 L 26.43 171.71 L 26.02 172.39 L 25.60 173.11 L 25.25 173.78 L 24.98 174.37 L 24.87 174.79 L 24.77 175.23 L 24.78 175.54 L 25.17 175.34 L 25.63 175.00 L 26.14 174.56 L 26.54 174.19 L 26.59 174.26 L 26.17 174.96 L 25.78 175.66 L 25.43 176.30 L 25.27 176.70 L 25.05 177.21 L 24.91 177.60" fill="none" stroke="#000000" stroke-width="0.5" stroke-linejoin="round" stroke-linecap="round"/>
</svg>