<?xml version="1.0" encoding="UTF-8"?>
<svg xmlns="http://www.w3.org/2000/svg" viewBox="20.39 140.00 38.66 42.63">
<path d="M 49.00 145.00 L 49.12 145.67 L 49.14 146.12 L 49.24 146.58 L 49.41 147.08 L 49.68 147.50 L 49.98 147.90 L 50.37 148.17 L 50.84 148.31 L 51.36 148.35 L 51.90 148.33 L 52.46 148.28 L 53.06 148.19 L 53.56 148.19 L 53.85 148.39 L 54.05 148.53 L 54.03 148.81 L 53.78 149.27 L 53.50 149.60 L 53.15 149.84 L 52.70 150.08 L 52.20 150.34 L 51.73 150.59 L 51.29 150.81 L 50.80 151.07 L 50.28 151.31 L 49.79 151.48 L 49.34 151.60 L 48.88 151.69 L 48.36 151.84 L 47.84 151.99 L 47.33 152.16 L 46.84 152.33 L 46.33 152.51 L 45.82 152.70 L 45.34 152.89 L 44.88 153.08 L 44.41 153.28 L 43.89 153.53 L 43.40 153.77 L 42.95 153.97 L 42.51 154.21 L 42.06 154.44 L 41.61 154.74 L 41.18 155.05 L 40.77 155.38 L 40.36 155.73 L 39.97 156.10 L 39.59 156.45 L 39.20 156.80 L 38.78 157.15 L 38.35 157.46 L 37.96 157.74 L 37.55 158.03 L 37.15 158.36 L 36.79 158.73 L 36.49 159.13 L 36.25 159.54 L 36.03 159.97 L 35.83 160.42 L 35.63 160.90 L 35.42 161.40 L 35.19 161.88 L 34.93 162.35 L 34.67 162.79 L 34.40 163.23 L 34.12 163.69 L 33.83 164.13 L 33.50 164.54 L 33.16 164.95 L 32.82 165.33 L 32.46 165.70 L 32.10 166.10 L 31.77 166.48 L 31.45 166.88 L 31.17 167.31 L 30.90 167.75 L 30.64 168.21 L 30.45 168.66 L 30.23 169.13 L 29.99 169.61 L 29.76 170.07 L 29.52 170.54 L 29.28 171.02 L 29.06 171.51 L 28.85 171.97 L 28.67 172.43 L 28.49 172.93 L 28.32 173.45 L 28.16 173.93 L 27.96 174.39 L 27.75 174.86 L 27.49 175.33 L 27.18 175.76 L 26.84 176.17 L 26.48 176.53 L 26.12 176.90 L 25.76 177.26 L 25.39 177.63" fill="none" stroke="#000000" stroke-width="0.5" stroke-linejoin="round" stroke-linecap="round"/>
</svg>