<?xml version="1.0" encoding="UTF-8"?>
<svg xmlns="http://www.w3.org/2000/svg" viewBox="20.44 140.00 33.56 42.96">
<path d="M 49.00 145.00 L 48.54 145.26 L 48.21 145.61 L 47.89 145.96 L 47.49 146.41 L 47.11 146.88 L 46.76 147.37 L 46.43 147.89 L 46.10 148.40 L 45.79 148.93 L 45.48 149.44 L 45.19 149.94 L 44.93 150.42 L 44.63 150.95 L 44.34 151.49 L 44.05 152.02 L 43.75 152.54 L 43.48 153.04 L 43.22 153.53 L 42.91 154.05 L 42.59 154.57 L 42.26 155.07 L 41.90 155.57 L 41.54 156.06 L 41.19 156.56 L 40.83 157.05 L 40.48 157.55 L 40.15 158.05 L 39.83 158.57 L 39.52 159.10 L 39.23 159.62 L 38.96 160.09 L 38.65 160.58 L 38.32 161.09 L 37.96 161.59 L 37.59 162.07 L 37.24 162.50 L 36.85 162.97 L 36.46 163.44 L 36.06 163.91 L 35.68 164.38 L 35.30 164.86 L 34.92 165.34 L 34.54 165.82 L 34.13 166.28 L 33.71 166.73 L 33.29 167.16 L 33.00 167.44 L 32.67 167.82 L 32.35 168.23 L 32.01 168.66 L 31.71 169.07 L 31.41 169.49 L 31.06 169.99 L 30.69 170.44 L 30.30 170.85 L 29.89 171.24 L 29.53 171.57 L 29.17 171.96 L 28.82 172.42 L 28.48 172.85 L 28.16 173.28 L 27.90 173.67 L 27.60 174.15 L 27.29 174.66 L 26.97 175.19 L 26.68 175.72 L 26.51 176.16 L 26.44 176.54 L 26.55 176.69 L 26.80 176.66 L 27.24 176.38 L 27.71 176.04 L 28.13 175.71 L 28.52 175.39 L 28.95 174.99 L 29.37 174.59 L 29.77 174.19 L 30.22 173.76 L 30.67 173.35 L 31.11 172.97 L 31.34 172.90 L 31.22 173.30 L 31.05 173.75 L 30.79 174.23 L 30.46 174.74 L 30.14 175.14 L 29.79 175.49 L 29.36 175.87 L 28.95 176.18 L 28.53 176.46 L 28.10 176.74 L 27.70 176.95 L 27.30 177.15 L 26.90 177.34 L 26.54 177.46 L 26.16 177.58 L 25.77 177.78 L 25.44 177.96" fill="none" stroke="#000000" stroke-width="0.5" stroke-linejoin="round" stroke-linecap="round"/>
</svg>