<?xml version="1.0" encoding="UTF-8"?>
<svg xmlns="http://www.w3.org/2000/svg" viewBox="19.61 140.00 34.39 42.68">
<path d="M 49.00 145.00 L 48.68 145.02 L 48.40 145.19 L 48.06 145.42 L 47.71 145.64 L 47.37 145.85 L 47.05 146.04 L 46.69 146.26 L 46.34 146.48 L 45.99 146.69 L 45.75 146.77 L 45.45 146.94 L 45.10 147.16 L 44.71 147.45 L 44.37 147.68 L 44.04 147.92 L 43.71 148.16 L 43.38 148.39 L 43.06 148.65 L 42.69 148.96 L 42.33 149.27 L 41.97 149.59 L 41.67 149.84 L 41.36 150.11 L 41.01 150.43 L 40.66 150.75 L 40.31 151.08 L 39.97 151.41 L 39.63 151.73 L 39.30 152.06 L 38.96 152.39 L 38.63 152.73 L 38.30 153.07 L 37.98 153.41 L 37.64 153.77 L 37.31 154.11 L 36.98 154.45 L 36.66 154.79 L 36.34 155.13 L 36.01 155.47 L 35.68 155.83 L 35.35 156.20 L 35.04 156.56 L 34.73 156.93 L 34.41 157.31 L 34.08 157.69 L 33.77 158.06 L 33.48 158.42 L 33.17 158.81 L 32.85 159.20 L 32.55 159.59 L 32.25 159.99 L 31.95 160.38 L 31.64 160.78 L 31.34 161.17 L 31.06 161.57 L 30.78 161.94 L 30.51 162.31 L 30.24 162.70 L 29.96 163.11 L 29.70 163.53 L 29.43 163.94 L 29.16 164.35 L 28.89 164.76 L 28.63 165.19 L 28.37 165.61 L 28.13 166.00 L 27.87 166.41 L 27.62 166.83 L 27.38 167.26 L 27.14 167.69 L 26.91 168.11 L 26.70 168.52 L 26.50 168.94 L 26.30 169.36 L 26.11 169.78 L 25.93 170.21 L 25.75 170.65 L 25.61 171.04 L 25.52 171.36 L 25.37 171.79 L 25.23 172.21 L 25.12 172.59 L 25.00 173.01 L 24.89 173.41 L 24.83 173.75 L 24.85 173.99 L 24.75 174.40 L 24.68 174.80 L 24.71 175.04 L 24.71 175.33 L 24.64 175.73 L 24.61 176.10 L 24.63 176.40 L 24.68 176.66 L 24.74 176.93 L 24.80 177.20 L 24.85 177.45 L 24.86 177.68" fill="none" stroke="#000000" stroke-width="0.5" stroke-linejoin="round" stroke-linecap="round"/>
</svg>