<?xml version="1.0" encoding="UTF-8"?>
<svg xmlns="http://www.w3.org/2000/svg" viewBox="13.23 140.00 42.93 42.76">
<path d="M 49.00 145.00 L 49.12 145.77 L 49.05 146.38 L 49.07 146.98 L 49.19 147.55 L 49.38 148.05 L 49.67 148.45 L 49.85 149.03 L 50.06 149.57 L 50.35 149.98 L 50.67 150.31 L 51.07 150.49 L 51.16 151.08 L 51.12 151.82 L 51.08 152.47 L 51.01 153.06 L 50.86 153.64 L 50.52 154.28 L 50.07 154.86 L 49.50 155.39 L 49.22 155.32 L 48.86 155.22 L 48.41 155.17 L 47.89 155.15 L 47.30 155.28 L 46.65 155.63 L 46.18 155.88 L 45.72 156.23 L 45.17 156.78 L 44.65 157.35 L 44.18 157.96 L 43.74 158.58 L 43.28 159.19 L 42.82 159.81 L 42.33 160.39 L 41.82 160.96 L 41.27 161.51 L 40.74 161.96 L 40.19 162.37 L 39.60 162.71 L 38.95 163.06 L 38.42 163.21 L 37.96 163.24 L 37.31 163.50 L 36.63 163.77 L 36.08 163.90 L 35.54 164.03 L 34.94 164.23 L 34.24 164.54 L 33.65 164.72 L 33.09 164.89 L 32.50 165.13 L 31.88 165.39 L 31.22 165.69 L 30.56 166.04 L 30.03 166.26 L 29.50 166.49 L 28.85 166.85 L 28.15 167.25 L 27.59 167.48 L 27.07 167.68 L 26.58 167.99 L 26.09 168.38 L 25.55 168.81 L 25.14 169.05 L 24.76 169.22 L 24.44 169.35 L 24.10 169.54 L 23.73 169.79 L 23.24 170.26 L 22.78 170.74 L 22.52 170.94 L 22.29 171.09 L 21.89 171.46 L 21.51 171.72 L 21.11 171.95 L 20.66 172.27 L 20.29 172.67 L 19.91 173.20 L 19.70 173.51 L 19.64 173.66 L 19.47 173.98 L 19.19 174.45 L 18.87 175.00 L 18.52 175.57 L 18.23 176.16 L 18.41 176.32 L 18.87 176.29 L 19.37 176.39 L 19.83 176.58 L 20.30 176.78 L 20.88 176.84 L 21.44 176.92 L 21.96 177.07 L 22.42 177.29 L 22.88 177.51 L 23.34 177.73 L 23.86 177.76 L 24.31 177.75" fill="none" stroke="#000000" stroke-width="0.5" stroke-linejoin="round" stroke-linecap="round"/>
</svg>