<?xml version="1.0" encoding="UTF-8"?>
<svg xmlns="http://www.w3.org/2000/svg" viewBox="20.10 140.00 33.90 43.00">
<path d="M 49.00 145.00 L 48.62 145.66 L 48.34 146.13 L 48.23 146.38 L 48.22 146.50 L 48.21 146.62 L 48.18 146.77 L 47.87 147.30 L 47.54 147.86 L 47.14 148.50 L 46.74 149.15 L 46.36 149.77 L 46.07 150.27 L 45.70 150.86 L 45.30 151.51 L 44.89 152.15 L 44.44 152.82 L 43.93 153.57 L 43.31 154.45 L 42.65 155.37 L 41.99 156.28 L 41.33 157.17 L 40.67 158.06 L 40.00 158.97 L 39.34 159.87 L 38.67 160.77 L 38.00 161.68 L 37.32 162.58 L 36.65 163.45 L 36.05 164.22 L 35.82 164.46 L 35.85 164.33 L 36.03 163.98 L 36.27 163.53 L 36.49 163.13 L 36.67 162.77 L 36.94 162.29 L 37.27 161.74 L 37.67 161.09 L 37.98 160.56 L 38.31 160.02 L 38.71 159.38 L 39.12 158.73 L 39.52 158.09 L 40.01 157.34 L 40.51 156.57 L 41.00 155.81 L 41.43 155.15 L 41.83 154.51 L 42.24 153.86 L 42.65 153.22 L 43.05 152.58 L 43.54 151.82 L 43.99 151.10 L 44.40 150.45 L 44.46 150.29 L 44.26 150.46 L 43.73 151.12 L 43.20 151.78 L 42.64 152.51 L 42.02 153.37 L 41.53 154.07 L 41.12 154.67 L 40.82 155.17 L 40.71 155.42 L 40.68 155.57 L 40.49 155.91 L 40.15 156.47 L 39.65 157.26 L 39.16 158.03 L 38.72 158.71 L 38.33 159.33 L 38.04 159.83 L 37.74 160.33 L 37.44 160.84 L 37.04 161.48 L 36.61 162.15 L 36.11 162.91 L 35.57 163.73 L 35.00 164.58 L 34.48 165.36 L 33.99 166.11 L 33.50 166.86 L 33.09 167.51 L 32.68 168.14 L 32.26 168.78 L 31.75 169.51 L 31.20 170.27 L 30.62 171.05 L 30.09 171.75 L 29.57 172.41 L 28.97 173.18 L 28.36 173.94 L 27.75 174.71 L 27.15 175.48 L 26.56 176.21 L 26.03 176.86 L 25.50 177.52 L 25.10 178.00" fill="none" stroke="#000000" stroke-width="0.5" stroke-linejoin="round" stroke-linecap="round"/>
</svg>