<?xml version="1.0" encoding="UTF-8"?>
<svg xmlns="http://www.w3.org/2000/svg" viewBox="19.22 140.00 34.78 42.46">
<path d="M 49.00 145.00 L 48.43 145.09 L 48.06 145.24 L 47.68 145.35 L 47.27 145.44 L 46.84 145.57 L 46.40 145.75 L 45.97 145.94 L 45.53 146.15 L 45.08 146.36 L 44.66 146.56 L 44.29 146.71 L 43.91 146.84 L 43.47 147.05 L 43.03 147.26 L 42.62 147.46 L 42.23 147.68 L 41.83 147.91 L 41.44 148.17 L 41.07 148.41 L 40.70 148.68 L 40.33 148.98 L 39.99 149.25 L 39.64 149.54 L 39.30 149.86 L 38.96 150.13 L 38.62 150.42 L 38.25 150.72 L 37.87 150.99 L 37.48 151.25 L 37.08 151.46 L 36.66 151.66 L 36.25 151.82 L 35.87 151.93 L 35.47 152.11 L 35.07 152.33 L 34.66 152.58 L 34.26 152.84 L 33.88 153.12 L 33.52 153.40 L 33.18 153.67 L 32.82 153.93 L 32.45 154.23 L 32.12 154.52 L 31.81 154.82 L 31.47 155.14 L 31.12 155.46 L 30.78 155.79 L 30.49 156.10 L 30.19 156.42 L 29.87 156.76 L 29.57 157.11 L 29.30 157.49 L 29.05 157.88 L 28.81 158.25 L 28.59 158.65 L 28.37 159.06 L 28.16 159.46 L 27.97 159.85 L 27.77 160.28 L 27.60 160.71 L 27.45 161.12 L 27.30 161.54 L 27.16 161.98 L 27.05 162.45 L 26.94 162.90 L 26.85 163.35 L 26.76 163.80 L 26.70 164.24 L 26.62 164.69 L 26.53 165.14 L 26.41 165.58 L 26.27 166.02 L 26.11 166.45 L 25.94 166.89 L 25.78 167.33 L 25.61 167.77 L 25.45 168.17 L 25.29 168.58 L 25.14 169.00 L 24.97 169.45 L 24.80 169.88 L 24.65 170.30 L 24.50 170.73 L 24.38 171.19 L 24.29 171.65 L 24.23 172.13 L 24.22 172.57 L 24.24 173.00 L 24.28 173.45 L 24.33 173.91 L 24.40 174.38 L 24.46 174.85 L 24.55 175.30 L 24.68 175.68 L 24.76 176.14 L 24.82 176.61 L 24.85 177.05 L 24.84 177.46" fill="none" stroke="#000000" stroke-width="0.5" stroke-linejoin="round" stroke-linecap="round"/>
</svg>