<?xml version="1.0" encoding="UTF-8"?>
<svg xmlns="http://www.w3.org/2000/svg" viewBox="20.09 140.00 33.91 42.50">
<path d="M 49.00 145.00 L 48.85 145.48 L 48.66 145.90 L 48.50 146.31 L 48.35 146.71 L 48.19 147.15 L 48.03 147.62 L 47.85 148.07 L 47.66 148.48 L 47.46 148.83 L 47.20 149.22 L 46.93 149.59 L 46.65 149.93 L 46.32 150.25 L 45.96 150.57 L 45.60 150.89 L 45.28 151.23 L 44.98 151.59 L 44.70 151.97 L 44.44 152.35 L 44.23 152.74 L 44.03 153.18 L 43.88 153.62 L 43.75 154.07 L 43.61 154.51 L 43.45 154.93 L 43.31 155.33 L 43.16 155.75 L 43.02 156.19 L 42.88 156.58 L 42.69 156.93 L 42.49 157.29 L 42.29 157.70 L 42.10 158.10 L 41.87 158.50 L 41.62 158.90 L 41.42 159.29 L 41.24 159.75 L 41.09 160.19 L 40.98 160.61 L 40.85 161.05 L 40.72 161.52 L 40.61 162.00 L 40.49 162.46 L 40.38 162.90 L 40.28 163.33 L 40.15 163.79 L 40.00 164.25 L 39.84 164.68 L 39.64 165.11 L 39.41 165.53 L 39.14 165.91 L 38.81 166.26 L 38.45 166.56 L 38.12 166.76 L 37.77 166.95 L 37.37 167.16 L 36.91 167.37 L 36.45 167.58 L 36.00 167.78 L 35.58 167.92 L 35.13 168.04 L 34.66 168.14 L 34.17 168.23 L 33.73 168.23 L 33.29 168.21 L 32.86 168.20 L 32.39 168.23 L 31.88 168.30 L 31.37 168.38 L 30.93 168.38 L 30.63 168.21 L 30.15 168.22 L 29.64 168.29 L 29.14 168.33 L 28.86 168.17 L 28.50 168.20 L 28.12 168.36 L 27.72 168.64 L 27.39 168.99 L 27.13 169.37 L 26.94 169.80 L 26.78 170.25 L 26.66 170.69 L 26.55 171.12 L 26.45 171.57 L 26.33 172.06 L 26.23 172.54 L 26.15 173.00 L 26.05 173.44 L 25.96 173.87 L 25.87 174.32 L 25.76 174.82 L 25.66 175.29 L 25.57 175.73 L 25.47 176.16 L 25.38 176.60 L 25.26 177.06 L 25.09 177.50" fill="none" stroke="#000000" stroke-width="0.5" stroke-linejoin="round" stroke-linecap="round"/>
</svg>