<?xml version="1.0" encoding="UTF-8"?>
<svg xmlns="http://www.w3.org/2000/svg" viewBox="20.83 140.00 33.17 42.25">
<path d="M 49.00 145.00 L 48.79 145.81 L 48.39 146.62 L 48.00 147.49 L 47.72 148.25 L 47.47 148.99 L 47.24 149.73 L 46.98 150.51 L 46.93 151.02 L 46.97 151.42 L 46.88 152.01 L 46.79 152.60 L 46.71 153.19 L 46.67 153.66 L 46.63 154.06 L 46.36 154.63 L 45.89 155.36 L 45.21 156.22 L 44.80 156.56 L 44.58 156.53 L 44.35 156.38 L 44.25 156.03 L 44.16 155.65 L 44.08 155.27 L 44.02 154.86 L 44.04 154.36 L 44.12 153.77 L 44.21 153.18 L 44.29 152.59 L 44.38 152.00 L 44.44 151.43 L 44.39 151.02 L 44.32 150.63 L 44.24 150.26 L 44.20 149.85 L 44.26 149.31 L 44.49 148.56 L 44.73 147.80 L 44.98 147.02 L 45.23 146.24 L 45.36 145.67 L 45.39 145.24 L 45.19 145.12 L 44.42 145.77 L 43.84 146.16 L 43.66 146.05 L 43.79 145.54 L 43.69 145.33 L 42.90 146.10 L 42.15 146.90 L 41.42 147.73 L 40.71 148.67 L 40.03 149.66 L 39.45 150.63 L 39.68 150.59 L 39.95 150.58 L 40.10 150.82 L 40.24 151.14 L 40.49 151.30 L 40.61 151.63 L 40.69 152.02 L 40.74 152.44 L 40.69 152.98 L 40.61 153.57 L 40.52 154.16 L 40.43 154.75 L 40.34 155.34 L 40.25 155.92 L 40.15 156.51 L 40.05 157.09 L 39.90 157.73 L 39.67 158.47 L 39.42 159.24 L 39.18 160.00 L 38.94 160.74 L 38.79 161.37 L 38.69 161.95 L 38.46 162.68 L 38.26 163.37 L 38.13 163.93 L 37.77 164.73 L 37.28 165.61 L 36.75 166.42 L 36.03 167.36 L 35.50 167.96 L 34.96 168.48 L 34.37 168.97 L 33.65 169.62 L 32.92 170.27 L 32.21 170.91 L 31.50 171.58 L 30.79 172.26 L 30.11 172.91 L 29.36 173.67 L 28.58 174.46 L 27.80 175.24 L 27.11 175.93 L 26.51 176.51 L 25.83 177.25" fill="none" stroke="#000000" stroke-width="0.5" stroke-linejoin="round" stroke-linecap="round"/>
</svg>