<?xml version="1.0" encoding="UTF-8"?>
<svg xmlns="http://www.w3.org/2000/svg" viewBox="20.44 140.00 33.56 42.36">
<path d="M 49.00 145.00 L 48.95 145.00 L 48.86 145.10 L 48.70 145.29 L 48.56 145.43 L 48.42 145.58 L 48.25 145.78 L 47.87 146.26 L 47.61 146.56 L 47.48 146.70 L 47.32 146.88 L 47.13 147.11 L 46.88 147.41 L 46.69 147.63 L 46.48 147.86 L 46.24 148.16 L 45.99 148.46 L 45.74 148.76 L 45.49 149.06 L 45.28 149.30 L 45.10 149.52 L 44.85 149.82 L 44.65 150.05 L 44.42 150.33 L 44.04 150.81 L 43.77 151.14 L 43.53 151.43 L 43.36 151.62 L 43.13 151.90 L 42.85 152.24 L 42.47 152.72 L 42.19 153.07 L 41.93 153.39 L 41.55 153.87 L 41.18 154.35 L 40.79 154.85 L 40.29 155.50 L 39.79 156.16 L 39.30 156.81 L 38.80 157.47 L 38.26 158.22 L 37.62 159.10 L 37.17 159.73 L 36.76 160.33 L 36.45 160.79 L 36.14 161.25 L 35.86 161.67 L 35.69 161.95 L 35.46 162.30 L 35.24 162.65 L 35.07 162.93 L 34.90 163.21 L 34.73 163.48 L 34.55 163.76 L 34.50 163.88 L 34.54 163.87 L 34.58 163.86 L 34.56 163.93 L 34.49 164.07 L 34.53 164.06 L 34.57 164.05 L 34.61 164.04 L 34.65 164.03 L 34.69 164.02 L 34.73 164.01 L 34.90 163.82 L 34.98 163.75 L 35.02 163.74 L 35.06 163.73 L 35.10 163.72 L 35.14 163.70 L 35.28 163.56 L 35.39 163.45 L 35.43 163.44 L 35.47 163.43 L 35.52 163.40 L 35.66 163.26 L 35.76 163.16 L 35.79 163.14 L 35.65 163.34 L 35.18 163.99 L 34.69 164.65 L 34.20 165.31 L 33.70 165.96 L 33.21 166.62 L 32.71 167.27 L 32.17 167.98 L 31.58 168.77 L 31.00 169.57 L 30.38 170.41 L 29.72 171.33 L 29.15 172.12 L 28.68 172.79 L 28.36 173.24 L 27.79 174.05 L 27.18 174.91 L 26.56 175.78 L 25.98 176.60 L 25.44 177.36" fill="none" stroke="#000000" stroke-width="0.5" stroke-linejoin="round" stroke-linecap="round"/>
</svg>