<?xml version="1.0" encoding="UTF-8"?>
<svg xmlns="http://www.w3.org/2000/svg" viewBox="20.27 140.00 33.73 42.68">
<path d="M 49.00 145.00 L 48.80 145.37 L 48.58 145.72 L 48.36 146.06 L 48.15 146.42 L 47.95 146.79 L 47.75 147.16 L 47.54 147.51 L 47.33 147.83 L 47.10 148.18 L 46.87 148.53 L 46.63 148.88 L 46.36 149.20 L 46.08 149.52 L 45.78 149.82 L 45.48 150.12 L 45.22 150.38 L 44.93 150.65 L 44.61 150.94 L 44.27 151.21 L 43.97 151.49 L 43.69 151.77 L 43.39 152.05 L 43.06 152.33 L 42.74 152.62 L 42.45 152.89 L 42.18 153.15 L 41.88 153.45 L 41.59 153.75 L 41.30 154.06 L 41.04 154.39 L 40.77 154.72 L 40.51 155.04 L 40.24 155.37 L 39.98 155.70 L 39.71 156.02 L 39.45 156.35 L 39.19 156.68 L 38.94 157.02 L 38.71 157.37 L 38.48 157.72 L 38.27 158.05 L 38.06 158.38 L 37.85 158.75 L 37.65 159.13 L 37.43 159.49 L 37.24 159.83 L 37.06 160.19 L 36.87 160.57 L 36.70 160.92 L 36.53 161.29 L 36.34 161.67 L 36.15 162.03 L 35.99 162.33 L 35.76 162.68 L 35.53 163.03 L 35.29 163.38 L 35.03 163.70 L 34.77 164.03 L 34.50 164.36 L 34.24 164.69 L 33.97 165.01 L 33.71 165.34 L 33.46 165.68 L 33.23 166.03 L 33.00 166.38 L 32.79 166.73 L 32.62 167.07 L 32.42 167.45 L 32.24 167.81 L 32.06 168.16 L 31.84 168.52 L 31.65 168.90 L 31.44 169.26 L 31.22 169.60 L 31.00 169.94 L 30.77 170.30 L 30.54 170.64 L 30.29 170.98 L 30.03 171.32 L 29.80 171.66 L 29.57 172.02 L 29.34 172.36 L 29.12 172.70 L 28.90 173.05 L 28.67 173.40 L 28.43 173.74 L 28.17 174.08 L 27.91 174.40 L 27.64 174.73 L 27.38 175.06 L 27.11 175.38 L 26.85 175.71 L 26.59 176.04 L 26.32 176.36 L 26.06 176.69 L 25.79 177.02 L 25.53 177.35 L 25.27 177.68" fill="none" stroke="#000000" stroke-width="0.5" stroke-linejoin="round" stroke-linecap="round"/>
</svg>