<?xml version="1.0" encoding="UTF-8"?>
<svg xmlns="http://www.w3.org/2000/svg" viewBox="20.41 140.00 39.92 42.67">
<path d="M 49.00 145.00 L 48.47 146.01 L 47.92 146.95 L 47.42 147.88 L 46.98 148.84 L 46.59 149.81 L 46.51 150.43 L 46.88 150.45 L 47.19 150.60 L 47.46 150.83 L 48.21 150.40 L 48.94 149.96 L 49.67 149.51 L 50.40 149.06 L 51.14 148.62 L 51.56 148.64 L 51.66 149.12 L 52.12 149.12 L 52.71 148.98 L 53.28 148.88 L 53.81 148.84 L 54.10 149.15 L 54.39 149.45 L 54.67 149.76 L 54.96 150.07 L 55.17 150.46 L 55.21 151.05 L 55.33 151.38 L 55.17 152.01 L 54.79 152.84 L 54.22 153.82 L 53.59 154.77 L 52.92 155.69 L 52.22 156.59 L 51.53 157.50 L 50.84 158.40 L 50.15 159.31 L 49.48 160.23 L 48.83 161.16 L 48.19 162.09 L 47.56 163.02 L 46.95 163.96 L 46.36 164.93 L 45.78 165.89 L 45.22 166.86 L 44.70 167.78 L 44.18 168.70 L 43.65 169.63 L 43.10 170.58 L 42.51 171.53 L 41.90 172.48 L 41.29 173.43 L 40.63 174.36 L 39.95 175.26 L 39.22 176.12 L 38.47 176.89 L 37.81 177.44 L 37.32 177.66 L 36.88 177.67 L 36.46 177.61 L 36.01 177.53 L 35.53 177.50 L 34.92 177.64 L 34.41 177.64 L 33.98 177.57 L 33.66 177.36 L 33.41 177.04 L 33.59 176.15 L 33.63 175.45 L 33.52 174.99 L 33.07 175.05 L 32.53 175.24 L 32.71 174.44 L 33.00 173.54 L 33.27 172.72 L 33.55 171.90 L 33.93 170.95 L 34.32 169.99 L 34.61 169.18 L 34.98 168.27 L 35.32 167.39 L 35.62 166.56 L 36.02 165.62 L 35.44 166.03 L 34.70 166.68 L 33.92 167.40 L 33.17 168.04 L 32.40 168.73 L 31.65 169.39 L 31.00 169.89 L 30.22 170.58 L 29.51 171.21 L 28.92 171.77 L 28.23 172.56 L 27.57 173.43 L 26.96 174.31 L 26.44 175.18 L 25.92 176.10 L 25.41 177.01" fill="none" stroke="#000000" stroke-width="0.5" stroke-linejoin="round" stroke-linecap="round"/>
</svg>