<?xml version="1.0" encoding="UTF-8"?>
<svg xmlns="http://www.w3.org/2000/svg" viewBox="20.40 140.00 33.60 42.47">
<path d="M 49.00 145.00 L 48.77 145.10 L 48.67 145.13 L 48.66 145.01 L 48.47 145.13 L 48.34 145.15 L 48.33 145.02 L 48.14 145.13 L 48.01 145.16 L 47.99 145.03 L 47.80 145.14 L 47.67 145.17 L 47.65 145.04 L 47.47 145.15 L 47.27 145.27 L 47.08 145.39 L 46.90 145.52 L 46.68 145.70 L 46.31 146.11 L 45.95 146.53 L 45.61 146.96 L 45.23 147.46 L 44.85 147.99 L 44.48 148.53 L 44.20 148.99 L 43.92 149.45 L 43.74 149.79 L 43.54 150.19 L 43.38 150.53 L 43.39 150.65 L 43.24 151.00 L 43.14 151.27 L 43.15 151.39 L 43.01 151.73 L 42.91 152.01 L 42.92 152.13 L 42.77 152.47 L 42.62 152.82 L 42.46 153.18 L 42.56 153.18 L 42.75 153.06 L 42.94 152.93 L 43.04 152.95 L 43.09 153.02 L 43.39 152.75 L 43.68 152.49 L 43.87 152.36 L 44.11 152.15 L 44.33 151.94 L 44.48 151.79 L 44.15 152.28 L 43.80 152.78 L 43.47 153.22 L 43.07 153.73 L 42.66 154.25 L 42.26 154.78 L 41.86 155.31 L 41.47 155.84 L 41.08 156.37 L 40.69 156.89 L 40.32 157.41 L 39.93 157.94 L 39.53 158.47 L 39.14 159.00 L 38.74 159.53 L 38.34 160.06 L 37.94 160.58 L 37.54 161.11 L 37.14 161.64 L 36.74 162.17 L 36.34 162.69 L 35.94 163.22 L 35.55 163.75 L 35.16 164.28 L 34.77 164.82 L 34.38 165.33 L 34.01 165.85 L 33.62 166.38 L 33.23 166.92 L 32.84 167.45 L 32.45 167.99 L 32.07 168.50 L 31.69 169.02 L 31.30 169.55 L 30.91 170.08 L 30.51 170.61 L 30.11 171.14 L 29.71 171.67 L 29.31 172.19 L 28.91 172.72 L 28.52 173.25 L 28.12 173.78 L 27.72 174.31 L 27.33 174.84 L 26.93 175.37 L 26.55 175.89 L 26.17 176.41 L 25.79 176.94 L 25.40 177.47" fill="none" stroke="#000000" stroke-width="0.5" stroke-linejoin="round" stroke-linecap="round"/>
</svg>