<?xml version="1.0" encoding="UTF-8"?>
<svg xmlns="http://www.w3.org/2000/svg" viewBox="19.65 140.00 35.33 42.53">
<path d="M 49.00 145.00 L 49.47 145.40 L 49.65 145.61 L 49.84 145.91 L 49.88 146.43 L 49.93 146.87 L 49.98 147.22 L 49.89 147.68 L 49.77 148.14 L 49.60 148.58 L 49.38 148.97 L 49.14 149.35 L 48.87 149.72 L 48.57 150.06 L 48.24 150.39 L 47.89 150.69 L 47.53 150.97 L 47.15 151.23 L 46.73 151.47 L 46.33 151.68 L 45.95 151.86 L 45.61 151.99 L 45.20 152.22 L 44.79 152.46 L 44.37 152.71 L 43.99 152.99 L 43.64 153.24 L 43.28 153.48 L 42.89 153.76 L 42.50 154.01 L 42.14 154.23 L 41.76 154.51 L 41.39 154.74 L 41.01 154.97 L 40.62 155.25 L 40.24 155.50 L 39.87 155.72 L 39.48 155.99 L 39.09 156.20 L 38.69 156.42 L 38.27 156.66 L 37.89 156.87 L 37.52 157.08 L 37.14 157.30 L 36.73 157.57 L 36.34 157.82 L 36.00 158.06 L 35.63 158.33 L 35.24 158.60 L 34.84 158.86 L 34.46 159.12 L 34.10 159.36 L 33.75 159.60 L 33.38 159.88 L 33.02 160.18 L 32.67 160.50 L 32.34 160.82 L 32.02 161.15 L 31.69 161.48 L 31.37 161.79 L 31.04 162.13 L 30.72 162.46 L 30.41 162.78 L 30.10 163.13 L 29.81 163.49 L 29.52 163.85 L 29.25 164.21 L 29.00 164.59 L 28.75 164.96 L 28.50 165.33 L 28.23 165.70 L 27.97 166.06 L 27.72 166.44 L 27.48 166.83 L 27.23 167.21 L 26.98 167.58 L 26.75 167.97 L 26.53 168.38 L 26.32 168.79 L 26.11 169.20 L 25.90 169.60 L 25.70 170.02 L 25.54 170.46 L 25.39 170.90 L 25.25 171.33 L 25.15 171.74 L 25.04 172.20 L 24.95 172.68 L 24.90 173.13 L 24.84 173.56 L 24.79 173.97 L 24.75 174.43 L 24.71 174.92 L 24.65 175.44 L 24.71 175.79 L 24.75 176.18 L 24.77 176.65 L 24.77 177.14 L 24.76 177.53" fill="none" stroke="#000000" stroke-width="0.5" stroke-linejoin="round" stroke-linecap="round"/>
</svg>