<?xml version="1.0" encoding="UTF-8"?>
<svg xmlns="http://www.w3.org/2000/svg" viewBox="16.38 140.00 44.13 42.31">
<path d="M 49.00 145.00 L 48.10 145.64 L 47.39 146.36 L 46.78 147.10 L 46.23 147.92 L 45.81 148.74 L 45.52 149.55 L 45.39 150.46 L 45.41 151.50 L 45.47 152.71 L 45.87 153.55 L 46.50 154.15 L 47.17 154.79 L 47.85 155.55 L 48.46 156.44 L 49.16 157.19 L 49.88 157.90 L 50.47 158.79 L 51.04 159.70 L 51.62 160.53 L 52.48 160.98 L 53.09 161.80 L 53.53 162.87 L 54.34 163.29 L 55.01 163.61 L 55.52 163.81 L 55.27 164.57 L 54.66 165.35 L 53.93 165.77 L 53.34 165.50 L 52.66 165.00 L 51.94 164.33 L 51.18 163.63 L 50.42 162.93 L 49.74 162.11 L 49.12 161.21 L 48.26 160.68 L 47.42 160.17 L 46.76 159.54 L 46.49 158.76 L 46.42 158.10 L 45.94 158.36 L 45.41 158.99 L 45.02 159.80 L 44.76 160.78 L 44.57 161.91 L 44.44 162.87 L 44.27 163.79 L 44.01 164.76 L 43.71 165.77 L 43.33 166.78 L 42.85 167.72 L 42.36 168.65 L 41.87 169.58 L 41.32 170.47 L 40.65 171.21 L 39.91 171.90 L 39.26 172.37 L 38.93 172.31 L 39.00 171.59 L 39.23 170.53 L 39.44 169.53 L 39.82 168.53 L 40.23 167.54 L 40.59 166.53 L 40.96 165.51 L 41.26 164.53 L 41.48 163.67 L 41.11 163.82 L 40.45 164.55 L 39.84 165.40 L 39.50 166.09 L 39.21 166.84 L 38.84 167.79 L 38.41 168.74 L 37.83 169.60 L 37.10 170.36 L 36.33 170.96 L 35.51 171.45 L 34.64 171.82 L 33.68 172.19 L 32.65 172.61 L 31.65 172.97 L 30.68 173.31 L 29.69 173.59 L 28.65 173.91 L 27.65 174.22 L 26.83 174.22 L 25.79 174.46 L 24.63 174.83 L 23.74 174.78 L 22.91 174.89 L 22.22 175.19 L 21.62 175.72 L 21.38 176.21 L 21.71 176.41 L 22.30 176.67 L 22.98 177.00 L 23.68 177.31" fill="none" stroke="#000000" stroke-width="0.5" stroke-linejoin="round" stroke-linecap="round"/>
</svg>