<?xml version="1.0" encoding="UTF-8"?>
<svg xmlns="http://www.w3.org/2000/svg" viewBox="19.78 140.00 45.84 42.22">
<path d="M 49.00 145.00 L 49.86 145.40 L 50.34 145.52 L 50.91 145.71 L 51.53 145.97 L 52.04 146.39 L 52.56 146.81 L 53.08 147.22 L 53.61 147.64 L 54.16 148.01 L 54.80 148.25 L 55.32 148.67 L 55.88 149.02 L 56.52 149.26 L 57.17 149.50 L 57.71 149.88 L 58.23 150.29 L 58.74 150.71 L 59.25 151.12 L 59.67 151.65 L 59.98 152.18 L 60.25 152.59 L 60.62 152.63 L 60.49 153.24 L 60.26 153.89 L 59.97 154.46 L 59.56 154.96 L 59.11 155.43 L 58.65 155.87 L 58.22 156.28 L 57.69 156.66 L 57.08 156.99 L 56.41 157.27 L 55.82 157.41 L 55.21 157.52 L 54.56 157.61 L 53.87 157.67 L 53.20 157.75 L 52.65 157.72 L 52.13 157.69 L 51.41 157.94 L 50.71 158.17 L 50.05 158.42 L 49.49 158.58 L 48.88 158.74 L 48.17 159.00 L 47.54 159.12 L 46.95 159.26 L 46.39 159.41 L 45.77 159.62 L 45.11 159.92 L 44.48 160.23 L 43.88 160.53 L 43.26 160.81 L 42.63 161.13 L 42.05 161.31 L 41.47 161.47 L 40.77 161.73 L 40.13 161.87 L 39.53 161.99 L 38.93 162.12 L 38.27 162.26 L 37.58 162.49 L 36.95 162.66 L 36.35 162.79 L 35.67 163.03 L 35.00 163.20 L 34.36 163.30 L 33.73 163.40 L 33.08 163.49 L 32.40 163.55 L 31.70 163.61 L 30.99 163.65 L 30.40 163.57 L 29.91 163.48 L 29.44 163.47 L 28.92 163.70 L 28.38 164.14 L 27.95 164.65 L 27.62 165.22 L 27.36 165.83 L 27.14 166.45 L 26.96 167.08 L 26.79 167.75 L 26.64 168.42 L 26.49 169.07 L 26.38 169.66 L 26.22 170.25 L 26.00 170.89 L 25.77 171.52 L 25.53 172.18 L 25.30 172.84 L 25.09 173.49 L 24.99 174.03 L 24.93 174.64 L 24.86 175.36 L 24.86 176.05 L 24.84 176.65 L 24.78 177.22" fill="none" stroke="#000000" stroke-width="0.5" stroke-linejoin="round" stroke-linecap="round"/>
</svg>