<?xml version="1.0" encoding="UTF-8"?>
<svg xmlns="http://www.w3.org/2000/svg" viewBox="20.41 140.00 33.59 42.80">
<path d="M 49.00 145.00 L 48.98 145.46 L 48.85 145.85 L 48.74 146.25 L 48.63 146.66 L 48.52 147.06 L 48.40 147.49 L 48.28 147.91 L 48.18 148.31 L 48.06 148.71 L 47.94 149.11 L 47.84 149.51 L 47.71 149.94 L 47.58 150.35 L 47.45 150.73 L 47.30 151.11 L 47.14 151.51 L 46.98 151.92 L 46.80 152.31 L 46.62 152.67 L 46.42 153.05 L 46.21 153.43 L 46.00 153.80 L 45.79 154.17 L 45.56 154.54 L 45.34 154.90 L 45.13 155.24 L 44.90 155.60 L 44.68 155.97 L 44.46 156.34 L 44.22 156.69 L 43.98 157.04 L 43.77 157.41 L 43.56 157.76 L 43.37 158.11 L 43.18 158.45 L 42.96 158.82 L 42.77 159.20 L 42.57 159.58 L 42.33 159.93 L 42.08 160.28 L 41.83 160.61 L 41.60 160.95 L 41.35 161.29 L 41.10 161.63 L 40.86 161.95 L 40.64 162.32 L 40.42 162.69 L 40.20 163.06 L 39.98 163.42 L 39.76 163.79 L 39.55 164.16 L 39.33 164.53 L 39.12 164.90 L 38.91 165.27 L 38.69 165.65 L 38.48 166.02 L 38.25 166.38 L 38.00 166.72 L 37.75 167.06 L 37.50 167.39 L 37.26 167.71 L 36.99 168.03 L 36.69 168.34 L 36.41 168.66 L 36.16 168.98 L 35.91 169.30 L 35.62 169.62 L 35.33 169.93 L 35.06 170.25 L 34.79 170.55 L 34.50 170.85 L 34.20 171.15 L 33.90 171.43 L 33.60 171.72 L 33.28 172.02 L 32.96 172.30 L 32.66 172.58 L 32.36 172.86 L 32.03 173.14 L 31.69 173.43 L 31.36 173.69 L 31.04 173.95 L 30.70 174.20 L 30.35 174.44 L 29.99 174.68 L 29.64 174.92 L 29.28 175.15 L 28.92 175.39 L 28.57 175.63 L 28.21 175.87 L 27.85 176.10 L 27.50 176.34 L 27.14 176.58 L 26.78 176.81 L 26.43 177.05 L 26.07 177.29 L 25.73 177.54 L 25.41 177.80" fill="none" stroke="#000000" stroke-width="0.5" stroke-linejoin="round" stroke-linecap="round"/>
</svg>