<?xml version="1.0" encoding="UTF-8"?>
<svg xmlns="http://www.w3.org/2000/svg" viewBox="20.37 140.00 41.72 42.58">
<path d="M 49.00 145.00 L 49.72 145.25 L 50.14 145.29 L 50.63 145.37 L 51.17 145.50 L 51.71 145.62 L 52.26 145.75 L 52.81 145.88 L 53.36 146.02 L 53.81 146.29 L 54.31 146.49 L 54.87 146.63 L 55.43 146.77 L 55.94 146.98 L 56.36 147.23 L 56.70 147.42 L 56.99 147.50 L 57.09 147.67 L 56.82 148.11 L 56.45 148.48 L 55.98 148.78 L 55.55 148.94 L 55.10 149.13 L 54.59 149.40 L 54.08 149.67 L 53.59 149.95 L 53.12 150.25 L 52.65 150.54 L 52.18 150.84 L 51.75 151.17 L 51.32 151.49 L 50.89 151.83 L 50.44 152.19 L 50.01 152.53 L 49.58 152.86 L 49.17 153.20 L 48.75 153.54 L 48.33 153.87 L 47.88 154.22 L 47.45 154.58 L 47.07 154.94 L 46.69 155.30 L 46.29 155.67 L 45.88 156.06 L 45.49 156.43 L 45.11 156.80 L 44.69 157.19 L 44.30 157.55 L 43.92 157.91 L 43.52 158.27 L 43.10 158.64 L 42.72 159.03 L 42.38 159.43 L 42.05 159.82 L 41.70 160.22 L 41.34 160.64 L 41.03 161.06 L 40.72 161.50 L 40.39 161.95 L 40.04 162.38 L 39.69 162.81 L 39.36 163.25 L 39.04 163.68 L 38.73 164.10 L 38.40 164.55 L 38.07 164.99 L 37.76 165.45 L 37.43 165.91 L 37.10 166.35 L 36.77 166.80 L 36.47 167.21 L 36.14 167.65 L 35.81 168.09 L 35.45 168.52 L 35.10 168.95 L 34.73 169.36 L 34.38 169.75 L 34.01 170.12 L 33.61 170.48 L 33.16 170.84 L 32.75 171.20 L 32.37 171.56 L 31.99 171.92 L 31.55 172.28 L 31.11 172.63 L 30.68 172.96 L 30.26 173.29 L 29.81 173.61 L 29.36 173.92 L 28.94 174.25 L 28.51 174.58 L 28.06 174.94 L 27.64 175.30 L 27.26 175.66 L 26.88 176.02 L 26.47 176.39 L 26.07 176.79 L 25.71 177.17 L 25.37 177.58" fill="none" stroke="#000000" stroke-width="0.5" stroke-linejoin="round" stroke-linecap="round"/>
</svg>