<?xml version="1.0" encoding="UTF-8"?>
<svg xmlns="http://www.w3.org/2000/svg" viewBox="16.67 140.00 37.76 42.82">
<path d="M 49.00 145.00 L 48.51 145.48 L 48.07 145.99 L 47.63 146.51 L 47.20 147.02 L 46.77 147.54 L 46.43 148.12 L 46.15 148.75 L 45.95 149.37 L 46.10 149.59 L 46.62 149.36 L 47.21 149.10 L 47.89 148.81 L 48.53 148.50 L 49.06 148.13 L 49.43 147.82 L 49.15 148.27 L 48.79 148.71 L 48.34 149.10 L 47.77 149.47 L 47.15 149.75 L 46.56 150.02 L 45.98 150.30 L 45.38 150.61 L 44.77 150.94 L 44.20 151.30 L 43.66 151.69 L 43.14 152.09 L 42.61 152.53 L 42.10 152.99 L 41.63 153.46 L 41.20 153.96 L 40.83 154.53 L 40.45 155.09 L 40.09 155.65 L 40.13 155.76 L 39.93 156.22 L 39.62 156.83 L 39.50 157.18 L 39.16 157.73 L 38.84 158.33 L 38.55 158.94 L 38.26 159.56 L 38.00 160.19 L 37.77 160.81 L 37.55 161.42 L 37.33 162.04 L 37.08 162.69 L 36.81 163.31 L 36.52 163.92 L 36.19 164.50 L 35.84 165.08 L 35.43 165.62 L 34.94 166.10 L 34.36 166.52 L 33.82 166.76 L 33.26 166.90 L 32.73 166.88 L 32.09 166.88 L 31.37 166.95 L 30.65 166.97 L 29.94 166.98 L 29.39 166.80 L 28.83 166.59 L 28.14 166.51 L 27.39 166.55 L 26.87 166.34 L 26.45 166.22 L 25.88 166.41 L 25.33 166.71 L 24.90 167.12 L 24.66 167.42 L 24.46 167.86 L 24.35 168.24 L 24.52 168.28 L 24.38 168.79 L 24.16 169.32 L 23.86 169.76 L 23.65 170.08 L 23.38 170.37 L 23.00 170.88 L 22.62 171.40 L 22.28 171.99 L 22.06 172.55 L 21.95 173.09 L 21.90 173.64 L 21.82 174.33 L 21.75 175.03 L 21.67 175.73 L 21.84 176.08 L 21.98 176.54 L 22.16 176.94 L 22.73 176.75 L 22.89 177.06 L 23.24 177.13 L 23.91 176.78 L 24.09 177.16 L 23.97 177.80 L 24.25 177.82" fill="none" stroke="#000000" stroke-width="0.5" stroke-linejoin="round" stroke-linecap="round"/>
</svg>