<?xml version="1.0" encoding="UTF-8"?>
<svg xmlns="http://www.w3.org/2000/svg" viewBox="19.89 140.00 34.11 42.52">
<path d="M 49.00 145.00 L 48.58 145.19 L 48.25 145.45 L 47.92 145.71 L 47.59 145.98 L 47.26 146.24 L 46.94 146.54 L 46.64 146.85 L 46.36 147.14 L 46.10 147.45 L 45.83 147.75 L 45.53 148.05 L 45.25 148.38 L 44.97 148.68 L 44.67 148.97 L 44.35 149.28 L 44.04 149.57 L 43.75 149.86 L 43.47 150.16 L 43.19 150.47 L 42.91 150.80 L 42.65 151.15 L 42.42 151.52 L 42.17 151.88 L 41.92 152.23 L 41.67 152.58 L 41.41 152.89 L 41.13 153.19 L 40.82 153.46 L 40.53 153.75 L 40.26 154.05 L 39.99 154.36 L 39.70 154.64 L 39.41 154.96 L 39.15 155.30 L 38.89 155.61 L 38.61 155.93 L 38.32 156.26 L 38.05 156.56 L 37.79 156.90 L 37.53 157.25 L 37.26 157.58 L 37.00 157.93 L 36.76 158.29 L 36.53 158.63 L 36.31 158.97 L 36.08 159.31 L 35.87 159.69 L 35.69 160.10 L 35.52 160.51 L 35.42 160.84 L 35.31 161.21 L 35.18 161.65 L 35.07 162.08 L 34.95 162.48 L 34.81 162.88 L 34.67 163.27 L 34.51 163.67 L 34.33 164.07 L 34.13 164.46 L 33.91 164.84 L 33.67 165.20 L 33.43 165.56 L 33.17 165.91 L 32.91 166.23 L 32.61 166.55 L 32.30 166.83 L 31.99 167.11 L 31.69 167.39 L 31.37 167.66 L 31.02 167.94 L 30.68 168.22 L 30.35 168.48 L 30.02 168.74 L 29.68 168.99 L 29.35 169.25 L 29.02 169.51 L 28.68 169.78 L 28.33 170.07 L 28.02 170.35 L 27.73 170.64 L 27.46 170.94 L 27.18 171.27 L 26.92 171.62 L 26.69 171.98 L 26.49 172.35 L 26.29 172.72 L 26.08 173.10 L 25.88 173.50 L 25.70 173.90 L 25.54 174.32 L 25.39 174.72 L 25.28 175.08 L 25.23 175.44 L 25.13 175.90 L 25.06 176.34 L 25.04 176.73 L 24.96 177.14 L 24.89 177.52" fill="none" stroke="#000000" stroke-width="0.5" stroke-linejoin="round" stroke-linecap="round"/>
</svg>