<?xml version="1.0" encoding="UTF-8"?>
<svg xmlns="http://www.w3.org/2000/svg" viewBox="14.27 140.00 39.73 42.40">
<path d="M 49.00 145.00 L 48.53 145.30 L 48.16 145.67 L 47.78 146.03 L 47.35 146.40 L 46.95 146.76 L 46.58 147.13 L 46.21 147.50 L 45.82 147.88 L 45.43 148.27 L 45.06 148.64 L 44.68 149.02 L 44.28 149.41 L 43.91 149.77 L 43.53 150.14 L 43.15 150.51 L 42.76 150.90 L 42.40 151.29 L 42.06 151.70 L 41.71 152.12 L 41.35 152.54 L 41.01 152.97 L 40.69 153.40 L 40.35 153.83 L 39.99 154.25 L 39.63 154.67 L 39.31 155.09 L 38.99 155.50 L 38.64 155.93 L 38.28 156.35 L 37.94 156.78 L 37.62 157.21 L 37.30 157.65 L 36.97 158.09 L 36.62 158.52 L 36.28 158.95 L 35.95 159.40 L 35.65 159.81 L 35.33 160.24 L 35.00 160.69 L 34.66 161.12 L 34.32 161.56 L 34.00 162.00 L 33.68 162.42 L 33.37 162.85 L 33.05 163.29 L 32.72 163.73 L 32.41 164.19 L 32.12 164.66 L 31.83 165.13 L 31.54 165.60 L 31.24 166.06 L 30.91 166.51 L 30.53 166.91 L 30.11 167.27 L 29.66 167.56 L 29.29 167.65 L 28.87 167.71 L 28.42 167.74 L 27.94 167.76 L 27.45 167.84 L 26.95 167.92 L 26.51 167.97 L 26.00 168.11 L 25.48 168.26 L 24.97 168.41 L 24.54 168.46 L 24.08 168.57 L 23.58 168.73 L 23.07 168.89 L 22.56 169.05 L 22.08 169.22 L 21.66 169.34 L 21.26 169.45 L 20.77 169.73 L 20.31 170.03 L 19.92 170.39 L 19.62 170.81 L 19.40 171.26 L 19.27 171.74 L 19.28 172.17 L 19.58 172.33 L 19.94 172.52 L 20.17 172.93 L 20.47 173.26 L 20.85 173.49 L 21.09 173.91 L 21.40 174.22 L 21.79 174.44 L 22.18 174.66 L 22.45 175.04 L 22.73 175.41 L 23.12 175.63 L 23.51 175.85 L 23.90 176.07 L 24.28 176.28 L 24.58 176.58 L 24.74 176.95 L 24.78 177.40" fill="none" stroke="#000000" stroke-width="0.5" stroke-linejoin="round" stroke-linecap="round"/>
</svg>