<?xml version="1.0" encoding="UTF-8"?>
<svg xmlns="http://www.w3.org/2000/svg" viewBox="20.55 140.00 34.76 42.80">
<path d="M 49.00 145.00 L 49.48 145.50 L 49.79 145.51 L 50.14 145.42 L 50.31 145.58 L 50.16 146.07 L 49.96 146.55 L 49.72 147.02 L 49.41 147.43 L 49.14 147.86 L 48.89 148.30 L 48.61 148.74 L 48.30 149.16 L 47.98 149.57 L 47.65 149.93 L 47.28 150.28 L 46.86 150.62 L 46.44 150.92 L 46.02 151.19 L 45.60 151.42 L 45.13 151.69 L 44.68 151.93 L 44.24 152.16 L 43.79 152.43 L 43.34 152.71 L 42.89 152.98 L 42.46 153.27 L 42.03 153.56 L 41.62 153.87 L 41.25 154.21 L 40.93 154.59 L 40.65 155.03 L 40.47 155.48 L 40.37 155.97 L 40.35 156.51 L 40.48 156.96 L 40.68 157.38 L 40.93 157.79 L 41.24 158.16 L 41.48 158.65 L 41.72 159.13 L 41.99 159.55 L 42.26 159.97 L 42.50 160.41 L 42.69 160.90 L 42.85 161.39 L 42.99 161.88 L 43.07 162.41 L 43.13 162.93 L 43.18 163.44 L 43.17 163.99 L 43.17 164.51 L 43.18 165.00 L 43.13 165.51 L 43.07 166.03 L 43.00 166.54 L 42.88 167.07 L 42.76 167.58 L 42.64 168.06 L 42.48 168.56 L 42.31 169.06 L 42.12 169.54 L 41.90 170.00 L 41.65 170.44 L 41.35 170.87 L 41.01 171.26 L 40.64 171.62 L 40.25 171.95 L 39.83 172.24 L 39.37 172.51 L 38.90 172.77 L 38.48 172.94 L 38.02 173.11 L 37.50 173.33 L 37.03 173.45 L 36.55 173.56 L 36.04 173.72 L 35.54 173.83 L 35.06 173.92 L 34.55 174.08 L 34.07 174.22 L 33.60 174.34 L 33.09 174.56 L 32.59 174.76 L 32.10 174.95 L 31.62 175.13 L 31.11 175.31 L 30.61 175.47 L 30.16 175.59 L 29.71 175.73 L 29.22 175.91 L 28.71 176.14 L 28.24 176.38 L 27.78 176.59 L 27.31 176.84 L 26.83 177.07 L 26.38 177.29 L 25.96 177.52 L 25.55 177.80" fill="none" stroke="#000000" stroke-width="0.5" stroke-linejoin="round" stroke-linecap="round"/>
</svg>