<?xml version="1.0" encoding="UTF-8"?>
<svg xmlns="http://www.w3.org/2000/svg" viewBox="19.94 140.00 34.06 42.24">
<path d="M 49.00 145.00 L 48.85 145.73 L 48.57 146.37 L 48.31 147.03 L 48.10 147.72 L 47.91 148.42 L 47.71 149.13 L 47.55 149.79 L 47.41 150.41 L 47.16 151.08 L 46.85 151.69 L 46.47 152.26 L 46.02 152.73 L 45.52 153.15 L 45.00 153.55 L 44.42 153.92 L 43.83 154.30 L 43.22 154.74 L 42.66 155.13 L 42.12 155.56 L 41.58 156.02 L 41.02 156.46 L 40.46 156.91 L 39.92 157.40 L 39.42 157.85 L 38.92 158.31 L 38.40 158.82 L 37.90 159.30 L 37.42 159.81 L 36.92 160.33 L 36.36 160.81 L 35.78 161.26 L 35.17 161.67 L 34.97 161.43 L 34.94 160.86 L 34.97 160.12 L 34.98 159.40 L 35.01 158.70 L 35.05 158.02 L 35.15 157.29 L 35.27 156.56 L 35.35 155.90 L 35.49 155.19 L 35.64 154.46 L 35.73 153.80 L 35.85 153.10 L 35.96 152.35 L 35.98 151.60 L 35.97 150.87 L 35.85 150.24 L 35.52 149.98 L 34.97 150.06 L 34.35 150.30 L 33.69 150.71 L 33.11 151.16 L 32.58 151.62 L 32.08 152.14 L 31.57 152.63 L 31.05 153.10 L 30.52 153.59 L 29.97 154.04 L 29.42 154.43 L 28.80 154.83 L 28.14 155.17 L 27.47 155.45 L 26.99 155.63 L 26.55 155.93 L 26.17 156.34 L 25.88 156.84 L 25.75 157.38 L 25.78 157.96 L 25.90 158.67 L 26.05 159.36 L 26.21 160.02 L 26.37 160.70 L 26.51 161.43 L 26.61 162.22 L 26.85 162.80 L 27.04 163.46 L 27.21 164.13 L 27.37 164.81 L 27.49 165.48 L 27.55 166.20 L 27.53 166.94 L 27.48 167.64 L 27.41 168.30 L 27.24 169.03 L 27.06 169.74 L 26.85 170.43 L 26.62 171.11 L 26.40 171.79 L 26.17 172.47 L 25.95 173.15 L 25.75 173.85 L 25.55 174.55 L 25.39 175.24 L 25.29 175.88 L 25.12 176.58 L 24.94 177.24" fill="none" stroke="#000000" stroke-width="0.5" stroke-linejoin="round" stroke-linecap="round"/>
</svg>