<?xml version="1.0" encoding="UTF-8"?>
<svg xmlns="http://www.w3.org/2000/svg" viewBox="17.17 140.00 36.83 42.40">
<path d="M 49.00 145.00 L 48.69 145.49 L 48.36 145.94 L 47.99 146.38 L 47.63 146.83 L 47.28 147.28 L 46.94 147.68 L 46.57 148.11 L 46.22 148.55 L 45.86 149.01 L 45.51 149.46 L 45.15 149.90 L 44.80 150.31 L 44.42 150.71 L 44.00 151.12 L 43.54 151.50 L 43.09 151.84 L 42.64 152.16 L 42.16 152.47 L 41.63 152.74 L 41.09 153.00 L 40.59 153.21 L 40.14 153.34 L 39.63 153.56 L 39.09 153.83 L 38.56 154.10 L 38.05 154.39 L 37.56 154.68 L 37.06 154.98 L 36.55 155.26 L 36.00 155.52 L 35.43 155.76 L 34.89 155.89 L 34.48 155.75 L 33.89 155.77 L 33.36 155.63 L 32.89 155.36 L 32.50 155.02 L 32.02 154.77 L 31.46 154.64 L 30.81 154.63 L 30.25 154.52 L 29.76 154.35 L 29.23 154.23 L 28.67 154.16 L 28.05 154.16 L 27.43 154.18 L 26.87 154.13 L 26.39 153.95 L 25.78 153.97 L 25.34 153.87 L 24.96 153.90 L 24.60 154.10 L 24.27 154.38 L 24.01 154.74 L 23.79 155.26 L 23.63 155.83 L 23.50 156.40 L 23.40 156.87 L 23.25 157.46 L 23.14 158.05 L 22.98 158.60 L 22.83 159.07 L 22.70 159.52 L 22.54 160.05 L 22.38 160.62 L 22.24 161.17 L 22.17 161.66 L 22.18 162.22 L 22.24 162.81 L 22.42 163.30 L 22.63 163.77 L 22.84 164.29 L 23.01 164.87 L 23.20 165.43 L 23.55 165.74 L 23.77 166.24 L 23.93 166.84 L 24.16 167.38 L 24.58 167.66 L 25.08 167.82 L 25.48 168.07 L 25.79 168.35 L 25.87 168.87 L 25.84 169.50 L 25.76 170.13 L 25.64 170.74 L 25.58 171.24 L 25.52 171.77 L 25.44 172.37 L 25.41 172.98 L 25.41 173.53 L 25.42 174.09 L 25.45 174.65 L 25.47 175.22 L 25.47 175.76 L 25.44 176.28 L 25.32 176.84 L 25.13 177.40" fill="none" stroke="#000000" stroke-width="0.5" stroke-linejoin="round" stroke-linecap="round"/>
</svg>