<?xml version="1.0" encoding="UTF-8"?>
<svg xmlns="http://www.w3.org/2000/svg" viewBox="13.37 140.00 46.54 42.76">
<path d="M 49.00 145.00 L 47.80 145.56 L 46.77 146.45 L 45.63 147.42 L 44.46 148.37 L 43.34 149.35 L 42.24 150.35 L 40.98 151.55 L 39.71 152.76 L 38.50 153.90 L 37.47 154.85 L 36.50 155.66 L 35.30 156.84 L 34.12 158.02 L 32.98 159.20 L 31.77 160.54 L 30.58 161.84 L 29.41 163.14 L 28.32 164.41 L 27.25 165.69 L 26.18 166.99 L 25.09 168.38 L 24.01 169.80 L 22.92 171.23 L 21.83 172.63 L 20.79 173.97 L 19.84 175.30 L 18.94 176.70 L 18.37 177.76 L 18.88 177.48 L 19.82 176.79 L 20.67 176.39 L 21.69 175.84 L 22.79 175.13 L 24.02 174.23 L 25.23 173.31 L 26.41 172.37 L 27.44 171.62 L 28.54 170.75 L 29.79 169.65 L 30.96 168.63 L 32.10 167.59 L 33.33 166.47 L 34.60 165.35 L 35.87 164.31 L 36.91 163.63 L 37.85 163.19 L 38.75 162.89 L 39.54 162.81 L 40.38 162.70 L 41.24 162.58 L 42.05 162.51 L 42.96 162.31 L 43.94 162.00 L 44.80 161.85 L 45.74 161.56 L 46.69 161.22 L 47.65 160.89 L 48.74 160.36 L 49.80 159.84 L 50.73 159.48 L 51.81 158.92 L 52.95 158.31 L 54.08 157.71 L 54.71 157.81 L 54.90 158.49 L 54.76 159.62 L 54.71 160.51 L 54.36 161.51 L 53.66 162.71 L 52.57 164.14 L 51.89 164.71 L 51.56 164.50 L 51.38 163.83 L 50.97 163.33 L 50.46 162.94 L 49.93 162.59 L 49.05 162.76 L 48.08 163.08 L 47.12 163.41 L 46.03 163.94 L 44.96 164.47 L 44.02 164.81 L 42.94 165.37 L 41.90 165.88 L 40.97 166.24 L 39.90 166.83 L 38.78 167.48 L 37.65 168.16 L 36.56 168.83 L 35.50 169.48 L 34.45 170.15 L 33.26 171.04 L 32.06 171.97 L 30.89 172.91 L 29.74 173.87 L 28.58 174.85 L 27.38 175.99 L 26.25 177.11" fill="none" stroke="#000000" stroke-width="0.5" stroke-linejoin="round" stroke-linecap="round"/>
</svg>