<?xml version="1.0" encoding="UTF-8"?>
<svg xmlns="http://www.w3.org/2000/svg" viewBox="15.12 140.00 38.88 41.92">
<path d="M 49.00 145.00 L 47.76 146.06 L 46.79 147.01 L 46.25 147.44 L 45.30 148.46 L 44.13 149.62 L 42.90 150.68 L 41.71 151.79 L 40.81 152.58 L 41.14 151.73 L 40.27 152.49 L 38.94 153.53 L 37.57 154.52 L 36.21 155.52 L 35.51 155.67 L 35.98 154.36 L 35.99 153.87 L 35.14 154.75 L 34.40 156.00 L 33.92 157.27 L 33.67 158.62 L 33.50 160.29 L 33.39 162.00 L 33.30 163.73 L 33.35 165.29 L 34.02 166.10 L 35.51 165.88 L 37.12 165.54 L 38.64 165.20 L 39.96 164.85 L 41.43 164.23 L 42.88 163.48 L 44.29 162.50 L 45.09 161.83 L 44.25 162.94 L 43.17 164.00 L 42.09 164.82 L 40.81 165.46 L 39.37 165.96 L 37.75 166.39 L 36.11 166.77 L 34.48 167.13 L 33.08 167.21 L 32.02 166.89 L 31.91 165.29 L 31.90 163.59 L 31.98 161.87 L 32.15 160.31 L 32.43 158.85 L 32.75 157.56 L 31.52 158.67 L 30.42 159.87 L 29.44 161.16 L 28.59 162.50 L 27.74 163.87 L 26.89 165.25 L 26.21 166.76 L 25.66 168.37 L 25.27 170.09 L 26.19 170.36 L 27.34 170.66 L 28.74 170.97 L 30.27 171.42 L 31.74 171.83 L 33.10 172.12 L 34.42 171.91 L 35.53 171.31 L 35.28 171.87 L 34.18 172.85 L 33.04 173.22 L 31.67 173.27 L 30.26 172.88 L 28.73 172.46 L 27.16 172.01 L 25.84 171.49 L 24.80 170.88 L 24.16 170.08 L 24.44 168.32 L 24.89 166.67 L 25.52 165.12 L 26.25 163.67 L 27.00 162.22 L 27.78 160.79 L 28.44 159.42 L 28.02 159.53 L 26.87 160.70 L 25.74 161.79 L 24.61 162.90 L 23.45 164.06 L 22.36 165.20 L 21.45 166.46 L 20.73 167.91 L 20.24 169.38 L 20.12 170.79 L 20.63 171.79 L 21.27 173.04 L 21.98 174.49 L 22.57 175.85 L 23.11 176.92" fill="none" stroke="#000000" stroke-width="0.5" stroke-linejoin="round" stroke-linecap="round"/>
</svg>