<?xml version="1.0" encoding="UTF-8"?>
<svg xmlns="http://www.w3.org/2000/svg" viewBox="19.36 140.00 34.74 41.94">
<path d="M 49.00 145.00 L 49.10 146.09 L 48.95 146.94 L 48.89 147.77 L 48.85 148.62 L 48.69 149.45 L 48.39 150.25 L 47.89 151.01 L 47.27 151.62 L 46.50 152.09 L 45.73 152.27 L 44.95 152.32 L 44.23 152.33 L 43.47 152.45 L 42.60 152.83 L 41.73 153.30 L 40.91 153.84 L 40.16 154.37 L 39.44 154.92 L 38.75 155.48 L 38.06 156.05 L 37.38 156.68 L 36.69 157.32 L 35.99 157.97 L 35.28 158.59 L 34.56 159.13 L 33.82 159.63 L 33.07 160.02 L 32.22 160.41 L 31.30 160.79 L 30.44 161.11 L 29.64 161.39 L 28.90 161.60 L 28.09 162.05 L 27.37 162.60 L 26.78 163.23 L 26.31 164.02 L 26.02 164.83 L 25.89 165.71 L 25.94 166.62 L 26.13 167.45 L 26.39 168.20 L 26.72 168.85 L 27.64 168.59 L 28.49 168.27 L 29.27 167.87 L 30.07 167.32 L 30.82 166.73 L 31.53 166.11 L 32.19 165.52 L 32.87 164.88 L 33.52 164.26 L 34.18 163.66 L 34.86 163.01 L 35.58 162.38 L 36.31 161.80 L 37.04 161.27 L 37.82 160.79 L 38.65 160.37 L 39.48 160.04 L 40.33 159.72 L 41.20 159.42 L 42.09 159.14 L 43.01 158.87 L 43.85 158.55 L 44.26 158.62 L 44.13 159.21 L 43.77 160.08 L 43.36 160.89 L 42.88 161.61 L 42.27 162.24 L 41.65 162.91 L 41.05 163.60 L 40.52 164.28 L 39.91 164.97 L 39.24 165.64 L 38.56 166.29 L 37.88 166.94 L 37.24 167.54 L 36.56 168.12 L 35.84 168.68 L 35.03 169.24 L 34.22 169.73 L 33.40 170.15 L 32.58 170.48 L 31.72 170.70 L 30.87 170.86 L 30.02 170.99 L 29.14 171.16 L 28.22 171.43 L 27.35 171.73 L 26.54 172.07 L 25.81 172.57 L 25.19 173.20 L 24.72 173.94 L 24.42 174.74 L 24.36 175.52 L 24.40 176.22 L 24.46 176.94" fill="none" stroke="#000000" stroke-width="0.5" stroke-linejoin="round" stroke-linecap="round"/>
</svg>