<?xml version="1.0" encoding="UTF-8"?>
<svg xmlns="http://www.w3.org/2000/svg" viewBox="19.85 140.00 41.86 42.34">
<path d="M 49.00 145.00 L 48.98 145.67 L 48.85 146.25 L 48.78 146.86 L 48.83 147.45 L 48.94 148.01 L 49.14 148.52 L 49.37 149.05 L 49.62 149.59 L 49.89 150.15 L 50.16 150.71 L 50.54 151.12 L 50.98 151.47 L 51.30 152.01 L 51.66 152.50 L 52.12 152.87 L 52.57 153.23 L 53.02 153.59 L 53.48 153.96 L 53.77 154.54 L 54.15 154.99 L 54.60 155.35 L 54.93 155.84 L 55.25 156.35 L 55.68 156.70 L 55.95 157.26 L 56.20 157.81 L 56.44 158.34 L 56.63 158.85 L 56.71 159.41 L 56.71 159.96 L 56.60 160.57 L 56.42 161.15 L 56.15 161.69 L 55.83 162.18 L 55.49 162.63 L 55.16 163.04 L 54.76 163.48 L 54.31 163.89 L 53.81 164.27 L 53.35 164.61 L 52.87 164.92 L 52.36 165.20 L 51.80 165.44 L 51.23 165.67 L 50.65 165.89 L 50.14 166.03 L 49.60 166.18 L 48.98 166.37 L 48.36 166.57 L 47.83 166.68 L 47.37 166.66 L 46.73 166.85 L 46.13 166.96 L 45.56 167.05 L 45.00 167.15 L 44.41 167.23 L 43.75 167.40 L 43.19 167.42 L 42.67 167.39 L 42.09 167.47 L 41.51 167.54 L 40.91 167.61 L 40.27 167.74 L 39.65 167.86 L 39.15 167.80 L 38.58 167.85 L 37.97 167.91 L 37.36 167.97 L 36.76 168.03 L 36.16 168.10 L 35.57 168.17 L 35.00 168.25 L 34.40 168.33 L 33.78 168.48 L 33.20 168.59 L 32.73 168.55 L 32.11 168.73 L 31.53 168.88 L 30.99 168.99 L 30.43 169.19 L 29.85 169.42 L 29.28 169.66 L 28.76 169.93 L 28.28 170.23 L 27.82 170.56 L 27.38 170.98 L 26.99 171.44 L 26.63 171.92 L 26.33 172.42 L 26.05 172.94 L 25.76 173.47 L 25.55 174.01 L 25.36 174.57 L 25.15 175.17 L 25.08 175.67 L 25.03 176.21 L 24.91 176.81 L 24.85 177.34" fill="none" stroke="#000000" stroke-width="0.5" stroke-linejoin="round" stroke-linecap="round"/>
</svg>