<?xml version="1.0" encoding="UTF-8"?>
<svg xmlns="http://www.w3.org/2000/svg" viewBox="19.89 140.00 34.11 42.51">
<path d="M 49.00 145.00 L 48.74 145.34 L 48.48 145.68 L 48.22 146.00 L 47.94 146.32 L 47.65 146.64 L 47.37 146.95 L 47.08 147.26 L 46.80 147.57 L 46.50 147.88 L 46.22 148.20 L 45.94 148.51 L 45.67 148.83 L 45.38 149.14 L 45.07 149.45 L 44.75 149.73 L 44.42 150.00 L 44.08 150.27 L 43.73 150.52 L 43.39 150.72 L 43.03 150.94 L 42.66 151.17 L 42.34 151.39 L 42.04 151.64 L 41.72 151.93 L 41.43 152.24 L 41.18 152.57 L 40.96 152.92 L 40.75 153.29 L 40.52 153.64 L 40.30 153.99 L 40.09 154.36 L 39.86 154.71 L 39.63 155.05 L 39.40 155.40 L 39.18 155.76 L 38.96 156.11 L 38.71 156.45 L 38.45 156.78 L 38.18 157.10 L 37.89 157.40 L 37.58 157.68 L 37.25 157.93 L 36.91 158.18 L 36.54 158.43 L 36.18 158.68 L 35.84 158.92 L 35.52 159.13 L 35.17 159.38 L 34.82 159.64 L 34.48 159.91 L 34.19 160.21 L 33.90 160.51 L 33.62 160.82 L 33.36 161.15 L 33.13 161.50 L 32.91 161.85 L 32.69 162.21 L 32.46 162.56 L 32.24 162.92 L 32.03 163.30 L 31.83 163.68 L 31.63 164.05 L 31.44 164.42 L 31.25 164.80 L 31.06 165.18 L 30.86 165.55 L 30.65 165.93 L 30.45 166.30 L 30.25 166.68 L 30.05 167.05 L 29.86 167.43 L 29.68 167.82 L 29.51 168.21 L 29.34 168.60 L 29.17 169.00 L 29.00 169.39 L 28.83 169.78 L 28.66 170.18 L 28.49 170.57 L 28.31 170.96 L 28.11 171.33 L 27.91 171.70 L 27.71 172.07 L 27.51 172.44 L 27.30 172.80 L 27.07 173.15 L 26.84 173.50 L 26.62 173.87 L 26.39 174.23 L 26.13 174.56 L 25.87 174.89 L 25.63 175.24 L 25.42 175.61 L 25.24 175.99 L 25.10 176.37 L 25.01 176.76 L 24.95 177.14 L 24.89 177.51" fill="none" stroke="#000000" stroke-width="0.5" stroke-linejoin="round" stroke-linecap="round"/>
</svg>