<?xml version="1.0" encoding="UTF-8"?>
<svg xmlns="http://www.w3.org/2000/svg" viewBox="20.22 140.00 33.78 42.73">
<path d="M 49.00 145.00 L 48.96 145.00 L 48.85 145.14 L 48.63 145.41 L 48.41 145.69 L 48.15 146.02 L 47.85 146.42 L 47.55 146.82 L 47.23 147.25 L 46.90 147.70 L 46.57 148.14 L 46.26 148.56 L 45.96 148.98 L 45.64 149.42 L 45.31 149.87 L 45.00 150.31 L 44.70 150.73 L 44.40 151.15 L 44.10 151.57 L 43.81 151.99 L 43.52 152.42 L 43.22 152.84 L 43.09 153.04 L 42.97 153.23 L 42.81 153.47 L 42.52 153.90 L 42.23 154.32 L 41.94 154.75 L 41.79 154.98 L 41.70 155.13 L 41.64 155.23 L 41.60 155.29 L 41.46 155.49 L 41.25 155.77 L 41.03 156.05 L 40.87 156.25 L 40.72 156.42 L 40.50 156.69 L 40.28 156.96 L 40.06 157.24 L 39.84 157.51 L 39.62 157.78 L 39.40 158.06 L 39.18 158.33 L 38.94 158.63 L 38.68 158.96 L 38.40 159.32 L 38.17 159.62 L 37.93 159.91 L 37.63 160.31 L 37.39 160.61 L 37.16 160.91 L 36.88 161.27 L 36.59 161.64 L 36.29 162.04 L 36.02 162.40 L 35.72 162.79 L 35.40 163.22 L 35.09 163.63 L 34.78 164.04 L 34.46 164.47 L 34.15 164.89 L 33.85 165.30 L 33.52 165.75 L 33.19 166.19 L 32.87 166.64 L 32.55 167.08 L 32.22 167.53 L 31.90 167.97 L 31.58 168.42 L 31.29 168.84 L 30.99 169.26 L 30.75 169.61 L 30.48 170.00 L 30.19 170.41 L 29.96 170.77 L 29.79 171.03 L 29.64 171.25 L 29.41 171.61 L 29.25 171.85 L 29.10 172.09 L 28.86 172.45 L 28.67 172.73 L 28.51 173.00 L 28.39 173.19 L 28.27 173.38 L 28.14 173.60 L 27.97 173.87 L 27.76 174.19 L 27.53 174.53 L 27.41 174.72 L 27.21 175.03 L 26.95 175.39 L 26.66 175.81 L 26.35 176.24 L 26.03 176.67 L 25.72 177.07 L 25.45 177.43 L 25.22 177.73" fill="none" stroke="#000000" stroke-width="0.5" stroke-linejoin="round" stroke-linecap="round"/>
</svg>