<?xml version="1.0" encoding="UTF-8"?>
<svg xmlns="http://www.w3.org/2000/svg" viewBox="20.38 140.00 43.14 42.11">
<path d="M 49.00 145.00 L 50.28 145.24 L 51.03 145.26 L 51.79 145.49 L 52.50 146.01 L 53.16 146.65 L 53.80 147.33 L 54.50 147.94 L 55.20 148.44 L 55.96 148.80 L 56.75 149.00 L 57.70 148.76 L 58.28 148.69 L 58.04 149.38 L 57.52 150.08 L 56.85 150.63 L 56.09 150.92 L 55.22 151.05 L 54.54 150.74 L 53.79 150.50 L 53.01 150.40 L 52.29 150.57 L 51.64 151.07 L 51.19 151.74 L 51.05 152.39 L 51.37 152.78 L 51.83 153.28 L 52.25 154.11 L 52.65 154.99 L 52.95 155.97 L 53.49 156.40 L 54.05 156.49 L 54.67 156.24 L 55.44 155.66 L 56.12 155.09 L 56.76 154.51 L 57.44 153.87 L 57.98 153.30 L 58.51 152.86 L 58.48 153.39 L 58.34 154.17 L 58.15 155.01 L 57.90 155.86 L 57.73 156.50 L 57.49 157.31 L 57.13 158.14 L 56.65 158.90 L 56.05 159.51 L 55.34 160.03 L 54.70 160.46 L 54.07 160.88 L 53.50 161.37 L 52.96 162.08 L 52.55 162.88 L 52.30 163.75 L 52.25 164.64 L 52.21 165.55 L 52.21 166.41 L 52.21 167.17 L 51.95 168.01 L 51.52 168.77 L 50.89 169.47 L 50.27 169.80 L 49.55 169.97 L 48.70 170.05 L 47.75 170.05 L 46.97 169.74 L 46.56 168.92 L 46.06 168.18 L 45.51 167.48 L 44.56 167.30 L 43.62 167.08 L 42.76 166.82 L 42.13 166.38 L 41.45 166.14 L 40.61 166.23 L 39.64 166.65 L 38.77 167.09 L 38.00 167.56 L 37.23 168.11 L 36.43 168.64 L 35.61 169.17 L 34.80 169.65 L 33.95 170.07 L 33.08 170.41 L 32.16 170.65 L 31.27 170.74 L 30.39 170.75 L 29.58 170.70 L 28.95 170.61 L 28.29 170.87 L 27.66 171.36 L 27.10 172.06 L 26.75 172.82 L 26.50 173.66 L 26.30 174.55 L 26.07 175.40 L 25.76 176.26 L 25.38 177.11" fill="none" stroke="#000000" stroke-width="0.5" stroke-linejoin="round" stroke-linecap="round"/>
</svg>