<?xml version="1.0" encoding="UTF-8"?>
<svg xmlns="http://www.w3.org/2000/svg" viewBox="13.71 140.00 40.29 42.26">
<path d="M 49.00 145.00 L 48.04 145.07 L 47.31 145.44 L 46.44 145.90 L 45.65 146.11 L 44.83 146.40 L 43.94 146.85 L 43.30 147.17 L 42.61 147.80 L 41.72 148.96 L 41.25 149.81 L 40.96 150.66 L 41.12 151.13 L 41.36 151.70 L 41.47 152.49 L 41.66 153.18 L 42.00 153.68 L 42.58 153.84 L 43.19 153.97 L 43.71 154.18 L 44.19 154.20 L 44.42 154.31 L 44.15 154.89 L 43.60 155.60 L 42.74 156.44 L 41.78 157.16 L 41.02 157.38 L 40.35 157.45 L 39.69 157.45 L 38.88 157.63 L 38.22 157.58 L 37.68 157.36 L 37.05 157.26 L 36.53 156.99 L 36.19 156.48 L 35.67 156.22 L 35.16 155.94 L 34.81 155.43 L 34.47 154.93 L 34.12 154.42 L 33.57 154.19 L 33.08 153.88 L 32.74 153.37 L 32.25 153.06 L 31.70 152.82 L 31.16 152.60 L 30.69 152.31 L 30.38 151.82 L 29.63 151.97 L 28.66 152.43 L 27.63 152.97 L 26.87 153.18 L 26.24 153.21 L 25.47 153.42 L 24.55 153.94 L 23.73 154.42 L 23.24 154.47 L 22.09 155.56 L 21.19 156.48 L 20.74 156.93 L 20.18 157.79 L 19.49 158.97 L 18.91 160.15 L 18.71 161.06 L 18.73 161.80 L 19.01 162.26 L 19.15 163.00 L 19.33 163.71 L 19.67 164.21 L 20.15 164.51 L 20.70 164.74 L 21.24 164.97 L 21.73 165.29 L 22.08 165.79 L 22.64 165.99 L 23.27 166.12 L 23.81 166.35 L 24.23 166.75 L 24.58 167.26 L 24.92 167.77 L 25.36 168.15 L 25.90 168.38 L 26.30 168.81 L 26.70 169.25 L 27.35 169.32 L 27.90 169.50 L 28.42 169.70 L 28.97 169.69 L 28.74 170.52 L 28.33 171.35 L 27.84 172.22 L 27.31 173.13 L 26.72 174.15 L 26.36 174.89 L 26.24 175.38 L 26.78 175.01 L 26.90 175.21 L 26.36 176.26 L 25.76 177.26" fill="none" stroke="#000000" stroke-width="0.5" stroke-linejoin="round" stroke-linecap="round"/>
</svg>