<?xml version="1.0" encoding="UTF-8"?>
<svg xmlns="http://www.w3.org/2000/svg" viewBox="20.82 140.00 33.33 41.91">
<path d="M 49.00 145.00 L 48.57 145.05 L 48.34 145.08 L 48.15 145.03 L 47.79 145.13 L 47.55 145.09 L 47.24 145.13 L 46.75 145.43 L 46.41 145.54 L 45.98 145.76 L 45.52 146.02 L 45.19 146.14 L 44.68 146.49 L 44.10 146.96 L 43.40 147.61 L 42.80 148.15 L 42.30 148.66 L 41.58 149.55 L 41.22 150.05 L 41.80 149.34 L 42.30 148.84 L 42.83 148.36 L 43.40 147.92 L 43.97 147.47 L 44.49 147.12 L 44.92 146.88 L 45.26 146.77 L 45.74 146.48 L 46.23 146.17 L 46.69 145.91 L 47.04 145.81 L 47.38 145.70 L 47.74 145.60 L 48.09 145.50 L 48.33 145.55 L 48.59 145.57 L 48.94 145.47 L 49.15 145.56 L 49.15 145.91 L 48.99 146.42 L 48.81 146.84 L 48.45 147.43 L 47.69 148.47 L 47.17 149.10 L 46.62 149.68 L 45.85 150.53 L 45.13 151.32 L 44.53 152.05 L 43.75 153.12 L 43.11 154.08 L 42.75 154.74 L 42.60 155.21 L 42.66 155.44 L 43.01 155.33 L 43.48 155.04 L 43.98 154.73 L 44.46 154.43 L 44.91 154.16 L 45.38 153.88 L 45.87 153.56 L 46.36 153.24 L 46.93 152.81 L 47.48 152.40 L 47.97 152.08 L 47.81 152.58 L 47.61 153.04 L 47.39 153.42 L 47.18 153.68 L 46.95 153.88 L 46.65 154.06 L 46.18 154.40 L 45.63 154.83 L 45.02 155.33 L 44.29 156.01 L 43.66 156.55 L 43.18 156.88 L 42.71 157.20 L 42.16 157.63 L 41.60 158.09 L 41.05 158.55 L 40.35 159.24 L 39.55 160.08 L 38.77 160.93 L 37.99 161.79 L 37.23 162.65 L 36.45 163.54 L 35.63 164.51 L 34.80 165.50 L 33.98 166.50 L 33.18 167.49 L 32.37 168.48 L 31.53 169.54 L 30.70 170.59 L 29.90 171.60 L 29.07 172.67 L 28.25 173.72 L 27.46 174.75 L 26.64 175.82 L 25.82 176.91" fill="none" stroke="#000000" stroke-width="0.5" stroke-linejoin="round" stroke-linecap="round"/>
</svg>