<?xml version="1.0" encoding="UTF-8"?>
<svg xmlns="http://www.w3.org/2000/svg" viewBox="20.22 140.00 33.78 42.65">
<path d="M 49.00 145.00 L 48.58 145.21 L 48.26 145.45 L 47.94 145.66 L 47.58 145.89 L 47.23 146.13 L 46.89 146.35 L 46.54 146.61 L 46.20 146.87 L 45.86 147.13 L 45.52 147.40 L 45.18 147.66 L 44.86 147.90 L 44.55 148.16 L 44.25 148.45 L 43.95 148.75 L 43.67 149.05 L 43.41 149.38 L 43.17 149.72 L 42.93 150.05 L 42.69 150.40 L 42.44 150.74 L 42.18 151.07 L 41.95 151.42 L 41.71 151.75 L 41.46 152.09 L 41.22 152.43 L 40.99 152.77 L 40.77 153.12 L 40.57 153.49 L 40.34 153.84 L 40.11 154.19 L 39.90 154.55 L 39.69 154.90 L 39.45 155.24 L 39.22 155.59 L 38.98 155.94 L 38.76 156.30 L 38.56 156.67 L 38.34 157.03 L 38.13 157.39 L 37.92 157.75 L 37.72 158.12 L 37.52 158.48 L 37.30 158.84 L 37.07 159.18 L 36.85 159.54 L 36.64 159.91 L 36.44 160.28 L 36.23 160.65 L 36.03 161.02 L 35.84 161.40 L 35.69 161.80 L 35.55 162.21 L 35.41 162.62 L 35.32 162.97 L 35.20 163.35 L 35.06 163.76 L 34.91 164.17 L 34.72 164.54 L 34.52 164.91 L 34.32 165.27 L 34.10 165.62 L 33.85 165.96 L 33.58 166.28 L 33.32 166.60 L 33.09 166.94 L 32.85 167.28 L 32.60 167.61 L 32.35 167.94 L 32.13 168.29 L 31.92 168.65 L 31.68 169.00 L 31.45 169.34 L 31.21 169.68 L 31.00 170.04 L 30.79 170.40 L 30.57 170.75 L 30.33 171.09 L 30.09 171.43 L 29.86 171.77 L 29.61 172.10 L 29.34 172.42 L 29.07 172.74 L 28.82 173.06 L 28.56 173.39 L 28.31 173.72 L 28.04 174.04 L 27.79 174.37 L 27.54 174.70 L 27.28 175.02 L 27.02 175.34 L 26.76 175.67 L 26.51 176.00 L 26.26 176.33 L 25.99 176.64 L 25.73 176.97 L 25.48 177.32 L 25.22 177.65" fill="none" stroke="#000000" stroke-width="0.5" stroke-linejoin="round" stroke-linecap="round"/>
</svg>