<?xml version="1.0" encoding="UTF-8"?>
<svg xmlns="http://www.w3.org/2000/svg" viewBox="14.35 140.00 44.26 42.65">
<path d="M 49.00 145.00 L 49.69 145.35 L 49.94 145.66 L 50.14 146.17 L 50.48 146.59 L 50.87 146.96 L 51.20 147.40 L 51.43 147.98 L 51.66 148.55 L 51.89 149.12 L 52.11 149.68 L 52.33 150.25 L 52.54 150.81 L 52.68 151.49 L 52.80 152.18 L 53.02 152.75 L 53.38 152.96 L 53.62 153.16 L 53.59 153.54 L 53.09 154.33 L 52.50 154.99 L 51.81 155.54 L 51.24 155.68 L 50.63 155.77 L 49.99 155.83 L 49.36 155.83 L 48.87 155.62 L 48.42 155.33 L 47.94 155.08 L 47.46 154.82 L 47.10 154.38 L 46.70 154.00 L 46.31 153.63 L 45.95 153.19 L 45.54 152.84 L 45.16 152.44 L 44.81 152.01 L 44.57 151.43 L 44.15 151.11 L 43.70 150.82 L 43.47 150.24 L 43.07 149.89 L 42.71 149.48 L 42.33 149.13 L 41.67 149.19 L 41.02 149.25 L 40.42 149.34 L 39.73 149.59 L 39.04 149.87 L 38.20 150.39 L 37.46 150.83 L 36.80 151.20 L 36.18 151.60 L 35.46 152.13 L 34.69 152.72 L 33.92 153.32 L 33.18 153.94 L 32.54 154.44 L 31.93 154.90 L 31.22 155.54 L 30.52 156.19 L 29.83 156.87 L 29.15 157.59 L 28.46 158.32 L 27.79 159.00 L 27.10 159.65 L 26.39 160.28 L 25.69 160.83 L 24.99 161.34 L 24.29 161.84 L 23.57 162.36 L 22.87 162.85 L 22.15 163.42 L 21.45 164.04 L 20.83 164.64 L 20.26 165.39 L 19.75 166.24 L 19.35 167.10 L 19.41 167.55 L 19.74 167.77 L 20.14 167.99 L 20.48 168.41 L 20.65 169.04 L 20.79 169.71 L 21.00 170.27 L 21.21 170.83 L 21.33 171.51 L 21.46 172.19 L 21.67 172.75 L 21.89 173.32 L 22.12 173.89 L 22.38 174.41 L 22.77 174.77 L 23.00 175.34 L 23.23 175.92 L 23.52 176.42 L 23.87 176.84 L 24.07 177.34 L 24.31 177.65" fill="none" stroke="#000000" stroke-width="0.5" stroke-linejoin="round" stroke-linecap="round"/>
</svg>