<?xml version="1.0" encoding="UTF-8"?>
<svg xmlns="http://www.w3.org/2000/svg" viewBox="17.19 140.00 50.43 42.20">
<path d="M 49.00 145.00 L 47.85 145.05 L 47.15 145.43 L 46.44 145.80 L 45.64 146.31 L 44.91 146.99 L 44.35 147.78 L 43.96 148.72 L 43.83 149.58 L 43.86 150.44 L 44.18 151.19 L 44.62 152.02 L 45.16 152.83 L 45.81 153.51 L 46.55 154.07 L 47.32 154.59 L 48.35 154.77 L 49.37 154.93 L 50.33 155.15 L 51.18 155.49 L 52.13 155.68 L 53.11 155.81 L 54.07 155.93 L 55.03 155.97 L 56.00 155.94 L 57.04 155.81 L 58.09 155.68 L 59.02 155.47 L 59.65 155.34 L 59.87 155.49 L 59.63 156.02 L 59.18 156.59 L 58.51 157.20 L 57.80 157.79 L 57.16 158.46 L 56.66 159.30 L 56.43 160.06 L 56.41 160.87 L 56.54 161.80 L 56.94 162.61 L 57.66 163.06 L 58.49 163.39 L 59.43 163.60 L 60.44 163.74 L 61.38 163.76 L 62.12 163.69 L 62.62 163.59 L 62.42 164.08 L 61.87 164.75 L 61.24 165.20 L 60.45 165.55 L 59.51 165.98 L 58.58 166.37 L 57.64 166.76 L 56.66 167.15 L 55.70 167.39 L 54.75 167.51 L 54.38 166.74 L 53.99 165.94 L 53.40 165.40 L 52.48 165.31 L 51.44 165.44 L 50.42 165.59 L 49.46 165.78 L 48.55 166.00 L 47.66 166.24 L 46.67 166.62 L 45.68 167.00 L 44.72 167.35 L 43.86 167.61 L 42.99 167.87 L 42.12 168.12 L 41.14 168.49 L 40.16 168.86 L 39.22 169.24 L 38.35 169.53 L 37.47 169.79 L 36.46 170.17 L 35.51 170.42 L 34.58 170.63 L 33.65 170.84 L 32.69 171.03 L 31.70 171.19 L 30.70 171.35 L 29.70 171.52 L 28.84 171.48 L 27.89 171.56 L 26.87 171.71 L 25.86 171.85 L 24.93 172.01 L 24.17 172.12 L 23.47 172.48 L 22.81 173.13 L 22.31 173.98 L 22.19 174.75 L 22.34 175.53 L 22.86 176.12 L 23.39 176.70 L 23.85 177.20" fill="none" stroke="#000000" stroke-width="0.5" stroke-linejoin="round" stroke-linecap="round"/>
</svg>