<?xml version="1.0" encoding="UTF-8"?>
<svg xmlns="http://www.w3.org/2000/svg" viewBox="18.83 140.00 35.17 42.72">
<path d="M 49.00 145.00 L 48.59 145.29 L 48.25 145.63 L 47.89 145.96 L 47.51 146.27 L 47.11 146.58 L 46.72 146.88 L 46.35 147.13 L 45.97 147.40 L 45.56 147.69 L 45.13 147.97 L 44.74 148.25 L 44.38 148.50 L 43.99 148.79 L 43.59 149.09 L 43.18 149.38 L 42.78 149.68 L 42.39 149.97 L 42.01 150.21 L 41.59 150.47 L 41.14 150.73 L 40.73 150.94 L 40.34 151.15 L 39.92 151.36 L 39.45 151.60 L 39.01 151.81 L 38.57 152.01 L 38.13 152.21 L 37.69 152.37 L 37.24 152.54 L 36.78 152.72 L 36.32 152.90 L 35.87 153.09 L 35.44 153.29 L 35.00 153.49 L 34.56 153.70 L 34.10 153.94 L 33.66 154.14 L 33.22 154.33 L 32.76 154.52 L 32.28 154.68 L 31.83 154.81 L 31.45 154.85 L 30.99 155.02 L 30.54 155.21 L 30.12 155.41 L 29.70 155.68 L 29.29 155.97 L 28.90 156.28 L 28.53 156.59 L 28.16 156.92 L 27.79 157.24 L 27.42 157.56 L 27.05 157.88 L 26.68 158.20 L 26.31 158.52 L 25.94 158.84 L 25.59 159.18 L 25.28 159.54 L 25.00 159.92 L 24.75 160.34 L 24.55 160.76 L 24.42 161.18 L 24.29 161.65 L 24.19 162.14 L 24.14 162.61 L 24.05 163.12 L 23.99 163.57 L 23.97 163.99 L 23.91 164.49 L 23.86 165.02 L 23.83 165.51 L 23.85 165.96 L 23.87 166.42 L 23.88 166.94 L 23.93 167.41 L 23.98 167.88 L 24.05 168.33 L 24.07 168.86 L 24.13 169.36 L 24.21 169.86 L 24.30 170.32 L 24.44 170.75 L 24.59 171.18 L 24.71 171.66 L 24.81 172.17 L 24.92 172.67 L 25.09 173.10 L 25.23 173.57 L 25.39 174.03 L 25.57 174.48 L 25.75 174.93 L 25.92 175.37 L 26.07 175.79 L 26.12 176.19 L 26.05 176.59 L 25.90 176.99 L 25.70 177.36 L 25.43 177.72" fill="none" stroke="#000000" stroke-width="0.5" stroke-linejoin="round" stroke-linecap="round"/>
</svg>