<?xml version="1.0" encoding="UTF-8"?>
<svg xmlns="http://www.w3.org/2000/svg" viewBox="18.36 140.00 35.64 42.82">
<path d="M 49.00 145.00 L 48.54 145.53 L 48.10 146.12 L 47.62 146.70 L 47.11 147.25 L 46.69 147.66 L 46.94 147.09 L 47.20 146.52 L 47.47 145.95 L 47.37 145.80 L 46.88 146.19 L 46.47 146.44 L 46.50 146.04 L 46.61 145.59 L 46.69 145.15 L 46.39 145.11 L 45.81 145.46 L 45.16 145.93 L 44.80 146.11 L 44.51 146.23 L 44.02 146.53 L 43.36 146.99 L 42.84 147.23 L 42.34 147.45 L 41.83 147.66 L 41.45 147.57 L 40.95 147.66 L 40.46 147.89 L 40.35 147.72 L 40.17 147.74 L 39.70 148.16 L 39.18 148.65 L 38.73 149.16 L 38.43 149.53 L 38.11 149.88 L 37.60 150.43 L 37.10 151.02 L 36.65 151.63 L 36.23 152.28 L 35.88 152.84 L 35.51 153.39 L 35.21 153.84 L 35.03 154.16 L 34.65 154.76 L 34.25 155.41 L 33.83 156.05 L 33.41 156.59 L 33.01 157.10 L 32.58 157.64 L 32.16 158.13 L 31.67 158.61 L 31.10 159.13 L 30.56 159.61 L 30.05 160.10 L 29.55 160.60 L 29.01 161.07 L 28.47 161.63 L 27.98 162.19 L 27.53 162.74 L 27.18 163.18 L 26.93 163.52 L 26.51 164.17 L 26.12 164.84 L 25.71 165.49 L 25.36 166.04 L 25.52 165.93 L 26.06 165.38 L 26.64 164.85 L 27.14 164.32 L 27.50 163.96 L 27.62 163.91 L 27.24 164.50 L 26.82 165.12 L 26.37 165.74 L 25.93 166.28 L 25.49 166.89 L 25.08 167.52 L 24.72 168.16 L 24.39 168.85 L 24.10 169.51 L 23.88 170.12 L 23.65 170.81 L 23.43 171.55 L 23.38 172.13 L 23.36 172.65 L 23.53 172.92 L 23.74 173.19 L 23.70 173.71 L 23.52 174.41 L 23.52 174.84 L 24.13 174.44 L 24.55 174.28 L 24.76 174.45 L 24.78 174.89 L 24.67 175.58 L 24.61 176.23 L 24.62 176.78 L 24.54 177.36 L 24.50 177.82" fill="none" stroke="#000000" stroke-width="0.5" stroke-linejoin="round" stroke-linecap="round"/>
</svg>