<?xml version="1.0" encoding="UTF-8"?>
<svg xmlns="http://www.w3.org/2000/svg" viewBox="20.16 140.00 33.84 42.59">
<path d="M 49.00 145.00 L 48.87 145.35 L 48.61 145.71 L 48.35 146.06 L 48.07 146.41 L 47.76 146.73 L 47.45 147.05 L 47.14 147.38 L 46.83 147.70 L 46.52 148.02 L 46.20 148.34 L 45.89 148.66 L 45.57 148.98 L 45.23 149.27 L 44.88 149.57 L 44.55 149.84 L 44.25 150.08 L 43.91 150.36 L 43.56 150.65 L 43.23 150.95 L 42.91 151.27 L 42.60 151.59 L 42.29 151.91 L 41.96 152.23 L 41.62 152.53 L 41.27 152.82 L 40.95 153.09 L 40.64 153.32 L 40.30 153.61 L 39.95 153.91 L 39.61 154.21 L 39.27 154.51 L 38.93 154.80 L 38.59 155.09 L 38.28 155.32 L 37.94 155.58 L 37.56 155.85 L 37.18 156.12 L 36.85 156.37 L 36.55 156.61 L 36.23 156.93 L 35.92 157.25 L 35.63 157.58 L 35.40 157.94 L 35.19 158.32 L 34.99 158.72 L 34.81 159.11 L 34.66 159.48 L 34.52 159.89 L 34.41 160.34 L 34.37 160.75 L 34.34 161.18 L 34.36 161.62 L 34.48 162.02 L 34.61 162.43 L 34.72 162.83 L 34.89 163.06 L 34.93 163.37 L 34.77 163.78 L 34.54 164.15 L 34.25 164.45 L 33.93 164.68 L 33.58 164.88 L 33.20 165.07 L 32.79 165.32 L 32.44 165.54 L 32.11 165.77 L 31.76 166.07 L 31.44 166.38 L 31.14 166.71 L 30.87 167.06 L 30.62 167.41 L 30.40 167.78 L 30.16 168.15 L 29.95 168.53 L 29.75 168.91 L 29.55 169.32 L 29.36 169.71 L 29.18 170.09 L 29.03 170.44 L 28.83 170.84 L 28.64 171.23 L 28.44 171.62 L 28.21 172.00 L 27.98 172.36 L 27.74 172.71 L 27.46 173.06 L 27.19 173.41 L 26.94 173.78 L 26.71 174.16 L 26.52 174.56 L 26.38 174.89 L 26.25 175.24 L 26.14 175.61 L 25.97 176.04 L 25.80 176.45 L 25.61 176.83 L 25.38 177.22 L 25.16 177.59" fill="none" stroke="#000000" stroke-width="0.5" stroke-linejoin="round" stroke-linecap="round"/>
</svg>