<?xml version="1.0" encoding="UTF-8"?>
<svg xmlns="http://www.w3.org/2000/svg" viewBox="20.51 140.00 33.49 42.61">
<path d="M 49.00 145.00 L 48.47 145.33 L 48.09 145.78 L 47.74 146.25 L 47.41 146.76 L 47.15 147.30 L 46.98 147.88 L 46.91 148.49 L 46.89 149.11 L 46.99 149.66 L 47.12 150.22 L 47.27 150.79 L 47.41 151.36 L 47.50 151.89 L 47.46 152.42 L 47.26 152.93 L 46.90 153.42 L 46.47 153.72 L 45.97 153.90 L 45.57 153.70 L 45.23 153.26 L 44.82 152.87 L 44.33 152.54 L 43.98 152.04 L 43.46 151.80 L 42.88 151.65 L 42.24 151.61 L 41.61 151.58 L 40.99 151.55 L 40.38 151.53 L 39.75 151.50 L 39.12 151.46 L 38.51 151.39 L 38.02 151.14 L 37.38 151.06 L 36.79 150.90 L 36.26 150.64 L 35.69 150.47 L 35.18 150.25 L 34.67 150.09 L 34.11 150.11 L 33.55 150.30 L 33.06 150.62 L 32.65 151.04 L 32.33 151.56 L 32.16 152.08 L 32.09 152.66 L 32.10 153.27 L 32.23 153.84 L 32.40 154.43 L 32.60 155.03 L 33.01 155.38 L 33.39 155.78 L 33.71 156.27 L 33.94 156.90 L 34.21 157.46 L 34.50 157.97 L 34.73 158.57 L 34.99 159.15 L 35.29 159.67 L 35.61 160.18 L 35.95 160.67 L 36.28 161.16 L 36.59 161.64 L 36.80 162.13 L 36.90 162.69 L 36.91 163.32 L 36.81 163.97 L 36.67 164.57 L 36.52 165.09 L 36.27 165.67 L 36.02 166.24 L 35.74 166.79 L 35.43 167.31 L 35.10 167.83 L 34.75 168.33 L 34.38 168.83 L 34.01 169.30 L 33.62 169.74 L 33.21 170.18 L 32.81 170.63 L 32.42 171.07 L 32.08 171.58 L 31.77 172.11 L 31.50 172.66 L 31.31 173.19 L 31.11 173.68 L 30.86 174.19 L 30.55 174.69 L 30.17 175.13 L 29.70 175.51 L 29.19 175.82 L 28.65 176.03 L 28.10 176.22 L 27.54 176.42 L 27.00 176.63 L 26.50 176.87 L 25.99 177.22 L 25.51 177.61" fill="none" stroke="#000000" stroke-width="0.5" stroke-linejoin="round" stroke-linecap="round"/>
</svg>