<?xml version="1.0" encoding="UTF-8"?>
<svg xmlns="http://www.w3.org/2000/svg" viewBox="14.81 140.00 39.19 42.54">
<path d="M 49.00 145.00 L 48.31 145.27 L 47.77 145.59 L 47.23 145.85 L 46.64 146.07 L 46.02 146.28 L 45.42 146.49 L 44.82 146.71 L 44.21 146.92 L 43.56 147.20 L 42.96 147.44 L 42.44 147.54 L 41.82 147.79 L 41.22 148.04 L 40.77 148.19 L 40.29 148.53 L 39.81 148.96 L 39.37 149.44 L 39.04 150.00 L 38.80 150.62 L 38.66 151.30 L 38.61 151.93 L 38.70 152.38 L 38.83 152.75 L 38.84 153.30 L 38.69 153.99 L 38.49 154.64 L 38.23 155.26 L 37.94 155.85 L 37.68 156.46 L 37.49 157.12 L 37.38 157.78 L 37.37 158.44 L 37.59 158.88 L 37.89 159.35 L 38.24 159.85 L 38.52 160.51 L 39.02 160.80 L 39.40 161.16 L 39.63 161.60 L 39.63 162.26 L 39.52 162.92 L 39.29 163.55 L 38.98 164.13 L 38.64 164.68 L 38.31 165.20 L 37.97 165.75 L 37.65 166.32 L 37.39 166.93 L 37.22 167.57 L 37.14 168.17 L 37.16 168.71 L 37.16 169.33 L 37.18 170.01 L 37.22 170.70 L 37.19 171.34 L 37.11 171.83 L 37.05 172.04 L 36.75 172.37 L 36.40 172.54 L 35.98 172.61 L 35.40 172.62 L 34.73 172.63 L 33.99 172.71 L 33.33 172.70 L 32.78 172.53 L 32.21 172.35 L 31.50 172.30 L 30.91 172.06 L 30.34 171.78 L 29.79 171.50 L 29.24 171.22 L 28.69 170.96 L 28.01 170.94 L 27.34 170.93 L 26.71 170.94 L 26.05 171.10 L 25.47 171.15 L 24.83 171.32 L 24.17 171.59 L 23.63 171.67 L 23.02 171.86 L 22.36 172.14 L 21.84 172.23 L 21.32 172.41 L 20.78 172.74 L 20.30 173.17 L 19.96 173.69 L 19.81 174.20 L 19.84 174.69 L 20.14 175.01 L 20.60 175.33 L 20.98 175.85 L 21.51 176.20 L 22.09 176.50 L 22.67 176.80 L 23.25 177.10 L 23.76 177.35 L 24.19 177.54" fill="none" stroke="#000000" stroke-width="0.5" stroke-linejoin="round" stroke-linecap="round"/>
</svg>