<?xml version="1.0" encoding="UTF-8"?>
<svg xmlns="http://www.w3.org/2000/svg" viewBox="15.64 140.00 44.50 42.44">
<path d="M 49.00 145.00 L 49.46 146.30 L 49.49 147.34 L 49.63 148.48 L 50.44 148.89 L 51.18 149.47 L 51.83 150.24 L 52.19 151.47 L 53.02 152.05 L 53.94 152.28 L 54.81 152.30 L 55.14 152.84 L 54.99 153.82 L 54.61 154.91 L 54.14 155.93 L 53.55 156.85 L 52.95 157.75 L 52.44 158.74 L 52.06 159.83 L 51.79 160.91 L 51.70 161.81 L 51.79 162.59 L 51.88 163.54 L 51.83 164.73 L 51.81 165.81 L 51.79 166.84 L 51.59 168.05 L 51.36 169.01 L 50.98 169.77 L 50.30 170.50 L 49.69 170.83 L 49.14 170.66 L 48.50 170.18 L 47.75 169.47 L 46.94 168.72 L 45.99 168.16 L 44.97 167.71 L 43.99 167.22 L 43.01 166.76 L 42.02 166.35 L 40.92 166.13 L 39.83 165.96 L 38.75 165.80 L 37.60 165.78 L 36.44 165.82 L 35.40 165.69 L 34.30 165.67 L 33.15 165.73 L 32.12 165.64 L 31.04 165.65 L 29.92 165.73 L 28.74 165.85 L 27.58 165.93 L 26.45 166.01 L 25.85 165.51 L 25.50 164.77 L 25.43 163.72 L 25.58 162.49 L 25.81 161.36 L 26.06 160.32 L 26.33 159.19 L 26.50 158.01 L 26.56 156.83 L 26.15 156.23 L 25.35 156.16 L 24.55 156.20 L 23.58 156.38 L 22.69 156.82 L 21.99 157.42 L 21.69 157.82 L 21.36 158.59 L 21.08 159.47 L 20.80 160.49 L 20.72 161.65 L 20.64 162.83 L 20.70 163.85 L 20.79 164.93 L 20.91 166.06 L 21.13 167.19 L 21.45 168.22 L 21.85 169.19 L 22.26 170.16 L 22.69 171.15 L 23.20 172.05 L 24.39 172.02 L 25.53 172.06 L 26.59 172.21 L 27.67 172.37 L 28.77 172.55 L 29.76 172.65 L 30.51 172.71 L 31.00 172.76 L 30.84 173.36 L 30.30 174.16 L 29.59 174.85 L 28.69 175.47 L 27.74 176.08 L 26.85 176.73 L 26.02 177.44" fill="none" stroke="#000000" stroke-width="0.5" stroke-linejoin="round" stroke-linecap="round"/>
</svg>