<?xml version="1.0" encoding="UTF-8"?>
<svg xmlns="http://www.w3.org/2000/svg" viewBox="14.53 140.00 39.47 42.75">
<path d="M 49.00 145.00 L 48.94 145.57 L 48.72 146.09 L 48.51 146.63 L 48.31 147.18 L 48.09 147.72 L 47.86 148.25 L 47.63 148.78 L 47.36 149.31 L 47.09 149.82 L 46.81 150.32 L 46.48 150.81 L 46.15 151.30 L 45.81 151.78 L 45.45 152.24 L 45.09 152.71 L 44.73 153.18 L 44.36 153.63 L 43.99 154.09 L 43.63 154.56 L 43.27 155.03 L 42.90 155.48 L 42.53 155.94 L 42.16 156.40 L 41.78 156.86 L 41.39 157.30 L 40.99 157.74 L 40.59 158.16 L 40.19 158.56 L 39.77 158.98 L 39.35 159.37 L 38.91 159.76 L 38.46 160.16 L 38.02 160.51 L 37.57 160.85 L 37.11 161.20 L 36.63 161.51 L 36.14 161.82 L 35.64 162.12 L 35.16 162.39 L 34.69 162.61 L 34.17 162.89 L 33.63 163.14 L 33.12 163.34 L 32.61 163.52 L 32.14 163.62 L 31.63 163.74 L 31.07 163.90 L 30.55 163.99 L 30.04 164.06 L 29.52 164.12 L 28.99 164.17 L 28.45 164.22 L 27.98 164.15 L 27.51 164.08 L 26.97 164.08 L 26.50 163.96 L 26.03 163.83 L 25.55 163.70 L 25.07 163.57 L 24.62 163.39 L 24.21 163.22 L 23.79 163.13 L 23.48 163.00 L 23.01 163.19 L 22.52 163.54 L 22.07 163.94 L 21.70 164.40 L 21.36 164.88 L 21.04 165.36 L 20.76 165.86 L 20.50 166.39 L 20.28 166.91 L 20.10 167.41 L 19.91 167.97 L 19.79 168.53 L 19.70 169.07 L 19.63 169.60 L 19.58 170.15 L 19.55 170.71 L 19.53 171.28 L 19.55 171.85 L 19.62 172.36 L 19.72 172.85 L 19.89 173.29 L 20.04 173.79 L 20.17 174.34 L 20.44 174.73 L 20.72 175.10 L 20.97 175.53 L 21.29 175.88 L 21.61 176.24 L 21.87 176.68 L 22.29 176.91 L 22.71 177.14 L 23.14 177.35 L 23.63 177.49 L 24.01 177.65 L 24.36 177.75" fill="none" stroke="#000000" stroke-width="0.5" stroke-linejoin="round" stroke-linecap="round"/>
</svg>