<?xml version="1.0" encoding="UTF-8"?>
<svg xmlns="http://www.w3.org/2000/svg" viewBox="20.40 140.00 33.99 42.81">
<path d="M 49.00 145.00 L 49.30 145.51 L 49.35 145.82 L 49.39 146.14 L 49.36 146.52 L 49.25 146.93 L 49.08 147.35 L 48.87 147.76 L 48.58 148.10 L 48.25 148.40 L 47.92 148.70 L 47.77 148.75 L 47.55 148.88 L 47.18 149.15 L 46.78 149.41 L 46.42 149.70 L 46.09 150.00 L 45.74 150.28 L 45.36 150.56 L 44.99 150.79 L 44.61 150.99 L 44.23 151.19 L 43.82 151.38 L 43.40 151.55 L 42.97 151.72 L 42.54 151.88 L 42.15 152.03 L 41.81 152.15 L 41.44 152.37 L 41.07 152.64 L 40.74 152.96 L 40.45 153.30 L 40.19 153.67 L 39.96 154.04 L 39.74 154.43 L 39.53 154.83 L 39.32 155.22 L 39.11 155.60 L 38.92 156.01 L 38.74 156.44 L 38.57 156.86 L 38.43 157.26 L 38.33 157.67 L 38.22 158.13 L 38.14 158.55 L 38.06 158.91 L 37.93 159.34 L 37.80 159.79 L 37.65 160.23 L 37.51 160.61 L 37.36 161.02 L 37.22 161.46 L 37.09 161.90 L 36.95 162.31 L 36.81 162.69 L 36.64 163.11 L 36.46 163.53 L 36.28 163.95 L 36.07 164.34 L 35.86 164.73 L 35.67 165.13 L 35.50 165.57 L 35.34 166.00 L 35.20 166.39 L 35.11 166.74 L 34.99 167.16 L 34.87 167.60 L 34.76 168.00 L 34.60 168.42 L 34.43 168.84 L 34.26 169.26 L 34.07 169.66 L 33.87 170.06 L 33.64 170.45 L 33.40 170.81 L 33.14 171.17 L 32.86 171.51 L 32.58 171.86 L 32.26 172.19 L 31.91 172.49 L 31.56 172.78 L 31.21 173.05 L 30.88 173.29 L 30.54 173.53 L 30.18 173.81 L 29.82 174.10 L 29.48 174.40 L 29.14 174.71 L 28.79 175.00 L 28.44 175.29 L 28.09 175.54 L 27.73 175.78 L 27.37 176.06 L 27.02 176.33 L 26.71 176.59 L 26.37 176.90 L 26.02 177.20 L 25.68 177.51 L 25.40 177.81" fill="none" stroke="#000000" stroke-width="0.5" stroke-linejoin="round" stroke-linecap="round"/>
</svg>