<?xml version="1.0" encoding="UTF-8"?>
<svg xmlns="http://www.w3.org/2000/svg" viewBox="13.60 140.00 40.67 42.73">
<path d="M 49.00 145.00 L 49.02 145.80 L 48.99 146.27 L 49.10 146.59 L 49.27 146.81 L 49.17 147.38 L 48.88 148.20 L 48.46 149.19 L 48.14 150.03 L 47.91 150.66 L 47.94 150.92 L 47.70 151.58 L 47.23 152.51 L 46.74 153.41 L 46.23 154.27 L 45.66 155.14 L 45.09 155.97 L 44.51 156.80 L 43.89 157.64 L 43.27 158.45 L 42.61 159.25 L 41.93 160.04 L 41.30 160.77 L 40.64 161.49 L 39.94 162.22 L 39.21 162.97 L 38.57 163.58 L 37.94 164.15 L 37.23 164.81 L 36.52 165.41 L 35.86 165.96 L 35.19 166.50 L 34.50 167.02 L 33.79 167.54 L 33.16 167.94 L 32.65 168.14 L 32.06 168.45 L 31.42 168.79 L 30.77 169.12 L 30.21 169.35 L 29.68 169.55 L 29.03 169.88 L 28.40 170.19 L 27.83 170.43 L 27.29 170.61 L 26.67 170.91 L 26.07 171.17 L 25.60 171.24 L 24.94 171.56 L 24.36 171.76 L 23.89 171.80 L 23.52 171.70 L 23.07 171.70 L 22.57 171.75 L 22.07 171.81 L 21.81 171.54 L 21.69 171.09 L 21.63 170.53 L 21.58 169.98 L 21.39 169.61 L 21.18 169.32 L 21.07 169.00 L 21.08 168.63 L 20.72 168.91 L 20.08 169.72 L 19.54 170.55 L 19.15 171.35 L 18.86 172.14 L 18.60 172.96 L 18.67 173.39 L 18.88 173.68 L 19.05 174.05 L 19.29 174.35 L 19.66 174.49 L 20.16 174.43 L 20.66 174.38 L 21.15 174.32 L 21.65 174.26 L 22.15 174.20 L 22.65 174.15 L 22.88 174.46 L 23.04 174.86 L 23.17 175.31 L 23.74 175.15 L 24.23 175.12 L 24.61 175.22 L 24.99 175.33 L 25.27 175.58 L 25.66 175.68 L 26.18 175.60 L 26.75 175.45 L 27.21 175.45 L 27.52 175.51 L 27.76 175.52 L 27.64 175.85 L 27.26 176.37 L 26.78 176.88 L 26.28 177.32 L 25.73 177.73" fill="none" stroke="#000000" stroke-width="0.5" stroke-linejoin="round" stroke-linecap="round"/>
</svg>