<?xml version="1.0" encoding="UTF-8"?>
<svg xmlns="http://www.w3.org/2000/svg" viewBox="20.35 140.00 33.65 42.73">
<path d="M 49.00 145.00 L 48.69 145.30 L 48.39 145.60 L 48.07 145.89 L 47.77 146.16 L 47.49 146.40 L 47.18 146.68 L 46.86 146.97 L 46.53 147.26 L 46.21 147.54 L 45.89 147.84 L 45.60 148.09 L 45.32 148.33 L 45.00 148.62 L 44.68 148.91 L 44.38 149.22 L 44.09 149.53 L 43.81 149.85 L 43.52 150.16 L 43.24 150.48 L 42.95 150.79 L 42.67 151.11 L 42.41 151.44 L 42.16 151.78 L 41.91 152.12 L 41.68 152.45 L 41.44 152.78 L 41.19 153.12 L 40.94 153.46 L 40.67 153.78 L 40.41 154.11 L 40.16 154.46 L 39.91 154.80 L 39.67 155.12 L 39.44 155.45 L 39.21 155.81 L 39.00 156.18 L 38.77 156.53 L 38.53 156.86 L 38.28 157.20 L 38.03 157.54 L 37.80 157.89 L 37.56 158.24 L 37.31 158.59 L 37.08 158.91 L 36.85 159.24 L 36.63 159.61 L 36.42 159.97 L 36.20 160.33 L 35.99 160.67 L 35.78 161.03 L 35.57 161.39 L 35.37 161.73 L 35.13 162.08 L 34.92 162.45 L 34.70 162.81 L 34.48 163.16 L 34.32 163.46 L 34.11 163.83 L 33.92 164.19 L 33.75 164.56 L 33.54 164.93 L 33.35 165.30 L 33.17 165.66 L 32.96 166.03 L 32.77 166.39 L 32.59 166.76 L 32.40 167.14 L 32.23 167.52 L 32.05 167.89 L 31.88 168.25 L 31.71 168.63 L 31.53 169.02 L 31.37 169.40 L 31.18 169.76 L 30.99 170.13 L 30.83 170.50 L 30.63 170.88 L 30.44 171.24 L 30.26 171.61 L 30.05 171.97 L 29.85 172.34 L 29.68 172.70 L 29.47 173.07 L 29.26 173.43 L 29.05 173.77 L 28.81 174.11 L 28.56 174.45 L 28.30 174.78 L 28.02 175.10 L 27.74 175.42 L 27.45 175.73 L 27.17 176.05 L 26.87 176.35 L 26.55 176.64 L 26.23 176.93 L 25.94 177.19 L 25.66 177.44 L 25.35 177.73" fill="none" stroke="#000000" stroke-width="0.5" stroke-linejoin="round" stroke-linecap="round"/>
</svg>