<?xml version="1.0" encoding="UTF-8"?>
<svg xmlns="http://www.w3.org/2000/svg" viewBox="20.03 140.00 39.17 41.66">
<path d="M 49.00 145.00 L 47.93 145.11 L 47.05 145.64 L 46.13 146.09 L 45.44 146.07 L 44.63 146.24 L 44.14 146.10 L 44.27 145.38 L 43.51 146.16 L 42.78 147.17 L 42.33 148.08 L 42.16 148.88 L 42.49 149.26 L 43.30 149.12 L 43.63 149.66 L 43.96 150.19 L 44.29 150.72 L 44.40 151.56 L 44.48 152.44 L 44.56 153.32 L 44.84 153.93 L 45.18 154.46 L 45.51 155.00 L 45.91 155.46 L 46.37 155.83 L 46.82 156.21 L 46.98 156.99 L 47.19 157.71 L 47.75 157.94 L 48.26 158.24 L 48.71 158.62 L 49.17 159.00 L 49.62 159.37 L 50.25 159.50 L 51.12 159.29 L 51.80 159.30 L 52.50 159.08 L 53.27 158.49 L 54.20 157.43 L 53.15 158.80 L 52.09 159.91 L 51.18 160.53 L 50.49 160.59 L 49.74 160.68 L 48.89 160.87 L 48.44 160.49 L 48.07 160.00 L 47.72 159.47 L 47.26 159.09 L 46.81 158.72 L 46.31 158.40 L 45.75 158.17 L 45.48 157.53 L 45.37 156.69 L 44.92 156.31 L 44.55 155.82 L 44.23 155.26 L 44.08 154.47 L 43.78 153.89 L 43.50 153.28 L 43.47 152.35 L 43.41 151.60 L 43.28 151.21 L 42.68 151.72 L 41.59 152.95 L 40.71 153.89 L 39.71 155.01 L 39.51 155.02 L 39.51 154.65 L 39.63 153.91 L 38.86 154.20 L 37.58 155.20 L 36.16 156.45 L 34.68 157.81 L 33.11 159.29 L 31.81 160.42 L 31.10 160.75 L 31.66 159.31 L 32.38 157.61 L 33.16 155.84 L 34.01 154.23 L 33.57 154.62 L 32.71 155.80 L 32.63 156.03 L 32.20 156.87 L 31.32 158.46 L 30.31 160.43 L 29.21 162.50 L 28.10 164.60 L 27.54 165.96 L 27.05 167.32 L 26.77 168.47 L 26.52 169.65 L 26.29 170.85 L 25.95 172.21 L 25.49 173.73 L 25.47 174.65 L 25.37 175.55 L 25.03 176.66" fill="none" stroke="#000000" stroke-width="0.5" stroke-linejoin="round" stroke-linecap="round"/>
</svg>