<?xml version="1.0" encoding="UTF-8"?>
<svg xmlns="http://www.w3.org/2000/svg" viewBox="18.98 140.00 43.86 42.08">
<path d="M 49.00 145.00 L 50.01 145.60 L 50.55 145.86 L 51.17 146.18 L 51.89 146.56 L 52.60 146.95 L 53.43 147.14 L 54.21 147.34 L 54.86 147.68 L 55.27 148.31 L 55.49 149.20 L 55.74 150.02 L 56.01 150.77 L 56.29 151.49 L 56.54 152.26 L 56.75 153.09 L 56.94 153.95 L 57.15 154.76 L 57.40 155.50 L 57.66 156.21 L 57.84 156.99 L 57.84 157.71 L 57.72 158.36 L 57.54 158.96 L 57.33 159.52 L 57.02 160.15 L 56.59 160.85 L 56.13 161.46 L 55.73 162.09 L 55.25 162.72 L 54.67 163.30 L 53.97 163.76 L 53.79 163.22 L 53.38 162.80 L 52.82 162.52 L 52.11 162.44 L 51.39 162.36 L 50.98 161.90 L 50.06 162.20 L 49.34 162.28 L 49.07 161.75 L 49.02 160.92 L 48.93 160.14 L 48.74 159.59 L 47.98 159.83 L 47.11 160.16 L 46.21 160.47 L 45.44 160.57 L 44.88 160.37 L 44.42 160.03 L 43.97 159.78 L 43.23 160.05 L 42.51 160.48 L 41.82 161.00 L 41.20 161.56 L 40.58 162.13 L 39.91 162.63 L 39.78 162.17 L 39.81 161.32 L 39.51 160.87 L 39.09 160.61 L 38.48 160.63 L 37.60 160.96 L 36.81 161.38 L 36.18 161.77 L 35.74 162.02 L 35.09 162.58 L 34.46 163.14 L 33.80 163.64 L 33.17 164.16 L 32.54 164.71 L 32.04 165.06 L 31.48 165.48 L 30.87 166.05 L 30.27 166.60 L 29.72 167.17 L 29.18 167.79 L 28.61 168.37 L 28.06 168.93 L 27.54 169.58 L 27.06 170.21 L 26.61 170.84 L 26.13 171.42 L 25.55 171.97 L 24.90 172.51 L 24.72 172.30 L 24.63 171.82 L 24.65 171.21 L 24.76 170.56 L 24.73 170.40 L 24.33 171.03 L 24.07 171.72 L 24.01 172.41 L 24.00 173.22 L 23.98 174.13 L 24.08 174.95 L 24.21 175.76 L 24.32 176.47 L 24.45 177.08" fill="none" stroke="#000000" stroke-width="0.5" stroke-linejoin="round" stroke-linecap="round"/>
</svg>