<?xml version="1.0" encoding="UTF-8"?>
<svg xmlns="http://www.w3.org/2000/svg" viewBox="20.06 140.00 33.94 42.58">
<path d="M 49.00 145.00 L 48.67 145.27 L 48.39 145.59 L 48.10 145.89 L 47.81 146.18 L 47.52 146.50 L 47.24 146.81 L 46.96 147.13 L 46.67 147.45 L 46.38 147.77 L 46.09 148.06 L 45.79 148.35 L 45.48 148.65 L 45.20 148.90 L 44.91 149.15 L 44.58 149.44 L 44.25 149.73 L 43.98 150.00 L 43.72 150.26 L 43.39 150.55 L 43.07 150.84 L 42.79 151.13 L 42.56 151.39 L 42.31 151.73 L 42.07 152.08 L 41.87 152.46 L 41.74 152.85 L 41.63 153.24 L 41.54 153.64 L 41.47 154.06 L 41.39 154.47 L 41.30 154.88 L 41.21 155.28 L 41.09 155.70 L 40.95 156.12 L 40.82 156.50 L 40.68 156.90 L 40.51 157.30 L 40.36 157.68 L 40.20 158.05 L 40.00 158.44 L 39.80 158.82 L 39.60 159.18 L 39.39 159.56 L 39.20 159.95 L 39.01 160.33 L 38.83 160.67 L 38.65 161.02 L 38.44 161.40 L 38.23 161.78 L 38.00 162.14 L 37.76 162.49 L 37.51 162.84 L 37.27 163.19 L 37.02 163.54 L 36.78 163.89 L 36.53 164.24 L 36.29 164.59 L 36.04 164.93 L 35.77 165.27 L 35.49 165.60 L 35.23 165.92 L 34.97 166.23 L 34.70 166.56 L 34.42 166.89 L 34.16 167.22 L 33.89 167.56 L 33.61 167.88 L 33.33 168.20 L 33.05 168.50 L 32.78 168.81 L 32.50 169.12 L 32.20 169.43 L 31.89 169.74 L 31.60 170.05 L 31.33 170.35 L 31.09 170.61 L 30.79 170.91 L 30.47 171.20 L 30.15 171.50 L 29.87 171.80 L 29.58 172.09 L 29.26 172.38 L 28.94 172.67 L 28.64 172.95 L 28.34 173.24 L 28.03 173.53 L 27.72 173.83 L 27.43 174.12 L 27.16 174.44 L 26.89 174.76 L 26.60 175.09 L 26.34 175.42 L 26.10 175.77 L 25.86 176.11 L 25.64 176.47 L 25.44 176.84 L 25.23 177.22 L 25.06 177.58" fill="none" stroke="#000000" stroke-width="0.5" stroke-linejoin="round" stroke-linecap="round"/>
</svg>