<?xml version="1.0" encoding="UTF-8"?>
<svg xmlns="http://www.w3.org/2000/svg" viewBox="16.06 140.00 40.07 42.01">
<path d="M 49.00 145.00 L 49.10 145.17 L 48.45 146.01 L 47.85 146.81 L 47.31 147.64 L 46.70 148.51 L 46.71 148.58 L 47.39 147.85 L 48.20 147.22 L 49.16 146.64 L 50.17 146.06 L 50.84 145.83 L 51.13 145.94 L 50.89 146.64 L 50.39 147.57 L 49.77 148.39 L 49.01 149.06 L 48.17 149.67 L 47.32 150.28 L 46.48 150.89 L 45.62 151.52 L 44.74 152.19 L 43.88 152.83 L 43.04 153.44 L 42.19 154.05 L 41.35 154.66 L 40.51 155.27 L 39.65 155.90 L 38.80 156.58 L 37.99 157.27 L 37.20 157.92 L 36.39 158.63 L 35.58 159.34 L 34.82 160.01 L 34.06 160.74 L 33.27 161.46 L 32.47 162.20 L 31.72 162.95 L 31.01 163.66 L 30.27 164.41 L 29.53 165.18 L 28.80 165.96 L 28.10 166.76 L 27.41 167.57 L 26.69 168.36 L 25.94 169.13 L 25.20 169.90 L 24.49 170.62 L 23.79 171.34 L 23.04 172.11 L 22.33 172.90 L 21.66 173.73 L 21.06 174.61 L 21.22 174.56 L 21.95 173.78 L 22.66 173.04 L 23.38 172.34 L 24.11 171.58 L 24.86 170.81 L 25.59 170.03 L 26.30 169.23 L 27.04 168.46 L 27.78 167.69 L 28.51 166.95 L 29.23 166.24 L 30.01 165.50 L 30.81 164.77 L 31.59 164.04 L 32.32 163.30 L 33.04 162.59 L 33.82 161.85 L 34.63 161.13 L 35.41 160.39 L 36.18 159.71 L 36.95 159.02 L 37.73 158.28 L 38.17 157.95 L 37.68 158.82 L 37.10 159.71 L 36.50 160.59 L 35.80 161.40 L 35.11 162.21 L 34.46 163.05 L 33.84 163.83 L 33.24 164.60 L 32.63 165.39 L 31.97 166.23 L 31.36 167.10 L 30.75 167.97 L 30.15 168.84 L 29.55 169.72 L 28.98 170.59 L 28.48 171.44 L 27.96 172.36 L 27.46 173.31 L 26.99 174.25 L 26.47 175.18 L 25.96 176.10 L 25.45 177.01" fill="none" stroke="#000000" stroke-width="0.5" stroke-linejoin="round" stroke-linecap="round"/>
</svg>