<?xml version="1.0" encoding="UTF-8"?>
<svg xmlns="http://www.w3.org/2000/svg" viewBox="20.25 140.00 33.75 43.00">
<path d="M 49.00 145.00 L 48.66 145.35 L 48.36 145.71 L 48.12 146.01 L 47.86 146.36 L 47.64 146.69 L 47.48 146.96 L 47.33 147.27 L 47.17 147.60 L 46.99 147.96 L 46.76 148.31 L 46.51 148.63 L 46.25 148.92 L 46.11 149.01 L 46.02 149.04 L 45.90 149.10 L 45.58 149.47 L 45.30 149.85 L 45.03 150.24 L 44.79 150.65 L 44.56 151.06 L 44.33 151.46 L 44.13 151.84 L 43.92 152.23 L 43.70 152.64 L 43.50 153.02 L 43.30 153.41 L 43.07 153.83 L 42.87 154.21 L 42.66 154.58 L 42.42 154.99 L 42.17 155.41 L 41.92 155.83 L 41.67 156.22 L 41.42 156.62 L 41.17 157.02 L 40.91 157.44 L 40.66 157.85 L 40.41 158.25 L 40.16 158.64 L 39.91 159.05 L 39.65 159.47 L 39.40 159.87 L 39.15 160.27 L 38.90 160.67 L 38.65 161.08 L 38.39 161.50 L 38.14 161.90 L 37.90 162.30 L 37.65 162.70 L 37.41 163.10 L 37.16 163.51 L 36.90 163.92 L 36.64 164.33 L 36.39 164.72 L 36.13 165.14 L 35.87 165.55 L 35.63 165.95 L 35.38 166.35 L 35.14 166.76 L 34.90 167.16 L 34.67 167.57 L 34.44 167.98 L 34.20 168.39 L 33.99 168.79 L 33.79 169.16 L 33.57 169.57 L 33.36 169.96 L 33.15 170.34 L 32.93 170.74 L 32.70 171.15 L 32.47 171.56 L 32.22 171.97 L 31.97 172.36 L 31.71 172.75 L 31.44 173.14 L 31.15 173.52 L 30.85 173.90 L 30.53 174.26 L 30.21 174.61 L 29.93 174.89 L 29.63 175.19 L 29.31 175.50 L 29.02 175.77 L 28.71 176.06 L 28.38 176.36 L 28.07 176.62 L 27.78 176.85 L 27.49 177.07 L 27.22 177.25 L 26.97 177.40 L 26.71 177.53 L 26.45 177.67 L 26.22 177.75 L 26.02 177.80 L 25.82 177.84 L 25.62 177.88 L 25.43 177.93 L 25.25 178.00" fill="none" stroke="#000000" stroke-width="0.5" stroke-linejoin="round" stroke-linecap="round"/>
</svg>