<?xml version="1.0" encoding="UTF-8"?>
<svg xmlns="http://www.w3.org/2000/svg" viewBox="19.98 140.00 34.02 42.50">
<path d="M 49.00 145.00 L 48.44 145.01 L 48.07 145.14 L 47.68 145.24 L 47.25 145.33 L 46.83 145.44 L 46.41 145.55 L 45.97 145.72 L 45.54 145.91 L 45.17 146.05 L 44.78 146.25 L 44.40 146.48 L 44.01 146.73 L 43.65 147.00 L 43.31 147.29 L 42.99 147.60 L 42.68 147.93 L 42.37 148.26 L 42.06 148.59 L 41.75 148.92 L 41.46 149.26 L 41.17 149.58 L 40.87 149.90 L 40.58 150.24 L 40.32 150.60 L 40.11 150.98 L 39.94 151.40 L 39.81 151.81 L 39.70 152.22 L 39.65 152.58 L 39.59 152.96 L 39.47 153.42 L 39.31 153.85 L 39.12 154.26 L 38.91 154.65 L 38.67 155.03 L 38.39 155.38 L 38.08 155.71 L 37.76 155.97 L 37.41 156.20 L 37.05 156.43 L 36.67 156.58 L 36.26 156.75 L 35.83 156.96 L 35.44 157.10 L 35.06 157.28 L 34.68 157.50 L 34.31 157.70 L 33.93 157.97 L 33.56 158.25 L 33.21 158.53 L 32.89 158.83 L 32.56 159.13 L 32.22 159.43 L 31.91 159.76 L 31.61 160.09 L 31.32 160.42 L 31.05 160.77 L 30.78 161.12 L 30.51 161.48 L 30.26 161.86 L 30.01 162.23 L 29.77 162.61 L 29.55 163.00 L 29.34 163.39 L 29.14 163.80 L 28.98 164.23 L 28.85 164.67 L 28.71 165.11 L 28.63 165.47 L 28.56 165.83 L 28.42 166.28 L 28.28 166.72 L 28.12 167.15 L 27.96 167.57 L 27.82 168.01 L 27.72 168.48 L 27.64 168.91 L 27.63 169.25 L 27.72 169.50 L 27.64 169.98 L 27.55 170.44 L 27.44 170.84 L 27.26 171.25 L 27.07 171.66 L 26.88 172.08 L 26.67 172.48 L 26.47 172.88 L 26.27 173.27 L 26.09 173.68 L 25.93 174.10 L 25.77 174.54 L 25.62 174.97 L 25.50 175.37 L 25.39 175.79 L 25.28 176.25 L 25.20 176.69 L 25.10 177.10 L 24.98 177.50" fill="none" stroke="#000000" stroke-width="0.5" stroke-linejoin="round" stroke-linecap="round"/>
</svg>