<?xml version="1.0" encoding="UTF-8"?>
<svg xmlns="http://www.w3.org/2000/svg" viewBox="13.68 140.00 40.32 42.37">
<path d="M 49.00 145.00 L 47.90 145.49 L 47.04 146.15 L 46.11 146.77 L 45.23 147.21 L 44.40 147.57 L 43.69 147.74 L 42.97 147.90 L 42.28 148.03 L 41.64 148.07 L 40.76 148.43 L 40.11 148.48 L 39.84 148.00 L 39.40 147.75 L 38.97 147.47 L 38.68 146.97 L 38.34 146.58 L 37.92 146.31 L 37.34 146.28 L 36.50 146.66 L 35.64 147.31 L 35.01 147.88 L 34.25 148.88 L 34.44 148.81 L 34.87 148.65 L 35.24 148.79 L 35.64 149.09 L 35.99 149.47 L 36.27 149.96 L 36.31 150.74 L 36.24 151.57 L 36.28 152.22 L 35.91 153.36 L 35.18 154.85 L 35.12 155.33 L 34.62 156.30 L 33.73 157.73 L 32.80 159.15 L 31.78 160.53 L 30.72 161.88 L 29.66 163.18 L 28.58 164.39 L 27.49 165.50 L 26.44 166.45 L 25.42 167.27 L 24.49 167.88 L 23.62 168.35 L 22.78 168.73 L 22.02 168.96 L 21.42 169.10 L 21.00 169.19 L 20.77 169.25 L 20.27 169.93 L 19.83 170.75 L 19.92 171.11 L 20.53 170.98 L 21.37 170.65 L 22.13 170.44 L 22.87 170.26 L 23.59 170.13 L 24.24 170.09 L 24.84 170.14 L 25.38 170.28 L 25.98 170.32 L 26.45 170.56 L 26.89 170.84 L 27.48 170.89 L 27.94 170.99 L 28.23 171.08 L 28.18 171.36 L 27.35 172.49 L 27.16 172.48 L 26.78 172.47 L 26.23 172.47 L 25.62 172.42 L 25.07 172.28 L 24.59 172.06 L 24.07 171.90 L 23.50 171.81 L 22.90 171.77 L 22.32 171.74 L 21.62 171.95 L 20.86 172.43 L 20.11 173.15 L 19.41 174.06 L 18.68 175.23 L 18.79 175.49 L 19.30 175.42 L 20.01 175.25 L 20.63 175.24 L 21.28 175.22 L 22.05 175.01 L 22.68 175.01 L 23.14 175.25 L 23.42 175.75 L 23.78 176.14 L 24.15 176.51 L 24.37 176.97 L 24.54 177.37" fill="none" stroke="#000000" stroke-width="0.5" stroke-linejoin="round" stroke-linecap="round"/>
</svg>