<?xml version="1.0" encoding="UTF-8"?>
<svg xmlns="http://www.w3.org/2000/svg" viewBox="20.39 140.00 33.61 42.76">
<path d="M 49.00 145.00 L 49.00 145.46 L 48.88 145.86 L 48.78 146.29 L 48.67 146.74 L 48.61 147.12 L 48.53 147.53 L 48.41 147.96 L 48.31 148.38 L 48.19 148.80 L 48.06 149.23 L 47.92 149.66 L 47.81 150.06 L 47.69 150.47 L 47.56 150.89 L 47.44 151.30 L 47.30 151.71 L 47.15 152.13 L 46.99 152.55 L 46.83 152.95 L 46.66 153.36 L 46.49 153.76 L 46.33 154.17 L 46.16 154.58 L 45.99 154.98 L 45.80 155.37 L 45.63 155.78 L 45.46 156.19 L 45.30 156.59 L 45.14 156.97 L 44.98 157.37 L 44.81 157.77 L 44.64 158.17 L 44.46 158.57 L 44.26 158.96 L 44.05 159.34 L 43.85 159.73 L 43.65 160.11 L 43.45 160.50 L 43.26 160.89 L 43.06 161.28 L 42.87 161.66 L 42.69 162.06 L 42.49 162.47 L 42.31 162.86 L 42.12 163.25 L 41.92 163.63 L 41.72 164.01 L 41.51 164.40 L 41.29 164.79 L 41.07 165.16 L 40.82 165.51 L 40.57 165.87 L 40.33 166.23 L 40.08 166.58 L 39.82 166.92 L 39.57 167.26 L 39.30 167.60 L 39.04 167.94 L 38.78 168.28 L 38.52 168.62 L 38.26 168.97 L 37.98 169.31 L 37.70 169.65 L 37.44 170.00 L 37.18 170.35 L 36.91 170.68 L 36.63 171.00 L 36.33 171.31 L 36.04 171.63 L 35.75 171.95 L 35.45 172.26 L 35.14 172.57 L 34.82 172.88 L 34.51 173.19 L 34.21 173.49 L 33.89 173.79 L 33.57 174.09 L 33.23 174.37 L 32.88 174.65 L 32.52 174.91 L 32.15 175.15 L 31.78 175.35 L 31.40 175.54 L 31.01 175.72 L 30.61 175.89 L 30.20 176.06 L 29.79 176.22 L 29.37 176.38 L 28.95 176.54 L 28.52 176.66 L 28.11 176.75 L 27.71 176.83 L 27.30 176.88 L 26.87 177.01 L 26.47 177.14 L 26.13 177.24 L 25.75 177.49 L 25.39 177.76" fill="none" stroke="#000000" stroke-width="0.5" stroke-linejoin="round" stroke-linecap="round"/>
</svg>