<?xml version="1.0" encoding="UTF-8"?>
<svg xmlns="http://www.w3.org/2000/svg" viewBox="13.96 140.00 40.04 42.28">
<path d="M 49.00 145.00 L 48.50 145.34 L 48.04 145.78 L 47.56 146.20 L 47.08 146.56 L 46.60 146.92 L 46.10 147.27 L 45.60 147.61 L 45.12 147.97 L 44.63 148.34 L 44.11 148.75 L 43.59 149.14 L 43.08 149.48 L 42.56 149.81 L 42.07 150.05 L 41.63 150.21 L 41.06 150.51 L 40.48 150.79 L 39.90 151.09 L 39.40 151.28 L 38.91 151.44 L 38.32 151.72 L 37.81 151.86 L 37.27 152.04 L 36.69 152.32 L 36.20 152.44 L 35.65 152.65 L 35.06 152.94 L 34.53 153.12 L 34.02 153.26 L 33.41 153.53 L 32.88 153.67 L 32.38 153.79 L 31.90 153.92 L 31.31 154.16 L 30.71 154.44 L 30.15 154.70 L 29.69 154.84 L 29.14 155.08 L 28.55 155.36 L 28.03 155.53 L 27.52 155.70 L 26.93 155.98 L 26.42 156.11 L 25.87 156.29 L 25.26 156.53 L 24.71 156.61 L 24.15 156.69 L 23.60 156.71 L 23.22 156.44 L 22.75 156.27 L 22.23 156.16 L 21.73 156.05 L 21.26 155.97 L 20.80 155.89 L 20.19 156.14 L 19.74 156.38 L 19.41 156.67 L 19.08 157.21 L 18.96 157.62 L 19.01 158.00 L 19.17 158.45 L 19.38 158.95 L 19.61 159.45 L 20.01 159.73 L 20.31 160.13 L 20.55 160.57 L 20.91 160.82 L 21.03 161.37 L 21.07 162.02 L 21.11 162.67 L 21.24 163.17 L 21.39 163.63 L 21.56 164.09 L 21.69 164.66 L 21.75 165.32 L 21.94 165.81 L 22.12 166.29 L 22.30 166.76 L 22.49 167.24 L 22.64 167.78 L 22.69 168.45 L 22.84 168.94 L 23.01 169.40 L 23.15 169.91 L 23.21 170.57 L 23.36 171.10 L 23.52 171.56 L 23.69 172.03 L 23.82 172.58 L 23.88 173.25 L 24.06 173.75 L 24.25 174.22 L 24.43 174.69 L 24.62 175.18 L 24.76 175.70 L 24.79 176.35 L 24.88 176.81 L 24.87 177.28" fill="none" stroke="#000000" stroke-width="0.5" stroke-linejoin="round" stroke-linecap="round"/>
</svg>