<?xml version="1.0" encoding="UTF-8"?>
<svg xmlns="http://www.w3.org/2000/svg" viewBox="19.91 140.00 34.09 42.70">
<path d="M 49.00 145.00 L 48.61 145.23 L 48.26 145.54 L 47.90 145.82 L 47.53 146.07 L 47.17 146.31 L 46.78 146.55 L 46.38 146.77 L 45.95 146.97 L 45.52 147.17 L 45.12 147.31 L 44.72 147.43 L 44.33 147.56 L 43.90 147.72 L 43.45 147.91 L 43.01 148.10 L 42.61 148.28 L 42.23 148.43 L 41.82 148.61 L 41.37 148.80 L 40.94 148.99 L 40.56 149.13 L 40.17 149.30 L 39.76 149.51 L 39.34 149.72 L 38.93 149.94 L 38.54 150.16 L 38.14 150.39 L 37.75 150.62 L 37.36 150.85 L 37.00 151.10 L 36.63 151.35 L 36.26 151.63 L 35.90 151.92 L 35.56 152.19 L 35.22 152.48 L 34.88 152.78 L 34.56 153.06 L 34.24 153.37 L 33.92 153.70 L 33.61 154.04 L 33.31 154.38 L 33.02 154.74 L 32.74 155.09 L 32.47 155.45 L 32.22 155.83 L 31.97 156.21 L 31.74 156.59 L 31.53 156.96 L 31.30 157.36 L 31.10 157.77 L 30.90 158.18 L 30.68 158.58 L 30.49 158.98 L 30.33 159.40 L 30.15 159.83 L 30.05 160.20 L 29.99 160.53 L 29.84 160.98 L 29.75 161.41 L 29.67 161.83 L 29.54 162.29 L 29.47 162.74 L 29.40 163.16 L 29.33 163.56 L 29.27 164.00 L 29.19 164.47 L 29.11 164.94 L 29.02 165.38 L 28.93 165.78 L 28.81 166.21 L 28.69 166.65 L 28.55 167.11 L 28.41 167.54 L 28.27 167.96 L 28.14 168.39 L 28.02 168.83 L 27.90 169.27 L 27.78 169.71 L 27.66 170.15 L 27.55 170.60 L 27.46 171.06 L 27.39 171.53 L 27.35 171.96 L 27.35 172.34 L 27.33 172.75 L 27.28 173.21 L 27.20 173.68 L 27.10 174.13 L 26.98 174.56 L 26.82 174.98 L 26.62 175.36 L 26.39 175.74 L 26.12 176.10 L 25.84 176.41 L 25.54 176.75 L 25.28 177.11 L 25.04 177.46 L 24.91 177.70" fill="none" stroke="#000000" stroke-width="0.5" stroke-linejoin="round" stroke-linecap="round"/>
</svg>