<?xml version="1.0" encoding="UTF-8"?>
<svg xmlns="http://www.w3.org/2000/svg" viewBox="18.15 140.00 35.85 42.59">
<path d="M 49.00 145.00 L 48.41 145.07 L 47.97 145.29 L 47.49 145.54 L 47.01 145.69 L 46.51 145.88 L 46.01 146.11 L 45.55 146.28 L 45.08 146.49 L 44.58 146.74 L 44.08 146.99 L 43.62 147.23 L 43.16 147.47 L 42.69 147.74 L 42.23 148.01 L 41.78 148.29 L 41.34 148.58 L 40.88 148.89 L 40.43 149.20 L 39.98 149.48 L 39.51 149.75 L 39.02 150.01 L 38.53 150.22 L 38.07 150.39 L 37.60 150.54 L 37.11 150.69 L 36.57 150.92 L 36.11 151.10 L 35.66 151.30 L 35.19 151.56 L 34.71 151.85 L 34.25 152.15 L 33.82 152.45 L 33.41 152.76 L 33.00 153.10 L 32.59 153.44 L 32.19 153.80 L 31.83 154.19 L 31.49 154.58 L 31.17 155.00 L 30.84 155.43 L 30.55 155.87 L 30.29 156.35 L 30.04 156.83 L 29.81 157.28 L 29.60 157.71 L 29.37 158.20 L 29.16 158.71 L 28.96 159.23 L 28.78 159.69 L 28.61 160.15 L 28.45 160.65 L 28.29 161.18 L 28.15 161.71 L 28.02 162.23 L 27.88 162.72 L 27.76 163.20 L 27.67 163.71 L 27.53 164.27 L 27.41 164.76 L 27.35 165.15 L 27.23 165.67 L 27.12 166.25 L 27.06 166.78 L 27.05 167.24 L 27.09 167.71 L 27.12 168.31 L 27.23 168.85 L 27.38 169.36 L 27.59 169.76 L 27.77 170.08 L 27.88 170.35 L 27.75 170.83 L 27.60 171.23 L 27.34 171.57 L 26.91 171.91 L 26.39 172.18 L 25.90 172.35 L 25.60 172.18 L 25.39 171.77 L 25.09 171.36 L 24.79 170.98 L 24.48 170.77 L 24.20 170.70 L 23.78 171.01 L 23.47 171.39 L 23.26 171.85 L 23.15 172.35 L 23.15 172.81 L 23.18 173.29 L 23.18 173.86 L 23.19 174.44 L 23.25 174.97 L 23.34 175.48 L 23.46 176.00 L 23.64 176.51 L 23.90 176.95 L 24.11 177.36 L 24.38 177.59" fill="none" stroke="#000000" stroke-width="0.5" stroke-linejoin="round" stroke-linecap="round"/>
</svg>