<?xml version="1.0" encoding="UTF-8"?>
<svg xmlns="http://www.w3.org/2000/svg" viewBox="20.39 140.00 33.61 42.74">
<path d="M 49.00 145.00 L 48.77 145.37 L 48.54 145.73 L 48.31 146.07 L 48.10 146.44 L 47.90 146.83 L 47.71 147.23 L 47.55 147.61 L 47.40 148.01 L 47.25 148.40 L 47.12 148.76 L 46.95 149.11 L 46.73 149.49 L 46.49 149.85 L 46.22 150.19 L 45.92 150.52 L 45.63 150.84 L 45.34 151.17 L 45.05 151.49 L 44.73 151.80 L 44.40 152.10 L 44.07 152.39 L 43.78 152.63 L 43.48 152.89 L 43.14 153.19 L 42.82 153.48 L 42.51 153.80 L 42.22 154.12 L 41.92 154.45 L 41.63 154.77 L 41.34 155.10 L 41.05 155.42 L 40.76 155.75 L 40.50 156.10 L 40.25 156.45 L 40.00 156.80 L 39.77 157.14 L 39.55 157.50 L 39.34 157.89 L 39.13 158.26 L 38.92 158.62 L 38.72 158.99 L 38.54 159.40 L 38.38 159.80 L 38.21 160.18 L 38.08 160.51 L 37.94 160.92 L 37.80 161.35 L 37.68 161.77 L 37.58 162.17 L 37.54 162.58 L 37.50 163.06 L 37.57 163.41 L 37.74 163.59 L 37.76 163.97 L 37.73 164.42 L 37.68 164.89 L 37.58 165.33 L 37.44 165.72 L 37.31 166.05 L 37.11 166.43 L 36.88 166.80 L 36.62 167.16 L 36.33 167.48 L 36.04 167.81 L 35.73 168.12 L 35.39 168.41 L 35.06 168.71 L 34.77 168.95 L 34.47 169.21 L 34.13 169.50 L 33.78 169.78 L 33.43 170.06 L 33.10 170.35 L 32.81 170.59 L 32.50 170.85 L 32.16 171.14 L 31.81 171.42 L 31.46 171.71 L 31.15 171.98 L 30.85 172.23 L 30.54 172.50 L 30.21 172.80 L 29.88 173.10 L 29.58 173.42 L 29.29 173.75 L 29.00 174.07 L 28.71 174.40 L 28.42 174.72 L 28.12 175.05 L 27.83 175.37 L 27.54 175.70 L 27.25 176.02 L 26.95 176.34 L 26.63 176.64 L 26.29 176.94 L 25.98 177.21 L 25.69 177.46 L 25.39 177.74" fill="none" stroke="#000000" stroke-width="0.5" stroke-linejoin="round" stroke-linecap="round"/>
</svg>