<?xml version="1.0" encoding="UTF-8"?>
<svg xmlns="http://www.w3.org/2000/svg" viewBox="20.59 140.00 33.41 42.82">
<path d="M 49.00 145.00 L 48.34 145.03 L 47.93 145.21 L 47.59 145.31 L 47.20 145.55 L 46.84 145.91 L 46.57 146.36 L 46.44 146.84 L 46.52 147.22 L 46.86 147.40 L 47.29 147.54 L 47.80 147.56 L 48.15 147.73 L 48.23 148.10 L 48.12 148.59 L 47.93 149.10 L 47.70 149.56 L 47.47 150.01 L 47.19 150.47 L 46.94 150.90 L 46.73 151.31 L 46.51 151.78 L 46.28 152.27 L 46.04 152.75 L 45.77 153.21 L 45.50 153.66 L 45.23 154.12 L 44.96 154.58 L 44.69 155.03 L 44.42 155.49 L 44.15 155.94 L 43.88 156.40 L 43.61 156.86 L 43.36 157.32 L 43.12 157.80 L 42.89 158.29 L 42.67 158.75 L 42.47 159.20 L 42.25 159.67 L 42.02 160.16 L 41.77 160.63 L 41.51 161.09 L 41.24 161.55 L 40.97 162.01 L 40.72 162.48 L 40.49 162.96 L 40.26 163.45 L 40.05 163.90 L 39.85 164.35 L 39.62 164.83 L 39.40 165.32 L 39.18 165.82 L 38.95 166.30 L 38.74 166.77 L 38.55 167.19 L 38.33 167.66 L 38.08 168.13 L 37.78 168.57 L 37.41 168.95 L 37.02 169.29 L 36.62 169.57 L 36.21 169.77 L 35.74 170.00 L 35.25 170.25 L 34.82 170.44 L 34.38 170.74 L 33.98 171.06 L 33.66 171.45 L 33.42 171.92 L 33.34 172.35 L 33.72 172.28 L 34.09 172.40 L 34.53 172.55 L 35.04 172.58 L 35.39 172.74 L 35.67 172.88 L 35.57 173.39 L 35.35 173.89 L 35.05 174.32 L 34.69 174.62 L 34.27 174.90 L 33.79 175.13 L 33.31 175.29 L 32.85 175.41 L 32.43 175.46 L 31.89 175.64 L 31.35 175.82 L 30.85 175.95 L 30.37 176.11 L 29.89 176.27 L 29.39 176.41 L 28.86 176.60 L 28.35 176.78 L 27.94 176.83 L 27.44 177.02 L 26.92 177.22 L 26.44 177.37 L 26.01 177.57 L 25.59 177.82" fill="none" stroke="#000000" stroke-width="0.5" stroke-linejoin="round" stroke-linecap="round"/>
</svg>