<?xml version="1.0" encoding="UTF-8"?>
<svg xmlns="http://www.w3.org/2000/svg" viewBox="20.36 140.00 51.53 42.08">
<path d="M 49.00 145.00 L 50.11 145.85 L 50.57 146.39 L 51.07 147.12 L 51.98 147.54 L 52.82 148.05 L 53.56 148.70 L 54.38 149.24 L 55.18 149.81 L 55.96 150.41 L 56.92 150.76 L 57.76 151.26 L 58.54 151.81 L 59.44 152.11 L 60.33 152.31 L 61.25 152.27 L 62.08 152.06 L 62.90 151.56 L 63.62 150.90 L 64.18 150.13 L 64.62 149.26 L 65.01 148.36 L 65.41 147.61 L 65.96 146.92 L 66.68 146.21 L 66.82 146.45 L 66.89 146.99 L 66.78 147.92 L 66.65 148.96 L 66.43 149.98 L 66.10 150.93 L 65.69 151.81 L 65.19 152.64 L 64.59 153.43 L 63.89 154.13 L 63.08 154.72 L 62.18 155.16 L 61.29 155.38 L 60.41 155.45 L 59.61 155.58 L 58.96 155.59 L 58.33 155.67 L 57.39 156.17 L 56.45 156.72 L 55.83 156.86 L 55.74 156.19 L 55.70 155.14 L 55.29 154.38 L 54.61 153.81 L 54.05 153.05 L 53.38 152.33 L 52.61 151.72 L 51.83 151.12 L 51.09 150.46 L 50.34 149.81 L 49.52 149.27 L 48.63 148.82 L 47.67 148.48 L 46.71 148.13 L 45.99 147.69 L 45.47 147.27 L 45.09 146.96 L 44.40 147.33 L 43.68 147.99 L 43.11 148.76 L 42.66 149.67 L 42.25 150.60 L 41.87 151.50 L 41.47 152.40 L 41.06 153.28 L 40.64 154.16 L 40.19 155.04 L 39.72 155.93 L 39.22 156.80 L 38.69 157.63 L 38.15 158.42 L 37.59 159.25 L 37.03 160.07 L 36.46 160.89 L 35.88 161.71 L 35.32 162.53 L 34.76 163.36 L 34.22 164.15 L 33.68 164.97 L 33.13 165.81 L 32.58 166.64 L 31.97 167.43 L 31.31 168.19 L 30.65 168.94 L 30.03 169.67 L 29.48 170.36 L 28.86 171.15 L 28.27 171.92 L 27.75 172.73 L 27.25 173.61 L 26.78 174.49 L 26.34 175.35 L 25.85 176.22 L 25.36 177.08" fill="none" stroke="#000000" stroke-width="0.5" stroke-linejoin="round" stroke-linecap="round"/>
</svg>