<?xml version="1.0" encoding="UTF-8"?>
<svg xmlns="http://www.w3.org/2000/svg" viewBox="20.39 140.00 33.61 42.98">
<path d="M 49.00 145.00 L 48.35 145.90 L 47.84 146.48 L 47.62 146.62 L 47.54 146.57 L 47.57 146.37 L 46.96 147.09 L 46.12 148.24 L 45.45 149.24 L 45.14 149.86 L 44.87 150.52 L 44.62 151.18 L 44.37 151.84 L 44.32 152.15 L 44.14 152.58 L 43.29 153.89 L 42.39 155.22 L 41.49 156.55 L 40.58 157.88 L 39.73 159.18 L 39.14 160.13 L 39.09 160.39 L 39.57 159.96 L 40.55 158.87 L 41.44 157.91 L 42.25 157.04 L 41.78 157.94 L 41.22 158.97 L 40.63 160.06 L 40.12 161.07 L 39.75 161.86 L 39.48 162.46 L 39.47 162.68 L 39.91 162.19 L 40.88 160.94 L 41.77 159.71 L 42.66 158.48 L 43.55 157.25 L 44.44 156.07 L 43.83 157.00 L 43.23 157.95 L 42.67 158.91 L 41.93 160.15 L 41.22 161.33 L 40.65 162.29 L 39.87 163.48 L 39.00 164.77 L 38.10 166.10 L 37.18 167.42 L 36.28 168.69 L 35.40 169.95 L 34.49 171.27 L 33.65 172.50 L 32.85 173.62 L 31.96 174.80 L 31.17 175.79 L 30.79 176.20 L 30.74 176.09 L 30.90 175.62 L 31.67 174.30 L 32.25 173.24 L 32.79 172.22 L 33.36 171.18 L 32.64 171.89 L 32.42 171.91 L 32.86 171.04 L 33.41 169.99 L 33.92 168.99 L 34.52 167.86 L 34.83 167.16 L 35.03 166.68 L 35.08 166.48 L 34.36 167.40 L 33.60 168.47 L 32.99 169.39 L 32.38 170.33 L 31.66 171.38 L 30.76 172.61 L 30.12 173.40 L 30.25 173.02 L 30.53 172.37 L 30.77 171.70 L 30.77 171.34 L 30.76 171.00 L 31.01 170.33 L 31.10 169.95 L 31.09 169.79 L 30.18 170.94 L 29.29 172.18 L 28.59 173.25 L 28.04 174.23 L 27.77 174.88 L 27.61 175.34 L 27.57 175.54 L 26.96 176.45 L 26.49 177.05 L 26.10 177.45 L 25.68 177.83 L 25.39 177.98" fill="none" stroke="#000000" stroke-width="0.5" stroke-linejoin="round" stroke-linecap="round"/>
</svg>