<?xml version="1.0" encoding="UTF-8"?>
<svg xmlns="http://www.w3.org/2000/svg" viewBox="20.19 140.00 33.81 42.62">
<path d="M 49.00 145.00 L 48.87 145.42 L 48.68 145.80 L 48.50 146.19 L 48.34 146.59 L 48.17 146.98 L 47.96 147.35 L 47.70 147.68 L 47.41 147.97 L 47.11 148.21 L 46.80 148.39 L 46.47 148.50 L 46.05 148.69 L 45.67 148.85 L 45.33 148.95 L 44.94 149.19 L 44.56 149.40 L 44.22 149.60 L 43.87 149.85 L 43.52 150.11 L 43.17 150.38 L 42.85 150.66 L 42.52 150.94 L 42.19 151.22 L 41.87 151.50 L 41.56 151.79 L 41.26 152.10 L 40.96 152.40 L 40.69 152.72 L 40.43 153.05 L 40.18 153.39 L 39.94 153.73 L 39.71 154.08 L 39.46 154.41 L 39.22 154.76 L 38.99 155.11 L 38.76 155.46 L 38.53 155.81 L 38.30 156.16 L 38.07 156.51 L 37.85 156.87 L 37.62 157.22 L 37.36 157.55 L 37.09 157.87 L 36.84 158.20 L 36.60 158.55 L 36.36 158.90 L 36.11 159.23 L 35.88 159.58 L 35.68 159.95 L 35.48 160.33 L 35.28 160.70 L 35.08 161.07 L 34.87 161.43 L 34.67 161.81 L 34.47 162.19 L 34.26 162.57 L 34.06 162.95 L 33.86 163.32 L 33.68 163.70 L 33.52 164.10 L 33.38 164.52 L 33.22 164.92 L 33.09 165.27 L 32.96 165.61 L 32.79 166.01 L 32.61 166.42 L 32.43 166.80 L 32.24 167.18 L 32.06 167.57 L 31.89 167.96 L 31.73 168.36 L 31.56 168.76 L 31.40 169.16 L 31.23 169.55 L 31.07 169.95 L 30.90 170.35 L 30.74 170.75 L 30.57 171.14 L 30.37 171.52 L 30.16 171.88 L 29.92 172.22 L 29.66 172.55 L 29.37 172.86 L 29.07 173.16 L 28.75 173.45 L 28.44 173.74 L 28.13 174.04 L 27.81 174.34 L 27.51 174.64 L 27.23 174.96 L 26.94 175.27 L 26.67 175.59 L 26.40 175.91 L 26.13 176.23 L 25.89 176.57 L 25.66 176.92 L 25.42 177.27 L 25.19 177.62" fill="none" stroke="#000000" stroke-width="0.5" stroke-linejoin="round" stroke-linecap="round"/>
</svg>