<?xml version="1.0" encoding="UTF-8"?>
<svg xmlns="http://www.w3.org/2000/svg" viewBox="17.70 140.00 36.30 42.62">
<path d="M 49.00 145.00 L 48.42 145.05 L 48.03 145.25 L 47.61 145.41 L 47.10 145.62 L 46.61 145.80 L 46.15 145.94 L 45.69 146.08 L 45.21 146.21 L 44.74 146.34 L 44.28 146.48 L 43.82 146.62 L 43.32 146.81 L 42.82 147.01 L 42.38 147.17 L 41.95 147.33 L 41.51 147.49 L 41.01 147.72 L 40.57 147.90 L 40.12 148.08 L 39.66 148.32 L 39.21 148.51 L 38.77 148.67 L 38.28 148.90 L 37.81 149.08 L 37.38 149.24 L 36.94 149.39 L 36.47 149.57 L 35.96 149.78 L 35.50 149.94 L 35.07 150.10 L 34.62 150.25 L 34.14 150.45 L 33.66 150.67 L 33.24 150.84 L 32.81 151.06 L 32.34 151.29 L 31.87 151.53 L 31.45 151.76 L 31.06 151.95 L 30.62 152.21 L 30.17 152.48 L 29.74 152.74 L 29.35 153.03 L 28.97 153.33 L 28.60 153.64 L 28.22 153.97 L 27.87 154.33 L 27.54 154.70 L 27.26 155.11 L 27.01 155.54 L 26.78 155.99 L 26.62 156.41 L 26.48 156.85 L 26.38 157.35 L 26.29 157.88 L 26.23 158.36 L 26.22 158.79 L 26.18 159.29 L 26.17 159.81 L 26.17 160.33 L 26.21 160.76 L 26.22 161.24 L 26.20 161.74 L 26.17 162.25 L 26.13 162.76 L 26.07 163.28 L 26.00 163.75 L 25.91 164.22 L 25.83 164.69 L 25.71 165.21 L 25.60 165.70 L 25.49 166.15 L 25.34 166.61 L 25.18 167.08 L 25.01 167.54 L 24.80 168.00 L 24.55 168.44 L 24.27 168.85 L 23.97 169.25 L 23.69 169.65 L 23.44 170.05 L 23.20 170.48 L 23.00 170.91 L 22.86 171.34 L 22.77 171.84 L 22.72 172.34 L 22.70 172.85 L 22.75 173.28 L 22.79 173.77 L 22.81 174.32 L 22.91 174.80 L 23.03 175.28 L 23.16 175.78 L 23.39 176.20 L 23.64 176.61 L 23.91 177.03 L 24.16 177.39 L 24.41 177.62" fill="none" stroke="#000000" stroke-width="0.5" stroke-linejoin="round" stroke-linecap="round"/>
</svg>