<?xml version="1.0" encoding="UTF-8"?>
<svg xmlns="http://www.w3.org/2000/svg" viewBox="15.95 140.00 38.80 41.69">
<path d="M 49.00 145.00 L 49.63 145.02 L 49.74 145.19 L 49.70 145.57 L 48.83 147.08 L 47.85 148.62 L 46.78 150.19 L 45.64 151.72 L 44.47 153.22 L 43.29 154.72 L 42.16 156.10 L 40.96 157.48 L 39.69 158.91 L 38.79 159.73 L 38.19 160.08 L 38.09 159.68 L 37.94 159.25 L 37.79 158.82 L 37.62 158.37 L 37.29 158.18 L 36.85 158.12 L 36.68 157.71 L 36.63 157.13 L 36.82 156.22 L 36.67 155.78 L 36.51 155.34 L 36.36 154.91 L 36.19 154.46 L 36.03 154.02 L 35.87 153.58 L 35.71 153.14 L 35.55 152.70 L 35.39 152.26 L 35.09 152.01 L 34.65 151.95 L 34.44 151.59 L 34.27 151.15 L 34.11 150.71 L 33.95 150.27 L 33.79 149.83 L 33.63 149.39 L 33.47 148.95 L 33.31 148.51 L 33.15 148.07 L 32.99 147.63 L 32.82 147.19 L 32.66 146.74 L 32.50 146.31 L 32.36 145.88 L 32.24 145.47 L 32.02 145.26 L 30.96 146.27 L 29.82 147.49 L 28.65 148.85 L 27.48 150.34 L 26.37 151.89 L 25.30 153.48 L 24.42 154.92 L 23.72 156.17 L 23.16 157.33 L 22.49 158.72 L 21.91 160.04 L 21.67 160.91 L 21.51 161.70 L 21.37 162.48 L 21.24 163.27 L 21.08 164.12 L 20.95 164.94 L 21.09 165.37 L 21.24 165.80 L 21.39 166.24 L 21.24 167.09 L 21.25 167.73 L 21.41 168.17 L 21.56 168.60 L 21.72 169.04 L 21.88 169.48 L 22.27 169.61 L 22.68 169.71 L 22.82 170.14 L 23.15 170.31 L 23.56 170.35 L 24.68 169.43 L 25.50 168.90 L 25.97 168.84 L 26.32 168.83 L 26.23 169.38 L 25.67 170.55 L 24.75 172.23 L 23.90 173.81 L 23.33 175.01 L 23.38 175.37 L 23.48 175.77 L 23.77 175.99 L 24.45 175.72 L 25.05 175.54 L 25.50 175.53 L 25.60 175.93 L 25.36 176.69" fill="none" stroke="#000000" stroke-width="0.5" stroke-linejoin="round" stroke-linecap="round"/>
</svg>