<?xml version="1.0" encoding="UTF-8"?>
<svg xmlns="http://www.w3.org/2000/svg" viewBox="20.31 140.00 33.69 42.62">
<path d="M 49.00 145.00 L 48.62 145.04 L 48.48 145.04 L 48.39 145.00 L 48.19 145.18 L 47.93 145.53 L 47.82 145.79 L 47.76 146.06 L 47.84 146.25 L 47.93 146.46 L 47.95 146.79 L 48.03 147.03 L 48.14 147.24 L 48.17 147.55 L 48.25 147.77 L 48.35 147.89 L 48.41 147.99 L 48.22 148.32 L 47.97 148.67 L 47.68 148.98 L 47.45 149.13 L 47.13 149.35 L 46.78 149.61 L 46.43 149.87 L 46.10 150.15 L 45.77 150.44 L 45.43 150.75 L 45.07 151.08 L 44.73 151.38 L 44.42 151.68 L 44.11 151.97 L 43.77 152.28 L 43.41 152.62 L 43.10 152.92 L 42.78 153.22 L 42.44 153.57 L 42.11 153.90 L 41.80 154.19 L 41.45 154.55 L 41.13 154.87 L 40.82 155.17 L 40.49 155.50 L 40.15 155.84 L 39.86 156.14 L 39.54 156.48 L 39.20 156.83 L 38.86 157.19 L 38.55 157.52 L 38.27 157.83 L 37.96 158.19 L 37.63 158.56 L 37.31 158.93 L 36.99 159.31 L 36.68 159.69 L 36.38 160.07 L 36.12 160.40 L 35.83 160.77 L 35.53 161.15 L 35.23 161.53 L 34.94 161.93 L 34.65 162.32 L 34.36 162.72 L 34.07 163.12 L 33.80 163.52 L 33.54 163.92 L 33.29 164.33 L 33.04 164.74 L 32.79 165.15 L 32.53 165.56 L 32.28 165.98 L 32.03 166.39 L 31.77 166.80 L 31.53 167.21 L 31.28 167.63 L 31.05 168.05 L 30.81 168.47 L 30.56 168.88 L 30.31 169.29 L 30.07 169.71 L 29.81 170.13 L 29.59 170.51 L 29.37 170.89 L 29.11 171.31 L 28.90 171.69 L 28.69 172.09 L 28.45 172.52 L 28.26 172.90 L 28.06 173.27 L 27.86 173.66 L 27.62 174.09 L 27.42 174.48 L 27.20 174.87 L 26.94 175.29 L 26.72 175.65 L 26.47 176.03 L 26.19 176.44 L 25.91 176.84 L 25.61 177.23 L 25.31 177.62" fill="none" stroke="#000000" stroke-width="0.5" stroke-linejoin="round" stroke-linecap="round"/>
</svg>