<?xml version="1.0" encoding="UTF-8"?>
<svg xmlns="http://www.w3.org/2000/svg" viewBox="20.57 140.00 35.50 42.95">
<path d="M 49.00 145.00 L 49.56 145.30 L 49.90 145.36 L 50.33 145.39 L 50.71 145.55 L 50.96 145.84 L 51.06 146.28 L 51.07 146.80 L 51.01 147.36 L 50.90 147.89 L 50.75 148.38 L 50.54 148.85 L 50.28 149.32 L 49.96 149.77 L 49.61 150.18 L 49.20 150.55 L 48.76 150.89 L 48.34 151.19 L 47.93 151.48 L 47.54 151.77 L 47.13 152.14 L 46.76 152.54 L 46.43 152.99 L 46.16 153.47 L 45.95 153.96 L 45.79 154.47 L 45.68 154.99 L 45.63 155.51 L 45.63 156.02 L 45.67 156.52 L 45.80 156.94 L 45.93 157.40 L 46.06 157.86 L 46.22 158.31 L 46.37 158.77 L 46.51 159.25 L 46.67 159.71 L 46.86 160.14 L 47.05 160.52 L 47.21 160.91 L 47.32 161.32 L 47.27 161.89 L 47.18 162.42 L 47.05 162.93 L 46.86 163.42 L 46.63 163.93 L 46.36 164.42 L 46.07 164.89 L 45.75 165.33 L 45.41 165.77 L 45.07 166.20 L 44.71 166.61 L 44.34 167.03 L 43.97 167.43 L 43.59 167.83 L 43.20 168.23 L 42.80 168.61 L 42.38 168.97 L 41.95 169.33 L 41.52 169.63 L 41.08 169.91 L 40.62 170.18 L 40.16 170.42 L 39.70 170.66 L 39.24 170.90 L 38.79 171.16 L 38.33 171.44 L 37.85 171.74 L 37.38 172.03 L 36.93 172.31 L 36.47 172.58 L 36.01 172.84 L 35.55 173.08 L 35.09 173.33 L 34.63 173.60 L 34.19 173.86 L 33.74 174.14 L 33.26 174.46 L 32.81 174.75 L 32.38 175.04 L 31.94 175.33 L 31.48 175.63 L 31.01 175.94 L 30.56 176.21 L 30.13 176.51 L 29.73 176.81 L 29.33 177.13 L 29.44 176.74 L 29.64 176.20 L 29.63 175.94 L 29.21 176.21 L 28.80 176.43 L 28.38 176.60 L 27.90 176.80 L 27.42 177.02 L 26.91 177.26 L 26.42 177.49 L 25.96 177.73 L 25.57 177.95" fill="none" stroke="#000000" stroke-width="0.5" stroke-linejoin="round" stroke-linecap="round"/>
</svg>