<?xml version="1.0" encoding="UTF-8"?>
<svg xmlns="http://www.w3.org/2000/svg" viewBox="19.54 140.00 34.46 42.51">
<path d="M 49.00 145.00 L 48.54 145.04 L 48.22 145.20 L 47.87 145.38 L 47.49 145.55 L 47.09 145.75 L 46.67 145.99 L 46.30 146.18 L 45.94 146.37 L 45.57 146.56 L 45.15 146.80 L 44.75 147.00 L 44.38 147.18 L 44.02 147.36 L 43.66 147.53 L 43.25 147.74 L 42.84 147.98 L 42.48 148.18 L 42.15 148.38 L 41.80 148.60 L 41.40 148.91 L 41.02 149.19 L 40.66 149.47 L 40.30 149.76 L 39.95 150.05 L 39.60 150.35 L 39.26 150.65 L 38.90 150.98 L 38.56 151.33 L 38.25 151.69 L 37.97 152.03 L 37.69 152.39 L 37.41 152.77 L 37.11 153.15 L 36.81 153.54 L 36.49 153.90 L 36.17 154.23 L 35.84 154.53 L 35.49 154.83 L 35.12 155.11 L 34.75 155.38 L 34.39 155.67 L 34.03 155.96 L 33.68 156.25 L 33.34 156.58 L 33.00 156.92 L 32.69 157.26 L 32.37 157.63 L 32.06 158.00 L 31.76 158.38 L 31.48 158.78 L 31.22 159.19 L 30.97 159.61 L 30.75 160.01 L 30.55 160.43 L 30.38 160.87 L 30.23 161.32 L 30.09 161.74 L 29.99 162.08 L 29.80 162.50 L 29.58 162.91 L 29.33 163.33 L 29.04 163.71 L 28.72 164.08 L 28.40 164.43 L 28.10 164.76 L 27.79 165.11 L 27.49 165.49 L 27.21 165.89 L 26.96 166.30 L 26.74 166.70 L 26.52 167.10 L 26.31 167.53 L 26.10 167.98 L 25.92 168.42 L 25.75 168.86 L 25.64 169.27 L 25.57 169.69 L 25.55 170.09 L 25.56 170.51 L 25.63 170.87 L 25.81 171.07 L 25.90 171.38 L 25.95 171.70 L 25.90 172.08 L 25.75 172.52 L 25.55 172.97 L 25.33 173.41 L 25.10 173.84 L 24.89 174.27 L 24.72 174.70 L 24.61 175.11 L 24.55 175.53 L 24.54 175.93 L 24.65 176.21 L 24.78 176.47 L 24.80 176.90 L 24.88 177.20 L 24.89 177.51" fill="none" stroke="#000000" stroke-width="0.5" stroke-linejoin="round" stroke-linecap="round"/>
</svg>