<?xml version="1.0" encoding="UTF-8"?>
<svg xmlns="http://www.w3.org/2000/svg" viewBox="20.80 140.00 44.11 42.41">
<path d="M 49.00 145.00 L 50.21 145.48 L 51.02 145.47 L 51.94 145.54 L 52.68 146.06 L 53.42 146.58 L 54.18 147.10 L 54.71 147.97 L 55.23 148.84 L 55.99 149.37 L 56.83 149.79 L 57.74 150.14 L 58.39 150.84 L 58.97 151.58 L 59.55 152.27 L 59.78 152.98 L 59.85 153.72 L 59.80 154.51 L 59.91 155.00 L 59.81 155.72 L 59.60 156.56 L 59.37 157.38 L 59.36 158.27 L 59.39 159.19 L 59.36 160.16 L 59.34 161.13 L 59.26 162.13 L 59.08 163.11 L 58.95 163.86 L 58.70 164.77 L 58.42 165.70 L 58.15 166.63 L 57.93 167.46 L 57.64 168.33 L 57.35 169.21 L 57.15 170.06 L 56.82 170.98 L 56.43 171.90 L 56.02 172.76 L 55.53 173.59 L 55.00 174.41 L 54.43 175.20 L 53.76 175.92 L 53.00 176.54 L 52.16 177.05 L 51.26 177.41 L 50.75 176.98 L 50.32 176.27 L 49.78 175.56 L 49.18 174.85 L 48.49 174.28 L 47.92 173.61 L 47.56 172.70 L 47.29 171.69 L 47.05 170.68 L 46.85 169.71 L 46.48 169.03 L 46.29 168.18 L 46.26 167.17 L 46.21 166.14 L 46.20 165.07 L 46.14 164.03 L 45.73 163.37 L 45.40 162.52 L 44.88 161.81 L 44.00 161.49 L 43.31 160.91 L 42.77 160.12 L 42.26 159.23 L 41.77 158.41 L 41.33 157.74 L 40.86 157.42 L 40.34 157.45 L 39.58 158.10 L 38.95 158.78 L 38.43 159.56 L 37.95 160.37 L 37.41 161.18 L 36.77 161.91 L 36.11 162.61 L 35.49 163.25 L 34.93 163.87 L 34.33 164.63 L 33.80 165.40 L 33.35 166.22 L 32.95 167.10 L 32.56 167.97 L 32.14 168.83 L 31.66 169.69 L 31.16 170.53 L 30.63 171.35 L 30.08 172.15 L 29.52 172.95 L 28.95 173.74 L 28.35 174.51 L 27.73 175.27 L 27.08 175.99 L 26.44 176.70 L 25.80 177.40" fill="none" stroke="#000000" stroke-width="0.5" stroke-linejoin="round" stroke-linecap="round"/>
</svg>