<?xml version="1.0" encoding="UTF-8"?>
<svg xmlns="http://www.w3.org/2000/svg" viewBox="15.29 140.00 38.71 42.22">
<path d="M 49.00 145.00 L 48.72 145.55 L 48.41 146.06 L 48.13 146.53 L 47.83 147.06 L 47.55 147.60 L 47.27 148.15 L 46.97 148.66 L 46.67 149.15 L 46.37 149.69 L 46.10 150.24 L 45.80 150.78 L 45.52 151.26 L 45.23 151.76 L 44.94 152.30 L 44.66 152.85 L 44.37 153.38 L 44.06 153.87 L 43.75 154.38 L 43.44 154.90 L 43.14 155.44 L 42.83 155.97 L 42.51 156.48 L 42.21 156.98 L 41.91 157.48 L 41.59 158.00 L 41.26 158.52 L 40.94 159.04 L 40.62 159.56 L 40.30 160.08 L 40.03 160.57 L 39.78 161.10 L 39.53 161.67 L 39.32 162.22 L 39.09 162.74 L 38.87 163.30 L 38.65 163.86 L 38.40 164.43 L 38.18 164.95 L 37.93 165.49 L 37.65 166.05 L 37.41 166.55 L 37.13 167.06 L 36.85 167.62 L 36.58 168.17 L 36.29 168.68 L 36.00 169.15 L 35.61 169.62 L 35.16 170.05 L 34.66 170.37 L 34.56 169.95 L 34.35 169.53 L 34.06 169.07 L 33.62 168.69 L 33.15 168.34 L 32.67 167.99 L 32.31 167.48 L 31.95 166.99 L 31.49 166.65 L 30.95 166.43 L 30.34 166.31 L 29.73 166.20 L 29.13 166.09 L 28.54 166.00 L 27.96 165.91 L 27.38 165.82 L 26.76 165.83 L 26.14 165.91 L 25.66 165.89 L 25.11 166.04 L 24.52 166.29 L 23.96 166.59 L 23.47 166.94 L 23.04 167.29 L 22.63 167.74 L 22.27 168.23 L 21.97 168.77 L 21.81 169.33 L 21.65 169.89 L 21.51 170.40 L 21.47 170.71 L 21.21 171.21 L 20.92 171.70 L 20.67 172.20 L 20.41 172.72 L 20.29 173.12 L 20.48 173.23 L 20.91 173.21 L 21.55 173.09 L 22.17 173.13 L 22.57 173.47 L 22.88 173.93 L 23.24 174.38 L 23.70 174.73 L 24.00 175.29 L 24.31 175.80 L 24.60 176.26 L 24.79 176.71 L 24.85 177.22" fill="none" stroke="#000000" stroke-width="0.5" stroke-linejoin="round" stroke-linecap="round"/>
</svg>