<?xml version="1.0" encoding="UTF-8"?>
<svg xmlns="http://www.w3.org/2000/svg" viewBox="20.30 140.00 33.70 42.57">
<path d="M 49.00 145.00 L 48.88 145.00 L 48.75 145.08 L 48.57 145.24 L 48.45 145.29 L 48.33 145.34 L 48.10 145.55 L 47.91 145.70 L 47.72 145.88 L 47.50 146.11 L 47.17 146.50 L 46.84 146.89 L 46.52 147.28 L 46.24 147.60 L 45.92 147.96 L 45.73 148.14 L 45.64 148.17 L 45.54 148.19 L 45.45 148.21 L 45.37 148.24 L 45.22 148.38 L 44.89 148.78 L 44.57 149.20 L 44.26 149.62 L 43.96 150.05 L 43.66 150.48 L 43.36 150.91 L 43.08 151.35 L 42.82 151.76 L 42.67 152.04 L 42.51 152.32 L 42.44 152.48 L 42.25 152.82 L 41.98 153.23 L 41.70 153.67 L 41.40 154.11 L 41.10 154.54 L 40.80 154.97 L 40.50 155.40 L 40.20 155.83 L 39.90 156.26 L 39.60 156.69 L 39.30 157.12 L 39.00 157.55 L 38.70 157.98 L 38.40 158.41 L 38.10 158.84 L 37.79 159.27 L 37.49 159.70 L 37.19 160.13 L 36.87 160.55 L 36.55 160.97 L 36.37 161.17 L 36.31 161.21 L 36.08 161.48 L 35.85 161.75 L 35.53 162.17 L 35.21 162.59 L 34.92 163.00 L 34.65 163.39 L 34.36 163.80 L 34.07 164.22 L 33.77 164.65 L 33.48 165.09 L 33.20 165.53 L 33.09 165.73 L 33.05 165.85 L 33.02 165.95 L 32.76 166.38 L 32.54 166.77 L 32.57 166.81 L 32.74 166.65 L 32.69 166.80 L 32.56 167.05 L 32.37 167.38 L 32.09 167.82 L 31.79 168.26 L 31.49 168.69 L 31.19 169.11 L 30.88 169.54 L 30.58 169.96 L 30.27 170.39 L 29.97 170.82 L 29.67 171.25 L 29.37 171.68 L 29.07 172.11 L 28.78 172.55 L 28.49 172.96 L 28.23 173.35 L 27.93 173.78 L 27.63 174.21 L 27.34 174.64 L 27.04 175.07 L 26.76 175.46 L 26.50 175.84 L 26.20 176.27 L 25.90 176.71 L 25.60 177.14 L 25.30 177.57" fill="none" stroke="#000000" stroke-width="0.5" stroke-linejoin="round" stroke-linecap="round"/>
</svg>