<?xml version="1.0" encoding="UTF-8"?>
<svg xmlns="http://www.w3.org/2000/svg" viewBox="20.50 140.00 33.50 42.76">
<path d="M 49.00 145.00 L 48.47 145.04 L 48.16 145.12 L 47.88 145.09 L 47.46 145.20 L 47.02 145.31 L 46.59 145.43 L 46.22 145.48 L 45.82 145.58 L 45.40 145.71 L 44.99 145.83 L 44.53 146.03 L 44.08 146.22 L 43.67 146.36 L 43.28 146.50 L 42.87 146.68 L 42.42 146.92 L 41.96 147.19 L 41.51 147.46 L 41.08 147.72 L 40.63 148.00 L 40.19 148.28 L 39.77 148.55 L 39.36 148.82 L 38.93 149.14 L 38.49 149.50 L 38.05 149.88 L 37.62 150.25 L 37.21 150.64 L 36.80 151.04 L 36.40 151.43 L 35.98 151.86 L 35.58 152.28 L 35.20 152.69 L 34.82 153.14 L 34.44 153.59 L 34.05 154.05 L 33.69 154.51 L 33.33 154.99 L 32.99 155.47 L 32.65 155.95 L 32.32 156.43 L 31.99 156.92 L 31.68 157.42 L 31.38 157.93 L 31.08 158.44 L 30.82 158.93 L 30.57 159.42 L 30.32 159.96 L 30.10 160.49 L 29.91 161.00 L 29.75 161.48 L 29.61 161.98 L 29.48 162.48 L 29.36 162.99 L 29.24 163.50 L 29.14 163.99 L 29.10 164.42 L 29.00 164.94 L 28.95 165.43 L 28.96 165.85 L 28.95 166.30 L 28.98 166.71 L 29.08 167.04 L 29.11 167.46 L 29.12 167.91 L 29.14 168.35 L 29.16 168.80 L 29.19 169.24 L 29.30 169.58 L 29.42 169.93 L 29.54 170.27 L 29.67 170.63 L 29.82 170.96 L 30.07 171.17 L 30.29 171.40 L 30.51 171.64 L 30.76 171.85 L 30.92 172.17 L 31.07 172.52 L 31.31 172.72 L 31.48 172.92 L 31.58 173.07 L 31.44 173.42 L 31.23 173.72 L 30.98 173.96 L 30.66 174.16 L 30.24 174.39 L 29.78 174.66 L 29.34 174.92 L 28.90 175.19 L 28.46 175.48 L 28.05 175.76 L 27.63 176.08 L 27.17 176.43 L 26.71 176.79 L 26.26 177.14 L 25.88 177.44 L 25.50 177.76" fill="none" stroke="#000000" stroke-width="0.5" stroke-linejoin="round" stroke-linecap="round"/>
</svg>