<?xml version="1.0" encoding="UTF-8"?>
<svg xmlns="http://www.w3.org/2000/svg" viewBox="20.58 140.00 33.42 42.89">
<path d="M 49.00 145.00 L 48.51 145.17 L 48.10 145.48 L 47.66 145.75 L 47.25 145.98 L 46.86 146.23 L 46.46 146.48 L 46.01 146.78 L 45.57 147.08 L 45.17 147.38 L 44.79 147.64 L 44.39 147.92 L 43.95 148.22 L 43.55 148.45 L 43.11 148.75 L 42.70 149.04 L 42.33 149.29 L 41.95 149.60 L 41.55 149.94 L 41.17 150.28 L 40.81 150.65 L 40.47 151.03 L 40.15 151.43 L 39.84 151.83 L 39.52 152.22 L 39.21 152.62 L 38.92 153.03 L 38.64 153.45 L 38.37 153.88 L 38.11 154.31 L 37.86 154.75 L 37.65 155.22 L 37.45 155.69 L 37.25 156.13 L 37.07 156.55 L 36.87 157.03 L 36.68 157.52 L 36.48 157.99 L 36.30 158.42 L 36.12 158.87 L 35.94 159.36 L 35.77 159.85 L 35.60 160.35 L 35.45 160.85 L 35.34 161.32 L 35.25 161.81 L 35.17 162.30 L 35.09 162.79 L 35.02 163.28 L 34.95 163.81 L 34.85 164.36 L 34.84 164.79 L 34.85 165.23 L 34.83 165.76 L 34.83 166.31 L 34.89 166.78 L 34.99 167.20 L 35.04 167.72 L 35.09 168.25 L 35.21 168.69 L 35.27 169.23 L 35.34 169.77 L 35.49 170.23 L 35.65 170.69 L 35.82 171.16 L 36.00 171.64 L 36.18 172.12 L 36.35 172.60 L 36.53 173.08 L 36.71 173.56 L 36.89 174.03 L 37.03 174.48 L 37.08 174.86 L 37.02 175.18 L 36.83 175.47 L 36.55 175.68 L 36.18 175.80 L 35.76 175.82 L 35.29 175.79 L 34.81 175.77 L 34.25 175.89 L 33.79 175.91 L 33.32 175.98 L 32.79 176.12 L 32.26 176.26 L 31.77 176.38 L 31.37 176.40 L 30.86 176.53 L 30.33 176.67 L 29.81 176.82 L 29.36 176.87 L 28.90 176.92 L 28.37 177.06 L 27.88 177.14 L 27.46 177.15 L 26.96 177.31 L 26.45 177.48 L 25.99 177.67 L 25.58 177.89" fill="none" stroke="#000000" stroke-width="0.5" stroke-linejoin="round" stroke-linecap="round"/>
</svg>