<?xml version="1.0" encoding="UTF-8"?>
<svg xmlns="http://www.w3.org/2000/svg" viewBox="21.32 140.00 38.20 42.68">
<path d="M 49.00 145.00 L 49.08 146.25 L 48.75 147.36 L 48.46 148.56 L 48.18 149.92 L 47.96 151.22 L 47.89 152.34 L 48.10 153.11 L 48.32 153.88 L 48.52 154.64 L 49.35 154.51 L 50.47 153.95 L 51.76 153.15 L 52.87 152.46 L 53.82 151.88 L 54.52 151.45 L 53.98 152.60 L 53.12 153.99 L 52.20 155.26 L 51.16 156.44 L 50.03 157.56 L 48.86 158.55 L 47.66 159.46 L 46.62 160.01 L 45.89 160.02 L 45.42 159.55 L 44.91 159.06 L 44.38 158.55 L 43.86 158.04 L 43.42 157.48 L 43.17 156.68 L 43.16 155.59 L 43.32 154.28 L 43.37 153.16 L 43.38 152.10 L 43.39 151.05 L 43.38 149.98 L 43.37 148.90 L 43.35 147.82 L 43.32 146.73 L 43.12 145.93 L 42.79 145.37 L 42.03 145.38 L 40.80 146.08 L 39.94 146.58 L 39.31 147.00 L 38.53 147.69 L 37.76 148.33 L 36.74 149.41 L 36.07 150.32 L 35.44 151.36 L 34.63 152.41 L 34.95 151.71 L 34.84 151.61 L 33.94 152.70 L 33.26 153.43 L 32.41 154.21 L 31.24 155.35 L 30.44 156.02 L 29.78 156.74 L 29.08 157.78 L 28.37 158.96 L 27.76 160.23 L 27.53 161.13 L 27.27 162.22 L 26.95 163.58 L 26.88 164.63 L 26.77 165.73 L 26.48 167.11 L 26.39 168.25 L 26.38 169.31 L 26.39 170.38 L 26.56 171.29 L 27.06 171.78 L 27.75 172.00 L 28.58 172.03 L 29.39 172.06 L 30.35 171.76 L 31.36 171.22 L 32.31 170.64 L 33.44 169.73 L 34.70 168.61 L 35.94 167.56 L 37.10 166.63 L 38.02 166.02 L 38.26 166.32 L 38.16 166.98 L 37.42 168.40 L 36.59 169.74 L 35.65 171.00 L 34.58 172.17 L 33.45 173.29 L 32.30 174.30 L 31.16 175.20 L 29.99 176.03 L 28.94 176.61 L 28.05 176.90 L 27.20 177.22 L 26.32 177.68" fill="none" stroke="#000000" stroke-width="0.5" stroke-linejoin="round" stroke-linecap="round"/>
</svg>