<?xml version="1.0" encoding="UTF-8"?>
<svg xmlns="http://www.w3.org/2000/svg" viewBox="20.69 140.00 33.40 42.06">
<path d="M 49.00 145.00 L 49.09 146.33 L 48.85 147.39 L 48.70 148.46 L 48.58 149.62 L 48.45 150.79 L 48.32 151.96 L 48.16 153.11 L 47.97 154.24 L 47.74 155.33 L 47.44 156.44 L 47.06 157.55 L 46.47 158.54 L 45.68 159.39 L 44.77 160.06 L 44.35 159.79 L 44.05 159.19 L 43.84 158.35 L 43.77 157.22 L 43.95 156.06 L 44.33 154.96 L 44.87 153.92 L 45.45 152.92 L 46.03 151.92 L 46.57 150.89 L 46.29 151.09 L 45.63 151.85 L 44.96 152.63 L 44.25 153.48 L 43.63 154.42 L 43.15 155.50 L 42.88 156.68 L 42.77 157.87 L 42.84 159.01 L 43.25 159.79 L 43.72 160.43 L 44.07 161.13 L 44.06 162.11 L 43.72 163.29 L 43.16 164.33 L 42.38 165.20 L 41.40 165.93 L 41.17 165.33 L 41.11 164.22 L 40.65 163.40 L 40.06 162.51 L 39.41 161.59 L 38.74 160.63 L 38.04 159.72 L 37.27 158.91 L 36.68 157.94 L 36.22 156.95 L 35.75 156.13 L 35.64 155.05 L 35.76 153.86 L 36.07 152.71 L 36.48 151.60 L 36.92 150.51 L 37.40 149.44 L 37.53 148.98 L 36.86 149.78 L 36.20 150.70 L 35.55 151.65 L 35.09 152.66 L 34.78 153.81 L 34.64 155.02 L 34.80 156.08 L 35.13 157.06 L 35.59 158.04 L 36.23 158.95 L 36.88 159.89 L 37.54 160.85 L 38.17 161.79 L 38.70 162.63 L 39.05 163.34 L 38.98 164.25 L 38.58 165.21 L 37.96 166.13 L 37.20 166.86 L 36.31 167.51 L 35.35 168.17 L 34.33 168.79 L 33.23 169.38 L 32.04 169.93 L 31.18 169.84 L 30.39 169.52 L 29.64 169.38 L 29.02 169.10 L 28.48 168.79 L 27.61 169.26 L 26.83 170.14 L 26.51 170.91 L 26.56 171.63 L 26.60 172.40 L 26.64 173.12 L 26.68 173.97 L 26.62 174.88 L 26.22 176.01 L 25.69 177.06" fill="none" stroke="#000000" stroke-width="0.5" stroke-linejoin="round" stroke-linecap="round"/>
</svg>