<?xml version="1.0" encoding="UTF-8"?>
<svg xmlns="http://www.w3.org/2000/svg" viewBox="20.44 140.00 33.56 42.52">
<path d="M 49.00 145.00 L 48.52 145.02 L 48.20 145.16 L 47.85 145.27 L 47.44 145.40 L 47.03 145.56 L 46.62 145.72 L 46.21 145.92 L 45.79 146.15 L 45.32 146.49 L 44.88 146.82 L 44.46 147.18 L 44.02 147.62 L 43.59 148.10 L 43.18 148.60 L 42.80 149.12 L 42.45 149.66 L 42.14 150.22 L 41.86 150.79 L 41.67 151.30 L 41.54 151.77 L 41.44 152.26 L 41.38 152.72 L 41.37 153.14 L 41.40 153.51 L 41.42 153.92 L 41.42 154.34 L 41.42 154.70 L 41.36 155.06 L 41.20 155.48 L 40.87 156.05 L 40.49 156.57 L 40.07 157.04 L 39.64 157.46 L 39.25 157.76 L 38.82 158.11 L 38.35 158.50 L 37.97 158.80 L 37.57 159.18 L 37.14 159.64 L 36.72 160.15 L 36.34 160.68 L 36.00 161.24 L 35.73 161.76 L 35.49 162.30 L 35.27 162.86 L 35.18 163.31 L 35.12 163.76 L 35.04 164.26 L 35.13 164.57 L 35.25 164.85 L 35.38 165.13 L 35.51 165.41 L 35.59 165.74 L 35.58 166.17 L 35.50 166.68 L 35.42 167.18 L 35.32 167.67 L 35.23 168.17 L 35.15 168.67 L 35.07 169.18 L 35.07 169.58 L 35.10 169.95 L 35.14 170.33 L 35.16 170.74 L 35.17 171.17 L 35.20 171.55 L 35.21 171.96 L 35.19 172.38 L 35.14 172.79 L 34.97 173.22 L 34.70 173.68 L 34.30 174.19 L 34.03 174.40 L 33.70 174.56 L 33.30 174.72 L 33.07 174.57 L 32.83 174.42 L 32.60 174.25 L 32.35 174.09 L 32.11 173.92 L 31.87 173.75 L 31.64 173.59 L 31.41 173.44 L 30.99 173.55 L 30.57 173.65 L 30.18 173.73 L 29.86 173.71 L 29.57 173.71 L 29.31 173.72 L 28.96 173.89 L 28.46 174.31 L 27.98 174.76 L 27.53 175.22 L 27.10 175.68 L 26.67 176.14 L 26.24 176.61 L 25.85 177.05 L 25.44 177.52" fill="none" stroke="#000000" stroke-width="0.5" stroke-linejoin="round" stroke-linecap="round"/>
</svg>