<?xml version="1.0" encoding="UTF-8"?>
<svg xmlns="http://www.w3.org/2000/svg" viewBox="20.29 140.00 36.93 42.14">
<path d="M 49.00 145.00 L 48.87 145.98 L 48.54 146.83 L 48.31 147.75 L 48.18 148.74 L 48.12 149.77 L 48.41 150.44 L 48.80 151.10 L 49.25 151.80 L 49.71 152.57 L 50.13 153.40 L 50.43 154.33 L 50.78 155.19 L 51.15 156.01 L 51.35 156.98 L 51.72 157.63 L 51.95 158.42 L 52.04 159.38 L 52.06 160.47 L 52.14 161.40 L 52.22 162.16 L 52.21 162.86 L 52.07 163.59 L 51.70 164.47 L 51.15 165.21 L 50.44 165.79 L 49.53 166.26 L 48.78 166.30 L 48.10 166.07 L 47.39 165.71 L 46.79 165.02 L 46.22 164.25 L 45.54 163.62 L 44.85 163.01 L 44.14 162.42 L 43.38 161.91 L 42.58 161.48 L 41.74 161.10 L 40.81 160.93 L 40.02 160.73 L 39.26 160.58 L 38.25 160.76 L 37.25 161.03 L 36.42 161.35 L 36.13 161.32 L 36.11 161.25 L 35.70 162.03 L 35.63 162.66 L 35.82 163.18 L 36.13 163.54 L 36.74 163.45 L 37.26 163.40 L 37.86 163.22 L 38.66 162.70 L 39.37 162.29 L 39.39 163.01 L 39.52 163.91 L 39.83 164.76 L 40.31 165.48 L 40.81 166.23 L 41.39 166.94 L 42.19 167.37 L 42.92 167.89 L 43.62 168.48 L 44.51 168.81 L 45.41 169.12 L 46.20 169.54 L 46.77 169.96 L 47.09 170.32 L 47.06 170.75 L 46.58 171.41 L 46.01 171.76 L 45.30 171.90 L 44.42 171.91 L 43.50 171.89 L 42.60 171.89 L 41.77 171.93 L 40.91 172.04 L 39.99 172.26 L 39.01 172.66 L 38.20 172.98 L 37.74 172.89 L 37.11 173.08 L 36.24 173.58 L 35.40 174.01 L 34.55 174.46 L 33.63 174.89 L 32.82 175.07 L 32.03 175.18 L 31.26 175.27 L 30.35 175.50 L 29.42 175.78 L 28.45 176.11 L 27.50 176.45 L 26.83 176.54 L 26.66 176.16 L 26.45 176.02 L 25.85 176.52 L 25.29 177.14" fill="none" stroke="#000000" stroke-width="0.5" stroke-linejoin="round" stroke-linecap="round"/>
</svg>