<?xml version="1.0" encoding="UTF-8"?>
<svg xmlns="http://www.w3.org/2000/svg" viewBox="18.77 140.00 35.72 41.67">
<path d="M 49.00 145.00 L 49.45 146.48 L 49.45 147.41 L 49.50 148.25 L 49.47 149.04 L 49.00 150.08 L 48.35 151.01 L 47.59 151.68 L 46.67 152.24 L 45.69 152.76 L 44.67 153.26 L 43.58 153.87 L 42.49 154.47 L 41.39 155.08 L 40.32 155.54 L 39.17 155.93 L 37.96 156.21 L 36.94 156.07 L 35.86 155.86 L 34.76 155.56 L 33.61 155.21 L 32.57 154.76 L 31.66 154.22 L 30.90 153.52 L 30.46 152.38 L 30.18 151.02 L 29.76 149.87 L 29.25 148.86 L 28.66 147.97 L 28.00 147.29 L 27.13 147.19 L 26.25 147.45 L 25.30 148.16 L 24.57 149.04 L 24.06 150.07 L 23.79 151.24 L 23.77 152.39 L 23.95 153.51 L 24.32 154.56 L 24.94 155.47 L 25.68 156.32 L 26.53 157.11 L 27.39 157.91 L 28.40 158.53 L 29.35 159.23 L 30.25 160.01 L 31.26 160.63 L 32.19 161.35 L 33.05 162.15 L 33.93 162.93 L 35.12 163.30 L 36.17 163.82 L 37.15 164.43 L 37.95 165.19 L 38.93 165.53 L 40.00 165.63 L 41.17 165.53 L 42.52 165.12 L 43.73 164.84 L 44.85 164.74 L 45.88 164.59 L 46.85 164.38 L 47.20 164.77 L 46.97 165.69 L 46.42 166.72 L 45.70 167.60 L 44.79 168.39 L 43.88 169.04 L 43.01 169.68 L 42.10 170.42 L 41.21 171.20 L 40.36 172.04 L 39.53 172.90 L 38.63 173.72 L 37.66 174.47 L 36.66 175.05 L 35.74 175.29 L 34.67 175.42 L 33.48 175.47 L 32.64 174.95 L 31.94 174.26 L 31.35 173.42 L 31.11 172.08 L 30.82 170.84 L 30.47 169.69 L 30.09 168.57 L 29.55 167.72 L 28.66 167.57 L 27.85 167.47 L 26.91 167.75 L 25.89 168.47 L 25.12 169.31 L 24.56 170.30 L 24.16 171.39 L 23.95 172.42 L 23.90 173.55 L 23.99 174.76 L 24.16 175.77 L 24.28 176.67" fill="none" stroke="#000000" stroke-width="0.5" stroke-linejoin="round" stroke-linecap="round"/>
</svg>