<?xml version="1.0" encoding="UTF-8"?>
<svg xmlns="http://www.w3.org/2000/svg" viewBox="20.47 140.00 33.53 42.82">
<path d="M 49.00 145.00 L 48.46 145.13 L 48.09 145.39 L 47.69 145.62 L 47.24 145.85 L 46.77 146.11 L 46.34 146.33 L 45.91 146.54 L 45.47 146.75 L 45.04 146.96 L 44.61 147.17 L 44.16 147.40 L 43.70 147.66 L 43.26 147.89 L 42.85 148.12 L 42.46 148.35 L 42.05 148.60 L 41.63 148.89 L 41.24 149.21 L 40.89 149.56 L 40.58 149.93 L 40.30 150.33 L 40.05 150.74 L 39.82 151.17 L 39.63 151.62 L 39.46 152.10 L 39.31 152.59 L 39.17 153.07 L 39.10 153.48 L 39.01 153.96 L 38.92 154.47 L 38.86 154.95 L 38.79 155.42 L 38.72 155.92 L 38.65 156.43 L 38.59 156.91 L 38.54 157.38 L 38.48 157.89 L 38.43 158.41 L 38.40 158.91 L 38.40 159.39 L 38.41 159.86 L 38.44 160.35 L 38.45 160.86 L 38.47 161.36 L 38.50 161.85 L 38.52 162.34 L 38.53 162.81 L 38.52 163.27 L 38.46 163.75 L 38.37 164.26 L 38.24 164.76 L 38.09 165.24 L 37.92 165.65 L 37.73 166.09 L 37.53 166.55 L 37.34 167.01 L 37.16 167.41 L 36.96 167.84 L 36.75 168.28 L 36.57 168.74 L 36.39 169.22 L 36.23 169.70 L 36.09 170.17 L 36.00 170.57 L 35.89 171.00 L 35.76 171.47 L 35.61 171.96 L 35.41 172.41 L 35.18 172.83 L 34.91 173.24 L 34.61 173.62 L 34.29 173.99 L 33.93 174.34 L 33.54 174.65 L 33.15 174.97 L 32.75 175.24 L 32.33 175.46 L 31.83 175.69 L 31.41 175.72 L 31.19 175.42 L 30.94 175.11 L 30.67 174.74 L 30.46 174.26 L 30.22 173.90 L 30.00 173.66 L 29.63 173.78 L 29.26 174.02 L 28.90 174.35 L 28.57 174.71 L 28.29 175.10 L 28.00 175.49 L 27.69 175.86 L 27.35 176.22 L 26.98 176.56 L 26.61 176.89 L 26.21 177.20 L 25.83 177.52 L 25.47 177.82" fill="none" stroke="#000000" stroke-width="0.5" stroke-linejoin="round" stroke-linecap="round"/>
</svg>