<?xml version="1.0" encoding="UTF-8"?>
<svg xmlns="http://www.w3.org/2000/svg" viewBox="19.67 140.00 34.40 42.35">
<path d="M 49.00 145.00 L 48.16 145.17 L 47.48 145.60 L 46.68 146.07 L 45.93 146.37 L 45.26 146.56 L 44.66 146.63 L 43.95 146.83 L 43.21 147.05 L 42.53 147.20 L 41.93 147.27 L 41.25 147.48 L 40.50 147.77 L 39.67 148.18 L 38.83 148.60 L 38.11 148.86 L 37.51 148.94 L 36.91 148.98 L 36.16 149.22 L 35.60 149.19 L 35.35 148.73 L 35.30 147.99 L 35.24 147.26 L 35.15 146.62 L 35.09 146.06 L 34.80 146.01 L 34.26 146.52 L 33.63 147.37 L 33.27 148.08 L 33.02 148.88 L 32.86 149.74 L 32.96 150.37 L 33.14 150.91 L 33.35 151.46 L 33.69 151.85 L 34.19 152.00 L 34.75 152.08 L 35.32 152.14 L 36.09 151.92 L 36.77 151.80 L 37.41 151.76 L 37.96 151.83 L 38.58 151.82 L 39.20 151.81 L 39.76 151.88 L 40.38 151.85 L 41.06 151.75 L 41.82 151.52 L 42.40 151.55 L 42.94 151.61 L 43.55 151.58 L 44.31 151.35 L 44.95 151.28 L 45.59 151.16 L 46.33 150.92 L 47.08 150.68 L 47.81 150.43 L 48.54 150.18 L 49.04 150.19 L 49.07 150.75 L 48.83 151.55 L 48.43 152.46 L 47.88 153.46 L 47.29 154.40 L 46.62 155.31 L 45.90 156.19 L 45.16 157.06 L 44.45 157.92 L 43.73 158.73 L 42.98 159.55 L 42.21 160.42 L 41.53 161.19 L 40.82 162.02 L 40.06 162.90 L 39.28 163.75 L 38.51 164.61 L 37.77 165.41 L 37.03 166.13 L 36.22 166.92 L 35.42 167.66 L 34.64 168.34 L 33.83 169.06 L 33.04 169.72 L 32.25 170.36 L 31.45 171.00 L 30.63 171.64 L 29.77 172.27 L 28.98 172.78 L 28.19 173.23 L 27.50 173.51 L 27.25 173.19 L 27.21 172.67 L 26.78 172.86 L 26.19 173.49 L 25.54 174.40 L 25.19 175.13 L 24.95 175.93 L 24.73 176.75 L 24.67 177.35" fill="none" stroke="#000000" stroke-width="0.5" stroke-linejoin="round" stroke-linecap="round"/>
</svg>