<?xml version="1.0" encoding="UTF-8"?>
<svg xmlns="http://www.w3.org/2000/svg" viewBox="13.42 140.00 40.58 42.35">
<path d="M 49.00 145.00 L 48.35 145.19 L 47.89 145.43 L 47.42 145.66 L 46.94 145.90 L 46.51 146.14 L 46.08 146.47 L 45.66 146.88 L 45.26 147.30 L 44.88 147.74 L 44.52 148.19 L 44.21 148.63 L 43.91 149.10 L 43.63 149.58 L 43.37 150.06 L 43.12 150.55 L 42.90 151.05 L 42.67 151.56 L 42.40 152.08 L 42.09 152.57 L 41.74 153.03 L 41.38 153.48 L 40.99 153.90 L 40.60 154.32 L 40.20 154.73 L 39.79 155.09 L 39.37 155.49 L 38.96 155.89 L 38.60 156.28 L 38.26 156.74 L 37.93 157.22 L 37.63 157.70 L 37.35 158.16 L 37.05 158.62 L 36.74 159.11 L 36.43 159.56 L 36.12 160.01 L 35.82 160.51 L 35.52 161.00 L 35.28 161.44 L 35.10 161.86 L 34.86 162.40 L 34.65 162.96 L 34.43 163.52 L 34.22 164.03 L 34.04 164.56 L 33.87 165.11 L 33.73 165.67 L 33.59 166.23 L 33.42 166.77 L 33.17 167.25 L 32.83 167.67 L 32.38 168.06 L 32.03 168.13 L 31.62 168.10 L 31.13 168.00 L 30.57 167.87 L 30.02 167.73 L 29.47 167.60 L 28.93 167.47 L 28.34 167.40 L 27.72 167.40 L 27.18 167.31 L 26.67 167.20 L 26.07 167.21 L 25.46 167.22 L 24.86 167.25 L 24.34 167.19 L 23.82 167.15 L 23.20 167.22 L 22.62 167.26 L 22.06 167.32 L 21.53 167.39 L 21.00 167.54 L 20.47 167.75 L 19.97 167.99 L 19.48 168.35 L 19.11 168.73 L 18.80 169.20 L 18.55 169.73 L 18.45 170.20 L 18.42 170.73 L 18.47 171.31 L 18.61 171.89 L 18.85 172.38 L 19.15 172.83 L 19.51 173.24 L 19.91 173.62 L 20.28 174.06 L 20.61 174.55 L 21.09 174.85 L 21.48 175.27 L 21.82 175.75 L 22.29 176.05 L 22.74 176.39 L 23.23 176.66 L 23.81 176.82 L 24.22 177.06 L 24.50 177.35" fill="none" stroke="#000000" stroke-width="0.5" stroke-linejoin="round" stroke-linecap="round"/>
</svg>