<?xml version="1.0" encoding="UTF-8"?>
<svg xmlns="http://www.w3.org/2000/svg" viewBox="13.50 140.00 43.03 42.35">
<path d="M 49.00 145.00 L 49.66 145.15 L 49.94 145.30 L 50.21 145.55 L 50.52 145.84 L 50.92 145.94 L 51.48 145.72 L 51.54 146.07 L 51.26 146.75 L 50.76 147.60 L 50.22 148.42 L 49.63 149.16 L 49.02 149.87 L 48.39 150.62 L 47.79 151.35 L 47.21 152.11 L 46.64 152.90 L 46.09 153.70 L 45.59 154.51 L 45.12 155.34 L 44.65 156.17 L 44.20 156.97 L 43.75 157.76 L 43.26 158.61 L 42.77 159.45 L 42.29 160.29 L 41.82 161.12 L 41.39 161.98 L 40.94 162.77 L 40.47 163.47 L 40.13 163.87 L 39.80 164.13 L 39.41 164.34 L 38.88 164.58 L 38.27 164.76 L 37.69 164.92 L 37.24 164.92 L 36.62 165.20 L 35.96 165.54 L 35.24 165.99 L 34.53 166.45 L 33.83 166.91 L 33.19 167.26 L 32.54 167.61 L 31.91 167.94 L 31.36 168.16 L 30.70 168.53 L 29.98 168.98 L 29.27 169.44 L 28.62 169.84 L 27.99 170.19 L 27.28 170.64 L 26.62 170.99 L 26.05 171.20 L 25.39 171.52 L 24.72 171.82 L 24.12 172.01 L 23.55 172.13 L 22.99 172.21 L 22.51 172.22 L 22.17 172.11 L 21.95 171.89 L 22.16 171.07 L 22.48 170.13 L 22.79 169.28 L 22.95 168.67 L 22.71 168.63 L 22.04 169.19 L 21.43 169.74 L 20.82 170.38 L 20.21 171.15 L 19.65 171.93 L 19.16 172.77 L 18.74 173.66 L 18.50 174.40 L 18.56 174.84 L 18.96 174.89 L 19.35 175.04 L 19.66 175.33 L 19.98 175.62 L 20.31 175.90 L 20.94 175.74 L 21.49 175.67 L 22.01 175.65 L 22.63 175.48 L 23.21 175.38 L 23.78 175.31 L 24.27 175.32 L 24.74 175.39 L 25.19 175.48 L 25.78 175.34 L 26.33 175.23 L 26.77 175.18 L 27.43 174.69 L 27.75 174.52 L 27.43 175.13 L 26.89 175.89 L 26.32 176.63 L 25.70 177.35" fill="none" stroke="#000000" stroke-width="0.5" stroke-linejoin="round" stroke-linecap="round"/>
</svg>