<?xml version="1.0" encoding="UTF-8"?>
<svg xmlns="http://www.w3.org/2000/svg" viewBox="19.54 140.00 34.46 42.87">
<path d="M 49.00 145.00 L 48.61 145.63 L 48.14 146.27 L 47.69 146.88 L 47.23 147.48 L 46.75 148.11 L 46.30 148.76 L 45.91 149.46 L 45.61 150.14 L 45.42 150.66 L 45.29 151.10 L 45.09 151.69 L 44.80 152.39 L 44.46 153.11 L 44.11 153.76 L 43.71 154.43 L 43.33 155.13 L 42.96 155.85 L 42.62 156.53 L 42.31 157.20 L 42.00 157.88 L 41.71 158.58 L 41.43 159.27 L 41.15 159.97 L 40.86 160.67 L 40.58 161.37 L 40.29 162.06 L 39.98 162.74 L 39.63 163.39 L 39.21 164.01 L 38.70 164.63 L 38.20 165.10 L 37.70 165.47 L 37.21 165.73 L 36.66 165.98 L 36.07 166.27 L 35.41 166.63 L 34.82 166.87 L 34.25 167.07 L 33.76 167.14 L 33.26 167.18 L 32.75 167.21 L 32.23 167.24 L 31.71 167.27 L 31.19 167.30 L 30.68 167.33 L 30.17 167.36 L 29.67 167.40 L 29.17 167.52 L 28.67 167.77 L 28.15 168.10 L 27.57 168.56 L 27.00 169.12 L 26.53 169.64 L 26.10 170.21 L 25.64 170.86 L 25.22 171.53 L 24.87 172.24 L 24.62 172.96 L 24.54 173.52 L 24.59 173.95 L 24.89 174.07 L 25.43 173.88 L 26.03 173.57 L 26.66 173.19 L 27.28 172.80 L 27.89 172.41 L 28.51 172.02 L 29.08 171.73 L 29.66 171.48 L 30.26 171.25 L 30.76 171.20 L 31.20 171.27 L 31.45 171.62 L 31.72 171.98 L 32.01 172.32 L 32.41 172.51 L 32.71 172.84 L 33.02 173.17 L 33.42 173.36 L 33.65 173.65 L 33.78 173.90 L 33.81 174.10 L 33.59 174.45 L 33.21 174.84 L 32.74 175.17 L 32.21 175.40 L 31.66 175.63 L 31.09 175.88 L 30.47 176.23 L 29.86 176.59 L 29.31 176.86 L 28.68 177.21 L 28.04 177.54 L 27.44 177.78 L 27.05 177.71 L 26.66 177.63 L 26.21 177.70 L 25.74 177.87" fill="none" stroke="#000000" stroke-width="0.5" stroke-linejoin="round" stroke-linecap="round"/>
</svg>