<?xml version="1.0" encoding="UTF-8"?>
<svg xmlns="http://www.w3.org/2000/svg" viewBox="20.72 140.00 37.91 41.92">
<path d="M 49.00 145.00 L 47.47 145.35 L 46.44 145.87 L 45.53 146.16 L 44.58 146.69 L 43.76 147.46 L 43.00 148.50 L 43.15 148.69 L 43.77 148.62 L 44.89 148.16 L 46.18 147.72 L 47.48 147.36 L 48.84 146.93 L 50.14 146.74 L 51.34 146.83 L 52.23 147.28 L 53.03 147.73 L 53.63 148.19 L 53.39 149.25 L 52.71 150.33 L 51.73 151.20 L 50.89 151.27 L 49.90 151.16 L 48.83 150.87 L 47.57 150.61 L 46.32 150.40 L 45.07 150.30 L 43.83 150.20 L 42.50 150.26 L 41.14 150.42 L 40.03 150.29 L 38.83 150.39 L 37.61 150.57 L 36.34 150.88 L 35.10 151.30 L 33.92 151.80 L 32.79 152.43 L 31.71 153.13 L 30.72 153.94 L 29.82 154.85 L 29.02 155.86 L 28.38 156.98 L 27.92 158.20 L 27.62 159.51 L 27.51 160.60 L 27.66 161.37 L 28.22 161.65 L 29.48 160.97 L 30.57 160.25 L 31.54 159.50 L 31.14 160.55 L 30.70 161.81 L 30.32 163.05 L 30.95 162.89 L 31.94 162.27 L 33.05 161.62 L 34.18 160.99 L 35.27 160.33 L 36.34 159.58 L 37.37 158.79 L 38.34 157.96 L 39.30 157.09 L 40.31 156.24 L 41.42 155.45 L 42.61 154.77 L 43.60 154.45 L 44.35 154.59 L 44.77 155.29 L 44.68 156.61 L 45.33 157.00 L 46.58 156.44 L 47.76 155.70 L 48.54 155.54 L 48.86 155.79 L 48.33 157.02 L 47.86 157.98 L 47.07 158.98 L 46.18 159.81 L 45.32 160.49 L 44.26 161.16 L 43.14 161.82 L 42.00 162.52 L 40.91 163.21 L 39.83 163.88 L 38.74 164.61 L 37.66 165.31 L 36.61 166.00 L 35.56 166.77 L 34.54 167.55 L 33.54 168.36 L 32.57 169.23 L 31.62 170.11 L 30.68 171.02 L 29.78 171.94 L 28.92 172.90 L 28.09 173.88 L 27.28 174.87 L 26.49 175.89 L 25.72 176.92" fill="none" stroke="#000000" stroke-width="0.5" stroke-linejoin="round" stroke-linecap="round"/>
</svg>