<?xml version="1.0" encoding="UTF-8"?>
<svg xmlns="http://www.w3.org/2000/svg" viewBox="13.98 140.00 40.02 42.51">
<path d="M 49.00 145.00 L 48.48 145.31 L 48.08 145.61 L 47.66 145.88 L 47.18 146.16 L 46.70 146.40 L 46.22 146.62 L 45.77 146.85 L 45.31 147.08 L 44.85 147.31 L 44.33 147.62 L 43.88 147.89 L 43.46 148.14 L 43.05 148.40 L 42.57 148.73 L 42.09 149.07 L 41.67 149.33 L 41.24 149.65 L 40.81 149.98 L 40.41 150.26 L 39.97 150.61 L 39.52 150.97 L 39.07 151.33 L 38.68 151.65 L 38.27 151.94 L 37.82 152.30 L 37.39 152.63 L 37.01 152.92 L 36.59 153.29 L 36.16 153.66 L 35.71 154.03 L 35.29 154.40 L 34.89 154.75 L 34.53 155.05 L 34.11 155.43 L 33.69 155.81 L 33.28 156.20 L 32.89 156.60 L 32.50 157.01 L 32.11 157.41 L 31.72 157.81 L 31.33 158.22 L 30.94 158.62 L 30.55 159.02 L 30.16 159.43 L 29.77 159.83 L 29.38 160.24 L 28.99 160.64 L 28.60 161.04 L 28.21 161.45 L 27.82 161.85 L 27.45 162.27 L 27.10 162.70 L 26.74 163.13 L 26.39 163.55 L 26.05 163.96 L 25.69 164.39 L 25.35 164.83 L 25.01 165.27 L 24.66 165.70 L 24.31 166.14 L 23.99 166.59 L 23.67 167.05 L 23.35 167.50 L 23.03 167.93 L 22.70 168.38 L 22.38 168.83 L 22.05 169.28 L 21.73 169.71 L 21.41 170.16 L 21.09 170.61 L 20.79 171.08 L 20.49 171.55 L 20.17 172.01 L 19.88 172.46 L 19.58 172.92 L 19.32 173.42 L 19.11 173.95 L 18.98 174.42 L 19.35 174.28 L 19.79 174.15 L 20.31 173.96 L 20.71 174.02 L 21.18 173.99 L 21.74 173.84 L 22.15 173.94 L 22.62 173.95 L 23.13 173.93 L 23.59 174.02 L 24.04 174.14 L 24.49 174.26 L 24.80 174.60 L 25.10 174.93 L 25.38 175.25 L 25.63 175.55 L 25.72 175.96 L 25.65 176.48 L 25.49 177.00 L 25.26 177.51" fill="none" stroke="#000000" stroke-width="0.5" stroke-linejoin="round" stroke-linecap="round"/>
</svg>