<?xml version="1.0" encoding="UTF-8"?>
<svg xmlns="http://www.w3.org/2000/svg" viewBox="20.43 140.00 36.67 42.66">
<path d="M 49.00 145.00 L 49.30 145.54 L 49.26 145.93 L 49.22 146.38 L 49.13 146.92 L 48.99 147.47 L 48.92 147.96 L 48.82 148.50 L 48.78 148.96 L 49.01 149.16 L 49.17 149.52 L 49.19 150.14 L 49.35 150.61 L 49.50 151.07 L 49.65 151.50 L 49.77 152.04 L 49.89 152.61 L 50.01 153.17 L 50.25 153.57 L 50.50 153.95 L 50.70 154.41 L 50.91 154.88 L 51.07 155.39 L 51.18 155.95 L 51.29 156.47 L 51.46 156.91 L 51.56 157.45 L 51.65 158.00 L 51.79 158.46 L 51.90 158.91 L 51.96 159.44 L 52.00 160.00 L 51.99 160.57 L 52.07 160.99 L 52.09 161.45 L 52.04 162.00 L 51.99 162.54 L 51.90 163.06 L 51.77 163.56 L 51.63 164.05 L 51.45 164.55 L 51.23 165.03 L 51.00 165.51 L 50.74 165.97 L 50.46 166.41 L 50.13 166.82 L 49.80 167.23 L 49.48 167.61 L 49.15 167.95 L 48.75 168.30 L 48.32 168.60 L 47.91 168.87 L 47.51 169.15 L 47.08 169.41 L 46.61 169.65 L 46.12 169.93 L 45.66 170.17 L 45.21 170.39 L 44.71 170.63 L 44.22 170.81 L 43.73 170.98 L 43.27 171.09 L 42.76 171.22 L 42.23 171.40 L 41.78 171.51 L 41.32 171.62 L 40.78 171.83 L 40.24 172.01 L 39.76 172.11 L 39.29 172.20 L 38.79 172.28 L 38.28 172.36 L 37.78 172.43 L 37.24 172.55 L 36.69 172.69 L 36.18 172.78 L 35.69 172.86 L 35.20 172.95 L 34.68 173.05 L 34.14 173.20 L 33.65 173.32 L 33.19 173.43 L 32.69 173.62 L 32.20 173.83 L 31.72 174.05 L 31.23 174.31 L 30.74 174.56 L 30.27 174.79 L 29.81 175.00 L 29.35 175.21 L 28.90 175.45 L 28.45 175.69 L 27.99 175.94 L 27.49 176.24 L 27.05 176.49 L 26.64 176.74 L 26.25 177.00 L 25.83 177.31 L 25.43 177.66" fill="none" stroke="#000000" stroke-width="0.5" stroke-linejoin="round" stroke-linecap="round"/>
</svg>