<?xml version="1.0" encoding="UTF-8"?>
<svg xmlns="http://www.w3.org/2000/svg" viewBox="14.76 140.00 41.55 42.22">
<path d="M 49.00 145.00 L 49.46 146.18 L 49.56 146.95 L 49.81 147.64 L 50.01 148.60 L 50.15 149.64 L 50.22 150.81 L 50.47 151.71 L 50.81 152.46 L 51.10 153.18 L 51.31 153.83 L 51.11 154.81 L 50.66 155.87 L 50.03 156.97 L 49.30 157.96 L 48.52 158.88 L 47.67 159.82 L 46.83 160.77 L 46.00 161.73 L 45.20 162.71 L 44.44 163.73 L 43.71 164.76 L 42.99 165.78 L 42.24 166.76 L 41.42 167.71 L 40.53 168.57 L 39.63 169.28 L 38.78 169.69 L 38.13 169.63 L 37.14 169.85 L 36.09 170.04 L 35.13 170.06 L 34.56 169.52 L 34.10 168.81 L 33.68 168.00 L 33.16 167.41 L 32.70 166.87 L 32.43 166.18 L 32.54 165.07 L 32.84 163.80 L 33.12 162.60 L 33.40 161.40 L 33.63 160.26 L 33.69 159.35 L 33.31 159.11 L 32.37 159.75 L 31.46 160.52 L 30.62 161.46 L 29.96 162.52 L 29.48 163.65 L 29.23 164.71 L 29.23 165.64 L 29.38 166.53 L 29.72 167.28 L 30.05 168.13 L 30.28 169.14 L 30.62 169.99 L 30.91 170.63 L 31.13 170.99 L 31.01 171.48 L 30.50 172.18 L 30.14 172.35 L 29.36 172.74 L 28.29 173.18 L 27.12 173.61 L 26.11 173.83 L 25.49 173.47 L 24.98 172.90 L 24.54 172.14 L 24.16 171.36 L 23.80 170.60 L 23.49 169.86 L 23.58 168.69 L 23.71 167.54 L 23.90 166.39 L 24.17 165.18 L 24.37 164.02 L 24.53 162.89 L 24.71 161.78 L 24.08 161.83 L 23.30 162.19 L 22.33 162.97 L 21.46 163.86 L 20.74 164.90 L 20.17 166.01 L 19.85 167.00 L 19.84 167.84 L 19.76 168.97 L 20.00 169.82 L 20.54 170.35 L 20.93 171.11 L 21.34 171.91 L 21.76 172.71 L 22.17 173.52 L 22.59 174.32 L 23.01 175.13 L 23.43 175.94 L 23.76 176.68 L 24.10 177.22" fill="none" stroke="#000000" stroke-width="0.5" stroke-linejoin="round" stroke-linecap="round"/>
</svg>