<?xml version="1.0" encoding="UTF-8"?>
<svg xmlns="http://www.w3.org/2000/svg" viewBox="18.23 140.00 37.23 42.40">
<path d="M 49.00 145.00 L 49.59 145.37 L 49.84 145.59 L 50.04 145.96 L 50.27 146.35 L 50.41 146.78 L 50.46 147.28 L 50.44 147.81 L 50.37 148.32 L 50.26 148.81 L 50.12 149.27 L 49.93 149.71 L 49.66 150.13 L 49.34 150.52 L 49.00 150.84 L 48.64 151.10 L 48.22 151.35 L 47.75 151.58 L 47.28 151.76 L 46.80 151.93 L 46.33 152.05 L 45.88 152.14 L 45.43 152.24 L 44.98 152.33 L 44.47 152.52 L 43.99 152.70 L 43.55 152.88 L 43.12 153.09 L 42.66 153.31 L 42.18 153.53 L 41.71 153.77 L 41.29 153.95 L 40.91 154.10 L 40.47 154.35 L 40.04 154.61 L 39.62 154.88 L 39.20 155.19 L 38.79 155.50 L 38.39 155.78 L 37.99 156.07 L 37.59 156.35 L 37.18 156.64 L 36.78 156.93 L 36.38 157.22 L 35.96 157.53 L 35.57 157.84 L 35.18 158.14 L 34.80 158.44 L 34.39 158.74 L 33.97 159.04 L 33.55 159.32 L 33.16 159.60 L 32.77 159.84 L 32.35 160.10 L 31.92 160.38 L 31.54 160.62 L 31.14 160.90 L 30.72 161.20 L 30.30 161.49 L 29.90 161.78 L 29.51 162.07 L 29.11 162.36 L 28.71 162.66 L 28.30 162.96 L 27.89 163.27 L 27.51 163.57 L 27.14 163.88 L 26.78 164.21 L 26.43 164.56 L 26.07 164.92 L 25.73 165.29 L 25.41 165.67 L 25.14 166.06 L 24.88 166.47 L 24.62 166.89 L 24.40 167.30 L 24.23 167.76 L 24.08 168.27 L 24.00 168.71 L 23.94 169.13 L 23.84 169.62 L 23.76 170.13 L 23.69 170.65 L 23.62 171.16 L 23.56 171.63 L 23.54 172.07 L 23.47 172.57 L 23.39 173.08 L 23.32 173.59 L 23.26 174.11 L 23.23 174.66 L 23.30 175.15 L 23.54 175.47 L 23.91 175.68 L 24.30 175.89 L 24.67 176.13 L 24.94 176.42 L 24.99 176.91 L 24.95 177.40" fill="none" stroke="#000000" stroke-width="0.5" stroke-linejoin="round" stroke-linecap="round"/>
</svg>