<?xml version="1.0" encoding="UTF-8"?>
<svg xmlns="http://www.w3.org/2000/svg" viewBox="13.88 140.00 40.12 42.68">
<path d="M 49.00 145.00 L 48.40 145.22 L 47.98 145.45 L 47.55 145.61 L 47.10 145.76 L 46.66 145.91 L 46.21 146.11 L 45.74 146.43 L 45.30 146.76 L 44.88 147.13 L 44.50 147.55 L 44.16 147.98 L 43.84 148.40 L 43.57 148.83 L 43.33 149.30 L 43.13 149.80 L 42.99 150.21 L 42.79 150.57 L 42.54 150.91 L 42.23 151.34 L 41.91 151.63 L 41.51 151.86 L 40.98 152.13 L 40.53 152.29 L 40.10 152.45 L 39.68 152.63 L 39.18 152.92 L 38.70 153.22 L 38.24 153.54 L 37.80 153.87 L 37.36 154.21 L 36.90 154.53 L 36.43 154.84 L 35.96 155.14 L 35.54 155.38 L 35.12 155.62 L 34.65 155.93 L 34.18 156.24 L 33.73 156.57 L 33.29 156.90 L 32.85 157.24 L 32.44 157.59 L 32.03 157.95 L 31.63 158.31 L 31.20 158.70 L 30.79 159.07 L 30.39 159.43 L 29.98 159.78 L 29.55 160.12 L 29.11 160.46 L 28.67 160.79 L 28.23 161.12 L 27.79 161.46 L 27.35 161.79 L 26.91 162.12 L 26.47 162.46 L 26.02 162.79 L 25.58 163.13 L 25.14 163.46 L 24.70 163.79 L 24.26 164.13 L 23.84 164.47 L 23.43 164.83 L 23.05 165.21 L 22.67 165.61 L 22.29 166.02 L 21.91 166.44 L 21.58 166.86 L 21.26 167.29 L 20.94 167.73 L 20.63 168.20 L 20.35 168.69 L 20.13 169.18 L 19.95 169.68 L 19.78 170.19 L 19.63 170.72 L 19.50 171.26 L 19.37 171.79 L 19.23 172.31 L 19.16 172.77 L 19.04 173.31 L 18.93 173.89 L 18.90 174.38 L 18.88 174.87 L 19.00 175.25 L 19.52 175.16 L 19.81 175.42 L 20.02 175.82 L 20.26 176.20 L 20.65 176.40 L 21.11 176.52 L 21.60 176.60 L 22.03 176.78 L 22.43 176.99 L 22.82 177.20 L 23.22 177.41 L 23.65 177.58 L 24.10 177.61 L 24.45 177.68" fill="none" stroke="#000000" stroke-width="0.5" stroke-linejoin="round" stroke-linecap="round"/>
</svg>