<?xml version="1.0" encoding="UTF-8"?>
<svg xmlns="http://www.w3.org/2000/svg" viewBox="19.99 140.00 34.01 43.00">
<path d="M 49.00 145.00 L 48.99 145.00 L 48.85 145.19 L 48.92 145.09 L 48.98 145.00 L 48.97 145.00 L 48.96 145.01 L 48.71 145.35 L 48.52 145.60 L 48.31 145.89 L 48.07 146.21 L 47.88 146.48 L 47.70 146.71 L 47.50 146.99 L 47.25 147.32 L 47.00 147.66 L 46.75 148.00 L 46.47 148.39 L 46.13 148.84 L 45.80 149.29 L 45.47 149.76 L 45.12 150.23 L 44.79 150.68 L 44.46 151.15 L 44.17 151.54 L 43.84 152.00 L 43.51 152.46 L 43.20 152.88 L 42.88 153.32 L 42.53 153.80 L 42.20 154.26 L 41.87 154.71 L 41.54 155.17 L 41.21 155.62 L 40.88 156.07 L 40.54 156.53 L 40.21 156.99 L 39.86 157.47 L 39.52 157.93 L 39.20 158.38 L 38.95 158.72 L 38.64 159.14 L 38.34 159.55 L 38.14 159.81 L 37.92 160.11 L 37.67 160.45 L 37.42 160.79 L 37.14 161.18 L 36.84 161.58 L 36.51 162.03 L 36.18 162.49 L 35.85 162.94 L 35.53 163.39 L 35.31 163.69 L 35.07 164.02 L 34.83 164.36 L 34.64 164.63 L 34.52 164.80 L 34.36 165.02 L 34.07 165.42 L 33.90 165.67 L 33.78 165.83 L 33.54 166.17 L 33.22 166.61 L 32.88 167.08 L 32.55 167.53 L 32.21 168.00 L 31.88 168.46 L 31.55 168.90 L 31.25 169.32 L 30.99 169.66 L 30.66 170.11 L 30.35 170.54 L 30.06 170.93 L 29.77 171.33 L 29.48 171.73 L 29.15 172.18 L 28.81 172.65 L 28.46 173.12 L 28.13 173.59 L 27.80 174.04 L 27.47 174.50 L 27.17 174.91 L 26.89 175.30 L 26.65 175.64 L 26.41 175.97 L 26.17 176.31 L 25.93 176.65 L 25.74 176.91 L 25.57 177.14 L 25.47 177.29 L 25.37 177.44 L 25.26 177.59 L 25.16 177.74 L 25.14 177.78 L 25.14 177.78 L 25.08 177.88 L 25.00 177.99 L 24.99 178.00" fill="none" stroke="#000000" stroke-width="0.5" stroke-linejoin="round" stroke-linecap="round"/>
</svg>