<?xml version="1.0" encoding="UTF-8"?>
<svg xmlns="http://www.w3.org/2000/svg" viewBox="14.43 140.00 42.29 42.20">
<path d="M 49.00 145.00 L 48.14 146.56 L 47.09 148.01 L 45.98 149.43 L 44.79 150.79 L 43.48 152.02 L 42.03 153.12 L 40.48 154.05 L 38.82 154.78 L 37.20 155.23 L 35.68 155.52 L 34.24 155.82 L 32.68 156.32 L 31.02 157.10 L 29.32 158.08 L 27.72 158.99 L 26.16 159.91 L 24.81 160.96 L 23.84 161.93 L 23.13 163.11 L 23.35 163.52 L 24.46 163.13 L 25.57 163.27 L 27.16 163.23 L 29.09 162.78 L 31.01 162.32 L 32.86 161.83 L 34.47 161.63 L 36.15 161.40 L 37.91 161.10 L 39.70 160.78 L 41.44 160.40 L 43.13 159.97 L 44.81 159.41 L 46.47 158.75 L 48.19 157.97 L 49.72 157.05 L 51.09 156.01 L 50.73 157.01 L 49.79 158.51 L 48.68 159.89 L 47.37 161.11 L 45.82 162.13 L 44.25 162.97 L 42.67 163.68 L 41.16 164.21 L 39.56 164.76 L 37.84 165.37 L 36.03 166.05 L 34.24 166.70 L 32.58 167.15 L 30.89 167.55 L 29.15 167.86 L 27.57 168.34 L 26.39 168.99 L 25.60 169.78 L 25.14 170.78 L 25.70 171.00 L 26.90 171.01 L 28.69 170.95 L 30.63 170.80 L 32.35 170.83 L 33.91 170.98 L 35.76 170.70 L 37.61 170.41 L 39.47 170.10 L 41.29 169.80 L 43.08 169.59 L 44.78 169.45 L 46.47 169.32 L 48.16 169.18 L 49.87 168.58 L 51.21 168.00 L 51.72 168.01 L 50.74 169.48 L 49.59 170.71 L 48.21 171.70 L 46.61 172.39 L 44.89 172.99 L 43.08 173.53 L 41.40 173.76 L 39.74 173.90 L 38.10 173.97 L 36.29 174.20 L 34.46 174.49 L 32.61 174.77 L 30.74 175.04 L 28.81 175.27 L 27.15 175.01 L 25.48 174.65 L 23.82 174.14 L 22.48 173.60 L 21.37 173.40 L 20.62 173.54 L 19.57 174.96 L 19.43 175.95 L 20.15 176.57 L 21.33 176.99 L 22.59 177.20" fill="none" stroke="#000000" stroke-width="0.5" stroke-linejoin="round" stroke-linecap="round"/>
</svg>