<?xml version="1.0" encoding="UTF-8"?>
<svg xmlns="http://www.w3.org/2000/svg" viewBox="13.69 140.00 40.31 42.72">
<path d="M 49.00 145.00 L 48.39 145.39 L 47.86 145.89 L 47.28 146.37 L 46.72 146.80 L 46.20 147.16 L 45.67 147.52 L 45.08 147.93 L 44.49 148.33 L 43.91 148.74 L 43.37 149.13 L 42.84 149.47 L 42.26 149.92 L 41.68 150.36 L 41.19 150.69 L 40.59 151.16 L 40.00 151.60 L 39.44 152.00 L 38.92 152.35 L 38.37 152.73 L 37.79 153.15 L 37.23 153.57 L 36.67 154.00 L 36.09 154.47 L 35.52 154.95 L 34.98 155.39 L 34.44 155.83 L 33.88 156.31 L 33.30 156.80 L 32.76 157.24 L 32.21 157.72 L 31.65 158.22 L 31.14 158.68 L 30.60 159.19 L 30.06 159.71 L 29.51 160.27 L 29.02 160.77 L 28.51 161.30 L 27.99 161.87 L 27.50 162.42 L 27.01 163.00 L 26.52 163.61 L 26.02 164.20 L 25.51 164.78 L 25.00 165.37 L 24.53 165.88 L 24.03 166.40 L 23.49 166.91 L 22.90 167.43 L 22.36 167.88 L 21.87 168.25 L 21.32 168.67 L 20.73 169.07 L 20.16 169.45 L 19.67 169.82 L 19.28 170.19 L 18.86 170.76 L 18.69 171.14 L 19.05 170.94 L 19.45 170.85 L 19.86 170.87 L 20.39 170.79 L 20.93 170.70 L 21.50 170.58 L 21.95 170.60 L 22.38 170.66 L 22.92 170.58 L 23.45 170.54 L 23.90 170.61 L 24.34 170.68 L 24.79 170.75 L 25.25 170.83 L 25.69 170.90 L 26.11 170.95 L 26.52 171.00 L 27.08 170.83 L 27.70 170.53 L 28.22 170.38 L 28.81 170.11 L 29.41 169.86 L 29.95 169.73 L 30.39 169.75 L 30.82 169.80 L 31.24 169.85 L 31.56 170.00 L 31.57 170.47 L 31.36 171.14 L 31.09 171.80 L 30.73 172.49 L 30.30 173.14 L 29.84 173.76 L 29.34 174.35 L 28.82 174.91 L 28.29 175.43 L 27.77 175.91 L 27.24 176.35 L 26.68 176.79 L 26.10 177.28 L 25.60 177.72" fill="none" stroke="#000000" stroke-width="0.5" stroke-linejoin="round" stroke-linecap="round"/>
</svg>