<?xml version="1.0" encoding="UTF-8"?>
<svg xmlns="http://www.w3.org/2000/svg" viewBox="20.76 140.00 34.90 42.95">
<path d="M 49.00 145.00 L 49.35 145.17 L 49.54 145.23 L 49.58 145.56 L 49.65 145.93 L 49.72 146.29 L 49.91 146.47 L 50.17 146.57 L 50.42 146.67 L 50.66 146.76 L 50.61 147.26 L 50.42 147.95 L 50.21 148.63 L 50.07 149.23 L 49.87 149.89 L 49.66 150.57 L 49.43 151.24 L 49.05 152.05 L 48.59 152.86 L 48.00 153.74 L 47.28 154.68 L 47.53 154.17 L 47.80 153.53 L 48.01 152.87 L 48.02 152.44 L 48.10 151.90 L 47.89 151.75 L 47.59 151.72 L 47.15 151.88 L 46.82 151.87 L 46.57 151.77 L 46.31 151.67 L 46.06 151.57 L 45.80 151.47 L 45.54 151.36 L 45.14 151.47 L 44.74 151.58 L 44.69 151.27 L 44.77 150.85 L 45.05 150.23 L 44.38 151.01 L 43.57 152.05 L 42.83 153.08 L 42.12 154.12 L 41.41 155.17 L 40.69 156.24 L 39.95 157.33 L 39.22 158.43 L 38.51 159.54 L 37.86 160.63 L 37.45 161.44 L 37.64 161.49 L 37.69 161.80 L 37.78 162.09 L 38.03 162.19 L 38.12 162.48 L 38.13 162.87 L 37.92 163.56 L 37.54 164.44 L 37.14 165.34 L 36.88 165.99 L 36.43 166.87 L 35.89 167.88 L 35.28 168.99 L 34.73 169.97 L 34.20 170.90 L 33.67 171.82 L 33.04 172.87 L 32.37 173.95 L 31.66 174.99 L 30.89 176.02 L 30.06 177.05 L 29.47 177.66 L 29.07 177.95 L 28.86 177.88 L 29.00 177.30 L 29.13 176.72 L 29.20 176.25 L 29.54 175.41 L 29.93 174.51 L 30.41 173.55 L 30.61 173.02 L 30.89 172.40 L 31.56 171.26 L 32.21 170.14 L 32.85 169.05 L 33.40 168.12 L 33.37 167.98 L 32.68 168.69 L 31.83 169.59 L 31.00 170.49 L 30.67 170.74 L 30.55 170.72 L 29.72 171.72 L 28.89 172.72 L 28.10 173.74 L 27.31 174.80 L 26.53 175.86 L 25.76 176.92" fill="none" stroke="#000000" stroke-width="0.5" stroke-linejoin="round" stroke-linecap="round"/>
</svg>