<?xml version="1.0" encoding="UTF-8"?>
<svg xmlns="http://www.w3.org/2000/svg" viewBox="14.09 140.00 40.09 42.90">
<path d="M 49.00 145.00 L 49.18 146.18 L 49.04 147.06 L 48.97 147.99 L 48.90 149.02 L 48.72 149.94 L 48.36 150.77 L 47.80 151.52 L 47.13 152.06 L 46.63 152.05 L 46.00 151.87 L 45.17 151.65 L 44.29 151.41 L 43.44 151.17 L 42.60 150.96 L 41.72 150.83 L 40.72 150.94 L 39.74 151.12 L 38.90 151.20 L 37.95 151.55 L 37.00 152.00 L 36.14 152.51 L 35.32 153.15 L 34.55 153.89 L 33.84 154.71 L 33.22 155.61 L 32.70 156.58 L 32.28 157.56 L 31.96 158.54 L 31.75 159.54 L 31.60 160.59 L 31.59 161.57 L 31.71 162.46 L 31.84 163.43 L 31.99 164.39 L 32.07 165.23 L 32.10 165.76 L 31.87 166.29 L 31.24 167.00 L 30.65 167.26 L 29.97 167.22 L 29.22 166.92 L 28.57 166.34 L 27.93 165.74 L 27.28 165.12 L 26.61 164.53 L 25.91 164.00 L 25.14 163.54 L 24.27 163.25 L 23.43 162.93 L 22.68 162.49 L 22.14 161.76 L 21.68 160.93 L 21.17 160.19 L 20.69 159.51 L 20.28 159.08 L 19.83 159.10 L 19.21 159.79 L 19.09 160.22 L 19.27 160.68 L 19.73 161.13 L 20.35 161.70 L 21.00 162.31 L 21.65 162.93 L 22.30 163.55 L 23.06 164.03 L 23.79 164.52 L 24.45 165.14 L 25.11 165.75 L 25.78 166.34 L 26.54 166.81 L 27.30 167.27 L 28.07 167.72 L 28.86 168.14 L 29.68 168.52 L 30.53 168.85 L 31.34 169.22 L 32.16 169.58 L 33.04 169.83 L 33.85 170.19 L 34.70 170.47 L 35.67 170.61 L 36.45 170.93 L 37.03 171.38 L 37.29 171.90 L 37.14 172.66 L 36.72 173.47 L 36.19 174.04 L 35.44 174.58 L 34.55 175.04 L 33.63 175.32 L 32.66 175.67 L 31.69 176.01 L 30.76 176.28 L 29.82 176.56 L 28.86 176.86 L 27.85 177.21 L 26.97 177.53 L 26.17 177.90" fill="none" stroke="#000000" stroke-width="0.5" stroke-linejoin="round" stroke-linecap="round"/>
</svg>