<?xml version="1.0" encoding="UTF-8"?>
<svg xmlns="http://www.w3.org/2000/svg" viewBox="20.14 140.00 33.86 43.00">
<path d="M 49.00 145.00 L 48.53 145.63 L 48.23 146.04 L 47.89 146.49 L 47.43 147.12 L 46.95 147.76 L 46.49 148.40 L 46.03 149.03 L 45.57 149.67 L 45.12 150.30 L 44.66 150.94 L 44.20 151.58 L 43.75 152.21 L 43.29 152.85 L 42.83 153.49 L 42.37 154.14 L 41.95 154.73 L 41.51 155.35 L 41.05 155.98 L 40.60 156.62 L 40.14 157.26 L 39.69 157.90 L 39.22 158.55 L 38.82 159.12 L 38.41 159.70 L 37.96 160.34 L 37.50 160.98 L 37.06 161.60 L 36.64 162.19 L 36.19 162.82 L 35.74 163.46 L 35.28 164.09 L 34.81 164.72 L 34.40 165.27 L 34.12 165.62 L 34.11 165.60 L 34.18 165.46 L 34.34 165.20 L 34.56 164.85 L 34.78 164.49 L 35.01 164.12 L 35.32 163.65 L 35.52 163.33 L 35.59 163.19 L 35.81 162.84 L 36.08 162.42 L 36.47 161.85 L 36.82 161.35 L 37.15 160.88 L 36.73 161.45 L 36.29 162.06 L 35.88 162.65 L 35.49 163.21 L 35.13 163.73 L 34.81 164.20 L 34.45 164.74 L 34.07 165.29 L 33.73 165.78 L 33.39 166.25 L 33.03 166.73 L 33.36 166.27 L 33.68 165.80 L 33.99 165.33 L 34.27 164.90 L 34.50 164.55 L 34.73 164.21 L 34.97 163.87 L 34.53 164.47 L 34.13 165.03 L 33.75 165.55 L 33.43 166.02 L 33.04 166.57 L 32.63 167.16 L 32.23 167.74 L 31.82 168.33 L 31.67 168.56 L 31.56 168.76 L 31.37 169.06 L 31.14 169.41 L 30.87 169.83 L 30.50 170.38 L 30.14 170.91 L 29.82 171.38 L 29.43 171.95 L 28.98 172.59 L 28.59 173.15 L 28.19 173.72 L 27.78 174.31 L 27.39 174.87 L 26.98 175.46 L 26.53 176.11 L 26.12 176.68 L 25.71 177.25 L 25.24 177.88 L 25.14 178.00 L 25.25 177.82 L 25.48 177.47 L 25.59 177.28 L 25.45 177.44" fill="none" stroke="#000000" stroke-width="0.5" stroke-linejoin="round" stroke-linecap="round"/>
</svg>