<?xml version="1.0" encoding="UTF-8"?>
<svg xmlns="http://www.w3.org/2000/svg" viewBox="19.30 140.00 53.15 42.87">
<path d="M 49.00 145.00 L 49.75 145.81 L 50.07 146.30 L 50.47 146.85 L 51.08 147.31 L 51.72 147.73 L 52.46 148.00 L 53.23 148.25 L 53.86 148.66 L 54.56 148.98 L 55.30 149.24 L 56.07 149.48 L 56.84 149.69 L 57.49 150.08 L 58.18 150.42 L 58.96 150.64 L 59.63 151.01 L 60.29 151.39 L 61.04 151.66 L 61.79 151.94 L 62.44 152.37 L 63.09 152.79 L 63.74 153.22 L 64.40 153.65 L 65.05 154.08 L 65.70 154.50 L 66.34 154.92 L 66.81 155.52 L 67.18 156.05 L 67.44 156.50 L 67.37 157.16 L 67.11 157.88 L 66.75 158.55 L 66.30 159.15 L 65.76 159.71 L 65.21 160.28 L 64.70 160.86 L 64.22 161.45 L 63.75 162.06 L 63.27 162.69 L 62.80 163.31 L 62.33 163.94 L 61.81 164.53 L 61.20 165.05 L 60.52 165.49 L 59.90 165.65 L 59.32 165.58 L 58.60 165.53 L 57.86 165.37 L 57.11 165.17 L 56.36 164.98 L 55.62 164.79 L 54.89 164.61 L 54.11 164.51 L 53.28 164.47 L 52.46 164.45 L 51.70 164.38 L 51.00 164.24 L 50.28 164.15 L 49.43 164.25 L 48.69 164.24 L 47.91 164.31 L 47.10 164.44 L 46.29 164.57 L 45.59 164.58 L 44.84 164.67 L 44.06 164.82 L 43.30 164.99 L 42.55 165.16 L 41.80 165.39 L 41.02 165.68 L 40.32 165.89 L 39.62 166.18 L 38.91 166.49 L 38.16 166.84 L 37.44 167.20 L 36.74 167.54 L 36.03 167.86 L 35.32 168.22 L 34.67 168.52 L 34.04 168.83 L 33.34 169.26 L 32.66 169.69 L 32.00 170.15 L 31.39 170.59 L 30.77 171.07 L 30.14 171.54 L 29.51 172.02 L 28.90 172.51 L 28.33 173.03 L 27.76 173.55 L 27.18 174.07 L 26.59 174.62 L 26.04 175.15 L 25.52 175.70 L 25.06 176.31 L 24.67 176.98 L 24.30 177.68 L 24.33 177.87" fill="none" stroke="#000000" stroke-width="0.5" stroke-linejoin="round" stroke-linecap="round"/>
</svg>