<?xml version="1.0" encoding="UTF-8"?>
<svg xmlns="http://www.w3.org/2000/svg" viewBox="20.46 140.00 33.54 42.72">
<path d="M 49.00 145.00 L 48.64 145.37 L 48.36 145.71 L 48.10 146.04 L 47.84 146.36 L 47.57 146.71 L 47.29 147.13 L 46.99 147.54 L 46.65 147.93 L 46.33 148.33 L 46.02 148.73 L 45.72 149.13 L 45.45 149.55 L 45.20 150.00 L 44.97 150.47 L 44.80 150.94 L 44.66 151.41 L 44.55 151.89 L 44.47 152.40 L 44.38 152.96 L 44.35 153.45 L 44.40 153.85 L 44.38 154.34 L 44.36 154.86 L 44.31 155.38 L 44.24 155.84 L 44.16 156.35 L 44.06 156.91 L 44.06 157.35 L 44.10 157.74 L 44.14 158.14 L 44.14 158.65 L 44.16 159.19 L 44.17 159.76 L 44.19 160.29 L 44.24 160.76 L 44.35 161.21 L 44.41 161.76 L 44.50 162.30 L 44.64 162.77 L 44.77 163.23 L 44.91 163.70 L 45.04 164.19 L 45.11 164.76 L 45.23 165.28 L 45.38 165.75 L 45.52 166.23 L 45.67 166.70 L 45.81 167.17 L 45.95 167.64 L 46.01 168.23 L 46.08 168.69 L 46.08 169.07 L 45.99 169.37 L 45.77 169.69 L 45.46 169.98 L 45.10 170.15 L 44.68 170.23 L 44.15 170.37 L 43.62 170.50 L 43.07 170.63 L 42.59 170.67 L 42.10 170.70 L 41.61 170.72 L 41.12 170.74 L 40.62 170.76 L 40.06 170.87 L 39.53 170.94 L 39.05 170.98 L 38.58 171.02 L 38.10 171.07 L 37.57 171.21 L 37.06 171.36 L 36.56 171.52 L 36.07 171.69 L 35.61 171.88 L 35.16 172.08 L 34.71 172.32 L 34.23 172.58 L 33.77 172.86 L 33.35 173.14 L 32.96 173.38 L 32.54 173.68 L 32.10 173.98 L 31.65 174.27 L 31.20 174.56 L 30.75 174.82 L 30.32 175.02 L 29.89 175.23 L 29.44 175.43 L 28.95 175.66 L 28.45 175.90 L 27.99 176.10 L 27.57 176.31 L 27.15 176.52 L 26.70 176.77 L 26.25 177.07 L 25.84 177.38 L 25.46 177.72" fill="none" stroke="#000000" stroke-width="0.5" stroke-linejoin="round" stroke-linecap="round"/>
</svg>