<?xml version="1.0" encoding="UTF-8"?>
<svg xmlns="http://www.w3.org/2000/svg" viewBox="20.11 140.00 33.89 42.58">
<path d="M 49.00 145.00 L 48.97 145.48 L 48.86 145.85 L 48.77 146.23 L 48.68 146.67 L 48.60 147.11 L 48.52 147.51 L 48.43 147.88 L 48.31 148.30 L 48.18 148.73 L 48.04 149.15 L 47.90 149.55 L 47.77 149.97 L 47.66 150.39 L 47.56 150.79 L 47.49 151.17 L 47.38 151.58 L 47.23 151.98 L 47.03 152.34 L 46.78 152.66 L 46.51 152.94 L 46.22 153.19 L 45.90 153.41 L 45.52 153.66 L 45.17 153.90 L 44.85 154.14 L 44.52 154.42 L 44.17 154.69 L 43.82 154.97 L 43.50 155.24 L 43.20 155.49 L 42.88 155.77 L 42.54 156.05 L 42.19 156.32 L 41.86 156.60 L 41.55 156.87 L 41.24 157.12 L 40.92 157.41 L 40.59 157.70 L 40.25 157.98 L 39.93 158.27 L 39.60 158.56 L 39.30 158.81 L 38.98 159.08 L 38.66 159.36 L 38.33 159.65 L 38.01 159.94 L 37.68 160.23 L 37.35 160.52 L 37.04 160.78 L 36.73 161.04 L 36.41 161.33 L 36.09 161.62 L 35.79 161.93 L 35.52 162.26 L 35.25 162.59 L 34.98 162.92 L 34.70 163.24 L 34.43 163.57 L 34.15 163.89 L 33.85 164.20 L 33.56 164.52 L 33.28 164.84 L 33.01 165.17 L 32.73 165.50 L 32.46 165.82 L 32.19 166.15 L 31.91 166.48 L 31.63 166.80 L 31.33 167.11 L 31.03 167.42 L 30.73 167.72 L 30.43 168.04 L 30.15 168.36 L 29.88 168.69 L 29.61 169.01 L 29.33 169.34 L 29.07 169.67 L 28.82 170.02 L 28.59 170.38 L 28.35 170.73 L 28.12 171.06 L 27.88 171.42 L 27.66 171.78 L 27.44 172.15 L 27.21 172.50 L 26.97 172.86 L 26.75 173.22 L 26.55 173.60 L 26.35 173.98 L 26.17 174.35 L 26.01 174.76 L 25.88 175.18 L 25.75 175.60 L 25.65 175.97 L 25.55 176.35 L 25.43 176.76 L 25.29 177.18 L 25.11 177.58" fill="none" stroke="#000000" stroke-width="0.5" stroke-linejoin="round" stroke-linecap="round"/>
</svg>