<?xml version="1.0" encoding="UTF-8"?>
<svg xmlns="http://www.w3.org/2000/svg" viewBox="20.25 140.00 33.75 43.00">
<path d="M 49.00 145.00 L 48.69 145.39 L 48.39 145.79 L 48.10 146.16 L 47.80 146.56 L 47.50 146.97 L 47.20 147.37 L 46.91 147.76 L 46.62 148.15 L 46.35 148.54 L 46.07 148.95 L 45.80 149.37 L 45.56 149.76 L 45.34 150.14 L 45.18 150.47 L 44.96 150.89 L 44.75 151.31 L 44.56 151.73 L 44.40 152.10 L 44.27 152.45 L 44.19 152.75 L 44.28 152.83 L 44.47 152.77 L 44.77 152.55 L 45.06 152.33 L 45.33 152.10 L 45.19 152.42 L 44.96 152.84 L 44.73 153.27 L 44.49 153.69 L 44.26 154.09 L 44.04 154.48 L 43.80 154.89 L 43.55 155.30 L 43.29 155.72 L 43.02 156.14 L 42.76 156.56 L 42.51 156.97 L 42.25 157.37 L 41.99 157.78 L 41.73 158.19 L 41.45 158.61 L 41.18 159.02 L 40.92 159.42 L 40.63 159.84 L 40.36 160.25 L 40.09 160.65 L 39.81 161.06 L 39.54 161.47 L 39.27 161.88 L 38.99 162.29 L 38.72 162.70 L 38.45 163.10 L 38.17 163.52 L 37.89 163.93 L 37.63 164.33 L 37.35 164.74 L 37.07 165.16 L 36.79 165.55 L 36.50 165.95 L 36.21 166.36 L 35.94 166.75 L 35.65 167.13 L 35.36 167.52 L 35.06 167.92 L 34.78 168.32 L 34.50 168.70 L 34.21 169.08 L 33.91 169.48 L 33.61 169.88 L 33.32 170.25 L 33.01 170.64 L 32.70 171.03 L 32.40 171.40 L 32.09 171.79 L 31.78 172.18 L 31.48 172.55 L 31.16 172.93 L 30.84 173.32 L 30.53 173.68 L 30.22 174.04 L 29.90 174.39 L 29.58 174.74 L 29.26 175.07 L 28.95 175.39 L 28.61 175.73 L 28.32 176.01 L 28.03 176.28 L 27.71 176.60 L 27.37 176.92 L 27.03 177.23 L 26.74 177.45 L 26.48 177.61 L 26.29 177.66 L 26.10 177.70 L 25.89 177.74 L 25.68 177.80 L 25.45 177.90 L 25.25 178.00" fill="none" stroke="#000000" stroke-width="0.5" stroke-linejoin="round" stroke-linecap="round"/>
</svg>