<?xml version="1.0" encoding="UTF-8"?>
<svg xmlns="http://www.w3.org/2000/svg" viewBox="17.61 140.00 40.24 42.30">
<path d="M 49.00 145.00 L 49.47 145.88 L 49.66 146.24 L 50.10 146.31 L 50.43 146.70 L 50.40 147.58 L 50.49 148.24 L 50.99 148.34 L 51.17 148.89 L 51.29 149.57 L 51.75 149.64 L 52.08 149.71 L 52.22 150.05 L 52.16 150.73 L 52.04 151.51 L 52.23 151.82 L 52.53 151.83 L 52.85 151.81 L 52.84 152.23 L 52.79 152.70 L 52.63 153.22 L 52.21 153.80 L 52.13 153.59 L 51.98 153.48 L 51.61 153.72 L 51.32 154.02 L 50.95 154.43 L 50.62 154.88 L 50.39 155.25 L 50.32 155.52 L 50.35 155.82 L 50.09 156.48 L 49.70 157.02 L 49.14 157.47 L 48.55 157.65 L 47.97 157.69 L 47.45 157.56 L 46.84 157.37 L 46.25 157.17 L 46.04 156.47 L 45.91 155.75 L 45.87 154.98 L 45.88 154.24 L 45.95 153.55 L 45.77 153.31 L 45.16 153.70 L 44.56 154.14 L 43.99 154.59 L 43.47 155.05 L 42.92 155.52 L 42.35 156.00 L 41.77 156.46 L 41.22 156.88 L 40.64 157.31 L 40.03 157.74 L 39.42 158.14 L 38.81 158.52 L 38.19 158.87 L 37.48 159.20 L 36.76 159.49 L 36.12 159.64 L 35.63 159.54 L 34.96 159.64 L 34.19 159.80 L 33.42 159.92 L 32.67 160.05 L 32.01 160.08 L 31.35 160.11 L 30.70 160.16 L 29.98 160.36 L 29.29 160.60 L 28.60 160.91 L 27.95 161.28 L 27.34 161.65 L 26.73 162.04 L 26.12 162.48 L 25.57 162.92 L 25.07 163.40 L 24.60 163.95 L 24.17 164.53 L 23.81 165.14 L 23.53 165.81 L 23.31 166.52 L 23.16 167.23 L 23.07 167.91 L 22.98 168.59 L 22.91 169.28 L 22.84 170.00 L 22.72 170.79 L 22.65 171.51 L 22.62 172.23 L 22.61 172.97 L 22.67 173.72 L 22.83 174.38 L 23.03 175.07 L 23.27 175.78 L 23.59 176.45 L 23.95 176.91 L 24.26 177.30" fill="none" stroke="#000000" stroke-width="0.5" stroke-linejoin="round" stroke-linecap="round"/>
</svg>