<?xml version="1.0" encoding="UTF-8"?>
<svg xmlns="http://www.w3.org/2000/svg" viewBox="16.85 140.00 37.15 42.43">
<path d="M 49.00 145.00 L 48.41 145.13 L 48.11 145.25 L 47.86 145.32 L 47.48 145.57 L 47.12 145.89 L 46.81 146.26 L 46.58 146.69 L 46.37 147.09 L 46.15 147.47 L 45.90 147.83 L 45.62 148.19 L 45.30 148.52 L 44.94 148.81 L 44.52 149.07 L 44.09 149.31 L 43.65 149.56 L 43.27 149.74 L 42.89 149.91 L 42.44 150.14 L 41.97 150.36 L 41.53 150.59 L 41.17 150.73 L 40.76 150.94 L 40.33 151.19 L 39.90 151.43 L 39.49 151.69 L 39.09 151.96 L 38.68 152.23 L 38.28 152.50 L 37.89 152.77 L 37.52 153.07 L 37.16 153.36 L 36.79 153.66 L 36.40 153.98 L 36.04 154.27 L 35.67 154.57 L 35.32 154.87 L 34.95 155.16 L 34.59 155.46 L 34.21 155.77 L 33.84 156.08 L 33.50 156.40 L 33.17 156.72 L 32.83 157.04 L 32.47 157.37 L 32.14 157.69 L 31.81 158.03 L 31.48 158.39 L 31.17 158.74 L 30.87 159.10 L 30.55 159.46 L 30.23 159.81 L 29.92 160.17 L 29.62 160.52 L 29.31 160.86 L 28.99 161.22 L 28.70 161.57 L 28.41 161.95 L 28.14 162.34 L 27.87 162.74 L 27.59 163.13 L 27.30 163.52 L 26.99 163.88 L 26.66 164.20 L 26.30 164.50 L 25.93 164.79 L 25.52 165.05 L 25.12 165.32 L 24.74 165.60 L 24.37 165.90 L 24.01 166.19 L 23.64 166.51 L 23.30 166.84 L 22.99 167.18 L 22.71 167.55 L 22.42 167.93 L 22.18 168.35 L 21.99 168.81 L 21.87 169.29 L 21.85 169.72 L 21.88 170.17 L 21.99 170.63 L 22.20 170.99 L 22.42 171.36 L 22.65 171.75 L 22.79 172.29 L 23.00 172.72 L 23.23 173.10 L 23.46 173.48 L 23.67 173.91 L 23.82 174.40 L 23.99 174.83 L 24.19 175.21 L 24.29 175.72 L 24.40 176.23 L 24.53 176.70 L 24.69 177.02 L 24.73 177.43" fill="none" stroke="#000000" stroke-width="0.5" stroke-linejoin="round" stroke-linecap="round"/>
</svg>