<?xml version="1.0" encoding="UTF-8"?>
<svg xmlns="http://www.w3.org/2000/svg" viewBox="13.22 140.00 40.78 42.38">
<path d="M 49.00 145.00 L 48.44 145.62 L 47.91 146.26 L 47.36 146.89 L 46.81 147.51 L 46.26 148.13 L 45.70 148.74 L 45.13 149.34 L 44.54 149.93 L 43.97 150.54 L 43.48 151.16 L 43.06 151.81 L 42.61 152.49 L 42.25 153.06 L 41.94 153.58 L 41.52 154.30 L 41.15 155.05 L 40.80 155.81 L 40.45 156.58 L 40.34 157.20 L 40.33 157.83 L 40.40 158.52 L 40.51 159.21 L 40.71 159.76 L 40.77 160.39 L 40.56 161.20 L 40.30 161.88 L 39.91 162.50 L 39.44 163.10 L 38.93 163.67 L 38.37 164.20 L 37.76 164.76 L 37.15 165.35 L 36.57 165.95 L 36.01 166.56 L 35.47 167.18 L 34.91 167.80 L 34.35 168.42 L 33.84 169.07 L 33.37 169.74 L 32.91 170.40 L 32.46 171.05 L 32.03 171.75 L 31.64 172.49 L 31.28 173.25 L 30.94 173.96 L 30.62 174.69 L 30.30 175.42 L 29.92 176.11 L 29.44 176.71 L 29.01 177.03 L 28.98 176.59 L 28.85 176.08 L 28.62 175.49 L 28.31 174.85 L 27.99 174.19 L 27.60 173.62 L 27.12 173.16 L 26.51 172.87 L 25.92 172.54 L 25.42 172.07 L 24.92 171.61 L 24.43 171.13 L 23.97 170.61 L 23.49 170.13 L 23.00 169.67 L 22.57 169.26 L 22.39 168.80 L 22.41 168.39 L 22.21 168.39 L 21.78 168.71 L 21.51 168.93 L 21.39 169.23 L 21.35 169.45 L 21.24 169.55 L 20.86 169.70 L 20.49 169.98 L 20.17 170.50 L 19.99 170.74 L 19.63 170.89 L 19.24 171.02 L 18.97 171.20 L 18.92 171.19 L 18.88 171.22 L 18.56 171.64 L 18.22 172.39 L 18.30 172.90 L 18.52 173.45 L 18.88 173.89 L 19.33 174.38 L 19.83 174.84 L 20.33 175.30 L 20.88 175.69 L 21.51 175.98 L 22.04 176.39 L 22.58 176.79 L 23.20 177.07 L 23.81 177.21 L 24.28 177.38" fill="none" stroke="#000000" stroke-width="0.5" stroke-linejoin="round" stroke-linecap="round"/>
</svg>