<?xml version="1.0" encoding="UTF-8"?>
<svg xmlns="http://www.w3.org/2000/svg" viewBox="20.32 140.00 33.68 42.97">
<path d="M 49.00 145.00 L 48.17 146.13 L 47.25 147.39 L 46.27 148.73 L 45.29 150.06 L 44.31 151.40 L 43.34 152.74 L 42.36 154.08 L 41.38 155.43 L 40.35 156.85 L 39.63 157.84 L 39.04 158.66 L 38.50 159.43 L 38.09 160.01 L 37.69 160.58 L 37.08 161.43 L 36.74 161.92 L 36.42 162.38 L 36.10 162.83 L 35.66 163.45 L 35.07 164.29 L 34.76 164.74 L 34.35 165.32 L 33.74 166.18 L 33.41 166.65 L 33.09 167.11 L 32.77 167.56 L 32.46 168.01 L 32.14 168.47 L 31.83 168.92 L 31.51 169.38 L 31.20 169.83 L 30.88 170.28 L 30.69 170.56 L 30.70 170.57 L 30.98 170.20 L 31.26 169.84 L 31.54 169.47 L 31.82 169.11 L 32.16 168.66 L 32.62 168.06 L 32.90 167.69 L 33.36 167.07 L 34.00 166.20 L 34.04 166.17 L 33.86 166.44 L 33.54 166.89 L 33.22 167.34 L 32.83 167.89 L 31.93 169.12 L 31.30 169.98 L 30.91 170.51 L 30.59 170.93 L 29.95 171.79 L 29.31 172.66 L 28.67 173.52 L 28.03 174.38 L 27.32 175.35 L 26.49 176.48 L 25.66 177.60 L 25.37 177.97 L 25.46 177.84 L 25.78 177.38 L 26.09 176.93 L 26.41 176.48 L 26.72 176.02 L 27.04 175.57 L 27.36 175.12 L 27.67 174.66 L 28.13 174.02 L 28.70 173.20 L 29.02 172.75 L 29.44 172.15 L 30.05 171.30 L 30.66 170.44 L 31.09 169.84 L 31.40 169.38 L 31.72 168.93 L 32.04 168.47 L 32.35 168.02 L 32.67 167.57 L 32.95 167.16 L 32.94 167.15 L 33.17 166.82 L 33.48 166.36 L 33.47 166.36 L 33.51 166.28 L 33.58 166.17 L 33.59 166.14 L 33.21 166.66 L 32.37 167.80 L 31.39 169.14 L 30.46 170.42 L 29.54 171.69 L 28.62 172.95 L 27.79 174.12 L 26.96 175.26 L 26.05 176.53 L 25.32 177.55" fill="none" stroke="#000000" stroke-width="0.5" stroke-linejoin="round" stroke-linecap="round"/>
</svg>