<?xml version="1.0" encoding="UTF-8"?>
<svg xmlns="http://www.w3.org/2000/svg" viewBox="13.93 140.00 40.07 42.40">
<path d="M 49.00 145.00 L 48.22 145.16 L 47.67 145.47 L 47.09 145.77 L 46.46 146.04 L 45.83 146.33 L 45.19 146.67 L 44.59 146.97 L 44.01 147.30 L 43.43 147.68 L 42.85 148.06 L 42.29 148.45 L 41.73 148.90 L 41.21 149.33 L 40.72 149.78 L 40.25 150.29 L 39.78 150.80 L 39.34 151.33 L 38.95 151.89 L 38.59 152.47 L 38.28 153.10 L 38.00 153.73 L 37.75 154.34 L 37.57 154.95 L 37.38 155.65 L 37.25 156.33 L 37.13 156.99 L 37.02 157.67 L 36.86 158.32 L 36.60 158.87 L 36.25 159.30 L 35.81 159.61 L 35.47 159.54 L 35.11 159.24 L 34.63 158.83 L 34.09 158.41 L 33.51 158.04 L 32.87 157.75 L 32.36 157.29 L 31.79 156.93 L 31.16 156.66 L 30.55 156.39 L 29.91 156.20 L 29.21 156.13 L 28.55 156.08 L 27.90 156.13 L 27.27 156.29 L 26.66 156.54 L 26.06 156.90 L 25.50 157.34 L 25.01 157.83 L 24.58 158.38 L 24.23 158.97 L 23.94 159.60 L 23.72 160.25 L 23.61 160.91 L 23.61 161.59 L 23.70 162.26 L 23.85 162.93 L 24.16 163.47 L 24.45 164.07 L 24.74 164.72 L 25.10 165.29 L 25.45 165.86 L 25.81 166.43 L 26.11 167.10 L 26.45 167.73 L 26.82 168.31 L 27.26 168.74 L 27.61 169.19 L 27.78 169.63 L 27.67 170.20 L 27.41 170.74 L 27.03 171.18 L 26.51 171.53 L 25.87 171.79 L 25.17 172.00 L 24.57 172.06 L 23.97 172.12 L 23.30 172.25 L 22.58 172.41 L 21.88 172.58 L 21.22 172.72 L 20.56 172.85 L 19.92 173.01 L 19.36 173.32 L 19.03 173.59 L 18.93 173.85 L 19.07 174.05 L 19.44 174.18 L 19.92 174.47 L 20.43 174.94 L 20.97 175.36 L 21.53 175.77 L 22.17 176.05 L 22.71 176.47 L 23.26 176.88 L 23.82 177.11 L 24.22 177.40" fill="none" stroke="#000000" stroke-width="0.5" stroke-linejoin="round" stroke-linecap="round"/>
</svg>