<?xml version="1.0" encoding="UTF-8"?>
<svg xmlns="http://www.w3.org/2000/svg" viewBox="20.32 140.00 33.68 42.70">
<path d="M 49.00 145.00 L 48.45 145.06 L 48.07 145.23 L 47.65 145.38 L 47.21 145.52 L 46.80 145.65 L 46.39 145.78 L 45.93 146.00 L 45.51 146.20 L 45.12 146.38 L 44.71 146.62 L 44.30 146.85 L 43.87 147.08 L 43.46 147.31 L 43.06 147.52 L 42.69 147.71 L 42.29 147.95 L 41.88 148.19 L 41.47 148.46 L 41.08 148.71 L 40.69 148.96 L 40.32 149.22 L 39.93 149.47 L 39.55 149.73 L 39.16 150.01 L 38.81 150.29 L 38.46 150.59 L 38.10 150.89 L 37.75 151.21 L 37.42 151.53 L 37.13 151.86 L 36.86 152.22 L 36.59 152.61 L 36.36 153.01 L 36.18 153.42 L 36.05 153.87 L 35.96 154.37 L 35.95 154.85 L 36.04 155.25 L 36.22 155.60 L 36.44 155.99 L 36.72 156.34 L 37.07 156.59 L 37.42 156.74 L 37.72 156.83 L 37.86 157.04 L 37.74 157.53 L 37.56 157.97 L 37.34 158.37 L 37.08 158.74 L 36.83 159.13 L 36.58 159.53 L 36.34 159.94 L 36.11 160.33 L 35.88 160.73 L 35.67 161.15 L 35.47 161.57 L 35.28 161.99 L 35.10 162.41 L 34.93 162.85 L 34.78 163.29 L 34.62 163.73 L 34.47 164.17 L 34.31 164.60 L 34.15 165.04 L 34.00 165.48 L 33.83 165.92 L 33.67 166.36 L 33.50 166.80 L 33.34 167.23 L 33.17 167.67 L 32.98 168.09 L 32.79 168.51 L 32.57 168.91 L 32.32 169.30 L 32.03 169.67 L 31.70 170.01 L 31.37 170.30 L 31.03 170.59 L 30.68 170.87 L 30.31 171.15 L 29.94 171.45 L 29.59 171.76 L 29.24 172.08 L 28.90 172.39 L 28.57 172.72 L 28.25 173.05 L 27.94 173.39 L 27.64 173.76 L 27.37 174.14 L 27.11 174.52 L 26.87 174.91 L 26.65 175.32 L 26.44 175.74 L 26.25 176.16 L 26.04 176.56 L 25.80 176.95 L 25.56 177.33 L 25.32 177.70" fill="none" stroke="#000000" stroke-width="0.5" stroke-linejoin="round" stroke-linecap="round"/>
</svg>