<?xml version="1.0" encoding="UTF-8"?>
<svg xmlns="http://www.w3.org/2000/svg" viewBox="20.45 140.00 33.55 42.98">
<path d="M 49.00 145.00 L 48.73 145.44 L 48.45 145.86 L 48.17 146.29 L 47.90 146.71 L 47.62 147.14 L 47.35 147.57 L 47.06 147.99 L 46.76 148.41 L 46.45 148.81 L 46.15 149.20 L 45.85 149.58 L 45.53 149.97 L 45.20 150.35 L 44.88 150.75 L 44.58 151.12 L 44.26 151.51 L 43.94 151.90 L 43.61 152.28 L 43.30 152.68 L 43.00 153.07 L 42.69 153.47 L 42.39 153.88 L 42.10 154.30 L 41.82 154.73 L 41.54 155.16 L 41.27 155.58 L 40.99 156.01 L 40.72 156.44 L 40.45 156.87 L 40.19 157.32 L 39.93 157.76 L 39.70 158.19 L 39.51 158.62 L 39.30 159.10 L 39.21 159.48 L 39.13 159.85 L 39.03 160.31 L 39.01 160.69 L 39.03 161.03 L 39.08 161.33 L 39.07 161.71 L 39.04 162.10 L 39.01 162.48 L 38.91 162.95 L 38.81 163.40 L 38.75 163.81 L 38.71 164.19 L 38.62 164.66 L 38.65 164.96 L 38.66 165.29 L 38.63 165.67 L 38.54 166.14 L 38.50 166.53 L 38.45 166.93 L 38.34 167.38 L 38.31 167.76 L 38.23 168.16 L 38.12 168.58 L 38.05 168.93 L 37.90 169.38 L 37.71 169.86 L 37.54 170.27 L 37.33 170.69 L 37.10 171.10 L 36.83 171.54 L 36.54 171.95 L 36.23 172.34 L 35.90 172.70 L 35.56 173.06 L 35.21 173.42 L 34.86 173.76 L 34.50 174.11 L 34.14 174.46 L 33.77 174.80 L 33.41 175.12 L 33.04 175.42 L 32.70 175.67 L 32.33 175.96 L 31.95 176.23 L 31.60 176.46 L 31.19 176.75 L 30.79 176.98 L 30.41 177.18 L 30.12 177.22 L 29.80 177.28 L 29.45 177.35 L 29.12 177.38 L 28.79 177.43 L 28.42 177.50 L 28.06 177.58 L 27.74 177.61 L 27.41 177.64 L 27.04 177.72 L 26.72 177.75 L 26.38 177.78 L 26.02 177.86 L 25.72 177.91 L 25.45 177.98" fill="none" stroke="#000000" stroke-width="0.5" stroke-linejoin="round" stroke-linecap="round"/>
</svg>