<?xml version="1.0" encoding="UTF-8"?>
<svg xmlns="http://www.w3.org/2000/svg" viewBox="20.09 140.00 33.91 42.53">
<path d="M 49.00 145.00 L 48.48 145.07 L 48.11 145.25 L 47.71 145.41 L 47.30 145.56 L 46.90 145.72 L 46.50 145.88 L 46.05 146.11 L 45.66 146.29 L 45.30 146.49 L 44.91 146.70 L 44.51 146.92 L 44.10 147.17 L 43.74 147.36 L 43.34 147.57 L 42.93 147.80 L 42.52 147.95 L 42.14 148.12 L 41.75 148.29 L 41.35 148.45 L 40.93 148.68 L 40.55 148.89 L 40.19 149.09 L 39.80 149.35 L 39.41 149.61 L 39.08 149.82 L 38.74 150.08 L 38.39 150.37 L 38.03 150.67 L 37.70 150.97 L 37.37 151.29 L 37.05 151.60 L 36.73 151.92 L 36.44 152.26 L 36.15 152.60 L 35.89 152.95 L 35.64 153.30 L 35.38 153.67 L 35.13 154.03 L 34.87 154.37 L 34.56 154.70 L 34.24 155.01 L 33.90 155.32 L 33.59 155.54 L 33.25 155.80 L 32.90 156.09 L 32.54 156.38 L 32.20 156.68 L 31.88 157.00 L 31.55 157.31 L 31.24 157.63 L 30.94 157.97 L 30.68 158.32 L 30.43 158.69 L 30.22 159.07 L 30.03 159.47 L 29.86 159.88 L 29.71 160.31 L 29.56 160.74 L 29.41 161.16 L 29.26 161.59 L 29.11 162.01 L 28.94 162.43 L 28.75 162.82 L 28.54 163.20 L 28.32 163.59 L 28.10 163.98 L 27.87 164.36 L 27.64 164.73 L 27.42 165.12 L 27.23 165.52 L 27.04 165.93 L 26.85 166.33 L 26.65 166.72 L 26.48 167.14 L 26.32 167.57 L 26.18 168.00 L 26.08 168.40 L 26.02 168.82 L 25.98 169.24 L 25.95 169.68 L 25.93 170.14 L 25.88 170.64 L 25.90 171.04 L 25.91 171.41 L 25.89 171.85 L 25.87 172.33 L 25.83 172.84 L 25.86 173.20 L 25.86 173.59 L 25.81 174.02 L 25.75 174.48 L 25.67 174.96 L 25.58 175.43 L 25.50 175.85 L 25.43 176.26 L 25.36 176.66 L 25.24 177.10 L 25.09 177.53" fill="none" stroke="#000000" stroke-width="0.5" stroke-linejoin="round" stroke-linecap="round"/>
</svg>