<?xml version="1.0" encoding="UTF-8"?>
<svg xmlns="http://www.w3.org/2000/svg" viewBox="18.89 140.00 35.11 42.25">
<path d="M 49.00 145.00 L 48.99 145.64 L 48.73 146.24 L 48.48 146.90 L 48.21 147.54 L 47.88 148.11 L 47.54 148.66 L 47.19 149.19 L 46.77 149.66 L 46.31 150.17 L 45.86 150.60 L 45.60 150.92 L 45.46 151.21 L 45.11 151.81 L 45.21 151.91 L 45.32 152.22 L 45.60 152.41 L 46.27 152.19 L 46.97 151.99 L 47.59 151.96 L 48.00 152.13 L 48.19 152.43 L 48.10 152.89 L 47.74 153.46 L 47.32 153.82 L 46.83 153.97 L 46.19 154.05 L 45.50 154.07 L 44.81 154.08 L 44.33 153.91 L 43.93 153.83 L 43.42 154.17 L 42.99 154.66 L 42.75 155.19 L 42.77 155.68 L 43.33 155.67 L 43.97 155.67 L 44.48 155.72 L 44.65 156.16 L 44.73 156.67 L 44.60 157.36 L 44.59 157.77 L 44.48 158.22 L 44.17 158.83 L 43.89 159.42 L 43.53 159.96 L 43.11 160.51 L 42.79 161.06 L 42.55 161.59 L 42.27 162.19 L 42.32 162.28 L 42.28 162.48 L 41.99 163.06 L 41.67 163.61 L 41.30 164.13 L 40.89 164.61 L 40.49 165.11 L 40.17 165.66 L 39.89 166.25 L 39.64 166.78 L 39.39 167.27 L 39.03 167.80 L 38.62 168.27 L 38.15 168.63 L 37.55 168.96 L 36.85 169.24 L 36.16 169.43 L 35.53 169.48 L 34.94 169.38 L 34.32 169.25 L 33.66 169.09 L 32.99 168.93 L 32.34 168.78 L 31.79 168.60 L 31.32 168.37 L 30.63 168.58 L 30.05 168.92 L 29.61 169.38 L 29.30 169.94 L 29.27 170.29 L 29.53 170.33 L 29.97 170.10 L 29.83 170.64 L 29.56 171.21 L 29.19 171.65 L 28.69 172.09 L 28.11 172.46 L 27.52 172.74 L 26.92 173.07 L 26.33 173.37 L 25.72 173.65 L 25.12 174.01 L 24.61 174.42 L 24.24 174.86 L 24.00 175.37 L 23.89 175.92 L 23.96 176.44 L 24.17 176.87 L 24.42 177.25" fill="none" stroke="#000000" stroke-width="0.5" stroke-linejoin="round" stroke-linecap="round"/>
</svg>