<?xml version="1.0" encoding="UTF-8"?>
<svg xmlns="http://www.w3.org/2000/svg" viewBox="20.41 140.00 33.79 42.38">
<path d="M 49.00 145.00 L 49.11 145.55 L 49.06 145.98 L 49.04 146.44 L 49.11 146.85 L 49.19 147.19 L 49.12 147.61 L 48.95 148.01 L 48.70 148.38 L 48.40 148.66 L 48.11 148.77 L 47.80 148.76 L 47.44 148.71 L 47.13 148.58 L 46.80 148.48 L 46.43 148.42 L 46.12 148.30 L 45.86 148.12 L 45.64 147.87 L 45.16 148.01 L 44.75 148.06 L 44.36 148.08 L 43.88 148.22 L 43.49 148.24 L 43.08 148.29 L 42.60 148.43 L 42.21 148.42 L 41.85 148.38 L 41.50 148.31 L 41.19 148.18 L 40.95 147.94 L 40.78 147.62 L 40.49 147.46 L 40.19 147.32 L 40.01 146.99 L 39.84 146.67 L 39.67 146.35 L 39.37 146.20 L 39.02 146.12 L 38.71 145.99 L 38.37 145.93 L 38.03 145.90 L 37.69 145.92 L 37.17 146.25 L 36.64 146.64 L 36.14 147.07 L 35.63 147.59 L 35.15 148.14 L 34.72 148.73 L 34.32 149.33 L 33.97 149.92 L 33.69 150.49 L 33.40 151.14 L 33.20 151.72 L 33.06 152.25 L 32.86 152.88 L 32.75 153.44 L 32.69 153.94 L 32.66 154.38 L 32.60 154.88 L 32.49 155.45 L 32.33 156.10 L 32.23 156.66 L 32.16 157.18 L 32.10 157.69 L 32.09 158.16 L 32.05 158.65 L 31.98 159.17 L 31.90 159.70 L 31.74 160.34 L 31.59 160.94 L 31.50 161.45 L 31.40 161.96 L 31.22 162.56 L 31.04 163.17 L 30.94 163.67 L 30.68 164.35 L 30.51 164.91 L 30.35 165.45 L 30.13 166.06 L 29.91 166.68 L 29.70 167.30 L 29.49 167.92 L 29.28 168.54 L 29.16 169.07 L 29.00 169.64 L 28.80 170.27 L 28.70 170.78 L 28.53 171.37 L 28.32 171.97 L 28.18 172.45 L 27.89 173.08 L 27.56 173.73 L 27.23 174.39 L 26.86 175.03 L 26.51 175.62 L 26.19 176.16 L 25.80 176.76 L 25.41 177.38" fill="none" stroke="#000000" stroke-width="0.5" stroke-linejoin="round" stroke-linecap="round"/>
</svg>