<?xml version="1.0" encoding="UTF-8"?>
<svg xmlns="http://www.w3.org/2000/svg" viewBox="18.94 140.00 35.06 42.42">
<path d="M 49.00 145.00 L 48.54 145.26 L 48.15 145.58 L 47.75 145.87 L 47.35 146.10 L 46.92 146.35 L 46.48 146.61 L 46.04 146.81 L 45.59 147.04 L 45.15 147.28 L 44.79 147.41 L 44.36 147.64 L 43.90 147.91 L 43.44 148.17 L 43.04 148.40 L 42.62 148.63 L 42.17 148.91 L 41.76 149.13 L 41.36 149.38 L 40.94 149.67 L 40.52 149.97 L 40.12 150.27 L 39.72 150.58 L 39.31 150.88 L 38.89 151.18 L 38.49 151.45 L 38.11 151.69 L 37.68 151.96 L 37.24 152.23 L 36.80 152.51 L 36.40 152.74 L 35.97 152.97 L 35.50 153.23 L 35.05 153.43 L 34.61 153.62 L 34.16 153.81 L 33.69 153.99 L 33.21 154.15 L 32.71 154.31 L 32.20 154.46 L 31.76 154.52 L 31.31 154.57 L 30.83 154.65 L 30.28 154.77 L 29.79 154.85 L 29.34 154.91 L 28.90 154.97 L 28.40 155.11 L 27.89 155.26 L 27.39 155.41 L 26.90 155.57 L 26.46 155.69 L 26.05 155.80 L 25.63 156.02 L 25.26 156.30 L 24.93 156.67 L 24.65 157.07 L 24.46 157.47 L 24.31 157.90 L 24.18 158.41 L 24.07 158.93 L 24.01 159.42 L 23.95 159.90 L 23.94 160.38 L 23.94 160.87 L 23.96 161.37 L 23.98 161.88 L 24.02 162.39 L 24.06 162.91 L 24.13 163.38 L 24.24 163.80 L 24.30 164.29 L 24.35 164.82 L 24.41 165.34 L 24.45 165.86 L 24.55 166.33 L 24.69 166.77 L 24.77 167.31 L 24.95 167.74 L 25.17 168.10 L 25.31 168.54 L 25.42 169.03 L 25.47 169.55 L 25.50 170.06 L 25.51 170.56 L 25.50 171.06 L 25.46 171.57 L 25.41 172.04 L 25.37 172.51 L 25.27 173.05 L 25.18 173.56 L 25.15 174.02 L 25.09 174.51 L 25.05 175.02 L 25.06 175.51 L 25.06 176.00 L 25.06 176.49 L 25.03 176.95 L 24.94 177.42" fill="none" stroke="#000000" stroke-width="0.5" stroke-linejoin="round" stroke-linecap="round"/>
</svg>