<?xml version="1.0" encoding="UTF-8"?>
<svg xmlns="http://www.w3.org/2000/svg" viewBox="20.15 140.00 33.85 42.99">
<path d="M 49.00 145.00 L 48.67 145.24 L 48.44 145.46 L 48.20 145.68 L 47.92 145.95 L 47.63 146.26 L 47.33 146.58 L 47.03 146.93 L 46.72 147.27 L 46.41 147.59 L 46.12 147.86 L 45.93 147.99 L 45.74 148.11 L 45.56 148.18 L 45.25 148.44 L 44.95 148.70 L 44.72 148.90 L 44.45 149.17 L 44.16 149.48 L 43.86 149.82 L 43.57 150.18 L 43.29 150.54 L 43.03 150.91 L 42.78 151.29 L 42.54 151.67 L 42.33 152.06 L 42.18 152.40 L 42.06 152.69 L 42.01 152.89 L 41.93 153.11 L 41.77 153.41 L 41.52 153.79 L 41.27 154.14 L 41.01 154.47 L 40.73 154.83 L 40.45 155.20 L 40.17 155.56 L 39.92 155.91 L 39.67 156.28 L 39.41 156.66 L 39.17 157.04 L 38.93 157.41 L 38.70 157.78 L 38.47 158.17 L 38.24 158.55 L 38.02 158.92 L 37.79 159.31 L 37.57 159.70 L 37.36 160.06 L 37.17 160.42 L 36.97 160.80 L 36.77 161.18 L 36.57 161.56 L 36.41 161.89 L 36.23 162.24 L 36.04 162.60 L 35.84 162.98 L 35.63 163.35 L 35.40 163.72 L 35.15 164.10 L 34.89 164.48 L 34.63 164.85 L 34.35 165.21 L 34.07 165.58 L 33.78 165.93 L 33.49 166.29 L 33.21 166.63 L 32.96 166.93 L 32.67 167.28 L 32.37 167.63 L 32.08 167.98 L 31.81 168.31 L 31.54 168.64 L 31.25 169.00 L 30.96 169.35 L 30.68 169.72 L 30.41 170.09 L 30.15 170.46 L 29.89 170.83 L 29.65 171.19 L 29.41 171.56 L 29.16 171.95 L 28.92 172.31 L 28.68 172.69 L 28.43 173.06 L 28.19 173.44 L 27.95 173.82 L 27.71 174.21 L 27.47 174.59 L 27.26 174.94 L 27.09 175.26 L 26.86 175.64 L 26.63 176.02 L 26.40 176.39 L 26.14 176.77 L 25.88 177.14 L 25.59 177.48 L 25.30 177.83 L 25.15 177.99" fill="none" stroke="#000000" stroke-width="0.5" stroke-linejoin="round" stroke-linecap="round"/>
</svg>