<?xml version="1.0" encoding="UTF-8"?>
<svg xmlns="http://www.w3.org/2000/svg" viewBox="20.33 140.00 44.08 42.46">
<path d="M 49.00 145.00 L 49.81 145.33 L 50.27 145.41 L 50.77 145.60 L 51.45 145.68 L 52.04 145.90 L 52.56 146.21 L 53.13 146.46 L 53.67 146.77 L 54.22 147.09 L 54.81 147.34 L 55.35 147.67 L 55.88 148.00 L 56.41 148.32 L 56.86 148.77 L 57.27 149.26 L 57.67 149.74 L 58.07 150.21 L 58.45 150.68 L 58.75 151.23 L 58.97 151.81 L 59.17 152.38 L 59.30 152.99 L 59.33 153.68 L 59.41 154.25 L 59.41 154.89 L 59.38 155.53 L 59.34 156.18 L 59.29 156.81 L 59.22 157.43 L 59.12 158.03 L 58.99 158.61 L 58.81 159.20 L 58.57 159.81 L 58.32 160.39 L 58.03 160.96 L 57.72 161.51 L 57.43 162.06 L 57.09 162.60 L 56.73 163.12 L 56.36 163.63 L 55.99 164.12 L 55.60 164.60 L 55.19 165.07 L 54.77 165.55 L 54.35 166.00 L 53.90 166.45 L 53.43 166.89 L 52.98 167.25 L 52.50 167.60 L 51.95 167.95 L 51.34 168.23 L 50.74 168.46 L 50.20 168.56 L 49.64 168.60 L 48.97 168.70 L 48.35 168.66 L 47.73 168.61 L 47.12 168.54 L 46.59 168.32 L 45.95 168.26 L 45.32 168.21 L 44.70 168.17 L 44.10 168.13 L 43.45 168.19 L 42.80 168.28 L 42.16 168.34 L 41.50 168.44 L 40.87 168.48 L 40.29 168.46 L 39.71 168.45 L 39.08 168.51 L 38.43 168.60 L 37.81 168.68 L 37.20 168.81 L 36.60 168.96 L 35.99 169.14 L 35.38 169.36 L 34.78 169.59 L 34.22 169.84 L 33.68 170.11 L 33.11 170.40 L 32.54 170.74 L 32.00 171.07 L 31.49 171.36 L 30.94 171.71 L 30.40 172.05 L 29.90 172.35 L 29.40 172.70 L 28.90 173.11 L 28.44 173.53 L 28.01 173.98 L 27.60 174.46 L 27.19 174.94 L 26.80 175.44 L 26.44 175.94 L 26.08 176.44 L 25.71 176.95 L 25.33 177.46" fill="none" stroke="#000000" stroke-width="0.5" stroke-linejoin="round" stroke-linecap="round"/>
</svg>