<?xml version="1.0" encoding="UTF-8"?>
<svg xmlns="http://www.w3.org/2000/svg" viewBox="20.72 140.00 33.28 42.97">
<path d="M 49.00 145.00 L 48.23 145.10 L 47.80 145.18 L 47.36 145.19 L 46.87 145.21 L 46.35 145.32 L 45.83 145.50 L 45.26 145.82 L 44.71 146.17 L 44.16 146.56 L 43.67 146.93 L 43.20 147.28 L 42.73 147.63 L 42.22 148.05 L 41.75 148.44 L 41.30 148.86 L 40.85 149.33 L 40.42 149.80 L 40.01 150.30 L 39.59 150.79 L 39.13 151.24 L 38.61 151.64 L 38.19 151.80 L 37.81 151.85 L 37.57 151.83 L 37.36 151.82 L 37.05 152.03 L 36.95 152.01 L 36.73 152.17 L 36.32 152.63 L 35.90 153.06 L 35.54 153.19 L 35.07 153.33 L 34.63 153.56 L 34.27 153.86 L 33.97 154.29 L 34.18 154.11 L 34.40 153.93 L 34.65 153.74 L 34.47 154.19 L 34.24 154.69 L 34.01 155.17 L 33.85 155.53 L 34.03 155.53 L 34.47 155.30 L 34.96 155.02 L 35.35 154.83 L 35.48 154.86 L 35.23 155.41 L 34.99 155.96 L 34.76 156.48 L 34.90 156.48 L 35.31 156.23 L 35.85 155.97 L 36.49 155.72 L 37.05 155.57 L 37.29 155.85 L 37.38 156.32 L 37.42 156.87 L 37.43 157.45 L 37.33 158.08 L 37.18 158.69 L 37.01 159.29 L 36.79 159.91 L 36.55 160.51 L 36.33 161.08 L 36.11 161.65 L 35.86 162.26 L 35.63 162.84 L 35.41 163.40 L 35.17 164.00 L 34.93 164.60 L 34.71 165.17 L 34.48 165.74 L 34.22 166.34 L 33.97 166.91 L 33.70 167.46 L 33.41 168.01 L 33.11 168.58 L 32.81 169.15 L 32.49 169.70 L 32.17 170.25 L 31.86 170.81 L 31.53 171.35 L 31.18 171.88 L 30.83 172.42 L 30.47 172.95 L 30.12 173.48 L 29.77 174.01 L 29.44 174.55 L 29.12 175.10 L 28.79 175.65 L 28.43 176.17 L 28.03 176.66 L 27.58 177.07 L 27.08 177.43 L 26.56 177.71 L 26.15 177.81 L 25.72 177.97" fill="none" stroke="#000000" stroke-width="0.5" stroke-linejoin="round" stroke-linecap="round"/>
</svg>