<?xml version="1.0" encoding="UTF-8"?>
<svg xmlns="http://www.w3.org/2000/svg" viewBox="20.37 140.00 33.63 42.21">
<path d="M 49.00 145.00 L 47.99 145.31 L 47.26 145.76 L 46.51 146.18 L 45.75 146.59 L 45.02 147.09 L 44.34 147.68 L 43.73 148.38 L 43.24 149.15 L 42.88 150.00 L 42.64 150.89 L 42.55 151.79 L 42.59 152.66 L 42.71 153.58 L 42.95 154.44 L 43.34 155.21 L 43.69 156.09 L 44.22 156.81 L 44.81 157.48 L 45.35 158.24 L 45.99 158.88 L 46.65 159.49 L 47.31 160.09 L 47.84 160.78 L 48.22 161.53 L 48.46 162.18 L 48.30 162.99 L 47.90 163.72 L 47.29 164.36 L 46.64 164.67 L 45.88 164.79 L 45.03 164.75 L 44.08 164.70 L 43.17 164.54 L 42.29 164.30 L 41.44 163.98 L 40.61 163.61 L 39.84 163.15 L 39.10 162.67 L 38.50 162.05 L 38.07 161.25 L 37.74 160.37 L 37.47 159.42 L 37.24 158.42 L 36.93 157.55 L 36.49 156.86 L 36.15 156.15 L 35.97 155.45 L 35.99 154.80 L 36.02 154.48 L 35.55 155.20 L 35.32 155.93 L 35.27 156.76 L 35.29 157.72 L 35.41 158.67 L 35.61 159.58 L 35.89 160.40 L 36.28 161.18 L 36.66 162.02 L 37.04 162.90 L 37.51 163.72 L 38.05 164.43 L 38.62 165.10 L 39.44 165.45 L 40.28 165.75 L 41.21 165.88 L 42.15 165.99 L 43.11 166.05 L 43.99 166.10 L 44.79 166.10 L 45.51 166.03 L 45.58 166.68 L 45.29 167.59 L 44.89 168.44 L 44.39 169.22 L 43.85 169.96 L 43.25 170.67 L 42.57 171.31 L 41.81 171.90 L 41.05 172.34 L 40.31 172.58 L 39.49 172.78 L 38.62 172.86 L 37.74 172.86 L 36.86 172.86 L 35.92 172.92 L 34.96 173.01 L 34.02 173.10 L 33.13 173.16 L 32.29 173.21 L 31.41 173.36 L 30.49 173.61 L 29.60 173.92 L 28.77 174.28 L 27.96 174.72 L 27.21 175.24 L 26.55 175.84 L 25.93 176.52 L 25.37 177.21" fill="none" stroke="#000000" stroke-width="0.5" stroke-linejoin="round" stroke-linecap="round"/>
</svg>