<?xml version="1.0" encoding="UTF-8"?>
<svg xmlns="http://www.w3.org/2000/svg" viewBox="19.96 140.00 34.04 42.70">
<path d="M 49.00 145.00 L 48.80 145.00 L 48.39 145.43 L 47.97 145.85 L 47.57 146.24 L 47.33 146.43 L 46.95 146.83 L 46.54 147.32 L 46.12 147.83 L 45.72 148.36 L 45.35 148.88 L 44.99 149.43 L 44.63 150.00 L 44.31 150.56 L 44.02 151.07 L 43.77 151.55 L 43.62 151.91 L 43.40 152.37 L 43.12 152.91 L 42.82 153.42 L 42.48 153.94 L 42.11 154.45 L 41.71 154.94 L 41.75 154.78 L 41.95 154.34 L 41.99 154.10 L 42.09 153.76 L 42.27 153.31 L 42.48 152.80 L 42.68 152.34 L 42.86 151.88 L 43.09 151.38 L 43.24 150.95 L 43.37 150.56 L 43.53 150.13 L 43.60 149.83 L 43.43 149.87 L 43.03 150.26 L 42.60 150.72 L 42.22 151.13 L 41.86 151.54 L 41.46 152.03 L 41.15 152.37 L 40.76 152.83 L 40.49 153.15 L 40.50 153.05 L 40.12 153.52 L 39.70 154.03 L 39.26 154.54 L 38.84 155.07 L 38.46 155.57 L 38.28 155.79 L 37.93 156.22 L 37.55 156.68 L 37.16 157.17 L 36.86 157.61 L 36.53 158.08 L 36.16 158.60 L 35.91 158.97 L 35.58 159.49 L 35.20 160.04 L 34.81 160.58 L 34.51 161.01 L 34.40 161.19 L 34.20 161.52 L 33.93 161.98 L 33.72 162.30 L 33.48 162.70 L 33.20 163.16 L 32.89 163.62 L 32.54 164.13 L 32.17 164.67 L 31.81 165.21 L 31.47 165.78 L 31.30 166.13 L 31.13 166.48 L 30.96 166.82 L 30.62 167.39 L 30.26 167.96 L 29.90 168.51 L 29.53 169.07 L 29.18 169.63 L 28.86 170.19 L 28.69 170.56 L 28.52 170.91 L 28.37 171.27 L 28.07 171.84 L 27.75 172.41 L 27.48 172.88 L 27.18 173.38 L 26.86 173.93 L 26.52 174.52 L 26.24 175.03 L 25.97 175.50 L 25.72 175.98 L 25.44 176.54 L 25.20 177.07 L 25.05 177.43 L 24.96 177.70" fill="none" stroke="#000000" stroke-width="0.5" stroke-linejoin="round" stroke-linecap="round"/>
</svg>