<?xml version="1.0" encoding="UTF-8"?>
<svg xmlns="http://www.w3.org/2000/svg" viewBox="18.29 140.00 39.40 42.22">
<path d="M 49.00 145.00 L 49.66 145.49 L 50.07 145.59 L 50.78 145.41 L 51.47 145.39 L 52.07 145.32 L 52.61 145.21 L 52.68 145.63 L 52.47 146.29 L 52.17 146.91 L 51.78 147.47 L 51.32 147.95 L 50.85 148.42 L 50.39 148.89 L 49.91 149.36 L 49.40 149.83 L 48.90 150.30 L 48.41 150.76 L 47.92 151.21 L 47.44 151.66 L 46.94 152.11 L 46.44 152.56 L 45.93 153.03 L 45.44 153.49 L 44.96 153.95 L 44.49 154.44 L 44.01 154.90 L 43.51 155.36 L 43.01 155.83 L 42.50 156.28 L 42.02 156.73 L 41.55 157.20 L 41.07 157.65 L 40.58 158.11 L 40.09 158.57 L 39.60 159.03 L 39.12 159.49 L 38.66 159.95 L 38.16 160.40 L 37.65 160.85 L 37.13 161.31 L 36.64 161.77 L 36.15 162.22 L 35.65 162.66 L 35.12 163.10 L 34.60 163.53 L 34.07 163.96 L 33.55 164.38 L 33.00 164.79 L 32.44 165.19 L 31.90 165.60 L 31.46 166.00 L 31.07 166.47 L 30.71 167.05 L 30.48 167.59 L 30.36 168.17 L 30.31 168.81 L 30.31 169.47 L 30.32 170.15 L 30.34 170.83 L 30.34 171.50 L 30.30 172.14 L 30.17 172.72 L 29.92 173.25 L 29.56 173.78 L 29.16 174.21 L 28.81 174.42 L 28.20 174.78 L 27.56 175.12 L 27.01 175.32 L 26.98 174.82 L 27.08 174.17 L 27.18 173.55 L 27.15 173.06 L 27.33 172.35 L 27.48 171.67 L 27.54 171.05 L 27.65 170.37 L 27.69 169.65 L 27.58 169.09 L 27.15 168.97 L 26.54 169.06 L 25.84 169.25 L 25.17 169.45 L 24.52 169.67 L 24.01 169.99 L 23.59 170.38 L 23.29 170.83 L 23.30 171.07 L 23.29 171.54 L 23.29 172.20 L 23.48 172.81 L 23.60 173.49 L 23.71 174.21 L 23.91 174.83 L 24.11 175.45 L 24.32 176.08 L 24.48 176.67 L 24.58 177.22" fill="none" stroke="#000000" stroke-width="0.5" stroke-linejoin="round" stroke-linecap="round"/>
</svg>