<?xml version="1.0" encoding="UTF-8"?>
<svg xmlns="http://www.w3.org/2000/svg" viewBox="19.76 140.00 34.24 42.15">
<path d="M 49.00 145.00 L 47.98 145.14 L 47.22 145.53 L 46.40 145.90 L 45.63 146.05 L 44.78 146.25 L 43.82 146.58 L 43.02 146.65 L 42.19 146.72 L 41.27 146.88 L 40.35 146.94 L 39.48 146.92 L 38.60 146.91 L 37.71 146.88 L 36.81 146.85 L 35.90 146.81 L 35.00 146.78 L 34.12 146.76 L 33.25 146.75 L 32.40 146.77 L 31.55 146.97 L 30.77 147.25 L 30.06 147.62 L 29.27 148.16 L 28.54 148.74 L 27.92 149.40 L 27.50 150.01 L 27.12 150.71 L 26.76 151.49 L 26.53 152.28 L 26.47 153.16 L 26.52 154.13 L 26.77 154.84 L 27.14 155.35 L 27.76 155.50 L 28.65 155.18 L 29.51 154.78 L 30.33 154.34 L 31.13 153.84 L 31.93 153.33 L 32.65 152.97 L 33.44 152.57 L 34.30 152.17 L 35.13 151.90 L 35.99 151.64 L 36.87 151.42 L 37.76 151.24 L 38.60 151.16 L 39.47 151.09 L 40.43 150.96 L 41.35 150.94 L 42.24 150.96 L 43.00 151.19 L 43.84 151.32 L 44.76 151.37 L 45.65 151.40 L 46.40 151.54 L 46.59 152.36 L 46.67 153.31 L 46.73 154.27 L 46.73 155.20 L 46.73 156.03 L 46.76 156.75 L 46.56 157.66 L 46.30 158.53 L 45.97 159.37 L 45.52 160.15 L 45.01 160.90 L 44.45 161.61 L 43.86 162.27 L 43.24 162.92 L 42.60 163.55 L 41.91 164.15 L 41.19 164.72 L 40.47 165.29 L 39.81 165.80 L 39.20 166.32 L 38.60 166.98 L 38.03 167.67 L 37.48 168.35 L 37.01 168.94 L 36.50 169.54 L 35.93 170.16 L 35.28 170.72 L 34.51 171.19 L 33.69 171.62 L 32.93 171.93 L 32.16 172.22 L 31.27 172.60 L 30.38 172.90 L 29.51 173.14 L 28.69 173.37 L 27.95 173.56 L 27.27 173.77 L 26.54 174.27 L 25.91 174.90 L 25.42 175.65 L 25.04 176.43 L 24.76 177.15" fill="none" stroke="#000000" stroke-width="0.5" stroke-linejoin="round" stroke-linecap="round"/>
</svg>