<?xml version="1.0" encoding="UTF-8"?>
<svg xmlns="http://www.w3.org/2000/svg" viewBox="20.62 140.00 33.46 42.94">
<path d="M 49.00 145.00 L 49.08 145.68 L 48.99 146.18 L 48.98 146.66 L 48.96 147.21 L 48.91 147.80 L 48.86 148.39 L 48.81 148.97 L 48.77 149.56 L 48.74 150.12 L 48.76 150.62 L 48.74 151.16 L 48.67 151.73 L 48.58 152.29 L 48.47 152.85 L 48.32 153.44 L 48.20 154.00 L 48.07 154.53 L 47.92 155.04 L 47.77 155.55 L 47.59 156.11 L 47.41 156.67 L 47.20 157.22 L 47.00 157.71 L 46.79 158.19 L 46.55 158.71 L 46.31 159.24 L 46.03 159.74 L 45.72 160.22 L 45.39 160.67 L 45.05 161.11 L 44.69 161.53 L 44.32 161.97 L 43.91 162.35 L 43.46 162.70 L 42.97 163.06 L 42.53 163.27 L 42.07 163.46 L 41.54 163.66 L 40.95 163.81 L 40.36 163.91 L 39.79 163.97 L 39.35 163.78 L 38.98 163.44 L 38.72 162.91 L 38.27 162.61 L 37.93 162.17 L 37.59 161.73 L 37.25 161.28 L 36.68 161.14 L 36.29 160.76 L 35.94 160.31 L 35.61 159.86 L 35.27 159.59 L 34.91 159.51 L 34.52 159.57 L 34.05 159.82 L 33.58 160.12 L 33.15 160.48 L 32.80 160.83 L 32.41 161.18 L 31.97 161.53 L 31.54 161.93 L 31.17 162.34 L 30.81 162.76 L 30.43 163.18 L 30.11 163.65 L 29.88 164.14 L 29.76 164.61 L 29.77 165.02 L 29.84 165.47 L 30.10 165.76 L 30.39 166.13 L 30.60 166.61 L 30.74 167.20 L 30.81 167.88 L 30.98 168.42 L 31.21 168.84 L 31.44 169.25 L 31.57 169.75 L 31.63 170.27 L 31.59 170.79 L 31.44 171.37 L 31.23 171.92 L 30.98 172.44 L 30.69 172.93 L 30.39 173.41 L 30.08 173.89 L 29.76 174.36 L 29.41 174.81 L 29.04 175.25 L 28.66 175.68 L 28.26 176.06 L 27.84 176.47 L 27.42 176.82 L 26.99 177.10 L 26.48 177.44 L 26.03 177.70 L 25.62 177.94" fill="none" stroke="#000000" stroke-width="0.5" stroke-linejoin="round" stroke-linecap="round"/>
</svg>