<?xml version="1.0" encoding="UTF-8"?>
<svg xmlns="http://www.w3.org/2000/svg" viewBox="20.69 140.00 39.86 42.17">
<path d="M 49.00 145.00 L 48.23 145.77 L 47.68 146.63 L 47.23 147.48 L 47.22 147.89 L 47.53 148.03 L 47.95 148.17 L 48.47 148.37 L 49.13 148.37 L 49.89 148.16 L 50.61 147.93 L 51.43 147.50 L 52.32 146.97 L 53.22 146.45 L 54.04 146.03 L 54.76 145.80 L 55.33 145.82 L 55.51 146.39 L 55.54 147.08 L 55.54 147.74 L 55.31 148.60 L 54.86 149.62 L 54.34 150.55 L 53.71 151.42 L 52.99 152.23 L 52.29 152.89 L 51.55 153.43 L 50.80 153.85 L 50.06 154.13 L 49.32 154.35 L 48.55 154.55 L 47.77 154.73 L 47.06 154.82 L 46.54 154.61 L 45.83 154.64 L 45.07 154.73 L 44.52 154.51 L 43.93 154.35 L 43.33 154.20 L 42.77 153.97 L 42.09 153.91 L 41.37 153.91 L 40.99 153.44 L 40.47 153.18 L 39.88 153.01 L 39.16 153.01 L 38.47 152.96 L 37.85 152.82 L 37.33 152.61 L 36.97 152.26 L 36.77 151.77 L 36.97 150.79 L 37.24 149.75 L 37.52 148.74 L 37.76 147.79 L 37.90 146.94 L 37.86 146.23 L 37.10 146.44 L 36.51 146.35 L 36.01 146.17 L 35.49 146.16 L 35.36 145.84 L 35.07 145.97 L 34.48 146.80 L 34.07 147.63 L 33.95 148.32 L 33.96 149.01 L 33.93 149.83 L 33.87 150.74 L 33.82 151.61 L 33.88 152.33 L 33.90 153.09 L 33.86 153.94 L 33.78 154.84 L 33.73 155.69 L 33.67 156.52 L 33.56 157.39 L 33.48 158.23 L 33.38 159.09 L 33.17 160.06 L 33.02 160.93 L 32.87 161.78 L 32.64 162.74 L 32.41 163.69 L 32.17 164.61 L 32.06 165.36 L 31.75 166.37 L 31.44 167.34 L 31.27 168.05 L 30.87 169.00 L 30.44 169.95 L 29.96 170.94 L 29.42 171.88 L 28.85 172.78 L 28.25 173.69 L 27.64 174.58 L 27.00 175.45 L 26.35 176.32 L 25.69 177.17" fill="none" stroke="#000000" stroke-width="0.5" stroke-linejoin="round" stroke-linecap="round"/>
</svg>