<?xml version="1.0" encoding="UTF-8"?>
<svg xmlns="http://www.w3.org/2000/svg" viewBox="18.00 140.00 41.21 42.72">
<path d="M 49.00 145.00 L 47.99 145.09 L 47.34 145.35 L 46.67 145.48 L 45.85 145.71 L 45.08 145.88 L 44.37 145.98 L 43.50 146.35 L 42.64 146.72 L 41.81 147.09 L 40.88 147.65 L 39.96 148.25 L 39.12 148.79 L 38.23 149.47 L 37.32 150.28 L 36.45 151.15 L 35.64 152.11 L 34.86 153.19 L 34.18 154.30 L 34.55 154.10 L 35.38 153.39 L 36.28 152.73 L 37.21 152.09 L 38.14 151.49 L 38.96 151.07 L 39.83 150.60 L 40.74 150.13 L 41.60 149.74 L 42.47 149.36 L 43.33 149.01 L 44.13 148.77 L 44.93 148.54 L 45.75 148.30 L 46.50 148.17 L 47.26 148.05 L 48.09 147.84 L 48.82 147.78 L 49.49 147.81 L 50.24 147.74 L 50.88 147.84 L 51.45 148.04 L 52.14 148.09 L 52.78 148.21 L 53.35 148.42 L 53.86 148.60 L 54.19 148.86 L 54.21 149.31 L 53.61 150.41 L 52.97 151.36 L 52.28 152.20 L 51.44 153.08 L 50.54 153.96 L 49.64 154.90 L 48.83 155.89 L 48.10 156.96 L 47.44 158.12 L 47.15 158.97 L 47.07 159.69 L 47.25 160.24 L 47.69 160.58 L 48.17 160.77 L 48.42 161.06 L 48.60 161.23 L 48.40 161.71 L 47.84 162.45 L 47.04 163.30 L 46.16 164.07 L 45.29 164.75 L 44.35 165.55 L 43.42 166.36 L 42.50 167.16 L 41.58 167.98 L 40.64 168.79 L 39.70 169.58 L 38.79 170.30 L 37.89 170.96 L 36.96 171.60 L 36.05 172.16 L 35.17 172.66 L 34.32 173.07 L 33.46 173.45 L 32.61 173.80 L 31.80 174.08 L 31.00 174.34 L 30.11 174.71 L 29.28 174.99 L 28.47 175.23 L 27.67 175.46 L 26.85 175.69 L 26.03 175.92 L 25.30 176.03 L 24.55 176.19 L 23.86 176.51 L 23.46 176.73 L 23.17 177.06 L 23.00 177.50 L 23.32 177.54 L 23.71 177.63 L 24.16 177.72" fill="none" stroke="#000000" stroke-width="0.5" stroke-linejoin="round" stroke-linecap="round"/>
</svg>