<?xml version="1.0" encoding="UTF-8"?>
<svg xmlns="http://www.w3.org/2000/svg" viewBox="19.69 140.00 35.77 42.20">
<path d="M 49.00 145.00 L 49.88 145.30 L 50.33 145.38 L 50.41 146.03 L 50.47 146.65 L 50.37 147.23 L 50.05 147.81 L 49.58 148.29 L 49.02 148.60 L 48.52 148.57 L 48.20 148.05 L 47.86 147.47 L 47.52 146.87 L 47.08 146.44 L 46.45 146.33 L 45.68 146.44 L 44.98 146.60 L 44.35 146.80 L 43.78 147.06 L 43.19 147.47 L 42.64 147.95 L 42.17 148.50 L 41.79 149.11 L 41.50 149.74 L 41.29 150.40 L 41.16 151.13 L 41.18 151.82 L 41.24 152.54 L 41.63 152.89 L 41.91 153.46 L 42.12 154.19 L 42.35 154.94 L 42.66 155.58 L 43.02 156.18 L 43.52 156.63 L 44.05 157.07 L 44.58 157.53 L 45.11 157.98 L 45.50 158.51 L 45.79 159.07 L 45.94 159.52 L 45.72 160.17 L 45.34 160.71 L 44.88 161.04 L 44.40 161.14 L 44.02 160.93 L 43.73 160.38 L 43.56 159.63 L 43.40 158.84 L 43.07 158.27 L 42.58 157.92 L 41.95 157.70 L 41.46 157.28 L 40.82 157.08 L 40.15 156.93 L 39.34 156.99 L 38.65 156.98 L 38.10 156.91 L 37.50 157.02 L 36.85 157.25 L 36.21 157.67 L 35.70 158.14 L 35.30 158.66 L 34.97 159.24 L 34.69 159.86 L 34.50 160.54 L 34.41 161.29 L 34.41 161.98 L 34.49 162.63 L 34.60 163.29 L 34.67 163.92 L 34.61 164.46 L 34.42 164.91 L 34.01 165.40 L 33.67 165.51 L 33.14 165.62 L 32.48 165.72 L 31.87 165.69 L 31.24 165.76 L 30.53 166.06 L 29.92 166.34 L 29.38 166.66 L 28.81 167.13 L 28.27 167.62 L 27.79 168.15 L 27.38 168.74 L 26.99 169.34 L 26.62 169.92 L 26.30 170.51 L 26.00 171.15 L 25.74 171.83 L 25.51 172.49 L 25.29 173.14 L 25.09 173.82 L 24.94 174.53 L 24.83 175.27 L 24.75 176.03 L 24.73 176.64 L 24.69 177.20" fill="none" stroke="#000000" stroke-width="0.5" stroke-linejoin="round" stroke-linecap="round"/>
</svg>