<?xml version="1.0" encoding="UTF-8"?>
<svg xmlns="http://www.w3.org/2000/svg" viewBox="20.43 140.00 33.57 42.78">
<path d="M 49.00 145.00 L 48.53 145.24 L 48.18 145.52 L 47.86 145.74 L 47.49 146.00 L 47.09 146.29 L 46.71 146.59 L 46.36 146.92 L 46.04 147.26 L 45.71 147.61 L 45.39 147.97 L 45.09 148.33 L 44.82 148.72 L 44.55 149.11 L 44.27 149.48 L 43.98 149.78 L 43.66 150.07 L 43.31 150.35 L 42.92 150.60 L 42.48 150.77 L 42.04 150.87 L 41.57 150.97 L 41.11 151.04 L 40.68 151.03 L 40.21 151.08 L 39.72 151.14 L 39.25 151.21 L 38.83 151.26 L 38.40 151.36 L 37.93 151.54 L 37.47 151.74 L 37.06 151.97 L 36.68 152.23 L 36.30 152.49 L 35.90 152.77 L 35.49 153.04 L 35.09 153.28 L 34.72 153.49 L 34.33 153.66 L 33.89 153.87 L 33.43 154.06 L 32.98 154.26 L 32.54 154.46 L 32.16 154.60 L 31.75 154.81 L 31.34 155.05 L 30.94 155.32 L 30.55 155.62 L 30.18 155.93 L 29.83 156.26 L 29.49 156.59 L 29.14 156.92 L 28.81 157.26 L 28.50 157.62 L 28.21 157.99 L 27.95 158.37 L 27.70 158.76 L 27.48 159.19 L 27.29 159.64 L 27.12 160.09 L 26.96 160.54 L 26.84 160.96 L 26.72 161.41 L 26.59 161.88 L 26.47 162.35 L 26.35 162.83 L 26.24 163.31 L 26.15 163.76 L 26.12 164.16 L 26.04 164.65 L 25.99 165.14 L 25.96 165.63 L 25.93 166.13 L 25.96 166.59 L 26.03 167.04 L 26.11 167.49 L 26.20 167.96 L 26.29 168.43 L 26.40 168.89 L 26.50 169.36 L 26.59 169.84 L 26.70 170.30 L 26.80 170.76 L 26.90 171.22 L 26.99 171.69 L 27.07 172.16 L 27.12 172.62 L 27.17 173.07 L 27.16 173.56 L 27.13 174.05 L 27.08 174.53 L 27.00 174.98 L 26.89 175.43 L 26.75 175.89 L 26.55 176.34 L 26.32 176.73 L 26.03 177.10 L 25.73 177.45 L 25.43 177.78" fill="none" stroke="#000000" stroke-width="0.5" stroke-linejoin="round" stroke-linecap="round"/>
</svg>