<?xml version="1.0" encoding="UTF-8"?>
<svg xmlns="http://www.w3.org/2000/svg" viewBox="20.05 140.00 33.95 42.46">
<path d="M 49.00 145.00 L 48.54 145.21 L 48.16 145.49 L 47.74 145.73 L 47.27 145.96 L 46.87 146.06 L 46.44 146.14 L 46.00 146.20 L 45.52 146.24 L 45.04 146.28 L 44.56 146.31 L 44.08 146.35 L 43.60 146.39 L 43.13 146.44 L 42.69 146.50 L 42.27 146.59 L 41.80 146.77 L 41.35 146.98 L 40.91 147.21 L 40.51 147.47 L 40.11 147.73 L 39.73 148.00 L 39.37 148.33 L 39.02 148.63 L 38.69 148.95 L 38.38 149.30 L 38.11 149.65 L 37.86 150.03 L 37.61 150.43 L 37.36 150.82 L 37.14 151.25 L 36.94 151.69 L 36.74 152.12 L 36.52 152.54 L 36.32 152.97 L 36.11 153.40 L 35.87 153.82 L 35.63 154.22 L 35.35 154.60 L 35.03 154.96 L 34.69 155.31 L 34.31 155.59 L 33.91 155.85 L 33.49 156.09 L 33.12 156.22 L 32.71 156.41 L 32.27 156.64 L 31.83 156.87 L 31.41 157.11 L 31.00 157.36 L 30.59 157.61 L 30.19 157.86 L 29.79 158.12 L 29.40 158.39 L 29.04 158.70 L 28.69 159.01 L 28.36 159.33 L 28.07 159.70 L 27.83 160.07 L 27.63 160.45 L 27.50 160.81 L 27.32 161.25 L 27.20 161.73 L 27.14 162.24 L 27.10 162.73 L 27.13 163.19 L 27.24 163.57 L 27.36 163.97 L 27.41 164.45 L 27.43 164.92 L 27.42 165.36 L 27.32 165.83 L 27.15 166.28 L 26.93 166.70 L 26.64 167.07 L 26.34 167.42 L 26.06 167.76 L 25.80 168.12 L 25.58 168.54 L 25.45 168.98 L 25.43 169.41 L 25.56 169.75 L 25.72 170.10 L 25.87 170.44 L 25.92 170.93 L 25.91 171.46 L 25.86 171.97 L 25.83 172.41 L 25.78 172.85 L 25.69 173.36 L 25.64 173.81 L 25.59 174.27 L 25.50 174.75 L 25.43 175.23 L 25.41 175.66 L 25.32 176.17 L 25.25 176.63 L 25.18 177.04 L 25.05 177.46" fill="none" stroke="#000000" stroke-width="0.5" stroke-linejoin="round" stroke-linecap="round"/>
</svg>