<?xml version="1.0" encoding="UTF-8"?>
<svg xmlns="http://www.w3.org/2000/svg" viewBox="16.90 140.00 41.30 42.39">
<path d="M 49.00 145.00 L 49.15 145.75 L 49.25 146.18 L 49.54 146.48 L 49.99 146.65 L 50.46 146.82 L 50.94 146.99 L 51.58 146.90 L 52.14 146.84 L 52.62 146.78 L 53.09 146.57 L 53.20 146.75 L 52.98 147.27 L 52.69 147.73 L 52.34 148.15 L 51.94 148.56 L 51.55 148.94 L 51.17 149.34 L 50.79 149.76 L 50.41 150.18 L 50.03 150.61 L 49.66 151.04 L 49.27 151.46 L 48.89 151.87 L 48.48 152.23 L 48.04 152.60 L 47.60 152.95 L 47.17 153.22 L 46.71 153.51 L 46.21 153.85 L 45.81 154.00 L 45.38 154.18 L 44.84 154.49 L 44.36 154.66 L 43.89 154.88 L 43.40 155.11 L 42.85 155.36 L 42.30 155.58 L 41.78 155.78 L 41.27 155.97 L 40.78 156.16 L 40.27 156.34 L 39.74 156.59 L 39.23 156.88 L 38.79 157.12 L 38.34 157.41 L 37.85 157.74 L 37.34 158.03 L 36.84 158.32 L 36.37 158.57 L 35.97 158.69 L 35.47 158.91 L 34.92 159.16 L 34.35 159.41 L 33.84 159.62 L 33.36 159.78 L 32.86 159.97 L 32.37 160.16 L 31.84 160.39 L 31.30 160.65 L 30.76 160.92 L 30.26 161.17 L 29.81 161.40 L 29.36 161.62 L 28.89 161.90 L 28.41 162.25 L 27.96 162.60 L 27.54 162.96 L 27.12 163.36 L 26.72 163.74 L 26.34 164.12 L 25.93 164.52 L 25.51 164.92 L 25.13 165.34 L 24.78 165.75 L 24.41 166.15 L 24.04 166.56 L 23.69 166.97 L 23.37 167.41 L 23.07 167.89 L 22.78 168.37 L 22.53 168.87 L 22.32 169.40 L 22.16 169.94 L 22.04 170.49 L 21.95 171.06 L 21.90 171.66 L 21.95 172.20 L 22.05 172.71 L 22.20 173.21 L 22.37 173.74 L 22.54 174.30 L 22.72 174.87 L 22.95 175.39 L 23.25 175.84 L 23.56 176.31 L 23.90 176.74 L 24.27 177.03 L 24.49 177.39" fill="none" stroke="#000000" stroke-width="0.5" stroke-linejoin="round" stroke-linecap="round"/>
</svg>