<?xml version="1.0" encoding="UTF-8"?>
<svg xmlns="http://www.w3.org/2000/svg" viewBox="20.34 140.00 33.66 42.66">
<path d="M 49.00 145.00 L 48.66 145.34 L 48.34 145.70 L 47.97 146.03 L 47.61 146.35 L 47.26 146.65 L 46.99 146.84 L 46.62 147.16 L 46.25 147.49 L 45.89 147.81 L 45.57 148.17 L 45.24 148.52 L 44.92 148.88 L 44.59 149.23 L 44.26 149.59 L 43.94 149.94 L 43.61 150.30 L 43.29 150.65 L 42.99 151.03 L 42.71 151.42 L 42.43 151.80 L 42.19 152.14 L 41.94 152.49 L 41.66 152.88 L 41.38 153.27 L 41.07 153.64 L 40.75 153.99 L 40.42 154.35 L 40.10 154.70 L 39.77 155.05 L 39.45 155.41 L 39.12 155.76 L 38.79 156.12 L 38.49 156.49 L 38.21 156.88 L 37.93 157.27 L 37.66 157.64 L 37.40 158.00 L 37.12 158.39 L 36.85 158.79 L 36.59 159.19 L 36.31 159.58 L 36.05 159.95 L 35.82 160.27 L 35.57 160.67 L 35.33 161.09 L 35.10 161.51 L 34.86 161.91 L 34.64 162.31 L 34.41 162.72 L 34.23 163.15 L 34.03 163.58 L 33.80 164.01 L 33.64 164.37 L 33.43 164.78 L 33.20 165.20 L 33.02 165.62 L 32.80 166.04 L 32.57 166.46 L 32.40 166.83 L 32.20 167.24 L 31.97 167.66 L 31.75 168.06 L 31.50 168.44 L 31.29 168.88 L 31.13 169.36 L 31.03 169.84 L 31.20 170.03 L 31.42 170.26 L 31.69 170.53 L 32.20 170.58 L 32.67 170.68 L 33.06 170.76 L 33.47 170.69 L 33.66 170.81 L 33.50 171.29 L 33.28 171.72 L 33.01 172.11 L 32.65 172.44 L 32.26 172.75 L 31.85 173.01 L 31.45 173.22 L 31.05 173.35 L 30.61 173.46 L 30.12 173.60 L 29.66 173.68 L 29.25 173.76 L 28.85 173.88 L 28.43 174.08 L 28.02 174.34 L 27.64 174.65 L 27.32 175.01 L 27.04 175.40 L 26.76 175.77 L 26.50 176.14 L 26.22 176.52 L 25.94 176.91 L 25.65 177.29 L 25.34 177.66" fill="none" stroke="#000000" stroke-width="0.5" stroke-linejoin="round" stroke-linecap="round"/>
</svg>