<?xml version="1.0" encoding="UTF-8"?>
<svg xmlns="http://www.w3.org/2000/svg" viewBox="20.30 140.00 33.70 42.70">
<path d="M 49.00 145.00 L 48.70 145.30 L 48.44 145.61 L 48.16 145.89 L 47.87 146.18 L 47.57 146.48 L 47.30 146.76 L 47.03 147.06 L 46.73 147.37 L 46.44 147.67 L 46.18 147.98 L 45.92 148.27 L 45.63 148.57 L 45.33 148.87 L 45.05 149.17 L 44.80 149.46 L 44.54 149.79 L 44.28 150.11 L 44.03 150.45 L 43.80 150.80 L 43.55 151.14 L 43.29 151.47 L 43.02 151.80 L 42.78 152.10 L 42.53 152.41 L 42.27 152.73 L 42.00 153.06 L 41.76 153.41 L 41.54 153.76 L 41.31 154.12 L 41.09 154.47 L 40.86 154.82 L 40.63 155.18 L 40.41 155.53 L 40.18 155.89 L 39.96 156.24 L 39.73 156.60 L 39.51 156.95 L 39.28 157.31 L 39.06 157.66 L 38.83 158.02 L 38.61 158.37 L 38.38 158.73 L 38.15 159.08 L 37.93 159.44 L 37.70 159.79 L 37.50 160.16 L 37.31 160.54 L 37.12 160.93 L 36.96 161.27 L 36.80 161.61 L 36.61 161.99 L 36.42 162.37 L 36.21 162.74 L 35.99 163.10 L 35.76 163.45 L 35.53 163.81 L 35.31 164.16 L 35.08 164.52 L 34.86 164.87 L 34.64 165.23 L 34.44 165.60 L 34.25 165.98 L 34.06 166.36 L 33.91 166.69 L 33.74 167.05 L 33.55 167.43 L 33.35 167.81 L 33.11 168.16 L 32.85 168.48 L 32.59 168.81 L 32.35 169.11 L 32.09 169.42 L 31.83 169.75 L 31.57 170.08 L 31.33 170.42 L 31.11 170.78 L 30.88 171.13 L 30.66 171.49 L 30.43 171.84 L 30.19 172.19 L 29.93 172.51 L 29.66 172.84 L 29.41 173.15 L 29.15 173.44 L 28.85 173.74 L 28.55 174.04 L 28.28 174.33 L 28.04 174.64 L 27.75 174.95 L 27.45 175.25 L 27.17 175.56 L 26.92 175.86 L 26.67 176.17 L 26.38 176.48 L 26.08 176.78 L 25.80 177.09 L 25.56 177.39 L 25.30 177.70" fill="none" stroke="#000000" stroke-width="0.5" stroke-linejoin="round" stroke-linecap="round"/>
</svg>