<?xml version="1.0" encoding="UTF-8"?>
<svg xmlns="http://www.w3.org/2000/svg" viewBox="20.12 140.00 33.88 42.42">
<path d="M 49.00 145.00 L 48.87 145.57 L 48.67 146.07 L 48.49 146.57 L 48.38 147.09 L 48.26 147.65 L 48.17 148.22 L 48.18 148.69 L 48.16 149.22 L 48.14 149.78 L 48.17 150.29 L 48.17 150.80 L 48.11 151.35 L 48.01 151.88 L 47.86 152.40 L 47.66 152.91 L 47.42 153.41 L 47.15 153.89 L 46.86 154.36 L 46.56 154.83 L 46.28 155.30 L 46.00 155.78 L 45.75 156.26 L 45.52 156.76 L 45.30 157.26 L 45.11 157.77 L 44.94 158.29 L 44.78 158.84 L 44.64 159.36 L 44.51 159.86 L 44.39 160.37 L 44.26 160.92 L 44.14 161.49 L 44.06 162.03 L 43.98 162.57 L 43.92 163.12 L 43.94 163.59 L 43.92 164.13 L 43.90 164.72 L 43.88 165.30 L 43.90 165.82 L 43.94 166.31 L 43.95 166.89 L 43.98 167.47 L 44.06 167.99 L 44.15 168.52 L 44.26 169.06 L 44.39 169.62 L 44.57 170.09 L 44.78 170.56 L 44.92 171.13 L 45.11 171.63 L 45.33 172.11 L 45.45 172.65 L 45.51 173.07 L 45.51 173.36 L 45.25 173.79 L 45.00 174.00 L 44.66 174.12 L 44.15 174.25 L 43.62 174.26 L 43.10 174.23 L 42.51 174.30 L 41.96 174.27 L 41.44 174.22 L 40.91 174.16 L 40.36 174.09 L 39.82 174.02 L 39.27 173.95 L 38.72 173.87 L 38.17 173.79 L 37.61 173.72 L 37.12 173.55 L 36.63 173.37 L 36.07 173.29 L 35.51 173.21 L 34.98 173.12 L 34.52 172.94 L 33.98 172.88 L 33.37 172.91 L 32.85 172.86 L 32.35 172.82 L 31.84 172.80 L 31.26 172.88 L 30.71 172.97 L 30.18 173.09 L 29.68 173.22 L 29.18 173.41 L 28.65 173.65 L 28.15 173.90 L 27.67 174.17 L 27.21 174.46 L 26.80 174.77 L 26.41 175.14 L 26.07 175.56 L 25.78 176.01 L 25.53 176.49 L 25.33 176.94 L 25.12 177.42" fill="none" stroke="#000000" stroke-width="0.5" stroke-linejoin="round" stroke-linecap="round"/>
</svg>