<?xml version="1.0" encoding="UTF-8"?>
<svg xmlns="http://www.w3.org/2000/svg" viewBox="19.87 140.00 34.13 42.52">
<path d="M 49.00 145.00 L 48.55 145.04 L 48.28 145.15 L 48.08 145.10 L 47.68 145.29 L 47.29 145.47 L 46.95 145.59 L 46.62 145.72 L 46.20 145.97 L 45.85 146.14 L 45.53 146.28 L 45.15 146.54 L 44.75 146.80 L 44.36 147.08 L 43.98 147.35 L 43.62 147.61 L 43.28 147.87 L 42.93 148.17 L 42.55 148.49 L 42.17 148.84 L 41.79 149.18 L 41.44 149.49 L 41.09 149.79 L 40.73 150.08 L 40.35 150.36 L 39.97 150.65 L 39.59 150.92 L 39.20 151.18 L 38.82 151.42 L 38.47 151.62 L 38.16 151.75 L 37.79 151.95 L 37.39 152.21 L 37.02 152.46 L 36.69 152.68 L 36.34 152.97 L 35.97 153.32 L 35.63 153.63 L 35.27 153.98 L 34.92 154.32 L 34.57 154.63 L 34.22 154.93 L 33.85 155.22 L 33.48 155.49 L 33.13 155.75 L 32.78 156.02 L 32.44 156.32 L 32.08 156.69 L 31.75 157.07 L 31.44 157.47 L 31.15 157.88 L 30.87 158.30 L 30.60 158.73 L 30.33 159.16 L 30.07 159.60 L 29.79 160.02 L 29.52 160.45 L 29.26 160.88 L 29.00 161.32 L 28.78 161.72 L 28.57 162.09 L 28.33 162.51 L 28.10 162.97 L 27.88 163.43 L 27.64 163.89 L 27.45 164.30 L 27.29 164.69 L 27.09 165.15 L 26.90 165.61 L 26.75 166.02 L 26.56 166.47 L 26.38 166.95 L 26.24 167.37 L 26.11 167.79 L 25.98 168.22 L 25.87 168.65 L 25.75 169.09 L 25.64 169.52 L 25.52 169.95 L 25.41 170.39 L 25.29 170.82 L 25.18 171.26 L 25.08 171.70 L 24.99 172.15 L 24.96 172.53 L 24.94 172.89 L 24.96 173.22 L 24.94 173.62 L 24.87 174.09 L 24.88 174.45 L 24.92 174.79 L 24.98 175.12 L 25.04 175.47 L 25.16 175.72 L 25.30 175.93 L 25.34 176.26 L 25.30 176.67 L 25.19 177.11 L 25.05 177.52" fill="none" stroke="#000000" stroke-width="0.5" stroke-linejoin="round" stroke-linecap="round"/>
</svg>