<?xml version="1.0" encoding="UTF-8"?>
<svg xmlns="http://www.w3.org/2000/svg" viewBox="20.19 140.00 33.81 42.50">
<path d="M 49.00 145.00 L 48.71 145.00 L 48.52 145.08 L 48.24 145.25 L 47.94 145.41 L 47.58 145.66 L 47.23 145.89 L 46.95 146.05 L 46.65 146.25 L 46.29 146.52 L 45.87 146.89 L 45.46 147.26 L 45.12 147.54 L 44.71 147.93 L 44.30 148.33 L 43.91 148.71 L 43.50 149.12 L 43.08 149.56 L 42.65 150.03 L 42.26 150.46 L 41.84 150.95 L 41.42 151.44 L 41.00 151.96 L 40.58 152.49 L 40.16 153.02 L 39.75 153.55 L 39.34 154.08 L 38.93 154.62 L 38.53 155.17 L 38.14 155.72 L 37.76 156.26 L 37.38 156.81 L 37.01 157.36 L 36.65 157.92 L 36.29 158.47 L 35.92 159.03 L 35.56 159.59 L 35.21 160.15 L 34.85 160.71 L 34.49 161.25 L 34.14 161.76 L 33.79 162.27 L 33.42 162.80 L 33.05 163.35 L 32.68 163.91 L 32.34 164.44 L 32.15 164.81 L 31.91 165.27 L 31.63 165.82 L 31.38 166.33 L 31.16 166.80 L 30.92 167.28 L 30.67 167.78 L 30.38 168.33 L 30.08 168.87 L 29.78 169.40 L 29.48 169.94 L 29.17 170.47 L 28.85 171.03 L 28.51 171.59 L 28.18 172.12 L 27.83 172.63 L 27.42 173.15 L 27.10 173.52 L 27.00 173.52 L 27.04 173.27 L 27.02 173.06 L 26.97 172.87 L 27.04 172.50 L 27.12 172.14 L 27.17 171.80 L 27.18 171.54 L 27.24 171.20 L 27.32 170.83 L 27.40 170.46 L 27.51 170.12 L 27.56 169.92 L 27.48 169.97 L 27.17 170.40 L 26.94 170.79 L 26.76 171.17 L 26.59 171.63 L 26.51 171.98 L 26.49 172.24 L 26.41 172.60 L 26.33 172.97 L 26.25 173.33 L 26.17 173.70 L 26.22 173.89 L 26.22 174.15 L 26.15 174.51 L 26.15 174.79 L 26.14 175.06 L 26.16 175.27 L 26.20 175.44 L 25.98 175.95 L 25.75 176.46 L 25.47 177.01 L 25.19 177.50" fill="none" stroke="#000000" stroke-width="0.5" stroke-linejoin="round" stroke-linecap="round"/>
</svg>