<?xml version="1.0" encoding="UTF-8"?>
<svg xmlns="http://www.w3.org/2000/svg" viewBox="14.84 140.00 39.16 42.50">
<path d="M 49.00 145.00 L 47.65 145.42 L 46.75 145.85 L 45.86 146.09 L 44.99 146.15 L 44.03 146.29 L 42.94 146.57 L 41.86 146.85 L 40.85 147.18 L 40.00 147.37 L 39.14 147.53 L 37.87 148.19 L 36.91 148.38 L 36.40 147.93 L 35.81 147.57 L 35.11 147.24 L 34.33 146.96 L 33.28 147.08 L 32.20 147.28 L 31.10 147.55 L 30.08 147.74 L 29.09 147.90 L 28.11 148.07 L 27.07 148.31 L 26.01 148.61 L 24.93 148.89 L 23.84 149.17 L 22.74 149.43 L 21.91 149.30 L 21.28 149.06 L 20.82 148.94 L 20.26 149.33 L 19.84 149.93 L 20.30 149.76 L 20.86 149.83 L 21.51 150.10 L 22.33 150.29 L 23.28 150.26 L 24.37 149.99 L 25.53 149.61 L 26.62 149.29 L 27.59 149.11 L 28.58 148.95 L 29.60 148.80 L 30.63 148.67 L 31.60 148.61 L 32.55 148.61 L 33.62 148.48 L 34.61 148.50 L 35.12 149.16 L 35.70 149.73 L 36.37 150.16 L 37.37 150.00 L 38.24 149.95 L 39.17 149.75 L 40.37 149.08 L 41.13 149.00 L 41.98 148.75 L 42.93 148.41 L 43.86 148.26 L 44.89 147.97 L 45.24 148.50 L 45.61 149.06 L 45.80 149.86 L 45.50 151.25 L 46.03 151.35 L 46.25 151.79 L 45.87 153.02 L 45.52 154.33 L 45.28 155.51 L 45.10 156.68 L 45.00 157.82 L 45.21 158.46 L 45.56 158.89 L 45.52 159.85 L 45.16 161.15 L 45.13 161.83 L 45.07 162.36 L 44.38 163.46 L 43.63 164.53 L 42.79 165.48 L 41.90 166.23 L 41.01 166.75 L 40.01 167.27 L 39.01 167.66 L 38.22 167.74 L 37.27 168.15 L 36.28 168.76 L 35.42 169.38 L 34.48 170.30 L 33.57 171.22 L 32.67 172.14 L 31.77 173.07 L 30.87 173.92 L 30.01 174.66 L 29.07 175.34 L 28.08 176.00 L 27.04 176.79 L 26.14 177.50" fill="none" stroke="#000000" stroke-width="0.5" stroke-linejoin="round" stroke-linecap="round"/>
</svg>