<?xml version="1.0" encoding="UTF-8"?>
<svg xmlns="http://www.w3.org/2000/svg" viewBox="13.44 140.00 40.56 42.38">
<path d="M 49.00 145.00 L 48.22 145.58 L 47.58 146.27 L 46.95 146.97 L 46.28 147.70 L 45.62 148.45 L 44.96 149.19 L 44.31 149.95 L 43.67 150.69 L 43.06 151.40 L 42.38 152.13 L 41.69 152.84 L 40.97 153.57 L 40.29 154.24 L 39.60 154.89 L 38.91 155.54 L 38.21 156.19 L 37.53 156.85 L 36.86 157.52 L 36.16 158.22 L 35.45 158.94 L 34.76 159.60 L 34.07 160.25 L 33.36 160.89 L 32.67 161.43 L 31.99 161.97 L 31.26 162.59 L 30.54 163.23 L 29.83 163.86 L 29.10 164.56 L 28.38 165.24 L 27.68 165.88 L 27.00 166.54 L 26.31 167.20 L 25.60 167.83 L 24.83 168.51 L 24.09 169.16 L 23.46 169.69 L 22.98 170.06 L 22.25 170.76 L 21.53 171.46 L 20.83 172.19 L 20.22 172.98 L 19.66 173.80 L 19.16 174.68 L 18.80 175.49 L 18.53 176.32 L 18.44 177.00 L 18.67 177.27 L 19.14 177.13 L 19.83 176.62 L 20.57 175.97 L 21.29 175.24 L 21.93 174.48 L 22.55 173.69 L 23.19 172.92 L 23.85 172.16 L 24.49 171.43 L 25.13 170.73 L 25.82 170.00 L 26.53 169.32 L 27.25 168.69 L 27.97 168.06 L 28.66 167.50 L 29.34 166.97 L 30.08 166.36 L 30.82 165.74 L 31.57 165.14 L 32.34 164.54 L 33.12 163.96 L 33.77 163.59 L 34.42 163.21 L 35.12 162.76 L 35.86 162.30 L 35.93 162.78 L 35.67 163.68 L 35.65 164.22 L 36.18 163.78 L 36.22 163.97 L 35.92 164.67 L 35.84 165.09 L 35.52 165.77 L 35.20 166.28 L 34.92 166.62 L 34.48 167.25 L 34.02 167.93 L 33.53 168.57 L 32.95 169.23 L 32.26 169.97 L 31.61 170.73 L 30.99 171.51 L 30.39 172.29 L 29.76 173.07 L 29.09 173.82 L 28.42 174.56 L 27.75 175.27 L 27.09 175.94 L 26.40 176.67 L 25.74 177.38" fill="none" stroke="#000000" stroke-width="0.5" stroke-linejoin="round" stroke-linecap="round"/>
</svg>