<?xml version="1.0" encoding="UTF-8"?>
<svg xmlns="http://www.w3.org/2000/svg" viewBox="20.06 140.00 33.94 42.47">
<path d="M 49.00 145.00 L 48.52 145.01 L 48.16 145.20 L 47.76 145.38 L 47.32 145.53 L 46.88 145.69 L 46.47 145.79 L 46.08 145.83 L 45.68 145.87 L 45.27 145.90 L 44.84 145.95 L 44.42 145.98 L 44.01 146.01 L 43.59 146.03 L 43.18 146.06 L 42.78 146.10 L 42.37 146.17 L 41.95 146.28 L 41.55 146.42 L 41.15 146.60 L 40.75 146.82 L 40.35 147.08 L 39.95 147.36 L 39.58 147.62 L 39.24 147.91 L 38.90 148.20 L 38.55 148.52 L 38.22 148.87 L 37.91 149.23 L 37.63 149.60 L 37.35 149.99 L 37.08 150.38 L 36.82 150.77 L 36.56 151.17 L 36.32 151.58 L 36.08 151.99 L 35.86 152.42 L 35.67 152.85 L 35.50 153.28 L 35.35 153.71 L 35.24 154.11 L 35.11 154.55 L 34.97 155.00 L 34.83 155.45 L 34.67 155.89 L 34.52 156.33 L 34.37 156.77 L 34.23 157.22 L 34.09 157.67 L 33.98 158.09 L 33.86 158.51 L 33.73 158.97 L 33.60 159.43 L 33.47 159.88 L 33.35 160.31 L 33.24 160.72 L 33.10 161.17 L 32.96 161.62 L 32.81 162.06 L 32.65 162.50 L 32.47 162.92 L 32.28 163.33 L 32.08 163.77 L 31.87 164.20 L 31.66 164.63 L 31.44 165.04 L 31.25 165.45 L 31.04 165.88 L 30.84 166.31 L 30.66 166.73 L 30.47 167.16 L 30.30 167.62 L 30.18 168.06 L 30.08 168.47 L 29.99 168.90 L 29.91 169.32 L 29.83 169.75 L 29.71 170.20 L 29.56 170.65 L 29.40 171.08 L 29.20 171.49 L 28.97 171.91 L 28.72 172.31 L 28.45 172.70 L 28.16 173.07 L 27.85 173.44 L 27.54 173.79 L 27.24 174.14 L 26.92 174.48 L 26.58 174.81 L 26.20 175.12 L 25.88 175.38 L 25.61 175.66 L 25.39 175.97 L 25.15 176.38 L 25.07 176.66 L 25.06 176.90 L 25.13 177.10 L 25.07 177.47" fill="none" stroke="#000000" stroke-width="0.5" stroke-linejoin="round" stroke-linecap="round"/>
</svg>