<?xml version="1.0" encoding="UTF-8"?>
<svg xmlns="http://www.w3.org/2000/svg" viewBox="20.16 140.00 33.95 42.39">
<path d="M 49.00 145.00 L 49.12 145.61 L 48.96 146.15 L 48.78 146.78 L 48.56 147.51 L 48.35 148.10 L 48.05 148.67 L 47.64 149.22 L 47.16 149.73 L 46.81 149.89 L 46.71 149.56 L 46.55 149.18 L 46.44 148.70 L 46.40 148.11 L 46.45 147.42 L 46.50 146.73 L 46.52 146.07 L 46.47 145.51 L 46.27 145.15 L 45.88 145.09 L 45.37 145.31 L 44.89 145.63 L 44.40 146.14 L 44.02 146.71 L 43.74 147.33 L 43.58 147.94 L 43.57 148.50 L 43.60 149.05 L 43.66 149.62 L 43.72 150.19 L 43.78 150.75 L 43.84 151.32 L 43.81 152.00 L 43.82 152.65 L 43.86 153.20 L 43.95 153.63 L 44.02 154.05 L 43.85 154.76 L 43.64 155.46 L 43.40 156.13 L 43.10 156.76 L 42.79 157.39 L 42.48 158.05 L 42.16 158.72 L 41.87 159.36 L 41.64 159.92 L 41.38 160.56 L 41.13 161.22 L 40.91 161.87 L 40.66 162.53 L 40.41 163.19 L 40.17 163.87 L 39.92 164.53 L 39.69 165.17 L 39.51 165.77 L 39.26 166.46 L 39.05 167.10 L 38.86 167.71 L 38.62 168.38 L 38.40 169.07 L 38.21 169.77 L 38.09 170.43 L 38.04 171.04 L 38.09 171.60 L 38.25 172.08 L 38.45 172.49 L 38.58 172.85 L 38.64 173.15 L 38.54 173.48 L 38.19 173.96 L 37.77 174.39 L 37.27 174.77 L 36.73 175.11 L 36.16 175.52 L 35.60 175.95 L 35.01 176.38 L 34.39 176.80 L 33.75 177.20 L 33.54 176.91 L 33.39 176.48 L 33.21 176.02 L 32.96 175.58 L 32.62 175.35 L 32.18 175.32 L 31.64 175.46 L 30.98 175.82 L 30.35 176.17 L 29.76 176.48 L 29.16 176.78 L 28.56 177.01 L 27.99 177.14 L 27.63 176.92 L 27.32 176.60 L 27.11 176.19 L 26.86 175.93 L 26.59 175.85 L 26.05 176.33 L 25.57 176.86 L 25.16 177.39" fill="none" stroke="#000000" stroke-width="0.5" stroke-linejoin="round" stroke-linecap="round"/>
</svg>