<?xml version="1.0" encoding="UTF-8"?>
<svg xmlns="http://www.w3.org/2000/svg" viewBox="20.49 140.00 33.51 42.53">
<path d="M 49.00 145.00 L 48.82 145.01 L 48.70 145.23 L 48.46 145.68 L 48.27 146.13 L 48.17 146.56 L 48.10 147.01 L 47.99 147.47 L 47.79 148.02 L 47.49 148.64 L 47.17 149.26 L 46.81 149.85 L 46.43 150.42 L 46.04 150.99 L 45.66 151.56 L 45.28 152.13 L 44.89 152.70 L 44.50 153.27 L 44.11 153.83 L 43.72 154.40 L 43.34 154.97 L 42.96 155.54 L 42.57 156.12 L 42.18 156.68 L 41.79 157.25 L 41.41 157.82 L 41.02 158.39 L 40.64 158.96 L 40.25 159.52 L 39.84 160.08 L 39.44 160.64 L 39.06 161.20 L 38.67 161.74 L 38.25 162.29 L 37.82 162.83 L 37.41 163.37 L 37.00 163.91 L 36.57 164.43 L 36.13 164.96 L 35.70 165.48 L 35.25 165.99 L 34.77 166.49 L 34.27 166.95 L 33.84 167.27 L 33.44 167.51 L 32.98 167.76 L 32.52 167.98 L 32.07 168.15 L 31.66 168.25 L 31.29 168.29 L 30.99 168.22 L 30.57 168.30 L 30.17 168.35 L 29.86 168.26 L 29.55 168.18 L 29.23 168.09 L 28.92 167.99 L 28.60 167.90 L 28.29 167.82 L 28.00 167.75 L 27.75 167.74 L 27.40 167.99 L 26.98 168.46 L 26.70 168.88 L 26.54 169.28 L 26.39 169.80 L 26.29 170.33 L 26.37 170.65 L 26.36 171.10 L 26.34 171.59 L 26.33 172.08 L 26.43 172.42 L 26.60 172.68 L 26.73 173.02 L 26.98 173.20 L 27.29 173.29 L 27.48 173.55 L 27.70 173.79 L 28.01 173.88 L 28.33 173.97 L 28.65 174.06 L 28.96 174.15 L 29.25 174.22 L 29.48 174.32 L 29.40 174.77 L 29.18 175.30 L 28.83 175.89 L 28.41 176.43 L 28.42 176.27 L 28.60 175.77 L 28.75 175.25 L 28.71 174.95 L 28.33 175.11 L 27.83 175.44 L 27.34 175.79 L 26.89 176.16 L 26.45 176.54 L 25.96 177.03 L 25.49 177.53" fill="none" stroke="#000000" stroke-width="0.5" stroke-linejoin="round" stroke-linecap="round"/>
</svg>