<?xml version="1.0" encoding="UTF-8"?>
<svg xmlns="http://www.w3.org/2000/svg" viewBox="16.01 140.00 40.52 42.44">
<path d="M 49.00 145.00 L 50.36 146.64 L 50.88 147.55 L 51.44 148.36 L 51.53 149.50 L 51.13 150.61 L 49.98 152.03 L 49.48 151.85 L 48.89 151.09 L 48.06 150.08 L 47.09 148.98 L 46.12 147.88 L 45.16 146.78 L 43.68 146.44 L 41.99 146.41 L 40.53 146.11 L 39.03 145.96 L 37.53 145.92 L 36.06 145.98 L 34.44 146.44 L 32.82 147.03 L 31.11 147.85 L 29.46 148.67 L 27.84 149.45 L 26.34 150.15 L 25.08 150.90 L 23.98 151.89 L 23.07 153.11 L 23.24 153.32 L 24.23 152.87 L 25.53 152.38 L 27.08 151.87 L 28.76 151.27 L 30.53 150.53 L 32.33 149.79 L 33.73 149.65 L 35.12 149.60 L 36.62 149.56 L 38.31 149.45 L 40.00 149.40 L 41.69 149.40 L 42.83 150.19 L 43.97 150.98 L 44.96 151.63 L 45.49 152.31 L 45.20 153.39 L 44.44 154.40 L 43.40 155.07 L 42.83 154.36 L 41.88 153.54 L 40.54 152.94 L 39.21 152.29 L 37.91 151.70 L 36.56 151.29 L 35.05 151.32 L 33.43 151.69 L 31.85 152.23 L 30.18 153.08 L 28.56 153.97 L 27.00 154.89 L 25.49 155.82 L 24.15 156.81 L 23.01 157.97 L 22.08 159.37 L 21.46 160.54 L 21.01 161.58 L 21.21 162.05 L 22.15 161.80 L 23.59 160.87 L 25.03 159.82 L 26.35 158.71 L 27.72 157.64 L 29.26 156.69 L 30.89 155.81 L 32.61 155.00 L 34.12 154.68 L 35.47 154.74 L 36.78 154.93 L 38.07 155.11 L 38.72 155.54 L 38.21 156.91 L 37.28 158.23 L 37.08 158.05 L 36.26 158.22 L 34.96 158.70 L 33.24 159.50 L 31.66 160.42 L 30.26 161.46 L 29.02 162.66 L 27.87 164.08 L 26.79 165.54 L 25.84 166.99 L 25.08 168.42 L 24.31 170.09 L 23.66 171.84 L 23.14 173.64 L 22.80 175.36 L 22.81 176.62 L 23.12 177.44" fill="none" stroke="#000000" stroke-width="0.5" stroke-linejoin="round" stroke-linecap="round"/>
</svg>