<?xml version="1.0" encoding="UTF-8"?>
<svg xmlns="http://www.w3.org/2000/svg" viewBox="20.00 140.00 34.00 42.53">
<path d="M 49.00 145.00 L 48.80 145.39 L 48.59 145.76 L 48.42 146.11 L 48.24 146.49 L 48.05 146.88 L 47.88 147.26 L 47.68 147.62 L 47.45 147.99 L 47.22 148.35 L 46.95 148.69 L 46.67 149.01 L 46.39 149.33 L 46.12 149.63 L 45.84 149.95 L 45.55 150.27 L 45.27 150.60 L 44.98 150.92 L 44.69 151.24 L 44.42 151.55 L 44.16 151.84 L 43.87 152.16 L 43.59 152.49 L 43.31 152.82 L 43.06 153.17 L 42.81 153.52 L 42.55 153.86 L 42.30 154.21 L 42.05 154.56 L 41.80 154.91 L 41.54 155.25 L 41.29 155.60 L 41.04 155.95 L 40.78 156.30 L 40.53 156.65 L 40.28 156.99 L 40.02 157.34 L 39.77 157.69 L 39.52 158.04 L 39.27 158.38 L 39.02 158.74 L 38.78 159.10 L 38.56 159.47 L 38.31 159.81 L 38.07 160.14 L 37.84 160.47 L 37.61 160.78 L 37.36 161.12 L 37.09 161.45 L 36.81 161.78 L 36.55 162.12 L 36.30 162.47 L 36.04 162.82 L 35.79 163.16 L 35.55 163.52 L 35.33 163.89 L 35.11 164.26 L 34.90 164.62 L 34.69 164.97 L 34.49 165.35 L 34.30 165.75 L 34.10 166.13 L 33.91 166.49 L 33.74 166.85 L 33.55 167.25 L 33.36 167.62 L 33.14 167.96 L 32.85 168.28 L 32.55 168.56 L 32.22 168.78 L 31.86 168.92 L 31.45 169.09 L 31.10 169.13 L 30.76 169.20 L 30.38 169.39 L 30.06 169.55 L 29.71 169.82 L 29.40 170.13 L 29.13 170.46 L 28.91 170.84 L 28.72 171.23 L 28.55 171.60 L 28.39 171.95 L 28.21 172.30 L 27.99 172.66 L 27.75 173.02 L 27.50 173.32 L 27.20 173.60 L 26.89 173.90 L 26.58 174.19 L 26.32 174.50 L 26.07 174.85 L 25.83 175.20 L 25.65 175.55 L 25.49 175.94 L 25.35 176.36 L 25.26 176.76 L 25.13 177.15 L 25.00 177.53" fill="none" stroke="#000000" stroke-width="0.5" stroke-linejoin="round" stroke-linecap="round"/>
</svg>