<?xml version="1.0" encoding="UTF-8"?>
<svg xmlns="http://www.w3.org/2000/svg" viewBox="15.79 140.00 38.21 42.61">
<path d="M 49.00 145.00 L 48.38 145.04 L 47.94 145.21 L 47.50 145.31 L 47.01 145.37 L 46.52 145.43 L 46.02 145.48 L 45.52 145.54 L 45.03 145.58 L 44.56 145.62 L 44.10 145.68 L 43.65 145.79 L 43.15 145.98 L 42.63 146.22 L 42.12 146.52 L 41.75 146.67 L 41.31 146.91 L 40.81 147.22 L 40.35 147.51 L 39.95 147.78 L 39.56 148.06 L 39.09 148.41 L 38.63 148.76 L 38.21 149.12 L 37.84 149.40 L 37.41 149.70 L 36.93 150.04 L 36.52 150.29 L 36.12 150.58 L 35.69 150.90 L 35.22 151.23 L 34.77 151.57 L 34.34 151.92 L 33.92 152.24 L 33.48 152.58 L 33.04 152.93 L 32.61 153.24 L 32.19 153.59 L 31.79 153.96 L 31.39 154.29 L 30.98 154.68 L 30.57 155.06 L 30.20 155.42 L 29.83 155.81 L 29.43 156.20 L 29.01 156.59 L 28.62 156.98 L 28.22 157.36 L 27.81 157.73 L 27.37 158.09 L 26.93 158.42 L 26.49 158.71 L 26.03 159.00 L 25.58 159.25 L 25.13 159.48 L 24.64 159.74 L 24.13 159.99 L 23.67 160.21 L 23.27 160.42 L 22.88 160.69 L 22.49 161.04 L 22.14 161.48 L 21.88 161.96 L 21.71 162.49 L 21.65 163.00 L 21.75 163.39 L 21.93 163.71 L 22.04 164.09 L 22.08 164.53 L 22.07 164.98 L 21.89 165.55 L 21.69 166.07 L 21.47 166.57 L 21.23 167.09 L 21.03 167.62 L 20.88 168.16 L 20.79 168.67 L 20.79 169.14 L 20.90 169.54 L 20.98 170.02 L 21.07 170.51 L 21.15 171.00 L 21.22 171.47 L 21.26 171.97 L 21.26 172.53 L 21.27 173.09 L 21.31 173.60 L 21.39 174.08 L 21.53 174.51 L 21.67 174.99 L 21.81 175.50 L 22.15 175.75 L 22.45 176.08 L 22.73 176.45 L 23.10 176.72 L 23.46 176.99 L 23.84 177.25 L 24.19 177.44 L 24.47 177.61" fill="none" stroke="#000000" stroke-width="0.5" stroke-linejoin="round" stroke-linecap="round"/>
</svg>