<?xml version="1.0" encoding="UTF-8"?>
<svg xmlns="http://www.w3.org/2000/svg" viewBox="17.46 140.00 36.54 42.40">
<path d="M 49.00 145.00 L 48.63 145.36 L 48.29 145.76 L 47.92 146.14 L 47.50 146.48 L 47.08 146.76 L 46.65 146.98 L 46.25 147.13 L 45.86 147.29 L 45.53 147.50 L 45.20 147.89 L 44.99 148.27 L 44.83 148.61 L 44.81 148.82 L 44.71 149.11 L 44.45 149.50 L 44.05 149.85 L 43.59 150.08 L 43.12 150.18 L 42.79 150.04 L 42.31 150.08 L 41.81 150.16 L 41.32 150.25 L 40.82 150.43 L 40.31 150.65 L 39.80 150.89 L 39.31 151.11 L 38.82 151.31 L 38.34 151.49 L 37.87 151.59 L 37.36 151.72 L 36.82 151.87 L 36.31 151.95 L 35.80 152.02 L 35.27 152.07 L 34.72 152.12 L 34.23 152.09 L 33.81 151.96 L 33.29 151.96 L 32.75 152.01 L 32.22 152.07 L 31.72 152.15 L 31.23 152.24 L 30.71 152.41 L 30.20 152.59 L 29.71 152.77 L 29.25 153.01 L 28.82 153.25 L 28.40 153.51 L 27.96 153.84 L 27.55 154.19 L 27.18 154.55 L 26.81 154.92 L 26.44 155.29 L 26.08 155.67 L 25.74 156.07 L 25.42 156.48 L 25.10 156.89 L 24.79 157.31 L 24.51 157.76 L 24.25 158.22 L 24.02 158.69 L 23.79 159.17 L 23.60 159.64 L 23.46 160.11 L 23.30 160.63 L 23.17 161.13 L 23.05 161.62 L 22.91 162.11 L 22.80 162.64 L 22.69 163.19 L 22.60 163.72 L 22.56 164.19 L 22.53 164.67 L 22.49 165.21 L 22.47 165.77 L 22.46 166.31 L 22.49 166.81 L 22.53 167.32 L 22.58 167.83 L 22.64 168.36 L 22.70 168.88 L 22.76 169.40 L 22.83 169.93 L 22.91 170.46 L 22.99 171.00 L 23.11 171.49 L 23.26 171.96 L 23.35 172.50 L 23.50 172.98 L 23.64 173.48 L 23.75 174.03 L 23.90 174.52 L 24.06 174.99 L 24.22 175.47 L 24.35 176.00 L 24.48 176.55 L 24.60 177.00 L 24.67 177.40" fill="none" stroke="#000000" stroke-width="0.5" stroke-linejoin="round" stroke-linecap="round"/>
</svg>