<?xml version="1.0" encoding="UTF-8"?>
<svg xmlns="http://www.w3.org/2000/svg" viewBox="18.33 140.00 35.67 42.82">
<path d="M 49.00 145.00 L 48.40 145.20 L 47.97 145.44 L 47.54 145.64 L 47.05 145.87 L 46.57 146.08 L 46.11 146.36 L 45.68 146.69 L 45.24 147.00 L 44.81 147.33 L 44.40 147.65 L 44.05 147.87 L 43.64 148.20 L 43.20 148.52 L 42.75 148.83 L 42.33 149.18 L 41.92 149.54 L 41.54 149.95 L 41.18 150.34 L 40.83 150.72 L 40.49 151.12 L 40.15 151.53 L 39.85 151.97 L 39.53 152.41 L 39.18 152.82 L 38.85 153.23 L 38.52 153.64 L 38.17 154.05 L 37.80 154.46 L 37.43 154.85 L 37.07 155.24 L 36.71 155.66 L 36.36 156.08 L 36.01 156.51 L 35.68 156.95 L 35.35 157.39 L 35.03 157.83 L 34.70 158.27 L 34.37 158.71 L 34.04 159.15 L 33.71 159.59 L 33.38 160.03 L 33.06 160.47 L 32.73 160.91 L 32.40 161.35 L 32.07 161.79 L 31.73 162.22 L 31.37 162.63 L 31.01 163.05 L 30.66 163.46 L 30.32 163.86 L 29.98 164.30 L 29.65 164.74 L 29.34 165.19 L 29.07 165.64 L 28.81 166.11 L 28.57 166.61 L 28.33 167.10 L 28.08 167.57 L 27.81 168.01 L 27.52 168.48 L 27.24 168.94 L 26.95 169.39 L 26.64 169.81 L 26.32 170.23 L 26.00 170.68 L 25.70 171.13 L 25.39 171.59 L 25.06 172.03 L 24.73 172.47 L 24.42 172.92 L 24.13 173.38 L 23.85 173.86 L 23.64 174.36 L 23.47 174.88 L 23.34 175.44 L 23.33 175.93 L 23.38 176.45 L 23.43 176.98 L 23.49 177.50 L 23.62 177.82 L 23.93 177.78 L 24.37 177.45 L 24.77 177.09 L 25.12 176.68 L 25.44 176.24 L 25.75 175.78 L 26.11 175.37 L 26.55 175.01 L 27.00 174.69 L 27.40 174.51 L 27.45 174.75 L 27.33 175.19 L 27.15 175.65 L 26.88 176.09 L 26.55 176.49 L 26.18 176.87 L 25.79 177.22 L 25.40 177.61" fill="none" stroke="#000000" stroke-width="0.5" stroke-linejoin="round" stroke-linecap="round"/>
</svg>