<?xml version="1.0" encoding="UTF-8"?>
<svg xmlns="http://www.w3.org/2000/svg" viewBox="15.35 140.00 53.79 42.30">
<path d="M 49.00 145.00 L 50.24 145.41 L 50.99 145.42 L 51.98 145.32 L 53.03 145.34 L 53.96 145.52 L 55.04 145.51 L 56.07 145.58 L 56.84 146.04 L 57.60 146.50 L 58.38 146.96 L 59.19 147.39 L 60.00 147.83 L 60.78 148.30 L 61.46 148.91 L 62.06 149.62 L 62.74 150.07 L 63.35 150.29 L 63.99 150.26 L 64.13 150.68 L 63.45 151.84 L 62.39 153.10 L 61.74 153.35 L 61.91 152.20 L 61.62 151.55 L 60.98 151.15 L 60.29 150.62 L 59.69 149.90 L 59.00 149.31 L 58.32 148.71 L 57.73 148.01 L 56.89 147.63 L 55.94 147.43 L 55.00 147.24 L 54.06 147.05 L 52.96 147.09 L 51.90 147.09 L 50.97 146.90 L 49.98 146.80 L 48.89 146.83 L 47.88 146.76 L 46.95 146.58 L 45.92 146.55 L 44.80 146.61 L 43.85 146.43 L 42.91 146.24 L 41.97 146.05 L 41.02 145.85 L 40.07 145.66 L 39.11 145.46 L 38.19 145.28 L 37.36 145.18 L 36.70 145.19 L 36.07 145.56 L 35.06 146.87 L 34.52 147.92 L 34.34 148.84 L 34.31 149.87 L 34.21 151.08 L 34.05 152.34 L 33.78 153.70 L 33.34 155.24 L 32.85 156.75 L 32.50 158.05 L 32.09 159.48 L 31.68 161.03 L 31.48 162.43 L 31.91 163.04 L 32.77 163.16 L 33.56 163.49 L 34.34 163.89 L 34.99 164.26 L 35.43 164.64 L 35.36 165.38 L 34.53 166.80 L 33.55 168.01 L 32.51 168.87 L 32.78 167.52 L 32.59 166.63 L 32.10 166.00 L 31.24 165.82 L 30.30 165.78 L 29.32 165.94 L 28.21 166.35 L 26.96 167.01 L 25.52 167.95 L 24.30 168.68 L 23.32 169.29 L 22.69 169.71 L 21.78 170.72 L 20.99 171.91 L 20.44 173.16 L 20.35 174.19 L 20.60 175.06 L 21.13 175.72 L 22.07 175.91 L 22.92 176.26 L 23.41 176.89 L 23.91 177.30" fill="none" stroke="#000000" stroke-width="0.5" stroke-linejoin="round" stroke-linecap="round"/>
</svg>