<?xml version="1.0" encoding="UTF-8"?>
<svg xmlns="http://www.w3.org/2000/svg" viewBox="14.02 140.00 39.98 42.23">
<path d="M 49.00 145.00 L 48.36 145.67 L 47.80 146.37 L 47.22 147.06 L 46.63 147.76 L 46.05 148.47 L 45.48 149.18 L 44.92 149.91 L 44.35 150.63 L 43.79 151.36 L 43.26 152.11 L 42.75 152.87 L 42.23 153.63 L 41.71 154.34 L 41.18 155.01 L 40.63 155.67 L 40.07 156.29 L 39.48 156.88 L 38.86 157.47 L 38.25 158.08 L 37.64 158.71 L 37.03 159.40 L 36.45 160.11 L 35.86 160.82 L 35.27 161.52 L 34.68 162.21 L 34.10 162.80 L 33.46 163.41 L 32.75 164.02 L 32.14 164.43 L 31.51 164.83 L 30.84 165.20 L 30.12 165.53 L 29.43 165.77 L 29.15 165.42 L 28.79 165.15 L 28.38 164.93 L 28.09 164.60 L 27.96 164.10 L 28.03 163.34 L 28.22 162.43 L 28.16 161.89 L 27.62 162.02 L 27.52 161.51 L 27.54 160.85 L 27.61 160.18 L 27.59 159.72 L 26.97 160.10 L 26.20 160.67 L 25.42 161.24 L 25.27 160.93 L 25.22 160.40 L 25.13 159.82 L 24.87 159.42 L 24.66 159.12 L 24.54 158.89 L 24.08 159.31 L 23.61 159.90 L 23.16 160.45 L 22.78 160.92 L 22.30 161.47 L 22.02 161.57 L 21.67 161.61 L 21.22 161.64 L 20.65 161.80 L 20.05 162.20 L 19.53 162.74 L 19.02 163.51 L 19.07 163.73 L 19.34 163.85 L 19.80 163.88 L 20.18 164.11 L 20.45 164.50 L 20.44 165.25 L 20.42 165.99 L 20.38 166.71 L 20.34 167.43 L 20.31 168.16 L 20.29 168.90 L 20.39 169.51 L 20.54 170.06 L 20.85 170.43 L 21.06 170.96 L 21.28 171.49 L 21.54 171.97 L 21.84 172.39 L 22.17 172.78 L 22.50 173.17 L 22.97 173.37 L 23.52 173.47 L 24.06 173.56 L 24.59 173.66 L 25.10 173.73 L 25.57 173.77 L 25.81 174.08 L 25.65 174.92 L 25.43 175.80 L 25.20 176.57 L 24.97 177.23" fill="none" stroke="#000000" stroke-width="0.5" stroke-linejoin="round" stroke-linecap="round"/>
</svg>