<?xml version="1.0" encoding="UTF-8"?>
<svg xmlns="http://www.w3.org/2000/svg" viewBox="20.31 140.00 34.46 42.99">
<path d="M 49.00 145.00 L 49.19 145.16 L 49.30 145.21 L 49.53 145.14 L 49.70 145.19 L 49.76 145.37 L 49.68 145.68 L 49.46 146.09 L 49.13 146.56 L 48.88 146.86 L 48.62 147.08 L 48.41 147.16 L 48.16 147.22 L 47.92 147.27 L 47.67 147.33 L 47.43 147.38 L 47.19 147.44 L 46.90 147.56 L 46.52 147.83 L 46.14 148.09 L 45.78 148.34 L 45.44 148.56 L 44.99 148.94 L 44.55 149.32 L 44.18 149.60 L 43.74 150.01 L 43.28 150.43 L 42.82 150.86 L 42.32 151.35 L 41.85 151.82 L 41.40 152.26 L 40.97 152.70 L 40.49 153.20 L 39.96 153.79 L 39.43 154.39 L 38.91 154.98 L 38.40 155.59 L 37.92 156.15 L 37.42 156.75 L 36.88 157.39 L 36.37 157.99 L 35.86 158.59 L 35.34 159.19 L 34.81 159.79 L 34.34 160.31 L 33.93 160.78 L 33.45 161.38 L 32.96 162.02 L 32.55 162.62 L 32.24 163.11 L 31.86 163.73 L 31.49 164.39 L 31.14 165.02 L 30.78 165.66 L 30.42 166.30 L 30.05 166.96 L 29.69 167.61 L 29.34 168.25 L 29.01 168.89 L 28.75 169.45 L 28.66 169.79 L 29.04 169.52 L 29.18 169.58 L 29.31 169.67 L 29.56 169.62 L 29.75 169.65 L 29.84 169.81 L 29.93 169.98 L 29.93 170.26 L 29.91 170.58 L 30.04 170.69 L 30.15 170.82 L 30.23 170.98 L 30.45 170.92 L 30.56 171.01 L 30.26 171.68 L 29.97 172.29 L 30.01 172.43 L 30.05 172.58 L 29.66 173.32 L 29.45 173.84 L 29.51 173.99 L 29.42 174.29 L 29.30 174.57 L 29.15 174.84 L 28.82 175.31 L 28.55 175.70 L 28.42 175.84 L 28.07 176.23 L 27.67 176.66 L 27.19 177.21 L 26.88 177.50 L 26.70 177.60 L 26.48 177.67 L 26.24 177.73 L 25.99 177.79 L 25.74 177.84 L 25.51 177.91 L 25.31 177.99" fill="none" stroke="#000000" stroke-width="0.5" stroke-linejoin="round" stroke-linecap="round"/>
</svg>