<?xml version="1.0" encoding="UTF-8"?>
<svg xmlns="http://www.w3.org/2000/svg" viewBox="19.77 140.00 34.23 42.50">
<path d="M 49.00 145.00 L 48.63 145.27 L 48.32 145.57 L 47.99 145.83 L 47.63 146.09 L 47.25 146.34 L 46.91 146.56 L 46.58 146.79 L 46.25 147.03 L 45.90 147.32 L 45.57 147.62 L 45.24 147.93 L 44.91 148.23 L 44.57 148.53 L 44.24 148.76 L 43.87 148.98 L 43.47 149.19 L 43.09 149.38 L 42.76 149.52 L 42.41 149.73 L 42.05 150.00 L 41.70 150.29 L 41.38 150.60 L 41.09 150.93 L 40.80 151.26 L 40.51 151.59 L 40.22 151.93 L 39.93 152.26 L 39.63 152.59 L 39.31 152.90 L 38.99 153.21 L 38.67 153.50 L 38.36 153.74 L 38.00 154.01 L 37.62 154.26 L 37.26 154.49 L 36.92 154.74 L 36.60 154.97 L 36.26 155.25 L 35.95 155.57 L 35.67 155.92 L 35.45 156.29 L 35.24 156.66 L 35.04 157.02 L 34.83 157.38 L 34.62 157.76 L 34.38 158.13 L 34.11 158.48 L 33.83 158.82 L 33.54 159.15 L 33.25 159.49 L 32.96 159.82 L 32.67 160.15 L 32.38 160.49 L 32.09 160.82 L 31.80 161.16 L 31.55 161.52 L 31.29 161.88 L 31.04 162.23 L 30.81 162.56 L 30.55 162.92 L 30.30 163.28 L 30.04 163.64 L 29.79 164.00 L 29.56 164.37 L 29.35 164.74 L 29.15 165.11 L 28.94 165.47 L 28.73 165.84 L 28.50 166.21 L 28.24 166.57 L 27.96 166.91 L 27.67 167.25 L 27.38 167.58 L 27.09 167.91 L 26.80 168.25 L 26.51 168.58 L 26.25 168.93 L 25.99 169.29 L 25.74 169.65 L 25.52 169.99 L 25.31 170.37 L 25.11 170.77 L 24.96 171.19 L 24.84 171.61 L 24.77 172.06 L 24.79 172.46 L 24.88 172.81 L 24.99 173.17 L 25.07 173.60 L 25.12 174.05 L 25.14 174.49 L 25.15 174.91 L 25.11 175.37 L 25.07 175.82 L 25.04 176.25 L 24.99 176.72 L 24.95 177.12 L 24.89 177.50" fill="none" stroke="#000000" stroke-width="0.5" stroke-linejoin="round" stroke-linecap="round"/>
</svg>