<?xml version="1.0" encoding="UTF-8"?>
<svg xmlns="http://www.w3.org/2000/svg" viewBox="20.58 140.00 36.50 42.84">
<path d="M 49.00 145.00 L 49.69 145.20 L 50.11 145.19 L 50.61 145.17 L 50.85 145.63 L 51.19 145.95 L 51.68 146.06 L 51.87 146.51 L 52.00 146.94 L 52.08 147.32 L 51.94 147.86 L 51.73 148.37 L 51.46 148.83 L 51.17 149.27 L 50.89 149.72 L 50.63 150.19 L 50.43 150.59 L 50.22 151.03 L 50.03 151.48 L 49.81 151.98 L 49.56 152.47 L 49.29 152.93 L 49.00 153.39 L 48.73 153.85 L 48.48 154.33 L 48.22 154.79 L 47.96 155.24 L 47.71 155.70 L 47.45 156.16 L 47.16 156.61 L 46.88 157.05 L 46.62 157.51 L 46.43 158.02 L 46.31 158.57 L 46.36 158.96 L 46.56 159.23 L 46.81 159.45 L 46.92 159.89 L 46.98 160.43 L 46.94 161.07 L 46.97 161.61 L 47.04 162.11 L 47.18 162.54 L 47.37 163.00 L 47.56 163.46 L 47.75 163.92 L 47.85 164.43 L 47.85 164.96 L 47.82 165.43 L 47.69 165.94 L 47.50 166.46 L 47.27 166.97 L 47.02 167.43 L 46.78 167.90 L 46.50 168.36 L 46.19 168.79 L 45.85 169.19 L 45.49 169.52 L 45.12 169.84 L 44.72 170.13 L 44.28 170.39 L 43.80 170.70 L 43.35 171.00 L 42.93 171.27 L 42.46 171.58 L 41.96 171.86 L 41.47 172.08 L 40.99 172.24 L 40.53 172.36 L 40.05 172.46 L 39.56 172.58 L 39.01 172.76 L 38.47 172.95 L 37.95 173.14 L 37.50 173.27 L 37.02 173.42 L 36.50 173.63 L 35.98 173.83 L 35.46 174.04 L 34.94 174.24 L 34.47 174.39 L 34.02 174.52 L 33.49 174.71 L 32.95 174.90 L 32.42 175.10 L 31.95 175.22 L 31.46 175.35 L 30.92 175.54 L 30.42 175.67 L 29.95 175.78 L 29.44 175.99 L 28.92 176.20 L 28.42 176.41 L 27.93 176.64 L 27.44 176.87 L 26.95 177.09 L 26.47 177.32 L 26.01 177.57 L 25.58 177.84" fill="none" stroke="#000000" stroke-width="0.5" stroke-linejoin="round" stroke-linecap="round"/>
</svg>