<?xml version="1.0" encoding="UTF-8"?>
<svg xmlns="http://www.w3.org/2000/svg" viewBox="20.66 140.00 37.91 42.85">
<path d="M 49.00 145.00 L 48.70 145.90 L 48.32 146.74 L 47.98 147.63 L 47.67 148.52 L 47.55 149.16 L 48.10 148.86 L 48.87 148.29 L 49.67 147.75 L 50.50 147.22 L 51.35 146.75 L 52.15 146.44 L 52.90 146.22 L 53.57 146.07 L 53.54 146.83 L 53.34 147.71 L 52.99 148.61 L 52.56 149.44 L 52.04 150.20 L 51.45 150.93 L 50.85 151.63 L 50.22 152.30 L 49.57 152.95 L 48.90 153.59 L 48.21 154.21 L 47.52 154.84 L 46.83 155.46 L 46.17 156.10 L 45.55 156.79 L 45.07 157.56 L 44.70 158.45 L 44.65 159.17 L 45.15 159.41 L 45.77 159.73 L 46.32 160.33 L 46.91 161.00 L 47.50 161.67 L 47.83 162.57 L 48.11 163.39 L 48.56 163.95 L 48.72 164.93 L 48.80 166.06 L 49.53 166.30 L 50.04 166.56 L 50.24 166.94 L 50.17 167.42 L 49.85 167.80 L 49.63 167.75 L 49.53 167.49 L 49.21 167.55 L 48.93 167.81 L 48.65 168.32 L 48.61 168.66 L 48.57 169.05 L 48.12 169.84 L 47.98 169.89 L 48.19 169.33 L 48.16 168.99 L 47.92 169.03 L 47.33 169.72 L 46.88 170.41 L 46.51 171.10 L 46.14 171.79 L 45.67 172.43 L 45.34 172.66 L 45.57 171.87 L 45.67 170.98 L 45.68 170.02 L 45.82 169.16 L 45.75 168.89 L 45.40 169.27 L 45.26 169.46 L 45.05 169.80 L 44.62 170.46 L 44.15 171.20 L 43.52 171.81 L 42.78 172.17 L 41.97 172.33 L 41.13 172.35 L 40.26 172.34 L 39.38 172.33 L 38.53 172.34 L 37.56 172.48 L 36.55 172.65 L 35.49 172.87 L 34.90 172.52 L 34.36 172.12 L 33.59 172.18 L 32.76 172.45 L 31.99 172.86 L 31.22 173.45 L 30.50 174.07 L 29.79 174.70 L 29.08 175.30 L 28.41 175.85 L 27.79 176.36 L 27.11 176.76 L 26.37 177.29 L 25.66 177.85" fill="none" stroke="#000000" stroke-width="0.5" stroke-linejoin="round" stroke-linecap="round"/>
</svg>