<?xml version="1.0" encoding="UTF-8"?>
<svg xmlns="http://www.w3.org/2000/svg" viewBox="21.83 140.00 49.74 40.76">
<path d="M 49.00 145.00 L 47.00 146.56 L 45.55 148.15 L 44.47 149.35 L 43.20 150.94 L 41.92 152.80 L 40.79 154.77 L 39.81 156.85 L 40.43 157.03 L 41.26 156.98 L 42.23 156.81 L 43.33 156.50 L 44.44 156.19 L 45.42 156.04 L 46.39 155.87 L 47.34 155.44 L 48.31 154.65 L 47.40 156.11 L 46.49 157.21 L 45.61 157.92 L 44.81 158.20 L 43.85 158.38 L 42.80 158.63 L 41.68 158.95 L 40.82 159.27 L 40.13 159.64 L 39.60 160.13 L 38.83 161.23 L 37.97 162.76 L 37.12 164.55 L 36.37 166.54 L 35.45 168.74 L 35.09 170.15 L 36.23 169.49 L 37.68 168.36 L 39.31 167.00 L 41.16 165.33 L 42.94 163.72 L 44.69 162.16 L 46.44 160.60 L 48.03 159.33 L 49.62 158.12 L 51.25 156.93 L 51.92 157.12 L 52.55 157.40 L 53.54 157.24 L 54.41 157.28 L 55.27 157.33 L 56.13 157.38 L 56.99 157.44 L 57.85 157.49 L 58.86 157.35 L 59.57 157.61 L 60.14 158.07 L 61.00 158.12 L 61.87 158.18 L 62.72 158.23 L 63.33 158.62 L 64.01 158.85 L 65.17 158.20 L 66.17 157.43 L 66.57 157.12 L 64.82 159.42 L 64.14 159.92 L 63.35 160.22 L 62.45 160.37 L 61.60 160.32 L 60.66 160.38 L 59.70 160.49 L 58.85 160.45 L 57.75 160.75 L 56.48 161.29 L 55.49 161.44 L 54.50 161.59 L 53.55 161.67 L 52.68 161.62 L 52.04 161.27 L 51.54 160.80 L 51.11 160.27 L 50.32 160.30 L 48.52 161.82 L 46.95 163.10 L 45.27 164.61 L 43.32 166.54 L 41.49 168.28 L 39.69 169.96 L 37.94 171.52 L 36.48 172.57 L 35.09 173.46 L 33.95 173.94 L 32.69 174.51 L 31.79 174.56 L 31.31 174.00 L 30.86 173.46 L 30.51 172.99 L 30.68 171.94 L 30.61 171.37 L 28.68 173.53 L 26.83 175.76" fill="none" stroke="#000000" stroke-width="0.5" stroke-linejoin="round" stroke-linecap="round"/>
</svg>