<?xml version="1.0" encoding="UTF-8"?>
<svg xmlns="http://www.w3.org/2000/svg" viewBox="15.95 140.00 38.05 42.40">
<path d="M 49.00 145.00 L 48.41 145.30 L 47.96 145.57 L 47.48 145.77 L 47.00 145.86 L 46.52 145.89 L 46.06 145.84 L 45.54 145.84 L 44.99 145.87 L 44.50 145.80 L 44.03 145.74 L 43.55 145.68 L 43.05 145.66 L 42.51 145.70 L 41.97 145.74 L 41.43 145.79 L 40.90 145.84 L 40.41 145.82 L 39.94 145.78 L 39.42 145.80 L 38.87 145.84 L 38.33 145.88 L 37.82 145.89 L 37.39 145.80 L 36.87 145.84 L 36.36 145.91 L 35.87 145.99 L 35.37 146.15 L 34.83 146.38 L 34.28 146.66 L 33.77 146.90 L 33.29 147.12 L 32.79 147.35 L 32.27 147.57 L 31.75 147.78 L 31.24 147.98 L 30.74 148.18 L 30.25 148.39 L 29.75 148.62 L 29.24 148.88 L 28.71 149.19 L 28.24 149.45 L 27.82 149.74 L 27.42 150.08 L 27.01 150.51 L 26.62 150.96 L 26.27 151.40 L 25.94 151.84 L 25.61 152.29 L 25.28 152.75 L 24.95 153.23 L 24.61 153.71 L 24.33 154.21 L 24.11 154.73 L 23.92 155.27 L 23.78 155.78 L 23.64 156.27 L 23.46 156.82 L 23.26 157.37 L 23.04 157.94 L 22.81 158.48 L 22.59 159.01 L 22.38 159.55 L 22.20 160.10 L 22.04 160.66 L 21.90 161.23 L 21.80 161.77 L 21.71 162.30 L 21.62 162.82 L 21.52 163.36 L 21.39 163.94 L 21.26 164.52 L 21.13 165.11 L 21.04 165.65 L 20.98 166.19 L 20.95 166.76 L 20.96 167.30 L 21.02 167.81 L 21.11 168.31 L 21.22 168.83 L 21.32 169.37 L 21.53 169.77 L 21.74 170.18 L 21.86 170.73 L 22.10 171.13 L 22.33 171.55 L 22.49 172.07 L 22.73 172.49 L 22.97 172.92 L 23.22 173.35 L 23.48 173.78 L 23.76 174.16 L 24.07 174.49 L 24.34 174.85 L 24.46 175.40 L 24.58 175.93 L 24.70 176.44 L 24.74 176.94 L 24.75 177.40" fill="none" stroke="#000000" stroke-width="0.5" stroke-linejoin="round" stroke-linecap="round"/>
</svg>