<?xml version="1.0" encoding="UTF-8"?>
<svg xmlns="http://www.w3.org/2000/svg" viewBox="18.75 140.00 35.25 42.50">
<path d="M 49.00 145.00 L 48.34 145.04 L 47.88 145.28 L 47.37 145.53 L 46.78 145.75 L 46.18 145.96 L 45.60 146.16 L 45.12 146.21 L 44.66 146.28 L 44.17 146.44 L 43.65 146.70 L 43.12 147.03 L 42.62 147.39 L 42.15 147.76 L 41.69 148.10 L 41.23 148.44 L 40.74 148.75 L 40.22 149.05 L 39.66 149.31 L 39.07 149.55 L 38.52 149.67 L 38.03 149.70 L 37.63 149.66 L 37.44 149.30 L 37.44 148.70 L 37.48 148.01 L 37.47 147.37 L 37.29 146.99 L 36.86 146.90 L 36.49 146.62 L 35.94 146.55 L 35.31 146.59 L 34.73 146.56 L 34.11 146.58 L 33.49 146.59 L 33.02 146.42 L 32.56 146.32 L 32.12 146.31 L 31.64 146.48 L 31.16 146.84 L 30.73 147.25 L 30.35 147.69 L 30.00 148.13 L 29.64 148.57 L 29.25 149.00 L 28.85 149.41 L 28.43 149.78 L 27.99 150.15 L 27.53 150.54 L 27.10 150.95 L 26.74 151.39 L 26.44 151.83 L 26.18 152.28 L 25.96 152.73 L 25.75 153.27 L 25.59 153.84 L 25.42 154.41 L 25.25 154.97 L 25.10 155.54 L 24.96 156.14 L 24.88 156.70 L 24.82 157.27 L 24.78 157.86 L 24.81 158.39 L 24.82 158.95 L 24.81 159.56 L 24.81 160.18 L 24.82 160.79 L 24.87 161.35 L 24.93 161.92 L 25.00 162.48 L 25.07 163.04 L 25.13 163.62 L 25.13 164.24 L 25.13 164.80 L 25.13 165.31 L 25.03 165.92 L 24.93 166.53 L 24.80 167.13 L 24.68 167.68 L 24.55 168.22 L 24.42 168.80 L 24.29 169.39 L 24.17 170.00 L 24.09 170.57 L 24.03 171.14 L 23.92 171.68 L 23.87 172.19 L 23.85 172.70 L 23.75 173.29 L 23.86 173.63 L 23.93 173.99 L 23.84 174.57 L 24.06 174.94 L 24.04 175.63 L 24.12 176.17 L 24.41 176.49 L 24.55 176.90 L 24.53 177.50" fill="none" stroke="#000000" stroke-width="0.5" stroke-linejoin="round" stroke-linecap="round"/>
</svg>