<?xml version="1.0" encoding="UTF-8"?>
<svg xmlns="http://www.w3.org/2000/svg" viewBox="20.42 140.00 53.02 42.07">
<path d="M 49.00 145.00 L 50.05 145.55 L 50.61 145.76 L 51.09 146.30 L 51.67 146.90 L 52.24 147.51 L 52.99 147.87 L 53.75 148.21 L 54.52 148.55 L 55.28 148.89 L 56.03 149.23 L 56.76 149.54 L 57.46 149.81 L 58.32 149.85 L 59.28 149.73 L 60.29 149.50 L 61.11 149.50 L 61.95 149.43 L 62.78 149.37 L 63.60 149.37 L 64.61 149.11 L 65.56 148.93 L 66.41 148.88 L 67.20 148.86 L 67.97 148.83 L 68.44 149.13 L 68.33 150.08 L 68.09 151.01 L 67.68 151.90 L 67.11 152.72 L 66.42 153.42 L 65.67 153.96 L 64.95 154.35 L 64.37 154.53 L 63.69 154.93 L 62.98 155.50 L 62.25 156.20 L 61.57 156.94 L 60.87 157.66 L 60.11 158.35 L 59.32 158.85 L 58.65 158.98 L 58.06 158.77 L 57.36 158.57 L 56.48 158.52 L 55.59 158.46 L 54.68 158.42 L 53.73 158.44 L 53.01 158.12 L 52.29 157.77 L 51.73 157.18 L 51.06 156.72 L 50.29 156.38 L 49.53 156.04 L 48.88 155.54 L 48.31 154.93 L 47.73 154.33 L 47.06 153.86 L 46.30 153.51 L 45.54 153.17 L 44.79 152.84 L 44.05 152.51 L 43.29 152.22 L 42.38 152.15 L 41.48 152.08 L 40.58 152.02 L 39.92 151.75 L 39.22 151.66 L 38.57 151.78 L 37.80 152.35 L 37.16 153.02 L 36.64 153.75 L 36.22 154.54 L 35.87 155.41 L 35.53 156.39 L 35.20 157.39 L 34.88 158.30 L 34.57 159.17 L 34.29 159.98 L 33.94 160.95 L 33.58 161.93 L 33.20 162.87 L 32.84 163.71 L 32.46 164.61 L 32.07 165.55 L 31.65 166.48 L 31.27 167.31 L 30.91 168.17 L 30.50 169.12 L 30.09 169.96 L 29.67 170.66 L 29.19 171.36 L 28.69 172.14 L 28.17 172.93 L 27.60 173.72 L 26.99 174.52 L 26.44 175.35 L 25.93 176.21 L 25.42 177.07" fill="none" stroke="#000000" stroke-width="0.5" stroke-linejoin="round" stroke-linecap="round"/>
</svg>