<?xml version="1.0" encoding="UTF-8"?>
<svg xmlns="http://www.w3.org/2000/svg" viewBox="19.16 140.00 34.84 42.36">
<path d="M 49.00 145.00 L 48.47 145.31 L 48.07 145.71 L 47.65 146.11 L 47.20 146.52 L 46.75 146.93 L 46.33 147.34 L 45.95 147.76 L 45.56 148.17 L 45.15 148.58 L 44.75 148.99 L 44.38 149.42 L 44.02 149.88 L 43.62 150.33 L 43.20 150.76 L 42.81 151.20 L 42.43 151.63 L 42.03 152.06 L 41.60 152.48 L 41.15 152.89 L 40.76 153.30 L 40.37 153.72 L 39.96 154.11 L 39.47 154.47 L 38.95 154.78 L 38.42 155.00 L 38.03 154.94 L 37.64 154.70 L 37.22 154.38 L 36.88 153.90 L 36.57 153.37 L 36.30 152.83 L 36.01 152.33 L 35.71 151.85 L 35.54 151.19 L 35.09 150.92 L 34.58 150.76 L 34.11 150.64 L 33.55 150.72 L 33.04 150.86 L 32.51 151.17 L 32.05 151.55 L 31.66 152.00 L 31.37 152.53 L 31.16 153.09 L 31.05 153.64 L 31.03 154.16 L 31.07 154.72 L 31.13 155.30 L 31.21 155.89 L 31.29 156.48 L 31.31 157.02 L 31.21 157.48 L 30.98 157.86 L 30.61 158.20 L 30.43 158.05 L 30.13 157.82 L 29.68 157.58 L 29.16 157.43 L 28.64 157.37 L 28.20 157.37 L 27.64 157.66 L 27.18 158.04 L 26.82 158.51 L 26.57 159.07 L 26.47 159.56 L 26.46 160.09 L 26.52 160.66 L 26.65 161.28 L 26.93 161.73 L 27.15 162.14 L 27.34 162.49 L 27.49 162.79 L 27.32 163.40 L 27.08 163.97 L 26.79 164.49 L 26.47 165.00 L 26.17 165.52 L 25.91 166.04 L 25.67 166.57 L 25.45 167.11 L 25.25 167.67 L 25.08 168.25 L 24.92 168.84 L 24.77 169.43 L 24.66 169.95 L 24.57 170.48 L 24.46 171.10 L 24.35 171.73 L 24.28 172.29 L 24.25 172.80 L 24.20 173.40 L 24.16 174.05 L 24.20 174.61 L 24.25 175.18 L 24.32 175.76 L 24.43 176.37 L 24.49 176.94 L 24.59 177.36" fill="none" stroke="#000000" stroke-width="0.5" stroke-linejoin="round" stroke-linecap="round"/>
</svg>