<?xml version="1.0" encoding="UTF-8"?>
<svg xmlns="http://www.w3.org/2000/svg" viewBox="20.48 140.00 33.52 42.61">
<path d="M 49.00 145.00 L 48.61 145.18 L 48.42 145.27 L 48.46 145.01 L 48.00 145.39 L 47.67 145.58 L 47.39 145.71 L 47.18 145.72 L 46.86 145.87 L 46.77 145.74 L 46.52 145.91 L 46.30 146.14 L 46.12 146.38 L 45.99 146.62 L 46.11 146.54 L 46.11 146.61 L 45.88 146.99 L 45.56 147.50 L 45.32 147.86 L 45.11 148.11 L 45.08 148.14 L 44.94 148.36 L 44.68 148.77 L 44.44 149.16 L 44.04 149.70 L 43.60 150.31 L 43.56 150.42 L 43.41 150.69 L 43.09 151.21 L 42.86 151.62 L 43.00 151.57 L 42.83 151.97 L 42.74 152.21 L 42.43 152.68 L 42.04 153.27 L 42.17 153.12 L 42.04 153.35 L 41.65 153.93 L 41.32 154.45 L 40.97 155.01 L 40.62 155.55 L 40.26 156.10 L 40.59 155.72 L 40.49 155.93 L 40.17 156.45 L 39.82 157.00 L 39.54 157.50 L 39.27 158.03 L 38.89 158.66 L 38.61 159.19 L 38.28 159.79 L 38.06 160.23 L 38.17 160.14 L 38.11 160.24 L 37.80 160.64 L 37.69 160.73 L 37.51 160.88 L 37.24 161.15 L 36.93 161.51 L 36.63 161.95 L 36.84 161.76 L 36.90 161.86 L 36.95 161.96 L 37.01 162.06 L 37.03 162.22 L 36.88 162.57 L 36.83 162.74 L 36.85 162.81 L 36.49 163.42 L 36.25 163.92 L 36.44 163.82 L 36.23 164.24 L 35.92 164.82 L 35.58 165.46 L 35.22 166.10 L 34.85 166.73 L 35.01 166.63 L 34.82 166.98 L 34.42 167.61 L 34.01 168.23 L 33.58 168.85 L 33.13 169.45 L 32.67 170.05 L 32.20 170.64 L 31.73 171.20 L 31.27 171.75 L 30.86 172.20 L 30.41 172.67 L 29.91 173.20 L 29.46 173.66 L 29.03 174.10 L 28.60 174.52 L 28.14 174.99 L 27.65 175.48 L 27.21 175.90 L 26.77 176.33 L 26.33 176.75 L 25.90 177.17 L 25.48 177.61" fill="none" stroke="#000000" stroke-width="0.5" stroke-linejoin="round" stroke-linecap="round"/>
</svg>