<?xml version="1.0" encoding="UTF-8"?>
<svg xmlns="http://www.w3.org/2000/svg" viewBox="20.39 140.00 33.61 42.45">
<path d="M 49.00 145.00 L 48.92 145.01 L 48.85 145.05 L 48.74 145.15 L 48.62 145.24 L 48.49 145.34 L 48.43 145.35 L 48.50 145.19 L 48.45 145.19 L 48.35 145.26 L 48.28 145.28 L 48.19 145.33 L 48.07 145.43 L 47.95 145.53 L 47.83 145.63 L 47.73 145.74 L 47.54 145.98 L 47.19 146.45 L 46.81 146.98 L 46.45 147.51 L 46.12 148.00 L 45.86 148.39 L 45.56 148.83 L 45.24 149.32 L 44.90 149.82 L 44.53 150.38 L 44.26 150.79 L 44.11 151.05 L 43.94 151.33 L 43.61 151.83 L 43.36 152.24 L 43.26 152.43 L 43.32 152.41 L 43.42 152.34 L 43.48 152.34 L 43.41 152.50 L 43.46 152.49 L 43.63 152.33 L 43.87 152.07 L 44.10 151.80 L 44.34 151.54 L 44.61 151.23 L 44.94 150.83 L 45.18 150.56 L 45.41 150.30 L 45.65 150.03 L 45.87 149.76 L 45.57 150.21 L 45.18 150.76 L 44.79 151.30 L 44.39 151.83 L 44.04 152.29 L 43.67 152.77 L 43.27 153.30 L 42.91 153.77 L 42.56 154.21 L 42.16 154.75 L 41.76 155.28 L 41.35 155.81 L 40.95 156.35 L 40.55 156.88 L 40.15 157.41 L 39.75 157.95 L 39.35 158.48 L 38.94 159.02 L 38.54 159.55 L 38.14 160.09 L 37.74 160.62 L 37.34 161.16 L 36.94 161.69 L 36.54 162.23 L 36.14 162.76 L 35.74 163.30 L 35.34 163.84 L 34.95 164.38 L 34.55 164.92 L 34.15 165.46 L 33.74 166.01 L 33.34 166.56 L 32.95 167.10 L 32.55 167.64 L 32.15 168.18 L 31.76 168.72 L 31.35 169.27 L 30.95 169.82 L 30.55 170.36 L 30.16 170.90 L 29.76 171.44 L 29.36 171.98 L 28.97 172.52 L 28.57 173.07 L 28.18 173.61 L 27.79 174.15 L 27.39 174.69 L 26.98 175.25 L 26.58 175.80 L 26.19 176.34 L 25.79 176.90 L 25.39 177.45" fill="none" stroke="#000000" stroke-width="0.5" stroke-linejoin="round" stroke-linecap="round"/>
</svg>