<?xml version="1.0" encoding="UTF-8"?>
<svg xmlns="http://www.w3.org/2000/svg" viewBox="20.04 140.00 50.67 41.46">
<path d="M 49.00 145.00 L 47.62 146.11 L 46.46 147.27 L 45.28 148.34 L 44.11 149.42 L 43.06 150.59 L 42.16 151.82 L 41.64 152.82 L 41.58 153.47 L 41.65 154.23 L 41.85 155.08 L 42.13 155.98 L 42.41 156.89 L 42.55 157.97 L 42.63 159.14 L 42.88 160.08 L 43.16 160.98 L 43.44 161.89 L 43.73 162.80 L 44.02 163.72 L 44.31 164.63 L 44.60 165.55 L 44.89 166.46 L 45.18 167.38 L 45.52 168.20 L 46.14 168.61 L 47.21 168.39 L 48.37 168.05 L 49.58 167.64 L 50.63 167.42 L 51.54 167.37 L 52.48 167.30 L 53.54 167.07 L 54.74 166.62 L 55.84 166.28 L 56.86 166.00 L 58.05 165.50 L 59.32 164.89 L 60.50 164.35 L 61.26 164.32 L 62.44 163.72 L 63.65 162.94 L 64.85 161.94 L 65.71 161.10 L 65.60 161.35 L 64.60 162.55 L 63.49 163.63 L 62.26 164.55 L 61.06 165.26 L 60.00 165.71 L 59.01 166.01 L 57.82 166.51 L 56.63 167.01 L 55.51 167.38 L 54.48 167.62 L 53.26 168.09 L 52.28 168.22 L 51.35 168.28 L 50.28 168.50 L 49.22 168.73 L 48.24 168.87 L 47.36 168.86 L 46.02 169.46 L 45.05 169.55 L 44.53 169.00 L 44.25 168.11 L 43.92 167.25 L 43.42 166.60 L 42.99 165.87 L 42.70 164.95 L 42.42 164.04 L 42.14 163.14 L 42.01 162.03 L 41.92 160.87 L 41.66 159.95 L 41.38 159.04 L 41.10 158.13 L 40.81 157.22 L 40.52 156.31 L 40.26 155.41 L 40.04 154.55 L 39.86 153.80 L 38.76 154.57 L 37.63 155.61 L 36.43 156.95 L 35.34 158.31 L 34.31 159.71 L 33.31 161.15 L 32.30 162.62 L 31.28 164.09 L 30.22 165.53 L 29.18 166.98 L 28.20 168.48 L 27.29 170.04 L 26.51 171.61 L 25.96 172.97 L 25.59 174.24 L 25.38 175.28 L 25.04 176.46" fill="none" stroke="#000000" stroke-width="0.5" stroke-linejoin="round" stroke-linecap="round"/>
</svg>