<?xml version="1.0" encoding="UTF-8"?>
<svg xmlns="http://www.w3.org/2000/svg" viewBox="18.96 140.00 35.04 42.37">
<path d="M 49.00 145.00 L 48.43 145.20 L 47.94 145.58 L 47.41 145.94 L 46.87 146.23 L 46.34 146.52 L 45.79 146.79 L 45.22 147.00 L 44.61 147.20 L 43.97 147.41 L 43.40 147.43 L 42.81 147.44 L 42.20 147.40 L 41.60 147.27 L 41.04 147.09 L 40.54 146.84 L 40.09 146.69 L 39.66 146.74 L 39.30 146.98 L 38.96 147.49 L 39.05 147.70 L 39.35 147.89 L 39.70 148.28 L 40.10 148.71 L 40.52 149.16 L 40.95 149.61 L 41.45 149.95 L 42.03 150.19 L 42.57 150.48 L 43.01 150.89 L 43.46 151.29 L 43.98 151.56 L 44.33 152.04 L 44.60 152.61 L 44.82 153.24 L 45.00 153.74 L 45.08 154.17 L 45.03 154.51 L 44.77 154.92 L 44.38 155.26 L 43.96 155.39 L 43.38 155.49 L 42.74 155.58 L 42.14 155.57 L 41.54 155.57 L 40.94 155.57 L 40.34 155.57 L 39.70 155.62 L 39.04 155.69 L 38.44 155.70 L 37.86 155.71 L 37.29 155.73 L 36.67 155.84 L 36.06 155.96 L 35.43 156.12 L 34.80 156.33 L 34.24 156.46 L 33.73 156.55 L 33.12 156.78 L 32.53 156.99 L 31.96 157.21 L 31.41 157.49 L 30.88 157.77 L 30.34 158.06 L 29.79 158.42 L 29.32 158.77 L 28.88 159.14 L 28.44 159.56 L 28.00 160.00 L 27.60 160.47 L 27.25 160.97 L 26.91 161.48 L 26.59 162.00 L 26.27 162.53 L 25.99 163.09 L 25.74 163.67 L 25.51 164.24 L 25.31 164.81 L 25.13 165.38 L 24.95 165.98 L 24.78 166.58 L 24.63 167.17 L 24.47 167.79 L 24.33 168.40 L 24.20 169.01 L 24.12 169.58 L 24.04 170.19 L 23.97 170.85 L 23.96 171.49 L 23.99 172.08 L 24.07 172.61 L 24.15 173.21 L 24.24 173.85 L 24.29 174.52 L 24.45 175.00 L 24.56 175.56 L 24.61 176.23 L 24.62 176.87 L 24.64 177.37" fill="none" stroke="#000000" stroke-width="0.5" stroke-linejoin="round" stroke-linecap="round"/>
</svg>