<?xml version="1.0" encoding="UTF-8"?>
<svg xmlns="http://www.w3.org/2000/svg" viewBox="16.04 140.00 37.96 42.35">
<path d="M 49.00 145.00 L 48.72 145.58 L 48.40 146.11 L 48.09 146.62 L 47.71 147.13 L 47.29 147.60 L 46.81 148.04 L 46.42 148.30 L 46.07 148.57 L 45.70 149.01 L 45.36 149.52 L 45.40 149.63 L 45.69 149.53 L 46.09 149.34 L 45.93 149.95 L 45.69 150.54 L 45.37 151.08 L 44.99 151.59 L 44.59 152.06 L 44.19 152.53 L 43.78 153.01 L 43.36 153.49 L 42.93 153.95 L 42.52 154.44 L 42.12 154.91 L 41.71 155.37 L 41.30 155.86 L 40.90 156.34 L 40.50 156.83 L 40.13 157.34 L 39.77 157.86 L 39.43 158.40 L 39.10 158.94 L 38.80 159.47 L 38.52 160.02 L 38.23 160.58 L 37.96 161.15 L 37.70 161.70 L 37.43 162.28 L 37.19 162.87 L 36.97 163.45 L 36.75 164.03 L 36.56 164.63 L 36.38 165.23 L 36.21 165.85 L 36.06 166.48 L 35.91 167.11 L 35.81 167.68 L 35.72 168.22 L 35.59 168.87 L 35.47 169.52 L 35.34 170.16 L 35.27 170.75 L 35.24 171.37 L 35.19 172.08 L 35.31 172.59 L 35.44 173.07 L 35.53 173.60 L 35.56 174.25 L 35.54 174.96 L 35.44 175.51 L 35.22 175.96 L 34.88 176.34 L 34.61 176.43 L 34.23 176.42 L 33.74 176.32 L 33.25 175.99 L 32.71 175.70 L 32.10 175.51 L 31.49 175.33 L 30.87 175.14 L 30.27 174.96 L 29.72 174.73 L 29.25 174.40 L 28.56 174.35 L 27.92 174.24 L 27.32 174.06 L 26.82 173.80 L 26.38 173.48 L 25.99 173.10 L 25.27 173.19 L 24.55 173.26 L 23.89 173.26 L 23.38 173.08 L 22.93 172.78 L 22.41 172.66 L 21.94 172.70 L 21.55 172.89 L 21.16 173.38 L 21.04 173.81 L 21.08 174.29 L 21.41 174.63 L 21.88 174.96 L 22.31 175.39 L 22.65 175.97 L 23.15 176.34 L 23.65 176.69 L 24.09 176.99 L 24.38 177.35" fill="none" stroke="#000000" stroke-width="0.5" stroke-linejoin="round" stroke-linecap="round"/>
</svg>