<?xml version="1.0" encoding="UTF-8"?>
<svg xmlns="http://www.w3.org/2000/svg" viewBox="16.69 140.00 37.31 42.30">
<path d="M 49.00 145.00 L 48.33 145.02 L 47.92 145.14 L 47.48 145.21 L 46.90 145.36 L 46.38 145.44 L 45.90 145.45 L 45.42 145.45 L 44.97 145.42 L 44.54 145.34 L 44.00 145.41 L 43.49 145.47 L 43.01 145.48 L 42.50 145.55 L 41.98 145.64 L 41.45 145.76 L 40.89 145.92 L 40.34 146.08 L 39.81 146.21 L 39.26 146.37 L 38.71 146.53 L 38.17 146.65 L 37.67 146.73 L 37.15 146.81 L 36.60 146.92 L 36.11 146.95 L 35.64 146.96 L 35.16 146.97 L 34.65 147.04 L 34.15 147.13 L 33.65 147.27 L 33.08 147.52 L 32.49 147.82 L 31.89 148.20 L 31.33 148.54 L 30.79 148.87 L 30.21 149.26 L 29.63 149.66 L 29.06 150.06 L 28.50 150.46 L 27.95 150.88 L 27.40 151.29 L 26.83 151.74 L 26.25 152.22 L 25.72 152.65 L 25.17 153.11 L 24.61 153.59 L 24.03 154.07 L 23.48 154.52 L 22.96 154.96 L 22.50 155.45 L 22.09 155.99 L 21.69 156.65 L 21.73 156.87 L 21.99 156.86 L 22.41 156.72 L 22.62 156.93 L 22.45 157.63 L 22.26 158.35 L 22.15 158.95 L 22.00 159.60 L 21.94 160.19 L 21.97 160.71 L 22.02 161.23 L 22.08 161.77 L 22.15 162.31 L 22.29 162.79 L 22.46 163.22 L 22.71 163.56 L 22.94 163.94 L 23.16 164.34 L 23.43 164.69 L 23.69 165.04 L 23.96 165.38 L 24.26 165.68 L 24.54 166.01 L 24.81 166.35 L 25.12 166.65 L 25.36 166.96 L 25.52 167.23 L 25.63 167.46 L 25.55 167.89 L 25.28 168.55 L 24.95 169.26 L 24.66 169.90 L 24.42 170.52 L 24.32 171.09 L 24.31 171.63 L 24.35 172.15 L 24.41 172.68 L 24.47 173.22 L 24.54 173.76 L 24.67 174.20 L 24.79 174.67 L 24.86 175.21 L 24.92 175.75 L 24.98 176.28 L 24.99 176.78 L 24.92 177.30" fill="none" stroke="#000000" stroke-width="0.5" stroke-linejoin="round" stroke-linecap="round"/>
</svg>