<?xml version="1.0" encoding="UTF-8"?>
<svg xmlns="http://www.w3.org/2000/svg" viewBox="18.86 140.00 35.14 42.34">
<path d="M 49.00 145.00 L 48.60 145.34 L 48.28 145.75 L 47.93 146.17 L 47.60 146.60 L 47.26 147.02 L 46.90 147.43 L 46.49 147.80 L 46.09 148.10 L 45.70 148.34 L 45.29 148.58 L 44.83 148.87 L 44.37 149.17 L 43.93 149.47 L 43.50 149.83 L 43.11 150.21 L 42.76 150.59 L 42.40 150.98 L 42.03 151.38 L 41.68 151.79 L 41.37 152.20 L 41.06 152.63 L 40.75 153.07 L 40.43 153.50 L 40.15 153.97 L 39.90 154.46 L 39.65 154.94 L 39.41 155.42 L 39.17 155.89 L 38.92 156.37 L 38.67 156.86 L 38.41 157.34 L 38.14 157.81 L 37.88 158.30 L 37.64 158.79 L 37.41 159.29 L 37.21 159.79 L 37.02 160.28 L 36.84 160.77 L 36.68 161.29 L 36.53 161.83 L 36.38 162.39 L 36.29 162.90 L 36.25 163.36 L 36.17 163.87 L 36.10 164.41 L 36.00 164.94 L 35.85 165.46 L 35.64 165.95 L 35.38 166.41 L 35.08 166.86 L 34.75 167.24 L 34.34 167.60 L 33.87 167.93 L 33.42 168.15 L 32.96 168.35 L 32.47 168.52 L 31.96 168.66 L 31.43 168.80 L 30.92 168.96 L 30.43 169.12 L 29.96 169.30 L 29.45 169.56 L 28.97 169.84 L 28.52 170.14 L 28.08 170.46 L 27.61 170.76 L 27.10 171.05 L 26.59 171.27 L 26.28 171.16 L 26.12 170.81 L 26.01 170.31 L 25.90 169.80 L 25.90 169.27 L 25.99 168.80 L 25.79 168.91 L 25.48 169.33 L 25.24 169.75 L 25.00 170.14 L 24.74 170.52 L 24.42 170.83 L 24.53 170.53 L 24.60 170.25 L 24.61 170.03 L 24.30 170.35 L 24.03 170.80 L 23.86 171.30 L 23.89 171.74 L 23.91 172.27 L 23.95 172.85 L 24.08 173.37 L 24.22 173.88 L 24.44 174.27 L 24.61 174.74 L 24.74 175.26 L 24.80 175.87 L 24.87 176.41 L 24.91 176.87 L 24.87 177.34" fill="none" stroke="#000000" stroke-width="0.5" stroke-linejoin="round" stroke-linecap="round"/>
</svg>