<?xml version="1.0" encoding="UTF-8"?>
<svg xmlns="http://www.w3.org/2000/svg" viewBox="18.04 140.00 35.96 42.29">
<path d="M 49.00 145.00 L 48.52 145.53 L 48.08 146.06 L 47.62 146.54 L 47.10 147.04 L 46.54 147.48 L 45.94 147.86 L 45.35 148.24 L 44.76 148.48 L 44.17 148.63 L 43.47 148.93 L 42.83 149.14 L 42.26 149.30 L 41.60 149.64 L 40.92 149.96 L 40.24 150.27 L 39.58 150.61 L 39.02 150.83 L 38.45 151.04 L 37.80 151.38 L 37.14 151.71 L 36.51 152.07 L 35.88 152.42 L 35.23 152.76 L 34.57 153.09 L 34.01 153.30 L 33.44 153.52 L 32.79 153.86 L 32.17 154.22 L 31.64 154.65 L 31.25 155.18 L 30.94 155.83 L 30.83 156.40 L 30.93 156.80 L 31.32 157.02 L 31.90 157.05 L 32.67 156.81 L 33.29 156.69 L 33.93 156.47 L 34.64 156.17 L 35.34 155.87 L 35.94 155.64 L 36.49 155.45 L 37.14 155.11 L 37.82 154.80 L 38.51 154.48 L 39.16 154.14 L 39.71 153.91 L 40.22 153.66 L 40.76 153.24 L 40.60 153.65 L 40.19 154.21 L 39.72 154.68 L 39.18 155.11 L 38.61 155.50 L 38.00 155.87 L 37.40 156.24 L 36.79 156.62 L 36.18 156.99 L 35.58 157.36 L 34.97 157.73 L 34.33 158.08 L 33.68 158.42 L 33.03 158.73 L 32.40 158.94 L 31.77 159.14 L 31.10 159.40 L 30.51 159.55 L 29.87 159.82 L 29.21 160.15 L 28.56 160.49 L 27.95 160.86 L 27.34 161.23 L 26.77 161.63 L 26.22 162.04 L 25.67 162.45 L 25.13 162.93 L 24.64 163.43 L 24.24 163.95 L 23.87 164.55 L 23.54 165.17 L 23.29 165.80 L 23.13 166.50 L 23.04 167.20 L 23.04 167.86 L 23.07 168.54 L 23.11 169.24 L 23.15 169.93 L 23.19 170.63 L 23.24 171.32 L 23.24 172.13 L 23.31 172.85 L 23.45 173.49 L 23.71 174.01 L 23.83 174.76 L 24.03 175.43 L 24.33 175.99 L 24.40 176.70 L 24.48 177.29" fill="none" stroke="#000000" stroke-width="0.5" stroke-linejoin="round" stroke-linecap="round"/>
</svg>