<?xml version="1.0" encoding="UTF-8"?>
<svg xmlns="http://www.w3.org/2000/svg" viewBox="18.67 140.00 39.24 42.83">
<path d="M 49.00 145.00 L 48.45 145.97 L 47.82 146.89 L 47.21 147.81 L 46.60 148.72 L 45.96 149.61 L 45.32 150.51 L 44.66 151.39 L 43.99 152.26 L 43.34 153.16 L 42.67 154.04 L 42.00 154.91 L 41.33 155.79 L 40.68 156.67 L 40.01 157.54 L 39.33 158.41 L 38.62 159.25 L 37.89 160.07 L 37.15 160.90 L 36.42 161.72 L 35.68 162.54 L 34.94 163.36 L 34.20 164.19 L 33.46 165.02 L 32.72 165.85 L 31.99 166.67 L 31.22 167.47 L 30.38 168.22 L 29.53 168.95 L 28.69 169.66 L 27.88 170.33 L 27.04 171.03 L 26.14 171.73 L 25.30 172.48 L 24.61 173.30 L 24.07 174.12 L 23.67 174.96 L 24.46 174.42 L 25.39 173.88 L 26.35 173.56 L 27.25 173.37 L 28.31 172.93 L 29.37 172.49 L 30.41 172.03 L 31.42 171.55 L 32.40 171.04 L 33.34 170.52 L 34.29 169.99 L 35.28 169.41 L 36.29 168.82 L 37.31 168.35 L 38.35 167.89 L 39.31 167.60 L 39.72 168.13 L 40.63 167.96 L 41.73 167.55 L 42.81 167.12 L 43.81 166.63 L 44.75 166.11 L 45.70 165.58 L 46.69 164.99 L 47.69 164.40 L 48.66 163.89 L 49.66 163.40 L 50.71 162.98 L 51.66 162.59 L 52.49 162.19 L 52.92 162.17 L 52.42 163.18 L 51.79 164.07 L 51.02 164.86 L 50.12 165.47 L 49.21 166.02 L 48.26 166.54 L 47.27 167.04 L 46.26 167.52 L 45.26 168.01 L 44.26 168.49 L 43.25 168.97 L 42.24 169.45 L 41.22 169.92 L 40.21 170.38 L 39.23 170.79 L 38.16 171.23 L 37.11 171.68 L 36.10 172.11 L 35.26 172.29 L 34.19 172.75 L 33.11 173.19 L 32.15 173.49 L 31.19 173.87 L 30.17 174.29 L 29.09 174.73 L 28.05 175.18 L 27.05 175.61 L 26.15 176.12 L 25.41 176.80 L 24.74 177.52 L 24.47 177.83" fill="none" stroke="#000000" stroke-width="0.5" stroke-linejoin="round" stroke-linecap="round"/>
</svg>