<?xml version="1.0" encoding="UTF-8"?>
<svg xmlns="http://www.w3.org/2000/svg" viewBox="20.17 140.00 33.83 42.68">
<path d="M 49.00 145.00 L 48.78 145.02 L 48.63 145.09 L 48.47 145.15 L 48.30 145.20 L 48.12 145.25 L 47.90 145.37 L 47.64 145.56 L 47.44 145.66 L 47.23 145.81 L 46.89 146.12 L 46.57 146.44 L 46.23 146.78 L 45.89 147.15 L 45.56 147.49 L 45.24 147.84 L 44.86 148.27 L 44.52 148.63 L 44.19 149.01 L 43.89 149.34 L 43.55 149.75 L 43.19 150.19 L 42.85 150.63 L 42.52 151.08 L 42.19 151.53 L 41.86 151.98 L 41.53 152.44 L 41.19 152.89 L 40.86 153.35 L 40.51 153.80 L 40.17 154.25 L 39.83 154.71 L 39.49 155.16 L 39.15 155.61 L 38.82 156.06 L 38.49 156.51 L 38.15 156.97 L 37.82 157.43 L 37.49 157.90 L 37.16 158.35 L 36.84 158.81 L 36.52 159.28 L 36.19 159.75 L 35.88 160.22 L 35.57 160.69 L 35.26 161.15 L 34.96 161.62 L 34.66 162.09 L 34.36 162.57 L 34.06 163.04 L 33.77 163.46 L 33.50 163.86 L 33.18 164.32 L 32.85 164.77 L 32.51 165.22 L 32.15 165.66 L 31.79 166.09 L 31.49 166.44 L 31.15 166.83 L 30.77 167.25 L 30.45 167.61 L 30.14 167.95 L 29.84 168.28 L 29.49 168.72 L 29.15 169.17 L 28.84 169.64 L 28.64 169.98 L 28.55 170.22 L 28.52 170.40 L 28.43 170.69 L 28.37 170.95 L 28.38 171.12 L 28.25 171.47 L 28.12 171.82 L 28.01 172.11 L 28.00 172.25 L 27.86 172.52 L 27.55 172.98 L 27.23 173.45 L 26.94 173.82 L 26.64 174.22 L 26.31 174.67 L 25.99 175.14 L 25.74 175.55 L 25.72 175.69 L 25.86 175.63 L 26.12 175.43 L 26.45 175.14 L 26.72 174.95 L 26.93 174.84 L 27.04 174.85 L 27.08 174.91 L 26.99 175.12 L 26.69 175.59 L 26.42 175.97 L 26.13 176.38 L 25.79 176.83 L 25.46 177.29 L 25.17 177.68" fill="none" stroke="#000000" stroke-width="0.5" stroke-linejoin="round" stroke-linecap="round"/>
</svg>