<?xml version="1.0" encoding="UTF-8"?>
<svg xmlns="http://www.w3.org/2000/svg" viewBox="20.59 140.00 33.82 42.82">
<path d="M 49.00 145.00 L 49.30 145.59 L 49.33 146.00 L 49.34 146.53 L 49.38 147.09 L 49.41 147.64 L 49.41 148.17 L 49.39 148.69 L 49.37 149.21 L 49.31 149.80 L 49.25 150.37 L 49.23 150.89 L 49.19 151.39 L 49.16 151.89 L 49.14 152.41 L 49.04 152.99 L 48.95 153.49 L 48.82 153.93 L 48.62 154.42 L 48.39 154.92 L 48.13 155.39 L 47.82 155.83 L 47.49 156.25 L 47.13 156.65 L 46.74 157.03 L 46.33 157.40 L 45.94 157.71 L 45.53 158.02 L 45.09 158.33 L 44.58 158.63 L 44.09 158.89 L 43.64 159.10 L 43.24 159.22 L 42.77 159.39 L 42.25 159.62 L 41.74 159.86 L 41.25 160.10 L 40.75 160.35 L 40.27 160.59 L 39.80 160.81 L 39.32 161.03 L 38.83 161.28 L 38.34 161.53 L 37.85 161.77 L 37.36 162.02 L 36.91 162.30 L 36.50 162.57 L 36.12 162.84 L 35.69 163.19 L 35.28 163.55 L 34.93 163.96 L 34.69 164.40 L 34.48 164.88 L 34.36 165.37 L 34.41 165.78 L 34.64 166.12 L 35.08 166.31 L 35.54 166.51 L 36.00 166.71 L 36.50 166.85 L 37.09 166.86 L 37.67 166.87 L 38.23 166.93 L 38.69 167.05 L 39.03 167.22 L 39.22 167.44 L 39.16 167.92 L 38.98 168.41 L 38.72 168.84 L 38.37 169.24 L 38.00 169.59 L 37.60 169.93 L 37.21 170.30 L 36.80 170.63 L 36.38 170.95 L 35.96 171.31 L 35.54 171.63 L 35.13 171.96 L 34.71 172.31 L 34.29 172.64 L 33.87 172.95 L 33.42 173.30 L 32.98 173.60 L 32.54 173.89 L 32.12 174.19 L 31.68 174.47 L 31.21 174.76 L 30.72 175.07 L 30.27 175.32 L 29.84 175.56 L 29.37 175.83 L 28.88 176.08 L 28.40 176.33 L 27.92 176.58 L 27.43 176.84 L 26.94 177.08 L 26.45 177.32 L 26.01 177.56 L 25.59 177.82" fill="none" stroke="#000000" stroke-width="0.5" stroke-linejoin="round" stroke-linecap="round"/>
</svg>