<?xml version="1.0" encoding="UTF-8"?>
<svg xmlns="http://www.w3.org/2000/svg" viewBox="17.43 140.00 43.74 42.56">
<path d="M 49.00 145.00 L 48.99 145.73 L 48.60 146.26 L 48.21 146.74 L 48.10 146.88 L 47.79 147.35 L 47.42 147.99 L 47.10 148.69 L 47.32 149.03 L 47.73 149.40 L 48.24 149.86 L 48.82 150.36 L 49.40 150.87 L 49.99 151.38 L 50.58 151.89 L 51.17 152.40 L 51.76 152.91 L 52.34 153.41 L 52.92 153.92 L 53.50 154.42 L 54.04 154.98 L 54.51 155.63 L 55.02 156.20 L 55.58 156.69 L 55.97 157.27 L 56.15 157.79 L 56.17 158.18 L 55.89 158.61 L 55.52 158.80 L 55.07 158.77 L 54.47 158.60 L 53.72 158.44 L 52.97 158.36 L 52.30 158.18 L 51.62 158.07 L 50.75 158.32 L 50.16 158.22 L 49.53 158.27 L 48.80 158.62 L 48.13 158.88 L 47.48 159.25 L 46.85 159.75 L 46.26 160.22 L 45.63 160.69 L 44.95 161.14 L 44.32 161.36 L 43.85 161.25 L 43.22 161.24 L 42.50 161.14 L 41.74 160.98 L 40.93 160.86 L 40.21 160.62 L 39.52 160.34 L 38.84 160.07 L 38.19 159.82 L 37.47 159.73 L 36.70 159.82 L 35.93 160.01 L 35.20 160.27 L 34.49 160.62 L 33.83 161.03 L 33.23 161.50 L 32.68 162.03 L 32.19 162.63 L 31.73 163.24 L 31.30 163.86 L 30.88 164.49 L 30.46 165.14 L 30.05 165.80 L 29.67 166.48 L 29.34 167.19 L 29.10 167.95 L 29.01 168.67 L 29.09 169.28 L 29.30 169.84 L 29.49 170.58 L 29.64 171.43 L 29.95 172.03 L 30.36 172.18 L 30.44 172.43 L 30.27 172.74 L 29.86 173.07 L 29.48 173.02 L 28.96 172.83 L 28.35 172.54 L 27.65 172.52 L 26.96 172.64 L 26.32 172.86 L 25.61 173.30 L 24.95 173.78 L 24.36 174.30 L 23.84 174.84 L 23.36 175.40 L 22.94 176.06 L 22.62 176.77 L 22.43 177.54 L 22.95 177.56 L 23.53 177.52 L 24.06 177.54" fill="none" stroke="#000000" stroke-width="0.5" stroke-linejoin="round" stroke-linecap="round"/>
</svg>