<?xml version="1.0" encoding="UTF-8"?>
<svg xmlns="http://www.w3.org/2000/svg" viewBox="20.25 140.00 33.75 42.15">
<path d="M 49.00 145.00 L 48.38 145.01 L 47.90 145.26 L 47.35 145.53 L 47.01 145.49 L 46.58 145.65 L 45.95 146.13 L 45.18 146.81 L 44.44 147.49 L 43.73 148.13 L 43.15 148.64 L 42.55 149.14 L 41.93 149.66 L 41.21 150.30 L 40.51 150.96 L 39.82 151.62 L 39.13 152.28 L 38.43 152.93 L 37.70 153.57 L 37.01 154.11 L 36.59 154.26 L 36.07 154.52 L 35.48 154.83 L 34.79 155.26 L 34.17 155.65 L 33.65 155.99 L 33.17 156.34 L 32.50 157.12 L 31.89 157.95 L 31.39 158.77 L 31.28 159.22 L 31.19 159.76 L 31.01 160.49 L 31.16 160.88 L 31.47 161.05 L 31.97 160.96 L 32.47 160.87 L 32.88 160.89 L 33.25 160.92 L 33.87 160.56 L 34.53 160.10 L 35.24 159.56 L 36.00 158.95 L 36.64 158.40 L 37.15 157.94 L 37.43 157.70 L 36.97 158.40 L 36.41 159.15 L 35.79 159.87 L 35.11 160.54 L 34.43 161.21 L 33.76 161.88 L 33.10 162.57 L 32.44 163.25 L 31.76 163.98 L 31.07 164.73 L 30.42 165.42 L 29.74 166.12 L 28.99 166.85 L 28.34 167.37 L 27.94 167.51 L 27.99 167.03 L 27.80 166.85 L 27.33 167.10 L 26.66 167.78 L 26.05 168.53 L 25.49 169.39 L 25.32 169.88 L 25.26 170.36 L 25.25 170.88 L 25.41 171.26 L 25.65 171.56 L 25.88 171.86 L 26.20 171.98 L 26.56 172.01 L 27.18 171.65 L 27.94 171.03 L 28.63 170.42 L 29.18 169.96 L 29.92 169.24 L 30.67 168.56 L 31.41 167.93 L 31.88 167.70 L 32.29 167.54 L 32.67 167.37 L 33.02 167.17 L 32.57 167.94 L 32.01 168.76 L 31.44 169.50 L 30.81 170.21 L 30.16 170.92 L 29.47 171.69 L 28.81 172.46 L 28.18 173.26 L 27.61 174.03 L 27.07 174.76 L 26.58 175.48 L 26.02 176.30 L 25.47 177.15" fill="none" stroke="#000000" stroke-width="0.5" stroke-linejoin="round" stroke-linecap="round"/>
</svg>