<?xml version="1.0" encoding="UTF-8"?>
<svg xmlns="http://www.w3.org/2000/svg" viewBox="15.49 140.00 39.24 42.47">
<path d="M 49.00 145.00 L 49.09 145.78 L 49.04 146.38 L 49.08 146.97 L 49.24 147.51 L 49.43 148.04 L 49.54 148.68 L 49.63 149.31 L 49.71 149.93 L 49.71 150.63 L 49.71 151.27 L 49.73 151.85 L 49.70 152.47 L 49.63 153.13 L 49.57 153.80 L 49.50 154.46 L 49.43 155.10 L 49.38 155.63 L 49.18 156.16 L 48.87 156.66 L 48.45 157.15 L 48.14 157.36 L 47.82 157.54 L 47.31 157.88 L 46.74 158.21 L 46.16 158.57 L 45.63 158.90 L 45.13 159.20 L 44.68 159.44 L 44.19 159.75 L 43.75 160.11 L 43.29 160.58 L 42.91 161.04 L 42.54 161.50 L 42.13 161.99 L 41.64 162.43 L 41.12 162.72 L 40.59 162.83 L 40.16 162.67 L 39.61 162.52 L 38.98 162.42 L 38.35 162.31 L 37.74 162.23 L 37.14 162.16 L 36.48 162.24 L 35.85 162.35 L 35.26 162.48 L 34.68 162.73 L 34.16 163.07 L 33.74 163.47 L 33.40 164.00 L 33.17 164.57 L 33.12 165.10 L 33.18 165.71 L 33.34 166.32 L 33.62 166.87 L 34.12 167.15 L 34.62 167.42 L 35.00 167.85 L 35.26 168.39 L 35.37 169.03 L 35.39 169.61 L 35.26 170.18 L 35.01 170.73 L 34.65 171.24 L 34.22 171.68 L 33.74 172.03 L 33.23 172.38 L 32.71 172.71 L 32.19 173.05 L 31.65 173.45 L 31.14 173.81 L 30.64 174.18 L 30.11 174.57 L 29.56 174.91 L 29.02 175.23 L 28.45 175.53 L 27.84 175.79 L 27.19 176.01 L 26.57 176.12 L 26.00 176.10 L 25.41 176.04 L 24.81 175.96 L 24.21 175.87 L 23.57 175.83 L 22.89 175.90 L 22.30 175.94 L 21.79 175.92 L 21.25 176.23 L 20.81 176.63 L 20.49 177.09 L 20.50 177.35 L 20.98 177.15 L 21.56 177.01 L 22.24 176.95 L 22.93 176.88 L 23.55 176.95 L 23.94 177.23 L 24.27 177.47" fill="none" stroke="#000000" stroke-width="0.5" stroke-linejoin="round" stroke-linecap="round"/>
</svg>