<?xml version="1.0" encoding="UTF-8"?>
<svg xmlns="http://www.w3.org/2000/svg" viewBox="20.41 140.00 33.59 43.00">
<path d="M 49.00 145.00 L 48.47 145.83 L 47.90 146.69 L 47.35 147.57 L 46.83 148.45 L 46.41 149.20 L 46.28 149.59 L 46.70 149.26 L 47.37 148.56 L 47.79 148.14 L 47.65 148.46 L 47.09 149.29 L 46.55 150.09 L 45.94 150.90 L 45.30 151.71 L 44.65 152.52 L 44.03 153.28 L 43.41 154.02 L 42.77 154.74 L 42.13 155.46 L 41.48 156.18 L 40.81 156.88 L 40.11 157.60 L 39.58 158.07 L 39.35 158.20 L 39.16 158.36 L 38.90 158.65 L 38.39 159.27 L 38.22 159.42 L 38.02 159.62 L 37.58 160.13 L 37.32 160.29 L 37.16 160.21 L 37.22 159.74 L 36.83 159.91 L 36.26 160.32 L 35.69 160.74 L 35.12 161.16 L 34.63 161.47 L 34.21 161.68 L 33.74 161.96 L 33.23 162.32 L 32.70 162.76 L 32.20 163.23 L 31.60 163.93 L 30.97 164.76 L 30.40 165.61 L 29.94 166.38 L 29.55 167.10 L 29.18 167.83 L 28.82 168.56 L 28.44 169.36 L 27.97 170.28 L 27.75 170.86 L 27.62 171.34 L 27.30 172.10 L 27.16 172.67 L 27.10 173.14 L 27.02 173.60 L 26.89 174.11 L 26.92 174.37 L 27.36 174.00 L 28.06 173.21 L 28.73 172.41 L 29.38 171.60 L 30.02 170.77 L 30.67 169.95 L 31.33 169.14 L 32.00 168.34 L 32.40 167.92 L 32.21 168.33 L 31.69 169.22 L 31.19 170.06 L 31.68 169.53 L 32.33 168.78 L 33.01 167.99 L 33.68 167.26 L 34.33 166.56 L 34.93 165.91 L 35.40 165.42 L 35.23 165.76 L 34.67 166.61 L 34.11 167.44 L 33.57 168.24 L 33.00 169.10 L 32.53 169.81 L 32.24 170.28 L 31.91 170.82 L 31.33 171.69 L 30.73 172.54 L 30.10 173.36 L 29.47 174.10 L 28.83 174.82 L 28.17 175.53 L 27.53 176.17 L 26.92 176.75 L 26.29 177.30 L 25.77 177.75 L 25.41 178.00" fill="none" stroke="#000000" stroke-width="0.5" stroke-linejoin="round" stroke-linecap="round"/>
</svg>