<?xml version="1.0" encoding="UTF-8"?>
<svg xmlns="http://www.w3.org/2000/svg" viewBox="18.98 140.00 35.02 42.38">
<path d="M 49.00 145.00 L 48.51 145.12 L 48.16 145.36 L 47.76 145.68 L 47.36 145.96 L 46.99 146.26 L 46.60 146.59 L 46.17 146.88 L 45.73 147.12 L 45.29 147.28 L 44.84 147.34 L 44.44 147.23 L 44.11 146.94 L 43.72 146.69 L 43.28 146.47 L 42.81 146.34 L 42.39 146.18 L 42.00 146.00 L 41.46 146.05 L 40.93 146.11 L 40.44 146.19 L 40.03 146.23 L 39.61 146.33 L 39.14 146.54 L 38.70 146.78 L 38.28 147.04 L 37.88 147.35 L 37.51 147.66 L 37.16 147.97 L 36.80 148.32 L 36.44 148.66 L 36.09 149.01 L 35.74 149.36 L 35.38 149.70 L 35.02 150.05 L 34.68 150.36 L 34.34 150.69 L 33.98 151.04 L 33.63 151.39 L 33.31 151.77 L 33.00 152.15 L 32.70 152.54 L 32.40 152.92 L 32.10 153.31 L 31.80 153.69 L 31.50 154.09 L 31.21 154.48 L 30.91 154.87 L 30.62 155.26 L 30.34 155.66 L 30.06 156.06 L 29.79 156.47 L 29.53 156.88 L 29.25 157.29 L 28.98 157.69 L 28.71 158.10 L 28.44 158.51 L 28.16 158.91 L 27.90 159.32 L 27.64 159.74 L 27.40 160.17 L 27.17 160.60 L 26.95 161.03 L 26.76 161.47 L 26.59 161.94 L 26.43 162.42 L 26.31 162.89 L 26.20 163.39 L 26.15 163.87 L 26.12 164.35 L 26.15 164.79 L 26.17 165.29 L 26.19 165.81 L 26.26 166.27 L 26.31 166.73 L 26.36 167.19 L 26.37 167.71 L 26.36 168.20 L 26.32 168.66 L 26.26 169.13 L 26.16 169.64 L 26.03 170.14 L 25.92 170.57 L 25.78 171.02 L 25.61 171.50 L 25.44 171.96 L 25.26 172.41 L 25.05 172.86 L 24.85 173.31 L 24.65 173.77 L 24.45 174.22 L 24.26 174.68 L 24.12 175.14 L 24.00 175.66 L 23.98 176.16 L 24.04 176.62 L 24.28 176.87 L 24.55 177.08 L 24.71 177.38" fill="none" stroke="#000000" stroke-width="0.5" stroke-linejoin="round" stroke-linecap="round"/>
</svg>