<?xml version="1.0" encoding="utf-8" standalone="no"?>
<!DOCTYPE svg PUBLIC "-//W3C//DTD SVG 1.1//EN"
  "http://www.w3.org/Graphics/SVG/1.1/DTD/svg11.dtd">
<svg xmlns:xlink="http://www.w3.org/1999/xlink" width="302.4pt" height="244.8pt" viewBox="0 0 302.4 244.8" xmlns="http://www.w3.org/2000/svg" version="1.1">
 <metadata>
  <rdf:RDF xmlns:dc="http://purl.org/dc/elements/1.1/" xmlns:cc="http://creativecommons.org/ns#" xmlns:rdf="http://www.w3.org/1999/02/22-rdf-syntax-ns#">
   <cc:Work>
    <dc:type rdf:resource="http://purl.org/dc/dcmitype/StillImage"/>
    <dc:date>2026-03-01T20:31:01.771491</dc:date>
    <dc:format>image/svg+xml</dc:format>
    <dc:creator>
     <cc:Agent>
      <dc:title>Matplotlib v3.10.8, https://matplotlib.org/</dc:title>
     </cc:Agent>
    </dc:creator>
   </cc:Work>
  </rdf:RDF>
 </metadata>
 <defs>
  <style type="text/css">*{stroke-linejoin: round; stroke-linecap: butt}</style>
 </defs>
 <g id="figure_1">
  <g id="patch_1">
   <path d="M 0 244.8 
L 302.4 244.8 
L 302.4 0 
L 0 0 
z
" style="fill: #ffffff"/>
  </g>
  <g id="axes_1">
   <g id="patch_2">
    <path d="M 37.77 217.42 
L 291.6 217.42 
L 291.6 26.88 
L 37.77 26.88 
z
" style="fill: #ffffff"/>
   </g>
   <g id="FillBetweenPolyCollection_1">
    <defs>
     <path id="m7a660a8484" d="M 127.119422 -36.084593 
L 75.335578 -36.084593 
L 73.749464 -37.641001 
L 72.244423 -39.19741 
L 70.833802 -40.753818 
L 69.527698 -42.310226 
L 68.332679 -43.866634 
L 67.25167 -45.423043 
L 66.284028 -46.979451 
L 65.425789 -48.535859 
L 64.670056 -50.092267 
L 64.007524 -51.648676 
L 63.427078 -53.205084 
L 62.916449 -54.761492 
L 62.462873 -56.3179 
L 62.05372 -57.874309 
L 61.677072 -59.430717 
L 61.322207 -60.987125 
L 60.979992 -62.543533 
L 60.64316 -64.099942 
L 60.306479 -65.65635 
L 59.966821 -67.212758 
L 59.623133 -68.769166 
L 59.276328 -70.325575 
L 58.929117 -71.881983 
L 58.585793 -73.438391 
L 58.251975 -74.994799 
L 57.934348 -76.551208 
L 57.640377 -78.107616 
L 57.378037 -79.664024 
L 57.155538 -81.220432 
L 56.98106 -82.776841 
L 56.862504 -84.333249 
L 56.80725 -85.889657 
L 56.821924 -87.446065 
L 56.912184 -89.002474 
L 57.082518 -90.558882 
L 57.336057 -92.11529 
L 57.674424 -93.671698 
L 58.097602 -95.228107 
L 58.603853 -96.784515 
L 59.189689 -98.340923 
L 59.849897 -99.897331 
L 60.577648 -101.45374 
L 61.364668 -103.010148 
L 62.201502 -104.566556 
L 63.077837 -106.122964 
L 63.982904 -107.679373 
L 64.905915 -109.235781 
L 65.836535 -110.792189 
L 66.765346 -112.348597 
L 67.684278 -113.905006 
L 68.586986 -115.461414 
L 69.46912 -117.017822 
L 70.328494 -118.57423 
L 71.165116 -120.130639 
L 71.981075 -121.687047 
L 72.780304 -123.243455 
L 73.568209 -124.799863 
L 74.351209 -126.356272 
L 75.136202 -127.91268 
L 75.930015 -129.469088 
L 76.738849 -131.025496 
L 77.567786 -132.581905 
L 78.420369 -134.138313 
L 79.2983 -135.694721 
L 80.201255 -137.251129 
L 81.126837 -138.807537 
L 82.070663 -140.363946 
L 83.026556 -141.920354 
L 83.986847 -143.476762 
L 84.942737 -145.03317 
L 85.884704 -146.589579 
L 86.80293 -148.145987 
L 87.687704 -149.702395 
L 88.5298 -151.258803 
L 89.320801 -152.815212 
L 90.053368 -154.37162 
L 90.721441 -155.928028 
L 91.320382 -157.484436 
L 91.847063 -159.040845 
L 92.299909 -160.597253 
L 92.678894 -162.153661 
L 92.985519 -163.710069 
L 93.222752 -165.266478 
L 93.39496 -166.822886 
L 93.507813 -168.379294 
L 93.56817 -169.935702 
L 93.583941 -171.492111 
L 93.56392 -173.048519 
L 93.517589 -174.604927 
L 93.454889 -176.161335 
L 93.385963 -177.717744 
L 93.32087 -179.274152 
L 93.269283 -180.83056 
L 93.240186 -182.386968 
L 93.241575 -183.943377 
L 93.280185 -185.499785 
L 93.361261 -187.056193 
L 93.488382 -188.612601 
L 93.663355 -190.16901 
L 108.791645 -190.16901 
L 108.791645 -190.16901 
L 108.966618 -188.612601 
L 109.093739 -187.056193 
L 109.174815 -185.499785 
L 109.213425 -183.943377 
L 109.214814 -182.386968 
L 109.185717 -180.83056 
L 109.13413 -179.274152 
L 109.069037 -177.717744 
L 109.000111 -176.161335 
L 108.937411 -174.604927 
L 108.89108 -173.048519 
L 108.871059 -171.492111 
L 108.88683 -169.935702 
L 108.947187 -168.379294 
L 109.06004 -166.822886 
L 109.232248 -165.266478 
L 109.469481 -163.710069 
L 109.776106 -162.153661 
L 110.155091 -160.597253 
L 110.607937 -159.040845 
L 111.134618 -157.484436 
L 111.733559 -155.928028 
L 112.401632 -154.37162 
L 113.134199 -152.815212 
L 113.9252 -151.258803 
L 114.767296 -149.702395 
L 115.65207 -148.145987 
L 116.570296 -146.589579 
L 117.512263 -145.03317 
L 118.468153 -143.476762 
L 119.428444 -141.920354 
L 120.384337 -140.363946 
L 121.328163 -138.807537 
L 122.253745 -137.251129 
L 123.1567 -135.694721 
L 124.034631 -134.138313 
L 124.887214 -132.581905 
L 125.716151 -131.025496 
L 126.524985 -129.469088 
L 127.318798 -127.91268 
L 128.103791 -126.356272 
L 128.886791 -124.799863 
L 129.674696 -123.243455 
L 130.473925 -121.687047 
L 131.289884 -120.130639 
L 132.126506 -118.57423 
L 132.98588 -117.017822 
L 133.868014 -115.461414 
L 134.770722 -113.905006 
L 135.689654 -112.348597 
L 136.618465 -110.792189 
L 137.549085 -109.235781 
L 138.472096 -107.679373 
L 139.377163 -106.122964 
L 140.253498 -104.566556 
L 141.090332 -103.010148 
L 141.877352 -101.45374 
L 142.605103 -99.897331 
L 143.265311 -98.340923 
L 143.851147 -96.784515 
L 144.357398 -95.228107 
L 144.780576 -93.671698 
L 145.118943 -92.11529 
L 145.372482 -90.558882 
L 145.542816 -89.002474 
L 145.633076 -87.446065 
L 145.64775 -85.889657 
L 145.592496 -84.333249 
L 145.47394 -82.776841 
L 145.299462 -81.220432 
L 145.076963 -79.664024 
L 144.814623 -78.107616 
L 144.520652 -76.551208 
L 144.203025 -74.994799 
L 143.869207 -73.438391 
L 143.525883 -71.881983 
L 143.178672 -70.325575 
L 142.831867 -68.769166 
L 142.488179 -67.212758 
L 142.148521 -65.65635 
L 141.81184 -64.099942 
L 141.475008 -62.543533 
L 141.132793 -60.987125 
L 140.777928 -59.430717 
L 140.40128 -57.874309 
L 139.992127 -56.3179 
L 139.538551 -54.761492 
L 139.027922 -53.205084 
L 138.447476 -51.648676 
L 137.784944 -50.092267 
L 137.029211 -48.535859 
L 136.170972 -46.979451 
L 135.20333 -45.423043 
L 134.122321 -43.866634 
L 132.927302 -42.310226 
L 131.621198 -40.753818 
L 130.210577 -39.19741 
L 128.705536 -37.641001 
L 127.119422 -36.084593 
z
" style="stroke: #000000"/>
    </defs>
    <g clip-path="url(#p46ea07d34e)">
     <use xlink:href="#m7a660a8484" x="0" y="244.8" style="fill: #ffffff; stroke: #000000"/>
    </g>
   </g>
   <g id="FillBetweenPolyCollection_2">
    <defs>
     <path id="m0cde6a27cd" d="M 249.932124 -36.040909 
L 206.352876 -36.040909 
L 203.438285 -37.790588 
L 200.559291 -39.540266 
L 197.786025 -41.289945 
L 195.181699 -43.039624 
L 192.79872 -44.789302 
L 190.676171 -46.538981 
L 188.838857 -48.288659 
L 187.297855 -50.038338 
L 186.0523 -51.788017 
L 185.091944 -53.537695 
L 184.40002 -55.287374 
L 183.955932 -57.037052 
L 183.737452 -58.786731 
L 183.72225 -60.53641 
L 183.888745 -62.286088 
L 184.216422 -64.035767 
L 184.685806 -65.785445 
L 185.278319 -67.535124 
L 185.976178 -69.284803 
L 186.762424 -71.034481 
L 187.621063 -72.78416 
L 188.537231 -74.533838 
L 189.497272 -76.283517 
L 190.488629 -78.033196 
L 191.499519 -79.782874 
L 192.518455 -81.532553 
L 193.533765 -83.282231 
L 194.533296 -85.03191 
L 195.504472 -86.781589 
L 196.434831 -88.531267 
L 197.313014 -90.280946 
L 198.130054 -92.030624 
L 198.880723 -93.780303 
L 199.564616 -95.529982 
L 200.186697 -97.27966 
L 200.757114 -99.029339 
L 201.290258 -100.779017 
L 201.803172 -102.528696 
L 202.313584 -104.278375 
L 202.837897 -106.028053 
L 203.389475 -107.777732 
L 203.977505 -109.52741 
L 204.606579 -111.277089 
L 205.277008 -113.026768 
L 205.985726 -114.776446 
L 206.72755 -116.526125 
L 207.496515 -118.275803 
L 208.286998 -120.025482 
L 209.09444 -121.775161 
L 209.915552 -123.524839 
L 210.748019 -125.274518 
L 211.589817 -127.024197 
L 212.438341 -128.773875 
L 213.289557 -130.523554 
L 214.1374 -132.273232 
L 214.973567 -134.022911 
L 215.787774 -135.77259 
L 216.568451 -137.522268 
L 217.303778 -139.271947 
L 217.982866 -141.021625 
L 218.596915 -142.771304 
L 219.140125 -144.520983 
L 219.610245 -146.270661 
L 220.008664 -148.02034 
L 220.340049 -149.770018 
L 220.611595 -151.519697 
L 220.832027 -153.269376 
L 221.010499 -155.019054 
L 221.155553 -156.768733 
L 221.274297 -158.518411 
L 221.371893 -160.26809 
L 221.451426 -162.017769 
L 221.514157 -163.767447 
L 221.56011 -165.517126 
L 221.588914 -167.266804 
L 221.600763 -169.016483 
L 221.597351 -170.766162 
L 221.582626 -172.51584 
L 221.563214 -174.265519 
L 221.54842 -176.015197 
L 221.549742 -177.764876 
L 221.579939 -179.514555 
L 221.651734 -181.264233 
L 221.776344 -183.013912 
L 221.962036 -184.76359 
L 222.212937 -186.513269 
L 222.528302 -188.262948 
L 222.902357 -190.012626 
L 223.324759 -191.762305 
L 223.781613 -193.511983 
L 224.256877 -195.261662 
L 224.733967 -197.011341 
L 225.197306 -198.761019 
L 225.633634 -200.510698 
L 226.032906 -202.260376 
L 226.388717 -204.010055 
L 226.698261 -205.759734 
L 226.961898 -207.509412 
L 227.182462 -209.259091 
L 229.102538 -209.259091 
L 229.102538 -209.259091 
L 229.323102 -207.509412 
L 229.586739 -205.759734 
L 229.896283 -204.010055 
L 230.252094 -202.260376 
L 230.651366 -200.510698 
L 231.087694 -198.761019 
L 231.551033 -197.011341 
L 232.028123 -195.261662 
L 232.503387 -193.511983 
L 232.960241 -191.762305 
L 233.382643 -190.012626 
L 233.756698 -188.262948 
L 234.072063 -186.513269 
L 234.322964 -184.76359 
L 234.508656 -183.013912 
L 234.633266 -181.264233 
L 234.705061 -179.514555 
L 234.735258 -177.764876 
L 234.73658 -176.015197 
L 234.721786 -174.265519 
L 234.702374 -172.51584 
L 234.687649 -170.766162 
L 234.684237 -169.016483 
L 234.696086 -167.266804 
L 234.72489 -165.517126 
L 234.770843 -163.767447 
L 234.833574 -162.017769 
L 234.913107 -160.26809 
L 235.010703 -158.518411 
L 235.129447 -156.768733 
L 235.274501 -155.019054 
L 235.452973 -153.269376 
L 235.673405 -151.519697 
L 235.944951 -149.770018 
L 236.276336 -148.02034 
L 236.674755 -146.270661 
L 237.144875 -144.520983 
L 237.688085 -142.771304 
L 238.302134 -141.021625 
L 238.981222 -139.271947 
L 239.716549 -137.522268 
L 240.497226 -135.77259 
L 241.311433 -134.022911 
L 242.1476 -132.273232 
L 242.995443 -130.523554 
L 243.846659 -128.773875 
L 244.695183 -127.024197 
L 245.536981 -125.274518 
L 246.369448 -123.524839 
L 247.19056 -121.775161 
L 247.998002 -120.025482 
L 248.788485 -118.275803 
L 249.55745 -116.526125 
L 250.299274 -114.776446 
L 251.007992 -113.026768 
L 251.678421 -111.277089 
L 252.307495 -109.52741 
L 252.895525 -107.777732 
L 253.447103 -106.028053 
L 253.971416 -104.278375 
L 254.481828 -102.528696 
L 254.994742 -100.779017 
L 255.527886 -99.029339 
L 256.098303 -97.27966 
L 256.720384 -95.529982 
L 257.404277 -93.780303 
L 258.154946 -92.030624 
L 258.971986 -90.280946 
L 259.850169 -88.531267 
L 260.780528 -86.781589 
L 261.751704 -85.03191 
L 262.751235 -83.282231 
L 263.766545 -81.532553 
L 264.785481 -79.782874 
L 265.796371 -78.033196 
L 266.787728 -76.283517 
L 267.747769 -74.533838 
L 268.663937 -72.78416 
L 269.522576 -71.034481 
L 270.308822 -69.284803 
L 271.006681 -67.535124 
L 271.599194 -65.785445 
L 272.068578 -64.035767 
L 272.396255 -62.286088 
L 272.56275 -60.53641 
L 272.547548 -58.786731 
L 272.329068 -57.037052 
L 271.88498 -55.287374 
L 271.193056 -53.537695 
L 270.2327 -51.788017 
L 268.987145 -50.038338 
L 267.446143 -48.288659 
L 265.608829 -46.538981 
L 263.48628 -44.789302 
L 261.103301 -43.039624 
L 258.498975 -41.289945 
L 255.725709 -39.540266 
L 252.846715 -37.790588 
L 249.932124 -36.040909 
z
" style="stroke: #000000"/>
    </defs>
    <g clip-path="url(#p46ea07d34e)">
     <use xlink:href="#m0cde6a27cd" x="0" y="244.8" style="fill: #ffffff; stroke: #000000"/>
    </g>
   </g>
   <g id="PathCollection_1">
    <defs>
     <path id="m4e23675be4" d="M 0 1.581139 
C 0.419323 1.581139 0.821528 1.41454 1.118034 1.118034 
C 1.41454 0.821528 1.581139 0.419323 1.581139 0 
C 1.581139 -0.419323 1.41454 -0.821528 1.118034 -1.118034 
C 0.821528 -1.41454 0.419323 -1.581139 0 -1.581139 
C -0.419323 -1.581139 -0.821528 -1.41454 -1.118034 -1.118034 
C -1.41454 -0.821528 -1.581139 -0.419323 -1.581139 0 
C -1.581139 0.419323 -1.41454 0.821528 -1.118034 1.118034 
C -0.821528 1.41454 -0.419323 1.581139 0 1.581139 
z
" style="stroke: #000000"/>
    </defs>
    <g clip-path="url(#p46ea07d34e)">
     <use xlink:href="#m4e23675be4" x="102.025353" y="118.686719" style="stroke: #000000"/>
     <use xlink:href="#m4e23675be4" x="100.389196" y="184.817179" style="stroke: #000000"/>
     <use xlink:href="#m4e23675be4" x="105.291462" y="145.972702" style="stroke: #000000"/>
     <use xlink:href="#m4e23675be4" x="101.89317" y="200.4129" style="stroke: #000000"/>
     <use xlink:href="#m4e23675be4" x="97.828276" y="153.255419" style="stroke: #000000"/>
     <use xlink:href="#m4e23675be4" x="103.522092" y="198.249585" style="stroke: #000000"/>
     <use xlink:href="#m4e23675be4" x="109.502358" y="143.374976" style="stroke: #000000"/>
     <use xlink:href="#m4e23675be4" x="107.237439" y="120.534829" style="stroke: #000000"/>
     <use xlink:href="#m4e23675be4" x="96.761772" y="198.342968" style="stroke: #000000"/>
     <use xlink:href="#m4e23675be4" x="93.197452" y="200.064626" style="stroke: #000000"/>
     <use xlink:href="#m4e23675be4" x="97.272356" y="200.001108" style="stroke: #000000"/>
     <use xlink:href="#m4e23675be4" x="101.489744" y="60.614487" style="stroke: #000000"/>
     <use xlink:href="#m4e23675be4" x="86.473436" y="163.990482" style="stroke: #000000"/>
     <use xlink:href="#m4e23675be4" x="99.839103" y="168.054007" style="stroke: #000000"/>
     <use xlink:href="#m4e23675be4" x="93.321261" y="137.769281" style="stroke: #000000"/>
     <use xlink:href="#m4e23675be4" x="96.580714" y="168.044222" style="stroke: #000000"/>
     <use xlink:href="#m4e23675be4" x="97.773769" y="112.605941" style="stroke: #000000"/>
     <use xlink:href="#m4e23675be4" x="99.220338" y="163.215289" style="stroke: #000000"/>
     <use xlink:href="#m4e23675be4" x="103.839604" y="110.097735" style="stroke: #000000"/>
     <use xlink:href="#m4e23675be4" x="107.843029" y="173.575867" style="stroke: #000000"/>
     <use xlink:href="#m4e23675be4" x="100.411851" y="184.039764" style="stroke: #000000"/>
     <use xlink:href="#m4e23675be4" x="109.898736" y="110.154661" style="stroke: #000000"/>
     <use xlink:href="#m4e23675be4" x="97.006341" y="111.49943" style="stroke: #000000"/>
     <use xlink:href="#m4e23675be4" x="103.458095" y="111.758525" style="stroke: #000000"/>
     <use xlink:href="#m4e23675be4" x="106.960696" y="123.820949" style="stroke: #000000"/>
     <use xlink:href="#m4e23675be4" x="101.824079" y="154.586465" style="stroke: #000000"/>
     <use xlink:href="#m4e23675be4" x="96.50944" y="149.564687" style="stroke: #000000"/>
     <use xlink:href="#m4e23675be4" x="95.378461" y="166.743957" style="stroke: #000000"/>
     <use xlink:href="#m4e23675be4" x="98.322886" y="178.798832" style="stroke: #000000"/>
     <use xlink:href="#m4e23675be4" x="102.624803" y="174.769391" style="stroke: #000000"/>
     <use xlink:href="#m4e23675be4" x="94.820715" y="175.208319" style="stroke: #000000"/>
     <use xlink:href="#m4e23675be4" x="99.900124" y="163.955503" style="stroke: #000000"/>
     <use xlink:href="#m4e23675be4" x="100.217098" y="140.035267" style="stroke: #000000"/>
     <use xlink:href="#m4e23675be4" x="104.659571" y="175.178113" style="stroke: #000000"/>
     <use xlink:href="#m4e23675be4" x="102.589673" y="176.814507" style="stroke: #000000"/>
     <use xlink:href="#m4e23675be4" x="103.482606" y="176.404464" style="stroke: #000000"/>
     <use xlink:href="#m4e23675be4" x="97.078467" y="75.119743" style="stroke: #000000"/>
     <use xlink:href="#m4e23675be4" x="100.405004" y="186.451019" style="stroke: #000000"/>
     <use xlink:href="#m4e23675be4" x="106.202412" y="190.239244" style="stroke: #000000"/>
     <use xlink:href="#m4e23675be4" x="110.704441" y="141.460041" style="stroke: #000000"/>
     <use xlink:href="#m4e23675be4" x="93.237785" y="199.544817" style="stroke: #000000"/>
     <use xlink:href="#m4e23675be4" x="110.834482" y="138.049373" style="stroke: #000000"/>
     <use xlink:href="#m4e23675be4" x="109.768089" y="201.018836" style="stroke: #000000"/>
     <use xlink:href="#m4e23675be4" x="106.185507" y="176.157135" style="stroke: #000000"/>
     <use xlink:href="#m4e23675be4" x="102.905669" y="137.981349" style="stroke: #000000"/>
     <use xlink:href="#m4e23675be4" x="99.235424" y="139.369588" style="stroke: #000000"/>
     <use xlink:href="#m4e23675be4" x="110.479735" y="138.787456" style="stroke: #000000"/>
     <use xlink:href="#m4e23675be4" x="113.666809" y="104.454958" style="stroke: #000000"/>
     <use xlink:href="#m4e23675be4" x="112.660224" y="187.847839" style="stroke: #000000"/>
     <use xlink:href="#m4e23675be4" x="109.57282" y="183.214296" style="stroke: #000000"/>
     <use xlink:href="#m4e23675be4" x="103.495347" y="148.430675" style="stroke: #000000"/>
     <use xlink:href="#m4e23675be4" x="93.559812" y="204.308918" style="stroke: #000000"/>
     <use xlink:href="#m4e23675be4" x="101.199235" y="138.281705" style="stroke: #000000"/>
     <use xlink:href="#m4e23675be4" x="105.393326" y="115.778486" style="stroke: #000000"/>
     <use xlink:href="#m4e23675be4" x="93.05188" y="204.008748" style="stroke: #000000"/>
     <use xlink:href="#m4e23675be4" x="103.734846" y="205.264635" style="stroke: #000000"/>
     <use xlink:href="#m4e23675be4" x="103.955308" y="202.184183" style="stroke: #000000"/>
     <use xlink:href="#m4e23675be4" x="105.644413" y="56.741268" style="stroke: #000000"/>
     <use xlink:href="#m4e23675be4" x="93.713383" y="158.883116" style="stroke: #000000"/>
     <use xlink:href="#m4e23675be4" x="97.028501" y="163.126844" style="stroke: #000000"/>
     <use xlink:href="#m4e23675be4" x="98.457991" y="144.9641" style="stroke: #000000"/>
     <use xlink:href="#m4e23675be4" x="93.80423" y="195.755818" style="stroke: #000000"/>
     <use xlink:href="#m4e23675be4" x="112.265094" y="169.078212" style="stroke: #000000"/>
     <use xlink:href="#m4e23675be4" x="98.080574" y="144.905859" style="stroke: #000000"/>
     <use xlink:href="#m4e23675be4" x="103.315059" y="146.345239" style="stroke: #000000"/>
     <use xlink:href="#m4e23675be4" x="99.586663" y="145.815007" style="stroke: #000000"/>
     <use xlink:href="#m4e23675be4" x="111.275823" y="98.195637" style="stroke: #000000"/>
     <use xlink:href="#m4e23675be4" x="109.606181" y="196.638342" style="stroke: #000000"/>
     <use xlink:href="#m4e23675be4" x="105.246597" y="191.402296" style="stroke: #000000"/>
     <use xlink:href="#m4e23675be4" x="87.244577" y="135.100949" style="stroke: #000000"/>
     <use xlink:href="#m4e23675be4" x="101.557663" y="112.800566" style="stroke: #000000"/>
     <use xlink:href="#m4e23675be4" x="105.566002" y="208.715407" style="stroke: #000000"/>
     <use xlink:href="#m4e23675be4" x="107.598389" y="207.420315" style="stroke: #000000"/>
     <use xlink:href="#m4e23675be4" x="97.306416" y="205.283428" style="stroke: #000000"/>
     <use xlink:href="#m4e23675be4" x="112.789529" y="54.63099" style="stroke: #000000"/>
     <use xlink:href="#m4e23675be4" x="92.848375" y="155.28144" style="stroke: #000000"/>
     <use xlink:href="#m4e23675be4" x="97.029609" y="159.403252" style="stroke: #000000"/>
     <use xlink:href="#m4e23675be4" x="107.161093" y="179.392118" style="stroke: #000000"/>
     <use xlink:href="#m4e23675be4" x="101.538788" y="135.074782" style="stroke: #000000"/>
     <use xlink:href="#m4e23675be4" x="113.934183" y="136.470888" style="stroke: #000000"/>
     <use xlink:href="#m4e23675be4" x="102.423796" y="136.148181" style="stroke: #000000"/>
     <use xlink:href="#m4e23675be4" x="97.209409" y="107.620521" style="stroke: #000000"/>
     <use xlink:href="#m4e23675be4" x="98.831576" y="184.250248" style="stroke: #000000"/>
     <use xlink:href="#m4e23675be4" x="94.30336" y="180.006308" style="stroke: #000000"/>
     <use xlink:href="#m4e23675be4" x="93.119661" y="112.78958" style="stroke: #000000"/>
     <use xlink:href="#m4e23675be4" x="105.227934" y="114.088891" style="stroke: #000000"/>
     <use xlink:href="#m4e23675be4" x="104.915433" y="113.846933" style="stroke: #000000"/>
     <use xlink:href="#m4e23675be4" x="109.442447" y="126.909357" style="stroke: #000000"/>
     <use xlink:href="#m4e23675be4" x="96.43896" y="158.675521" style="stroke: #000000"/>
     <use xlink:href="#m4e23675be4" x="111.946154" y="154.597766" style="stroke: #000000"/>
     <use xlink:href="#m4e23675be4" x="99.403809" y="207.483201" style="stroke: #000000"/>
     <use xlink:href="#m4e23675be4" x="111.218301" y="205.739633" style="stroke: #000000"/>
     <use xlink:href="#m4e23675be4" x="98.481149" y="54.634168" style="stroke: #000000"/>
     <use xlink:href="#m4e23675be4" x="96.560307" y="155.225265" style="stroke: #000000"/>
     <use xlink:href="#m4e23675be4" x="102.812576" y="159.331313" style="stroke: #000000"/>
     <use xlink:href="#m4e23675be4" x="107.772843" y="205.931433" style="stroke: #000000"/>
     <use xlink:href="#m4e23675be4" x="102.249227" y="55.618525" style="stroke: #000000"/>
     <use xlink:href="#m4e23675be4" x="97.51188" y="156.736839" style="stroke: #000000"/>
     <use xlink:href="#m4e23675be4" x="92.716455" y="160.858893" style="stroke: #000000"/>
     <use xlink:href="#m4e23675be4" x="92.333803" y="55.556657" style="stroke: #000000"/>
     <use xlink:href="#m4e23675be4" x="104.4174" y="156.193819" style="stroke: #000000"/>
     <use xlink:href="#m4e23675be4" x="107.507971" y="160.197588" style="stroke: #000000"/>
     <use xlink:href="#m4e23675be4" x="100.184928" y="89.590846" style="stroke: #000000"/>
     <use xlink:href="#m4e23675be4" x="94.409849" y="86.419152" style="stroke: #000000"/>
     <use xlink:href="#m4e23675be4" x="106.767607" y="200.85687" style="stroke: #000000"/>
    </g>
   </g>
   <g id="PathCollection_2">
    <g clip-path="url(#p46ea07d34e)">
     <use xlink:href="#m4e23675be4" x="220.01744" y="203.379424" style="stroke: #000000"/>
     <use xlink:href="#m4e23675be4" x="223.617548" y="200.823178" style="stroke: #000000"/>
     <use xlink:href="#m4e23675be4" x="232.083324" y="132.971562" style="stroke: #000000"/>
     <use xlink:href="#m4e23675be4" x="213.863667" y="147.384011" style="stroke: #000000"/>
     <use xlink:href="#m4e23675be4" x="230.594305" y="193.791924" style="stroke: #000000"/>
     <use xlink:href="#m4e23675be4" x="224.451553" y="143.799985" style="stroke: #000000"/>
     <use xlink:href="#m4e23675be4" x="228.835962" y="190.545175" style="stroke: #000000"/>
     <use xlink:href="#m4e23675be4" x="227.662117" y="135.211549" style="stroke: #000000"/>
     <use xlink:href="#m4e23675be4" x="229.425067" y="190.954755" style="stroke: #000000"/>
     <use xlink:href="#m4e23675be4" x="232.547542" y="188.700995" style="stroke: #000000"/>
     <use xlink:href="#m4e23675be4" x="223.330075" y="191.640512" style="stroke: #000000"/>
     <use xlink:href="#m4e23675be4" x="237.159697" y="202.61296" style="stroke: #000000"/>
     <use xlink:href="#m4e23675be4" x="232.75011" y="144.13445" style="stroke: #000000"/>
     <use xlink:href="#m4e23675be4" x="233.496617" y="190.672239" style="stroke: #000000"/>
     <use xlink:href="#m4e23675be4" x="235.534436" y="133.046405" style="stroke: #000000"/>
     <use xlink:href="#m4e23675be4" x="233.140338" y="199.020152" style="stroke: #000000"/>
     <use xlink:href="#m4e23675be4" x="233.498812" y="198.226371" style="stroke: #000000"/>
     <use xlink:href="#m4e23675be4" x="228.622198" y="205.38778" style="stroke: #000000"/>
     <use xlink:href="#m4e23675be4" x="219.08855" y="185.795424" style="stroke: #000000"/>
     <use xlink:href="#m4e23675be4" x="227.285538" y="139.768515" style="stroke: #000000"/>
     <use xlink:href="#m4e23675be4" x="223.259352" y="157.649311" style="stroke: #000000"/>
     <use xlink:href="#m4e23675be4" x="219.114136" y="162.383276" style="stroke: #000000"/>
     <use xlink:href="#m4e23675be4" x="229.782577" y="201.836188" style="stroke: #000000"/>
     <use xlink:href="#m4e23675be4" x="224.534627" y="172.610936" style="stroke: #000000"/>
     <use xlink:href="#m4e23675be4" x="221.607618" y="199.6429" style="stroke: #000000"/>
     <use xlink:href="#m4e23675be4" x="221.523876" y="151.868138" style="stroke: #000000"/>
     <use xlink:href="#m4e23675be4" x="229.845808" y="167.685975" style="stroke: #000000"/>
     <use xlink:href="#m4e23675be4" x="230.418543" y="178.28346" style="stroke: #000000"/>
     <use xlink:href="#m4e23675be4" x="236.534484" y="175.112885" style="stroke: #000000"/>
     <use xlink:href="#m4e23675be4" x="228.054201" y="183.109539" style="stroke: #000000"/>
     <use xlink:href="#m4e23675be4" x="234.753755" y="161.480181" style="stroke: #000000"/>
     <use xlink:href="#m4e23675be4" x="237.040922" y="134.917722" style="stroke: #000000"/>
     <use xlink:href="#m4e23675be4" x="235.441164" y="147.669689" style="stroke: #000000"/>
     <use xlink:href="#m4e23675be4" x="213.132873" y="159.921748" style="stroke: #000000"/>
     <use xlink:href="#m4e23675be4" x="235.93942" y="178.606659" style="stroke: #000000"/>
     <use xlink:href="#m4e23675be4" x="230.297644" y="116.493763" style="stroke: #000000"/>
     <use xlink:href="#m4e23675be4" x="230.831647" y="147.876825" style="stroke: #000000"/>
     <use xlink:href="#m4e23675be4" x="230.498216" y="117.988114" style="stroke: #000000"/>
     <use xlink:href="#m4e23675be4" x="230.571381" y="136.896379" style="stroke: #000000"/>
     <use xlink:href="#m4e23675be4" x="230.169423" y="142.953038" style="stroke: #000000"/>
     <use xlink:href="#m4e23675be4" x="225.864926" y="180.956729" style="stroke: #000000"/>
     <use xlink:href="#m4e23675be4" x="216.075198" y="119.32295" style="stroke: #000000"/>
     <use xlink:href="#m4e23675be4" x="227.451354" y="118.544658" style="stroke: #000000"/>
     <use xlink:href="#m4e23675be4" x="223.042219" y="161.89205" style="stroke: #000000"/>
     <use xlink:href="#m4e23675be4" x="234.996947" y="112.687388" style="stroke: #000000"/>
     <use xlink:href="#m4e23675be4" x="226.31006" y="111.308312" style="stroke: #000000"/>
     <use xlink:href="#m4e23675be4" x="228.672214" y="111.698742" style="stroke: #000000"/>
     <use xlink:href="#m4e23675be4" x="222.751113" y="186.549788" style="stroke: #000000"/>
     <use xlink:href="#m4e23675be4" x="224.902217" y="131.389252" style="stroke: #000000"/>
     <use xlink:href="#m4e23675be4" x="228.069314" y="134.518246" style="stroke: #000000"/>
     <use xlink:href="#m4e23675be4" x="218.71668" y="184.435012" style="stroke: #000000"/>
     <use xlink:href="#m4e23675be4" x="230.050573" y="139.236016" style="stroke: #000000"/>
     <use xlink:href="#m4e23675be4" x="227.469392" y="112.672588" style="stroke: #000000"/>
     <use xlink:href="#m4e23675be4" x="220.618219" y="131.571577" style="stroke: #000000"/>
     <use xlink:href="#m4e23675be4" x="212.923914" y="165.940526" style="stroke: #000000"/>
     <use xlink:href="#m4e23675be4" x="231.398201" y="157.536272" style="stroke: #000000"/>
     <use xlink:href="#m4e23675be4" x="226.254106" y="111.561541" style="stroke: #000000"/>
     <use xlink:href="#m4e23675be4" x="224.779199" y="117.995505" style="stroke: #000000"/>
     <use xlink:href="#m4e23675be4" x="226.643922" y="158.362016" style="stroke: #000000"/>
     <use xlink:href="#m4e23675be4" x="239.669402" y="128.378832" style="stroke: #000000"/>
     <use xlink:href="#m4e23675be4" x="227.826476" y="162.809324" style="stroke: #000000"/>
     <use xlink:href="#m4e23675be4" x="228.692164" y="178.685854" style="stroke: #000000"/>
     <use xlink:href="#m4e23675be4" x="218.705907" y="179.53591" style="stroke: #000000"/>
     <use xlink:href="#m4e23675be4" x="238.596102" y="199.96687" style="stroke: #000000"/>
     <use xlink:href="#m4e23675be4" x="233.964649" y="178.653945" style="stroke: #000000"/>
     <use xlink:href="#m4e23675be4" x="234.913002" y="170.634222" style="stroke: #000000"/>
     <use xlink:href="#m4e23675be4" x="228.445019" y="133.906107" style="stroke: #000000"/>
     <use xlink:href="#m4e23675be4" x="233.959362" y="128.937504" style="stroke: #000000"/>
     <use xlink:href="#m4e23675be4" x="230.496436" y="198.070421" style="stroke: #000000"/>
     <use xlink:href="#m4e23675be4" x="232.033645" y="181.007914" style="stroke: #000000"/>
     <use xlink:href="#m4e23675be4" x="227.176722" y="202.947519" style="stroke: #000000"/>
     <use xlink:href="#m4e23675be4" x="218.789576" y="149.949233" style="stroke: #000000"/>
     <use xlink:href="#m4e23675be4" x="234.671352" y="183.397162" style="stroke: #000000"/>
     <use xlink:href="#m4e23675be4" x="215.86373" y="175.930529" style="stroke: #000000"/>
     <use xlink:href="#m4e23675be4" x="226.619922" y="195.528882" style="stroke: #000000"/>
     <use xlink:href="#m4e23675be4" x="226.844651" y="193.447418" style="stroke: #000000"/>
     <use xlink:href="#m4e23675be4" x="221.52477" y="126.33728" style="stroke: #000000"/>
     <use xlink:href="#m4e23675be4" x="232.033226" y="148.16138" style="stroke: #000000"/>
     <use xlink:href="#m4e23675be4" x="226.871258" y="202.043701" style="stroke: #000000"/>
     <use xlink:href="#m4e23675be4" x="225.370243" y="175.347454" style="stroke: #000000"/>
     <use xlink:href="#m4e23675be4" x="231.441286" y="196.651729" style="stroke: #000000"/>
     <use xlink:href="#m4e23675be4" x="225.118249" y="125.150414" style="stroke: #000000"/>
     <use xlink:href="#m4e23675be4" x="236.95662" y="176.303005" style="stroke: #000000"/>
     <use xlink:href="#m4e23675be4" x="230.372746" y="200.371714" style="stroke: #000000"/>
     <use xlink:href="#m4e23675be4" x="225.132501" y="200.165867" style="stroke: #000000"/>
     <use xlink:href="#m4e23675be4" x="215.804681" y="157.6423" style="stroke: #000000"/>
     <use xlink:href="#m4e23675be4" x="219.843825" y="186.259024" style="stroke: #000000"/>
     <use xlink:href="#m4e23675be4" x="235.039256" y="195.261293" style="stroke: #000000"/>
     <use xlink:href="#m4e23675be4" x="227.821379" y="187.408322" style="stroke: #000000"/>
     <use xlink:href="#m4e23675be4" x="226.345859" y="200.139045" style="stroke: #000000"/>
     <use xlink:href="#m4e23675be4" x="238.570164" y="159.05337" style="stroke: #000000"/>
     <use xlink:href="#m4e23675be4" x="220.003129" y="179.666385" style="stroke: #000000"/>
     <use xlink:href="#m4e23675be4" x="224.426062" y="136.386464" style="stroke: #000000"/>
     <use xlink:href="#m4e23675be4" x="225.143577" y="158.128212" style="stroke: #000000"/>
     <use xlink:href="#m4e23675be4" x="231.86325" y="151.247308" style="stroke: #000000"/>
     <use xlink:href="#m4e23675be4" x="223.931872" y="161.139145" style="stroke: #000000"/>
     <use xlink:href="#m4e23675be4" x="224.249904" y="174.115531" style="stroke: #000000"/>
     <use xlink:href="#m4e23675be4" x="217.956623" y="199.973437" style="stroke: #000000"/>
     <use xlink:href="#m4e23675be4" x="232.770769" y="138.569799" style="stroke: #000000"/>
     <use xlink:href="#m4e23675be4" x="233.258059" y="138.067254" style="stroke: #000000"/>
     <use xlink:href="#m4e23675be4" x="225.119532" y="162.535927" style="stroke: #000000"/>
     <use xlink:href="#m4e23675be4" x="229.179014" y="164.51951" style="stroke: #000000"/>
     <use xlink:href="#m4e23675be4" x="219.939691" y="138.476494" style="stroke: #000000"/>
     <use xlink:href="#m4e23675be4" x="225.148492" y="185.099126" style="stroke: #000000"/>
     <use xlink:href="#m4e23675be4" x="236.886632" y="176.875083" style="stroke: #000000"/>
     <use xlink:href="#m4e23675be4" x="229.003813" y="137.863619" style="stroke: #000000"/>
     <use xlink:href="#m4e23675be4" x="242.803489" y="171.161872" style="stroke: #000000"/>
     <use xlink:href="#m4e23675be4" x="223.147172" y="55.342406" style="stroke: #000000"/>
     <use xlink:href="#m4e23675be4" x="231.82484" y="139.167263" style="stroke: #000000"/>
     <use xlink:href="#m4e23675be4" x="226.901869" y="139.958717" style="stroke: #000000"/>
     <use xlink:href="#m4e23675be4" x="231.733039" y="150.851041" style="stroke: #000000"/>
     <use xlink:href="#m4e23675be4" x="228.096739" y="160.785322" style="stroke: #000000"/>
     <use xlink:href="#m4e23675be4" x="224.581277" y="141.040596" style="stroke: #000000"/>
     <use xlink:href="#m4e23675be4" x="222.636821" y="183.493798" style="stroke: #000000"/>
     <use xlink:href="#m4e23675be4" x="247.598803" y="143.170064" style="stroke: #000000"/>
     <use xlink:href="#m4e23675be4" x="227.651688" y="185.782481" style="stroke: #000000"/>
     <use xlink:href="#m4e23675be4" x="215.345275" y="163.074031" style="stroke: #000000"/>
     <use xlink:href="#m4e23675be4" x="224.026643" y="171.469749" style="stroke: #000000"/>
     <use xlink:href="#m4e23675be4" x="232.445171" y="162.846082" style="stroke: #000000"/>
     <use xlink:href="#m4e23675be4" x="224.969571" y="139.73222" style="stroke: #000000"/>
     <use xlink:href="#m4e23675be4" x="236.775551" y="180.91924" style="stroke: #000000"/>
     <use xlink:href="#m4e23675be4" x="234.503469" y="126.064929" style="stroke: #000000"/>
     <use xlink:href="#m4e23675be4" x="227.175797" y="190.277424" style="stroke: #000000"/>
     <use xlink:href="#m4e23675be4" x="225.145936" y="173.748316" style="stroke: #000000"/>
     <use xlink:href="#m4e23675be4" x="221.766284" y="193.258927" style="stroke: #000000"/>
     <use xlink:href="#m4e23675be4" x="223.700687" y="201.181532" style="stroke: #000000"/>
     <use xlink:href="#m4e23675be4" x="218.794302" y="80.469816" style="stroke: #000000"/>
     <use xlink:href="#m4e23675be4" x="235.785298" y="129.61604" style="stroke: #000000"/>
     <use xlink:href="#m4e23675be4" x="238.23669" y="200.777547" style="stroke: #000000"/>
     <use xlink:href="#m4e23675be4" x="220.171362" y="205.565081" style="stroke: #000000"/>
     <use xlink:href="#m4e23675be4" x="220.643835" y="164.346653" style="stroke: #000000"/>
     <use xlink:href="#m4e23675be4" x="216.919966" y="171.907501" style="stroke: #000000"/>
     <use xlink:href="#m4e23675be4" x="222.026122" y="200.399272" style="stroke: #000000"/>
     <use xlink:href="#m4e23675be4" x="208.430463" y="97.031216" style="stroke: #000000"/>
     <use xlink:href="#m4e23675be4" x="220.893883" y="121.701136" style="stroke: #000000"/>
     <use xlink:href="#m4e23675be4" x="236.372401" y="76.569932" style="stroke: #000000"/>
     <use xlink:href="#m4e23675be4" x="225.948949" y="156.171066" style="stroke: #000000"/>
     <use xlink:href="#m4e23675be4" x="233.565478" y="101.421871" style="stroke: #000000"/>
     <use xlink:href="#m4e23675be4" x="225.039625" y="191.674152" style="stroke: #000000"/>
     <use xlink:href="#m4e23675be4" x="239.315254" y="128.999686" style="stroke: #000000"/>
     <use xlink:href="#m4e23675be4" x="229.406688" y="154.010105" style="stroke: #000000"/>
     <use xlink:href="#m4e23675be4" x="225.718409" y="182.836027" style="stroke: #000000"/>
     <use xlink:href="#m4e23675be4" x="244.339545" y="177.694979" style="stroke: #000000"/>
     <use xlink:href="#m4e23675be4" x="226.083483" y="199.683261" style="stroke: #000000"/>
     <use xlink:href="#m4e23675be4" x="220.392922" y="119.755394" style="stroke: #000000"/>
     <use xlink:href="#m4e23675be4" x="229.42377" y="138.679967" style="stroke: #000000"/>
     <use xlink:href="#m4e23675be4" x="227.896063" y="160.914231" style="stroke: #000000"/>
     <use xlink:href="#m4e23675be4" x="234.909129" y="193.680462" style="stroke: #000000"/>
     <use xlink:href="#m4e23675be4" x="222.294042" y="204.017604" style="stroke: #000000"/>
     <use xlink:href="#m4e23675be4" x="233.249032" y="201.723787" style="stroke: #000000"/>
     <use xlink:href="#m4e23675be4" x="233.553829" y="161.99803" style="stroke: #000000"/>
     <use xlink:href="#m4e23675be4" x="223.905523" y="170.93927" style="stroke: #000000"/>
     <use xlink:href="#m4e23675be4" x="229.178406" y="190.792422" style="stroke: #000000"/>
     <use xlink:href="#m4e23675be4" x="222.870756" y="174.511601" style="stroke: #000000"/>
     <use xlink:href="#m4e23675be4" x="243.028412" y="149.220087" style="stroke: #000000"/>
     <use xlink:href="#m4e23675be4" x="223.674206" y="177.332682" style="stroke: #000000"/>
     <use xlink:href="#m4e23675be4" x="225.267403" y="176.058721" style="stroke: #000000"/>
     <use xlink:href="#m4e23675be4" x="221.378958" y="158.103476" style="stroke: #000000"/>
     <use xlink:href="#m4e23675be4" x="225.946101" y="146.088249" style="stroke: #000000"/>
     <use xlink:href="#m4e23675be4" x="228.105212" y="177.752365" style="stroke: #000000"/>
     <use xlink:href="#m4e23675be4" x="233.014698" y="146.236024" style="stroke: #000000"/>
     <use xlink:href="#m4e23675be4" x="224.268504" y="195.077244" style="stroke: #000000"/>
     <use xlink:href="#m4e23675be4" x="226.963625" y="158.112006" style="stroke: #000000"/>
     <use xlink:href="#m4e23675be4" x="219.153813" y="85.562061" style="stroke: #000000"/>
     <use xlink:href="#m4e23675be4" x="222.892012" y="181.691992" style="stroke: #000000"/>
     <use xlink:href="#m4e23675be4" x="245.630166" y="131.937083" style="stroke: #000000"/>
     <use xlink:href="#m4e23675be4" x="234.749969" y="164.182277" style="stroke: #000000"/>
     <use xlink:href="#m4e23675be4" x="223.183778" y="185.466025" style="stroke: #000000"/>
     <use xlink:href="#m4e23675be4" x="219.655711" y="151.986258" style="stroke: #000000"/>
     <use xlink:href="#m4e23675be4" x="221.951695" y="199.855314" style="stroke: #000000"/>
     <use xlink:href="#m4e23675be4" x="228.004855" y="147.815326" style="stroke: #000000"/>
     <use xlink:href="#m4e23675be4" x="228.362874" y="187.063227" style="stroke: #000000"/>
     <use xlink:href="#m4e23675be4" x="223.418974" y="154.346896" style="stroke: #000000"/>
     <use xlink:href="#m4e23675be4" x="219.97822" y="148.528752" style="stroke: #000000"/>
     <use xlink:href="#m4e23675be4" x="237.168558" y="158.057121" style="stroke: #000000"/>
     <use xlink:href="#m4e23675be4" x="231.008783" y="172.086915" style="stroke: #000000"/>
     <use xlink:href="#m4e23675be4" x="225.765585" y="190.859749" style="stroke: #000000"/>
     <use xlink:href="#m4e23675be4" x="226.742239" y="162.767846" style="stroke: #000000"/>
     <use xlink:href="#m4e23675be4" x="224.782232" y="171.293968" style="stroke: #000000"/>
     <use xlink:href="#m4e23675be4" x="209.51109" y="162.32484" style="stroke: #000000"/>
     <use xlink:href="#m4e23675be4" x="228.876461" y="104.191222" style="stroke: #000000"/>
     <use xlink:href="#m4e23675be4" x="221.349093" y="160.957425" style="stroke: #000000"/>
     <use xlink:href="#m4e23675be4" x="221.779716" y="203.991892" style="stroke: #000000"/>
     <use xlink:href="#m4e23675be4" x="224.079555" y="110.872994" style="stroke: #000000"/>
     <use xlink:href="#m4e23675be4" x="232.789504" y="155.382807" style="stroke: #000000"/>
     <use xlink:href="#m4e23675be4" x="220.714604" y="145.239001" style="stroke: #000000"/>
     <use xlink:href="#m4e23675be4" x="219.040908" y="87.056244" style="stroke: #000000"/>
     <use xlink:href="#m4e23675be4" x="232.202841" y="176.460618" style="stroke: #000000"/>
     <use xlink:href="#m4e23675be4" x="232.929536" y="171.454911" style="stroke: #000000"/>
     <use xlink:href="#m4e23675be4" x="222.057346" y="158.598622" style="stroke: #000000"/>
     <use xlink:href="#m4e23675be4" x="231.711335" y="169.560507" style="stroke: #000000"/>
     <use xlink:href="#m4e23675be4" x="226.291874" y="203.867879" style="stroke: #000000"/>
     <use xlink:href="#m4e23675be4" x="230.054425" y="199.428822" style="stroke: #000000"/>
     <use xlink:href="#m4e23675be4" x="220.140761" y="180.654134" style="stroke: #000000"/>
     <use xlink:href="#m4e23675be4" x="233.42784" y="105.684977" style="stroke: #000000"/>
     <use xlink:href="#m4e23675be4" x="235.778081" y="199.794229" style="stroke: #000000"/>
     <use xlink:href="#m4e23675be4" x="232.185207" y="188.212534" style="stroke: #000000"/>
     <use xlink:href="#m4e23675be4" x="231.685586" y="202.623112" style="stroke: #000000"/>
     <use xlink:href="#m4e23675be4" x="204.204585" y="120.554869" style="stroke: #000000"/>
     <use xlink:href="#m4e23675be4" x="229.796391" y="194.092552" style="stroke: #000000"/>
     <use xlink:href="#m4e23675be4" x="227.98103" y="125.822642" style="stroke: #000000"/>
     <use xlink:href="#m4e23675be4" x="227.209386" y="183.363251" style="stroke: #000000"/>
     <use xlink:href="#m4e23675be4" x="224.14101" y="208.759091" style="stroke: #000000"/>
     <use xlink:href="#m4e23675be4" x="228.493832" y="204.321009" style="stroke: #000000"/>
     <use xlink:href="#m4e23675be4" x="230.757694" y="78.253792" style="stroke: #000000"/>
     <use xlink:href="#m4e23675be4" x="226.468566" y="198.0887" style="stroke: #000000"/>
     <use xlink:href="#m4e23675be4" x="225.202361" y="168.835173" style="stroke: #000000"/>
     <use xlink:href="#m4e23675be4" x="235.94621" y="202.692029" style="stroke: #000000"/>
     <use xlink:href="#m4e23675be4" x="221.128117" y="187.285133" style="stroke: #000000"/>
     <use xlink:href="#m4e23675be4" x="234.679607" y="120.61502" style="stroke: #000000"/>
     <use xlink:href="#m4e23675be4" x="229.264508" y="137.741837" style="stroke: #000000"/>
     <use xlink:href="#m4e23675be4" x="223.038577" y="172.815572" style="stroke: #000000"/>
     <use xlink:href="#m4e23675be4" x="226.302347" y="136.663408" style="stroke: #000000"/>
     <use xlink:href="#m4e23675be4" x="222.304451" y="99.867413" style="stroke: #000000"/>
     <use xlink:href="#m4e23675be4" x="232.426291" y="185.94904" style="stroke: #000000"/>
     <use xlink:href="#m4e23675be4" x="230.350198" y="137.234931" style="stroke: #000000"/>
     <use xlink:href="#m4e23675be4" x="224.609211" y="178.691475" style="stroke: #000000"/>
     <use xlink:href="#m4e23675be4" x="221.148098" y="159.070093" style="stroke: #000000"/>
     <use xlink:href="#m4e23675be4" x="230.057115" y="183.590269" style="stroke: #000000"/>
     <use xlink:href="#m4e23675be4" x="234.21783" y="159.647356" style="stroke: #000000"/>
     <use xlink:href="#m4e23675be4" x="227.420123" y="173.73073" style="stroke: #000000"/>
     <use xlink:href="#m4e23675be4" x="230.79726" y="192.577633" style="stroke: #000000"/>
     <use xlink:href="#m4e23675be4" x="225.756326" y="198.418302" style="stroke: #000000"/>
     <use xlink:href="#m4e23675be4" x="228.571277" y="156.269841" style="stroke: #000000"/>
     <use xlink:href="#m4e23675be4" x="226.294091" y="155.718231" style="stroke: #000000"/>
     <use xlink:href="#m4e23675be4" x="230.008418" y="191.028752" style="stroke: #000000"/>
     <use xlink:href="#m4e23675be4" x="218.561861" y="144.075081" style="stroke: #000000"/>
     <use xlink:href="#m4e23675be4" x="232.230372" y="191.918782" style="stroke: #000000"/>
     <use xlink:href="#m4e23675be4" x="226.683406" y="148.915282" style="stroke: #000000"/>
     <use xlink:href="#m4e23675be4" x="230.418137" y="170.040158" style="stroke: #000000"/>
     <use xlink:href="#m4e23675be4" x="225.982977" y="141.388893" style="stroke: #000000"/>
     <use xlink:href="#m4e23675be4" x="230.175432" y="172.037949" style="stroke: #000000"/>
     <use xlink:href="#m4e23675be4" x="221.336285" y="172.047999" style="stroke: #000000"/>
     <use xlink:href="#m4e23675be4" x="235.688577" y="142.997114" style="stroke: #000000"/>
     <use xlink:href="#m4e23675be4" x="217.332232" y="149.025197" style="stroke: #000000"/>
     <use xlink:href="#m4e23675be4" x="221.54775" y="142.380132" style="stroke: #000000"/>
     <use xlink:href="#m4e23675be4" x="229.637978" y="172.771442" style="stroke: #000000"/>
     <use xlink:href="#m4e23675be4" x="237.425331" y="177.103898" style="stroke: #000000"/>
     <use xlink:href="#m4e23675be4" x="229.90742" y="153.849927" style="stroke: #000000"/>
     <use xlink:href="#m4e23675be4" x="226.569335" y="175.45877" style="stroke: #000000"/>
     <use xlink:href="#m4e23675be4" x="219.099234" y="158.349772" style="stroke: #000000"/>
     <use xlink:href="#m4e23675be4" x="226.928706" y="134.22122" style="stroke: #000000"/>
     <use xlink:href="#m4e23675be4" x="228.016365" y="183.296611" style="stroke: #000000"/>
     <use xlink:href="#m4e23675be4" x="238.870426" y="128.11297" style="stroke: #000000"/>
     <use xlink:href="#m4e23675be4" x="232.090351" y="159.355793" style="stroke: #000000"/>
     <use xlink:href="#m4e23675be4" x="218.439259" y="123.034245" style="stroke: #000000"/>
     <use xlink:href="#m4e23675be4" x="241.003933" y="118.065627" style="stroke: #000000"/>
     <use xlink:href="#m4e23675be4" x="225.635866" y="184.124384" style="stroke: #000000"/>
     <use xlink:href="#m4e23675be4" x="222.561669" y="135.829244" style="stroke: #000000"/>
     <use xlink:href="#m4e23675be4" x="237.501356" y="118.821168" style="stroke: #000000"/>
     <use xlink:href="#m4e23675be4" x="227.826762" y="202.496165" style="stroke: #000000"/>
     <use xlink:href="#m4e23675be4" x="225.811055" y="116.682528" style="stroke: #000000"/>
     <use xlink:href="#m4e23675be4" x="229.530861" y="141.741327" style="stroke: #000000"/>
     <use xlink:href="#m4e23675be4" x="233.503953" y="174.045687" style="stroke: #000000"/>
     <use xlink:href="#m4e23675be4" x="234.445963" y="180.164195" style="stroke: #000000"/>
     <use xlink:href="#m4e23675be4" x="219.415809" y="140.908933" style="stroke: #000000"/>
     <use xlink:href="#m4e23675be4" x="240.824364" y="134.881766" style="stroke: #000000"/>
     <use xlink:href="#m4e23675be4" x="234.151047" y="164.58598" style="stroke: #000000"/>
     <use xlink:href="#m4e23675be4" x="225.736185" y="135.11934" style="stroke: #000000"/>
     <use xlink:href="#m4e23675be4" x="222.947489" y="192.223461" style="stroke: #000000"/>
     <use xlink:href="#m4e23675be4" x="221.993389" y="182.829029" style="stroke: #000000"/>
     <use xlink:href="#m4e23675be4" x="228.925429" y="117.362263" style="stroke: #000000"/>
     <use xlink:href="#m4e23675be4" x="224.030351" y="113.467353" style="stroke: #000000"/>
     <use xlink:href="#m4e23675be4" x="223.288801" y="194.816168" style="stroke: #000000"/>
     <use xlink:href="#m4e23675be4" x="233.290518" y="130.294907" style="stroke: #000000"/>
     <use xlink:href="#m4e23675be4" x="230.455953" y="128.968419" style="stroke: #000000"/>
     <use xlink:href="#m4e23675be4" x="225.638649" y="118.213494" style="stroke: #000000"/>
     <use xlink:href="#m4e23675be4" x="232.801852" y="123.023327" style="stroke: #000000"/>
     <use xlink:href="#m4e23675be4" x="236.819543" y="195.765073" style="stroke: #000000"/>
     <use xlink:href="#m4e23675be4" x="221.1971" y="123.801507" style="stroke: #000000"/>
     <use xlink:href="#m4e23675be4" x="224.314161" y="111.671228" style="stroke: #000000"/>
     <use xlink:href="#m4e23675be4" x="234.124143" y="189.518898" style="stroke: #000000"/>
     <use xlink:href="#m4e23675be4" x="232.704717" y="145.941542" style="stroke: #000000"/>
     <use xlink:href="#m4e23675be4" x="229.581074" y="203.165353" style="stroke: #000000"/>
     <use xlink:href="#m4e23675be4" x="235.518934" y="202.890951" style="stroke: #000000"/>
     <use xlink:href="#m4e23675be4" x="221.23698" y="172.494618" style="stroke: #000000"/>
     <use xlink:href="#m4e23675be4" x="218.756261" y="195.782369" style="stroke: #000000"/>
     <use xlink:href="#m4e23675be4" x="222.643861" y="176.616103" style="stroke: #000000"/>
     <use xlink:href="#m4e23675be4" x="228.920134" y="88.40004" style="stroke: #000000"/>
     <use xlink:href="#m4e23675be4" x="223.090732" y="203.424704" style="stroke: #000000"/>
     <use xlink:href="#m4e23675be4" x="225.050735" y="96.354744" style="stroke: #000000"/>
     <use xlink:href="#m4e23675be4" x="221.955393" y="206.447945" style="stroke: #000000"/>
     <use xlink:href="#m4e23675be4" x="224.205412" y="57.601284" style="stroke: #000000"/>
     <use xlink:href="#m4e23675be4" x="221.766372" y="188.318768" style="stroke: #000000"/>
     <use xlink:href="#m4e23675be4" x="230.474349" y="194.80011" style="stroke: #000000"/>
     <use xlink:href="#m4e23675be4" x="233.18668" y="186.821667" style="stroke: #000000"/>
     <use xlink:href="#m4e23675be4" x="225.09371" y="199.737192" style="stroke: #000000"/>
     <use xlink:href="#m4e23675be4" x="226.827243" y="160.874984" style="stroke: #000000"/>
     <use xlink:href="#m4e23675be4" x="224.455413" y="166.898696" style="stroke: #000000"/>
     <use xlink:href="#m4e23675be4" x="231.513687" y="110.074528" style="stroke: #000000"/>
     <use xlink:href="#m4e23675be4" x="228.707627" y="198.020462" style="stroke: #000000"/>
     <use xlink:href="#m4e23675be4" x="238.258621" y="122.805247" style="stroke: #000000"/>
     <use xlink:href="#m4e23675be4" x="221.190908" y="89.965969" style="stroke: #000000"/>
     <use xlink:href="#m4e23675be4" x="230.44285" y="106.90096" style="stroke: #000000"/>
     <use xlink:href="#m4e23675be4" x="230.959958" y="72.132126" style="stroke: #000000"/>
     <use xlink:href="#m4e23675be4" x="225.855237" y="121.758473" style="stroke: #000000"/>
     <use xlink:href="#m4e23675be4" x="231.845462" y="114.997963" style="stroke: #000000"/>
     <use xlink:href="#m4e23675be4" x="219.013995" y="187.240971" style="stroke: #000000"/>
     <use xlink:href="#m4e23675be4" x="241.587894" y="35.540909" style="stroke: #000000"/>
     <use xlink:href="#m4e23675be4" x="219.626221" y="106.821914" style="stroke: #000000"/>
     <use xlink:href="#m4e23675be4" x="233.979367" y="206.858246" style="stroke: #000000"/>
     <use xlink:href="#m4e23675be4" x="221.028136" y="200.293378" style="stroke: #000000"/>
     <use xlink:href="#m4e23675be4" x="235.445716" y="161.546067" style="stroke: #000000"/>
     <use xlink:href="#m4e23675be4" x="225.70082" y="198.884789" style="stroke: #000000"/>
     <use xlink:href="#m4e23675be4" x="229.147812" y="107.916399" style="stroke: #000000"/>
     <use xlink:href="#m4e23675be4" x="228.481006" y="177.477705" style="stroke: #000000"/>
     <use xlink:href="#m4e23675be4" x="235.127483" y="147.217083" style="stroke: #000000"/>
     <use xlink:href="#m4e23675be4" x="226.10204" y="124.719304" style="stroke: #000000"/>
     <use xlink:href="#m4e23675be4" x="209.313494" y="110.147708" style="stroke: #000000"/>
     <use xlink:href="#m4e23675be4" x="223.319357" y="128.719036" style="stroke: #000000"/>
     <use xlink:href="#m4e23675be4" x="229.308292" y="205.229096" style="stroke: #000000"/>
     <use xlink:href="#m4e23675be4" x="225.347399" y="173.194014" style="stroke: #000000"/>
     <use xlink:href="#m4e23675be4" x="233.027591" y="207.202177" style="stroke: #000000"/>
     <use xlink:href="#m4e23675be4" x="234.585511" y="184.389871" style="stroke: #000000"/>
     <use xlink:href="#m4e23675be4" x="227.204777" y="206.487816" style="stroke: #000000"/>
     <use xlink:href="#m4e23675be4" x="218.689583" y="179.556147" style="stroke: #000000"/>
     <use xlink:href="#m4e23675be4" x="236.926066" y="171.28678" style="stroke: #000000"/>
     <use xlink:href="#m4e23675be4" x="235.015287" y="140.321058" style="stroke: #000000"/>
     <use xlink:href="#m4e23675be4" x="226.243908" y="186.986227" style="stroke: #000000"/>
     <use xlink:href="#m4e23675be4" x="241.521171" y="160.945023" style="stroke: #000000"/>
     <use xlink:href="#m4e23675be4" x="225.928624" y="202.669186" style="stroke: #000000"/>
     <use xlink:href="#m4e23675be4" x="220.926623" y="141.249633" style="stroke: #000000"/>
     <use xlink:href="#m4e23675be4" x="227.153366" y="199.426798" style="stroke: #000000"/>
     <use xlink:href="#m4e23675be4" x="234.982163" y="205.488826" style="stroke: #000000"/>
     <use xlink:href="#m4e23675be4" x="222.193655" y="202.521723" style="stroke: #000000"/>
     <use xlink:href="#m4e23675be4" x="240.524487" y="143.753325" style="stroke: #000000"/>
     <use xlink:href="#m4e23675be4" x="222.453369" y="206.688664" style="stroke: #000000"/>
     <use xlink:href="#m4e23675be4" x="234.199025" y="139.504341" style="stroke: #000000"/>
     <use xlink:href="#m4e23675be4" x="231.597522" y="158.140674" style="stroke: #000000"/>
     <use xlink:href="#m4e23675be4" x="227.164892" y="196.200877" style="stroke: #000000"/>
     <use xlink:href="#m4e23675be4" x="234.999292" y="158.523581" style="stroke: #000000"/>
     <use xlink:href="#m4e23675be4" x="218.625152" y="187.700231" style="stroke: #000000"/>
     <use xlink:href="#m4e23675be4" x="236.757311" y="205.394845" style="stroke: #000000"/>
     <use xlink:href="#m4e23675be4" x="227.738377" y="159.173953" style="stroke: #000000"/>
     <use xlink:href="#m4e23675be4" x="224.700342" y="177.635977" style="stroke: #000000"/>
     <use xlink:href="#m4e23675be4" x="232.896571" y="171.169241" style="stroke: #000000"/>
     <use xlink:href="#m4e23675be4" x="234.868354" y="195.818869" style="stroke: #000000"/>
     <use xlink:href="#m4e23675be4" x="233.027429" y="64.748516" style="stroke: #000000"/>
     <use xlink:href="#m4e23675be4" x="240.830851" y="185.855226" style="stroke: #000000"/>
     <use xlink:href="#m4e23675be4" x="235.000517" y="186.553103" style="stroke: #000000"/>
     <use xlink:href="#m4e23675be4" x="236.287312" y="204.923305" style="stroke: #000000"/>
     <use xlink:href="#m4e23675be4" x="224.716658" y="159.567354" style="stroke: #000000"/>
     <use xlink:href="#m4e23675be4" x="228.818473" y="131.387643" style="stroke: #000000"/>
     <use xlink:href="#m4e23675be4" x="231.715047" y="185.614312" style="stroke: #000000"/>
     <use xlink:href="#m4e23675be4" x="228.029912" y="180.069764" style="stroke: #000000"/>
     <use xlink:href="#m4e23675be4" x="230.056602" y="57.273403" style="stroke: #000000"/>
     <use xlink:href="#m4e23675be4" x="230.846454" y="201.717669" style="stroke: #000000"/>
     <use xlink:href="#m4e23675be4" x="233.499861" y="205.083483" style="stroke: #000000"/>
     <use xlink:href="#m4e23675be4" x="227.497715" y="183.381246" style="stroke: #000000"/>
     <use xlink:href="#m4e23675be4" x="225.922762" y="186.200761" style="stroke: #000000"/>
     <use xlink:href="#m4e23675be4" x="222.886216" y="177.913706" style="stroke: #000000"/>
     <use xlink:href="#m4e23675be4" x="222.48379" y="129.406897" style="stroke: #000000"/>
     <use xlink:href="#m4e23675be4" x="235.582582" y="52.54965" style="stroke: #000000"/>
     <use xlink:href="#m4e23675be4" x="227.606148" y="145.285194" style="stroke: #000000"/>
     <use xlink:href="#m4e23675be4" x="233.136252" y="202.386742" style="stroke: #000000"/>
     <use xlink:href="#m4e23675be4" x="219.909753" y="91.555285" style="stroke: #000000"/>
     <use xlink:href="#m4e23675be4" x="215.84337" y="130.972904" style="stroke: #000000"/>
     <use xlink:href="#m4e23675be4" x="221.485229" y="168.365833" style="stroke: #000000"/>
     <use xlink:href="#m4e23675be4" x="235.418708" y="200.087134" style="stroke: #000000"/>
     <use xlink:href="#m4e23675be4" x="234.920252" y="196.308538" style="stroke: #000000"/>
     <use xlink:href="#m4e23675be4" x="230.249534" y="111.894471" style="stroke: #000000"/>
     <use xlink:href="#m4e23675be4" x="223.052129" y="100.157228" style="stroke: #000000"/>
     <use xlink:href="#m4e23675be4" x="227.312459" y="184.196224" style="stroke: #000000"/>
     <use xlink:href="#m4e23675be4" x="226.252986" y="65.981313" style="stroke: #000000"/>
     <use xlink:href="#m4e23675be4" x="225.953385" y="59.057036" style="stroke: #000000"/>
     <use xlink:href="#m4e23675be4" x="212.239607" y="58.01327" style="stroke: #000000"/>
     <use xlink:href="#m4e23675be4" x="222.698314" y="80.067046" style="stroke: #000000"/>
     <use xlink:href="#m4e23675be4" x="226.936117" y="63.159968" style="stroke: #000000"/>
     <use xlink:href="#m4e23675be4" x="237.765372" y="59.067584" style="stroke: #000000"/>
     <use xlink:href="#m4e23675be4" x="229.162535" y="57.911394" style="stroke: #000000"/>
     <use xlink:href="#m4e23675be4" x="237.032187" y="59.999541" style="stroke: #000000"/>
     <use xlink:href="#m4e23675be4" x="225.644134" y="87.316948" style="stroke: #000000"/>
     <use xlink:href="#m4e23675be4" x="226.539001" y="78.91485" style="stroke: #000000"/>
     <use xlink:href="#m4e23675be4" x="203.397745" y="143.631434" style="stroke: #000000"/>
     <use xlink:href="#m4e23675be4" x="231.082679" y="78.969861" style="stroke: #000000"/>
     <use xlink:href="#m4e23675be4" x="231.614232" y="66.321398" style="stroke: #000000"/>
     <use xlink:href="#m4e23675be4" x="239.334874" y="62.228961" style="stroke: #000000"/>
     <use xlink:href="#m4e23675be4" x="225.053635" y="90.959945" style="stroke: #000000"/>
     <use xlink:href="#m4e23675be4" x="228.739979" y="72.166671" style="stroke: #000000"/>
     <use xlink:href="#m4e23675be4" x="223.665396" y="90.778578" style="stroke: #000000"/>
     <use xlink:href="#m4e23675be4" x="220.678267" y="55.122409" style="stroke: #000000"/>
     <use xlink:href="#m4e23675be4" x="223.617295" y="60.958728" style="stroke: #000000"/>
     <use xlink:href="#m4e23675be4" x="225.953226" y="135.311282" style="stroke: #000000"/>
     <use xlink:href="#m4e23675be4" x="236.743771" y="56.019575" style="stroke: #000000"/>
     <use xlink:href="#m4e23675be4" x="228.156534" y="95.30925" style="stroke: #000000"/>
     <use xlink:href="#m4e23675be4" x="223.1259" y="178.990849" style="stroke: #000000"/>
     <use xlink:href="#m4e23675be4" x="229.042821" y="77.425887" style="stroke: #000000"/>
     <use xlink:href="#m4e23675be4" x="229.523153" y="70.648834" style="stroke: #000000"/>
     <use xlink:href="#m4e23675be4" x="223.8513" y="59.015063" style="stroke: #000000"/>
     <use xlink:href="#m4e23675be4" x="235.397175" y="143.958473" style="stroke: #000000"/>
     <use xlink:href="#m4e23675be4" x="216.15951" y="193.797436" style="stroke: #000000"/>
     <use xlink:href="#m4e23675be4" x="226.787399" y="195.031882" style="stroke: #000000"/>
     <use xlink:href="#m4e23675be4" x="232.362843" y="192.420423" style="stroke: #000000"/>
     <use xlink:href="#m4e23675be4" x="219.649142" y="176.430818" style="stroke: #000000"/>
     <use xlink:href="#m4e23675be4" x="230.434926" y="173.462317" style="stroke: #000000"/>
     <use xlink:href="#m4e23675be4" x="236.346876" y="179.955682" style="stroke: #000000"/>
     <use xlink:href="#m4e23675be4" x="231.021384" y="187.42784" style="stroke: #000000"/>
     <use xlink:href="#m4e23675be4" x="217.417168" y="187.915014" style="stroke: #000000"/>
     <use xlink:href="#m4e23675be4" x="223.521556" y="189.621883" style="stroke: #000000"/>
     <use xlink:href="#m4e23675be4" x="235.962389" y="198.790284" style="stroke: #000000"/>
     <use xlink:href="#m4e23675be4" x="230.035661" y="185.833217" style="stroke: #000000"/>
     <use xlink:href="#m4e23675be4" x="228.079938" y="200.334816" style="stroke: #000000"/>
     <use xlink:href="#m4e23675be4" x="230.942249" y="176.806401" style="stroke: #000000"/>
     <use xlink:href="#m4e23675be4" x="232.718096" y="174.292132" style="stroke: #000000"/>
     <use xlink:href="#m4e23675be4" x="223.646757" y="164.006443" style="stroke: #000000"/>
     <use xlink:href="#m4e23675be4" x="226.299694" y="155.117221" style="stroke: #000000"/>
     <use xlink:href="#m4e23675be4" x="229.049394" y="163.419518" style="stroke: #000000"/>
     <use xlink:href="#m4e23675be4" x="224.69068" y="173.634071" style="stroke: #000000"/>
     <use xlink:href="#m4e23675be4" x="227.29565" y="173.478186" style="stroke: #000000"/>
     <use xlink:href="#m4e23675be4" x="236.37847" y="186.631544" style="stroke: #000000"/>
     <use xlink:href="#m4e23675be4" x="222.000957" y="190.675551" style="stroke: #000000"/>
     <use xlink:href="#m4e23675be4" x="240.36862" y="158.591853" style="stroke: #000000"/>
     <use xlink:href="#m4e23675be4" x="240.06835" y="193.909527" style="stroke: #000000"/>
     <use xlink:href="#m4e23675be4" x="217.269442" y="186.969492" style="stroke: #000000"/>
     <use xlink:href="#m4e23675be4" x="227.247605" y="186.686048" style="stroke: #000000"/>
     <use xlink:href="#m4e23675be4" x="230.317135" y="161.919492" style="stroke: #000000"/>
     <use xlink:href="#m4e23675be4" x="223.314202" y="160.050102" style="stroke: #000000"/>
     <use xlink:href="#m4e23675be4" x="223.439788" y="91.7241" style="stroke: #000000"/>
     <use xlink:href="#m4e23675be4" x="226.635919" y="189.048088" style="stroke: #000000"/>
     <use xlink:href="#m4e23675be4" x="232.833139" y="167.798763" style="stroke: #000000"/>
     <use xlink:href="#m4e23675be4" x="224.897703" y="173.897788" style="stroke: #000000"/>
     <use xlink:href="#m4e23675be4" x="239.734242" y="175.24548" style="stroke: #000000"/>
     <use xlink:href="#m4e23675be4" x="229.982603" y="199.548719" style="stroke: #000000"/>
     <use xlink:href="#m4e23675be4" x="227.491583" y="169.162689" style="stroke: #000000"/>
     <use xlink:href="#m4e23675be4" x="237.33914" y="180.954874" style="stroke: #000000"/>
     <use xlink:href="#m4e23675be4" x="232.116724" y="206.436457" style="stroke: #000000"/>
     <use xlink:href="#m4e23675be4" x="230.485902" y="165.69653" style="stroke: #000000"/>
     <use xlink:href="#m4e23675be4" x="226.041166" y="193.518466" style="stroke: #000000"/>
     <use xlink:href="#m4e23675be4" x="239.653599" y="170.732156" style="stroke: #000000"/>
     <use xlink:href="#m4e23675be4" x="233.294117" y="205.417094" style="stroke: #000000"/>
     <use xlink:href="#m4e23675be4" x="226.851703" y="161.466086" style="stroke: #000000"/>
     <use xlink:href="#m4e23675be4" x="218.133988" y="187.579252" style="stroke: #000000"/>
     <use xlink:href="#m4e23675be4" x="230.509157" y="162.887974" style="stroke: #000000"/>
     <use xlink:href="#m4e23675be4" x="220.884611" y="189.996319" style="stroke: #000000"/>
     <use xlink:href="#m4e23675be4" x="217.253536" y="188.249883" style="stroke: #000000"/>
     <use xlink:href="#m4e23675be4" x="226.371074" y="113.358355" style="stroke: #000000"/>
     <use xlink:href="#m4e23675be4" x="229.928645" y="174.731523" style="stroke: #000000"/>
     <use xlink:href="#m4e23675be4" x="236.280805" y="86.07316" style="stroke: #000000"/>
     <use xlink:href="#m4e23675be4" x="229.934869" y="191.994379" style="stroke: #000000"/>
     <use xlink:href="#m4e23675be4" x="233.257298" y="165.970528" style="stroke: #000000"/>
     <use xlink:href="#m4e23675be4" x="220.363355" y="148.851201" style="stroke: #000000"/>
     <use xlink:href="#m4e23675be4" x="227.999516" y="196.089477" style="stroke: #000000"/>
     <use xlink:href="#m4e23675be4" x="228.930714" y="179.754909" style="stroke: #000000"/>
     <use xlink:href="#m4e23675be4" x="233.614099" y="185.853236" style="stroke: #000000"/>
     <use xlink:href="#m4e23675be4" x="228.878992" y="160.313187" style="stroke: #000000"/>
     <use xlink:href="#m4e23675be4" x="233.244984" y="131.895325" style="stroke: #000000"/>
     <use xlink:href="#m4e23675be4" x="224.942978" y="118.769021" style="stroke: #000000"/>
     <use xlink:href="#m4e23675be4" x="230.413992" y="176.184632" style="stroke: #000000"/>
     <use xlink:href="#m4e23675be4" x="230.775138" y="170.350595" style="stroke: #000000"/>
     <use xlink:href="#m4e23675be4" x="220.211736" y="184.850923" style="stroke: #000000"/>
    </g>
   </g>
   <g id="matplotlib.axis_1">
    <g id="xtick_1">
     <g id="line2d_1">
      <defs>
       <path id="mce9b718108" d="M 0 0 
L 0 3 
" style="stroke: #000000; stroke-width: 0.8"/>
      </defs>
      <g>
       <use xlink:href="#mce9b718108" x="101.2275" y="217.42" style="stroke: #000000; stroke-width: 0.8"/>
      </g>
     </g>
     <g id="text_1">
      <!-- Best–Best -->
      <g transform="translate(76.58375 231.518437) scale(0.1 -0.1)">
       <defs>
        <path id="DejaVuSans-42" d="M 1259 2228 
L 1259 519 
L 2272 519 
Q 2781 519 3026 730 
Q 3272 941 3272 1375 
Q 3272 1813 3026 2020 
Q 2781 2228 2272 2228 
L 1259 2228 
z
M 1259 4147 
L 1259 2741 
L 2194 2741 
Q 2656 2741 2882 2914 
Q 3109 3088 3109 3444 
Q 3109 3797 2882 3972 
Q 2656 4147 2194 4147 
L 1259 4147 
z
M 628 4666 
L 2241 4666 
Q 2963 4666 3353 4366 
Q 3744 4066 3744 3513 
Q 3744 3084 3544 2831 
Q 3344 2578 2956 2516 
Q 3422 2416 3680 2098 
Q 3938 1781 3938 1306 
Q 3938 681 3513 340 
Q 3088 0 2303 0 
L 628 0 
L 628 4666 
z
" transform="scale(0.015625)"/>
        <path id="DejaVuSans-65" d="M 3597 1894 
L 3597 1613 
L 953 1613 
Q 991 1019 1311 708 
Q 1631 397 2203 397 
Q 2534 397 2845 478 
Q 3156 559 3463 722 
L 3463 178 
Q 3153 47 2828 -22 
Q 2503 -91 2169 -91 
Q 1331 -91 842 396 
Q 353 884 353 1716 
Q 353 2575 817 3079 
Q 1281 3584 2069 3584 
Q 2775 3584 3186 3129 
Q 3597 2675 3597 1894 
z
M 3022 2063 
Q 3016 2534 2758 2815 
Q 2500 3097 2075 3097 
Q 1594 3097 1305 2825 
Q 1016 2553 972 2059 
L 3022 2063 
z
" transform="scale(0.015625)"/>
        <path id="DejaVuSans-73" d="M 2834 3397 
L 2834 2853 
Q 2591 2978 2328 3040 
Q 2066 3103 1784 3103 
Q 1356 3103 1142 2972 
Q 928 2841 928 2578 
Q 928 2378 1081 2264 
Q 1234 2150 1697 2047 
L 1894 2003 
Q 2506 1872 2764 1633 
Q 3022 1394 3022 966 
Q 3022 478 2636 193 
Q 2250 -91 1575 -91 
Q 1294 -91 989 -36 
Q 684 19 347 128 
L 347 722 
Q 666 556 975 473 
Q 1284 391 1588 391 
Q 1994 391 2212 530 
Q 2431 669 2431 922 
Q 2431 1156 2273 1281 
Q 2116 1406 1581 1522 
L 1381 1569 
Q 847 1681 609 1914 
Q 372 2147 372 2553 
Q 372 3047 722 3315 
Q 1072 3584 1716 3584 
Q 2034 3584 2315 3537 
Q 2597 3491 2834 3397 
z
" transform="scale(0.015625)"/>
        <path id="DejaVuSans-74" d="M 1172 4494 
L 1172 3500 
L 2356 3500 
L 2356 3053 
L 1172 3053 
L 1172 1153 
Q 1172 725 1289 603 
Q 1406 481 1766 481 
L 2356 481 
L 2356 0 
L 1766 0 
Q 1100 0 847 248 
Q 594 497 594 1153 
L 594 3053 
L 172 3053 
L 172 3500 
L 594 3500 
L 594 4494 
L 1172 4494 
z
" transform="scale(0.015625)"/>
        <path id="DejaVuSans-2013" d="M 313 1978 
L 2888 1978 
L 2888 1528 
L 313 1528 
L 313 1978 
z
" transform="scale(0.015625)"/>
       </defs>
       <use xlink:href="#DejaVuSans-42"/>
       <use xlink:href="#DejaVuSans-65" transform="translate(68.603516 0)"/>
       <use xlink:href="#DejaVuSans-73" transform="translate(130.126953 0)"/>
       <use xlink:href="#DejaVuSans-74" transform="translate(182.226562 0)"/>
       <use xlink:href="#DejaVuSans-2013" transform="translate(221.435547 0)"/>
       <use xlink:href="#DejaVuSans-42" transform="translate(271.435547 0)"/>
       <use xlink:href="#DejaVuSans-65" transform="translate(340.039062 0)"/>
       <use xlink:href="#DejaVuSans-73" transform="translate(401.5625 0)"/>
       <use xlink:href="#DejaVuSans-74" transform="translate(453.662109 0)"/>
      </g>
     </g>
    </g>
    <g id="xtick_2">
     <g id="line2d_2">
      <g>
       <use xlink:href="#mce9b718108" x="228.1425" y="217.42" style="stroke: #000000; stroke-width: 0.8"/>
      </g>
     </g>
     <g id="text_2">
      <!-- Best–Random -->
      <g transform="translate(193.872187 231.518437) scale(0.1 -0.1)">
       <defs>
        <path id="DejaVuSans-52" d="M 2841 2188 
Q 3044 2119 3236 1894 
Q 3428 1669 3622 1275 
L 4263 0 
L 3584 0 
L 2988 1197 
Q 2756 1666 2539 1819 
Q 2322 1972 1947 1972 
L 1259 1972 
L 1259 0 
L 628 0 
L 628 4666 
L 2053 4666 
Q 2853 4666 3247 4331 
Q 3641 3997 3641 3322 
Q 3641 2881 3436 2590 
Q 3231 2300 2841 2188 
z
M 1259 4147 
L 1259 2491 
L 2053 2491 
Q 2509 2491 2742 2702 
Q 2975 2913 2975 3322 
Q 2975 3731 2742 3939 
Q 2509 4147 2053 4147 
L 1259 4147 
z
" transform="scale(0.015625)"/>
        <path id="DejaVuSans-61" d="M 2194 1759 
Q 1497 1759 1228 1600 
Q 959 1441 959 1056 
Q 959 750 1161 570 
Q 1363 391 1709 391 
Q 2188 391 2477 730 
Q 2766 1069 2766 1631 
L 2766 1759 
L 2194 1759 
z
M 3341 1997 
L 3341 0 
L 2766 0 
L 2766 531 
Q 2569 213 2275 61 
Q 1981 -91 1556 -91 
Q 1019 -91 701 211 
Q 384 513 384 1019 
Q 384 1609 779 1909 
Q 1175 2209 1959 2209 
L 2766 2209 
L 2766 2266 
Q 2766 2663 2505 2880 
Q 2244 3097 1772 3097 
Q 1472 3097 1187 3025 
Q 903 2953 641 2809 
L 641 3341 
Q 956 3463 1253 3523 
Q 1550 3584 1831 3584 
Q 2591 3584 2966 3190 
Q 3341 2797 3341 1997 
z
" transform="scale(0.015625)"/>
        <path id="DejaVuSans-6e" d="M 3513 2113 
L 3513 0 
L 2938 0 
L 2938 2094 
Q 2938 2591 2744 2837 
Q 2550 3084 2163 3084 
Q 1697 3084 1428 2787 
Q 1159 2491 1159 1978 
L 1159 0 
L 581 0 
L 581 3500 
L 1159 3500 
L 1159 2956 
Q 1366 3272 1645 3428 
Q 1925 3584 2291 3584 
Q 2894 3584 3203 3211 
Q 3513 2838 3513 2113 
z
" transform="scale(0.015625)"/>
        <path id="DejaVuSans-64" d="M 2906 2969 
L 2906 4863 
L 3481 4863 
L 3481 0 
L 2906 0 
L 2906 525 
Q 2725 213 2448 61 
Q 2172 -91 1784 -91 
Q 1150 -91 751 415 
Q 353 922 353 1747 
Q 353 2572 751 3078 
Q 1150 3584 1784 3584 
Q 2172 3584 2448 3432 
Q 2725 3281 2906 2969 
z
M 947 1747 
Q 947 1113 1208 752 
Q 1469 391 1925 391 
Q 2381 391 2643 752 
Q 2906 1113 2906 1747 
Q 2906 2381 2643 2742 
Q 2381 3103 1925 3103 
Q 1469 3103 1208 2742 
Q 947 2381 947 1747 
z
" transform="scale(0.015625)"/>
        <path id="DejaVuSans-6f" d="M 1959 3097 
Q 1497 3097 1228 2736 
Q 959 2375 959 1747 
Q 959 1119 1226 758 
Q 1494 397 1959 397 
Q 2419 397 2687 759 
Q 2956 1122 2956 1747 
Q 2956 2369 2687 2733 
Q 2419 3097 1959 3097 
z
M 1959 3584 
Q 2709 3584 3137 3096 
Q 3566 2609 3566 1747 
Q 3566 888 3137 398 
Q 2709 -91 1959 -91 
Q 1206 -91 779 398 
Q 353 888 353 1747 
Q 353 2609 779 3096 
Q 1206 3584 1959 3584 
z
" transform="scale(0.015625)"/>
        <path id="DejaVuSans-6d" d="M 3328 2828 
Q 3544 3216 3844 3400 
Q 4144 3584 4550 3584 
Q 5097 3584 5394 3201 
Q 5691 2819 5691 2113 
L 5691 0 
L 5113 0 
L 5113 2094 
Q 5113 2597 4934 2840 
Q 4756 3084 4391 3084 
Q 3944 3084 3684 2787 
Q 3425 2491 3425 1978 
L 3425 0 
L 2847 0 
L 2847 2094 
Q 2847 2600 2669 2842 
Q 2491 3084 2119 3084 
Q 1678 3084 1418 2786 
Q 1159 2488 1159 1978 
L 1159 0 
L 581 0 
L 581 3500 
L 1159 3500 
L 1159 2956 
Q 1356 3278 1631 3431 
Q 1906 3584 2284 3584 
Q 2666 3584 2933 3390 
Q 3200 3197 3328 2828 
z
" transform="scale(0.015625)"/>
       </defs>
       <use xlink:href="#DejaVuSans-42"/>
       <use xlink:href="#DejaVuSans-65" transform="translate(68.603516 0)"/>
       <use xlink:href="#DejaVuSans-73" transform="translate(130.126953 0)"/>
       <use xlink:href="#DejaVuSans-74" transform="translate(182.226562 0)"/>
       <use xlink:href="#DejaVuSans-2013" transform="translate(221.435547 0)"/>
       <use xlink:href="#DejaVuSans-52" transform="translate(271.435547 0)"/>
       <use xlink:href="#DejaVuSans-61" transform="translate(338.667969 0)"/>
       <use xlink:href="#DejaVuSans-6e" transform="translate(399.947266 0)"/>
       <use xlink:href="#DejaVuSans-64" transform="translate(463.326172 0)"/>
       <use xlink:href="#DejaVuSans-6f" transform="translate(526.802734 0)"/>
       <use xlink:href="#DejaVuSans-6d" transform="translate(587.984375 0)"/>
      </g>
     </g>
    </g>
   </g>
   <g id="matplotlib.axis_2">
    <g id="ytick_1">
     <g id="line2d_3">
      <defs>
       <path id="m68a7a666b1" d="M 0 0 
L -3 0 
" style="stroke: #000000; stroke-width: 0.8"/>
      </defs>
      <g>
       <use xlink:href="#m68a7a666b1" x="37.77" y="209.313576" style="stroke: #000000; stroke-width: 0.8"/>
      </g>
     </g>
     <g id="text_3">
      <!-- 0 -->
      <g transform="translate(24.9075 213.112795) scale(0.1 -0.1)">
       <defs>
        <path id="DejaVuSans-30" d="M 2034 4250 
Q 1547 4250 1301 3770 
Q 1056 3291 1056 2328 
Q 1056 1369 1301 889 
Q 1547 409 2034 409 
Q 2525 409 2770 889 
Q 3016 1369 3016 2328 
Q 3016 3291 2770 3770 
Q 2525 4250 2034 4250 
z
M 2034 4750 
Q 2819 4750 3233 4129 
Q 3647 3509 3647 2328 
Q 3647 1150 3233 529 
Q 2819 -91 2034 -91 
Q 1250 -91 836 529 
Q 422 1150 422 2328 
Q 422 3509 836 4129 
Q 1250 4750 2034 4750 
z
" transform="scale(0.015625)"/>
       </defs>
       <use xlink:href="#DejaVuSans-30"/>
      </g>
     </g>
    </g>
    <g id="ytick_2">
     <g id="line2d_4">
      <g>
       <use xlink:href="#m68a7a666b1" x="37.77" y="185.741718" style="stroke: #000000; stroke-width: 0.8"/>
      </g>
     </g>
     <g id="text_4">
      <!-- 1 -->
      <g transform="translate(24.9075 189.540937) scale(0.1 -0.1)">
       <defs>
        <path id="DejaVuSans-31" d="M 794 531 
L 1825 531 
L 1825 4091 
L 703 3866 
L 703 4441 
L 1819 4666 
L 2450 4666 
L 2450 531 
L 3481 531 
L 3481 0 
L 794 0 
L 794 531 
z
" transform="scale(0.015625)"/>
       </defs>
       <use xlink:href="#DejaVuSans-31"/>
      </g>
     </g>
    </g>
    <g id="ytick_3">
     <g id="line2d_5">
      <g>
       <use xlink:href="#m68a7a666b1" x="37.77" y="162.16986" style="stroke: #000000; stroke-width: 0.8"/>
      </g>
     </g>
     <g id="text_5">
      <!-- 2 -->
      <g transform="translate(24.9075 165.969078) scale(0.1 -0.1)">
       <defs>
        <path id="DejaVuSans-32" d="M 1228 531 
L 3431 531 
L 3431 0 
L 469 0 
L 469 531 
Q 828 903 1448 1529 
Q 2069 2156 2228 2338 
Q 2531 2678 2651 2914 
Q 2772 3150 2772 3378 
Q 2772 3750 2511 3984 
Q 2250 4219 1831 4219 
Q 1534 4219 1204 4116 
Q 875 4013 500 3803 
L 500 4441 
Q 881 4594 1212 4672 
Q 1544 4750 1819 4750 
Q 2544 4750 2975 4387 
Q 3406 4025 3406 3419 
Q 3406 3131 3298 2873 
Q 3191 2616 2906 2266 
Q 2828 2175 2409 1742 
Q 1991 1309 1228 531 
z
" transform="scale(0.015625)"/>
       </defs>
       <use xlink:href="#DejaVuSans-32"/>
      </g>
     </g>
    </g>
    <g id="ytick_4">
     <g id="line2d_6">
      <g>
       <use xlink:href="#m68a7a666b1" x="37.77" y="138.598001" style="stroke: #000000; stroke-width: 0.8"/>
      </g>
     </g>
     <g id="text_6">
      <!-- 3 -->
      <g transform="translate(24.9075 142.39722) scale(0.1 -0.1)">
       <defs>
        <path id="DejaVuSans-33" d="M 2597 2516 
Q 3050 2419 3304 2112 
Q 3559 1806 3559 1356 
Q 3559 666 3084 287 
Q 2609 -91 1734 -91 
Q 1441 -91 1130 -33 
Q 819 25 488 141 
L 488 750 
Q 750 597 1062 519 
Q 1375 441 1716 441 
Q 2309 441 2620 675 
Q 2931 909 2931 1356 
Q 2931 1769 2642 2001 
Q 2353 2234 1838 2234 
L 1294 2234 
L 1294 2753 
L 1863 2753 
Q 2328 2753 2575 2939 
Q 2822 3125 2822 3475 
Q 2822 3834 2567 4026 
Q 2313 4219 1838 4219 
Q 1578 4219 1281 4162 
Q 984 4106 628 3988 
L 628 4550 
Q 988 4650 1302 4700 
Q 1616 4750 1894 4750 
Q 2613 4750 3031 4423 
Q 3450 4097 3450 3541 
Q 3450 3153 3228 2886 
Q 3006 2619 2597 2516 
z
" transform="scale(0.015625)"/>
       </defs>
       <use xlink:href="#DejaVuSans-33"/>
      </g>
     </g>
    </g>
    <g id="ytick_5">
     <g id="line2d_7">
      <g>
       <use xlink:href="#m68a7a666b1" x="37.77" y="115.026143" style="stroke: #000000; stroke-width: 0.8"/>
      </g>
     </g>
     <g id="text_7">
      <!-- 4 -->
      <g transform="translate(24.9075 118.825362) scale(0.1 -0.1)">
       <defs>
        <path id="DejaVuSans-34" d="M 2419 4116 
L 825 1625 
L 2419 1625 
L 2419 4116 
z
M 2253 4666 
L 3047 4666 
L 3047 1625 
L 3713 1625 
L 3713 1100 
L 3047 1100 
L 3047 0 
L 2419 0 
L 2419 1100 
L 313 1100 
L 313 1709 
L 2253 4666 
z
" transform="scale(0.015625)"/>
       </defs>
       <use xlink:href="#DejaVuSans-34"/>
      </g>
     </g>
    </g>
    <g id="ytick_6">
     <g id="line2d_8">
      <g>
       <use xlink:href="#m68a7a666b1" x="37.77" y="91.454285" style="stroke: #000000; stroke-width: 0.8"/>
      </g>
     </g>
     <g id="text_8">
      <!-- 5 -->
      <g transform="translate(24.9075 95.253504) scale(0.1 -0.1)">
       <defs>
        <path id="DejaVuSans-35" d="M 691 4666 
L 3169 4666 
L 3169 4134 
L 1269 4134 
L 1269 2991 
Q 1406 3038 1543 3061 
Q 1681 3084 1819 3084 
Q 2600 3084 3056 2656 
Q 3513 2228 3513 1497 
Q 3513 744 3044 326 
Q 2575 -91 1722 -91 
Q 1428 -91 1123 -41 
Q 819 9 494 109 
L 494 744 
Q 775 591 1075 516 
Q 1375 441 1709 441 
Q 2250 441 2565 725 
Q 2881 1009 2881 1497 
Q 2881 1984 2565 2268 
Q 2250 2553 1709 2553 
Q 1456 2553 1204 2497 
Q 953 2441 691 2322 
L 691 4666 
z
" transform="scale(0.015625)"/>
       </defs>
       <use xlink:href="#DejaVuSans-35"/>
      </g>
     </g>
    </g>
    <g id="ytick_7">
     <g id="line2d_9">
      <g>
       <use xlink:href="#m68a7a666b1" x="37.77" y="67.882427" style="stroke: #000000; stroke-width: 0.8"/>
      </g>
     </g>
     <g id="text_9">
      <!-- 6 -->
      <g transform="translate(24.9075 71.681645) scale(0.1 -0.1)">
       <defs>
        <path id="DejaVuSans-36" d="M 2113 2584 
Q 1688 2584 1439 2293 
Q 1191 2003 1191 1497 
Q 1191 994 1439 701 
Q 1688 409 2113 409 
Q 2538 409 2786 701 
Q 3034 994 3034 1497 
Q 3034 2003 2786 2293 
Q 2538 2584 2113 2584 
z
M 3366 4563 
L 3366 3988 
Q 3128 4100 2886 4159 
Q 2644 4219 2406 4219 
Q 1781 4219 1451 3797 
Q 1122 3375 1075 2522 
Q 1259 2794 1537 2939 
Q 1816 3084 2150 3084 
Q 2853 3084 3261 2657 
Q 3669 2231 3669 1497 
Q 3669 778 3244 343 
Q 2819 -91 2113 -91 
Q 1303 -91 875 529 
Q 447 1150 447 2328 
Q 447 3434 972 4092 
Q 1497 4750 2381 4750 
Q 2619 4750 2861 4703 
Q 3103 4656 3366 4563 
z
" transform="scale(0.015625)"/>
       </defs>
       <use xlink:href="#DejaVuSans-36"/>
      </g>
     </g>
    </g>
    <g id="ytick_8">
     <g id="line2d_10">
      <g>
       <use xlink:href="#m68a7a666b1" x="37.77" y="44.310568" style="stroke: #000000; stroke-width: 0.8"/>
      </g>
     </g>
     <g id="text_10">
      <!-- 7 -->
      <g transform="translate(24.9075 48.109787) scale(0.1 -0.1)">
       <defs>
        <path id="DejaVuSans-37" d="M 525 4666 
L 3525 4666 
L 3525 4397 
L 1831 0 
L 1172 0 
L 2766 4134 
L 525 4134 
L 525 4666 
z
" transform="scale(0.015625)"/>
       </defs>
       <use xlink:href="#DejaVuSans-37"/>
      </g>
     </g>
    </g>
    <g id="text_11">
     <!-- euclid -->
     <g transform="translate(18.827813 137.096875) rotate(-90) scale(0.1 -0.1)">
      <defs>
       <path id="DejaVuSans-75" d="M 544 1381 
L 544 3500 
L 1119 3500 
L 1119 1403 
Q 1119 906 1312 657 
Q 1506 409 1894 409 
Q 2359 409 2629 706 
Q 2900 1003 2900 1516 
L 2900 3500 
L 3475 3500 
L 3475 0 
L 2900 0 
L 2900 538 
Q 2691 219 2414 64 
Q 2138 -91 1772 -91 
Q 1169 -91 856 284 
Q 544 659 544 1381 
z
M 1991 3584 
L 1991 3584 
z
" transform="scale(0.015625)"/>
       <path id="DejaVuSans-63" d="M 3122 3366 
L 3122 2828 
Q 2878 2963 2633 3030 
Q 2388 3097 2138 3097 
Q 1578 3097 1268 2742 
Q 959 2388 959 1747 
Q 959 1106 1268 751 
Q 1578 397 2138 397 
Q 2388 397 2633 464 
Q 2878 531 3122 666 
L 3122 134 
Q 2881 22 2623 -34 
Q 2366 -91 2075 -91 
Q 1284 -91 818 406 
Q 353 903 353 1747 
Q 353 2603 823 3093 
Q 1294 3584 2113 3584 
Q 2378 3584 2631 3529 
Q 2884 3475 3122 3366 
z
" transform="scale(0.015625)"/>
       <path id="DejaVuSans-6c" d="M 603 4863 
L 1178 4863 
L 1178 0 
L 603 0 
L 603 4863 
z
" transform="scale(0.015625)"/>
       <path id="DejaVuSans-69" d="M 603 3500 
L 1178 3500 
L 1178 0 
L 603 0 
L 603 3500 
z
M 603 4863 
L 1178 4863 
L 1178 4134 
L 603 4134 
L 603 4863 
z
" transform="scale(0.015625)"/>
      </defs>
      <use xlink:href="#DejaVuSans-65"/>
      <use xlink:href="#DejaVuSans-75" transform="translate(61.523438 0)"/>
      <use xlink:href="#DejaVuSans-63" transform="translate(124.902344 0)"/>
      <use xlink:href="#DejaVuSans-6c" transform="translate(179.882812 0)"/>
      <use xlink:href="#DejaVuSans-69" transform="translate(207.666016 0)"/>
      <use xlink:href="#DejaVuSans-64" transform="translate(235.449219 0)"/>
     </g>
    </g>
   </g>
   <g id="patch_3">
    <path d="M 89.80515 184.039764 
L 112.64985 184.039764 
L 112.64985 135.074782 
L 89.80515 135.074782 
L 89.80515 184.039764 
z
" clip-path="url(#p46ea07d34e)" style="fill: #ffffff; stroke: #000000; stroke-linejoin: miter"/>
   </g>
   <g id="line2d_11">
    <path d="M 101.2275 184.039764 
L 101.2275 205.264635 
" clip-path="url(#p46ea07d34e)" style="fill: none; stroke: #000000; stroke-linecap: square"/>
   </g>
   <g id="line2d_12">
    <path d="M 101.2275 135.074782 
L 101.2275 75.119743 
" clip-path="url(#p46ea07d34e)" style="fill: none; stroke: #000000; stroke-linecap: square"/>
   </g>
   <g id="line2d_13">
    <path d="M 95.516325 205.264635 
L 106.938675 205.264635 
" clip-path="url(#p46ea07d34e)" style="fill: none; stroke: #000000; stroke-linecap: square"/>
   </g>
   <g id="line2d_14">
    <path d="M 95.516325 75.119743 
L 106.938675 75.119743 
" clip-path="url(#p46ea07d34e)" style="fill: none; stroke: #000000; stroke-linecap: square"/>
   </g>
   <g id="patch_4">
    <path d="M 216.72015 187.274093 
L 239.56485 187.274093 
L 239.56485 135.440772 
L 216.72015 135.440772 
L 216.72015 187.274093 
z
" clip-path="url(#p46ea07d34e)" style="fill: #ffffff; stroke: #000000; stroke-linejoin: miter"/>
   </g>
   <g id="line2d_15">
    <path d="M 228.1425 187.274093 
L 228.1425 202.890951 
" clip-path="url(#p46ea07d34e)" style="fill: none; stroke: #000000; stroke-linecap: square"/>
   </g>
   <g id="line2d_16">
    <path d="M 228.1425 135.440772 
L 228.1425 77.425887 
" clip-path="url(#p46ea07d34e)" style="fill: none; stroke: #000000; stroke-linecap: square"/>
   </g>
   <g id="line2d_17">
    <path d="M 222.431325 202.890951 
L 233.853675 202.890951 
" clip-path="url(#p46ea07d34e)" style="fill: none; stroke: #000000; stroke-linecap: square"/>
   </g>
   <g id="line2d_18">
    <path d="M 222.431325 77.425887 
L 233.853675 77.425887 
" clip-path="url(#p46ea07d34e)" style="fill: none; stroke: #000000; stroke-linecap: square"/>
   </g>
   <g id="line2d_19">
    <path d="M 89.80515 156.736839 
L 112.64985 156.736839 
" clip-path="url(#p46ea07d34e)" style="fill: none; stroke: #000000; stroke-width: 1.2"/>
   </g>
   <g id="line2d_20">
    <path d="M 216.72015 165.955527 
L 239.56485 165.955527 
" clip-path="url(#p46ea07d34e)" style="fill: none; stroke: #000000; stroke-width: 1.2"/>
   </g>
   <g id="patch_5">
    <path d="M 37.77 217.42 
L 37.77 26.88 
" style="fill: none; stroke: #000000; stroke-width: 0.8; stroke-linejoin: miter; stroke-linecap: square"/>
   </g>
   <g id="patch_6">
    <path d="M 37.77 217.42 
L 291.6 217.42 
" style="fill: none; stroke: #000000; stroke-width: 0.8; stroke-linejoin: miter; stroke-linecap: square"/>
   </g>
   <g id="text_12">
    <!-- euclid.  ratio br/bb = 0.909 -->
    <g transform="translate(83.354063 20.88) scale(0.12 -0.12)">
     <defs>
      <path id="DejaVuSans-2e" d="M 684 794 
L 1344 794 
L 1344 0 
L 684 0 
L 684 794 
z
" transform="scale(0.015625)"/>
      <path id="DejaVuSans-20" transform="scale(0.015625)"/>
      <path id="DejaVuSans-72" d="M 2631 2963 
Q 2534 3019 2420 3045 
Q 2306 3072 2169 3072 
Q 1681 3072 1420 2755 
Q 1159 2438 1159 1844 
L 1159 0 
L 581 0 
L 581 3500 
L 1159 3500 
L 1159 2956 
Q 1341 3275 1631 3429 
Q 1922 3584 2338 3584 
Q 2397 3584 2469 3576 
Q 2541 3569 2628 3553 
L 2631 2963 
z
" transform="scale(0.015625)"/>
      <path id="DejaVuSans-62" d="M 3116 1747 
Q 3116 2381 2855 2742 
Q 2594 3103 2138 3103 
Q 1681 3103 1420 2742 
Q 1159 2381 1159 1747 
Q 1159 1113 1420 752 
Q 1681 391 2138 391 
Q 2594 391 2855 752 
Q 3116 1113 3116 1747 
z
M 1159 2969 
Q 1341 3281 1617 3432 
Q 1894 3584 2278 3584 
Q 2916 3584 3314 3078 
Q 3713 2572 3713 1747 
Q 3713 922 3314 415 
Q 2916 -91 2278 -91 
Q 1894 -91 1617 61 
Q 1341 213 1159 525 
L 1159 0 
L 581 0 
L 581 4863 
L 1159 4863 
L 1159 2969 
z
" transform="scale(0.015625)"/>
      <path id="DejaVuSans-2f" d="M 1625 4666 
L 2156 4666 
L 531 -594 
L 0 -594 
L 1625 4666 
z
" transform="scale(0.015625)"/>
      <path id="DejaVuSans-3d" d="M 678 2906 
L 4684 2906 
L 4684 2381 
L 678 2381 
L 678 2906 
z
M 678 1631 
L 4684 1631 
L 4684 1100 
L 678 1100 
L 678 1631 
z
" transform="scale(0.015625)"/>
      <path id="DejaVuSans-39" d="M 703 97 
L 703 672 
Q 941 559 1184 500 
Q 1428 441 1663 441 
Q 2288 441 2617 861 
Q 2947 1281 2994 2138 
Q 2813 1869 2534 1725 
Q 2256 1581 1919 1581 
Q 1219 1581 811 2004 
Q 403 2428 403 3163 
Q 403 3881 828 4315 
Q 1253 4750 1959 4750 
Q 2769 4750 3195 4129 
Q 3622 3509 3622 2328 
Q 3622 1225 3098 567 
Q 2575 -91 1691 -91 
Q 1453 -91 1209 -44 
Q 966 3 703 97 
z
M 1959 2075 
Q 2384 2075 2632 2365 
Q 2881 2656 2881 3163 
Q 2881 3666 2632 3958 
Q 2384 4250 1959 4250 
Q 1534 4250 1286 3958 
Q 1038 3666 1038 3163 
Q 1038 2656 1286 2365 
Q 1534 2075 1959 2075 
z
" transform="scale(0.015625)"/>
     </defs>
     <use xlink:href="#DejaVuSans-65"/>
     <use xlink:href="#DejaVuSans-75" transform="translate(61.523438 0)"/>
     <use xlink:href="#DejaVuSans-63" transform="translate(124.902344 0)"/>
     <use xlink:href="#DejaVuSans-6c" transform="translate(179.882812 0)"/>
     <use xlink:href="#DejaVuSans-69" transform="translate(207.666016 0)"/>
     <use xlink:href="#DejaVuSans-64" transform="translate(235.449219 0)"/>
     <use xlink:href="#DejaVuSans-2e" transform="translate(298.925781 0)"/>
     <use xlink:href="#DejaVuSans-20" transform="translate(330.712891 0)"/>
     <use xlink:href="#DejaVuSans-20" transform="translate(362.5 0)"/>
     <use xlink:href="#DejaVuSans-72" transform="translate(394.287109 0)"/>
     <use xlink:href="#DejaVuSans-61" transform="translate(435.400391 0)"/>
     <use xlink:href="#DejaVuSans-74" transform="translate(496.679688 0)"/>
     <use xlink:href="#DejaVuSans-69" transform="translate(535.888672 0)"/>
     <use xlink:href="#DejaVuSans-6f" transform="translate(563.671875 0)"/>
     <use xlink:href="#DejaVuSans-20" transform="translate(624.853516 0)"/>
     <use xlink:href="#DejaVuSans-62" transform="translate(656.640625 0)"/>
     <use xlink:href="#DejaVuSans-72" transform="translate(720.117188 0)"/>
     <use xlink:href="#DejaVuSans-2f" transform="translate(761.230469 0)"/>
     <use xlink:href="#DejaVuSans-62" transform="translate(794.921875 0)"/>
     <use xlink:href="#DejaVuSans-62" transform="translate(858.398438 0)"/>
     <use xlink:href="#DejaVuSans-20" transform="translate(921.875 0)"/>
     <use xlink:href="#DejaVuSans-3d" transform="translate(953.662109 0)"/>
     <use xlink:href="#DejaVuSans-20" transform="translate(1037.451172 0)"/>
     <use xlink:href="#DejaVuSans-30" transform="translate(1069.238281 0)"/>
     <use xlink:href="#DejaVuSans-2e" transform="translate(1132.861328 0)"/>
     <use xlink:href="#DejaVuSans-39" transform="translate(1164.648438 0)"/>
     <use xlink:href="#DejaVuSans-30" transform="translate(1228.271484 0)"/>
     <use xlink:href="#DejaVuSans-39" transform="translate(1291.894531 0)"/>
    </g>
   </g>
  </g>
 </g>
 <defs>
  <clipPath id="p46ea07d34e">
   <rect x="37.77" y="26.88" width="253.83" height="190.54"/>
  </clipPath>
 </defs>
</svg>
