<?xml version="1.0" encoding="utf-8" standalone="no"?>
<!DOCTYPE svg PUBLIC "-//W3C//DTD SVG 1.1//EN"
  "http://www.w3.org/Graphics/SVG/1.1/DTD/svg11.dtd">
<svg xmlns:xlink="http://www.w3.org/1999/xlink" width="302.4pt" height="244.8pt" viewBox="0 0 302.4 244.8" xmlns="http://www.w3.org/2000/svg" version="1.1">
 <metadata>
  <rdf:RDF xmlns:dc="http://purl.org/dc/elements/1.1/" xmlns:cc="http://creativecommons.org/ns#" xmlns:rdf="http://www.w3.org/1999/02/22-rdf-syntax-ns#">
   <cc:Work>
    <dc:type rdf:resource="http://purl.org/dc/dcmitype/StillImage"/>
    <dc:date>2026-03-03T14:47:17.708575</dc:date>
    <dc:format>image/svg+xml</dc:format>
    <dc:creator>
     <cc:Agent>
      <dc:title>Matplotlib v3.10.8, https://matplotlib.org/</dc:title>
     </cc:Agent>
    </dc:creator>
   </cc:Work>
  </rdf:RDF>
 </metadata>
 <defs>
  <style type="text/css">*{stroke-linejoin: round; stroke-linecap: butt}</style>
 </defs>
 <g id="figure_1">
  <g id="patch_1">
   <path d="M 0 244.8 
L 302.4 244.8 
L 302.4 0 
L 0 0 
z
" style="fill: #ffffff"/>
  </g>
  <g id="axes_1">
   <g id="patch_2">
    <path d="M 37.77 217.42 
L 291.6 217.42 
L 291.6 26.88 
L 37.77 26.88 
z
" style="fill: #ffffff"/>
   </g>
   <g id="FillBetweenPolyCollection_1">
    <defs>
     <path id="m22bd5f56ac" d="M 136.782772 -36.040909 
L 65.672228 -36.040909 
L 63.798571 -36.525296 
L 62.092543 -37.009682 
L 60.584158 -37.494068 
L 59.300461 -37.978455 
L 58.264713 -38.462841 
L 57.495691 -38.947228 
L 57.007115 -39.431614 
L 56.80725 -39.916001 
L 56.898679 -40.400387 
L 57.27827 -40.884774 
L 57.93732 -41.36916 
L 58.861891 -41.853547 
L 60.033288 -42.337933 
L 61.428691 -42.822319 
L 63.021882 -43.306706 
L 64.784056 -43.791092 
L 66.684668 -44.275479 
L 68.69229 -44.759865 
L 70.775438 -45.244252 
L 72.903355 -45.728638 
L 75.046703 -46.213025 
L 77.178166 -46.697411 
L 79.272942 -47.181798 
L 81.309107 -47.666184 
L 83.267869 -48.15057 
L 85.133699 -48.634957 
L 86.894355 -49.119343 
L 88.540803 -49.60373 
L 90.06706 -50.088116 
L 91.469964 -50.572503 
L 92.748894 -51.056889 
L 93.905449 -51.541276 
L 94.943118 -52.025662 
L 95.866928 -52.510048 
L 96.683113 -52.994435 
L 97.398788 -53.478821 
L 98.021653 -53.963208 
L 98.559727 -54.447594 
L 99.021113 -54.931981 
L 99.413802 -55.416367 
L 99.745509 -55.900754 
L 100.023546 -56.38514 
L 100.254728 -56.869527 
L 100.445306 -57.353913 
L 100.600928 -57.838299 
L 100.726616 -58.322686 
L 100.826772 -58.807072 
L 100.905183 -59.291459 
L 100.965049 -59.775845 
L 101.009016 -60.260232 
L 101.039204 -60.744618 
L 101.057254 -61.229005 
L 101.064363 -61.713391 
L 101.061327 -62.197778 
L 101.048576 -62.682164 
L 101.026221 -63.16655 
L 100.994083 -63.650937 
L 100.951739 -64.135323 
L 100.89856 -64.61971 
L 100.833746 -65.104096 
L 100.756375 -65.588483 
L 100.665442 -66.072869 
L 100.559907 -66.557256 
L 100.438748 -67.041642 
L 100.301007 -67.526029 
L 100.145848 -68.010415 
L 99.972612 -68.494801 
L 99.78087 -68.979188 
L 99.57048 -69.463574 
L 99.341633 -69.947961 
L 99.094901 -70.432347 
L 98.831274 -70.916734 
L 98.552187 -71.40112 
L 98.259535 -71.885507 
L 97.95568 -72.369893 
L 97.643434 -72.85428 
L 97.326037 -73.338666 
L 97.007112 -73.823052 
L 96.690603 -74.307439 
L 96.380707 -74.791825 
L 96.081785 -75.276212 
L 95.798264 -75.760598 
L 95.534535 -76.244985 
L 95.294839 -76.729371 
L 95.083162 -77.213758 
L 94.903122 -77.698144 
L 94.757874 -78.18253 
L 94.650018 -78.666917 
L 94.58152 -79.151303 
L 94.553662 -79.63569 
L 94.566995 -80.120076 
L 94.621327 -80.604463 
L 94.715725 -81.088849 
L 94.848538 -81.573236 
L 95.017449 -82.057622 
L 95.219538 -82.542009 
L 95.451364 -83.026395 
L 95.709059 -83.510781 
L 95.988437 -83.995168 
L 106.466563 -83.995168 
L 106.466563 -83.995168 
L 106.745941 -83.510781 
L 107.003636 -83.026395 
L 107.235462 -82.542009 
L 107.437551 -82.057622 
L 107.606462 -81.573236 
L 107.739275 -81.088849 
L 107.833673 -80.604463 
L 107.888005 -80.120076 
L 107.901338 -79.63569 
L 107.87348 -79.151303 
L 107.804982 -78.666917 
L 107.697126 -78.18253 
L 107.551878 -77.698144 
L 107.371838 -77.213758 
L 107.160161 -76.729371 
L 106.920465 -76.244985 
L 106.656736 -75.760598 
L 106.373215 -75.276212 
L 106.074293 -74.791825 
L 105.764397 -74.307439 
L 105.447888 -73.823052 
L 105.128963 -73.338666 
L 104.811566 -72.85428 
L 104.49932 -72.369893 
L 104.195465 -71.885507 
L 103.902813 -71.40112 
L 103.623726 -70.916734 
L 103.360099 -70.432347 
L 103.113367 -69.947961 
L 102.88452 -69.463574 
L 102.67413 -68.979188 
L 102.482388 -68.494801 
L 102.309152 -68.010415 
L 102.153993 -67.526029 
L 102.016252 -67.041642 
L 101.895093 -66.557256 
L 101.789558 -66.072869 
L 101.698625 -65.588483 
L 101.621254 -65.104096 
L 101.55644 -64.61971 
L 101.503261 -64.135323 
L 101.460917 -63.650937 
L 101.428779 -63.16655 
L 101.406424 -62.682164 
L 101.393673 -62.197778 
L 101.390637 -61.713391 
L 101.397746 -61.229005 
L 101.415796 -60.744618 
L 101.445984 -60.260232 
L 101.489951 -59.775845 
L 101.549817 -59.291459 
L 101.628228 -58.807072 
L 101.728384 -58.322686 
L 101.854072 -57.838299 
L 102.009694 -57.353913 
L 102.200272 -56.869527 
L 102.431454 -56.38514 
L 102.709491 -55.900754 
L 103.041198 -55.416367 
L 103.433887 -54.931981 
L 103.895273 -54.447594 
L 104.433347 -53.963208 
L 105.056212 -53.478821 
L 105.771887 -52.994435 
L 106.588072 -52.510048 
L 107.511882 -52.025662 
L 108.549551 -51.541276 
L 109.706106 -51.056889 
L 110.985036 -50.572503 
L 112.38794 -50.088116 
L 113.914197 -49.60373 
L 115.560645 -49.119343 
L 117.321301 -48.634957 
L 119.187131 -48.15057 
L 121.145893 -47.666184 
L 123.182058 -47.181798 
L 125.276834 -46.697411 
L 127.408297 -46.213025 
L 129.551645 -45.728638 
L 131.679562 -45.244252 
L 133.76271 -44.759865 
L 135.770332 -44.275479 
L 137.670944 -43.791092 
L 139.433118 -43.306706 
L 141.026309 -42.822319 
L 142.421712 -42.337933 
L 143.593109 -41.853547 
L 144.51768 -41.36916 
L 145.17673 -40.884774 
L 145.556321 -40.400387 
L 145.64775 -39.916001 
L 145.447885 -39.431614 
L 144.959309 -38.947228 
L 144.190287 -38.462841 
L 143.154539 -37.978455 
L 141.870842 -37.494068 
L 140.362457 -37.009682 
L 138.656429 -36.525296 
L 136.782772 -36.040909 
z
" style="stroke: #000000"/>
    </defs>
    <g clip-path="url(#p5948c831f6)">
     <use xlink:href="#m22bd5f56ac" x="0" y="244.8" style="fill: #ffffff; stroke: #000000"/>
    </g>
   </g>
   <g id="FillBetweenPolyCollection_2">
    <defs>
     <path id="m76d85bff04" d="M 262.915251 -36.605852 
L 193.369749 -36.605852 
L 189.487156 -38.349824 
L 186.488226 -40.093796 
L 184.547957 -41.837768 
L 183.72225 -43.58174 
L 183.943601 -45.325712 
L 185.039249 -47.069684 
L 186.76678 -48.813656 
L 188.858351 -50.557629 
L 191.063513 -52.301601 
L 193.182182 -54.045573 
L 195.082806 -55.789545 
L 196.704916 -57.533517 
L 198.048834 -59.277489 
L 199.157462 -61.021461 
L 200.095593 -62.765433 
L 200.931368 -64.509405 
L 201.722841 -66.253378 
L 202.510778 -67.99735 
L 203.317249 -69.741322 
L 204.148506 -71.485294 
L 205.000208 -73.229266 
L 205.863057 -74.973238 
L 206.727376 -76.71721 
L 207.585742 -78.461182 
L 208.433538 -80.205155 
L 209.267876 -81.949127 
L 210.085776 -83.693099 
L 210.882589 -85.437071 
L 211.651449 -87.181043 
L 212.384059 -88.925015 
L 213.072618 -90.668987 
L 213.712192 -92.412959 
L 214.302736 -94.156931 
L 214.850054 -95.900904 
L 215.365382 -97.644876 
L 215.863719 -99.388848 
L 216.361356 -101.13282 
L 216.873196 -102.876792 
L 217.410391 -104.620764 
L 217.978642 -106.364736 
L 218.577346 -108.108708 
L 219.199617 -109.85268 
L 219.833187 -111.596653 
L 220.462085 -113.340625 
L 221.068933 -115.084597 
L 221.637497 -116.828569 
L 222.15507 -118.572541 
L 222.614148 -120.316513 
L 223.01305 -122.060485 
L 223.355365 -123.804457 
L 223.648437 -125.548429 
L 223.901391 -127.292402 
L 224.123281 -129.036374 
L 224.321845 -130.780346 
L 224.503066 -132.524318 
L 224.671426 -134.26829 
L 224.830508 -136.012262 
L 224.983525 -137.756234 
L 225.13348 -139.500206 
L 225.282904 -141.244178 
L 225.433327 -142.988151 
L 225.584823 -144.732123 
L 225.735917 -146.476095 
L 225.884 -148.220067 
L 226.026184 -149.964039 
L 226.160313 -151.708011 
L 226.285772 -153.451983 
L 226.403803 -155.195955 
L 226.517216 -156.939928 
L 226.629588 -158.6839 
L 226.744248 -160.427872 
L 226.86337 -162.171844 
L 226.987453 -163.915816 
L 227.115279 -165.659788 
L 227.244298 -167.40376 
L 227.371244 -169.147732 
L 227.492777 -170.891704 
L 227.605972 -172.635677 
L 227.708603 -174.379649 
L 227.799229 -176.123621 
L 227.877141 -177.867593 
L 227.942258 -179.611565 
L 227.994988 -181.355537 
L 228.036098 -183.099509 
L 228.066569 -184.843481 
L 228.087452 -186.587453 
L 228.099729 -188.331426 
L 228.104211 -190.075398 
L 228.101509 -191.81937 
L 228.092086 -193.563342 
L 228.07641 -195.307314 
L 228.055163 -197.051286 
L 228.029456 -198.795258 
L 228.000981 -200.53923 
L 227.972022 -202.283202 
L 227.945293 -204.027175 
L 227.923611 -205.771147 
L 227.909457 -207.515119 
L 227.904541 -209.259091 
L 228.380459 -209.259091 
L 228.380459 -209.259091 
L 228.375543 -207.515119 
L 228.361389 -205.771147 
L 228.339707 -204.027175 
L 228.312978 -202.283202 
L 228.284019 -200.53923 
L 228.255544 -198.795258 
L 228.229837 -197.051286 
L 228.20859 -195.307314 
L 228.192914 -193.563342 
L 228.183491 -191.81937 
L 228.180789 -190.075398 
L 228.185271 -188.331426 
L 228.197548 -186.587453 
L 228.218431 -184.843481 
L 228.248902 -183.099509 
L 228.290012 -181.355537 
L 228.342742 -179.611565 
L 228.407859 -177.867593 
L 228.485771 -176.123621 
L 228.576397 -174.379649 
L 228.679028 -172.635677 
L 228.792223 -170.891704 
L 228.913756 -169.147732 
L 229.040702 -167.40376 
L 229.169721 -165.659788 
L 229.297547 -163.915816 
L 229.42163 -162.171844 
L 229.540752 -160.427872 
L 229.655412 -158.6839 
L 229.767784 -156.939928 
L 229.881197 -155.195955 
L 229.999228 -153.451983 
L 230.124687 -151.708011 
L 230.258816 -149.964039 
L 230.401 -148.220067 
L 230.549083 -146.476095 
L 230.700177 -144.732123 
L 230.851673 -142.988151 
L 231.002096 -141.244178 
L 231.15152 -139.500206 
L 231.301475 -137.756234 
L 231.454492 -136.012262 
L 231.613574 -134.26829 
L 231.781934 -132.524318 
L 231.963155 -130.780346 
L 232.161719 -129.036374 
L 232.383609 -127.292402 
L 232.636563 -125.548429 
L 232.929635 -123.804457 
L 233.27195 -122.060485 
L 233.670852 -120.316513 
L 234.12993 -118.572541 
L 234.647503 -116.828569 
L 235.216067 -115.084597 
L 235.822915 -113.340625 
L 236.451813 -111.596653 
L 237.085383 -109.85268 
L 237.707654 -108.108708 
L 238.306358 -106.364736 
L 238.874609 -104.620764 
L 239.411804 -102.876792 
L 239.923644 -101.13282 
L 240.421281 -99.388848 
L 240.919618 -97.644876 
L 241.434946 -95.900904 
L 241.982264 -94.156931 
L 242.572808 -92.412959 
L 243.212382 -90.668987 
L 243.900941 -88.925015 
L 244.633551 -87.181043 
L 245.402411 -85.437071 
L 246.199224 -83.693099 
L 247.017124 -81.949127 
L 247.851462 -80.205155 
L 248.699258 -78.461182 
L 249.557624 -76.71721 
L 250.421943 -74.973238 
L 251.284792 -73.229266 
L 252.136494 -71.485294 
L 252.967751 -69.741322 
L 253.774222 -67.99735 
L 254.562159 -66.253378 
L 255.353632 -64.509405 
L 256.189407 -62.765433 
L 257.127538 -61.021461 
L 258.236166 -59.277489 
L 259.580084 -57.533517 
L 261.202194 -55.789545 
L 263.102818 -54.045573 
L 265.221487 -52.301601 
L 267.426649 -50.557629 
L 269.51822 -48.813656 
L 271.245751 -47.069684 
L 272.341399 -45.325712 
L 272.56275 -43.58174 
L 271.737043 -41.837768 
L 269.796774 -40.093796 
L 266.797844 -38.349824 
L 262.915251 -36.605852 
z
" style="stroke: #000000"/>
    </defs>
    <g clip-path="url(#p5948c831f6)">
     <use xlink:href="#m76d85bff04" x="0" y="244.8" style="fill: #ffffff; stroke: #000000"/>
    </g>
   </g>
   <g id="PathCollection_1">
    <defs>
     <path id="md6e796f4d9" d="M 0 1.581139 
C 0.419323 1.581139 0.821528 1.41454 1.118034 1.118034 
C 1.41454 0.821528 1.581139 0.419323 1.581139 0 
C 1.581139 -0.419323 1.41454 -0.821528 1.118034 -1.118034 
C 0.821528 -1.41454 0.419323 -1.581139 0 -1.581139 
C -0.419323 -1.581139 -0.821528 -1.41454 -1.118034 -1.118034 
C -1.41454 -0.821528 -1.581139 -0.419323 -1.581139 0 
C -1.581139 0.419323 -1.41454 0.821528 -1.118034 1.118034 
C -0.821528 1.41454 -0.419323 1.581139 0 1.581139 
z
" style="stroke: #000000"/>
    </defs>
    <g clip-path="url(#p5948c831f6)">
     <use xlink:href="#md6e796f4d9" x="102.025353" y="198.910333" style="stroke: #000000"/>
     <use xlink:href="#md6e796f4d9" x="100.389196" y="204.838541" style="stroke: #000000"/>
     <use xlink:href="#md6e796f4d9" x="105.291462" y="200.645665" style="stroke: #000000"/>
     <use xlink:href="#md6e796f4d9" x="101.89317" y="205.786212" style="stroke: #000000"/>
     <use xlink:href="#md6e796f4d9" x="97.828276" y="202.647924" style="stroke: #000000"/>
     <use xlink:href="#md6e796f4d9" x="103.522092" y="207.635061" style="stroke: #000000"/>
     <use xlink:href="#md6e796f4d9" x="109.502358" y="205.534486" style="stroke: #000000"/>
     <use xlink:href="#md6e796f4d9" x="107.237439" y="203.570981" style="stroke: #000000"/>
     <use xlink:href="#md6e796f4d9" x="96.761772" y="203.625459" style="stroke: #000000"/>
     <use xlink:href="#md6e796f4d9" x="93.197452" y="201.34753" style="stroke: #000000"/>
     <use xlink:href="#md6e796f4d9" x="97.272356" y="161.80062" style="stroke: #000000"/>
     <use xlink:href="#md6e796f4d9" x="101.489744" y="208.759091" style="stroke: #000000"/>
     <use xlink:href="#md6e796f4d9" x="86.473436" y="208.38856" style="stroke: #000000"/>
     <use xlink:href="#md6e796f4d9" x="99.839103" y="204.242094" style="stroke: #000000"/>
     <use xlink:href="#md6e796f4d9" x="93.321261" y="202.384289" style="stroke: #000000"/>
     <use xlink:href="#md6e796f4d9" x="96.580714" y="206.599823" style="stroke: #000000"/>
     <use xlink:href="#md6e796f4d9" x="97.773769" y="201.362427" style="stroke: #000000"/>
     <use xlink:href="#md6e796f4d9" x="99.220338" y="204.467391" style="stroke: #000000"/>
     <use xlink:href="#md6e796f4d9" x="103.839604" y="197.794946" style="stroke: #000000"/>
     <use xlink:href="#md6e796f4d9" x="107.843029" y="201.910044" style="stroke: #000000"/>
     <use xlink:href="#md6e796f4d9" x="100.411851" y="203.39759" style="stroke: #000000"/>
     <use xlink:href="#md6e796f4d9" x="109.898736" y="203.567171" style="stroke: #000000"/>
     <use xlink:href="#md6e796f4d9" x="97.006341" y="205.33843" style="stroke: #000000"/>
     <use xlink:href="#md6e796f4d9" x="103.458095" y="170.366279" style="stroke: #000000"/>
     <use xlink:href="#md6e796f4d9" x="106.960696" y="198.957012" style="stroke: #000000"/>
     <use xlink:href="#md6e796f4d9" x="101.824079" y="198.991729" style="stroke: #000000"/>
     <use xlink:href="#md6e796f4d9" x="96.50944" y="203.111698" style="stroke: #000000"/>
     <use xlink:href="#md6e796f4d9" x="95.378461" y="204.340868" style="stroke: #000000"/>
     <use xlink:href="#md6e796f4d9" x="98.322886" y="207.616791" style="stroke: #000000"/>
     <use xlink:href="#md6e796f4d9" x="102.624803" y="206.533346" style="stroke: #000000"/>
     <use xlink:href="#md6e796f4d9" x="94.820715" y="203.828727" style="stroke: #000000"/>
     <use xlink:href="#md6e796f4d9" x="99.900124" y="207.697086" style="stroke: #000000"/>
     <use xlink:href="#md6e796f4d9" x="100.217098" y="207.5381" style="stroke: #000000"/>
     <use xlink:href="#md6e796f4d9" x="104.659571" y="207.443131" style="stroke: #000000"/>
     <use xlink:href="#md6e796f4d9" x="102.589673" y="204.788612" style="stroke: #000000"/>
     <use xlink:href="#md6e796f4d9" x="103.482606" y="164.940629" style="stroke: #000000"/>
     <use xlink:href="#md6e796f4d9" x="97.078467" y="204.885272" style="stroke: #000000"/>
     <use xlink:href="#md6e796f4d9" x="100.405004" y="205.007367" style="stroke: #000000"/>
     <use xlink:href="#md6e796f4d9" x="106.202412" y="207.863671" style="stroke: #000000"/>
     <use xlink:href="#md6e796f4d9" x="110.704441" y="203.23487" style="stroke: #000000"/>
     <use xlink:href="#md6e796f4d9" x="93.237785" y="206.517675" style="stroke: #000000"/>
     <use xlink:href="#md6e796f4d9" x="110.834482" y="199.575424" style="stroke: #000000"/>
     <use xlink:href="#md6e796f4d9" x="109.768089" y="203.67747" style="stroke: #000000"/>
     <use xlink:href="#md6e796f4d9" x="106.185507" y="205.418953" style="stroke: #000000"/>
     <use xlink:href="#md6e796f4d9" x="102.905669" y="205.47567" style="stroke: #000000"/>
     <use xlink:href="#md6e796f4d9" x="99.235424" y="206.224753" style="stroke: #000000"/>
     <use xlink:href="#md6e796f4d9" x="110.479735" y="168.677764" style="stroke: #000000"/>
     <use xlink:href="#md6e796f4d9" x="113.666809" y="200.689771" style="stroke: #000000"/>
     <use xlink:href="#md6e796f4d9" x="112.660224" y="200.772286" style="stroke: #000000"/>
     <use xlink:href="#md6e796f4d9" x="109.57282" y="205.105003" style="stroke: #000000"/>
     <use xlink:href="#md6e796f4d9" x="103.495347" y="205.433045" style="stroke: #000000"/>
     <use xlink:href="#md6e796f4d9" x="93.559812" y="204.7856" style="stroke: #000000"/>
     <use xlink:href="#md6e796f4d9" x="101.199235" y="208.018249" style="stroke: #000000"/>
     <use xlink:href="#md6e796f4d9" x="105.393326" y="206.43332" style="stroke: #000000"/>
     <use xlink:href="#md6e796f4d9" x="93.05188" y="206.493189" style="stroke: #000000"/>
     <use xlink:href="#md6e796f4d9" x="103.734846" y="204.041349" style="stroke: #000000"/>
     <use xlink:href="#md6e796f4d9" x="103.955308" y="164.134253" style="stroke: #000000"/>
     <use xlink:href="#md6e796f4d9" x="105.644413" y="205.838589" style="stroke: #000000"/>
     <use xlink:href="#md6e796f4d9" x="93.713383" y="205.922007" style="stroke: #000000"/>
     <use xlink:href="#md6e796f4d9" x="97.028501" y="206.731545" style="stroke: #000000"/>
     <use xlink:href="#md6e796f4d9" x="98.457991" y="201.606006" style="stroke: #000000"/>
     <use xlink:href="#md6e796f4d9" x="93.80423" y="205.743942" style="stroke: #000000"/>
     <use xlink:href="#md6e796f4d9" x="112.265094" y="207.568627" style="stroke: #000000"/>
     <use xlink:href="#md6e796f4d9" x="98.080574" y="207.626341" style="stroke: #000000"/>
     <use xlink:href="#md6e796f4d9" x="103.315059" y="206.312332" style="stroke: #000000"/>
     <use xlink:href="#md6e796f4d9" x="99.586663" y="166.886813" style="stroke: #000000"/>
     <use xlink:href="#md6e796f4d9" x="111.275823" y="202.692589" style="stroke: #000000"/>
     <use xlink:href="#md6e796f4d9" x="109.606181" y="202.788911" style="stroke: #000000"/>
     <use xlink:href="#md6e796f4d9" x="105.246597" y="207.102857" style="stroke: #000000"/>
     <use xlink:href="#md6e796f4d9" x="87.244577" y="204.429226" style="stroke: #000000"/>
     <use xlink:href="#md6e796f4d9" x="101.557663" y="202.567334" style="stroke: #000000"/>
     <use xlink:href="#md6e796f4d9" x="105.566002" y="202.561487" style="stroke: #000000"/>
     <use xlink:href="#md6e796f4d9" x="107.598389" y="200.223687" style="stroke: #000000"/>
     <use xlink:href="#md6e796f4d9" x="97.306416" y="160.804832" style="stroke: #000000"/>
     <use xlink:href="#md6e796f4d9" x="112.789529" y="207.576954" style="stroke: #000000"/>
     <use xlink:href="#md6e796f4d9" x="92.848375" y="207.596474" style="stroke: #000000"/>
     <use xlink:href="#md6e796f4d9" x="97.029609" y="203.211107" style="stroke: #000000"/>
     <use xlink:href="#md6e796f4d9" x="107.161093" y="206.637487" style="stroke: #000000"/>
     <use xlink:href="#md6e796f4d9" x="101.538788" y="206.819702" style="stroke: #000000"/>
     <use xlink:href="#md6e796f4d9" x="113.934183" y="204.557184" style="stroke: #000000"/>
     <use xlink:href="#md6e796f4d9" x="102.423796" y="164.562236" style="stroke: #000000"/>
     <use xlink:href="#md6e796f4d9" x="97.209409" y="205.591671" style="stroke: #000000"/>
     <use xlink:href="#md6e796f4d9" x="98.831576" y="205.622784" style="stroke: #000000"/>
     <use xlink:href="#md6e796f4d9" x="94.30336" y="207.028027" style="stroke: #000000"/>
     <use xlink:href="#md6e796f4d9" x="93.119661" y="208.058084" style="stroke: #000000"/>
     <use xlink:href="#md6e796f4d9" x="105.227934" y="205.712045" style="stroke: #000000"/>
     <use xlink:href="#md6e796f4d9" x="104.915433" y="165.966515" style="stroke: #000000"/>
     <use xlink:href="#md6e796f4d9" x="109.442447" y="203.620325" style="stroke: #000000"/>
     <use xlink:href="#md6e796f4d9" x="96.43896" y="203.746647" style="stroke: #000000"/>
     <use xlink:href="#md6e796f4d9" x="111.946154" y="207.722222" style="stroke: #000000"/>
     <use xlink:href="#md6e796f4d9" x="99.403809" y="206.049518" style="stroke: #000000"/>
     <use xlink:href="#md6e796f4d9" x="111.218301" y="166.115637" style="stroke: #000000"/>
     <use xlink:href="#md6e796f4d9" x="98.481149" y="203.676112" style="stroke: #000000"/>
     <use xlink:href="#md6e796f4d9" x="96.560307" y="203.747974" style="stroke: #000000"/>
     <use xlink:href="#md6e796f4d9" x="102.812576" y="207.631211" style="stroke: #000000"/>
     <use xlink:href="#md6e796f4d9" x="107.772843" y="168.283028" style="stroke: #000000"/>
     <use xlink:href="#md6e796f4d9" x="102.249227" y="201.407224" style="stroke: #000000"/>
     <use xlink:href="#md6e796f4d9" x="97.51188" y="201.406172" style="stroke: #000000"/>
     <use xlink:href="#md6e796f4d9" x="92.716455" y="205.10238" style="stroke: #000000"/>
     <use xlink:href="#md6e796f4d9" x="92.333803" y="161.84675" style="stroke: #000000"/>
     <use xlink:href="#md6e796f4d9" x="104.4174" y="161.847036" style="stroke: #000000"/>
     <use xlink:href="#md6e796f4d9" x="107.507971" y="165.468192" style="stroke: #000000"/>
     <use xlink:href="#md6e796f4d9" x="100.184928" y="208.373384" style="stroke: #000000"/>
     <use xlink:href="#md6e796f4d9" x="94.409849" y="204.283624" style="stroke: #000000"/>
     <use xlink:href="#md6e796f4d9" x="106.767607" y="204.403805" style="stroke: #000000"/>
    </g>
   </g>
   <g id="PathCollection_2">
    <g clip-path="url(#p5948c831f6)">
     <use xlink:href="#md6e796f4d9" x="220.01744" y="170.065482" style="stroke: #000000"/>
     <use xlink:href="#md6e796f4d9" x="223.617548" y="176.639748" style="stroke: #000000"/>
     <use xlink:href="#md6e796f4d9" x="232.083324" y="170.470612" style="stroke: #000000"/>
     <use xlink:href="#md6e796f4d9" x="213.863667" y="87.480602" style="stroke: #000000"/>
     <use xlink:href="#md6e796f4d9" x="230.594305" y="207.200345" style="stroke: #000000"/>
     <use xlink:href="#md6e796f4d9" x="224.451553" y="141.277596" style="stroke: #000000"/>
     <use xlink:href="#md6e796f4d9" x="228.835962" y="124.620984" style="stroke: #000000"/>
     <use xlink:href="#md6e796f4d9" x="227.662117" y="119.597073" style="stroke: #000000"/>
     <use xlink:href="#md6e796f4d9" x="229.425067" y="208.044963" style="stroke: #000000"/>
     <use xlink:href="#md6e796f4d9" x="232.547542" y="161.374697" style="stroke: #000000"/>
     <use xlink:href="#md6e796f4d9" x="223.330075" y="142.100047" style="stroke: #000000"/>
     <use xlink:href="#md6e796f4d9" x="237.159697" y="144.820902" style="stroke: #000000"/>
     <use xlink:href="#md6e796f4d9" x="232.75011" y="192.066356" style="stroke: #000000"/>
     <use xlink:href="#md6e796f4d9" x="233.496617" y="82.697184" style="stroke: #000000"/>
     <use xlink:href="#md6e796f4d9" x="235.534436" y="158.251192" style="stroke: #000000"/>
     <use xlink:href="#md6e796f4d9" x="233.140338" y="194.8071" style="stroke: #000000"/>
     <use xlink:href="#md6e796f4d9" x="233.498812" y="165.760994" style="stroke: #000000"/>
     <use xlink:href="#md6e796f4d9" x="228.622198" y="183.743083" style="stroke: #000000"/>
     <use xlink:href="#md6e796f4d9" x="219.08855" y="152.565641" style="stroke: #000000"/>
     <use xlink:href="#md6e796f4d9" x="227.285538" y="203.98524" style="stroke: #000000"/>
     <use xlink:href="#md6e796f4d9" x="223.259352" y="109.632238" style="stroke: #000000"/>
     <use xlink:href="#md6e796f4d9" x="219.114136" y="184.287746" style="stroke: #000000"/>
     <use xlink:href="#md6e796f4d9" x="229.782577" y="193.63937" style="stroke: #000000"/>
     <use xlink:href="#md6e796f4d9" x="224.534627" y="198.755226" style="stroke: #000000"/>
     <use xlink:href="#md6e796f4d9" x="221.607618" y="207.66979" style="stroke: #000000"/>
     <use xlink:href="#md6e796f4d9" x="221.523876" y="181.492353" style="stroke: #000000"/>
     <use xlink:href="#md6e796f4d9" x="229.845808" y="202.868534" style="stroke: #000000"/>
     <use xlink:href="#md6e796f4d9" x="230.418543" y="199.849825" style="stroke: #000000"/>
     <use xlink:href="#md6e796f4d9" x="236.534484" y="205.332674" style="stroke: #000000"/>
     <use xlink:href="#md6e796f4d9" x="228.054201" y="199.990326" style="stroke: #000000"/>
     <use xlink:href="#md6e796f4d9" x="234.753755" y="198.578526" style="stroke: #000000"/>
     <use xlink:href="#md6e796f4d9" x="237.040922" y="201.251257" style="stroke: #000000"/>
     <use xlink:href="#md6e796f4d9" x="235.441164" y="193.42114" style="stroke: #000000"/>
     <use xlink:href="#md6e796f4d9" x="213.132873" y="202.686945" style="stroke: #000000"/>
     <use xlink:href="#md6e796f4d9" x="235.93942" y="205.349239" style="stroke: #000000"/>
     <use xlink:href="#md6e796f4d9" x="230.297644" y="207.26453" style="stroke: #000000"/>
     <use xlink:href="#md6e796f4d9" x="230.831647" y="204.757507" style="stroke: #000000"/>
     <use xlink:href="#md6e796f4d9" x="230.498216" y="94.552823" style="stroke: #000000"/>
     <use xlink:href="#md6e796f4d9" x="230.571381" y="204.222314" style="stroke: #000000"/>
     <use xlink:href="#md6e796f4d9" x="230.169423" y="103.415588" style="stroke: #000000"/>
     <use xlink:href="#md6e796f4d9" x="225.864926" y="203.17255" style="stroke: #000000"/>
     <use xlink:href="#md6e796f4d9" x="216.075198" y="156.252829" style="stroke: #000000"/>
     <use xlink:href="#md6e796f4d9" x="227.451354" y="118.587841" style="stroke: #000000"/>
     <use xlink:href="#md6e796f4d9" x="223.042219" y="133.510791" style="stroke: #000000"/>
     <use xlink:href="#md6e796f4d9" x="234.996947" y="189.812413" style="stroke: #000000"/>
     <use xlink:href="#md6e796f4d9" x="226.31006" y="203.86777" style="stroke: #000000"/>
     <use xlink:href="#md6e796f4d9" x="228.672214" y="205.061796" style="stroke: #000000"/>
     <use xlink:href="#md6e796f4d9" x="222.751113" y="200.004327" style="stroke: #000000"/>
     <use xlink:href="#md6e796f4d9" x="224.902217" y="169.688033" style="stroke: #000000"/>
     <use xlink:href="#md6e796f4d9" x="228.069314" y="207.006241" style="stroke: #000000"/>
     <use xlink:href="#md6e796f4d9" x="218.71668" y="201.720781" style="stroke: #000000"/>
     <use xlink:href="#md6e796f4d9" x="230.050573" y="205.001343" style="stroke: #000000"/>
     <use xlink:href="#md6e796f4d9" x="227.469392" y="204.316313" style="stroke: #000000"/>
     <use xlink:href="#md6e796f4d9" x="220.618219" y="200.070472" style="stroke: #000000"/>
     <use xlink:href="#md6e796f4d9" x="212.923914" y="202.254338" style="stroke: #000000"/>
     <use xlink:href="#md6e796f4d9" x="231.398201" y="148.457878" style="stroke: #000000"/>
     <use xlink:href="#md6e796f4d9" x="226.254106" y="168.659848" style="stroke: #000000"/>
     <use xlink:href="#md6e796f4d9" x="224.779199" y="205.555884" style="stroke: #000000"/>
     <use xlink:href="#md6e796f4d9" x="226.643922" y="137.224865" style="stroke: #000000"/>
     <use xlink:href="#md6e796f4d9" x="239.669402" y="191.902824" style="stroke: #000000"/>
     <use xlink:href="#md6e796f4d9" x="227.826476" y="204.19694" style="stroke: #000000"/>
     <use xlink:href="#md6e796f4d9" x="228.692164" y="175.961478" style="stroke: #000000"/>
     <use xlink:href="#md6e796f4d9" x="218.705907" y="147.488785" style="stroke: #000000"/>
     <use xlink:href="#md6e796f4d9" x="238.596102" y="204.529363" style="stroke: #000000"/>
     <use xlink:href="#md6e796f4d9" x="233.964649" y="162.594481" style="stroke: #000000"/>
     <use xlink:href="#md6e796f4d9" x="234.913002" y="204.596738" style="stroke: #000000"/>
     <use xlink:href="#md6e796f4d9" x="228.445019" y="201.776817" style="stroke: #000000"/>
     <use xlink:href="#md6e796f4d9" x="233.959362" y="205.45235" style="stroke: #000000"/>
     <use xlink:href="#md6e796f4d9" x="230.496436" y="190.874297" style="stroke: #000000"/>
     <use xlink:href="#md6e796f4d9" x="232.033645" y="196.937179" style="stroke: #000000"/>
     <use xlink:href="#md6e796f4d9" x="227.176722" y="180.976329" style="stroke: #000000"/>
     <use xlink:href="#md6e796f4d9" x="218.789576" y="171.887399" style="stroke: #000000"/>
     <use xlink:href="#md6e796f4d9" x="234.671352" y="202.343659" style="stroke: #000000"/>
     <use xlink:href="#md6e796f4d9" x="215.86373" y="207.102632" style="stroke: #000000"/>
     <use xlink:href="#md6e796f4d9" x="226.619922" y="183.339368" style="stroke: #000000"/>
     <use xlink:href="#md6e796f4d9" x="226.844651" y="207.019966" style="stroke: #000000"/>
     <use xlink:href="#md6e796f4d9" x="221.52477" y="85.028482" style="stroke: #000000"/>
     <use xlink:href="#md6e796f4d9" x="232.033226" y="202.66196" style="stroke: #000000"/>
     <use xlink:href="#md6e796f4d9" x="226.871258" y="192.320261" style="stroke: #000000"/>
     <use xlink:href="#md6e796f4d9" x="225.370243" y="173.050075" style="stroke: #000000"/>
     <use xlink:href="#md6e796f4d9" x="231.441286" y="206.981526" style="stroke: #000000"/>
     <use xlink:href="#md6e796f4d9" x="225.118249" y="206.123341" style="stroke: #000000"/>
     <use xlink:href="#md6e796f4d9" x="236.95662" y="188.379594" style="stroke: #000000"/>
     <use xlink:href="#md6e796f4d9" x="230.372746" y="182.315672" style="stroke: #000000"/>
     <use xlink:href="#md6e796f4d9" x="225.132501" y="141.943534" style="stroke: #000000"/>
     <use xlink:href="#md6e796f4d9" x="215.804681" y="180.348973" style="stroke: #000000"/>
     <use xlink:href="#md6e796f4d9" x="219.843825" y="192.0254" style="stroke: #000000"/>
     <use xlink:href="#md6e796f4d9" x="235.039256" y="97.060171" style="stroke: #000000"/>
     <use xlink:href="#md6e796f4d9" x="227.821379" y="205.018605" style="stroke: #000000"/>
     <use xlink:href="#md6e796f4d9" x="226.345859" y="197.63003" style="stroke: #000000"/>
     <use xlink:href="#md6e796f4d9" x="238.570164" y="180.836013" style="stroke: #000000"/>
     <use xlink:href="#md6e796f4d9" x="220.003129" y="200.480897" style="stroke: #000000"/>
     <use xlink:href="#md6e796f4d9" x="224.426062" y="175.291482" style="stroke: #000000"/>
     <use xlink:href="#md6e796f4d9" x="225.143577" y="184.214603" style="stroke: #000000"/>
     <use xlink:href="#md6e796f4d9" x="231.86325" y="200.171456" style="stroke: #000000"/>
     <use xlink:href="#md6e796f4d9" x="223.931872" y="201.032106" style="stroke: #000000"/>
     <use xlink:href="#md6e796f4d9" x="224.249904" y="202.752663" style="stroke: #000000"/>
     <use xlink:href="#md6e796f4d9" x="217.956623" y="203.905004" style="stroke: #000000"/>
     <use xlink:href="#md6e796f4d9" x="232.770769" y="177.247085" style="stroke: #000000"/>
     <use xlink:href="#md6e796f4d9" x="233.258059" y="144.946257" style="stroke: #000000"/>
     <use xlink:href="#md6e796f4d9" x="225.119532" y="181.187298" style="stroke: #000000"/>
     <use xlink:href="#md6e796f4d9" x="229.179014" y="175.064561" style="stroke: #000000"/>
     <use xlink:href="#md6e796f4d9" x="219.939691" y="198.209565" style="stroke: #000000"/>
     <use xlink:href="#md6e796f4d9" x="225.148492" y="168.996593" style="stroke: #000000"/>
     <use xlink:href="#md6e796f4d9" x="236.886632" y="205.016256" style="stroke: #000000"/>
     <use xlink:href="#md6e796f4d9" x="229.003813" y="153.74582" style="stroke: #000000"/>
     <use xlink:href="#md6e796f4d9" x="242.803489" y="203.913761" style="stroke: #000000"/>
     <use xlink:href="#md6e796f4d9" x="223.147172" y="155.367414" style="stroke: #000000"/>
     <use xlink:href="#md6e796f4d9" x="231.82484" y="202.584296" style="stroke: #000000"/>
     <use xlink:href="#md6e796f4d9" x="226.901869" y="199.354484" style="stroke: #000000"/>
     <use xlink:href="#md6e796f4d9" x="231.733039" y="205.545368" style="stroke: #000000"/>
     <use xlink:href="#md6e796f4d9" x="228.096739" y="188.947108" style="stroke: #000000"/>
     <use xlink:href="#md6e796f4d9" x="224.581277" y="190.286624" style="stroke: #000000"/>
     <use xlink:href="#md6e796f4d9" x="222.636821" y="166.964238" style="stroke: #000000"/>
     <use xlink:href="#md6e796f4d9" x="247.598803" y="138.316451" style="stroke: #000000"/>
     <use xlink:href="#md6e796f4d9" x="227.651688" y="137.793389" style="stroke: #000000"/>
     <use xlink:href="#md6e796f4d9" x="215.345275" y="200.189977" style="stroke: #000000"/>
     <use xlink:href="#md6e796f4d9" x="224.026643" y="144.591558" style="stroke: #000000"/>
     <use xlink:href="#md6e796f4d9" x="232.445171" y="180.623142" style="stroke: #000000"/>
     <use xlink:href="#md6e796f4d9" x="224.969571" y="157.958609" style="stroke: #000000"/>
     <use xlink:href="#md6e796f4d9" x="236.775551" y="203.694398" style="stroke: #000000"/>
     <use xlink:href="#md6e796f4d9" x="234.503469" y="201.876014" style="stroke: #000000"/>
     <use xlink:href="#md6e796f4d9" x="227.175797" y="137.236658" style="stroke: #000000"/>
     <use xlink:href="#md6e796f4d9" x="225.145936" y="157.286123" style="stroke: #000000"/>
     <use xlink:href="#md6e796f4d9" x="221.766284" y="200.824336" style="stroke: #000000"/>
     <use xlink:href="#md6e796f4d9" x="223.700687" y="207.835986" style="stroke: #000000"/>
     <use xlink:href="#md6e796f4d9" x="218.794302" y="207.744497" style="stroke: #000000"/>
     <use xlink:href="#md6e796f4d9" x="235.785298" y="171.239787" style="stroke: #000000"/>
     <use xlink:href="#md6e796f4d9" x="238.23669" y="194.226985" style="stroke: #000000"/>
     <use xlink:href="#md6e796f4d9" x="220.171362" y="204.274771" style="stroke: #000000"/>
     <use xlink:href="#md6e796f4d9" x="220.643835" y="206.300666" style="stroke: #000000"/>
     <use xlink:href="#md6e796f4d9" x="216.919966" y="173.313015" style="stroke: #000000"/>
     <use xlink:href="#md6e796f4d9" x="222.026122" y="113.292756" style="stroke: #000000"/>
     <use xlink:href="#md6e796f4d9" x="208.430463" y="195.0516" style="stroke: #000000"/>
     <use xlink:href="#md6e796f4d9" x="220.893883" y="202.406806" style="stroke: #000000"/>
     <use xlink:href="#md6e796f4d9" x="236.372401" y="207.110572" style="stroke: #000000"/>
     <use xlink:href="#md6e796f4d9" x="225.948949" y="199.373464" style="stroke: #000000"/>
     <use xlink:href="#md6e796f4d9" x="233.565478" y="110.93274" style="stroke: #000000"/>
     <use xlink:href="#md6e796f4d9" x="225.039625" y="176.834531" style="stroke: #000000"/>
     <use xlink:href="#md6e796f4d9" x="239.315254" y="205.758232" style="stroke: #000000"/>
     <use xlink:href="#md6e796f4d9" x="229.406688" y="201.652825" style="stroke: #000000"/>
     <use xlink:href="#md6e796f4d9" x="225.718409" y="130.767304" style="stroke: #000000"/>
     <use xlink:href="#md6e796f4d9" x="244.339545" y="148.173124" style="stroke: #000000"/>
     <use xlink:href="#md6e796f4d9" x="226.083483" y="164.748786" style="stroke: #000000"/>
     <use xlink:href="#md6e796f4d9" x="220.392922" y="153.083757" style="stroke: #000000"/>
     <use xlink:href="#md6e796f4d9" x="229.42377" y="202.959212" style="stroke: #000000"/>
     <use xlink:href="#md6e796f4d9" x="227.896063" y="201.777052" style="stroke: #000000"/>
     <use xlink:href="#md6e796f4d9" x="234.909129" y="194.664799" style="stroke: #000000"/>
     <use xlink:href="#md6e796f4d9" x="222.294042" y="191.709863" style="stroke: #000000"/>
     <use xlink:href="#md6e796f4d9" x="233.249032" y="189.804628" style="stroke: #000000"/>
     <use xlink:href="#md6e796f4d9" x="233.553829" y="207.29842" style="stroke: #000000"/>
     <use xlink:href="#md6e796f4d9" x="223.905523" y="159.780633" style="stroke: #000000"/>
     <use xlink:href="#md6e796f4d9" x="229.178406" y="175.212891" style="stroke: #000000"/>
     <use xlink:href="#md6e796f4d9" x="222.870756" y="196.893411" style="stroke: #000000"/>
     <use xlink:href="#md6e796f4d9" x="243.028412" y="205.832898" style="stroke: #000000"/>
     <use xlink:href="#md6e796f4d9" x="223.674206" y="208.057707" style="stroke: #000000"/>
     <use xlink:href="#md6e796f4d9" x="225.267403" y="198.935403" style="stroke: #000000"/>
     <use xlink:href="#md6e796f4d9" x="221.378958" y="186.640856" style="stroke: #000000"/>
     <use xlink:href="#md6e796f4d9" x="225.946101" y="201.348693" style="stroke: #000000"/>
     <use xlink:href="#md6e796f4d9" x="228.105212" y="155.796537" style="stroke: #000000"/>
     <use xlink:href="#md6e796f4d9" x="233.014698" y="141.13876" style="stroke: #000000"/>
     <use xlink:href="#md6e796f4d9" x="224.268504" y="154.327376" style="stroke: #000000"/>
     <use xlink:href="#md6e796f4d9" x="226.963625" y="111.759882" style="stroke: #000000"/>
     <use xlink:href="#md6e796f4d9" x="219.153813" y="168.605183" style="stroke: #000000"/>
     <use xlink:href="#md6e796f4d9" x="222.892012" y="157.721161" style="stroke: #000000"/>
     <use xlink:href="#md6e796f4d9" x="245.630166" y="159.10868" style="stroke: #000000"/>
     <use xlink:href="#md6e796f4d9" x="234.749969" y="127.524916" style="stroke: #000000"/>
     <use xlink:href="#md6e796f4d9" x="223.183778" y="146.108403" style="stroke: #000000"/>
     <use xlink:href="#md6e796f4d9" x="219.655711" y="179.826521" style="stroke: #000000"/>
     <use xlink:href="#md6e796f4d9" x="221.951695" y="199.676519" style="stroke: #000000"/>
     <use xlink:href="#md6e796f4d9" x="228.004855" y="182.936267" style="stroke: #000000"/>
     <use xlink:href="#md6e796f4d9" x="228.362874" y="203.188106" style="stroke: #000000"/>
     <use xlink:href="#md6e796f4d9" x="223.418974" y="159.696668" style="stroke: #000000"/>
     <use xlink:href="#md6e796f4d9" x="219.97822" y="184.363004" style="stroke: #000000"/>
     <use xlink:href="#md6e796f4d9" x="237.168558" y="135.602653" style="stroke: #000000"/>
     <use xlink:href="#md6e796f4d9" x="231.008783" y="162.741237" style="stroke: #000000"/>
     <use xlink:href="#md6e796f4d9" x="225.765585" y="204.157043" style="stroke: #000000"/>
     <use xlink:href="#md6e796f4d9" x="226.742239" y="177.919063" style="stroke: #000000"/>
     <use xlink:href="#md6e796f4d9" x="224.782232" y="158.605595" style="stroke: #000000"/>
     <use xlink:href="#md6e796f4d9" x="209.51109" y="177.053483" style="stroke: #000000"/>
     <use xlink:href="#md6e796f4d9" x="228.876461" y="116.650992" style="stroke: #000000"/>
     <use xlink:href="#md6e796f4d9" x="221.349093" y="187.530644" style="stroke: #000000"/>
     <use xlink:href="#md6e796f4d9" x="221.779716" y="149.865564" style="stroke: #000000"/>
     <use xlink:href="#md6e796f4d9" x="224.079555" y="187.021812" style="stroke: #000000"/>
     <use xlink:href="#md6e796f4d9" x="232.789504" y="195.512626" style="stroke: #000000"/>
     <use xlink:href="#md6e796f4d9" x="220.714604" y="167.293525" style="stroke: #000000"/>
     <use xlink:href="#md6e796f4d9" x="219.040908" y="74.200952" style="stroke: #000000"/>
     <use xlink:href="#md6e796f4d9" x="232.202841" y="201.950039" style="stroke: #000000"/>
     <use xlink:href="#md6e796f4d9" x="232.929536" y="121.801517" style="stroke: #000000"/>
     <use xlink:href="#md6e796f4d9" x="222.057346" y="179.4169" style="stroke: #000000"/>
     <use xlink:href="#md6e796f4d9" x="231.711335" y="190.529629" style="stroke: #000000"/>
     <use xlink:href="#md6e796f4d9" x="226.291874" y="119.286585" style="stroke: #000000"/>
     <use xlink:href="#md6e796f4d9" x="230.054425" y="170.159257" style="stroke: #000000"/>
     <use xlink:href="#md6e796f4d9" x="220.140761" y="169.597279" style="stroke: #000000"/>
     <use xlink:href="#md6e796f4d9" x="233.42784" y="147.741595" style="stroke: #000000"/>
     <use xlink:href="#md6e796f4d9" x="235.778081" y="173.348365" style="stroke: #000000"/>
     <use xlink:href="#md6e796f4d9" x="232.185207" y="175.794771" style="stroke: #000000"/>
     <use xlink:href="#md6e796f4d9" x="231.685586" y="166.903673" style="stroke: #000000"/>
     <use xlink:href="#md6e796f4d9" x="204.204585" y="205.636186" style="stroke: #000000"/>
     <use xlink:href="#md6e796f4d9" x="229.796391" y="175.280728" style="stroke: #000000"/>
     <use xlink:href="#md6e796f4d9" x="227.98103" y="194.912639" style="stroke: #000000"/>
     <use xlink:href="#md6e796f4d9" x="227.209386" y="205.74349" style="stroke: #000000"/>
     <use xlink:href="#md6e796f4d9" x="224.14101" y="149.96537" style="stroke: #000000"/>
     <use xlink:href="#md6e796f4d9" x="228.493832" y="189.87148" style="stroke: #000000"/>
     <use xlink:href="#md6e796f4d9" x="230.757694" y="129.685653" style="stroke: #000000"/>
     <use xlink:href="#md6e796f4d9" x="226.468566" y="198.808925" style="stroke: #000000"/>
     <use xlink:href="#md6e796f4d9" x="225.202361" y="171.847956" style="stroke: #000000"/>
     <use xlink:href="#md6e796f4d9" x="235.94621" y="100.414152" style="stroke: #000000"/>
     <use xlink:href="#md6e796f4d9" x="221.128117" y="194.418878" style="stroke: #000000"/>
     <use xlink:href="#md6e796f4d9" x="234.679607" y="196.376359" style="stroke: #000000"/>
     <use xlink:href="#md6e796f4d9" x="229.264508" y="150.347344" style="stroke: #000000"/>
     <use xlink:href="#md6e796f4d9" x="223.038577" y="152.227777" style="stroke: #000000"/>
     <use xlink:href="#md6e796f4d9" x="226.302347" y="195.844847" style="stroke: #000000"/>
     <use xlink:href="#md6e796f4d9" x="222.304451" y="204.678838" style="stroke: #000000"/>
     <use xlink:href="#md6e796f4d9" x="232.426291" y="186.069515" style="stroke: #000000"/>
     <use xlink:href="#md6e796f4d9" x="230.350198" y="159.586756" style="stroke: #000000"/>
     <use xlink:href="#md6e796f4d9" x="224.609211" y="207.291947" style="stroke: #000000"/>
     <use xlink:href="#md6e796f4d9" x="221.148098" y="35.540909" style="stroke: #000000"/>
     <use xlink:href="#md6e796f4d9" x="230.057115" y="156.755858" style="stroke: #000000"/>
     <use xlink:href="#md6e796f4d9" x="234.21783" y="204.131932" style="stroke: #000000"/>
     <use xlink:href="#md6e796f4d9" x="227.420123" y="206.076429" style="stroke: #000000"/>
     <use xlink:href="#md6e796f4d9" x="230.79726" y="182.076118" style="stroke: #000000"/>
     <use xlink:href="#md6e796f4d9" x="225.756326" y="207.492742" style="stroke: #000000"/>
     <use xlink:href="#md6e796f4d9" x="228.571277" y="192.941376" style="stroke: #000000"/>
     <use xlink:href="#md6e796f4d9" x="226.294091" y="186.191732" style="stroke: #000000"/>
     <use xlink:href="#md6e796f4d9" x="230.008418" y="200.090433" style="stroke: #000000"/>
     <use xlink:href="#md6e796f4d9" x="218.561861" y="103.598467" style="stroke: #000000"/>
     <use xlink:href="#md6e796f4d9" x="232.230372" y="130.816328" style="stroke: #000000"/>
     <use xlink:href="#md6e796f4d9" x="226.683406" y="201.225878" style="stroke: #000000"/>
     <use xlink:href="#md6e796f4d9" x="230.418137" y="196.064621" style="stroke: #000000"/>
     <use xlink:href="#md6e796f4d9" x="225.982977" y="205.00088" style="stroke: #000000"/>
     <use xlink:href="#md6e796f4d9" x="230.175432" y="161.278822" style="stroke: #000000"/>
     <use xlink:href="#md6e796f4d9" x="221.336285" y="180.533895" style="stroke: #000000"/>
     <use xlink:href="#md6e796f4d9" x="235.688577" y="163.83943" style="stroke: #000000"/>
     <use xlink:href="#md6e796f4d9" x="217.332232" y="183.345641" style="stroke: #000000"/>
     <use xlink:href="#md6e796f4d9" x="221.54775" y="198.718254" style="stroke: #000000"/>
     <use xlink:href="#md6e796f4d9" x="229.637978" y="208.194148" style="stroke: #000000"/>
     <use xlink:href="#md6e796f4d9" x="237.425331" y="86.606946" style="stroke: #000000"/>
     <use xlink:href="#md6e796f4d9" x="229.90742" y="159.205352" style="stroke: #000000"/>
     <use xlink:href="#md6e796f4d9" x="226.569335" y="203.82303" style="stroke: #000000"/>
     <use xlink:href="#md6e796f4d9" x="219.099234" y="190.944417" style="stroke: #000000"/>
     <use xlink:href="#md6e796f4d9" x="226.928706" y="156.922406" style="stroke: #000000"/>
     <use xlink:href="#md6e796f4d9" x="228.016365" y="202.840882" style="stroke: #000000"/>
     <use xlink:href="#md6e796f4d9" x="238.870426" y="179.46781" style="stroke: #000000"/>
     <use xlink:href="#md6e796f4d9" x="232.090351" y="119.714869" style="stroke: #000000"/>
     <use xlink:href="#md6e796f4d9" x="218.439259" y="186.293297" style="stroke: #000000"/>
     <use xlink:href="#md6e796f4d9" x="241.003933" y="200.312783" style="stroke: #000000"/>
     <use xlink:href="#md6e796f4d9" x="225.635866" y="204.76202" style="stroke: #000000"/>
     <use xlink:href="#md6e796f4d9" x="222.561669" y="207.190111" style="stroke: #000000"/>
     <use xlink:href="#md6e796f4d9" x="237.501356" y="183.491575" style="stroke: #000000"/>
     <use xlink:href="#md6e796f4d9" x="227.826762" y="195.616786" style="stroke: #000000"/>
     <use xlink:href="#md6e796f4d9" x="225.811055" y="205.692314" style="stroke: #000000"/>
     <use xlink:href="#md6e796f4d9" x="229.530861" y="205.288325" style="stroke: #000000"/>
     <use xlink:href="#md6e796f4d9" x="233.503953" y="176.028538" style="stroke: #000000"/>
     <use xlink:href="#md6e796f4d9" x="234.445963" y="202.856689" style="stroke: #000000"/>
     <use xlink:href="#md6e796f4d9" x="219.415809" y="205.847965" style="stroke: #000000"/>
     <use xlink:href="#md6e796f4d9" x="240.824364" y="206.749803" style="stroke: #000000"/>
     <use xlink:href="#md6e796f4d9" x="234.151047" y="183.842357" style="stroke: #000000"/>
     <use xlink:href="#md6e796f4d9" x="225.736185" y="198.803619" style="stroke: #000000"/>
     <use xlink:href="#md6e796f4d9" x="222.947489" y="146.879901" style="stroke: #000000"/>
     <use xlink:href="#md6e796f4d9" x="221.993389" y="204.483334" style="stroke: #000000"/>
     <use xlink:href="#md6e796f4d9" x="228.925429" y="141.629495" style="stroke: #000000"/>
     <use xlink:href="#md6e796f4d9" x="224.030351" y="205.329422" style="stroke: #000000"/>
     <use xlink:href="#md6e796f4d9" x="223.288801" y="190.649051" style="stroke: #000000"/>
     <use xlink:href="#md6e796f4d9" x="233.290518" y="176.404547" style="stroke: #000000"/>
     <use xlink:href="#md6e796f4d9" x="230.455953" y="206.120011" style="stroke: #000000"/>
     <use xlink:href="#md6e796f4d9" x="225.638649" y="204.473123" style="stroke: #000000"/>
     <use xlink:href="#md6e796f4d9" x="232.801852" y="143.272633" style="stroke: #000000"/>
     <use xlink:href="#md6e796f4d9" x="236.819543" y="207.145004" style="stroke: #000000"/>
     <use xlink:href="#md6e796f4d9" x="221.1971" y="158.062304" style="stroke: #000000"/>
     <use xlink:href="#md6e796f4d9" x="224.314161" y="135.098023" style="stroke: #000000"/>
     <use xlink:href="#md6e796f4d9" x="234.124143" y="176.913149" style="stroke: #000000"/>
     <use xlink:href="#md6e796f4d9" x="232.704717" y="203.346988" style="stroke: #000000"/>
     <use xlink:href="#md6e796f4d9" x="229.581074" y="183.333205" style="stroke: #000000"/>
     <use xlink:href="#md6e796f4d9" x="235.518934" y="145.002971" style="stroke: #000000"/>
     <use xlink:href="#md6e796f4d9" x="221.23698" y="184.988568" style="stroke: #000000"/>
     <use xlink:href="#md6e796f4d9" x="218.756261" y="157.314524" style="stroke: #000000"/>
     <use xlink:href="#md6e796f4d9" x="222.643861" y="205.920834" style="stroke: #000000"/>
     <use xlink:href="#md6e796f4d9" x="228.920134" y="197.819616" style="stroke: #000000"/>
     <use xlink:href="#md6e796f4d9" x="223.090732" y="189.819925" style="stroke: #000000"/>
     <use xlink:href="#md6e796f4d9" x="225.050735" y="201.257521" style="stroke: #000000"/>
     <use xlink:href="#md6e796f4d9" x="221.955393" y="162.20816" style="stroke: #000000"/>
     <use xlink:href="#md6e796f4d9" x="224.205412" y="145.446412" style="stroke: #000000"/>
     <use xlink:href="#md6e796f4d9" x="221.766372" y="207.025508" style="stroke: #000000"/>
     <use xlink:href="#md6e796f4d9" x="230.474349" y="185.547073" style="stroke: #000000"/>
     <use xlink:href="#md6e796f4d9" x="233.18668" y="206.401141" style="stroke: #000000"/>
     <use xlink:href="#md6e796f4d9" x="225.09371" y="203.156839" style="stroke: #000000"/>
     <use xlink:href="#md6e796f4d9" x="226.827243" y="178.927544" style="stroke: #000000"/>
     <use xlink:href="#md6e796f4d9" x="224.455413" y="198.770015" style="stroke: #000000"/>
     <use xlink:href="#md6e796f4d9" x="231.513687" y="168.985203" style="stroke: #000000"/>
     <use xlink:href="#md6e796f4d9" x="228.707627" y="192.403576" style="stroke: #000000"/>
     <use xlink:href="#md6e796f4d9" x="238.258621" y="193.866569" style="stroke: #000000"/>
     <use xlink:href="#md6e796f4d9" x="221.190908" y="117.047833" style="stroke: #000000"/>
     <use xlink:href="#md6e796f4d9" x="230.44285" y="168.83052" style="stroke: #000000"/>
     <use xlink:href="#md6e796f4d9" x="230.959958" y="144.670947" style="stroke: #000000"/>
     <use xlink:href="#md6e796f4d9" x="225.855237" y="135.546529" style="stroke: #000000"/>
     <use xlink:href="#md6e796f4d9" x="231.845462" y="117.975814" style="stroke: #000000"/>
     <use xlink:href="#md6e796f4d9" x="219.013995" y="204.721283" style="stroke: #000000"/>
     <use xlink:href="#md6e796f4d9" x="241.587894" y="205.990518" style="stroke: #000000"/>
     <use xlink:href="#md6e796f4d9" x="219.626221" y="169.437627" style="stroke: #000000"/>
     <use xlink:href="#md6e796f4d9" x="233.979367" y="187.129629" style="stroke: #000000"/>
     <use xlink:href="#md6e796f4d9" x="221.028136" y="200.880156" style="stroke: #000000"/>
     <use xlink:href="#md6e796f4d9" x="235.445716" y="166.493727" style="stroke: #000000"/>
     <use xlink:href="#md6e796f4d9" x="225.70082" y="203.041891" style="stroke: #000000"/>
     <use xlink:href="#md6e796f4d9" x="229.147812" y="204.150056" style="stroke: #000000"/>
     <use xlink:href="#md6e796f4d9" x="228.481006" y="168.581282" style="stroke: #000000"/>
     <use xlink:href="#md6e796f4d9" x="235.127483" y="138.726471" style="stroke: #000000"/>
     <use xlink:href="#md6e796f4d9" x="226.10204" y="180.255193" style="stroke: #000000"/>
     <use xlink:href="#md6e796f4d9" x="209.313494" y="206.832733" style="stroke: #000000"/>
     <use xlink:href="#md6e796f4d9" x="223.319357" y="199.94496" style="stroke: #000000"/>
     <use xlink:href="#md6e796f4d9" x="229.308292" y="203.977394" style="stroke: #000000"/>
     <use xlink:href="#md6e796f4d9" x="225.347399" y="199.31797" style="stroke: #000000"/>
     <use xlink:href="#md6e796f4d9" x="233.027591" y="134.60859" style="stroke: #000000"/>
     <use xlink:href="#md6e796f4d9" x="234.585511" y="198.724995" style="stroke: #000000"/>
     <use xlink:href="#md6e796f4d9" x="227.204777" y="162.457042" style="stroke: #000000"/>
     <use xlink:href="#md6e796f4d9" x="218.689583" y="193.905443" style="stroke: #000000"/>
     <use xlink:href="#md6e796f4d9" x="236.926066" y="204.1129" style="stroke: #000000"/>
     <use xlink:href="#md6e796f4d9" x="235.015287" y="206.563817" style="stroke: #000000"/>
     <use xlink:href="#md6e796f4d9" x="226.243908" y="149.722906" style="stroke: #000000"/>
     <use xlink:href="#md6e796f4d9" x="241.521171" y="188.558572" style="stroke: #000000"/>
     <use xlink:href="#md6e796f4d9" x="225.928624" y="182.562555" style="stroke: #000000"/>
     <use xlink:href="#md6e796f4d9" x="220.926623" y="176.805512" style="stroke: #000000"/>
     <use xlink:href="#md6e796f4d9" x="227.153366" y="205.658965" style="stroke: #000000"/>
     <use xlink:href="#md6e796f4d9" x="234.982163" y="179.709805" style="stroke: #000000"/>
     <use xlink:href="#md6e796f4d9" x="222.193655" y="204.252571" style="stroke: #000000"/>
     <use xlink:href="#md6e796f4d9" x="240.524487" y="173.681077" style="stroke: #000000"/>
     <use xlink:href="#md6e796f4d9" x="222.453369" y="205.852072" style="stroke: #000000"/>
     <use xlink:href="#md6e796f4d9" x="234.199025" y="105.238569" style="stroke: #000000"/>
     <use xlink:href="#md6e796f4d9" x="231.597522" y="203.835842" style="stroke: #000000"/>
     <use xlink:href="#md6e796f4d9" x="227.164892" y="133.084058" style="stroke: #000000"/>
     <use xlink:href="#md6e796f4d9" x="234.999292" y="200.37102" style="stroke: #000000"/>
     <use xlink:href="#md6e796f4d9" x="218.625152" y="145.075597" style="stroke: #000000"/>
     <use xlink:href="#md6e796f4d9" x="236.757311" y="104.210586" style="stroke: #000000"/>
     <use xlink:href="#md6e796f4d9" x="227.738377" y="183.650157" style="stroke: #000000"/>
     <use xlink:href="#md6e796f4d9" x="224.700342" y="187.232944" style="stroke: #000000"/>
     <use xlink:href="#md6e796f4d9" x="232.896571" y="177.229623" style="stroke: #000000"/>
     <use xlink:href="#md6e796f4d9" x="234.868354" y="173.835592" style="stroke: #000000"/>
     <use xlink:href="#md6e796f4d9" x="233.027429" y="160.454223" style="stroke: #000000"/>
     <use xlink:href="#md6e796f4d9" x="240.830851" y="178.141934" style="stroke: #000000"/>
     <use xlink:href="#md6e796f4d9" x="235.000517" y="165.057382" style="stroke: #000000"/>
     <use xlink:href="#md6e796f4d9" x="236.287312" y="197.623197" style="stroke: #000000"/>
     <use xlink:href="#md6e796f4d9" x="224.716658" y="185.157881" style="stroke: #000000"/>
     <use xlink:href="#md6e796f4d9" x="228.818473" y="177.403076" style="stroke: #000000"/>
     <use xlink:href="#md6e796f4d9" x="231.715047" y="200.245319" style="stroke: #000000"/>
     <use xlink:href="#md6e796f4d9" x="228.029912" y="194.510684" style="stroke: #000000"/>
     <use xlink:href="#md6e796f4d9" x="230.056602" y="169.107475" style="stroke: #000000"/>
     <use xlink:href="#md6e796f4d9" x="230.846454" y="180.892539" style="stroke: #000000"/>
     <use xlink:href="#md6e796f4d9" x="233.499861" y="176.571016" style="stroke: #000000"/>
     <use xlink:href="#md6e796f4d9" x="227.497715" y="174.203403" style="stroke: #000000"/>
     <use xlink:href="#md6e796f4d9" x="225.922762" y="198.46912" style="stroke: #000000"/>
     <use xlink:href="#md6e796f4d9" x="222.886216" y="163.998856" style="stroke: #000000"/>
     <use xlink:href="#md6e796f4d9" x="222.48379" y="162.119196" style="stroke: #000000"/>
     <use xlink:href="#md6e796f4d9" x="235.582582" y="173.003743" style="stroke: #000000"/>
     <use xlink:href="#md6e796f4d9" x="227.606148" y="163.347419" style="stroke: #000000"/>
     <use xlink:href="#md6e796f4d9" x="233.136252" y="192.828633" style="stroke: #000000"/>
     <use xlink:href="#md6e796f4d9" x="219.909753" y="146.691706" style="stroke: #000000"/>
     <use xlink:href="#md6e796f4d9" x="215.84337" y="161.575939" style="stroke: #000000"/>
     <use xlink:href="#md6e796f4d9" x="221.485229" y="184.315277" style="stroke: #000000"/>
     <use xlink:href="#md6e796f4d9" x="235.418708" y="173.477085" style="stroke: #000000"/>
     <use xlink:href="#md6e796f4d9" x="234.920252" y="182.101809" style="stroke: #000000"/>
     <use xlink:href="#md6e796f4d9" x="230.249534" y="169.247943" style="stroke: #000000"/>
     <use xlink:href="#md6e796f4d9" x="223.052129" y="184.412214" style="stroke: #000000"/>
     <use xlink:href="#md6e796f4d9" x="227.312459" y="180.312932" style="stroke: #000000"/>
     <use xlink:href="#md6e796f4d9" x="226.252986" y="207.188013" style="stroke: #000000"/>
     <use xlink:href="#md6e796f4d9" x="225.953385" y="185.462118" style="stroke: #000000"/>
     <use xlink:href="#md6e796f4d9" x="212.239607" y="186.889037" style="stroke: #000000"/>
     <use xlink:href="#md6e796f4d9" x="222.698314" y="173.403571" style="stroke: #000000"/>
     <use xlink:href="#md6e796f4d9" x="226.936117" y="207.386916" style="stroke: #000000"/>
     <use xlink:href="#md6e796f4d9" x="237.765372" y="185.745682" style="stroke: #000000"/>
     <use xlink:href="#md6e796f4d9" x="229.162535" y="159.407567" style="stroke: #000000"/>
     <use xlink:href="#md6e796f4d9" x="237.032187" y="136.226945" style="stroke: #000000"/>
     <use xlink:href="#md6e796f4d9" x="225.644134" y="198.266235" style="stroke: #000000"/>
     <use xlink:href="#md6e796f4d9" x="226.539001" y="140.48582" style="stroke: #000000"/>
     <use xlink:href="#md6e796f4d9" x="203.397745" y="162.670781" style="stroke: #000000"/>
     <use xlink:href="#md6e796f4d9" x="231.082679" y="160.345057" style="stroke: #000000"/>
     <use xlink:href="#md6e796f4d9" x="231.614232" y="203.829571" style="stroke: #000000"/>
     <use xlink:href="#md6e796f4d9" x="239.334874" y="205.440971" style="stroke: #000000"/>
     <use xlink:href="#md6e796f4d9" x="225.053635" y="188.935018" style="stroke: #000000"/>
     <use xlink:href="#md6e796f4d9" x="228.739979" y="194.904444" style="stroke: #000000"/>
     <use xlink:href="#md6e796f4d9" x="223.665396" y="131.42498" style="stroke: #000000"/>
     <use xlink:href="#md6e796f4d9" x="220.678267" y="203.002067" style="stroke: #000000"/>
     <use xlink:href="#md6e796f4d9" x="223.617295" y="205.868244" style="stroke: #000000"/>
     <use xlink:href="#md6e796f4d9" x="225.953226" y="198.910601" style="stroke: #000000"/>
     <use xlink:href="#md6e796f4d9" x="236.743771" y="179.851085" style="stroke: #000000"/>
     <use xlink:href="#md6e796f4d9" x="228.156534" y="160.189027" style="stroke: #000000"/>
     <use xlink:href="#md6e796f4d9" x="223.1259" y="198.656521" style="stroke: #000000"/>
     <use xlink:href="#md6e796f4d9" x="229.042821" y="165.491747" style="stroke: #000000"/>
     <use xlink:href="#md6e796f4d9" x="229.523153" y="140.287274" style="stroke: #000000"/>
     <use xlink:href="#md6e796f4d9" x="223.8513" y="199.029393" style="stroke: #000000"/>
     <use xlink:href="#md6e796f4d9" x="235.397175" y="99.531292" style="stroke: #000000"/>
     <use xlink:href="#md6e796f4d9" x="216.15951" y="135.607964" style="stroke: #000000"/>
     <use xlink:href="#md6e796f4d9" x="226.787399" y="174.699742" style="stroke: #000000"/>
     <use xlink:href="#md6e796f4d9" x="232.362843" y="186.711665" style="stroke: #000000"/>
     <use xlink:href="#md6e796f4d9" x="219.649142" y="202.177542" style="stroke: #000000"/>
     <use xlink:href="#md6e796f4d9" x="230.434926" y="193.169565" style="stroke: #000000"/>
     <use xlink:href="#md6e796f4d9" x="236.346876" y="194.186201" style="stroke: #000000"/>
     <use xlink:href="#md6e796f4d9" x="231.021384" y="204.749978" style="stroke: #000000"/>
     <use xlink:href="#md6e796f4d9" x="217.417168" y="190.514074" style="stroke: #000000"/>
     <use xlink:href="#md6e796f4d9" x="223.521556" y="186.465582" style="stroke: #000000"/>
     <use xlink:href="#md6e796f4d9" x="235.962389" y="141.905139" style="stroke: #000000"/>
     <use xlink:href="#md6e796f4d9" x="230.035661" y="206.092908" style="stroke: #000000"/>
     <use xlink:href="#md6e796f4d9" x="228.079938" y="200.312219" style="stroke: #000000"/>
     <use xlink:href="#md6e796f4d9" x="230.942249" y="199.497836" style="stroke: #000000"/>
     <use xlink:href="#md6e796f4d9" x="232.718096" y="184.997177" style="stroke: #000000"/>
     <use xlink:href="#md6e796f4d9" x="223.646757" y="200.183789" style="stroke: #000000"/>
     <use xlink:href="#md6e796f4d9" x="226.299694" y="127.828155" style="stroke: #000000"/>
     <use xlink:href="#md6e796f4d9" x="229.049394" y="133.89137" style="stroke: #000000"/>
     <use xlink:href="#md6e796f4d9" x="224.69068" y="199.254831" style="stroke: #000000"/>
     <use xlink:href="#md6e796f4d9" x="227.29565" y="149.175533" style="stroke: #000000"/>
     <use xlink:href="#md6e796f4d9" x="236.37847" y="153.392411" style="stroke: #000000"/>
     <use xlink:href="#md6e796f4d9" x="222.000957" y="203.513983" style="stroke: #000000"/>
     <use xlink:href="#md6e796f4d9" x="240.36862" y="166.274484" style="stroke: #000000"/>
     <use xlink:href="#md6e796f4d9" x="240.06835" y="167.002089" style="stroke: #000000"/>
     <use xlink:href="#md6e796f4d9" x="217.269442" y="200.390348" style="stroke: #000000"/>
     <use xlink:href="#md6e796f4d9" x="227.247605" y="201.709481" style="stroke: #000000"/>
     <use xlink:href="#md6e796f4d9" x="230.317135" y="175.984451" style="stroke: #000000"/>
     <use xlink:href="#md6e796f4d9" x="223.314202" y="149.124932" style="stroke: #000000"/>
     <use xlink:href="#md6e796f4d9" x="223.439788" y="150.983271" style="stroke: #000000"/>
     <use xlink:href="#md6e796f4d9" x="226.635919" y="171.984182" style="stroke: #000000"/>
     <use xlink:href="#md6e796f4d9" x="232.833139" y="204.591501" style="stroke: #000000"/>
     <use xlink:href="#md6e796f4d9" x="224.897703" y="205.746114" style="stroke: #000000"/>
     <use xlink:href="#md6e796f4d9" x="239.734242" y="203.504128" style="stroke: #000000"/>
     <use xlink:href="#md6e796f4d9" x="229.982603" y="198.830068" style="stroke: #000000"/>
     <use xlink:href="#md6e796f4d9" x="227.491583" y="164.752667" style="stroke: #000000"/>
     <use xlink:href="#md6e796f4d9" x="237.33914" y="206.813003" style="stroke: #000000"/>
     <use xlink:href="#md6e796f4d9" x="232.116724" y="200.343022" style="stroke: #000000"/>
     <use xlink:href="#md6e796f4d9" x="230.485902" y="177.535841" style="stroke: #000000"/>
     <use xlink:href="#md6e796f4d9" x="226.041166" y="207.561916" style="stroke: #000000"/>
     <use xlink:href="#md6e796f4d9" x="239.653599" y="125.845934" style="stroke: #000000"/>
     <use xlink:href="#md6e796f4d9" x="233.294117" y="131.995223" style="stroke: #000000"/>
     <use xlink:href="#md6e796f4d9" x="226.851703" y="184.877463" style="stroke: #000000"/>
     <use xlink:href="#md6e796f4d9" x="218.133988" y="181.621016" style="stroke: #000000"/>
     <use xlink:href="#md6e796f4d9" x="230.509157" y="207.554775" style="stroke: #000000"/>
     <use xlink:href="#md6e796f4d9" x="220.884611" y="203.729304" style="stroke: #000000"/>
     <use xlink:href="#md6e796f4d9" x="217.253536" y="181.936412" style="stroke: #000000"/>
     <use xlink:href="#md6e796f4d9" x="226.371074" y="195.3374" style="stroke: #000000"/>
     <use xlink:href="#md6e796f4d9" x="229.928645" y="185.734089" style="stroke: #000000"/>
     <use xlink:href="#md6e796f4d9" x="236.280805" y="166.560204" style="stroke: #000000"/>
     <use xlink:href="#md6e796f4d9" x="229.934869" y="176.84958" style="stroke: #000000"/>
     <use xlink:href="#md6e796f4d9" x="233.257298" y="201.816386" style="stroke: #000000"/>
     <use xlink:href="#md6e796f4d9" x="220.363355" y="171.885023" style="stroke: #000000"/>
     <use xlink:href="#md6e796f4d9" x="227.999516" y="151.001457" style="stroke: #000000"/>
     <use xlink:href="#md6e796f4d9" x="228.930714" y="201.099542" style="stroke: #000000"/>
     <use xlink:href="#md6e796f4d9" x="233.614099" y="205.970117" style="stroke: #000000"/>
     <use xlink:href="#md6e796f4d9" x="228.878992" y="186.706825" style="stroke: #000000"/>
     <use xlink:href="#md6e796f4d9" x="233.244984" y="160.91201" style="stroke: #000000"/>
     <use xlink:href="#md6e796f4d9" x="224.942978" y="191.562263" style="stroke: #000000"/>
     <use xlink:href="#md6e796f4d9" x="230.413992" y="166.910008" style="stroke: #000000"/>
     <use xlink:href="#md6e796f4d9" x="230.775138" y="176.746244" style="stroke: #000000"/>
     <use xlink:href="#md6e796f4d9" x="220.211736" y="199.697684" style="stroke: #000000"/>
    </g>
   </g>
   <g id="matplotlib.axis_1">
    <g id="xtick_1">
     <g id="line2d_1">
      <defs>
       <path id="m804c467578" d="M 0 0 
L 0 3 
" style="stroke: #000000; stroke-width: 0.8"/>
      </defs>
      <g>
       <use xlink:href="#m804c467578" x="101.2275" y="217.42" style="stroke: #000000; stroke-width: 0.8"/>
      </g>
     </g>
     <g id="text_1">
      <!-- Best–Best -->
      <g transform="translate(76.58375 231.518437) scale(0.1 -0.1)">
       <defs>
        <path id="DejaVuSans-42" d="M 1259 2228 
L 1259 519 
L 2272 519 
Q 2781 519 3026 730 
Q 3272 941 3272 1375 
Q 3272 1813 3026 2020 
Q 2781 2228 2272 2228 
L 1259 2228 
z
M 1259 4147 
L 1259 2741 
L 2194 2741 
Q 2656 2741 2882 2914 
Q 3109 3088 3109 3444 
Q 3109 3797 2882 3972 
Q 2656 4147 2194 4147 
L 1259 4147 
z
M 628 4666 
L 2241 4666 
Q 2963 4666 3353 4366 
Q 3744 4066 3744 3513 
Q 3744 3084 3544 2831 
Q 3344 2578 2956 2516 
Q 3422 2416 3680 2098 
Q 3938 1781 3938 1306 
Q 3938 681 3513 340 
Q 3088 0 2303 0 
L 628 0 
L 628 4666 
z
" transform="scale(0.015625)"/>
        <path id="DejaVuSans-65" d="M 3597 1894 
L 3597 1613 
L 953 1613 
Q 991 1019 1311 708 
Q 1631 397 2203 397 
Q 2534 397 2845 478 
Q 3156 559 3463 722 
L 3463 178 
Q 3153 47 2828 -22 
Q 2503 -91 2169 -91 
Q 1331 -91 842 396 
Q 353 884 353 1716 
Q 353 2575 817 3079 
Q 1281 3584 2069 3584 
Q 2775 3584 3186 3129 
Q 3597 2675 3597 1894 
z
M 3022 2063 
Q 3016 2534 2758 2815 
Q 2500 3097 2075 3097 
Q 1594 3097 1305 2825 
Q 1016 2553 972 2059 
L 3022 2063 
z
" transform="scale(0.015625)"/>
        <path id="DejaVuSans-73" d="M 2834 3397 
L 2834 2853 
Q 2591 2978 2328 3040 
Q 2066 3103 1784 3103 
Q 1356 3103 1142 2972 
Q 928 2841 928 2578 
Q 928 2378 1081 2264 
Q 1234 2150 1697 2047 
L 1894 2003 
Q 2506 1872 2764 1633 
Q 3022 1394 3022 966 
Q 3022 478 2636 193 
Q 2250 -91 1575 -91 
Q 1294 -91 989 -36 
Q 684 19 347 128 
L 347 722 
Q 666 556 975 473 
Q 1284 391 1588 391 
Q 1994 391 2212 530 
Q 2431 669 2431 922 
Q 2431 1156 2273 1281 
Q 2116 1406 1581 1522 
L 1381 1569 
Q 847 1681 609 1914 
Q 372 2147 372 2553 
Q 372 3047 722 3315 
Q 1072 3584 1716 3584 
Q 2034 3584 2315 3537 
Q 2597 3491 2834 3397 
z
" transform="scale(0.015625)"/>
        <path id="DejaVuSans-74" d="M 1172 4494 
L 1172 3500 
L 2356 3500 
L 2356 3053 
L 1172 3053 
L 1172 1153 
Q 1172 725 1289 603 
Q 1406 481 1766 481 
L 2356 481 
L 2356 0 
L 1766 0 
Q 1100 0 847 248 
Q 594 497 594 1153 
L 594 3053 
L 172 3053 
L 172 3500 
L 594 3500 
L 594 4494 
L 1172 4494 
z
" transform="scale(0.015625)"/>
        <path id="DejaVuSans-2013" d="M 313 1978 
L 2888 1978 
L 2888 1528 
L 313 1528 
L 313 1978 
z
" transform="scale(0.015625)"/>
       </defs>
       <use xlink:href="#DejaVuSans-42"/>
       <use xlink:href="#DejaVuSans-65" transform="translate(68.603516 0)"/>
       <use xlink:href="#DejaVuSans-73" transform="translate(130.126953 0)"/>
       <use xlink:href="#DejaVuSans-74" transform="translate(182.226562 0)"/>
       <use xlink:href="#DejaVuSans-2013" transform="translate(221.435547 0)"/>
       <use xlink:href="#DejaVuSans-42" transform="translate(271.435547 0)"/>
       <use xlink:href="#DejaVuSans-65" transform="translate(340.039062 0)"/>
       <use xlink:href="#DejaVuSans-73" transform="translate(401.5625 0)"/>
       <use xlink:href="#DejaVuSans-74" transform="translate(453.662109 0)"/>
      </g>
     </g>
    </g>
    <g id="xtick_2">
     <g id="line2d_2">
      <g>
       <use xlink:href="#m804c467578" x="228.1425" y="217.42" style="stroke: #000000; stroke-width: 0.8"/>
      </g>
     </g>
     <g id="text_2">
      <!-- Best–Random -->
      <g transform="translate(193.872187 231.518437) scale(0.1 -0.1)">
       <defs>
        <path id="DejaVuSans-52" d="M 2841 2188 
Q 3044 2119 3236 1894 
Q 3428 1669 3622 1275 
L 4263 0 
L 3584 0 
L 2988 1197 
Q 2756 1666 2539 1819 
Q 2322 1972 1947 1972 
L 1259 1972 
L 1259 0 
L 628 0 
L 628 4666 
L 2053 4666 
Q 2853 4666 3247 4331 
Q 3641 3997 3641 3322 
Q 3641 2881 3436 2590 
Q 3231 2300 2841 2188 
z
M 1259 4147 
L 1259 2491 
L 2053 2491 
Q 2509 2491 2742 2702 
Q 2975 2913 2975 3322 
Q 2975 3731 2742 3939 
Q 2509 4147 2053 4147 
L 1259 4147 
z
" transform="scale(0.015625)"/>
        <path id="DejaVuSans-61" d="M 2194 1759 
Q 1497 1759 1228 1600 
Q 959 1441 959 1056 
Q 959 750 1161 570 
Q 1363 391 1709 391 
Q 2188 391 2477 730 
Q 2766 1069 2766 1631 
L 2766 1759 
L 2194 1759 
z
M 3341 1997 
L 3341 0 
L 2766 0 
L 2766 531 
Q 2569 213 2275 61 
Q 1981 -91 1556 -91 
Q 1019 -91 701 211 
Q 384 513 384 1019 
Q 384 1609 779 1909 
Q 1175 2209 1959 2209 
L 2766 2209 
L 2766 2266 
Q 2766 2663 2505 2880 
Q 2244 3097 1772 3097 
Q 1472 3097 1187 3025 
Q 903 2953 641 2809 
L 641 3341 
Q 956 3463 1253 3523 
Q 1550 3584 1831 3584 
Q 2591 3584 2966 3190 
Q 3341 2797 3341 1997 
z
" transform="scale(0.015625)"/>
        <path id="DejaVuSans-6e" d="M 3513 2113 
L 3513 0 
L 2938 0 
L 2938 2094 
Q 2938 2591 2744 2837 
Q 2550 3084 2163 3084 
Q 1697 3084 1428 2787 
Q 1159 2491 1159 1978 
L 1159 0 
L 581 0 
L 581 3500 
L 1159 3500 
L 1159 2956 
Q 1366 3272 1645 3428 
Q 1925 3584 2291 3584 
Q 2894 3584 3203 3211 
Q 3513 2838 3513 2113 
z
" transform="scale(0.015625)"/>
        <path id="DejaVuSans-64" d="M 2906 2969 
L 2906 4863 
L 3481 4863 
L 3481 0 
L 2906 0 
L 2906 525 
Q 2725 213 2448 61 
Q 2172 -91 1784 -91 
Q 1150 -91 751 415 
Q 353 922 353 1747 
Q 353 2572 751 3078 
Q 1150 3584 1784 3584 
Q 2172 3584 2448 3432 
Q 2725 3281 2906 2969 
z
M 947 1747 
Q 947 1113 1208 752 
Q 1469 391 1925 391 
Q 2381 391 2643 752 
Q 2906 1113 2906 1747 
Q 2906 2381 2643 2742 
Q 2381 3103 1925 3103 
Q 1469 3103 1208 2742 
Q 947 2381 947 1747 
z
" transform="scale(0.015625)"/>
        <path id="DejaVuSans-6f" d="M 1959 3097 
Q 1497 3097 1228 2736 
Q 959 2375 959 1747 
Q 959 1119 1226 758 
Q 1494 397 1959 397 
Q 2419 397 2687 759 
Q 2956 1122 2956 1747 
Q 2956 2369 2687 2733 
Q 2419 3097 1959 3097 
z
M 1959 3584 
Q 2709 3584 3137 3096 
Q 3566 2609 3566 1747 
Q 3566 888 3137 398 
Q 2709 -91 1959 -91 
Q 1206 -91 779 398 
Q 353 888 353 1747 
Q 353 2609 779 3096 
Q 1206 3584 1959 3584 
z
" transform="scale(0.015625)"/>
        <path id="DejaVuSans-6d" d="M 3328 2828 
Q 3544 3216 3844 3400 
Q 4144 3584 4550 3584 
Q 5097 3584 5394 3201 
Q 5691 2819 5691 2113 
L 5691 0 
L 5113 0 
L 5113 2094 
Q 5113 2597 4934 2840 
Q 4756 3084 4391 3084 
Q 3944 3084 3684 2787 
Q 3425 2491 3425 1978 
L 3425 0 
L 2847 0 
L 2847 2094 
Q 2847 2600 2669 2842 
Q 2491 3084 2119 3084 
Q 1678 3084 1418 2786 
Q 1159 2488 1159 1978 
L 1159 0 
L 581 0 
L 581 3500 
L 1159 3500 
L 1159 2956 
Q 1356 3278 1631 3431 
Q 1906 3584 2284 3584 
Q 2666 3584 2933 3390 
Q 3200 3197 3328 2828 
z
" transform="scale(0.015625)"/>
       </defs>
       <use xlink:href="#DejaVuSans-42"/>
       <use xlink:href="#DejaVuSans-65" transform="translate(68.603516 0)"/>
       <use xlink:href="#DejaVuSans-73" transform="translate(130.126953 0)"/>
       <use xlink:href="#DejaVuSans-74" transform="translate(182.226562 0)"/>
       <use xlink:href="#DejaVuSans-2013" transform="translate(221.435547 0)"/>
       <use xlink:href="#DejaVuSans-52" transform="translate(271.435547 0)"/>
       <use xlink:href="#DejaVuSans-61" transform="translate(338.667969 0)"/>
       <use xlink:href="#DejaVuSans-6e" transform="translate(399.947266 0)"/>
       <use xlink:href="#DejaVuSans-64" transform="translate(463.326172 0)"/>
       <use xlink:href="#DejaVuSans-6f" transform="translate(526.802734 0)"/>
       <use xlink:href="#DejaVuSans-6d" transform="translate(587.984375 0)"/>
      </g>
     </g>
    </g>
   </g>
   <g id="matplotlib.axis_2">
    <g id="ytick_1">
     <g id="line2d_3">
      <defs>
       <path id="md63c9ab557" d="M 0 0 
L -3 0 
" style="stroke: #000000; stroke-width: 0.8"/>
      </defs>
      <g>
       <use xlink:href="#md63c9ab557" x="37.77" y="208.843143" style="stroke: #000000; stroke-width: 0.8"/>
      </g>
     </g>
     <g id="text_3">
      <!-- 0 -->
      <g transform="translate(24.9075 212.642361) scale(0.1 -0.1)">
       <defs>
        <path id="DejaVuSans-30" d="M 2034 4250 
Q 1547 4250 1301 3770 
Q 1056 3291 1056 2328 
Q 1056 1369 1301 889 
Q 1547 409 2034 409 
Q 2525 409 2770 889 
Q 3016 1369 3016 2328 
Q 3016 3291 2770 3770 
Q 2525 4250 2034 4250 
z
M 2034 4750 
Q 2819 4750 3233 4129 
Q 3647 3509 3647 2328 
Q 3647 1150 3233 529 
Q 2819 -91 2034 -91 
Q 1250 -91 836 529 
Q 422 1150 422 2328 
Q 422 3509 836 4129 
Q 1250 4750 2034 4750 
z
" transform="scale(0.015625)"/>
       </defs>
       <use xlink:href="#DejaVuSans-30"/>
      </g>
     </g>
    </g>
    <g id="ytick_2">
     <g id="line2d_4">
      <g>
       <use xlink:href="#md63c9ab557" x="37.77" y="186.748286" style="stroke: #000000; stroke-width: 0.8"/>
      </g>
     </g>
     <g id="text_4">
      <!-- 1 -->
      <g transform="translate(24.9075 190.547505) scale(0.1 -0.1)">
       <defs>
        <path id="DejaVuSans-31" d="M 794 531 
L 1825 531 
L 1825 4091 
L 703 3866 
L 703 4441 
L 1819 4666 
L 2450 4666 
L 2450 531 
L 3481 531 
L 3481 0 
L 794 0 
L 794 531 
z
" transform="scale(0.015625)"/>
       </defs>
       <use xlink:href="#DejaVuSans-31"/>
      </g>
     </g>
    </g>
    <g id="ytick_3">
     <g id="line2d_5">
      <g>
       <use xlink:href="#md63c9ab557" x="37.77" y="164.653429" style="stroke: #000000; stroke-width: 0.8"/>
      </g>
     </g>
     <g id="text_5">
      <!-- 2 -->
      <g transform="translate(24.9075 168.452648) scale(0.1 -0.1)">
       <defs>
        <path id="DejaVuSans-32" d="M 1228 531 
L 3431 531 
L 3431 0 
L 469 0 
L 469 531 
Q 828 903 1448 1529 
Q 2069 2156 2228 2338 
Q 2531 2678 2651 2914 
Q 2772 3150 2772 3378 
Q 2772 3750 2511 3984 
Q 2250 4219 1831 4219 
Q 1534 4219 1204 4116 
Q 875 4013 500 3803 
L 500 4441 
Q 881 4594 1212 4672 
Q 1544 4750 1819 4750 
Q 2544 4750 2975 4387 
Q 3406 4025 3406 3419 
Q 3406 3131 3298 2873 
Q 3191 2616 2906 2266 
Q 2828 2175 2409 1742 
Q 1991 1309 1228 531 
z
" transform="scale(0.015625)"/>
       </defs>
       <use xlink:href="#DejaVuSans-32"/>
      </g>
     </g>
    </g>
    <g id="ytick_4">
     <g id="line2d_6">
      <g>
       <use xlink:href="#md63c9ab557" x="37.77" y="142.558573" style="stroke: #000000; stroke-width: 0.8"/>
      </g>
     </g>
     <g id="text_6">
      <!-- 3 -->
      <g transform="translate(24.9075 146.357792) scale(0.1 -0.1)">
       <defs>
        <path id="DejaVuSans-33" d="M 2597 2516 
Q 3050 2419 3304 2112 
Q 3559 1806 3559 1356 
Q 3559 666 3084 287 
Q 2609 -91 1734 -91 
Q 1441 -91 1130 -33 
Q 819 25 488 141 
L 488 750 
Q 750 597 1062 519 
Q 1375 441 1716 441 
Q 2309 441 2620 675 
Q 2931 909 2931 1356 
Q 2931 1769 2642 2001 
Q 2353 2234 1838 2234 
L 1294 2234 
L 1294 2753 
L 1863 2753 
Q 2328 2753 2575 2939 
Q 2822 3125 2822 3475 
Q 2822 3834 2567 4026 
Q 2313 4219 1838 4219 
Q 1578 4219 1281 4162 
Q 984 4106 628 3988 
L 628 4550 
Q 988 4650 1302 4700 
Q 1616 4750 1894 4750 
Q 2613 4750 3031 4423 
Q 3450 4097 3450 3541 
Q 3450 3153 3228 2886 
Q 3006 2619 2597 2516 
z
" transform="scale(0.015625)"/>
       </defs>
       <use xlink:href="#DejaVuSans-33"/>
      </g>
     </g>
    </g>
    <g id="ytick_5">
     <g id="line2d_7">
      <g>
       <use xlink:href="#md63c9ab557" x="37.77" y="120.463716" style="stroke: #000000; stroke-width: 0.8"/>
      </g>
     </g>
     <g id="text_7">
      <!-- 4 -->
      <g transform="translate(24.9075 124.262935) scale(0.1 -0.1)">
       <defs>
        <path id="DejaVuSans-34" d="M 2419 4116 
L 825 1625 
L 2419 1625 
L 2419 4116 
z
M 2253 4666 
L 3047 4666 
L 3047 1625 
L 3713 1625 
L 3713 1100 
L 3047 1100 
L 3047 0 
L 2419 0 
L 2419 1100 
L 313 1100 
L 313 1709 
L 2253 4666 
z
" transform="scale(0.015625)"/>
       </defs>
       <use xlink:href="#DejaVuSans-34"/>
      </g>
     </g>
    </g>
    <g id="ytick_6">
     <g id="line2d_8">
      <g>
       <use xlink:href="#md63c9ab557" x="37.77" y="98.36886" style="stroke: #000000; stroke-width: 0.8"/>
      </g>
     </g>
     <g id="text_8">
      <!-- 5 -->
      <g transform="translate(24.9075 102.168078) scale(0.1 -0.1)">
       <defs>
        <path id="DejaVuSans-35" d="M 691 4666 
L 3169 4666 
L 3169 4134 
L 1269 4134 
L 1269 2991 
Q 1406 3038 1543 3061 
Q 1681 3084 1819 3084 
Q 2600 3084 3056 2656 
Q 3513 2228 3513 1497 
Q 3513 744 3044 326 
Q 2575 -91 1722 -91 
Q 1428 -91 1123 -41 
Q 819 9 494 109 
L 494 744 
Q 775 591 1075 516 
Q 1375 441 1709 441 
Q 2250 441 2565 725 
Q 2881 1009 2881 1497 
Q 2881 1984 2565 2268 
Q 2250 2553 1709 2553 
Q 1456 2553 1204 2497 
Q 953 2441 691 2322 
L 691 4666 
z
" transform="scale(0.015625)"/>
       </defs>
       <use xlink:href="#DejaVuSans-35"/>
      </g>
     </g>
    </g>
    <g id="ytick_7">
     <g id="line2d_9">
      <g>
       <use xlink:href="#md63c9ab557" x="37.77" y="76.274003" style="stroke: #000000; stroke-width: 0.8"/>
      </g>
     </g>
     <g id="text_9">
      <!-- 6 -->
      <g transform="translate(24.9075 80.073222) scale(0.1 -0.1)">
       <defs>
        <path id="DejaVuSans-36" d="M 2113 2584 
Q 1688 2584 1439 2293 
Q 1191 2003 1191 1497 
Q 1191 994 1439 701 
Q 1688 409 2113 409 
Q 2538 409 2786 701 
Q 3034 994 3034 1497 
Q 3034 2003 2786 2293 
Q 2538 2584 2113 2584 
z
M 3366 4563 
L 3366 3988 
Q 3128 4100 2886 4159 
Q 2644 4219 2406 4219 
Q 1781 4219 1451 3797 
Q 1122 3375 1075 2522 
Q 1259 2794 1537 2939 
Q 1816 3084 2150 3084 
Q 2853 3084 3261 2657 
Q 3669 2231 3669 1497 
Q 3669 778 3244 343 
Q 2819 -91 2113 -91 
Q 1303 -91 875 529 
Q 447 1150 447 2328 
Q 447 3434 972 4092 
Q 1497 4750 2381 4750 
Q 2619 4750 2861 4703 
Q 3103 4656 3366 4563 
z
" transform="scale(0.015625)"/>
       </defs>
       <use xlink:href="#DejaVuSans-36"/>
      </g>
     </g>
    </g>
    <g id="ytick_8">
     <g id="line2d_10">
      <g>
       <use xlink:href="#md63c9ab557" x="37.77" y="54.179147" style="stroke: #000000; stroke-width: 0.8"/>
      </g>
     </g>
     <g id="text_10">
      <!-- 7 -->
      <g transform="translate(24.9075 57.978365) scale(0.1 -0.1)">
       <defs>
        <path id="DejaVuSans-37" d="M 525 4666 
L 3525 4666 
L 3525 4397 
L 1831 0 
L 1172 0 
L 2766 4134 
L 525 4134 
L 525 4666 
z
" transform="scale(0.015625)"/>
       </defs>
       <use xlink:href="#DejaVuSans-37"/>
      </g>
     </g>
    </g>
    <g id="ytick_9">
     <g id="line2d_11">
      <g>
       <use xlink:href="#md63c9ab557" x="37.77" y="32.08429" style="stroke: #000000; stroke-width: 0.8"/>
      </g>
     </g>
     <g id="text_11">
      <!-- 8 -->
      <g transform="translate(24.9075 35.883509) scale(0.1 -0.1)">
       <defs>
        <path id="DejaVuSans-38" d="M 2034 2216 
Q 1584 2216 1326 1975 
Q 1069 1734 1069 1313 
Q 1069 891 1326 650 
Q 1584 409 2034 409 
Q 2484 409 2743 651 
Q 3003 894 3003 1313 
Q 3003 1734 2745 1975 
Q 2488 2216 2034 2216 
z
M 1403 2484 
Q 997 2584 770 2862 
Q 544 3141 544 3541 
Q 544 4100 942 4425 
Q 1341 4750 2034 4750 
Q 2731 4750 3128 4425 
Q 3525 4100 3525 3541 
Q 3525 3141 3298 2862 
Q 3072 2584 2669 2484 
Q 3125 2378 3379 2068 
Q 3634 1759 3634 1313 
Q 3634 634 3220 271 
Q 2806 -91 2034 -91 
Q 1263 -91 848 271 
Q 434 634 434 1313 
Q 434 1759 690 2068 
Q 947 2378 1403 2484 
z
M 1172 3481 
Q 1172 3119 1398 2916 
Q 1625 2713 2034 2713 
Q 2441 2713 2670 2916 
Q 2900 3119 2900 3481 
Q 2900 3844 2670 4047 
Q 2441 4250 2034 4250 
Q 1625 4250 1398 4047 
Q 1172 3844 1172 3481 
z
" transform="scale(0.015625)"/>
       </defs>
       <use xlink:href="#DejaVuSans-38"/>
      </g>
     </g>
    </g>
    <g id="text_12">
     <!-- euclid -->
     <g transform="translate(18.827813 137.096875) rotate(-90) scale(0.1 -0.1)">
      <defs>
       <path id="DejaVuSans-75" d="M 544 1381 
L 544 3500 
L 1119 3500 
L 1119 1403 
Q 1119 906 1312 657 
Q 1506 409 1894 409 
Q 2359 409 2629 706 
Q 2900 1003 2900 1516 
L 2900 3500 
L 3475 3500 
L 3475 0 
L 2900 0 
L 2900 538 
Q 2691 219 2414 64 
Q 2138 -91 1772 -91 
Q 1169 -91 856 284 
Q 544 659 544 1381 
z
M 1991 3584 
L 1991 3584 
z
" transform="scale(0.015625)"/>
       <path id="DejaVuSans-63" d="M 3122 3366 
L 3122 2828 
Q 2878 2963 2633 3030 
Q 2388 3097 2138 3097 
Q 1578 3097 1268 2742 
Q 959 2388 959 1747 
Q 959 1106 1268 751 
Q 1578 397 2138 397 
Q 2388 397 2633 464 
Q 2878 531 3122 666 
L 3122 134 
Q 2881 22 2623 -34 
Q 2366 -91 2075 -91 
Q 1284 -91 818 406 
Q 353 903 353 1747 
Q 353 2603 823 3093 
Q 1294 3584 2113 3584 
Q 2378 3584 2631 3529 
Q 2884 3475 3122 3366 
z
" transform="scale(0.015625)"/>
       <path id="DejaVuSans-6c" d="M 603 4863 
L 1178 4863 
L 1178 0 
L 603 0 
L 603 4863 
z
" transform="scale(0.015625)"/>
       <path id="DejaVuSans-69" d="M 603 3500 
L 1178 3500 
L 1178 0 
L 603 0 
L 603 3500 
z
M 603 4863 
L 1178 4863 
L 1178 4134 
L 603 4134 
L 603 4863 
z
" transform="scale(0.015625)"/>
      </defs>
      <use xlink:href="#DejaVuSans-65"/>
      <use xlink:href="#DejaVuSans-75" transform="translate(61.523438 0)"/>
      <use xlink:href="#DejaVuSans-63" transform="translate(124.902344 0)"/>
      <use xlink:href="#DejaVuSans-6c" transform="translate(179.882812 0)"/>
      <use xlink:href="#DejaVuSans-69" transform="translate(207.666016 0)"/>
      <use xlink:href="#DejaVuSans-64" transform="translate(235.449219 0)"/>
     </g>
    </g>
   </g>
   <g id="patch_3">
    <path d="M 89.80515 206.43332 
L 112.64985 206.43332 
L 112.64985 201.407224 
L 89.80515 201.407224 
L 89.80515 206.43332 
z
" clip-path="url(#p5948c831f6)" style="fill: #ffffff; stroke: #000000; stroke-linejoin: miter"/>
   </g>
   <g id="line2d_12">
    <path d="M 101.2275 206.43332 
L 101.2275 207.722222 
" clip-path="url(#p5948c831f6)" style="fill: none; stroke: #000000; stroke-linecap: square"/>
   </g>
   <g id="line2d_13">
    <path d="M 101.2275 201.407224 
L 101.2275 164.940629 
" clip-path="url(#p5948c831f6)" style="fill: none; stroke: #000000; stroke-linecap: square"/>
   </g>
   <g id="line2d_14">
    <path d="M 95.516325 207.722222 
L 106.938675 207.722222 
" clip-path="url(#p5948c831f6)" style="fill: none; stroke: #000000; stroke-linecap: square"/>
   </g>
   <g id="line2d_15">
    <path d="M 95.516325 164.940629 
L 106.938675 164.940629 
" clip-path="url(#p5948c831f6)" style="fill: none; stroke: #000000; stroke-linecap: square"/>
   </g>
   <g id="patch_4">
    <path d="M 216.72015 201.762808 
L 239.56485 201.762808 
L 239.56485 162.27038 
L 216.72015 162.27038 
L 216.72015 201.762808 
z
" clip-path="url(#p5948c831f6)" style="fill: #ffffff; stroke: #000000; stroke-linejoin: miter"/>
   </g>
   <g id="line2d_16">
    <path d="M 228.1425 201.762808 
L 228.1425 206.832733 
" clip-path="url(#p5948c831f6)" style="fill: none; stroke: #000000; stroke-linecap: square"/>
   </g>
   <g id="line2d_17">
    <path d="M 228.1425 162.27038 
L 228.1425 119.597073 
" clip-path="url(#p5948c831f6)" style="fill: none; stroke: #000000; stroke-linecap: square"/>
   </g>
   <g id="line2d_18">
    <path d="M 222.431325 206.832733 
L 233.853675 206.832733 
" clip-path="url(#p5948c831f6)" style="fill: none; stroke: #000000; stroke-linecap: square"/>
   </g>
   <g id="line2d_19">
    <path d="M 222.431325 119.597073 
L 233.853675 119.597073 
" clip-path="url(#p5948c831f6)" style="fill: none; stroke: #000000; stroke-linecap: square"/>
   </g>
   <g id="line2d_20">
    <path d="M 89.80515 204.403805 
L 112.64985 204.403805 
" clip-path="url(#p5948c831f6)" style="fill: none; stroke: #000000; stroke-width: 1.2"/>
   </g>
   <g id="line2d_21">
    <path d="M 216.72015 185.504596 
L 239.56485 185.504596 
" clip-path="url(#p5948c831f6)" style="fill: none; stroke: #000000; stroke-width: 1.2"/>
   </g>
   <g id="patch_5">
    <path d="M 37.77 217.42 
L 37.77 26.88 
" style="fill: none; stroke: #000000; stroke-width: 0.8; stroke-linejoin: miter; stroke-linecap: square"/>
   </g>
   <g id="patch_6">
    <path d="M 37.77 217.42 
L 291.6 217.42 
" style="fill: none; stroke: #000000; stroke-width: 0.8; stroke-linejoin: miter; stroke-linecap: square"/>
   </g>
   <g id="text_13">
    <!-- euclid.  ratio br/bb = 3.257 -->
    <g transform="translate(83.354063 20.88) scale(0.12 -0.12)">
     <defs>
      <path id="DejaVuSans-2e" d="M 684 794 
L 1344 794 
L 1344 0 
L 684 0 
L 684 794 
z
" transform="scale(0.015625)"/>
      <path id="DejaVuSans-20" transform="scale(0.015625)"/>
      <path id="DejaVuSans-72" d="M 2631 2963 
Q 2534 3019 2420 3045 
Q 2306 3072 2169 3072 
Q 1681 3072 1420 2755 
Q 1159 2438 1159 1844 
L 1159 0 
L 581 0 
L 581 3500 
L 1159 3500 
L 1159 2956 
Q 1341 3275 1631 3429 
Q 1922 3584 2338 3584 
Q 2397 3584 2469 3576 
Q 2541 3569 2628 3553 
L 2631 2963 
z
" transform="scale(0.015625)"/>
      <path id="DejaVuSans-62" d="M 3116 1747 
Q 3116 2381 2855 2742 
Q 2594 3103 2138 3103 
Q 1681 3103 1420 2742 
Q 1159 2381 1159 1747 
Q 1159 1113 1420 752 
Q 1681 391 2138 391 
Q 2594 391 2855 752 
Q 3116 1113 3116 1747 
z
M 1159 2969 
Q 1341 3281 1617 3432 
Q 1894 3584 2278 3584 
Q 2916 3584 3314 3078 
Q 3713 2572 3713 1747 
Q 3713 922 3314 415 
Q 2916 -91 2278 -91 
Q 1894 -91 1617 61 
Q 1341 213 1159 525 
L 1159 0 
L 581 0 
L 581 4863 
L 1159 4863 
L 1159 2969 
z
" transform="scale(0.015625)"/>
      <path id="DejaVuSans-2f" d="M 1625 4666 
L 2156 4666 
L 531 -594 
L 0 -594 
L 1625 4666 
z
" transform="scale(0.015625)"/>
      <path id="DejaVuSans-3d" d="M 678 2906 
L 4684 2906 
L 4684 2381 
L 678 2381 
L 678 2906 
z
M 678 1631 
L 4684 1631 
L 4684 1100 
L 678 1100 
L 678 1631 
z
" transform="scale(0.015625)"/>
     </defs>
     <use xlink:href="#DejaVuSans-65"/>
     <use xlink:href="#DejaVuSans-75" transform="translate(61.523438 0)"/>
     <use xlink:href="#DejaVuSans-63" transform="translate(124.902344 0)"/>
     <use xlink:href="#DejaVuSans-6c" transform="translate(179.882812 0)"/>
     <use xlink:href="#DejaVuSans-69" transform="translate(207.666016 0)"/>
     <use xlink:href="#DejaVuSans-64" transform="translate(235.449219 0)"/>
     <use xlink:href="#DejaVuSans-2e" transform="translate(298.925781 0)"/>
     <use xlink:href="#DejaVuSans-20" transform="translate(330.712891 0)"/>
     <use xlink:href="#DejaVuSans-20" transform="translate(362.5 0)"/>
     <use xlink:href="#DejaVuSans-72" transform="translate(394.287109 0)"/>
     <use xlink:href="#DejaVuSans-61" transform="translate(435.400391 0)"/>
     <use xlink:href="#DejaVuSans-74" transform="translate(496.679688 0)"/>
     <use xlink:href="#DejaVuSans-69" transform="translate(535.888672 0)"/>
     <use xlink:href="#DejaVuSans-6f" transform="translate(563.671875 0)"/>
     <use xlink:href="#DejaVuSans-20" transform="translate(624.853516 0)"/>
     <use xlink:href="#DejaVuSans-62" transform="translate(656.640625 0)"/>
     <use xlink:href="#DejaVuSans-72" transform="translate(720.117188 0)"/>
     <use xlink:href="#DejaVuSans-2f" transform="translate(761.230469 0)"/>
     <use xlink:href="#DejaVuSans-62" transform="translate(794.921875 0)"/>
     <use xlink:href="#DejaVuSans-62" transform="translate(858.398438 0)"/>
     <use xlink:href="#DejaVuSans-20" transform="translate(921.875 0)"/>
     <use xlink:href="#DejaVuSans-3d" transform="translate(953.662109 0)"/>
     <use xlink:href="#DejaVuSans-20" transform="translate(1037.451172 0)"/>
     <use xlink:href="#DejaVuSans-33" transform="translate(1069.238281 0)"/>
     <use xlink:href="#DejaVuSans-2e" transform="translate(1132.861328 0)"/>
     <use xlink:href="#DejaVuSans-32" transform="translate(1164.648438 0)"/>
     <use xlink:href="#DejaVuSans-35" transform="translate(1228.271484 0)"/>
     <use xlink:href="#DejaVuSans-37" transform="translate(1291.894531 0)"/>
    </g>
   </g>
  </g>
 </g>
 <defs>
  <clipPath id="p5948c831f6">
   <rect x="37.77" y="26.88" width="253.83" height="190.54"/>
  </clipPath>
 </defs>
</svg>
