<?xml version="1.0" encoding="utf-8" standalone="no"?>
<!DOCTYPE svg PUBLIC "-//W3C//DTD SVG 1.1//EN"
  "http://www.w3.org/Graphics/SVG/1.1/DTD/svg11.dtd">
<svg xmlns:xlink="http://www.w3.org/1999/xlink" width="187.08pt" height="187.08pt" viewBox="0 0 187.08 187.08" xmlns="http://www.w3.org/2000/svg" version="1.1">
 <metadata>
  <rdf:RDF xmlns:dc="http://purl.org/dc/elements/1.1/" xmlns:cc="http://creativecommons.org/ns#" xmlns:rdf="http://www.w3.org/1999/02/22-rdf-syntax-ns#">
   <cc:Work>
    <dc:type rdf:resource="http://purl.org/dc/dcmitype/StillImage"/>
    <dc:date>2026-02-07T15:31:20.628156</dc:date>
    <dc:format>image/svg+xml</dc:format>
    <dc:creator>
     <cc:Agent>
      <dc:title>Matplotlib v3.10.8, https://matplotlib.org/</dc:title>
     </cc:Agent>
    </dc:creator>
   </cc:Work>
  </rdf:RDF>
 </metadata>
 <defs>
  <style type="text/css">*{stroke-linejoin: round; stroke-linecap: butt}</style>
 </defs>
 <g id="figure_1">
  <g id="patch_1">
   <path d="M -0 187.08 
L 187.08 187.08 
L 187.08 0 
L -0 0 
z
" style="fill: #ffffff"/>
  </g>
  <g id="axes_1">
   <g id="patch_2">
    <path d="M 1.44 185.64 
L 185.64 185.64 
L 185.64 1.44 
L 1.44 1.44 
z
" style="fill: #ffffff"/>
   </g>
   <g id="matplotlib.axis_1"/>
   <g id="matplotlib.axis_2"/>
   <g id="line2d_1">
    <path d="M 133.71966 159.325714 
L 132.363087 157.151699 
L 131.019526 154.967397 
L 129.675948 152.783023 
L 128.332386 150.598649 
L 126.980626 148.420821 
L 125.617252 146.2522 
L 124.251134 144.085809 
L 122.862393 141.885395 
L 121.464355 139.670881 
L 120.083664 137.498664 
L 118.695285 135.349968 
L 117.299892 133.206884 
L 115.883913 131.054663 
L 114.430132 128.902515 
L 112.970174 126.75533 
L 111.554014 124.674108 
L 110.193071 122.659782 
L 108.787557 120.559929 
L 107.366781 118.437057 
L 105.955402 116.306633 
L 104.547342 114.147435 
L 103.085528 112.001689 
L 101.600171 109.857094 
L 100.108046 107.76055 
L 99.107562 106.472526 
L 97.557657 104.421947 
L 96.083225 102.535446 
L 94.749373 100.861361 
L 93.612894 99.375667 
L 92.329 97.630369 
L 90.880748 95.546773 
L 89.468375 93.417211 
L 88.105575 91.262761 
L 86.931622 89.332813 
L 85.666967 87.262739 
L 84.32205 85.079444 
L 82.955587 82.864931 
L 81.575718 80.635959 
L 80.221626 78.438925 
L 78.876709 76.25563 
L 77.68544 74.271444 
L 76.493128 72.226331 
L 75.205514 69.997431 
L 74.006088 67.872042 
L 72.899706 65.88836 
L 71.804634 63.895614 
L 70.715132 61.842301 
L 69.6208 59.72727 
L 68.813845 57.994273 
L 68.278249 56.617269 
L 67.766425 55.221347 
L 67.811357 54.603807 
L 68.132873 54.364631 
L 68.759368 54.569495 
L 69.17589 54.44311 
L 69.347248 53.945193 
L 69.970532 54.12675 
L 70.564852 54.262919 
L 70.737705 53.763779 
L 70.899822 53.2732 
L 71.002049 52.830311 
L 71.010034 52.462376 
L 70.354566 51.254702 
L 69.920211 50.51056 
L 69.917501 50.619322 
L 68.914257 49.434738 
L 67.334789 47.575787 
L 66.339102 46.671955 
L 65.905536 46.612395 
L 65.716229 46.980258 
L 65.089011 46.775969 
L 64.543623 46.707777 
L 64.261339 47.039098 
L 63.873116 47.209506 
L 63.285991 46.973352 
L 62.745688 46.699865 
L 61.973644 46.610956 
L 53.36034 27.754286 
" clip-path="url(#p4923cb1e1a)" style="fill: none; stroke: #ff7f0e; stroke-width: 2.4; stroke-linecap: round"/>
   </g>
  </g>
 </g>
 <defs>
  <clipPath id="p4923cb1e1a">
   <rect x="1.44" y="1.44" width="184.2" height="184.2"/>
  </clipPath>
 </defs>
</svg>
