<?xml version="1.0" encoding="utf-8" standalone="no"?>
<!DOCTYPE svg PUBLIC "-//W3C//DTD SVG 1.1//EN"
  "http://www.w3.org/Graphics/SVG/1.1/DTD/svg11.dtd">
<svg xmlns:xlink="http://www.w3.org/1999/xlink" width="187.08pt" height="187.08pt" viewBox="0 0 187.08 187.08" xmlns="http://www.w3.org/2000/svg" version="1.1">
 <metadata>
  <rdf:RDF xmlns:dc="http://purl.org/dc/elements/1.1/" xmlns:cc="http://creativecommons.org/ns#" xmlns:rdf="http://www.w3.org/1999/02/22-rdf-syntax-ns#">
   <cc:Work>
    <dc:type rdf:resource="http://purl.org/dc/dcmitype/StillImage"/>
    <dc:date>2026-02-07T15:31:20.582663</dc:date>
    <dc:format>image/svg+xml</dc:format>
    <dc:creator>
     <cc:Agent>
      <dc:title>Matplotlib v3.10.8, https://matplotlib.org/</dc:title>
     </cc:Agent>
    </dc:creator>
   </cc:Work>
  </rdf:RDF>
 </metadata>
 <defs>
  <style type="text/css">*{stroke-linejoin: round; stroke-linecap: butt}</style>
 </defs>
 <g id="figure_1">
  <g id="patch_1">
   <path d="M -0 187.08 
L 187.08 187.08 
L 187.08 0 
L -0 0 
z
" style="fill: #ffffff"/>
  </g>
  <g id="axes_1">
   <g id="patch_2">
    <path d="M 1.44 185.64 
L 185.64 185.64 
L 185.64 1.44 
L 1.44 1.44 
z
" style="fill: #ffffff"/>
   </g>
   <g id="matplotlib.axis_1"/>
   <g id="matplotlib.axis_2"/>
   <g id="line2d_1">
    <path d="M 134.617763 159.325714 
L 133.146545 157.072831 
L 131.877362 155.110242 
L 130.271999 152.63543 
L 128.563201 150.013746 
L 127.05231 147.695395 
L 125.449028 145.244729 
L 123.598917 142.43078 
L 121.818273 139.74218 
L 120.047492 137.082347 
L 118.350448 134.54255 
L 118.184083 134.306686 
L 116.402053 131.632435 
L 114.585076 128.897959 
L 112.728458 126.089185 
L 111.401704 124.066716 
L 110.256266 122.319433 
L 109.26402 120.800011 
L 108.364954 119.406696 
L 107.033063 117.362289 
L 105.18155 114.549445 
L 104.565518 113.614268 
L 103.577543 112.120095 
L 101.745504 109.351954 
L 99.976408 106.667355 
L 98.204903 103.984687 
L 96.467524 101.359692 
L 95.180647 99.411176 
L 93.670607 97.12173 
L 91.924578 94.476798 
L 90.065833 91.66968 
L 88.195626 88.871668 
L 86.53281 86.40748 
L 85.168061 84.404395 
L 84.496838 83.455283 
L 83.508697 82.039755 
L 81.909684 79.700156 
L 80.432809 77.529297 
L 79.044765 75.47061 
L 77.17648 72.67108 
L 75.429719 70.033047 
L 73.753716 67.476486 
L 72.02364 64.812997 
L 71.218178 63.531509 
L 70.693679 62.671664 
L 70.172844 61.808923 
L 69.017732 59.981684 
L 67.300063 57.30833 
L 67.2164 57.1042 
L 67.807042 57.921135 
L 67.810271 57.85208 
L 66.090279 55.180588 
L 66.403439 55.572706 
L 67.329818 56.888687 
L 66.531659 55.60575 
L 65.278586 53.63033 
L 64.849519 52.892522 
L 65.010841 53.048362 
L 66.105759 54.623179 
L 66.544775 55.21377 
L 64.904695 52.674249 
L 63.06904 49.848712 
L 62.633427 49.130703 
L 63.283507 50.047047 
L 64.936577 52.470188 
L 64.944093 52.407825 
L 63.680463 50.44082 
L 62.209245 48.176347 
L 60.722752 45.838611 
L 52.462237 27.754286 
" clip-path="url(#p6fd9553c3c)" style="fill: none; stroke: #ff7f0e; stroke-width: 2.4; stroke-linecap: round"/>
   </g>
  </g>
 </g>
 <defs>
  <clipPath id="p6fd9553c3c">
   <rect x="1.44" y="1.44" width="184.2" height="184.2"/>
  </clipPath>
 </defs>
</svg>
