<?xml version="1.0" encoding="utf-8" standalone="no"?>
<!DOCTYPE svg PUBLIC "-//W3C//DTD SVG 1.1//EN"
  "http://www.w3.org/Graphics/SVG/1.1/DTD/svg11.dtd">
<svg xmlns:xlink="http://www.w3.org/1999/xlink" width="187.08pt" height="187.08pt" viewBox="0 0 187.08 187.08" xmlns="http://www.w3.org/2000/svg" version="1.1">
 <metadata>
  <rdf:RDF xmlns:dc="http://purl.org/dc/elements/1.1/" xmlns:cc="http://creativecommons.org/ns#" xmlns:rdf="http://www.w3.org/1999/02/22-rdf-syntax-ns#">
   <cc:Work>
    <dc:type rdf:resource="http://purl.org/dc/dcmitype/StillImage"/>
    <dc:date>2026-02-07T15:31:20.673077</dc:date>
    <dc:format>image/svg+xml</dc:format>
    <dc:creator>
     <cc:Agent>
      <dc:title>Matplotlib v3.10.8, https://matplotlib.org/</dc:title>
     </cc:Agent>
    </dc:creator>
   </cc:Work>
  </rdf:RDF>
 </metadata>
 <defs>
  <style type="text/css">*{stroke-linejoin: round; stroke-linecap: butt}</style>
 </defs>
 <g id="figure_1">
  <g id="patch_1">
   <path d="M -0 187.08 
L 187.08 187.08 
L 187.08 0 
L -0 0 
z
" style="fill: #ffffff"/>
  </g>
  <g id="axes_1">
   <g id="patch_2">
    <path d="M 1.44 185.64 
L 185.64 185.64 
L 185.64 1.44 
L 1.44 1.44 
z
" style="fill: #ffffff"/>
   </g>
   <g id="matplotlib.axis_1"/>
   <g id="matplotlib.axis_2"/>
   <g id="line2d_1">
    <path d="M 152.617153 159.325714 
L 148.6986 157.273067 
L 144.908145 155.603305 
L 141.072811 154.056073 
L 137.154886 152.574656 
L 133.133532 151.175527 
L 129.006422 149.860646 
L 124.857992 148.562631 
L 120.800807 147.42676 
L 117.004279 146.897576 
L 112.812636 145.874037 
L 108.556747 144.782409 
L 104.725068 144.281229 
L 100.973759 143.130689 
L 97.499033 141.40837 
L 94.441243 139.242214 
L 91.631067 136.187521 
L 89.116626 132.691973 
L 87.108681 128.934185 
L 85.857642 124.57379 
L 85.002451 119.643342 
L 84.952824 115.186303 
L 86.490176 112.442563 
L 88.209694 109.278049 
L 90.09325 105.375767 
L 92.558028 101.618686 
L 95.06584 98.102428 
L 97.588128 95.774912 
L 99.064638 93.843069 
L 98.471519 90.944715 
L 96.732149 88.489728 
L 95.281385 88.666227 
L 93.903645 91.10482 
L 91.679332 94.217404 
L 89.060102 97.644314 
L 86.386479 101.114525 
L 83.997556 105.004334 
L 81.788919 109.165403 
L 79.364541 112.628397 
L 77.392858 115.716193 
L 75.646447 118.448324 
L 74.798557 122.005451 
L 75.421085 127.210533 
L 76.210874 131.972169 
L 77.045632 136.408734 
L 77.858685 140.801448 
L 78.494981 145.651178 
L 74.758265 144.445884 
L 70.701725 143.240276 
L 66.743784 142.217443 
L 63.664853 141.117029 
L 61.643347 139.896203 
L 60.455595 138.210046 
L 60.137008 136.060834 
L 60.64079 133.257006 
L 62.007493 129.766164 
L 64.056116 125.732488 
L 66.136386 121.673632 
L 68.235074 117.600029 
L 70.367891 113.577885 
L 72.940648 110.187922 
L 75.348419 106.485909 
L 77.227388 102.587236 
L 78.72803 99.40413 
L 79.844665 96.995346 
L 79.507401 93.758114 
L 77.638304 89.70318 
L 75.063549 86.209985 
L 71.761128 83.363326 
L 68.061721 81.136297 
L 64.283718 79.290507 
L 60.525063 77.682246 
L 57.078608 76.448006 
L 53.819194 74.940623 
L 50.649153 72.292114 
L 47.948585 68.990558 
L 45.823131 65.076039 
L 44.780174 61.444155 
L 43.942326 57.64895 
L 43.163608 53.737255 
L 43.855864 48.317942 
L 34.462847 27.754286 
" clip-path="url(#pa90408a3df)" style="fill: none; stroke: #2ca02c; stroke-width: 2.4; stroke-linecap: round"/>
   </g>
  </g>
 </g>
 <defs>
  <clipPath id="pa90408a3df">
   <rect x="1.44" y="1.44" width="184.2" height="184.2"/>
  </clipPath>
 </defs>
</svg>
