<?xml version="1.0" encoding="utf-8" standalone="no"?>
<!DOCTYPE svg PUBLIC "-//W3C//DTD SVG 1.1//EN"
  "http://www.w3.org/Graphics/SVG/1.1/DTD/svg11.dtd">
<svg xmlns:xlink="http://www.w3.org/1999/xlink" width="187.08pt" height="187.08pt" viewBox="0 0 187.08 187.08" xmlns="http://www.w3.org/2000/svg" version="1.1">
 <metadata>
  <rdf:RDF xmlns:dc="http://purl.org/dc/elements/1.1/" xmlns:cc="http://creativecommons.org/ns#" xmlns:rdf="http://www.w3.org/1999/02/22-rdf-syntax-ns#">
   <cc:Work>
    <dc:type rdf:resource="http://purl.org/dc/dcmitype/StillImage"/>
    <dc:date>2026-02-07T15:31:20.718729</dc:date>
    <dc:format>image/svg+xml</dc:format>
    <dc:creator>
     <cc:Agent>
      <dc:title>Matplotlib v3.10.8, https://matplotlib.org/</dc:title>
     </cc:Agent>
    </dc:creator>
   </cc:Work>
  </rdf:RDF>
 </metadata>
 <defs>
  <style type="text/css">*{stroke-linejoin: round; stroke-linecap: butt}</style>
 </defs>
 <g id="figure_1">
  <g id="patch_1">
   <path d="M -0 187.08 
L 187.08 187.08 
L 187.08 0 
L -0 0 
z
" style="fill: #ffffff"/>
  </g>
  <g id="axes_1">
   <g id="patch_2">
    <path d="M 1.44 185.64 
L 185.64 185.64 
L 185.64 1.44 
L 1.44 1.44 
z
" style="fill: #ffffff"/>
   </g>
   <g id="matplotlib.axis_1"/>
   <g id="matplotlib.axis_2"/>
   <g id="line2d_1">
    <path d="M 150.65762 159.325714 
L 148.932494 153.877153 
L 147.447405 148.521788 
L 146.239683 143.293297 
L 144.800827 137.616826 
L 143.633089 132.248396 
L 142.542053 126.939484 
L 141.451846 121.629918 
L 140.405138 116.285658 
L 139.400485 110.90801 
L 138.23462 105.658616 
L 136.584589 100.794708 
L 134.70911 96.80934 
L 132.122093 93.032865 
L 129.033472 89.702846 
L 125.778035 87.401105 
L 122.267908 86.123506 
L 121.952778 90.673929 
L 121.349423 95.073163 
L 120.348434 99.054466 
L 118.374039 101.689724 
L 116.214114 104.244779 
L 113.932265 106.732839 
L 111.595712 109.203044 
L 109.16452 111.534471 
L 106.288714 113.185799 
L 103.246558 114.552167 
L 100.232251 115.896325 
L 97.062833 116.941515 
L 93.597431 117.480224 
L 89.789937 117.445094 
L 86.008104 117.389423 
L 82.264895 117.303049 
L 78.546611 117.196861 
L 74.828318 117.090673 
L 70.808189 116.530117 
L 66.879765 116.072483 
L 63.190275 115.943286 
L 59.500635 115.814307 
L 55.50156 115.287502 
L 51.507167 114.831901 
L 47.743511 114.771149 
L 44.284906 115.22871 
L 41.212571 115.587631 
L 39.031171 115.671972 
L 37.808952 115.589518 
L 36.42238 113.633053 
L 37.550076 113.790775 
L 39.92944 114.193609 
L 43.24298 114.355904 
L 46.460065 113.50059 
L 50.197737 113.487815 
L 53.970585 113.550599 
L 57.73948 113.616504 
L 61.488117 113.698523 
L 65.251707 113.76871 
L 69.024564 113.831494 
L 72.797412 113.894278 
L 76.08858 113.232034 
L 79.591223 112.888137 
L 83.369699 112.946421 
L 87.168449 112.988592 
L 90.976357 113.023432 
L 94.637973 112.797264 
L 97.899245 111.903046 
L 100.906457 110.564477 
L 103.641225 108.754266 
L 106.051778 106.428573 
L 108.273304 103.824452 
L 110.480224 101.216921 
L 112.197127 97.905628 
L 113.886579 94.616183 
L 115.332496 91.520606 
L 115.894293 88.789901 
L 115.413409 86.158418 
L 114.387223 84.361489 
L 113.1026 83.803692 
L 112.696677 86.071319 
L 110.939608 87.770478 
L 107.300462 87.601288 
L 102.975788 86.229113 
L 98.689905 84.645215 
L 94.547595 82.947071 
L 90.589391 81.102311 
L 86.412535 78.512635 
L 82.175719 75.374306 
L 77.985477 71.537878 
L 74.023435 67.16971 
L 70.372295 62.373158 
L 66.863412 57.300212 
L 63.61183 52.244323 
L 61.267535 46.78139 
L 52.57638 27.754286 
" clip-path="url(#p742a78f3e4)" style="fill: none; stroke: #2ca02c; stroke-width: 2.4; stroke-linecap: round"/>
   </g>
  </g>
 </g>
 <defs>
  <clipPath id="p742a78f3e4">
   <rect x="1.44" y="1.44" width="184.2" height="184.2"/>
  </clipPath>
 </defs>
</svg>
