<?xml version="1.0" encoding="utf-8" standalone="no"?>
<!DOCTYPE svg PUBLIC "-//W3C//DTD SVG 1.1//EN"
  "http://www.w3.org/Graphics/SVG/1.1/DTD/svg11.dtd">
<svg xmlns:xlink="http://www.w3.org/1999/xlink" width="187.08pt" height="187.08pt" viewBox="0 0 187.08 187.08" xmlns="http://www.w3.org/2000/svg" version="1.1">
 <metadata>
  <rdf:RDF xmlns:dc="http://purl.org/dc/elements/1.1/" xmlns:cc="http://creativecommons.org/ns#" xmlns:rdf="http://www.w3.org/1999/02/22-rdf-syntax-ns#">
   <cc:Work>
    <dc:type rdf:resource="http://purl.org/dc/dcmitype/StillImage"/>
    <dc:date>2026-02-07T15:31:20.493308</dc:date>
    <dc:format>image/svg+xml</dc:format>
    <dc:creator>
     <cc:Agent>
      <dc:title>Matplotlib v3.10.8, https://matplotlib.org/</dc:title>
     </cc:Agent>
    </dc:creator>
   </cc:Work>
  </rdf:RDF>
 </metadata>
 <defs>
  <style type="text/css">*{stroke-linejoin: round; stroke-linecap: butt}</style>
 </defs>
 <g id="figure_1">
  <g id="patch_1">
   <path d="M -0 187.08 
L 187.08 187.08 
L 187.08 0 
L -0 0 
z
" style="fill: #ffffff"/>
  </g>
  <g id="axes_1">
   <g id="patch_2">
    <path d="M 1.44 185.64 
L 185.64 185.64 
L 185.64 1.44 
L 1.44 1.44 
z
" style="fill: #ffffff"/>
   </g>
   <g id="matplotlib.axis_1"/>
   <g id="matplotlib.axis_2"/>
   <g id="line2d_1">
    <path d="M 126.625336 159.325714 
L 124.73024 157.56088 
L 122.979024 155.793645 
L 121.374538 153.950747 
L 119.795759 152.087434 
L 118.069122 150.22859 
L 116.419286 148.268531 
L 114.831547 146.371056 
L 113.246139 144.47705 
L 111.51455 142.582044 
L 109.71384 140.879461 
L 107.827887 139.260679 
L 105.770366 137.778475 
L 103.442624 136.511445 
L 101.165885 135.721003 
L 99.033194 135.570348 
L 96.759129 135.532317 
L 94.579839 136.005901 
L 92.597564 137.047081 
L 89.999442 137.266993 
L 88.093138 138.631568 
L 86.654422 140.731674 
L 84.616063 141.92451 
L 82.584119 143.225434 
L 81.145068 145.450575 
L 79.327634 147.103651 
L 77.404362 148.567307 
L 75.991597 150.771498 
L 74.569002 152.983495 
L 73.159825 155.184817 
L 71.793414 157.352044 
L 70.09682 158.648898 
L 68.210837 159.13536 
L 66.275504 158.827576 
L 64.25806 157.4203 
L 62.600194 155.555585 
L 61.346699 153.323638 
L 60.765 151.050991 
L 60.497986 148.527875 
L 60.454664 145.890732 
L 60.885679 143.53682 
L 61.341655 141.021376 
L 61.544202 138.124423 
L 62.290529 135.952458 
L 63.107538 133.886846 
L 63.398391 130.919636 
L 63.985866 128.228249 
L 64.589981 125.736491 
L 65.525825 123.738268 
L 66.382355 121.451877 
L 66.700912 118.462582 
L 67.634181 116.342993 
L 68.457027 114.071548 
L 68.785107 111.074646 
L 69.745859 108.945116 
L 70.607379 106.871164 
L 71.227213 104.36693 
L 71.769071 101.606887 
L 72.044199 98.65222 
L 72.96543 96.743469 
L 73.603831 94.41758 
L 73.806379 91.520626 
L 74.30797 89.073771 
L 74.709659 86.702311 
L 74.807931 83.888359 
L 74.871597 81.102028 
L 74.858317 78.423052 
L 75.029138 76.163883 
L 74.771032 73.39977 
L 74.412055 70.71619 
L 74.150437 68.188737 
L 73.635824 65.59136 
L 72.997873 62.915052 
L 72.589395 60.50456 
L 72.024397 57.858477 
L 71.479734 55.196715 
L 71.071249 52.786223 
L 70.504993 50.5013 
L 69.782942 48.158463 
L 69.330928 45.244763 
L 61.34167 27.754286 
" clip-path="url(#p0d1d32eac0)" style="fill: none; stroke: #1f77b4; stroke-width: 2.4; stroke-linecap: round"/>
   </g>
  </g>
 </g>
 <defs>
  <clipPath id="p0d1d32eac0">
   <rect x="1.44" y="1.44" width="184.2" height="184.2"/>
  </clipPath>
 </defs>
</svg>
