<?xml version="1.0" encoding="utf-8" standalone="no"?>
<!DOCTYPE svg PUBLIC "-//W3C//DTD SVG 1.1//EN"
  "http://www.w3.org/Graphics/SVG/1.1/DTD/svg11.dtd">
<svg xmlns:xlink="http://www.w3.org/1999/xlink" width="187.08pt" height="187.08pt" viewBox="0 0 187.08 187.08" xmlns="http://www.w3.org/2000/svg" version="1.1">
 <metadata>
  <rdf:RDF xmlns:dc="http://purl.org/dc/elements/1.1/" xmlns:cc="http://creativecommons.org/ns#" xmlns:rdf="http://www.w3.org/1999/02/22-rdf-syntax-ns#">
   <cc:Work>
    <dc:type rdf:resource="http://purl.org/dc/dcmitype/StillImage"/>
    <dc:date>2026-02-07T15:31:20.537828</dc:date>
    <dc:format>image/svg+xml</dc:format>
    <dc:creator>
     <cc:Agent>
      <dc:title>Matplotlib v3.10.8, https://matplotlib.org/</dc:title>
     </cc:Agent>
    </dc:creator>
   </cc:Work>
  </rdf:RDF>
 </metadata>
 <defs>
  <style type="text/css">*{stroke-linejoin: round; stroke-linecap: butt}</style>
 </defs>
 <g id="figure_1">
  <g id="patch_1">
   <path d="M -0 187.08 
L 187.08 187.08 
L 187.08 0 
L -0 0 
z
" style="fill: #ffffff"/>
  </g>
  <g id="axes_1">
   <g id="patch_2">
    <path d="M 1.44 185.64 
L 185.64 185.64 
L 185.64 1.44 
L 1.44 1.44 
z
" style="fill: #ffffff"/>
   </g>
   <g id="matplotlib.axis_1"/>
   <g id="matplotlib.axis_2"/>
   <g id="line2d_1">
    <path d="M 129.870584 159.325714 
L 128.272673 157.844429 
L 126.615479 156.273985 
L 124.824535 154.671211 
L 122.875001 153.194745 
L 120.792207 151.824372 
L 118.837627 151.04504 
L 117.243126 151.298592 
L 115.463404 151.69967 
L 113.510368 152.238636 
L 111.457461 152.857188 
L 109.151777 153.073792 
L 106.744157 153.116765 
L 104.37656 153.127809 
L 102.324585 153.546023 
L 100.249052 153.993555 
L 97.871456 154.012564 
L 95.592006 154.179301 
L 93.61795 154.735068 
L 91.376878 154.888953 
L 89.013538 154.896583 
L 86.721873 154.847185 
L 84.780456 155.188757 
L 82.777622 155.411653 
L 80.267248 154.870679 
L 78.001304 154.592026 
L 75.965564 154.338876 
L 74.238583 153.839937 
L 72.573714 152.791725 
L 71.153198 151.314188 
L 70.050048 149.314352 
L 69.531646 147.156816 
L 69.45975 144.804898 
L 70.351362 143.106407 
L 71.49961 141.398745 
L 72.380689 139.00439 
L 73.775843 137.210917 
L 75.309324 135.611557 
L 76.851206 134.0047 
L 78.027491 131.751446 
L 79.211542 129.491966 
L 80.685304 127.764692 
L 82.214413 126.168813 
L 83.741123 124.515302 
L 84.746021 122.022351 
L 86.038238 119.955446 
L 87.575358 118.353207 
L 89.0087 116.833568 
L 90.28991 115.38421 
L 90.993968 113.130755 
L 91.304248 110.608353 
L 91.063427 107.922025 
L 91.138732 106.103116 
L 90.826641 104.12818 
L 89.980425 101.775325 
L 89.12616 99.57736 
L 88.118602 97.43127 
L 86.944648 95.337389 
L 85.849325 93.239626 
L 84.793848 91.201838 
L 83.738723 89.036872 
L 82.778952 86.841651 
L 81.80803 84.736525 
L 80.834898 82.633139 
L 79.938265 80.413955 
L 79.06447 78.081115 
L 78.149232 75.928866 
L 77.176101 73.825548 
L 76.246446 71.687557 
L 75.377819 69.367568 
L 74.488233 67.123015 
L 73.515109 65.019696 
L 72.541978 62.916311 
L 71.647691 60.688693 
L 70.775547 58.358262 
L 69.856312 56.212038 
L 68.88318 54.108719 
L 67.958739 51.966578 
L 67.002744 49.709576 
L 65.991303 47.568572 
L 65.22439 45.301061 
L 57.209416 27.754286 
" clip-path="url(#p305d82a8dd)" style="fill: none; stroke: #1f77b4; stroke-width: 2.4; stroke-linecap: round"/>
   </g>
  </g>
 </g>
 <defs>
  <clipPath id="p305d82a8dd">
   <rect x="1.44" y="1.44" width="184.2" height="184.2"/>
  </clipPath>
 </defs>
</svg>
