<?xml version="1.0" encoding="utf-8" standalone="no"?>
<!DOCTYPE svg PUBLIC "-//W3C//DTD SVG 1.1//EN"
  "http://www.w3.org/Graphics/SVG/1.1/DTD/svg11.dtd">
<svg xmlns:xlink="http://www.w3.org/1999/xlink" width="628.77875pt" height="239.94335pt" viewBox="0 0 628.77875 239.94335" xmlns="http://www.w3.org/2000/svg" version="1.1">
 <metadata>
  <rdf:RDF xmlns:dc="http://purl.org/dc/elements/1.1/" xmlns:cc="http://creativecommons.org/ns#" xmlns:rdf="http://www.w3.org/1999/02/22-rdf-syntax-ns#">
   <cc:Work>
    <dc:type rdf:resource="http://purl.org/dc/dcmitype/StillImage"/>
    <dc:date>2026-02-10T11:19:06.350750</dc:date>
    <dc:format>image/svg+xml</dc:format>
    <dc:creator>
     <cc:Agent>
      <dc:title>Matplotlib v3.10.8, https://matplotlib.org/</dc:title>
     </cc:Agent>
    </dc:creator>
   </cc:Work>
  </rdf:RDF>
 </metadata>
 <defs>
  <style type="text/css">*{stroke-linejoin: round; stroke-linecap: butt}</style>
 </defs>
 <g id="figure_1">
  <g id="patch_1">
   <path d="M 0 239.94335 
L 628.77875 239.94335 
L 628.77875 0 
L 0 0 
z
" style="fill: #ffffff"/>
  </g>
  <g id="axes_1">
   <g id="patch_2">
    <path d="M 44.38375 203.128481 
L 627.33875 203.128481 
L 627.33875 16.558125 
L 44.38375 16.558125 
z
" style="fill: #ffffff"/>
   </g>
   <g id="FillBetweenPolyCollection_1">
    <defs>
     <path id="mea480caebd" d="M 92.755882 -55.11825 
L 92.269494 -55.11825 
L 92.258911 -56.555932 
L 92.256262 -57.993614 
L 92.25663 -59.431296 
L 92.253443 -60.868978 
L 92.240454 -62.306659 
L 92.21379 -63.744341 
L 92.173333 -65.182023 
L 92.122872 -66.619705 
L 92.068922 -68.057387 
L 92.018585 -69.495069 
L 91.97724 -70.932751 
L 91.946919 -72.370433 
L 91.925969 -73.808115 
L 91.910093 -75.245797 
L 91.89429 -76.683479 
L 91.874944 -78.121161 
L 91.851243 -79.558843 
L 91.825477 -80.996525 
L 91.802153 -82.434207 
L 91.786358 -83.871888 
L 91.782012 -85.30957 
L 91.790686 -86.747252 
L 91.8114 -88.184934 
L 91.841378 -89.622616 
L 91.87729 -91.060298 
L 91.916315 -92.49798 
L 91.956429 -93.935662 
L 91.995741 -95.373344 
L 92.031124 -96.811026 
L 92.056633 -98.248708 
L 92.062109 -99.68639 
L 92.032132 -101.124072 
L 91.945288 -102.561754 
L 91.773838 -103.999435 
L 91.484213 -105.437117 
L 91.039062 -106.874799 
L 90.401526 -108.312481 
L 89.541775 -109.750163 
L 88.444906 -111.187845 
L 87.118337 -112.625527 
L 85.596367 -114.063209 
L 83.939795 -115.500891 
L 82.229474 -116.938573 
L 80.554161 -118.376255 
L 78.99471 -119.813937 
L 77.608204 -121.251619 
L 76.416546 -122.689301 
L 75.403782 -124.126982 
L 74.524683 -125.564664 
L 73.723798 -127.002346 
L 72.960215 -128.440028 
L 72.230038 -129.87771 
L 71.577942 -131.315392 
L 71.091987 -132.753074 
L 70.881705 -134.190756 
L 71.045952 -135.628438 
L 71.641405 -137.06612 
L 72.662591 -138.503802 
L 74.040094 -139.941484 
L 75.656832 -141.379166 
L 77.376108 -142.816848 
L 79.071832 -144.25453 
L 80.651785 -145.692211 
L 82.068185 -147.129893 
L 83.314617 -148.567575 
L 84.412639 -150.005257 
L 85.394053 -151.442939 
L 86.285129 -152.880621 
L 87.097312 -154.318303 
L 87.825921 -155.755985 
L 88.455333 -157.193667 
L 88.96731 -158.631349 
L 89.349011 -160.069031 
L 89.598434 -161.506713 
L 89.726638 -162.944395 
L 89.757122 -164.382077 
L 89.722952 -165.819758 
L 89.662014 -167.25744 
L 89.610795 -168.695122 
L 89.597689 -170.132804 
L 89.637578 -171.570486 
L 89.729667 -173.008168 
L 89.859747 -174.44585 
L 90.006401 -175.883532 
L 90.149025 -177.321214 
L 90.27478 -178.758896 
L 90.382097 -180.196578 
L 90.47984 -181.63426 
L 90.5829 -183.071942 
L 90.706152 -184.509624 
L 90.858977 -185.947305 
L 91.042116 -187.384987 
L 91.247584 -188.822669 
L 91.461336 -190.260351 
L 91.667488 -191.698033 
L 91.852527 -193.135715 
L 92.008167 -194.573397 
L 92.132151 -196.011079 
L 92.227176 -197.448761 
L 92.798199 -197.448761 
L 92.798199 -197.448761 
L 92.893224 -196.011079 
L 93.017209 -194.573397 
L 93.172849 -193.135715 
L 93.357888 -191.698033 
L 93.56404 -190.260351 
L 93.777792 -188.822669 
L 93.98326 -187.384987 
L 94.166398 -185.947305 
L 94.319224 -184.509624 
L 94.442475 -183.071942 
L 94.545536 -181.63426 
L 94.643278 -180.196578 
L 94.750595 -178.758896 
L 94.876351 -177.321214 
L 95.018975 -175.883532 
L 95.165629 -174.44585 
L 95.295709 -173.008168 
L 95.387798 -171.570486 
L 95.427687 -170.132804 
L 95.414581 -168.695122 
L 95.363362 -167.25744 
L 95.302423 -165.819758 
L 95.268253 -164.382077 
L 95.298738 -162.944395 
L 95.426942 -161.506713 
L 95.676364 -160.069031 
L 96.058065 -158.631349 
L 96.570043 -157.193667 
L 97.199455 -155.755985 
L 97.928064 -154.318303 
L 98.740247 -152.880621 
L 99.631323 -151.442939 
L 100.612737 -150.005257 
L 101.710758 -148.567575 
L 102.95719 -147.129893 
L 104.373591 -145.692211 
L 105.953543 -144.25453 
L 107.649268 -142.816848 
L 109.368543 -141.379166 
L 110.985282 -139.941484 
L 112.362785 -138.503802 
L 113.38397 -137.06612 
L 113.979423 -135.628438 
L 114.143671 -134.190756 
L 113.933388 -132.753074 
L 113.447434 -131.315392 
L 112.795337 -129.87771 
L 112.065161 -128.440028 
L 111.301577 -127.002346 
L 110.500692 -125.564664 
L 109.621594 -124.126982 
L 108.60883 -122.689301 
L 107.417172 -121.251619 
L 106.030666 -119.813937 
L 104.471214 -118.376255 
L 102.795902 -116.938573 
L 101.085581 -115.500891 
L 99.429008 -114.063209 
L 97.907038 -112.625527 
L 96.58047 -111.187845 
L 95.4836 -109.750163 
L 94.623849 -108.312481 
L 93.986314 -106.874799 
L 93.541163 -105.437117 
L 93.251537 -103.999435 
L 93.080088 -102.561754 
L 92.993244 -101.124072 
L 92.963267 -99.68639 
L 92.968743 -98.248708 
L 92.994252 -96.811026 
L 93.029635 -95.373344 
L 93.068947 -93.935662 
L 93.109061 -92.49798 
L 93.148086 -91.060298 
L 93.183998 -89.622616 
L 93.213976 -88.184934 
L 93.23469 -86.747252 
L 93.243364 -85.30957 
L 93.239017 -83.871888 
L 93.223223 -82.434207 
L 93.199899 -80.996525 
L 93.174132 -79.558843 
L 93.150432 -78.121161 
L 93.131086 -76.683479 
L 93.115283 -75.245797 
L 93.099406 -73.808115 
L 93.078457 -72.370433 
L 93.048136 -70.932751 
L 93.006791 -69.495069 
L 92.956454 -68.057387 
L 92.902504 -66.619705 
L 92.852043 -65.182023 
L 92.811585 -63.744341 
L 92.784922 -62.306659 
L 92.771933 -60.868978 
L 92.768746 -59.431296 
L 92.769114 -57.993614 
L 92.766465 -56.555932 
L 92.755882 -55.11825 
z
" style="stroke: #000000; stroke-opacity: 0.25; stroke-width: 0.7"/>
    </defs>
    <g clip-path="url(#p9c0e9866ba)">
     <use xlink:href="#mea480caebd" x="0" y="239.94335" style="fill: #1f77b4; fill-opacity: 0.25; stroke: #000000; stroke-opacity: 0.25; stroke-width: 0.7"/>
    </g>
   </g>
   <g id="FillBetweenPolyCollection_2">
    <defs>
     <path id="m4baf0c82c8" d="M 146.912006 -60.284051 
L 146.268286 -60.284051 
L 146.233496 -61.701709 
L 146.206754 -63.119367 
L 146.18733 -64.537025 
L 146.172962 -65.954682 
L 146.160344 -67.37234 
L 146.145836 -68.789998 
L 146.1263 -70.207656 
L 146.099989 -71.625314 
L 146.067294 -73.042971 
L 146.03107 -74.460629 
L 145.996283 -75.878287 
L 145.968861 -77.295945 
L 145.953999 -78.713602 
L 145.954417 -80.13126 
L 145.969254 -81.548918 
L 145.994033 -82.966576 
L 146.021813 -84.384234 
L 146.045127 -85.801891 
L 146.058058 -87.219549 
L 146.057721 -88.637207 
L 146.044681 -90.054865 
L 146.022203 -91.472522 
L 145.994627 -92.89018 
L 145.965433 -94.307838 
L 145.935556 -95.725496 
L 145.902378 -97.143154 
L 145.859491 -98.560811 
L 145.797 -99.978469 
L 145.701999 -101.396127 
L 145.558897 -102.813785 
L 145.349519 -104.231443 
L 145.053219 -105.6491 
L 144.647512 -107.066758 
L 144.109704 -108.484416 
L 143.419839 -109.902074 
L 142.564771 -111.319731 
L 141.542681 -112.737389 
L 140.366799 -114.155047 
L 139.066859 -115.572705 
L 137.686968 -116.990363 
L 136.27935 -118.40802 
L 134.894719 -119.825678 
L 133.571643 -121.243336 
L 132.328408 -122.660994 
L 131.161033 -124.078652 
L 130.049582 -125.496309 
L 128.972069 -126.913967 
L 127.921936 -128.331625 
L 126.922847 -129.749283 
L 126.034577 -131.16694 
L 125.346457 -132.584598 
L 124.959163 -134.002256 
L 124.959885 -135.419914 
L 125.398344 -136.837572 
L 126.270929 -138.255229 
L 127.517705 -139.672887 
L 129.03313 -141.090545 
L 130.687472 -142.508203 
L 132.352919 -143.925861 
L 133.927211 -145.343518 
L 135.348514 -146.761176 
L 136.598092 -148.178834 
L 137.691276 -149.596492 
L 138.661014 -151.014149 
L 139.540273 -152.431807 
L 140.349177 -153.849465 
L 141.090147 -155.267123 
L 141.750811 -156.684781 
L 142.311745 -158.102438 
L 142.755159 -159.520096 
L 143.071564 -160.937754 
L 143.263279 -162.355412 
L 143.345125 -163.77307 
L 143.343197 -165.190727 
L 143.292188 -166.608385 
L 143.231249 -168.026043 
L 143.198323 -169.443701 
L 143.22363 -170.861358 
L 143.323842 -172.279016 
L 143.498857 -173.696674 
L 143.732525 -175.114332 
L 143.997405 -176.53199 
L 144.262216 -177.949647 
L 144.499802 -179.367305 
L 144.693395 -180.784963 
L 144.83957 -182.202621 
L 144.947399 -183.620279 
L 145.034315 -185.037936 
L 145.12013 -186.455594 
L 145.221062 -187.873252 
L 145.345506 -189.29091 
L 145.492651 -190.708567 
L 145.654017 -192.126225 
L 145.817028 -193.543883 
L 145.969169 -194.961541 
L 146.101304 -196.379199 
L 146.209271 -197.796856 
L 146.293655 -199.214514 
L 146.358252 -200.632172 
L 146.82204 -200.632172 
L 146.82204 -200.632172 
L 146.886637 -199.214514 
L 146.971021 -197.796856 
L 147.078988 -196.379199 
L 147.211123 -194.961541 
L 147.363264 -193.543883 
L 147.526276 -192.126225 
L 147.687641 -190.708567 
L 147.834786 -189.29091 
L 147.95923 -187.873252 
L 148.060162 -186.455594 
L 148.145978 -185.037936 
L 148.232893 -183.620279 
L 148.340722 -182.202621 
L 148.486898 -180.784963 
L 148.68049 -179.367305 
L 148.918077 -177.949647 
L 149.182887 -176.53199 
L 149.447767 -175.114332 
L 149.681435 -173.696674 
L 149.85645 -172.279016 
L 149.956662 -170.861358 
L 149.981969 -169.443701 
L 149.949043 -168.026043 
L 149.888104 -166.608385 
L 149.837096 -165.190727 
L 149.835167 -163.77307 
L 149.917013 -162.355412 
L 150.108728 -160.937754 
L 150.425134 -159.520096 
L 150.868547 -158.102438 
L 151.429481 -156.684781 
L 152.090145 -155.267123 
L 152.831115 -153.849465 
L 153.64002 -152.431807 
L 154.519278 -151.014149 
L 155.489016 -149.596492 
L 156.582201 -148.178834 
L 157.831778 -146.761176 
L 159.253082 -145.343518 
L 160.827373 -143.925861 
L 162.49282 -142.508203 
L 164.147163 -141.090545 
L 165.662588 -139.672887 
L 166.909363 -138.255229 
L 167.781948 -136.837572 
L 168.220407 -135.419914 
L 168.221129 -134.002256 
L 167.833835 -132.584598 
L 167.145715 -131.16694 
L 166.257445 -129.749283 
L 165.258356 -128.331625 
L 164.208223 -126.913967 
L 163.13071 -125.496309 
L 162.019259 -124.078652 
L 160.851884 -122.660994 
L 159.608649 -121.243336 
L 158.285573 -119.825678 
L 156.900942 -118.40802 
L 155.493324 -116.990363 
L 154.113434 -115.572705 
L 152.813493 -114.155047 
L 151.637611 -112.737389 
L 150.615521 -111.319731 
L 149.760453 -109.902074 
L 149.070588 -108.484416 
L 148.532781 -107.066758 
L 148.127073 -105.6491 
L 147.830773 -104.231443 
L 147.621395 -102.813785 
L 147.478294 -101.396127 
L 147.383292 -99.978469 
L 147.320801 -98.560811 
L 147.277914 -97.143154 
L 147.244737 -95.725496 
L 147.214859 -94.307838 
L 147.185665 -92.89018 
L 147.15809 -91.472522 
L 147.135611 -90.054865 
L 147.122571 -88.637207 
L 147.122234 -87.219549 
L 147.135165 -85.801891 
L 147.158479 -84.384234 
L 147.186259 -82.966576 
L 147.211039 -81.548918 
L 147.225875 -80.13126 
L 147.226294 -78.713602 
L 147.211431 -77.295945 
L 147.184009 -75.878287 
L 147.149222 -74.460629 
L 147.112998 -73.042971 
L 147.080303 -71.625314 
L 147.053993 -70.207656 
L 147.034457 -68.789998 
L 147.019948 -67.37234 
L 147.00733 -65.954682 
L 146.992962 -64.537025 
L 146.973539 -63.119367 
L 146.946796 -61.701709 
L 146.912006 -60.284051 
z
" style="stroke: #000000; stroke-opacity: 0.25; stroke-width: 0.7"/>
    </defs>
    <g clip-path="url(#p9c0e9866ba)">
     <use xlink:href="#m4baf0c82c8" x="0" y="239.94335" style="fill: #1f77b4; fill-opacity: 0.25; stroke: #000000; stroke-opacity: 0.25; stroke-width: 0.7"/>
    </g>
   </g>
   <g id="FillBetweenPolyCollection_3">
    <defs>
     <path id="m7252fe09d9" d="M 201.184325 -64.220591 
L 200.150884 -64.220591 
L 200.05524 -65.512021 
L 199.953262 -66.803451 
L 199.843288 -68.094882 
L 199.722832 -69.386312 
L 199.589343 -70.677742 
L 199.441202 -71.969173 
L 199.278684 -73.260603 
L 199.104648 -74.552033 
L 198.924723 -75.843464 
L 198.746956 -77.134894 
L 198.580961 -78.426324 
L 198.436754 -79.717755 
L 198.323498 -81.009185 
L 198.248335 -82.300615 
L 198.215481 -83.592046 
L 198.225676 -84.883476 
L 198.276032 -86.174906 
L 198.360293 -87.466337 
L 198.469432 -88.757767 
L 198.592483 -90.049198 
L 198.717434 -91.340628 
L 198.832073 -92.632058 
L 198.924717 -93.923489 
L 198.984897 -95.214919 
L 199.004081 -96.506349 
L 198.976507 -97.79778 
L 198.900029 -99.08921 
L 198.776689 -100.38064 
L 198.612605 -101.672071 
L 198.416808 -102.963501 
L 198.198824 -104.254931 
L 197.965177 -105.546362 
L 197.715363 -106.837792 
L 197.438163 -108.129222 
L 197.109391 -109.420653 
L 196.692083 -110.712083 
L 196.13991 -112.003513 
L 195.40399 -113.294944 
L 194.442487 -114.586374 
L 193.231472 -115.877804 
L 191.774669 -117.169235 
L 190.109352 -118.460665 
L 188.306016 -119.752095 
L 186.460742 -121.043526 
L 184.681129 -122.334956 
L 183.068798 -123.626386 
L 181.702818 -124.917817 
L 180.6285 -126.209247 
L 179.854483 -127.500677 
L 179.358614 -128.792108 
L 179.100465 -130.083538 
L 179.036621 -131.374969 
L 179.134415 -132.666399 
L 179.380657 -133.957829 
L 179.783502 -135.24926 
L 180.367451 -136.54069 
L 181.163057 -137.83212 
L 182.194013 -139.123551 
L 183.464927 -140.414981 
L 184.952928 -141.706411 
L 186.605469 -142.997842 
L 188.34517 -144.289272 
L 190.080681 -145.580702 
L 191.720926 -146.872133 
L 193.189191 -148.163563 
L 194.433754 -149.454993 
L 195.432927 -150.746424 
L 196.194111 -152.037854 
L 196.747963 -153.329284 
L 197.139741 -154.620715 
L 197.42003 -155.912145 
L 197.636574 -157.203575 
L 197.828298 -158.495006 
L 198.021881 -159.786436 
L 198.23085 -161.077866 
L 198.456816 -162.369297 
L 198.692352 -163.660727 
L 198.924795 -164.952157 
L 199.140223 -166.243588 
L 199.326877 -167.535018 
L 199.477487 -168.826448 
L 199.590286 -170.117879 
L 199.668786 -171.409309 
L 199.720626 -172.700739 
L 199.755877 -173.99217 
L 199.785163 -175.2836 
L 199.817912 -176.575031 
L 199.860945 -177.866461 
L 199.917605 -179.157891 
L 199.987546 -180.449322 
L 200.067223 -181.740752 
L 200.150986 -183.032182 
L 200.232519 -184.323613 
L 200.306299 -185.615043 
L 200.3687 -186.906473 
L 200.418502 -188.197904 
L 200.456734 -189.489334 
L 200.485982 -190.780764 
L 200.509429 -192.072195 
L 200.82578 -192.072195 
L 200.82578 -192.072195 
L 200.849226 -190.780764 
L 200.878474 -189.489334 
L 200.916706 -188.197904 
L 200.966508 -186.906473 
L 201.02891 -185.615043 
L 201.10269 -184.323613 
L 201.184223 -183.032182 
L 201.267985 -181.740752 
L 201.347663 -180.449322 
L 201.417603 -179.157891 
L 201.474263 -177.866461 
L 201.517297 -176.575031 
L 201.550046 -175.2836 
L 201.579332 -173.99217 
L 201.614583 -172.700739 
L 201.666423 -171.409309 
L 201.744923 -170.117879 
L 201.857722 -168.826448 
L 202.008332 -167.535018 
L 202.194986 -166.243588 
L 202.410414 -164.952157 
L 202.642857 -163.660727 
L 202.878393 -162.369297 
L 203.104359 -161.077866 
L 203.313327 -159.786436 
L 203.506911 -158.495006 
L 203.698635 -157.203575 
L 203.915179 -155.912145 
L 204.195467 -154.620715 
L 204.587246 -153.329284 
L 205.141097 -152.037854 
L 205.902281 -150.746424 
L 206.901455 -149.454993 
L 208.146018 -148.163563 
L 209.614283 -146.872133 
L 211.254528 -145.580702 
L 212.990039 -144.289272 
L 214.72974 -142.997842 
L 216.382281 -141.706411 
L 217.870281 -140.414981 
L 219.141196 -139.123551 
L 220.172152 -137.83212 
L 220.967757 -136.54069 
L 221.551707 -135.24926 
L 221.954552 -133.957829 
L 222.200793 -132.666399 
L 222.298588 -131.374969 
L 222.234743 -130.083538 
L 221.976595 -128.792108 
L 221.480726 -127.500677 
L 220.706709 -126.209247 
L 219.63239 -124.917817 
L 218.266411 -123.626386 
L 216.654079 -122.334956 
L 214.874466 -121.043526 
L 213.029192 -119.752095 
L 211.225857 -118.460665 
L 209.56054 -117.169235 
L 208.103737 -115.877804 
L 206.892722 -114.586374 
L 205.931219 -113.294944 
L 205.195299 -112.003513 
L 204.643126 -110.712083 
L 204.225818 -109.420653 
L 203.897045 -108.129222 
L 203.619846 -106.837792 
L 203.370032 -105.546362 
L 203.136385 -104.254931 
L 202.918401 -102.963501 
L 202.722604 -101.672071 
L 202.55852 -100.38064 
L 202.43518 -99.08921 
L 202.358702 -97.79778 
L 202.331128 -96.506349 
L 202.350312 -95.214919 
L 202.410491 -93.923489 
L 202.503136 -92.632058 
L 202.617774 -91.340628 
L 202.742726 -90.049198 
L 202.865776 -88.757767 
L 202.974916 -87.466337 
L 203.059176 -86.174906 
L 203.109533 -84.883476 
L 203.119727 -83.592046 
L 203.086874 -82.300615 
L 203.01171 -81.009185 
L 202.898455 -79.717755 
L 202.754248 -78.426324 
L 202.588253 -77.134894 
L 202.410486 -75.843464 
L 202.230561 -74.552033 
L 202.056525 -73.260603 
L 201.894007 -71.969173 
L 201.745865 -70.677742 
L 201.612377 -69.386312 
L 201.491921 -68.094882 
L 201.381947 -66.803451 
L 201.279968 -65.512021 
L 201.184325 -64.220591 
z
" style="stroke: #000000; stroke-opacity: 0.25; stroke-width: 0.7"/>
    </defs>
    <g clip-path="url(#p9c0e9866ba)">
     <use xlink:href="#m7252fe09d9" x="0" y="239.94335" style="fill: #1f77b4; fill-opacity: 0.25; stroke: #000000; stroke-opacity: 0.25; stroke-width: 0.7"/>
    </g>
   </g>
   <g id="FillBetweenPolyCollection_4">
    <defs>
     <path id="m6c4e9f37ba" d="M 255.586773 -62.656192 
L 253.903352 -62.656192 
L 253.757556 -63.838737 
L 253.606973 -65.021281 
L 253.454725 -66.203826 
L 253.30393 -67.38637 
L 253.157587 -68.568915 
L 253.018488 -69.75146 
L 252.889182 -70.934004 
L 252.77196 -72.116549 
L 252.668874 -73.299094 
L 252.581748 -74.481638 
L 252.512163 -75.664183 
L 252.461369 -76.846728 
L 252.430117 -78.029272 
L 252.418421 -79.211817 
L 252.425287 -80.394361 
L 252.448491 -81.576906 
L 252.484483 -82.759451 
L 252.528484 -83.941995 
L 252.574823 -85.12454 
L 252.617482 -86.307085 
L 252.650792 -87.489629 
L 252.670162 -88.672174 
L 252.672714 -89.854719 
L 252.657711 -91.037263 
L 252.626677 -92.219808 
L 252.583189 -93.402352 
L 252.532337 -94.584897 
L 252.479923 -95.767442 
L 252.431476 -96.949986 
L 252.391228 -98.132531 
L 252.361149 -99.315076 
L 252.340179 -100.49762 
L 252.323718 -101.680165 
L 252.303424 -102.86271 
L 252.267286 -104.045254 
L 252.199916 -105.227799 
L 252.082997 -106.410344 
L 251.895844 -107.592888 
L 251.616138 -108.775433 
L 251.220902 -109.957977 
L 250.687874 -111.140522 
L 249.997348 -112.323067 
L 249.134468 -113.505611 
L 248.09178 -114.688156 
L 246.871751 -115.870701 
L 245.488826 -117.053245 
L 243.97063 -118.23579 
L 242.357972 -119.418335 
L 240.703467 -120.600879 
L 239.068749 -121.783424 
L 237.520426 -122.965968 
L 236.125107 -124.148513 
L 234.943998 -125.331058 
L 234.027688 -126.513602 
L 233.411793 -127.696147 
L 233.114079 -128.878692 
L 233.133495 -130.061236 
L 233.451258 -131.243781 
L 234.033812 -132.426326 
L 234.837143 -133.60887 
L 235.811787 -134.791415 
L 236.907737 -135.973959 
L 238.078586 -137.156504 
L 239.284411 -138.339049 
L 240.493179 -139.521593 
L 241.680717 -140.704138 
L 242.829575 -141.886683 
L 243.927257 -143.069227 
L 244.964386 -144.251772 
L 245.93329 -145.434317 
L 246.827324 -146.616861 
L 247.640991 -147.799406 
L 248.370647 -148.98195 
L 249.015423 -150.164495 
L 249.577917 -151.34704 
L 250.064315 -152.529584 
L 250.483826 -153.712129 
L 250.847517 -154.894674 
L 251.166855 -156.077218 
L 251.452314 -157.259763 
L 251.712368 -158.442308 
L 251.953037 -159.624852 
L 252.177975 -160.807397 
L 252.388949 -161.989942 
L 252.586485 -163.172486 
L 252.770485 -164.355031 
L 252.940699 -165.537575 
L 253.09701 -166.72012 
L 253.239585 -167.902665 
L 253.368956 -169.085209 
L 253.486065 -170.267754 
L 253.592287 -171.450299 
L 253.689409 -172.632843 
L 253.779525 -173.815388 
L 253.864834 -174.997933 
L 253.947358 -176.180477 
L 254.028652 -177.363022 
L 254.10955 -178.545566 
L 254.190049 -179.728111 
L 255.300077 -179.728111 
L 255.300077 -179.728111 
L 255.380575 -178.545566 
L 255.461473 -177.363022 
L 255.542767 -176.180477 
L 255.625292 -174.997933 
L 255.7106 -173.815388 
L 255.800716 -172.632843 
L 255.897839 -171.450299 
L 256.00406 -170.267754 
L 256.121169 -169.085209 
L 256.25054 -167.902665 
L 256.393116 -166.72012 
L 256.549426 -165.537575 
L 256.71964 -164.355031 
L 256.903641 -163.172486 
L 257.101176 -161.989942 
L 257.31215 -160.807397 
L 257.537088 -159.624852 
L 257.777757 -158.442308 
L 258.037811 -157.259763 
L 258.32327 -156.077218 
L 258.642608 -154.894674 
L 259.0063 -153.712129 
L 259.42581 -152.529584 
L 259.912208 -151.34704 
L 260.474702 -150.164495 
L 261.119479 -148.98195 
L 261.849135 -147.799406 
L 262.662801 -146.616861 
L 263.556836 -145.434317 
L 264.52574 -144.251772 
L 265.562869 -143.069227 
L 266.66055 -141.886683 
L 267.809408 -140.704138 
L 268.996946 -139.521593 
L 270.205714 -138.339049 
L 271.41154 -137.156504 
L 272.582388 -135.973959 
L 273.678338 -134.791415 
L 274.652982 -133.60887 
L 275.456314 -132.426326 
L 276.038867 -131.243781 
L 276.35663 -130.061236 
L 276.376046 -128.878692 
L 276.078332 -127.696147 
L 275.462437 -126.513602 
L 274.546127 -125.331058 
L 273.365018 -124.148513 
L 271.969699 -122.965968 
L 270.421376 -121.783424 
L 268.786658 -120.600879 
L 267.132153 -119.418335 
L 265.519495 -118.23579 
L 264.001299 -117.053245 
L 262.618375 -115.870701 
L 261.398345 -114.688156 
L 260.355657 -113.505611 
L 259.492777 -112.323067 
L 258.802252 -111.140522 
L 258.269223 -109.957977 
L 257.873987 -108.775433 
L 257.594281 -107.592888 
L 257.407129 -106.410344 
L 257.290209 -105.227799 
L 257.222839 -104.045254 
L 257.186701 -102.86271 
L 257.166407 -101.680165 
L 257.149946 -100.49762 
L 257.128976 -99.315076 
L 257.098898 -98.132531 
L 257.058649 -96.949986 
L 257.010202 -95.767442 
L 256.957788 -94.584897 
L 256.906937 -93.402352 
L 256.863448 -92.219808 
L 256.832414 -91.037263 
L 256.817411 -89.854719 
L 256.819964 -88.672174 
L 256.839334 -87.489629 
L 256.872644 -86.307085 
L 256.915303 -85.12454 
L 256.961641 -83.941995 
L 257.005642 -82.759451 
L 257.041634 -81.576906 
L 257.064838 -80.394361 
L 257.071704 -79.211817 
L 257.060008 -78.029272 
L 257.028756 -76.846728 
L 256.977962 -75.664183 
L 256.908377 -74.481638 
L 256.821252 -73.299094 
L 256.718165 -72.116549 
L 256.600943 -70.934004 
L 256.471637 -69.75146 
L 256.332539 -68.568915 
L 256.186195 -67.38637 
L 256.0354 -66.203826 
L 255.883152 -65.021281 
L 255.732569 -63.838737 
L 255.586773 -62.656192 
z
" style="stroke: #000000; stroke-opacity: 0.25; stroke-width: 0.7"/>
    </defs>
    <g clip-path="url(#p9c0e9866ba)">
     <use xlink:href="#m6c4e9f37ba" x="0" y="239.94335" style="fill: #1f77b4; fill-opacity: 0.25; stroke: #000000; stroke-opacity: 0.25; stroke-width: 0.7"/>
    </g>
   </g>
   <g id="FillBetweenPolyCollection_5">
    <defs>
     <path id="m350123a3af" d="M 321.029575 -45.29534 
L 296.615467 -45.29534 
L 295.568854 -47.008566 
L 294.617281 -48.721793 
L 293.788667 -50.435019 
L 293.10687 -52.148246 
L 292.590382 -53.861472 
L 292.251377 -55.574698 
L 292.095189 -57.287925 
L 292.120237 -59.001151 
L 292.318388 -60.714378 
L 292.675697 -62.427604 
L 293.173437 -64.14083 
L 293.789303 -65.854057 
L 294.498687 -67.567283 
L 295.275892 -69.28051 
L 296.095215 -70.993736 
L 296.931812 -72.706962 
L 297.76231 -74.420189 
L 298.56516 -76.133415 
L 299.320758 -77.846642 
L 300.011367 -79.559868 
L 300.62092 -81.273095 
L 301.134773 -82.986321 
L 301.539495 -84.699547 
L 301.822748 -86.412774 
L 301.973338 -88.126 
L 301.981456 -89.839227 
L 301.839118 -91.552453 
L 301.540782 -93.265679 
L 301.084104 -94.978906 
L 300.470728 -96.692132 
L 299.707038 -98.405359 
L 298.804755 -100.118585 
L 297.781273 -101.831811 
L 296.659654 -103.545038 
L 295.468224 -105.258264 
L 294.239742 -106.971491 
L 293.010177 -108.684717 
L 291.817155 -110.397943 
L 290.698191 -112.11117 
L 289.688835 -113.824396 
L 288.820899 -115.537623 
L 288.120891 -117.250849 
L 287.6088 -118.964075 
L 287.297319 -120.677302 
L 287.191538 -122.390528 
L 287.289128 -124.103755 
L 287.580951 -125.816981 
L 288.052009 -127.530207 
L 288.682641 -129.243434 
L 289.449832 -130.95666 
L 290.328525 -132.669887 
L 291.292857 -134.383113 
L 292.317221 -136.09634 
L 293.377143 -137.809566 
L 294.449943 -139.522792 
L 295.515193 -141.236019 
L 296.555007 -142.949245 
L 297.554192 -144.662472 
L 298.500288 -146.375698 
L 299.383547 -148.088924 
L 300.196852 -149.802151 
L 300.935605 -151.515377 
L 301.597582 -153.228604 
L 302.182748 -154.94183 
L 302.693043 -156.655056 
L 303.13212 -158.368283 
L 303.505037 -160.081509 
L 303.817918 -161.794736 
L 304.077581 -163.507962 
L 304.291153 -165.221188 
L 304.465695 -166.934415 
L 304.607858 -168.647641 
L 304.723598 -170.360868 
L 304.817956 -172.074094 
L 304.894941 -173.78732 
L 304.957492 -175.500547 
L 305.007556 -177.213773 
L 305.046237 -178.927 
L 305.074026 -180.640226 
L 305.091071 -182.353452 
L 305.097478 -184.066679 
L 305.093598 -185.779905 
L 305.080284 -187.493132 
L 305.059089 -189.206358 
L 305.032381 -190.919584 
L 305.00337 -192.632811 
L 304.976039 -194.346037 
L 304.954968 -196.059264 
L 304.945091 -197.77249 
L 304.951375 -199.485717 
L 304.978474 -201.198943 
L 305.03037 -202.912169 
L 305.110053 -204.625396 
L 305.219256 -206.338622 
L 305.358283 -208.051849 
L 305.525941 -209.765075 
L 305.719592 -211.478301 
L 305.935311 -213.191528 
L 306.168141 -214.904754 
L 311.476901 -214.904754 
L 311.476901 -214.904754 
L 311.70973 -213.191528 
L 311.925449 -211.478301 
L 312.119101 -209.765075 
L 312.286759 -208.051849 
L 312.425786 -206.338622 
L 312.534989 -204.625396 
L 312.614672 -202.912169 
L 312.666568 -201.198943 
L 312.693666 -199.485717 
L 312.699951 -197.77249 
L 312.690074 -196.059264 
L 312.669003 -194.346037 
L 312.641671 -192.632811 
L 312.612661 -190.919584 
L 312.585953 -189.206358 
L 312.564757 -187.493132 
L 312.551444 -185.779905 
L 312.547564 -184.066679 
L 312.553971 -182.353452 
L 312.571016 -180.640226 
L 312.598804 -178.927 
L 312.637486 -177.213773 
L 312.68755 -175.500547 
L 312.750101 -173.78732 
L 312.827085 -172.074094 
L 312.921444 -170.360868 
L 313.037184 -168.647641 
L 313.179347 -166.934415 
L 313.353888 -165.221188 
L 313.56746 -163.507962 
L 313.827124 -161.794736 
L 314.140005 -160.081509 
L 314.512922 -158.368283 
L 314.951999 -156.655056 
L 315.462294 -154.94183 
L 316.04746 -153.228604 
L 316.709436 -151.515377 
L 317.44819 -149.802151 
L 318.261495 -148.088924 
L 319.144754 -146.375698 
L 320.09085 -144.662472 
L 321.090035 -142.949245 
L 322.129849 -141.236019 
L 323.195099 -139.522792 
L 324.267899 -137.809566 
L 325.327821 -136.09634 
L 326.352185 -134.383113 
L 327.316516 -132.669887 
L 328.19521 -130.95666 
L 328.9624 -129.243434 
L 329.593033 -127.530207 
L 330.064091 -125.816981 
L 330.355914 -124.103755 
L 330.453504 -122.390528 
L 330.347723 -120.677302 
L 330.036241 -118.964075 
L 329.524151 -117.250849 
L 328.824143 -115.537623 
L 327.956207 -113.824396 
L 326.946851 -112.11117 
L 325.827887 -110.397943 
L 324.634865 -108.684717 
L 323.4053 -106.971491 
L 322.176818 -105.258264 
L 320.985388 -103.545038 
L 319.863769 -101.831811 
L 318.840286 -100.118585 
L 317.938003 -98.405359 
L 317.174314 -96.692132 
L 316.560938 -94.978906 
L 316.10426 -93.265679 
L 315.805924 -91.552453 
L 315.663585 -89.839227 
L 315.671704 -88.126 
L 315.822294 -86.412774 
L 316.105547 -84.699547 
L 316.510269 -82.986321 
L 317.024122 -81.273095 
L 317.633675 -79.559868 
L 318.324283 -77.846642 
L 319.079882 -76.133415 
L 319.882732 -74.420189 
L 320.71323 -72.706962 
L 321.549827 -70.993736 
L 322.36915 -69.28051 
L 323.146355 -67.567283 
L 323.855738 -65.854057 
L 324.471605 -64.14083 
L 324.969345 -62.427604 
L 325.326654 -60.714378 
L 325.524805 -59.001151 
L 325.549852 -57.287925 
L 325.393664 -55.574698 
L 325.05466 -53.861472 
L 324.538171 -52.148246 
L 323.856375 -50.435019 
L 323.027761 -48.721793 
L 322.076188 -47.008566 
L 321.029575 -45.29534 
z
" style="stroke: #000000; stroke-opacity: 0.25; stroke-width: 0.7"/>
    </defs>
    <g clip-path="url(#p9c0e9866ba)">
     <use xlink:href="#m350123a3af" x="0" y="239.94335" style="fill: #1f77b4; fill-opacity: 0.25; stroke: #000000; stroke-opacity: 0.25; stroke-width: 0.7"/>
    </g>
   </g>
   <g id="FillBetweenPolyCollection_6">
    <defs>
     <path id="m673ccbceb2" d="M 363.352723 -50.131122 
L 362.447235 -50.131122 
L 362.334611 -51.642738 
L 362.209476 -53.154354 
L 362.074802 -54.66597 
L 361.934279 -56.177585 
L 361.791745 -57.689201 
L 361.650554 -59.200817 
L 361.513083 -60.712433 
L 361.380559 -62.224049 
L 361.253262 -63.735664 
L 361.131029 -65.24728 
L 361.013862 -66.758896 
L 360.90241 -68.270512 
L 360.798156 -69.782128 
L 360.703269 -71.293743 
L 360.620211 -72.805359 
L 360.551255 -74.316975 
L 360.49805 -75.828591 
L 360.461317 -77.340207 
L 360.440659 -78.851822 
L 360.434437 -80.363438 
L 360.439694 -81.875054 
L 360.452143 -83.38667 
L 360.466294 -84.898286 
L 360.475785 -86.409901 
L 360.473869 -87.921517 
L 360.453906 -89.433133 
L 360.409517 -90.944749 
L 360.334058 -92.456365 
L 360.219169 -93.96798 
L 360.052442 -95.479596 
L 359.814716 -96.991212 
L 359.477916 -98.502828 
L 359.00466 -100.014444 
L 358.350785 -101.526059 
L 357.471418 -103.037675 
L 356.330301 -104.549291 
L 354.910906 -106.060907 
L 353.226845 -107.572523 
L 351.328616 -109.084138 
L 349.304099 -110.595754 
L 347.271513 -112.10737 
L 345.365473 -113.618986 
L 343.718723 -115.130602 
L 342.443418 -116.642217 
L 341.616042 -118.153833 
L 341.268996 -119.665449 
L 341.390086 -121.177065 
L 341.929137 -122.688681 
L 342.809399 -124.200296 
L 343.940786 -125.711912 
L 345.232221 -127.223528 
L 346.601211 -128.735144 
L 347.979863 -130.24676 
L 349.317425 -131.758375 
L 350.580026 -133.269991 
L 351.748503 -134.781607 
L 352.815187 -136.293223 
L 353.780413 -137.804839 
L 354.649345 -139.316455 
L 355.429529 -140.82807 
L 356.129345 -142.339686 
L 356.757286 -143.851302 
L 357.321757 -145.362918 
L 357.831018 -146.874534 
L 358.29292 -148.386149 
L 358.714338 -149.897765 
L 359.100426 -151.409381 
L 359.454024 -152.920997 
L 359.775526 -154.432613 
L 360.063417 -155.944228 
L 360.315375 -157.455844 
L 360.529675 -158.96746 
L 360.706452 -160.479076 
L 360.848467 -161.990692 
L 360.961154 -163.502307 
L 361.051956 -165.013923 
L 361.129152 -166.525539 
L 361.200508 -168.037155 
L 361.272104 -169.548771 
L 361.347599 -171.060386 
L 361.428073 -172.572002 
L 361.512375 -174.083618 
L 361.597822 -175.595234 
L 361.680979 -177.10685 
L 361.758345 -178.618465 
L 361.826823 -180.130081 
L 361.884012 -181.641697 
L 361.928418 -183.153313 
L 361.959684 -184.664929 
L 361.978839 -186.176544 
L 361.988494 -187.68816 
L 361.992827 -189.199776 
L 361.997221 -190.711392 
L 362.007547 -192.223008 
L 362.029194 -193.734623 
L 362.06607 -195.246239 
L 362.11985 -196.757855 
L 362.189658 -198.269471 
L 362.272271 -199.781087 
L 363.527687 -199.781087 
L 363.527687 -199.781087 
L 363.6103 -198.269471 
L 363.680109 -196.757855 
L 363.733888 -195.246239 
L 363.770764 -193.734623 
L 363.792411 -192.223008 
L 363.802738 -190.711392 
L 363.807131 -189.199776 
L 363.811464 -187.68816 
L 363.821119 -186.176544 
L 363.840274 -184.664929 
L 363.87154 -183.153313 
L 363.915947 -181.641697 
L 363.973135 -180.130081 
L 364.041613 -178.618465 
L 364.118979 -177.10685 
L 364.202137 -175.595234 
L 364.287583 -174.083618 
L 364.371885 -172.572002 
L 364.452359 -171.060386 
L 364.527854 -169.548771 
L 364.59945 -168.037155 
L 364.670806 -166.525539 
L 364.748002 -165.013923 
L 364.838804 -163.502307 
L 364.951492 -161.990692 
L 365.093506 -160.479076 
L 365.270283 -158.96746 
L 365.484583 -157.455844 
L 365.736542 -155.944228 
L 366.024432 -154.432613 
L 366.345935 -152.920997 
L 366.699532 -151.409381 
L 367.085621 -149.897765 
L 367.507038 -148.386149 
L 367.96894 -146.874534 
L 368.478201 -145.362918 
L 369.042672 -143.851302 
L 369.670613 -142.339686 
L 370.370429 -140.82807 
L 371.150613 -139.316455 
L 372.019546 -137.804839 
L 372.984772 -136.293223 
L 374.051456 -134.781607 
L 375.219932 -133.269991 
L 376.482533 -131.758375 
L 377.820095 -130.24676 
L 379.198747 -128.735144 
L 380.567737 -127.223528 
L 381.859172 -125.711912 
L 382.990559 -124.200296 
L 383.870821 -122.688681 
L 384.409872 -121.177065 
L 384.530962 -119.665449 
L 384.183916 -118.153833 
L 383.356541 -116.642217 
L 382.081236 -115.130602 
L 380.434485 -113.618986 
L 378.528445 -112.10737 
L 376.49586 -110.595754 
L 374.471343 -109.084138 
L 372.573114 -107.572523 
L 370.889052 -106.060907 
L 369.469657 -104.549291 
L 368.32854 -103.037675 
L 367.449173 -101.526059 
L 366.795298 -100.014444 
L 366.322043 -98.502828 
L 365.985242 -96.991212 
L 365.747516 -95.479596 
L 365.58079 -93.96798 
L 365.4659 -92.456365 
L 365.390441 -90.944749 
L 365.346052 -89.433133 
L 365.326089 -87.921517 
L 365.324173 -86.409901 
L 365.333664 -84.898286 
L 365.347816 -83.38667 
L 365.360265 -81.875054 
L 365.365522 -80.363438 
L 365.359299 -78.851822 
L 365.338641 -77.340207 
L 365.301908 -75.828591 
L 365.248703 -74.316975 
L 365.179747 -72.805359 
L 365.096689 -71.293743 
L 365.001802 -69.782128 
L 364.897548 -68.270512 
L 364.786096 -66.758896 
L 364.668929 -65.24728 
L 364.546696 -63.735664 
L 364.419399 -62.224049 
L 364.286875 -60.712433 
L 364.149405 -59.200817 
L 364.008214 -57.689201 
L 363.86568 -56.177585 
L 363.725156 -54.66597 
L 363.590482 -53.154354 
L 363.465347 -51.642738 
L 363.352723 -50.131122 
z
" style="stroke: #000000; stroke-opacity: 0.25; stroke-width: 0.7"/>
    </defs>
    <g clip-path="url(#p9c0e9866ba)">
     <use xlink:href="#m673ccbceb2" x="0" y="239.94335" style="fill: #1f77b4; fill-opacity: 0.25; stroke: #000000; stroke-opacity: 0.25; stroke-width: 0.7"/>
    </g>
   </g>
   <g id="FillBetweenPolyCollection_7">
    <defs>
     <path id="me5125fb949" d="M 417.143369 -54.52235 
L 416.811506 -54.52235 
L 416.799194 -55.928182 
L 416.785688 -57.334013 
L 416.768152 -58.739844 
L 416.743604 -60.145675 
L 416.709585 -61.551506 
L 416.664766 -62.957338 
L 416.609309 -64.363169 
L 416.544871 -65.769 
L 416.47423 -67.174831 
L 416.400659 -68.580662 
L 416.327226 -69.986494 
L 416.256277 -71.392325 
L 416.189254 -72.798156 
L 416.126906 -74.203987 
L 416.069783 -75.609819 
L 416.018795 -77.01565 
L 415.975598 -78.421481 
L 415.94261 -79.827312 
L 415.922614 -81.233143 
L 415.918073 -82.638975 
L 415.930384 -84.044806 
L 415.959307 -85.450637 
L 416.002766 -86.856468 
L 416.057028 -88.262299 
L 416.117145 -89.668131 
L 416.177379 -91.073962 
L 416.231352 -92.479793 
L 416.271642 -93.885624 
L 416.288721 -95.291455 
L 416.269292 -96.697287 
L 416.194301 -98.103118 
L 416.037181 -99.508949 
L 415.7631 -100.91478 
L 415.330143 -102.320612 
L 414.693227 -103.726443 
L 413.811049 -105.132274 
L 412.65551 -106.538105 
L 411.221917 -107.943936 
L 409.537295 -109.349768 
L 407.663817 -110.755599 
L 405.694997 -112.16143 
L 403.744003 -113.567261 
L 401.925833 -114.973092 
L 400.337276 -116.378924 
L 399.03981 -117.784755 
L 398.050148 -119.190586 
L 397.341173 -120.596417 
L 396.853009 -122.002248 
L 396.511014 -123.40808 
L 396.245566 -124.813911 
L 396.008219 -126.219742 
L 395.780207 -127.625573 
L 395.571837 -129.031405 
L 395.414161 -130.437236 
L 395.346454 -131.843067 
L 395.403885 -133.248898 
L 395.609048 -134.654729 
L 395.969174 -136.060561 
L 396.478588 -137.466392 
L 397.12421 -138.872223 
L 397.891202 -140.278054 
L 398.7664 -141.683885 
L 399.738529 -143.089717 
L 400.795745 -144.495548 
L 401.922138 -145.901379 
L 403.095055 -147.30721 
L 404.284583 -148.713041 
L 405.455508 -150.118873 
L 406.571111 -151.524704 
L 407.597556 -152.930535 
L 408.507606 -154.336366 
L 409.282822 -155.742198 
L 409.914072 -157.148029 
L 410.40077 -158.55386 
L 410.749537 -159.959691 
L 410.972935 -161.365522 
L 411.088523 -162.771354 
L 411.118067 -164.177185 
L 411.086455 -165.583016 
L 411.019884 -166.988847 
L 410.943248 -168.394678 
L 410.877177 -169.80051 
L 410.835585 -171.206341 
L 410.824652 -172.612172 
L 410.843846 -174.018003 
L 410.888885 -175.423835 
L 410.955787 -176.829666 
L 411.044671 -178.235497 
L 411.161915 -179.641328 
L 411.319807 -181.047159 
L 411.533652 -182.452991 
L 411.817195 -183.858822 
L 412.177829 -185.264653 
L 412.613125 -186.670484 
L 413.109767 -188.076315 
L 413.645194 -189.482147 
L 414.191404 -190.887978 
L 414.719751 -192.293809 
L 415.205462 -193.69964 
L 418.749412 -193.69964 
L 418.749412 -193.69964 
L 419.235124 -192.293809 
L 419.763471 -190.887978 
L 420.30968 -189.482147 
L 420.845108 -188.076315 
L 421.34175 -186.670484 
L 421.777046 -185.264653 
L 422.13768 -183.858822 
L 422.421223 -182.452991 
L 422.635067 -181.047159 
L 422.79296 -179.641328 
L 422.910204 -178.235497 
L 422.999088 -176.829666 
L 423.06599 -175.423835 
L 423.111029 -174.018003 
L 423.130223 -172.612172 
L 423.11929 -171.206341 
L 423.077698 -169.80051 
L 423.011627 -168.394678 
L 422.93499 -166.988847 
L 422.868419 -165.583016 
L 422.836808 -164.177185 
L 422.866352 -162.771354 
L 422.98194 -161.365522 
L 423.205338 -159.959691 
L 423.554105 -158.55386 
L 424.040803 -157.148029 
L 424.672053 -155.742198 
L 425.447269 -154.336366 
L 426.357319 -152.930535 
L 427.383764 -151.524704 
L 428.499367 -150.118873 
L 429.670292 -148.713041 
L 430.85982 -147.30721 
L 432.032737 -145.901379 
L 433.159129 -144.495548 
L 434.216346 -143.089717 
L 435.188475 -141.683885 
L 436.063673 -140.278054 
L 436.830665 -138.872223 
L 437.476287 -137.466392 
L 437.985701 -136.060561 
L 438.345827 -134.654729 
L 438.55099 -133.248898 
L 438.608421 -131.843067 
L 438.540713 -130.437236 
L 438.383037 -129.031405 
L 438.174668 -127.625573 
L 437.946655 -126.219742 
L 437.709309 -124.813911 
L 437.443861 -123.40808 
L 437.101866 -122.002248 
L 436.613701 -120.596417 
L 435.904727 -119.190586 
L 434.915065 -117.784755 
L 433.617599 -116.378924 
L 432.029042 -114.973092 
L 430.210871 -113.567261 
L 428.259877 -112.16143 
L 426.291058 -110.755599 
L 424.41758 -109.349768 
L 422.732958 -107.943936 
L 421.299364 -106.538105 
L 420.143826 -105.132274 
L 419.261648 -103.726443 
L 418.624732 -102.320612 
L 418.191775 -100.91478 
L 417.917694 -99.508949 
L 417.760573 -98.103118 
L 417.685583 -96.697287 
L 417.666154 -95.291455 
L 417.683233 -93.885624 
L 417.723522 -92.479793 
L 417.777496 -91.073962 
L 417.83773 -89.668131 
L 417.897846 -88.262299 
L 417.952109 -86.856468 
L 417.995567 -85.450637 
L 418.02449 -84.044806 
L 418.036801 -82.638975 
L 418.032261 -81.233143 
L 418.012265 -79.827312 
L 417.979276 -78.421481 
L 417.93608 -77.01565 
L 417.885092 -75.609819 
L 417.827968 -74.203987 
L 417.765621 -72.798156 
L 417.698598 -71.392325 
L 417.627649 -69.986494 
L 417.554216 -68.580662 
L 417.480644 -67.174831 
L 417.410004 -65.769 
L 417.345565 -64.363169 
L 417.290109 -62.957338 
L 417.24529 -61.551506 
L 417.211271 -60.145675 
L 417.186723 -58.739844 
L 417.169186 -57.334013 
L 417.155681 -55.928182 
L 417.143369 -54.52235 
z
" style="stroke: #000000; stroke-opacity: 0.25; stroke-width: 0.7"/>
    </defs>
    <g clip-path="url(#p9c0e9866ba)">
     <use xlink:href="#me5125fb949" x="0" y="239.94335" style="fill: #1f77b4; fill-opacity: 0.25; stroke: #000000; stroke-opacity: 0.25; stroke-width: 0.7"/>
    </g>
   </g>
   <g id="FillBetweenPolyCollection_8">
    <defs>
     <path id="m993c4e387d" d="M 472.170043 -52.883412 
L 469.939749 -52.883412 
L 469.840813 -54.394965 
L 469.776384 -55.906518 
L 469.748928 -57.418072 
L 469.756296 -58.929625 
L 469.792266 -60.441178 
L 469.847727 -61.952731 
L 469.912188 -63.464285 
L 469.975254 -64.975838 
L 470.027784 -66.487391 
L 470.062612 -67.998944 
L 470.074825 -69.510498 
L 470.061724 -71.022051 
L 470.022627 -72.533604 
L 469.958611 -74.045157 
L 469.872255 -75.556711 
L 469.76738 -77.068264 
L 469.64872 -78.579817 
L 469.521519 -80.09137 
L 469.39105 -81.602924 
L 469.262121 -83.114477 
L 469.138614 -84.62603 
L 469.023086 -86.137583 
L 468.916404 -87.649136 
L 468.817316 -89.16069 
L 468.72182 -90.672243 
L 468.622224 -92.183796 
L 468.505821 -93.695349 
L 468.353284 -95.206903 
L 468.137094 -96.718456 
L 467.820625 -98.230009 
L 467.358742 -99.741562 
L 466.700896 -101.253116 
L 465.797445 -102.764669 
L 464.60921 -104.276222 
L 463.119159 -105.787775 
L 461.343845 -107.299329 
L 459.341287 -108.810882 
L 457.212023 -110.322435 
L 455.091309 -111.833988 
L 453.13274 -113.345542 
L 451.486241 -114.857095 
L 450.275374 -116.368648 
L 449.579362 -117.880201 
L 449.423912 -119.391755 
L 449.78231 -120.903308 
L 450.585339 -122.414861 
L 451.736485 -123.926414 
L 453.128186 -125.437968 
L 454.655619 -126.949521 
L 456.2261 -128.461074 
L 457.763902 -129.972627 
L 459.211493 -131.484181 
L 460.528679 -132.995734 
L 461.690901 -134.507287 
L 462.687421 -136.01884 
L 463.51949 -137.530393 
L 464.198355 -139.041947 
L 464.742883 -140.5535 
L 465.176803 -142.065053 
L 465.525829 -143.576606 
L 465.815027 -145.08816 
L 466.066777 -146.599713 
L 466.299476 -148.111266 
L 466.52695 -149.622819 
L 466.758336 -151.134373 
L 466.998242 -152.645926 
L 467.247044 -154.157479 
L 467.501368 -155.669032 
L 467.754898 -157.180586 
L 467.999623 -158.692139 
L 468.227481 -160.203692 
L 468.432121 -161.715245 
L 468.610348 -163.226799 
L 468.762809 -164.738352 
L 468.893681 -166.249905 
L 469.009476 -167.761458 
L 469.117353 -169.273012 
L 469.223507 -170.784565 
L 469.332084 -172.296118 
L 469.444875 -173.807671 
L 469.561664 -175.319225 
L 469.68097 -176.830778 
L 469.800802 -178.342331 
L 469.919167 -179.853884 
L 470.034253 -181.365438 
L 470.144346 -182.876991 
L 470.247675 -184.388544 
L 470.342352 -185.900097 
L 470.426531 -187.41165 
L 470.498755 -188.923204 
L 470.558392 -190.434757 
L 470.605973 -191.94631 
L 470.643284 -193.457863 
L 470.67313 -194.969417 
L 470.698833 -196.48097 
L 470.723586 -197.992523 
L 470.749868 -199.504076 
L 470.779055 -201.01563 
L 470.81132 -202.527183 
L 471.298471 -202.527183 
L 471.298471 -202.527183 
L 471.330737 -201.01563 
L 471.359923 -199.504076 
L 471.386205 -197.992523 
L 471.410959 -196.48097 
L 471.436661 -194.969417 
L 471.466507 -193.457863 
L 471.503818 -191.94631 
L 471.551399 -190.434757 
L 471.611036 -188.923204 
L 471.68326 -187.41165 
L 471.767439 -185.900097 
L 471.862116 -184.388544 
L 471.965445 -182.876991 
L 472.075538 -181.365438 
L 472.190624 -179.853884 
L 472.30899 -178.342331 
L 472.428821 -176.830778 
L 472.548127 -175.319225 
L 472.664916 -173.807671 
L 472.777707 -172.296118 
L 472.886285 -170.784565 
L 472.992438 -169.273012 
L 473.100315 -167.761458 
L 473.21611 -166.249905 
L 473.346982 -164.738352 
L 473.499443 -163.226799 
L 473.677671 -161.715245 
L 473.882311 -160.203692 
L 474.110168 -158.692139 
L 474.354894 -157.180586 
L 474.608424 -155.669032 
L 474.862748 -154.157479 
L 475.111549 -152.645926 
L 475.351455 -151.134373 
L 475.582841 -149.622819 
L 475.810315 -148.111266 
L 476.043015 -146.599713 
L 476.294764 -145.08816 
L 476.583963 -143.576606 
L 476.932988 -142.065053 
L 477.366908 -140.5535 
L 477.911436 -139.041947 
L 478.590302 -137.530393 
L 479.42237 -136.01884 
L 480.41889 -134.507287 
L 481.581113 -132.995734 
L 482.898298 -131.484181 
L 484.34589 -129.972627 
L 485.883691 -128.461074 
L 487.454172 -126.949521 
L 488.981605 -125.437968 
L 490.373306 -123.926414 
L 491.524452 -122.414861 
L 492.327481 -120.903308 
L 492.685879 -119.391755 
L 492.530429 -117.880201 
L 491.834417 -116.368648 
L 490.623551 -114.857095 
L 488.977052 -113.345542 
L 487.018482 -111.833988 
L 484.897769 -110.322435 
L 482.768505 -108.810882 
L 480.765946 -107.299329 
L 478.990633 -105.787775 
L 477.500582 -104.276222 
L 476.312346 -102.764669 
L 475.408895 -101.253116 
L 474.75105 -99.741562 
L 474.289166 -98.230009 
L 473.972697 -96.718456 
L 473.756508 -95.206903 
L 473.60397 -93.695349 
L 473.487568 -92.183796 
L 473.387972 -90.672243 
L 473.292476 -89.16069 
L 473.193387 -87.649136 
L 473.086705 -86.137583 
L 472.971177 -84.62603 
L 472.84767 -83.114477 
L 472.718742 -81.602924 
L 472.588273 -80.09137 
L 472.461071 -78.579817 
L 472.342412 -77.068264 
L 472.237536 -75.556711 
L 472.151181 -74.045157 
L 472.087164 -72.533604 
L 472.048067 -71.022051 
L 472.034967 -69.510498 
L 472.047179 -67.998944 
L 472.082007 -66.487391 
L 472.134538 -64.975838 
L 472.197603 -63.464285 
L 472.262064 -61.952731 
L 472.317525 -60.441178 
L 472.353496 -58.929625 
L 472.360864 -57.418072 
L 472.333407 -55.906518 
L 472.268978 -54.394965 
L 472.170043 -52.883412 
z
" style="stroke: #000000; stroke-opacity: 0.25; stroke-width: 0.7"/>
    </defs>
    <g clip-path="url(#p9c0e9866ba)">
     <use xlink:href="#m993c4e387d" x="0" y="239.94335" style="fill: #1f77b4; fill-opacity: 0.25; stroke: #000000; stroke-opacity: 0.25; stroke-width: 0.7"/>
    </g>
   </g>
   <g id="FillBetweenPolyCollection_9">
    <defs>
     <path id="maf96e61a81" d="M 525.960936 -62.617015 
L 524.303771 -62.617015 
L 524.163074 -63.97777 
L 524.026664 -65.338526 
L 523.902116 -66.699281 
L 523.79681 -68.060036 
L 523.716995 -69.420791 
L 523.666885 -70.781546 
L 523.647958 -72.142301 
L 523.658616 -73.503057 
L 523.694311 -74.863812 
L 523.748137 -76.224567 
L 523.811804 -77.585322 
L 523.876803 -78.946077 
L 523.935539 -80.306832 
L 523.982244 -81.667587 
L 524.013494 -83.028343 
L 524.028293 -84.389098 
L 524.027733 -85.749853 
L 524.014342 -87.110608 
L 523.991217 -88.471363 
L 523.961076 -89.832118 
L 523.92528 -91.192874 
L 523.88285 -92.553629 
L 523.829486 -93.914384 
L 523.756579 -95.275139 
L 523.650304 -96.635894 
L 523.490939 -97.996649 
L 523.252736 -99.357404 
L 522.904702 -100.71816 
L 522.412718 -102.078915 
L 521.743229 -103.43967 
L 520.868448 -104.800425 
L 519.7725 -106.16118 
L 518.457427 -107.521935 
L 516.947565 -108.882691 
L 515.290745 -110.243446 
L 513.555244 -111.604201 
L 511.822305 -112.964956 
L 510.175254 -114.325711 
L 508.687351 -115.686466 
L 507.411104 -117.047221 
L 506.371613 -118.407977 
L 505.565569 -119.768732 
L 504.965991 -121.129487 
L 504.531292 -122.490242 
L 504.216113 -123.850997 
L 503.981087 -125.211752 
L 503.799222 -126.572508 
L 503.657825 -127.933263 
L 503.556304 -129.294018 
L 503.501371 -130.654773 
L 503.501779 -132.015528 
L 503.564547 -133.376283 
L 503.693817 -134.737038 
L 503.892367 -136.097794 
L 504.164657 -137.458549 
L 504.519716 -138.819304 
L 504.972164 -140.180059 
L 505.540357 -141.540814 
L 506.241754 -142.901569 
L 507.086676 -144.262325 
L 508.072367 -145.62308 
L 509.179294 -146.983835 
L 510.37105 -148.34459 
L 511.598107 -149.705345 
L 512.804604 -151.0661 
L 513.936447 -152.426856 
L 514.948801 -153.787611 
L 515.811364 -155.148366 
L 516.510569 -156.509121 
L 517.048793 -157.869876 
L 517.441335 -159.230631 
L 517.712279 -160.591386 
L 517.89029 -161.952142 
L 518.005011 -163.312897 
L 518.084286 -164.673652 
L 518.152102 -166.034407 
L 518.227046 -167.395162 
L 518.321197 -168.755917 
L 518.439605 -170.116673 
L 518.580634 -171.477428 
L 518.737457 -172.838183 
L 518.900677 -174.198938 
L 519.061667 -175.559693 
L 519.215871 -176.920448 
L 519.365131 -178.281203 
L 519.518272 -179.641959 
L 519.689647 -181.002714 
L 519.89592 -182.363469 
L 520.151929 -183.724224 
L 520.466759 -185.084979 
L 520.841086 -186.445734 
L 521.266481 -187.80649 
L 521.726757 -189.167245 
L 522.200912 -190.528 
L 522.66681 -191.888755 
L 523.10466 -193.24951 
L 523.49955 -194.610265 
L 523.842637 -195.97102 
L 524.131028 -197.331776 
L 526.13368 -197.331776 
L 526.13368 -197.331776 
L 526.422071 -195.97102 
L 526.765158 -194.610265 
L 527.160048 -193.24951 
L 527.597898 -191.888755 
L 528.063796 -190.528 
L 528.537951 -189.167245 
L 528.998227 -187.80649 
L 529.423621 -186.445734 
L 529.797949 -185.084979 
L 530.112779 -183.724224 
L 530.368788 -182.363469 
L 530.575061 -181.002714 
L 530.746436 -179.641959 
L 530.899577 -178.281203 
L 531.048837 -176.920448 
L 531.203041 -175.559693 
L 531.364031 -174.198938 
L 531.52725 -172.838183 
L 531.684074 -171.477428 
L 531.825103 -170.116673 
L 531.94351 -168.755917 
L 532.037662 -167.395162 
L 532.112606 -166.034407 
L 532.180422 -164.673652 
L 532.259697 -163.312897 
L 532.374418 -161.952142 
L 532.552429 -160.591386 
L 532.823372 -159.230631 
L 533.215914 -157.869876 
L 533.754139 -156.509121 
L 534.453344 -155.148366 
L 535.315906 -153.787611 
L 536.328261 -152.426856 
L 537.460103 -151.0661 
L 538.666601 -149.705345 
L 539.893658 -148.34459 
L 541.085413 -146.983835 
L 542.192341 -145.62308 
L 543.178031 -144.262325 
L 544.022954 -142.901569 
L 544.72435 -141.540814 
L 545.292544 -140.180059 
L 545.744992 -138.819304 
L 546.100051 -137.458549 
L 546.372341 -136.097794 
L 546.570891 -134.737038 
L 546.700161 -133.376283 
L 546.762929 -132.015528 
L 546.763337 -130.654773 
L 546.708404 -129.294018 
L 546.606883 -127.933263 
L 546.465486 -126.572508 
L 546.28362 -125.211752 
L 546.048594 -123.850997 
L 545.733416 -122.490242 
L 545.298717 -121.129487 
L 544.699139 -119.768732 
L 543.893094 -118.407977 
L 542.853604 -117.047221 
L 541.577356 -115.686466 
L 540.089454 -114.325711 
L 538.442403 -112.964956 
L 536.709463 -111.604201 
L 534.973963 -110.243446 
L 533.317143 -108.882691 
L 531.80728 -107.521935 
L 530.492208 -106.16118 
L 529.396259 -104.800425 
L 528.521478 -103.43967 
L 527.85199 -102.078915 
L 527.360006 -100.71816 
L 527.011972 -99.357404 
L 526.773768 -97.996649 
L 526.614404 -96.635894 
L 526.508128 -95.275139 
L 526.435222 -93.914384 
L 526.381857 -92.553629 
L 526.339427 -91.192874 
L 526.303631 -89.832118 
L 526.273491 -88.471363 
L 526.250366 -87.110608 
L 526.236974 -85.749853 
L 526.236415 -84.389098 
L 526.251214 -83.028343 
L 526.282464 -81.667587 
L 526.329169 -80.306832 
L 526.387905 -78.946077 
L 526.452904 -77.585322 
L 526.516571 -76.224567 
L 526.570397 -74.863812 
L 526.606091 -73.503057 
L 526.61675 -72.142301 
L 526.597823 -70.781546 
L 526.547713 -69.420791 
L 526.467898 -68.060036 
L 526.362592 -66.699281 
L 526.238044 -65.338526 
L 526.101634 -63.97777 
L 525.960936 -62.617015 
z
" style="stroke: #000000; stroke-opacity: 0.25; stroke-width: 0.7"/>
    </defs>
    <g clip-path="url(#p9c0e9866ba)">
     <use xlink:href="#maf96e61a81" x="0" y="239.94335" style="fill: #1f77b4; fill-opacity: 0.25; stroke: #000000; stroke-opacity: 0.25; stroke-width: 0.7"/>
    </g>
   </g>
   <g id="FillBetweenPolyCollection_10">
    <defs>
     <path id="m0ee7caf517" d="M 579.728813 -50.727978 
L 578.690812 -50.727978 
L 578.60705 -52.064695 
L 578.520574 -53.401413 
L 578.43134 -54.738131 
L 578.338648 -56.074848 
L 578.241431 -57.411566 
L 578.138743 -58.748284 
L 578.030317 -60.085002 
L 577.917047 -61.421719 
L 577.801211 -62.758437 
L 577.686369 -64.095155 
L 577.576894 -65.431872 
L 577.477287 -66.76859 
L 577.391421 -68.105308 
L 577.321943 -69.442025 
L 577.269958 -70.778743 
L 577.235069 -72.115461 
L 577.215695 -73.452178 
L 577.209561 -74.788896 
L 577.214191 -76.125614 
L 577.227286 -77.462332 
L 577.246907 -78.799049 
L 577.271478 -80.135767 
L 577.299632 -81.472485 
L 577.329985 -82.809202 
L 577.360901 -84.14592 
L 577.390325 -85.482638 
L 577.415716 -86.819355 
L 577.434092 -88.156073 
L 577.442158 -89.492791 
L 577.436407 -90.829508 
L 577.413088 -92.166226 
L 577.367899 -93.502944 
L 577.295346 -94.839662 
L 577.187773 -96.176379 
L 577.034246 -97.513097 
L 576.819568 -98.849815 
L 576.523801 -100.186532 
L 576.122699 -101.52325 
L 575.589327 -102.859968 
L 574.89697 -104.196685 
L 574.023165 -105.533403 
L 572.954341 -106.870121 
L 571.690287 -108.206838 
L 570.24752 -109.543556 
L 568.660636 -110.880274 
L 566.981044 -112.216991 
L 565.272987 -113.553709 
L 563.607363 -114.890427 
L 562.054414 -116.227145 
L 560.676664 -117.563862 
L 559.523423 -118.90058 
L 558.627731 -120.237298 
L 558.005982 -121.574015 
L 557.659737 -122.910733 
L 557.578829 -124.247451 
L 557.744691 -125.584168 
L 558.133154 -126.920886 
L 558.716361 -128.257604 
L 559.463963 -129.594321 
L 560.344005 -130.931039 
L 561.323914 -132.267757 
L 562.371804 -133.604475 
L 563.457974 -134.941192 
L 564.556267 -136.27791 
L 565.644932 -137.614628 
L 566.706763 -138.951345 
L 567.728559 -140.288063 
L 568.700173 -141.624781 
L 569.613516 -142.961498 
L 570.461841 -144.298216 
L 571.239454 -145.634934 
L 571.941806 -146.971651 
L 572.565771 -148.308369 
L 573.109923 -149.645087 
L 573.574663 -150.981805 
L 573.962183 -152.318522 
L 574.27637 -153.65524 
L 574.522739 -154.991958 
L 574.708461 -156.328675 
L 574.842431 -157.665393 
L 574.935229 -159.002111 
L 574.998824 -160.338828 
L 575.045906 -161.675546 
L 575.088909 -163.012264 
L 575.13889 -164.348981 
L 575.204535 -165.685699 
L 575.291563 -167.022417 
L 575.402683 -168.359135 
L 575.538073 -169.695852 
L 575.69623 -171.03257 
L 575.874888 -172.369288 
L 576.071738 -173.706005 
L 576.284766 -175.042723 
L 576.512166 -176.379441 
L 576.751943 -177.716158 
L 577.001417 -179.052876 
L 577.256837 -180.389594 
L 577.513283 -181.726311 
L 577.764903 -183.063029 
L 580.654722 -183.063029 
L 580.654722 -183.063029 
L 580.906341 -181.726311 
L 581.162787 -180.389594 
L 581.418207 -179.052876 
L 581.667681 -177.716158 
L 581.907458 -176.379441 
L 582.134858 -175.042723 
L 582.347886 -173.706005 
L 582.544736 -172.369288 
L 582.723394 -171.03257 
L 582.881551 -169.695852 
L 583.016942 -168.359135 
L 583.128061 -167.022417 
L 583.21509 -165.685699 
L 583.280734 -164.348981 
L 583.330715 -163.012264 
L 583.373719 -161.675546 
L 583.420801 -160.338828 
L 583.484395 -159.002111 
L 583.577193 -157.665393 
L 583.711163 -156.328675 
L 583.896885 -154.991958 
L 584.143254 -153.65524 
L 584.457441 -152.318522 
L 584.844962 -150.981805 
L 585.309701 -149.645087 
L 585.853854 -148.308369 
L 586.477818 -146.971651 
L 587.18017 -145.634934 
L 587.957784 -144.298216 
L 588.806109 -142.961498 
L 589.719451 -141.624781 
L 590.691065 -140.288063 
L 591.712862 -138.951345 
L 592.774693 -137.614628 
L 593.863357 -136.27791 
L 594.96165 -134.941192 
L 596.04782 -133.604475 
L 597.095711 -132.267757 
L 598.075619 -130.931039 
L 598.955661 -129.594321 
L 599.703263 -128.257604 
L 600.28647 -126.920886 
L 600.674933 -125.584168 
L 600.840795 -124.247451 
L 600.759887 -122.910733 
L 600.413643 -121.574015 
L 599.791893 -120.237298 
L 598.896202 -118.90058 
L 597.74296 -117.563862 
L 596.36521 -116.227145 
L 594.812261 -114.890427 
L 593.146637 -113.553709 
L 591.438581 -112.216991 
L 589.758988 -110.880274 
L 588.172104 -109.543556 
L 586.729337 -108.206838 
L 585.465284 -106.870121 
L 584.396459 -105.533403 
L 583.522655 -104.196685 
L 582.830297 -102.859968 
L 582.296925 -101.52325 
L 581.895824 -100.186532 
L 581.600057 -98.849815 
L 581.385378 -97.513097 
L 581.231851 -96.176379 
L 581.124278 -94.839662 
L 581.051725 -93.502944 
L 581.006537 -92.166226 
L 580.983217 -90.829508 
L 580.977466 -89.492791 
L 580.985532 -88.156073 
L 581.003909 -86.819355 
L 581.029299 -85.482638 
L 581.058723 -84.14592 
L 581.089639 -82.809202 
L 581.119992 -81.472485 
L 581.148146 -80.135767 
L 581.172717 -78.799049 
L 581.192338 -77.462332 
L 581.205433 -76.125614 
L 581.210064 -74.788896 
L 581.20393 -73.452178 
L 581.184556 -72.115461 
L 581.149666 -70.778743 
L 581.097682 -69.442025 
L 581.028203 -68.105308 
L 580.942337 -66.76859 
L 580.84273 -65.431872 
L 580.733255 -64.095155 
L 580.618413 -62.758437 
L 580.502578 -61.421719 
L 580.389307 -60.085002 
L 580.280882 -58.748284 
L 580.178193 -57.411566 
L 580.080977 -56.074848 
L 579.988285 -54.738131 
L 579.89905 -53.401413 
L 579.812574 -52.064695 
L 579.728813 -50.727978 
z
" style="stroke: #000000; stroke-opacity: 0.25; stroke-width: 0.7"/>
    </defs>
    <g clip-path="url(#p9c0e9866ba)">
     <use xlink:href="#m0ee7caf517" x="0" y="239.94335" style="fill: #1f77b4; fill-opacity: 0.25; stroke: #000000; stroke-opacity: 0.25; stroke-width: 0.7"/>
    </g>
   </g>
   <g id="matplotlib.axis_1">
    <g id="xtick_1">
     <g id="line2d_1">
      <defs>
       <path id="m7351a68c14" d="M 0 0 
L 0 3.5 
" style="stroke: #000000; stroke-width: 0.8"/>
      </defs>
      <g>
       <use xlink:href="#m7351a68c14" x="92.512688" y="203.128481" style="stroke: #000000; stroke-width: 0.8"/>
      </g>
     </g>
     <g id="text_1">
      <!-- 416 -->
      <g transform="translate(74.009692 232.533822) rotate(-45) scale(0.1 -0.1)">
       <defs>
        <path id="DejaVuSans-34" d="M 2419 4116 
L 825 1625 
L 2419 1625 
L 2419 4116 
z
M 2253 4666 
L 3047 4666 
L 3047 1625 
L 3713 1625 
L 3713 1100 
L 3047 1100 
L 3047 0 
L 2419 0 
L 2419 1100 
L 313 1100 
L 313 1709 
L 2253 4666 
z
" transform="scale(0.015625)"/>
        <path id="DejaVuSans-2013" d="M 313 1978 
L 2888 1978 
L 2888 1528 
L 313 1528 
L 313 1978 
z
" transform="scale(0.015625)"/>
        <path id="DejaVuSans-31" d="M 794 531 
L 1825 531 
L 1825 4091 
L 703 3866 
L 703 4441 
L 1819 4666 
L 2450 4666 
L 2450 531 
L 3481 531 
L 3481 0 
L 794 0 
L 794 531 
z
" transform="scale(0.015625)"/>
        <path id="DejaVuSans-36" d="M 2113 2584 
Q 1688 2584 1439 2293 
Q 1191 2003 1191 1497 
Q 1191 994 1439 701 
Q 1688 409 2113 409 
Q 2538 409 2786 701 
Q 3034 994 3034 1497 
Q 3034 2003 2786 2293 
Q 2538 2584 2113 2584 
z
M 3366 4563 
L 3366 3988 
Q 3128 4100 2886 4159 
Q 2644 4219 2406 4219 
Q 1781 4219 1451 3797 
Q 1122 3375 1075 2522 
Q 1259 2794 1537 2939 
Q 1816 3084 2150 3084 
Q 2853 3084 3261 2657 
Q 3669 2231 3669 1497 
Q 3669 778 3244 343 
Q 2819 -91 2113 -91 
Q 1303 -91 875 529 
Q 447 1150 447 2328 
Q 447 3434 972 4092 
Q 1497 4750 2381 4750 
Q 2619 4750 2861 4703 
Q 3103 4656 3366 4563 
z
" transform="scale(0.015625)"/>
       </defs>
       <use xlink:href="#DejaVuSans-34"/>
       <use xlink:href="#DejaVuSans-2013" transform="translate(63.623047 0)"/>
       <use xlink:href="#DejaVuSans-31" transform="translate(113.623047 0)"/>
       <use xlink:href="#DejaVuSans-36" transform="translate(177.246094 0)"/>
      </g>
     </g>
    </g>
    <g id="xtick_2">
     <g id="line2d_2">
      <g>
       <use xlink:href="#m7351a68c14" x="146.590146" y="203.128481" style="stroke: #000000; stroke-width: 0.8"/>
      </g>
     </g>
     <g id="text_2">
      <!-- 441 -->
      <g transform="translate(128.08715 232.533822) rotate(-45) scale(0.1 -0.1)">
       <use xlink:href="#DejaVuSans-34"/>
       <use xlink:href="#DejaVuSans-2013" transform="translate(63.623047 0)"/>
       <use xlink:href="#DejaVuSans-34" transform="translate(113.623047 0)"/>
       <use xlink:href="#DejaVuSans-31" transform="translate(177.246094 0)"/>
      </g>
     </g>
    </g>
    <g id="xtick_3">
     <g id="line2d_3">
      <g>
       <use xlink:href="#m7351a68c14" x="200.667604" y="203.128481" style="stroke: #000000; stroke-width: 0.8"/>
      </g>
     </g>
     <g id="text_3">
      <!-- 460 -->
      <g transform="translate(182.164609 232.533822) rotate(-45) scale(0.1 -0.1)">
       <defs>
        <path id="DejaVuSans-30" d="M 2034 4250 
Q 1547 4250 1301 3770 
Q 1056 3291 1056 2328 
Q 1056 1369 1301 889 
Q 1547 409 2034 409 
Q 2525 409 2770 889 
Q 3016 1369 3016 2328 
Q 3016 3291 2770 3770 
Q 2525 4250 2034 4250 
z
M 2034 4750 
Q 2819 4750 3233 4129 
Q 3647 3509 3647 2328 
Q 3647 1150 3233 529 
Q 2819 -91 2034 -91 
Q 1250 -91 836 529 
Q 422 1150 422 2328 
Q 422 3509 836 4129 
Q 1250 4750 2034 4750 
z
" transform="scale(0.015625)"/>
       </defs>
       <use xlink:href="#DejaVuSans-34"/>
       <use xlink:href="#DejaVuSans-2013" transform="translate(63.623047 0)"/>
       <use xlink:href="#DejaVuSans-36" transform="translate(113.623047 0)"/>
       <use xlink:href="#DejaVuSans-30" transform="translate(177.246094 0)"/>
      </g>
     </g>
    </g>
    <g id="xtick_4">
     <g id="line2d_4">
      <g>
       <use xlink:href="#m7351a68c14" x="254.745063" y="203.128481" style="stroke: #000000; stroke-width: 0.8"/>
      </g>
     </g>
     <g id="text_4">
      <!-- 423 -->
      <g transform="translate(236.242067 232.533822) rotate(-45) scale(0.1 -0.1)">
       <defs>
        <path id="DejaVuSans-32" d="M 1228 531 
L 3431 531 
L 3431 0 
L 469 0 
L 469 531 
Q 828 903 1448 1529 
Q 2069 2156 2228 2338 
Q 2531 2678 2651 2914 
Q 2772 3150 2772 3378 
Q 2772 3750 2511 3984 
Q 2250 4219 1831 4219 
Q 1534 4219 1204 4116 
Q 875 4013 500 3803 
L 500 4441 
Q 881 4594 1212 4672 
Q 1544 4750 1819 4750 
Q 2544 4750 2975 4387 
Q 3406 4025 3406 3419 
Q 3406 3131 3298 2873 
Q 3191 2616 2906 2266 
Q 2828 2175 2409 1742 
Q 1991 1309 1228 531 
z
" transform="scale(0.015625)"/>
        <path id="DejaVuSans-33" d="M 2597 2516 
Q 3050 2419 3304 2112 
Q 3559 1806 3559 1356 
Q 3559 666 3084 287 
Q 2609 -91 1734 -91 
Q 1441 -91 1130 -33 
Q 819 25 488 141 
L 488 750 
Q 750 597 1062 519 
Q 1375 441 1716 441 
Q 2309 441 2620 675 
Q 2931 909 2931 1356 
Q 2931 1769 2642 2001 
Q 2353 2234 1838 2234 
L 1294 2234 
L 1294 2753 
L 1863 2753 
Q 2328 2753 2575 2939 
Q 2822 3125 2822 3475 
Q 2822 3834 2567 4026 
Q 2313 4219 1838 4219 
Q 1578 4219 1281 4162 
Q 984 4106 628 3988 
L 628 4550 
Q 988 4650 1302 4700 
Q 1616 4750 1894 4750 
Q 2613 4750 3031 4423 
Q 3450 4097 3450 3541 
Q 3450 3153 3228 2886 
Q 3006 2619 2597 2516 
z
" transform="scale(0.015625)"/>
       </defs>
       <use xlink:href="#DejaVuSans-34"/>
       <use xlink:href="#DejaVuSans-2013" transform="translate(63.623047 0)"/>
       <use xlink:href="#DejaVuSans-32" transform="translate(113.623047 0)"/>
       <use xlink:href="#DejaVuSans-33" transform="translate(177.246094 0)"/>
      </g>
     </g>
    </g>
    <g id="xtick_5">
     <g id="line2d_5">
      <g>
       <use xlink:href="#m7351a68c14" x="308.822521" y="203.128481" style="stroke: #000000; stroke-width: 0.8"/>
      </g>
     </g>
     <g id="text_5">
      <!-- 1641 -->
      <g transform="translate(285.820558 237.032789) rotate(-45) scale(0.1 -0.1)">
       <use xlink:href="#DejaVuSans-31"/>
       <use xlink:href="#DejaVuSans-36" transform="translate(63.623047 0)"/>
       <use xlink:href="#DejaVuSans-2013" transform="translate(127.246094 0)"/>
       <use xlink:href="#DejaVuSans-34" transform="translate(177.246094 0)"/>
       <use xlink:href="#DejaVuSans-31" transform="translate(240.869141 0)"/>
      </g>
     </g>
    </g>
    <g id="xtick_6">
     <g id="line2d_6">
      <g>
       <use xlink:href="#m7351a68c14" x="362.899979" y="203.128481" style="stroke: #000000; stroke-width: 0.8"/>
      </g>
     </g>
     <g id="text_6">
      <!-- 1660 -->
      <g transform="translate(339.898017 237.032789) rotate(-45) scale(0.1 -0.1)">
       <use xlink:href="#DejaVuSans-31"/>
       <use xlink:href="#DejaVuSans-36" transform="translate(63.623047 0)"/>
       <use xlink:href="#DejaVuSans-2013" transform="translate(127.246094 0)"/>
       <use xlink:href="#DejaVuSans-36" transform="translate(177.246094 0)"/>
       <use xlink:href="#DejaVuSans-30" transform="translate(240.869141 0)"/>
      </g>
     </g>
    </g>
    <g id="xtick_7">
     <g id="line2d_7">
      <g>
       <use xlink:href="#m7351a68c14" x="416.977437" y="203.128481" style="stroke: #000000; stroke-width: 0.8"/>
      </g>
     </g>
     <g id="text_7">
      <!-- 1623 -->
      <g transform="translate(393.975475 237.032789) rotate(-45) scale(0.1 -0.1)">
       <use xlink:href="#DejaVuSans-31"/>
       <use xlink:href="#DejaVuSans-36" transform="translate(63.623047 0)"/>
       <use xlink:href="#DejaVuSans-2013" transform="translate(127.246094 0)"/>
       <use xlink:href="#DejaVuSans-32" transform="translate(177.246094 0)"/>
       <use xlink:href="#DejaVuSans-33" transform="translate(240.869141 0)"/>
      </g>
     </g>
    </g>
    <g id="xtick_8">
     <g id="line2d_8">
      <g>
       <use xlink:href="#m7351a68c14" x="471.054896" y="203.128481" style="stroke: #000000; stroke-width: 0.8"/>
      </g>
     </g>
     <g id="text_8">
      <!-- 4160 -->
      <g transform="translate(448.052933 237.032789) rotate(-45) scale(0.1 -0.1)">
       <use xlink:href="#DejaVuSans-34"/>
       <use xlink:href="#DejaVuSans-31" transform="translate(63.623047 0)"/>
       <use xlink:href="#DejaVuSans-2013" transform="translate(127.246094 0)"/>
       <use xlink:href="#DejaVuSans-36" transform="translate(177.246094 0)"/>
       <use xlink:href="#DejaVuSans-30" transform="translate(240.869141 0)"/>
      </g>
     </g>
    </g>
    <g id="xtick_9">
     <g id="line2d_9">
      <g>
       <use xlink:href="#m7351a68c14" x="525.132354" y="203.128481" style="stroke: #000000; stroke-width: 0.8"/>
      </g>
     </g>
     <g id="text_9">
      <!-- 4123 -->
      <g transform="translate(502.130391 237.032789) rotate(-45) scale(0.1 -0.1)">
       <use xlink:href="#DejaVuSans-34"/>
       <use xlink:href="#DejaVuSans-31" transform="translate(63.623047 0)"/>
       <use xlink:href="#DejaVuSans-2013" transform="translate(127.246094 0)"/>
       <use xlink:href="#DejaVuSans-32" transform="translate(177.246094 0)"/>
       <use xlink:href="#DejaVuSans-33" transform="translate(240.869141 0)"/>
      </g>
     </g>
    </g>
    <g id="xtick_10">
     <g id="line2d_10">
      <g>
       <use xlink:href="#m7351a68c14" x="579.209812" y="203.128481" style="stroke: #000000; stroke-width: 0.8"/>
      </g>
     </g>
     <g id="text_10">
      <!-- 6023 -->
      <g transform="translate(556.20785 237.032789) rotate(-45) scale(0.1 -0.1)">
       <use xlink:href="#DejaVuSans-36"/>
       <use xlink:href="#DejaVuSans-30" transform="translate(63.623047 0)"/>
       <use xlink:href="#DejaVuSans-2013" transform="translate(127.246094 0)"/>
       <use xlink:href="#DejaVuSans-32" transform="translate(177.246094 0)"/>
       <use xlink:href="#DejaVuSans-33" transform="translate(240.869141 0)"/>
      </g>
     </g>
    </g>
   </g>
   <g id="matplotlib.axis_2">
    <g id="ytick_1">
     <g id="line2d_11">
      <defs>
       <path id="m35d65f7bbf" d="M 0 0 
L -3.5 0 
" style="stroke: #000000; stroke-width: 0.8"/>
      </defs>
      <g>
       <use xlink:href="#m35d65f7bbf" x="44.38375" y="196.180928" style="stroke: #000000; stroke-width: 0.8"/>
      </g>
     </g>
     <g id="text_11">
      <!-- 0.00 -->
      <g transform="translate(15.118125 199.980147) scale(0.1 -0.1)">
       <defs>
        <path id="DejaVuSans-2e" d="M 684 794 
L 1344 794 
L 1344 0 
L 684 0 
L 684 794 
z
" transform="scale(0.015625)"/>
       </defs>
       <use xlink:href="#DejaVuSans-30"/>
       <use xlink:href="#DejaVuSans-2e" transform="translate(63.623047 0)"/>
       <use xlink:href="#DejaVuSans-30" transform="translate(95.410156 0)"/>
       <use xlink:href="#DejaVuSans-30" transform="translate(159.033203 0)"/>
      </g>
     </g>
    </g>
    <g id="ytick_2">
     <g id="line2d_12">
      <g>
       <use xlink:href="#m35d65f7bbf" x="44.38375" y="174.943482" style="stroke: #000000; stroke-width: 0.8"/>
      </g>
     </g>
     <g id="text_12">
      <!-- 0.01 -->
      <g transform="translate(15.118125 178.7427) scale(0.1 -0.1)">
       <use xlink:href="#DejaVuSans-30"/>
       <use xlink:href="#DejaVuSans-2e" transform="translate(63.623047 0)"/>
       <use xlink:href="#DejaVuSans-30" transform="translate(95.410156 0)"/>
       <use xlink:href="#DejaVuSans-31" transform="translate(159.033203 0)"/>
      </g>
     </g>
    </g>
    <g id="ytick_3">
     <g id="line2d_13">
      <g>
       <use xlink:href="#m35d65f7bbf" x="44.38375" y="153.706035" style="stroke: #000000; stroke-width: 0.8"/>
      </g>
     </g>
     <g id="text_13">
      <!-- 0.02 -->
      <g transform="translate(15.118125 157.505253) scale(0.1 -0.1)">
       <use xlink:href="#DejaVuSans-30"/>
       <use xlink:href="#DejaVuSans-2e" transform="translate(63.623047 0)"/>
       <use xlink:href="#DejaVuSans-30" transform="translate(95.410156 0)"/>
       <use xlink:href="#DejaVuSans-32" transform="translate(159.033203 0)"/>
      </g>
     </g>
    </g>
    <g id="ytick_4">
     <g id="line2d_14">
      <g>
       <use xlink:href="#m35d65f7bbf" x="44.38375" y="132.468588" style="stroke: #000000; stroke-width: 0.8"/>
      </g>
     </g>
     <g id="text_14">
      <!-- 0.03 -->
      <g transform="translate(15.118125 136.267807) scale(0.1 -0.1)">
       <use xlink:href="#DejaVuSans-30"/>
       <use xlink:href="#DejaVuSans-2e" transform="translate(63.623047 0)"/>
       <use xlink:href="#DejaVuSans-30" transform="translate(95.410156 0)"/>
       <use xlink:href="#DejaVuSans-33" transform="translate(159.033203 0)"/>
      </g>
     </g>
    </g>
    <g id="ytick_5">
     <g id="line2d_15">
      <g>
       <use xlink:href="#m35d65f7bbf" x="44.38375" y="111.231141" style="stroke: #000000; stroke-width: 0.8"/>
      </g>
     </g>
     <g id="text_15">
      <!-- 0.04 -->
      <g transform="translate(15.118125 115.03036) scale(0.1 -0.1)">
       <use xlink:href="#DejaVuSans-30"/>
       <use xlink:href="#DejaVuSans-2e" transform="translate(63.623047 0)"/>
       <use xlink:href="#DejaVuSans-30" transform="translate(95.410156 0)"/>
       <use xlink:href="#DejaVuSans-34" transform="translate(159.033203 0)"/>
      </g>
     </g>
    </g>
    <g id="ytick_6">
     <g id="line2d_16">
      <g>
       <use xlink:href="#m35d65f7bbf" x="44.38375" y="89.993694" style="stroke: #000000; stroke-width: 0.8"/>
      </g>
     </g>
     <g id="text_16">
      <!-- 0.05 -->
      <g transform="translate(15.118125 93.792913) scale(0.1 -0.1)">
       <defs>
        <path id="DejaVuSans-35" d="M 691 4666 
L 3169 4666 
L 3169 4134 
L 1269 4134 
L 1269 2991 
Q 1406 3038 1543 3061 
Q 1681 3084 1819 3084 
Q 2600 3084 3056 2656 
Q 3513 2228 3513 1497 
Q 3513 744 3044 326 
Q 2575 -91 1722 -91 
Q 1428 -91 1123 -41 
Q 819 9 494 109 
L 494 744 
Q 775 591 1075 516 
Q 1375 441 1709 441 
Q 2250 441 2565 725 
Q 2881 1009 2881 1497 
Q 2881 1984 2565 2268 
Q 2250 2553 1709 2553 
Q 1456 2553 1204 2497 
Q 953 2441 691 2322 
L 691 4666 
z
" transform="scale(0.015625)"/>
       </defs>
       <use xlink:href="#DejaVuSans-30"/>
       <use xlink:href="#DejaVuSans-2e" transform="translate(63.623047 0)"/>
       <use xlink:href="#DejaVuSans-30" transform="translate(95.410156 0)"/>
       <use xlink:href="#DejaVuSans-35" transform="translate(159.033203 0)"/>
      </g>
     </g>
    </g>
    <g id="ytick_7">
     <g id="line2d_17">
      <g>
       <use xlink:href="#m35d65f7bbf" x="44.38375" y="68.756247" style="stroke: #000000; stroke-width: 0.8"/>
      </g>
     </g>
     <g id="text_17">
      <!-- 0.06 -->
      <g transform="translate(15.118125 72.555466) scale(0.1 -0.1)">
       <use xlink:href="#DejaVuSans-30"/>
       <use xlink:href="#DejaVuSans-2e" transform="translate(63.623047 0)"/>
       <use xlink:href="#DejaVuSans-30" transform="translate(95.410156 0)"/>
       <use xlink:href="#DejaVuSans-36" transform="translate(159.033203 0)"/>
      </g>
     </g>
    </g>
    <g id="ytick_8">
     <g id="line2d_18">
      <g>
       <use xlink:href="#m35d65f7bbf" x="44.38375" y="47.5188" style="stroke: #000000; stroke-width: 0.8"/>
      </g>
     </g>
     <g id="text_18">
      <!-- 0.07 -->
      <g transform="translate(15.118125 51.318019) scale(0.1 -0.1)">
       <defs>
        <path id="DejaVuSans-37" d="M 525 4666 
L 3525 4666 
L 3525 4397 
L 1831 0 
L 1172 0 
L 2766 4134 
L 525 4134 
L 525 4666 
z
" transform="scale(0.015625)"/>
       </defs>
       <use xlink:href="#DejaVuSans-30"/>
       <use xlink:href="#DejaVuSans-2e" transform="translate(63.623047 0)"/>
       <use xlink:href="#DejaVuSans-30" transform="translate(95.410156 0)"/>
       <use xlink:href="#DejaVuSans-37" transform="translate(159.033203 0)"/>
      </g>
     </g>
    </g>
    <g id="ytick_9">
     <g id="line2d_19">
      <g>
       <use xlink:href="#m35d65f7bbf" x="44.38375" y="26.281353" style="stroke: #000000; stroke-width: 0.8"/>
      </g>
     </g>
     <g id="text_19">
      <!-- 0.08 -->
      <g transform="translate(15.118125 30.080572) scale(0.1 -0.1)">
       <defs>
        <path id="DejaVuSans-38" d="M 2034 2216 
Q 1584 2216 1326 1975 
Q 1069 1734 1069 1313 
Q 1069 891 1326 650 
Q 1584 409 2034 409 
Q 2484 409 2743 651 
Q 3003 894 3003 1313 
Q 3003 1734 2745 1975 
Q 2488 2216 2034 2216 
z
M 1403 2484 
Q 997 2584 770 2862 
Q 544 3141 544 3541 
Q 544 4100 942 4425 
Q 1341 4750 2034 4750 
Q 2731 4750 3128 4425 
Q 3525 4100 3525 3541 
Q 3525 3141 3298 2862 
Q 3072 2584 2669 2484 
Q 3125 2378 3379 2068 
Q 3634 1759 3634 1313 
Q 3634 634 3220 271 
Q 2806 -91 2034 -91 
Q 1263 -91 848 271 
Q 434 634 434 1313 
Q 434 1759 690 2068 
Q 947 2378 1403 2484 
z
M 1172 3481 
Q 1172 3119 1398 2916 
Q 1625 2713 2034 2713 
Q 2441 2713 2670 2916 
Q 2900 3119 2900 3481 
Q 2900 3844 2670 4047 
Q 2441 4250 2034 4250 
Q 1625 4250 1398 4047 
Q 1172 3844 1172 3481 
z
" transform="scale(0.015625)"/>
       </defs>
       <use xlink:href="#DejaVuSans-30"/>
       <use xlink:href="#DejaVuSans-2e" transform="translate(63.623047 0)"/>
       <use xlink:href="#DejaVuSans-30" transform="translate(95.410156 0)"/>
       <use xlink:href="#DejaVuSans-38" transform="translate(159.033203 0)"/>
      </g>
     </g>
    </g>
    <g id="text_20">
     <!-- Chamfer distance (normalized) -->
     <g transform="translate(9.038438 187.380022) rotate(-90) scale(0.1 -0.1)">
      <defs>
       <path id="DejaVuSans-43" d="M 4122 4306 
L 4122 3641 
Q 3803 3938 3442 4084 
Q 3081 4231 2675 4231 
Q 1875 4231 1450 3742 
Q 1025 3253 1025 2328 
Q 1025 1406 1450 917 
Q 1875 428 2675 428 
Q 3081 428 3442 575 
Q 3803 722 4122 1019 
L 4122 359 
Q 3791 134 3420 21 
Q 3050 -91 2638 -91 
Q 1578 -91 968 557 
Q 359 1206 359 2328 
Q 359 3453 968 4101 
Q 1578 4750 2638 4750 
Q 3056 4750 3426 4639 
Q 3797 4528 4122 4306 
z
" transform="scale(0.015625)"/>
       <path id="DejaVuSans-68" d="M 3513 2113 
L 3513 0 
L 2938 0 
L 2938 2094 
Q 2938 2591 2744 2837 
Q 2550 3084 2163 3084 
Q 1697 3084 1428 2787 
Q 1159 2491 1159 1978 
L 1159 0 
L 581 0 
L 581 4863 
L 1159 4863 
L 1159 2956 
Q 1366 3272 1645 3428 
Q 1925 3584 2291 3584 
Q 2894 3584 3203 3211 
Q 3513 2838 3513 2113 
z
" transform="scale(0.015625)"/>
       <path id="DejaVuSans-61" d="M 2194 1759 
Q 1497 1759 1228 1600 
Q 959 1441 959 1056 
Q 959 750 1161 570 
Q 1363 391 1709 391 
Q 2188 391 2477 730 
Q 2766 1069 2766 1631 
L 2766 1759 
L 2194 1759 
z
M 3341 1997 
L 3341 0 
L 2766 0 
L 2766 531 
Q 2569 213 2275 61 
Q 1981 -91 1556 -91 
Q 1019 -91 701 211 
Q 384 513 384 1019 
Q 384 1609 779 1909 
Q 1175 2209 1959 2209 
L 2766 2209 
L 2766 2266 
Q 2766 2663 2505 2880 
Q 2244 3097 1772 3097 
Q 1472 3097 1187 3025 
Q 903 2953 641 2809 
L 641 3341 
Q 956 3463 1253 3523 
Q 1550 3584 1831 3584 
Q 2591 3584 2966 3190 
Q 3341 2797 3341 1997 
z
" transform="scale(0.015625)"/>
       <path id="DejaVuSans-6d" d="M 3328 2828 
Q 3544 3216 3844 3400 
Q 4144 3584 4550 3584 
Q 5097 3584 5394 3201 
Q 5691 2819 5691 2113 
L 5691 0 
L 5113 0 
L 5113 2094 
Q 5113 2597 4934 2840 
Q 4756 3084 4391 3084 
Q 3944 3084 3684 2787 
Q 3425 2491 3425 1978 
L 3425 0 
L 2847 0 
L 2847 2094 
Q 2847 2600 2669 2842 
Q 2491 3084 2119 3084 
Q 1678 3084 1418 2786 
Q 1159 2488 1159 1978 
L 1159 0 
L 581 0 
L 581 3500 
L 1159 3500 
L 1159 2956 
Q 1356 3278 1631 3431 
Q 1906 3584 2284 3584 
Q 2666 3584 2933 3390 
Q 3200 3197 3328 2828 
z
" transform="scale(0.015625)"/>
       <path id="DejaVuSans-66" d="M 2375 4863 
L 2375 4384 
L 1825 4384 
Q 1516 4384 1395 4259 
Q 1275 4134 1275 3809 
L 1275 3500 
L 2222 3500 
L 2222 3053 
L 1275 3053 
L 1275 0 
L 697 0 
L 697 3053 
L 147 3053 
L 147 3500 
L 697 3500 
L 697 3744 
Q 697 4328 969 4595 
Q 1241 4863 1831 4863 
L 2375 4863 
z
" transform="scale(0.015625)"/>
       <path id="DejaVuSans-65" d="M 3597 1894 
L 3597 1613 
L 953 1613 
Q 991 1019 1311 708 
Q 1631 397 2203 397 
Q 2534 397 2845 478 
Q 3156 559 3463 722 
L 3463 178 
Q 3153 47 2828 -22 
Q 2503 -91 2169 -91 
Q 1331 -91 842 396 
Q 353 884 353 1716 
Q 353 2575 817 3079 
Q 1281 3584 2069 3584 
Q 2775 3584 3186 3129 
Q 3597 2675 3597 1894 
z
M 3022 2063 
Q 3016 2534 2758 2815 
Q 2500 3097 2075 3097 
Q 1594 3097 1305 2825 
Q 1016 2553 972 2059 
L 3022 2063 
z
" transform="scale(0.015625)"/>
       <path id="DejaVuSans-72" d="M 2631 2963 
Q 2534 3019 2420 3045 
Q 2306 3072 2169 3072 
Q 1681 3072 1420 2755 
Q 1159 2438 1159 1844 
L 1159 0 
L 581 0 
L 581 3500 
L 1159 3500 
L 1159 2956 
Q 1341 3275 1631 3429 
Q 1922 3584 2338 3584 
Q 2397 3584 2469 3576 
Q 2541 3569 2628 3553 
L 2631 2963 
z
" transform="scale(0.015625)"/>
       <path id="DejaVuSans-20" transform="scale(0.015625)"/>
       <path id="DejaVuSans-64" d="M 2906 2969 
L 2906 4863 
L 3481 4863 
L 3481 0 
L 2906 0 
L 2906 525 
Q 2725 213 2448 61 
Q 2172 -91 1784 -91 
Q 1150 -91 751 415 
Q 353 922 353 1747 
Q 353 2572 751 3078 
Q 1150 3584 1784 3584 
Q 2172 3584 2448 3432 
Q 2725 3281 2906 2969 
z
M 947 1747 
Q 947 1113 1208 752 
Q 1469 391 1925 391 
Q 2381 391 2643 752 
Q 2906 1113 2906 1747 
Q 2906 2381 2643 2742 
Q 2381 3103 1925 3103 
Q 1469 3103 1208 2742 
Q 947 2381 947 1747 
z
" transform="scale(0.015625)"/>
       <path id="DejaVuSans-69" d="M 603 3500 
L 1178 3500 
L 1178 0 
L 603 0 
L 603 3500 
z
M 603 4863 
L 1178 4863 
L 1178 4134 
L 603 4134 
L 603 4863 
z
" transform="scale(0.015625)"/>
       <path id="DejaVuSans-73" d="M 2834 3397 
L 2834 2853 
Q 2591 2978 2328 3040 
Q 2066 3103 1784 3103 
Q 1356 3103 1142 2972 
Q 928 2841 928 2578 
Q 928 2378 1081 2264 
Q 1234 2150 1697 2047 
L 1894 2003 
Q 2506 1872 2764 1633 
Q 3022 1394 3022 966 
Q 3022 478 2636 193 
Q 2250 -91 1575 -91 
Q 1294 -91 989 -36 
Q 684 19 347 128 
L 347 722 
Q 666 556 975 473 
Q 1284 391 1588 391 
Q 1994 391 2212 530 
Q 2431 669 2431 922 
Q 2431 1156 2273 1281 
Q 2116 1406 1581 1522 
L 1381 1569 
Q 847 1681 609 1914 
Q 372 2147 372 2553 
Q 372 3047 722 3315 
Q 1072 3584 1716 3584 
Q 2034 3584 2315 3537 
Q 2597 3491 2834 3397 
z
" transform="scale(0.015625)"/>
       <path id="DejaVuSans-74" d="M 1172 4494 
L 1172 3500 
L 2356 3500 
L 2356 3053 
L 1172 3053 
L 1172 1153 
Q 1172 725 1289 603 
Q 1406 481 1766 481 
L 2356 481 
L 2356 0 
L 1766 0 
Q 1100 0 847 248 
Q 594 497 594 1153 
L 594 3053 
L 172 3053 
L 172 3500 
L 594 3500 
L 594 4494 
L 1172 4494 
z
" transform="scale(0.015625)"/>
       <path id="DejaVuSans-6e" d="M 3513 2113 
L 3513 0 
L 2938 0 
L 2938 2094 
Q 2938 2591 2744 2837 
Q 2550 3084 2163 3084 
Q 1697 3084 1428 2787 
Q 1159 2491 1159 1978 
L 1159 0 
L 581 0 
L 581 3500 
L 1159 3500 
L 1159 2956 
Q 1366 3272 1645 3428 
Q 1925 3584 2291 3584 
Q 2894 3584 3203 3211 
Q 3513 2838 3513 2113 
z
" transform="scale(0.015625)"/>
       <path id="DejaVuSans-63" d="M 3122 3366 
L 3122 2828 
Q 2878 2963 2633 3030 
Q 2388 3097 2138 3097 
Q 1578 3097 1268 2742 
Q 959 2388 959 1747 
Q 959 1106 1268 751 
Q 1578 397 2138 397 
Q 2388 397 2633 464 
Q 2878 531 3122 666 
L 3122 134 
Q 2881 22 2623 -34 
Q 2366 -91 2075 -91 
Q 1284 -91 818 406 
Q 353 903 353 1747 
Q 353 2603 823 3093 
Q 1294 3584 2113 3584 
Q 2378 3584 2631 3529 
Q 2884 3475 3122 3366 
z
" transform="scale(0.015625)"/>
       <path id="DejaVuSans-28" d="M 1984 4856 
Q 1566 4138 1362 3434 
Q 1159 2731 1159 2009 
Q 1159 1288 1364 580 
Q 1569 -128 1984 -844 
L 1484 -844 
Q 1016 -109 783 600 
Q 550 1309 550 2009 
Q 550 2706 781 3412 
Q 1013 4119 1484 4856 
L 1984 4856 
z
" transform="scale(0.015625)"/>
       <path id="DejaVuSans-6f" d="M 1959 3097 
Q 1497 3097 1228 2736 
Q 959 2375 959 1747 
Q 959 1119 1226 758 
Q 1494 397 1959 397 
Q 2419 397 2687 759 
Q 2956 1122 2956 1747 
Q 2956 2369 2687 2733 
Q 2419 3097 1959 3097 
z
M 1959 3584 
Q 2709 3584 3137 3096 
Q 3566 2609 3566 1747 
Q 3566 888 3137 398 
Q 2709 -91 1959 -91 
Q 1206 -91 779 398 
Q 353 888 353 1747 
Q 353 2609 779 3096 
Q 1206 3584 1959 3584 
z
" transform="scale(0.015625)"/>
       <path id="DejaVuSans-6c" d="M 603 4863 
L 1178 4863 
L 1178 0 
L 603 0 
L 603 4863 
z
" transform="scale(0.015625)"/>
       <path id="DejaVuSans-7a" d="M 353 3500 
L 3084 3500 
L 3084 2975 
L 922 459 
L 3084 459 
L 3084 0 
L 275 0 
L 275 525 
L 2438 3041 
L 353 3041 
L 353 3500 
z
" transform="scale(0.015625)"/>
       <path id="DejaVuSans-29" d="M 513 4856 
L 1013 4856 
Q 1481 4119 1714 3412 
Q 1947 2706 1947 2009 
Q 1947 1309 1714 600 
Q 1481 -109 1013 -844 
L 513 -844 
Q 928 -128 1133 580 
Q 1338 1288 1338 2009 
Q 1338 2731 1133 3434 
Q 928 4138 513 4856 
z
" transform="scale(0.015625)"/>
      </defs>
      <use xlink:href="#DejaVuSans-43"/>
      <use xlink:href="#DejaVuSans-68" transform="translate(69.824219 0)"/>
      <use xlink:href="#DejaVuSans-61" transform="translate(133.203125 0)"/>
      <use xlink:href="#DejaVuSans-6d" transform="translate(194.482422 0)"/>
      <use xlink:href="#DejaVuSans-66" transform="translate(291.894531 0)"/>
      <use xlink:href="#DejaVuSans-65" transform="translate(327.099609 0)"/>
      <use xlink:href="#DejaVuSans-72" transform="translate(388.623047 0)"/>
      <use xlink:href="#DejaVuSans-20" transform="translate(429.736328 0)"/>
      <use xlink:href="#DejaVuSans-64" transform="translate(461.523438 0)"/>
      <use xlink:href="#DejaVuSans-69" transform="translate(525 0)"/>
      <use xlink:href="#DejaVuSans-73" transform="translate(552.783203 0)"/>
      <use xlink:href="#DejaVuSans-74" transform="translate(604.882812 0)"/>
      <use xlink:href="#DejaVuSans-61" transform="translate(644.091797 0)"/>
      <use xlink:href="#DejaVuSans-6e" transform="translate(705.371094 0)"/>
      <use xlink:href="#DejaVuSans-63" transform="translate(768.75 0)"/>
      <use xlink:href="#DejaVuSans-65" transform="translate(823.730469 0)"/>
      <use xlink:href="#DejaVuSans-20" transform="translate(885.253906 0)"/>
      <use xlink:href="#DejaVuSans-28" transform="translate(917.041016 0)"/>
      <use xlink:href="#DejaVuSans-6e" transform="translate(956.054688 0)"/>
      <use xlink:href="#DejaVuSans-6f" transform="translate(1019.433594 0)"/>
      <use xlink:href="#DejaVuSans-72" transform="translate(1080.615234 0)"/>
      <use xlink:href="#DejaVuSans-6d" transform="translate(1119.978516 0)"/>
      <use xlink:href="#DejaVuSans-61" transform="translate(1217.390625 0)"/>
      <use xlink:href="#DejaVuSans-6c" transform="translate(1278.669922 0)"/>
      <use xlink:href="#DejaVuSans-69" transform="translate(1306.453125 0)"/>
      <use xlink:href="#DejaVuSans-7a" transform="translate(1334.236328 0)"/>
      <use xlink:href="#DejaVuSans-65" transform="translate(1386.726562 0)"/>
      <use xlink:href="#DejaVuSans-64" transform="translate(1448.25 0)"/>
      <use xlink:href="#DejaVuSans-29" transform="translate(1511.726562 0)"/>
     </g>
    </g>
   </g>
   <g id="LineCollection_1">
    <path d="M 81.697196 105.339711 
L 103.328179 105.339711 
" clip-path="url(#p9c0e9866ba)" style="fill: none; stroke: #000000; stroke-width: 1.1"/>
    <path d="M 135.774654 104.801262 
L 157.405638 104.801262 
" clip-path="url(#p9c0e9866ba)" style="fill: none; stroke: #000000; stroke-width: 1.1"/>
    <path d="M 189.852113 108.88227 
L 211.483096 108.88227 
" clip-path="url(#p9c0e9866ba)" style="fill: none; stroke: #000000; stroke-width: 1.1"/>
    <path d="M 243.929571 110.786327 
L 265.560554 110.786327 
" clip-path="url(#p9c0e9866ba)" style="fill: none; stroke: #000000; stroke-width: 1.1"/>
    <path d="M 298.007029 124.702434 
L 319.638013 124.702434 
" clip-path="url(#p9c0e9866ba)" style="fill: none; stroke: #000000; stroke-width: 1.1"/>
    <path d="M 352.084487 118.579225 
L 373.715471 118.579225 
" clip-path="url(#p9c0e9866ba)" style="fill: none; stroke: #000000; stroke-width: 1.1"/>
    <path d="M 406.161946 106.023874 
L 427.792929 106.023874 
" clip-path="url(#p9c0e9866ba)" style="fill: none; stroke: #000000; stroke-width: 1.1"/>
    <path d="M 460.239404 119.401331 
L 481.870387 119.401331 
" clip-path="url(#p9c0e9866ba)" style="fill: none; stroke: #000000; stroke-width: 1.1"/>
    <path d="M 514.316862 106.257635 
L 535.947846 106.257635 
" clip-path="url(#p9c0e9866ba)" style="fill: none; stroke: #000000; stroke-width: 1.1"/>
    <path d="M 568.394321 113.097549 
L 590.025304 113.097549 
" clip-path="url(#p9c0e9866ba)" style="fill: none; stroke: #000000; stroke-width: 1.1"/>
   </g>
   <g id="patch_3">
    <path d="M 44.38375 203.128481 
L 44.38375 16.558125 
" style="fill: none; stroke: #000000; stroke-width: 0.8; stroke-linejoin: miter; stroke-linecap: square"/>
   </g>
   <g id="patch_4">
    <path d="M 44.38375 203.128481 
L 627.33875 203.128481 
" style="fill: none; stroke: #000000; stroke-width: 0.8; stroke-linejoin: miter; stroke-linecap: square"/>
   </g>
   <g id="text_21">
    <!-- Between-cluster chamfer (per component pair) -->
    <g transform="translate(194.304375 10.558125) scale(0.12 -0.12)">
     <defs>
      <path id="DejaVuSans-42" d="M 1259 2228 
L 1259 519 
L 2272 519 
Q 2781 519 3026 730 
Q 3272 941 3272 1375 
Q 3272 1813 3026 2020 
Q 2781 2228 2272 2228 
L 1259 2228 
z
M 1259 4147 
L 1259 2741 
L 2194 2741 
Q 2656 2741 2882 2914 
Q 3109 3088 3109 3444 
Q 3109 3797 2882 3972 
Q 2656 4147 2194 4147 
L 1259 4147 
z
M 628 4666 
L 2241 4666 
Q 2963 4666 3353 4366 
Q 3744 4066 3744 3513 
Q 3744 3084 3544 2831 
Q 3344 2578 2956 2516 
Q 3422 2416 3680 2098 
Q 3938 1781 3938 1306 
Q 3938 681 3513 340 
Q 3088 0 2303 0 
L 628 0 
L 628 4666 
z
" transform="scale(0.015625)"/>
      <path id="DejaVuSans-77" d="M 269 3500 
L 844 3500 
L 1563 769 
L 2278 3500 
L 2956 3500 
L 3675 769 
L 4391 3500 
L 4966 3500 
L 4050 0 
L 3372 0 
L 2619 2869 
L 1863 0 
L 1184 0 
L 269 3500 
z
" transform="scale(0.015625)"/>
      <path id="DejaVuSans-2d" d="M 313 2009 
L 1997 2009 
L 1997 1497 
L 313 1497 
L 313 2009 
z
" transform="scale(0.015625)"/>
      <path id="DejaVuSans-75" d="M 544 1381 
L 544 3500 
L 1119 3500 
L 1119 1403 
Q 1119 906 1312 657 
Q 1506 409 1894 409 
Q 2359 409 2629 706 
Q 2900 1003 2900 1516 
L 2900 3500 
L 3475 3500 
L 3475 0 
L 2900 0 
L 2900 538 
Q 2691 219 2414 64 
Q 2138 -91 1772 -91 
Q 1169 -91 856 284 
Q 544 659 544 1381 
z
M 1991 3584 
L 1991 3584 
z
" transform="scale(0.015625)"/>
      <path id="DejaVuSans-70" d="M 1159 525 
L 1159 -1331 
L 581 -1331 
L 581 3500 
L 1159 3500 
L 1159 2969 
Q 1341 3281 1617 3432 
Q 1894 3584 2278 3584 
Q 2916 3584 3314 3078 
Q 3713 2572 3713 1747 
Q 3713 922 3314 415 
Q 2916 -91 2278 -91 
Q 1894 -91 1617 61 
Q 1341 213 1159 525 
z
M 3116 1747 
Q 3116 2381 2855 2742 
Q 2594 3103 2138 3103 
Q 1681 3103 1420 2742 
Q 1159 2381 1159 1747 
Q 1159 1113 1420 752 
Q 1681 391 2138 391 
Q 2594 391 2855 752 
Q 3116 1113 3116 1747 
z
" transform="scale(0.015625)"/>
     </defs>
     <use xlink:href="#DejaVuSans-42"/>
     <use xlink:href="#DejaVuSans-65" transform="translate(68.603516 0)"/>
     <use xlink:href="#DejaVuSans-74" transform="translate(130.126953 0)"/>
     <use xlink:href="#DejaVuSans-77" transform="translate(169.335938 0)"/>
     <use xlink:href="#DejaVuSans-65" transform="translate(251.123047 0)"/>
     <use xlink:href="#DejaVuSans-65" transform="translate(312.646484 0)"/>
     <use xlink:href="#DejaVuSans-6e" transform="translate(374.169922 0)"/>
     <use xlink:href="#DejaVuSans-2d" transform="translate(437.548828 0)"/>
     <use xlink:href="#DejaVuSans-63" transform="translate(473.632812 0)"/>
     <use xlink:href="#DejaVuSans-6c" transform="translate(528.613281 0)"/>
     <use xlink:href="#DejaVuSans-75" transform="translate(556.396484 0)"/>
     <use xlink:href="#DejaVuSans-73" transform="translate(619.775391 0)"/>
     <use xlink:href="#DejaVuSans-74" transform="translate(671.875 0)"/>
     <use xlink:href="#DejaVuSans-65" transform="translate(711.083984 0)"/>
     <use xlink:href="#DejaVuSans-72" transform="translate(772.607422 0)"/>
     <use xlink:href="#DejaVuSans-20" transform="translate(813.720703 0)"/>
     <use xlink:href="#DejaVuSans-63" transform="translate(845.507812 0)"/>
     <use xlink:href="#DejaVuSans-68" transform="translate(900.488281 0)"/>
     <use xlink:href="#DejaVuSans-61" transform="translate(963.867188 0)"/>
     <use xlink:href="#DejaVuSans-6d" transform="translate(1025.146484 0)"/>
     <use xlink:href="#DejaVuSans-66" transform="translate(1122.558594 0)"/>
     <use xlink:href="#DejaVuSans-65" transform="translate(1157.763672 0)"/>
     <use xlink:href="#DejaVuSans-72" transform="translate(1219.287109 0)"/>
     <use xlink:href="#DejaVuSans-20" transform="translate(1260.400391 0)"/>
     <use xlink:href="#DejaVuSans-28" transform="translate(1292.1875 0)"/>
     <use xlink:href="#DejaVuSans-70" transform="translate(1331.201172 0)"/>
     <use xlink:href="#DejaVuSans-65" transform="translate(1394.677734 0)"/>
     <use xlink:href="#DejaVuSans-72" transform="translate(1456.201172 0)"/>
     <use xlink:href="#DejaVuSans-20" transform="translate(1497.314453 0)"/>
     <use xlink:href="#DejaVuSans-63" transform="translate(1529.101562 0)"/>
     <use xlink:href="#DejaVuSans-6f" transform="translate(1584.082031 0)"/>
     <use xlink:href="#DejaVuSans-6d" transform="translate(1645.263672 0)"/>
     <use xlink:href="#DejaVuSans-70" transform="translate(1742.675781 0)"/>
     <use xlink:href="#DejaVuSans-6f" transform="translate(1806.152344 0)"/>
     <use xlink:href="#DejaVuSans-6e" transform="translate(1867.333984 0)"/>
     <use xlink:href="#DejaVuSans-65" transform="translate(1930.712891 0)"/>
     <use xlink:href="#DejaVuSans-6e" transform="translate(1992.236328 0)"/>
     <use xlink:href="#DejaVuSans-74" transform="translate(2055.615234 0)"/>
     <use xlink:href="#DejaVuSans-20" transform="translate(2094.824219 0)"/>
     <use xlink:href="#DejaVuSans-70" transform="translate(2126.611328 0)"/>
     <use xlink:href="#DejaVuSans-61" transform="translate(2190.087891 0)"/>
     <use xlink:href="#DejaVuSans-69" transform="translate(2251.367188 0)"/>
     <use xlink:href="#DejaVuSans-72" transform="translate(2279.150391 0)"/>
     <use xlink:href="#DejaVuSans-29" transform="translate(2320.263672 0)"/>
    </g>
   </g>
   <g id="LineCollection_2">
    <path d="M 92.512688 105.450825 
L 92.512688 103.640275 
" clip-path="url(#p9c0e9866ba)" style="fill: none; stroke: #000000"/>
    <path d="M 146.590146 104.451898 
L 146.590146 102.625719 
" clip-path="url(#p9c0e9866ba)" style="fill: none; stroke: #000000"/>
    <path d="M 200.667604 111.767048 
L 200.667604 109.965845 
" clip-path="url(#p9c0e9866ba)" style="fill: none; stroke: #000000"/>
    <path d="M 254.745063 113.731084 
L 254.745063 111.805629 
" clip-path="url(#p9c0e9866ba)" style="fill: none; stroke: #000000"/>
    <path d="M 308.822521 133.251051 
L 308.822521 129.075715 
" clip-path="url(#p9c0e9866ba)" style="fill: none; stroke: #000000"/>
    <path d="M 362.899979 118.692348 
L 362.899979 116.434815 
" clip-path="url(#p9c0e9866ba)" style="fill: none; stroke: #000000"/>
    <path d="M 416.977437 103.23478 
L 416.977437 101.117239 
" clip-path="url(#p9c0e9866ba)" style="fill: none; stroke: #000000"/>
    <path d="M 471.054896 118.356713 
L 471.054896 116.160635 
" clip-path="url(#p9c0e9866ba)" style="fill: none; stroke: #000000"/>
    <path d="M 525.132354 104.187424 
L 525.132354 101.970077 
" clip-path="url(#p9c0e9866ba)" style="fill: none; stroke: #000000"/>
    <path d="M 579.209812 113.842312 
L 579.209812 111.648718 
" clip-path="url(#p9c0e9866ba)" style="fill: none; stroke: #000000"/>
   </g>
   <g id="line2d_20">
    <defs>
     <path id="m1cabad1f49" d="M 3 0 
L -3 -0 
" style="stroke: #000000"/>
    </defs>
    <g clip-path="url(#p9c0e9866ba)">
     <use xlink:href="#m1cabad1f49" x="92.512688" y="105.450825" style="stroke: #000000"/>
     <use xlink:href="#m1cabad1f49" x="146.590146" y="104.451898" style="stroke: #000000"/>
     <use xlink:href="#m1cabad1f49" x="200.667604" y="111.767048" style="stroke: #000000"/>
     <use xlink:href="#m1cabad1f49" x="254.745063" y="113.731084" style="stroke: #000000"/>
     <use xlink:href="#m1cabad1f49" x="308.822521" y="133.251051" style="stroke: #000000"/>
     <use xlink:href="#m1cabad1f49" x="362.899979" y="118.692348" style="stroke: #000000"/>
     <use xlink:href="#m1cabad1f49" x="416.977437" y="103.23478" style="stroke: #000000"/>
     <use xlink:href="#m1cabad1f49" x="471.054896" y="118.356713" style="stroke: #000000"/>
     <use xlink:href="#m1cabad1f49" x="525.132354" y="104.187424" style="stroke: #000000"/>
     <use xlink:href="#m1cabad1f49" x="579.209812" y="113.842312" style="stroke: #000000"/>
    </g>
   </g>
   <g id="line2d_21">
    <g clip-path="url(#p9c0e9866ba)">
     <use xlink:href="#m1cabad1f49" x="92.512688" y="103.640275" style="stroke: #000000"/>
     <use xlink:href="#m1cabad1f49" x="146.590146" y="102.625719" style="stroke: #000000"/>
     <use xlink:href="#m1cabad1f49" x="200.667604" y="109.965845" style="stroke: #000000"/>
     <use xlink:href="#m1cabad1f49" x="254.745063" y="111.805629" style="stroke: #000000"/>
     <use xlink:href="#m1cabad1f49" x="308.822521" y="129.075715" style="stroke: #000000"/>
     <use xlink:href="#m1cabad1f49" x="362.899979" y="116.434815" style="stroke: #000000"/>
     <use xlink:href="#m1cabad1f49" x="416.977437" y="101.117239" style="stroke: #000000"/>
     <use xlink:href="#m1cabad1f49" x="471.054896" y="116.160635" style="stroke: #000000"/>
     <use xlink:href="#m1cabad1f49" x="525.132354" y="101.970077" style="stroke: #000000"/>
     <use xlink:href="#m1cabad1f49" x="579.209812" y="111.648718" style="stroke: #000000"/>
    </g>
   </g>
   <g id="line2d_22">
    <defs>
     <path id="m1e9b1f9277" d="M 0 1.75 
C 0.464105 1.75 0.909265 1.565609 1.237437 1.237437 
C 1.565609 0.909265 1.75 0.464105 1.75 0 
C 1.75 -0.464105 1.565609 -0.909265 1.237437 -1.237437 
C 0.909265 -1.565609 0.464105 -1.75 0 -1.75 
C -0.464105 -1.75 -0.909265 -1.565609 -1.237437 -1.237437 
C -1.565609 -0.909265 -1.75 -0.464105 -1.75 0 
C -1.75 0.464105 -1.565609 0.909265 -1.237437 1.237437 
C -0.909265 1.565609 -0.464105 1.75 0 1.75 
z
" style="stroke: #000000"/>
    </defs>
    <g clip-path="url(#p9c0e9866ba)">
     <use xlink:href="#m1e9b1f9277" x="92.512688" y="104.54555" style="stroke: #000000"/>
     <use xlink:href="#m1e9b1f9277" x="146.590146" y="103.538809" style="stroke: #000000"/>
     <use xlink:href="#m1e9b1f9277" x="200.667604" y="110.866446" style="stroke: #000000"/>
     <use xlink:href="#m1e9b1f9277" x="254.745063" y="112.768357" style="stroke: #000000"/>
     <use xlink:href="#m1e9b1f9277" x="308.822521" y="131.163383" style="stroke: #000000"/>
     <use xlink:href="#m1e9b1f9277" x="362.899979" y="117.563582" style="stroke: #000000"/>
     <use xlink:href="#m1e9b1f9277" x="416.977437" y="102.17601" style="stroke: #000000"/>
     <use xlink:href="#m1e9b1f9277" x="471.054896" y="117.258674" style="stroke: #000000"/>
     <use xlink:href="#m1e9b1f9277" x="525.132354" y="103.078751" style="stroke: #000000"/>
     <use xlink:href="#m1e9b1f9277" x="579.209812" y="112.745515" style="stroke: #000000"/>
    </g>
   </g>
  </g>
 </g>
 <defs>
  <clipPath id="p9c0e9866ba">
   <rect x="44.38375" y="16.558125" width="582.955" height="186.570356"/>
  </clipPath>
 </defs>
</svg>
