<?xml version="1.0" encoding="utf-8" standalone="no"?>
<!DOCTYPE svg PUBLIC "-//W3C//DTD SVG 1.1//EN"
  "http://www.w3.org/Graphics/SVG/1.1/DTD/svg11.dtd">
<svg xmlns:xlink="http://www.w3.org/1999/xlink" width="330.921442pt" height="230.18274pt" viewBox="0 0 330.921442 230.18274" xmlns="http://www.w3.org/2000/svg" version="1.1">
 <metadata>
  <rdf:RDF xmlns:dc="http://purl.org/dc/elements/1.1/" xmlns:cc="http://creativecommons.org/ns#" xmlns:rdf="http://www.w3.org/1999/02/22-rdf-syntax-ns#">
   <cc:Work>
    <dc:type rdf:resource="http://purl.org/dc/dcmitype/StillImage"/>
    <dc:date>2026-02-10T11:32:49.477908</dc:date>
    <dc:format>image/svg+xml</dc:format>
    <dc:creator>
     <cc:Agent>
      <dc:title>Matplotlib v3.10.8, https://matplotlib.org/</dc:title>
     </cc:Agent>
    </dc:creator>
   </cc:Work>
  </rdf:RDF>
 </metadata>
 <defs>
  <style type="text/css">*{stroke-linejoin: round; stroke-linecap: butt}</style>
 </defs>
 <g id="figure_1">
  <g id="patch_1">
   <path d="M 0 230.18274 
L 330.921442 230.18274 
L 330.921442 0 
L 0 0 
z
" style="fill: #ffffff"/>
  </g>
  <g id="axes_1">
   <g id="patch_2">
    <path d="M 48.70375 207.744615 
L 325.161442 207.744615 
L 325.161442 5.76 
L 48.70375 5.76 
z
" style="fill: #ffffff"/>
   </g>
   <g id="matplotlib.axis_1">
    <g id="xtick_1">
     <g id="line2d_1">
      <defs>
       <path id="m7b28598e04" d="M 0 0 
L 0 3.5 
" style="stroke: #000000; stroke-width: 0.8"/>
      </defs>
      <g>
       <use xlink:href="#m7b28598e04" x="116.335637" y="207.744615" style="stroke: #000000; stroke-width: 0.8"/>
      </g>
     </g>
     <g id="text_1">
      <text style="font-size: 10px; font-family: 'Helvetica', 'Arial', 'DejaVu Sans', sans-serif; text-anchor: middle" x="116.335637" y="222.343053" transform="rotate(-0 116.335637 222.343053)">Within clusters</text>
     </g>
    </g>
    <g id="xtick_2">
     <g id="line2d_2">
      <g>
       <use xlink:href="#m7b28598e04" x="257.529555" y="207.744615" style="stroke: #000000; stroke-width: 0.8"/>
      </g>
     </g>
     <g id="text_2">
      <text style="font-size: 10px; font-family: 'Helvetica', 'Arial', 'DejaVu Sans', sans-serif; text-anchor: middle" x="257.529555" y="222.343053" transform="rotate(-0 257.529555 222.343053)">Between clusters</text>
     </g>
    </g>
   </g>
   <g id="matplotlib.axis_2">
    <g id="ytick_1">
     <g id="line2d_3">
      <path d="M 48.70375 198.840528 
L 325.161442 198.840528 
" clip-path="url(#p8cc5fc90c9)" style="fill: none; stroke: #b0b0b0; stroke-opacity: 0.25; stroke-width: 0.4; stroke-linecap: square"/>
     </g>
     <g id="line2d_4">
      <defs>
       <path id="m28f5b2d510" d="M 0 0 
L -3.5 0 
" style="stroke: #000000; stroke-width: 0.8"/>
      </defs>
      <g>
       <use xlink:href="#m28f5b2d510" x="48.70375" y="198.840528" style="stroke: #000000; stroke-width: 0.8"/>
      </g>
     </g>
     <g id="text_3">
      <text style="font-size: 10px; font-family: 'Helvetica', 'Arial', 'DejaVu Sans', sans-serif; text-anchor: end" x="41.70375" y="202.639747" transform="rotate(-0 41.70375 202.639747)">0.00</text>
     </g>
    </g>
    <g id="ytick_2">
     <g id="line2d_5">
      <path d="M 48.70375 154.846097 
L 325.161442 154.846097 
" clip-path="url(#p8cc5fc90c9)" style="fill: none; stroke: #b0b0b0; stroke-opacity: 0.25; stroke-width: 0.4; stroke-linecap: square"/>
     </g>
     <g id="line2d_6">
      <g>
       <use xlink:href="#m28f5b2d510" x="48.70375" y="154.846097" style="stroke: #000000; stroke-width: 0.8"/>
      </g>
     </g>
     <g id="text_4">
      <text style="font-size: 10px; font-family: 'Helvetica', 'Arial', 'DejaVu Sans', sans-serif; text-anchor: end" x="41.70375" y="158.645316" transform="rotate(-0 41.70375 158.645316)">0.02</text>
     </g>
    </g>
    <g id="ytick_3">
     <g id="line2d_7">
      <path d="M 48.70375 110.851666 
L 325.161442 110.851666 
" clip-path="url(#p8cc5fc90c9)" style="fill: none; stroke: #b0b0b0; stroke-opacity: 0.25; stroke-width: 0.4; stroke-linecap: square"/>
     </g>
     <g id="line2d_8">
      <g>
       <use xlink:href="#m28f5b2d510" x="48.70375" y="110.851666" style="stroke: #000000; stroke-width: 0.8"/>
      </g>
     </g>
     <g id="text_5">
      <text style="font-size: 10px; font-family: 'Helvetica', 'Arial', 'DejaVu Sans', sans-serif; text-anchor: end" x="41.70375" y="114.650884" transform="rotate(-0 41.70375 114.650884)">0.04</text>
     </g>
    </g>
    <g id="ytick_4">
     <g id="line2d_9">
      <path d="M 48.70375 66.857234 
L 325.161442 66.857234 
" clip-path="url(#p8cc5fc90c9)" style="fill: none; stroke: #b0b0b0; stroke-opacity: 0.25; stroke-width: 0.4; stroke-linecap: square"/>
     </g>
     <g id="line2d_10">
      <g>
       <use xlink:href="#m28f5b2d510" x="48.70375" y="66.857234" style="stroke: #000000; stroke-width: 0.8"/>
      </g>
     </g>
     <g id="text_6">
      <text style="font-size: 10px; font-family: 'Helvetica', 'Arial', 'DejaVu Sans', sans-serif; text-anchor: end" x="41.70375" y="70.656453" transform="rotate(-0 41.70375 70.656453)">0.06</text>
     </g>
    </g>
    <g id="ytick_5">
     <g id="line2d_11">
      <path d="M 48.70375 22.862803 
L 325.161442 22.862803 
" clip-path="url(#p8cc5fc90c9)" style="fill: none; stroke: #b0b0b0; stroke-opacity: 0.25; stroke-width: 0.4; stroke-linecap: square"/>
     </g>
     <g id="line2d_12">
      <g>
       <use xlink:href="#m28f5b2d510" x="48.70375" y="22.862803" style="stroke: #000000; stroke-width: 0.8"/>
      </g>
     </g>
     <g id="text_7">
      <text style="font-size: 10px; font-family: 'Helvetica', 'Arial', 'DejaVu Sans', sans-serif; text-anchor: end" x="41.70375" y="26.662022" transform="rotate(-0 41.70375 26.662022)">0.08</text>
     </g>
    </g>
    <g id="text_8">
     <text style="font-size: 10px; font-family: 'Helvetica', 'Arial', 'DejaVu Sans', sans-serif; text-anchor: middle" x="13.358438" y="106.752308" transform="rotate(-90 13.358438 106.752308)">Chamfer distance</text>
    </g>
   </g>
   <g id="FillBetweenPolyCollection_1">
    <defs>
     <path id="m946bbf06bc" d="M 125.957334 -31.619244 
L 106.71394 -31.619244 
L 105.178277 -33.396778 
L 103.794719 -35.174311 
L 102.645885 -36.951845 
L 101.792149 -38.729379 
L 101.265155 -40.506913 
L 101.066087 -42.284447 
L 101.168409 -44.06198 
L 101.523904 -45.839514 
L 102.070486 -47.617048 
L 102.740284 -49.394582 
L 103.466894 -51.172115 
L 104.191139 -52.949649 
L 104.865142 -54.727183 
L 105.454779 -56.504717 
L 105.940723 -58.28225 
L 106.318241 -60.059784 
L 106.595816 -61.837318 
L 106.792641 -63.614852 
L 106.935036 -65.392386 
L 107.052053 -67.169919 
L 107.17076 -68.947453 
L 107.31184 -70.724987 
L 107.486118 -72.502521 
L 107.692386 -74.280054 
L 107.916416 -76.057588 
L 108.130643 -77.835122 
L 108.293807 -79.612656 
L 108.350025 -81.390189 
L 108.227403 -83.167723 
L 107.837176 -84.945257 
L 107.075125 -86.722791 
L 105.827383 -88.500325 
L 103.982239 -90.277858 
L 101.448175 -92.055392 
L 98.176272 -93.832926 
L 94.182896 -95.61046 
L 89.566945 -97.387993 
L 84.515853 -99.165527 
L 79.296277 -100.943061 
L 74.228853 -102.720595 
L 69.65051 -104.498129 
L 65.871354 -106.275662 
L 63.134711 -108.053196 
L 61.588096 -109.83073 
L 61.270009 -111.608264 
L 62.113594 -113.385797 
L 63.964675 -115.163331 
L 66.609366 -116.940865 
L 69.805644 -118.718399 
L 73.313689 -120.495932 
L 76.92091 -122.273466 
L 80.458994 -124.051 
L 83.81181 -125.828534 
L 86.914462 -127.606068 
L 89.745162 -129.383601 
L 92.312599 -131.161135 
L 94.641944 -132.938669 
L 96.762392 -134.716203 
L 98.698287 -136.493736 
L 100.464738 -138.27127 
L 102.067465 -140.048804 
L 103.505812 -141.826338 
L 104.77741 -143.603871 
L 105.882927 -145.381405 
L 106.829582 -147.158939 
L 107.632544 -148.936473 
L 108.313959 -150.714007 
L 108.899985 -152.49154 
L 109.4168 -154.269074 
L 109.886803 -156.046608 
L 110.326102 -157.824142 
L 110.743886 -159.601675 
L 111.143577 -161.379209 
L 111.525113 -163.156743 
L 111.887407 -164.934277 
L 112.230169 -166.711811 
L 112.554669 -168.489344 
L 112.86345 -170.266878 
L 113.159408 -172.044412 
L 113.444728 -173.821946 
L 113.720123 -175.599479 
L 113.984608 -177.377013 
L 114.235785 -179.154547 
L 114.470446 -180.932081 
L 114.685222 -182.709614 
L 114.877052 -184.487148 
L 115.043384 -186.264682 
L 115.182191 -188.042216 
L 115.291985 -189.81975 
L 115.372046 -191.597283 
L 115.422934 -193.374817 
L 115.447192 -195.152351 
L 115.449933 -196.929885 
L 115.438973 -198.707418 
L 115.424228 -200.484952 
L 115.416376 -202.262486 
L 115.425015 -204.04002 
L 115.456837 -205.817553 
L 115.514334 -207.595087 
L 117.15694 -207.595087 
L 117.15694 -207.595087 
L 117.214437 -205.817553 
L 117.246259 -204.04002 
L 117.254898 -202.262486 
L 117.247046 -200.484952 
L 117.232301 -198.707418 
L 117.22134 -196.929885 
L 117.224082 -195.152351 
L 117.24834 -193.374817 
L 117.299228 -191.597283 
L 117.379289 -189.81975 
L 117.489083 -188.042216 
L 117.62789 -186.264682 
L 117.794222 -184.487148 
L 117.986052 -182.709614 
L 118.200828 -180.932081 
L 118.435489 -179.154547 
L 118.686666 -177.377013 
L 118.951151 -175.599479 
L 119.226546 -173.821946 
L 119.511865 -172.044412 
L 119.807824 -170.266878 
L 120.116605 -168.489344 
L 120.441104 -166.711811 
L 120.783867 -164.934277 
L 121.146161 -163.156743 
L 121.527697 -161.379209 
L 121.927388 -159.601675 
L 122.345172 -157.824142 
L 122.784471 -156.046608 
L 123.254474 -154.269074 
L 123.771289 -152.49154 
L 124.357314 -150.714007 
L 125.03873 -148.936473 
L 125.841692 -147.158939 
L 126.788347 -145.381405 
L 127.893864 -143.603871 
L 129.165462 -141.826338 
L 130.603809 -140.048804 
L 132.206536 -138.27127 
L 133.972987 -136.493736 
L 135.908882 -134.716203 
L 138.029329 -132.938669 
L 140.358675 -131.161135 
L 142.926112 -129.383601 
L 145.756812 -127.606068 
L 148.859464 -125.828534 
L 152.21228 -124.051 
L 155.750364 -122.273466 
L 159.357585 -120.495932 
L 162.86563 -118.718399 
L 166.061907 -116.940865 
L 168.706598 -115.163331 
L 170.55768 -113.385797 
L 171.401265 -111.608264 
L 171.083178 -109.83073 
L 169.536563 -108.053196 
L 166.79992 -106.275662 
L 163.020764 -104.498129 
L 158.442421 -102.720595 
L 153.374996 -100.943061 
L 148.155421 -99.165527 
L 143.104329 -97.387993 
L 138.488378 -95.61046 
L 134.495002 -93.832926 
L 131.223099 -92.055392 
L 128.689035 -90.277858 
L 126.843891 -88.500325 
L 125.596149 -86.722791 
L 124.834098 -84.945257 
L 124.443871 -83.167723 
L 124.321249 -81.390189 
L 124.377467 -79.612656 
L 124.540631 -77.835122 
L 124.754858 -76.057588 
L 124.978888 -74.280054 
L 125.185156 -72.502521 
L 125.359434 -70.724987 
L 125.500513 -68.947453 
L 125.619221 -67.169919 
L 125.736238 -65.392386 
L 125.878632 -63.614852 
L 126.075458 -61.837318 
L 126.353033 -60.059784 
L 126.73055 -58.28225 
L 127.216495 -56.504717 
L 127.806132 -54.727183 
L 128.480135 -52.949649 
L 129.20438 -51.172115 
L 129.930989 -49.394582 
L 130.600788 -47.617048 
L 131.14737 -45.839514 
L 131.502865 -44.06198 
L 131.605187 -42.284447 
L 131.406119 -40.506913 
L 130.879125 -38.729379 
L 130.025389 -36.951845 
L 128.876555 -35.174311 
L 127.492997 -33.396778 
L 125.957334 -31.619244 
z
" style="stroke: #000000; stroke-opacity: 0.3; stroke-width: 0.9"/>
    </defs>
    <g clip-path="url(#p8cc5fc90c9)">
     <use xlink:href="#m946bbf06bc" x="0" y="230.18274" style="fill: #ffffff; fill-opacity: 0.3; stroke: #000000; stroke-opacity: 0.3; stroke-width: 0.9"/>
    </g>
   </g>
   <g id="FillBetweenPolyCollection_2">
    <defs>
     <path id="m308e8dfdb9" d="M 259.142306 -33.998907 
L 255.916805 -33.998907 
L 255.450232 -35.829642 
L 254.994422 -37.660376 
L 254.586338 -39.491111 
L 254.250085 -41.321845 
L 253.991426 -43.15258 
L 253.79816 -44.983314 
L 253.646215 -46.814049 
L 253.509473 -48.644783 
L 253.369762 -50.475518 
L 253.222686 -52.306252 
L 253.076395 -54.136987 
L 252.944215 -55.967721 
L 252.836117 -57.798456 
L 252.754651 -59.62919 
L 252.697172 -61.459925 
L 252.661085 -63.290659 
L 252.647113 -65.121394 
L 252.658548 -66.952128 
L 252.698445 -68.782863 
L 252.767649 -70.613597 
L 252.864063 -72.444331 
L 252.981517 -74.275066 
L 253.107568 -76.1058 
L 253.222299 -77.936535 
L 253.300915 -79.767269 
L 253.320145 -81.598004 
L 253.26429 -83.428738 
L 253.124641 -85.259473 
L 252.887496 -87.090207 
L 252.510657 -88.920942 
L 251.894863 -90.751676 
L 250.863921 -92.582411 
L 249.171898 -94.413145 
L 246.551972 -96.24388 
L 242.805001 -98.074614 
L 237.900732 -99.905349 
L 232.04556 -101.736083 
L 225.675182 -103.566818 
L 219.362668 -105.397552 
L 213.675407 -107.228287 
L 209.040161 -109.059021 
L 205.667876 -110.889756 
L 203.556844 -112.72049 
L 202.557672 -114.551225 
L 202.463927 -116.381959 
L 203.091308 -118.212694 
L 204.319758 -120.043428 
L 206.090922 -121.874163 
L 208.372487 -123.704897 
L 211.11401 -125.535632 
L 214.219159 -127.366366 
L 217.546789 -129.197101 
L 220.935996 -131.027835 
L 224.239123 -132.85857 
L 227.346879 -134.689304 
L 230.198012 -136.520039 
L 232.774653 -138.350773 
L 235.088518 -140.181508 
L 237.163507 -142.012242 
L 239.020239 -143.842976 
L 240.668236 -145.673711 
L 242.109055 -147.504445 
L 243.347394 -149.33518 
L 244.401236 -151.165914 
L 245.302446 -152.996649 
L 246.087193 -154.827383 
L 246.784522 -156.658118 
L 247.413073 -158.488852 
L 247.9883 -160.319587 
L 248.532531 -162.150321 
L 249.077101 -163.981056 
L 249.652756 -165.81179 
L 250.27509 -167.642525 
L 250.93644 -169.473259 
L 251.610516 -171.303994 
L 252.266143 -173.134728 
L 252.880473 -174.965463 
L 253.444018 -176.796197 
L 253.956876 -178.626932 
L 254.421223 -180.457666 
L 254.835965 -182.288401 
L 255.196259 -184.119135 
L 255.496907 -185.94987 
L 255.73683 -187.780604 
L 255.922114 -189.611339 
L 256.066321 -191.442073 
L 256.187798 -193.272808 
L 256.304611 -195.103542 
L 256.428748 -196.934277 
L 256.562093 -198.765011 
L 256.696448 -200.595746 
L 256.81801 -202.42648 
L 256.914191 -204.257215 
L 256.979306 -206.087949 
L 257.016668 -207.918684 
L 257.036881 -209.749418 
L 257.053857 -211.580153 
L 257.080284 -213.410887 
L 257.123825 -215.241622 
L 257.935286 -215.241622 
L 257.935286 -215.241622 
L 257.978827 -213.410887 
L 258.005254 -211.580153 
L 258.02223 -209.749418 
L 258.042443 -207.918684 
L 258.079804 -206.087949 
L 258.144919 -204.257215 
L 258.2411 -202.42648 
L 258.362663 -200.595746 
L 258.497018 -198.765011 
L 258.630363 -196.934277 
L 258.7545 -195.103542 
L 258.871313 -193.272808 
L 258.992789 -191.442073 
L 259.136997 -189.611339 
L 259.322281 -187.780604 
L 259.562203 -185.94987 
L 259.862852 -184.119135 
L 260.223146 -182.288401 
L 260.637888 -180.457666 
L 261.102235 -178.626932 
L 261.615093 -176.796197 
L 262.178638 -174.965463 
L 262.792968 -173.134728 
L 263.448595 -171.303994 
L 264.122671 -169.473259 
L 264.784021 -167.642525 
L 265.406355 -165.81179 
L 265.98201 -163.981056 
L 266.52658 -162.150321 
L 267.070811 -160.319587 
L 267.646038 -158.488852 
L 268.274588 -156.658118 
L 268.971918 -154.827383 
L 269.756665 -152.996649 
L 270.657875 -151.165914 
L 271.711717 -149.33518 
L 272.950056 -147.504445 
L 274.390874 -145.673711 
L 276.038872 -143.842976 
L 277.895604 -142.012242 
L 279.970593 -140.181508 
L 282.284458 -138.350773 
L 284.861098 -136.520039 
L 287.712232 -134.689304 
L 290.819988 -132.85857 
L 294.123115 -131.027835 
L 297.512322 -129.197101 
L 300.839952 -127.366366 
L 303.945101 -125.535632 
L 306.686624 -123.704897 
L 308.968189 -121.874163 
L 310.739353 -120.043428 
L 311.967803 -118.212694 
L 312.595184 -116.381959 
L 312.501438 -114.551225 
L 311.502267 -112.72049 
L 309.391235 -110.889756 
L 306.018949 -109.059021 
L 301.383704 -107.228287 
L 295.696442 -105.397552 
L 289.383929 -103.566818 
L 283.013551 -101.736083 
L 277.158378 -99.905349 
L 272.25411 -98.074614 
L 268.507138 -96.24388 
L 265.887212 -94.413145 
L 264.19519 -92.582411 
L 263.164247 -90.751676 
L 262.548454 -88.920942 
L 262.171615 -87.090207 
L 261.93447 -85.259473 
L 261.79482 -83.428738 
L 261.738966 -81.598004 
L 261.758195 -79.767269 
L 261.836812 -77.936535 
L 261.951543 -76.1058 
L 262.077594 -74.275066 
L 262.195048 -72.444331 
L 262.291462 -70.613597 
L 262.360665 -68.782863 
L 262.400563 -66.952128 
L 262.411998 -65.121394 
L 262.398026 -63.290659 
L 262.361938 -61.459925 
L 262.30446 -59.62919 
L 262.222994 -57.798456 
L 262.114896 -55.967721 
L 261.982716 -54.136987 
L 261.836424 -52.306252 
L 261.689349 -50.475518 
L 261.549638 -48.644783 
L 261.412896 -46.814049 
L 261.260951 -44.983314 
L 261.067685 -43.15258 
L 260.809026 -41.321845 
L 260.472773 -39.491111 
L 260.064688 -37.660376 
L 259.608878 -35.829642 
L 259.142306 -33.998907 
z
" style="stroke: #000000; stroke-opacity: 0.3; stroke-width: 0.9"/>
    </defs>
    <g clip-path="url(#p8cc5fc90c9)">
     <use xlink:href="#m308e8dfdb9" x="0" y="230.18274" style="fill: #ffffff; fill-opacity: 0.3; stroke: #000000; stroke-opacity: 0.3; stroke-width: 0.9"/>
    </g>
   </g>
   <g id="LineCollection_1">
    <path d="M 88.802823 120.884698 
L 143.868451 120.884698 
" clip-path="url(#p8cc5fc90c9)" style="fill: none; stroke: #000000; stroke-width: 1.2"/>
    <path d="M 229.996741 110.397318 
L 285.062369 110.397318 
" clip-path="url(#p8cc5fc90c9)" style="fill: none; stroke: #000000; stroke-width: 1.2"/>
   </g>
   <g id="patch_3">
    <path d="M 48.70375 207.744615 
L 48.70375 5.76 
" style="fill: none; stroke: #000000; stroke-width: 0.8; stroke-linejoin: miter; stroke-linecap: square"/>
   </g>
   <g id="patch_4">
    <path d="M 48.70375 207.744615 
L 325.161442 207.744615 
" style="fill: none; stroke: #000000; stroke-width: 0.8; stroke-linejoin: miter; stroke-linecap: square"/>
   </g>
  </g>
 </g>
 <defs>
  <clipPath id="p8cc5fc90c9">
   <rect x="48.70375" y="5.76" width="276.457692" height="201.984615"/>
  </clipPath>
 </defs>
</svg>
