<?xml version="1.0" encoding="utf-8" standalone="no"?>
<!DOCTYPE svg PUBLIC "-//W3C//DTD SVG 1.1//EN"
  "http://www.w3.org/Graphics/SVG/1.1/DTD/svg11.dtd">
<svg xmlns:xlink="http://www.w3.org/1999/xlink" width="412.77875pt" height="239.943571pt" viewBox="0 0 412.77875 239.943571" xmlns="http://www.w3.org/2000/svg" version="1.1">
 <metadata>
  <rdf:RDF xmlns:dc="http://purl.org/dc/elements/1.1/" xmlns:cc="http://creativecommons.org/ns#" xmlns:rdf="http://www.w3.org/1999/02/22-rdf-syntax-ns#">
   <cc:Work>
    <dc:type rdf:resource="http://purl.org/dc/dcmitype/StillImage"/>
    <dc:date>2026-02-10T11:19:06.094018</dc:date>
    <dc:format>image/svg+xml</dc:format>
    <dc:creator>
     <cc:Agent>
      <dc:title>Matplotlib v3.10.8, https://matplotlib.org/</dc:title>
     </cc:Agent>
    </dc:creator>
   </cc:Work>
  </rdf:RDF>
 </metadata>
 <defs>
  <style type="text/css">*{stroke-linejoin: round; stroke-linecap: butt}</style>
 </defs>
 <g id="figure_1">
  <g id="patch_1">
   <path d="M 0 239.943571 
L 412.77875 239.943571 
L 412.77875 0 
L 0 0 
z
" style="fill: #ffffff"/>
  </g>
  <g id="axes_1">
   <g id="patch_2">
    <path d="M 44.38375 205.642245 
L 411.33875 205.642245 
L 411.33875 16.558125 
L 44.38375 16.558125 
z
" style="fill: #ffffff"/>
   </g>
   <g id="FillBetweenPolyCollection_1">
    <defs>
     <path id="mf602836344" d="M 90.780026 -49.306202 
L 86.946262 -49.306202 
L 86.605512 -50.499004 
L 86.237442 -51.691806 
L 85.846511 -52.884608 
L 85.438692 -54.07741 
L 85.021501 -55.270212 
L 84.603908 -56.463014 
L 84.196086 -57.655817 
L 83.808978 -58.848619 
L 83.453661 -60.041421 
L 83.140566 -61.234223 
L 82.878605 -62.427025 
L 82.674334 -63.619827 
L 82.531272 -64.812629 
L 82.449489 -66.005432 
L 82.425564 -67.198234 
L 82.452936 -68.391036 
L 82.522621 -69.583838 
L 82.624187 -70.77664 
L 82.746848 -71.969442 
L 82.8805 -73.162244 
L 83.016548 -74.355047 
L 83.148417 -75.547849 
L 83.271696 -76.740651 
L 83.383949 -77.933453 
L 83.484269 -79.126255 
L 83.572721 -80.319057 
L 83.649783 -81.511859 
L 83.715909 -82.704662 
L 83.771257 -83.897464 
L 83.815612 -85.090266 
L 83.848417 -86.283068 
L 83.86885 -87.47587 
L 83.87583 -88.668672 
L 83.867859 -89.861474 
L 83.842641 -91.054277 
L 83.796476 -92.247079 
L 83.72348 -93.439881 
L 83.614753 -94.632683 
L 83.457652 -95.825485 
L 83.23537 -97.018287 
L 82.927035 -98.211089 
L 82.50847 -99.403892 
L 81.953757 -100.596694 
L 81.237573 -101.789496 
L 80.338188 -102.982298 
L 79.240839 -104.1751 
L 77.941082 -105.367902 
L 76.44762 -106.560704 
L 74.784128 -107.753507 
L 72.989628 -108.946309 
L 71.11717 -110.139111 
L 69.230822 -111.331913 
L 67.401206 -112.524715 
L 65.700102 -113.717517 
L 64.19479 -114.910319 
L 62.942859 -116.103122 
L 61.988129 -117.295924 
L 61.358161 -118.488726 
L 61.063523 -119.681528 
L 61.098753 -120.87433 
L 61.444679 -122.067132 
L 62.071602 -123.259934 
L 62.942819 -124.452737 
L 64.017974 -125.645539 
L 65.255877 -126.838341 
L 66.616574 -128.031143 
L 68.062641 -129.223945 
L 69.5598 -130.416747 
L 71.077051 -131.609549 
L 72.586559 -132.802352 
L 74.063502 -133.995154 
L 75.486026 -135.187956 
L 76.835398 -136.380758 
L 78.096314 -137.57356 
L 79.25731 -138.766362 
L 80.31112 -139.959164 
L 81.254882 -141.151967 
L 82.090062 -142.344769 
L 82.822058 -143.537571 
L 83.459486 -144.730373 
L 84.013216 -145.923175 
L 84.495264 -147.115977 
L 84.917694 -148.308779 
L 85.291638 -149.501582 
L 85.626573 -150.694384 
L 85.929903 -151.887186 
L 86.206871 -153.079988 
L 86.460777 -154.27279 
L 86.693409 -155.465592 
L 86.905605 -156.658394 
L 87.09783 -157.851197 
L 87.270663 -159.043999 
L 87.425138 -160.236801 
L 87.562888 -161.429603 
L 87.6861 -162.622405 
L 87.797333 -163.815207 
L 87.899227 -165.008009 
L 87.994206 -166.200812 
L 88.084212 -167.393614 
L 89.642076 -167.393614 
L 89.642076 -167.393614 
L 89.732082 -166.200812 
L 89.82706 -165.008009 
L 89.928955 -163.815207 
L 90.040188 -162.622405 
L 90.1634 -161.429603 
L 90.301149 -160.236801 
L 90.455625 -159.043999 
L 90.628458 -157.851197 
L 90.820683 -156.658394 
L 91.032879 -155.465592 
L 91.265511 -154.27279 
L 91.519417 -153.079988 
L 91.796385 -151.887186 
L 92.099715 -150.694384 
L 92.43465 -149.501582 
L 92.808594 -148.308779 
L 93.231023 -147.115977 
L 93.713072 -145.923175 
L 94.266802 -144.730373 
L 94.90423 -143.537571 
L 95.636226 -142.344769 
L 96.471405 -141.151967 
L 97.415168 -139.959164 
L 98.468978 -138.766362 
L 99.629974 -137.57356 
L 100.89089 -136.380758 
L 102.240262 -135.187956 
L 103.662786 -133.995154 
L 105.139728 -132.802352 
L 106.649237 -131.609549 
L 108.166488 -130.416747 
L 109.663647 -129.223945 
L 111.109714 -128.031143 
L 112.470411 -126.838341 
L 113.708314 -125.645539 
L 114.783469 -124.452737 
L 115.654686 -123.259934 
L 116.281609 -122.067132 
L 116.627535 -120.87433 
L 116.662765 -119.681528 
L 116.368127 -118.488726 
L 115.738159 -117.295924 
L 114.783429 -116.103122 
L 113.531497 -114.910319 
L 112.026186 -113.717517 
L 110.325082 -112.524715 
L 108.495466 -111.331913 
L 106.609118 -110.139111 
L 104.73666 -108.946309 
L 102.942159 -107.753507 
L 101.278668 -106.560704 
L 99.785206 -105.367902 
L 98.485449 -104.1751 
L 97.3881 -102.982298 
L 96.488715 -101.789496 
L 95.772531 -100.596694 
L 95.217818 -99.403892 
L 94.799253 -98.211089 
L 94.490917 -97.018287 
L 94.268636 -95.825485 
L 94.111535 -94.632683 
L 94.002808 -93.439881 
L 93.929812 -92.247079 
L 93.883647 -91.054277 
L 93.858429 -89.861474 
L 93.850458 -88.668672 
L 93.857438 -87.47587 
L 93.877871 -86.283068 
L 93.910675 -85.090266 
L 93.95503 -83.897464 
L 94.010379 -82.704662 
L 94.076504 -81.511859 
L 94.153567 -80.319057 
L 94.242019 -79.126255 
L 94.342339 -77.933453 
L 94.454592 -76.740651 
L 94.577871 -75.547849 
L 94.70974 -74.355047 
L 94.845788 -73.162244 
L 94.97944 -71.969442 
L 95.102101 -70.77664 
L 95.203667 -69.583838 
L 95.273352 -68.391036 
L 95.300724 -67.198234 
L 95.276799 -66.005432 
L 95.195016 -64.812629 
L 95.051954 -63.619827 
L 94.847683 -62.427025 
L 94.585722 -61.234223 
L 94.272626 -60.041421 
L 93.91731 -58.848619 
L 93.530201 -57.655817 
L 93.12238 -56.463014 
L 92.704786 -55.270212 
L 92.287596 -54.07741 
L 91.879777 -52.884608 
L 91.488846 -51.691806 
L 91.120776 -50.499004 
L 90.780026 -49.306202 
z
" style="stroke: #000000; stroke-opacity: 0.25; stroke-width: 0.7"/>
    </defs>
    <g clip-path="url(#p2bd59d18f4)">
     <use xlink:href="#mf602836344" x="0" y="239.943571" style="fill: #1f77b4; fill-opacity: 0.25; stroke: #000000; stroke-opacity: 0.25; stroke-width: 0.7"/>
    </g>
   </g>
   <g id="FillBetweenPolyCollection_2">
    <defs>
     <path id="mb0162d81ae" d="M 178.695089 -42.896058 
L 138.029305 -42.896058 
L 136.631167 -44.585037 
L 135.380005 -46.274015 
L 134.30497 -47.962993 
L 133.429853 -49.651972 
L 132.772063 -51.34095 
L 132.341972 -53.029929 
L 132.142648 -54.718907 
L 132.169988 -56.407885 
L 132.413217 -58.096864 
L 132.855681 -59.785842 
L 133.475871 -61.47482 
L 134.248581 -63.163799 
L 135.146104 -64.852777 
L 136.139388 -66.541755 
L 137.199067 -68.230734 
L 138.296328 -69.919712 
L 139.403562 -71.60869 
L 140.494813 -73.297669 
L 141.546022 -74.986647 
L 142.535101 -76.675626 
L 143.441893 -78.364604 
L 144.248065 -80.053582 
L 144.936989 -81.742561 
L 145.493678 -83.431539 
L 145.904803 -85.120517 
L 146.158846 -86.809496 
L 146.246367 -88.498474 
L 146.160421 -90.187452 
L 145.897063 -91.876431 
L 145.455921 -93.565409 
L 144.840784 -95.254387 
L 144.060116 -96.943366 
L 143.127463 -98.632344 
L 142.061655 -100.321322 
L 140.886771 -102.010301 
L 139.631814 -103.699279 
L 138.330071 -105.388258 
L 137.018184 -107.077236 
L 135.73493 -108.766214 
L 134.519791 -110.455193 
L 133.411375 -112.144171 
L 132.445782 -113.833149 
L 131.65503 -115.522128 
L 131.065623 -117.211106 
L 130.697378 -118.900084 
L 130.562576 -120.589063 
L 130.665505 -122.278041 
L 131.002413 -123.967019 
L 131.56188 -125.655998 
L 132.325569 -127.344976 
L 133.2693 -129.033955 
L 134.364379 -130.722933 
L 135.579067 -132.411911 
L 136.880111 -134.10089 
L 138.234235 -135.789868 
L 139.609505 -137.478846 
L 140.976492 -139.167825 
L 142.309203 -140.856803 
L 143.585734 -142.545781 
L 144.788643 -144.23476 
L 145.905066 -145.923738 
L 146.92659 -147.612716 
L 147.848934 -149.301695 
L 148.671478 -150.990673 
L 149.396688 -152.679652 
L 150.029488 -154.36863 
L 150.576612 -156.057608 
L 151.045976 -157.746587 
L 151.446094 -159.435565 
L 151.785558 -161.124543 
L 152.072596 -162.813522 
L 152.314717 -164.5025 
L 152.518447 -166.191478 
L 152.689163 -167.880457 
L 152.831019 -169.569435 
L 152.946977 -171.258413 
L 153.038922 -172.947392 
L 153.107873 -174.63637 
L 153.154257 -176.325348 
L 153.178242 -178.014327 
L 153.180097 -179.703305 
L 153.16055 -181.392284 
L 153.121111 -183.081262 
L 153.064322 -184.77024 
L 152.99392 -186.459219 
L 152.914864 -188.148197 
L 152.833252 -189.837175 
L 152.756091 -191.526154 
L 152.69096 -193.215132 
L 152.645593 -194.90411 
L 152.627396 -196.593089 
L 152.642972 -198.282067 
L 152.69767 -199.971045 
L 152.795217 -201.660024 
L 152.937459 -203.349002 
L 153.124225 -205.037981 
L 153.353344 -206.726959 
L 153.620785 -208.415937 
L 153.920925 -210.104916 
L 162.803469 -210.104916 
L 162.803469 -210.104916 
L 163.103609 -208.415937 
L 163.37105 -206.726959 
L 163.600169 -205.037981 
L 163.786935 -203.349002 
L 163.929177 -201.660024 
L 164.026724 -199.971045 
L 164.081422 -198.282067 
L 164.096998 -196.593089 
L 164.078801 -194.90411 
L 164.033434 -193.215132 
L 163.968303 -191.526154 
L 163.891142 -189.837175 
L 163.80953 -188.148197 
L 163.730474 -186.459219 
L 163.660072 -184.77024 
L 163.603283 -183.081262 
L 163.563844 -181.392284 
L 163.544297 -179.703305 
L 163.546152 -178.014327 
L 163.570137 -176.325348 
L 163.616521 -174.63637 
L 163.685472 -172.947392 
L 163.777417 -171.258413 
L 163.893375 -169.569435 
L 164.035231 -167.880457 
L 164.205947 -166.191478 
L 164.409677 -164.5025 
L 164.651798 -162.813522 
L 164.938836 -161.124543 
L 165.2783 -159.435565 
L 165.678418 -157.746587 
L 166.147782 -156.057608 
L 166.694906 -154.36863 
L 167.327706 -152.679652 
L 168.052916 -150.990673 
L 168.87546 -149.301695 
L 169.797804 -147.612716 
L 170.819328 -145.923738 
L 171.935751 -144.23476 
L 173.13866 -142.545781 
L 174.415191 -140.856803 
L 175.747902 -139.167825 
L 177.114889 -137.478846 
L 178.490159 -135.789868 
L 179.844283 -134.10089 
L 181.145327 -132.411911 
L 182.360015 -130.722933 
L 183.455094 -129.033955 
L 184.398825 -127.344976 
L 185.162514 -125.655998 
L 185.721981 -123.967019 
L 186.058889 -122.278041 
L 186.161818 -120.589063 
L 186.027016 -118.900084 
L 185.658771 -117.211106 
L 185.069364 -115.522128 
L 184.278611 -113.833149 
L 183.313019 -112.144171 
L 182.204602 -110.455193 
L 180.989464 -108.766214 
L 179.70621 -107.077236 
L 178.394323 -105.388258 
L 177.09258 -103.699279 
L 175.837623 -102.010301 
L 174.662739 -100.321322 
L 173.596931 -98.632344 
L 172.664278 -96.943366 
L 171.88361 -95.254387 
L 171.268472 -93.565409 
L 170.827331 -91.876431 
L 170.563973 -90.187452 
L 170.478027 -88.498474 
L 170.565548 -86.809496 
L 170.819591 -85.120517 
L 171.230716 -83.431539 
L 171.787405 -81.742561 
L 172.476329 -80.053582 
L 173.282501 -78.364604 
L 174.189293 -76.675626 
L 175.178372 -74.986647 
L 176.229581 -73.297669 
L 177.320832 -71.60869 
L 178.428066 -69.919712 
L 179.525327 -68.230734 
L 180.585006 -66.541755 
L 181.57829 -64.852777 
L 182.475813 -63.163799 
L 183.248523 -61.47482 
L 183.868713 -59.785842 
L 184.311177 -58.096864 
L 184.554406 -56.407885 
L 184.581746 -54.718907 
L 184.382422 -53.029929 
L 183.952331 -51.34095 
L 183.294541 -49.651972 
L 182.419424 -47.962993 
L 181.344388 -46.274015 
L 180.093227 -44.585037 
L 178.695089 -42.896058 
z
" style="stroke: #000000; stroke-opacity: 0.25; stroke-width: 0.7"/>
    </defs>
    <g clip-path="url(#p2bd59d18f4)">
     <use xlink:href="#mb0162d81ae" x="0" y="239.943571" style="fill: #1f77b4; fill-opacity: 0.25; stroke: #000000; stroke-opacity: 0.25; stroke-width: 0.7"/>
    </g>
   </g>
   <g id="FillBetweenPolyCollection_3">
    <defs>
     <path id="mf752ac591f" d="M 251.254741 -43.335431 
L 204.467759 -43.335431 
L 203.055079 -45.067302 
L 201.876867 -46.799174 
L 200.969213 -48.531045 
L 200.358834 -50.262917 
L 200.061629 -51.994788 
L 200.081904 -53.72666 
L 200.412308 -55.458531 
L 201.034468 -57.190403 
L 201.920242 -58.922274 
L 203.033477 -60.654146 
L 204.332096 -62.386018 
L 205.77036 -64.117889 
L 207.301097 -65.849761 
L 208.877766 -67.581632 
L 210.456215 -69.313504 
L 211.996038 -71.045375 
L 213.461501 -72.777247 
L 214.822015 -74.509118 
L 216.052219 -76.24099 
L 217.131724 -77.972861 
L 218.044626 -79.704733 
L 218.778889 -81.436604 
L 219.325714 -83.168476 
L 219.678991 -84.900348 
L 219.834905 -86.632219 
L 219.791763 -88.364091 
L 219.550062 -90.095962 
L 219.112767 -91.827834 
L 218.485769 -93.559705 
L 217.678434 -95.291577 
L 216.704151 -97.023448 
L 215.580766 -98.75532 
L 214.330809 -100.487191 
L 212.981409 -102.219063 
L 211.563868 -103.950934 
L 210.112853 -105.682806 
L 208.665243 -107.414678 
L 207.258697 -109.146549 
L 205.930048 -110.878421 
L 204.713651 -112.610292 
L 203.639818 -114.342164 
L 202.733487 -116.074035 
L 202.013214 -117.805907 
L 201.490588 -119.537778 
L 201.170092 -121.26965 
L 201.049397 -123.001521 
L 201.120061 -124.733393 
L 201.368525 -126.465265 
L 201.777316 -128.197136 
L 202.326355 -129.929008 
L 202.994231 -131.660879 
L 203.759378 -133.392751 
L 204.601063 -135.124622 
L 205.500139 -136.856494 
L 206.43955 -138.588365 
L 207.404592 -140.320237 
L 208.382943 -142.052108 
L 209.364516 -143.78398 
L 210.341178 -145.515851 
L 211.306382 -147.247723 
L 212.254769 -148.979595 
L 213.181779 -150.711466 
L 214.083309 -152.443338 
L 214.955444 -154.175209 
L 215.794275 -155.907081 
L 216.595809 -157.638952 
L 217.355976 -159.370824 
L 218.070711 -161.102695 
L 218.736109 -162.834567 
L 219.348619 -164.566438 
L 219.905277 -166.29831 
L 220.403936 -168.030181 
L 220.843484 -169.762053 
L 221.224029 -171.493925 
L 221.547027 -173.225796 
L 221.815348 -174.957668 
L 222.033258 -176.689539 
L 222.206321 -178.421411 
L 222.341216 -180.153282 
L 222.445477 -181.885154 
L 222.527167 -183.617025 
L 222.594514 -185.348897 
L 222.655529 -187.080768 
L 222.717636 -188.81264 
L 222.787341 -190.544512 
L 222.869979 -192.276383 
L 222.969531 -194.008255 
L 223.088561 -195.740126 
L 223.228231 -197.471998 
L 223.388424 -199.203869 
L 223.567927 -200.935741 
L 223.764671 -202.667612 
L 223.975982 -204.399484 
L 224.198836 -206.131355 
L 224.430078 -207.863227 
L 224.666596 -209.595098 
L 224.905452 -211.32697 
L 225.143953 -213.058842 
L 225.379678 -214.790713 
L 230.342822 -214.790713 
L 230.342822 -214.790713 
L 230.578547 -213.058842 
L 230.817048 -211.32697 
L 231.055904 -209.595098 
L 231.292422 -207.863227 
L 231.523664 -206.131355 
L 231.746518 -204.399484 
L 231.957829 -202.667612 
L 232.154573 -200.935741 
L 232.334076 -199.203869 
L 232.494269 -197.471998 
L 232.633939 -195.740126 
L 232.752969 -194.008255 
L 232.852521 -192.276383 
L 232.935159 -190.544512 
L 233.004864 -188.81264 
L 233.066971 -187.080768 
L 233.127986 -185.348897 
L 233.195333 -183.617025 
L 233.277023 -181.885154 
L 233.381284 -180.153282 
L 233.516179 -178.421411 
L 233.689242 -176.689539 
L 233.907152 -174.957668 
L 234.175473 -173.225796 
L 234.498471 -171.493925 
L 234.879016 -169.762053 
L 235.318564 -168.030181 
L 235.817223 -166.29831 
L 236.373881 -164.566438 
L 236.986391 -162.834567 
L 237.651789 -161.102695 
L 238.366524 -159.370824 
L 239.126691 -157.638952 
L 239.928225 -155.907081 
L 240.767056 -154.175209 
L 241.639191 -152.443338 
L 242.540721 -150.711466 
L 243.467731 -148.979595 
L 244.416118 -147.247723 
L 245.381322 -145.515851 
L 246.357984 -143.78398 
L 247.339557 -142.052108 
L 248.317908 -140.320237 
L 249.28295 -138.588365 
L 250.222361 -136.856494 
L 251.121437 -135.124622 
L 251.963122 -133.392751 
L 252.728269 -131.660879 
L 253.396145 -129.929008 
L 253.945184 -128.197136 
L 254.353975 -126.465265 
L 254.602439 -124.733393 
L 254.673103 -123.001521 
L 254.552408 -121.26965 
L 254.231912 -119.537778 
L 253.709286 -117.805907 
L 252.989013 -116.074035 
L 252.082682 -114.342164 
L 251.008849 -112.610292 
L 249.792452 -110.878421 
L 248.463803 -109.146549 
L 247.057257 -107.414678 
L 245.609647 -105.682806 
L 244.158632 -103.950934 
L 242.741091 -102.219063 
L 241.391691 -100.487191 
L 240.141734 -98.75532 
L 239.018349 -97.023448 
L 238.044066 -95.291577 
L 237.236731 -93.559705 
L 236.609733 -91.827834 
L 236.172438 -90.095962 
L 235.930737 -88.364091 
L 235.887595 -86.632219 
L 236.043509 -84.900348 
L 236.396786 -83.168476 
L 236.943611 -81.436604 
L 237.677874 -79.704733 
L 238.590776 -77.972861 
L 239.670281 -76.24099 
L 240.900485 -74.509118 
L 242.260999 -72.777247 
L 243.726462 -71.045375 
L 245.266285 -69.313504 
L 246.844734 -67.581632 
L 248.421403 -65.849761 
L 249.95214 -64.117889 
L 251.390404 -62.386018 
L 252.689023 -60.654146 
L 253.802258 -58.922274 
L 254.688032 -57.190403 
L 255.310192 -55.458531 
L 255.640596 -53.72666 
L 255.660871 -51.994788 
L 255.363666 -50.262917 
L 254.753287 -48.531045 
L 253.845633 -46.799174 
L 252.667421 -45.067302 
L 251.254741 -43.335431 
z
" style="stroke: #000000; stroke-opacity: 0.25; stroke-width: 0.7"/>
    </defs>
    <g clip-path="url(#p2bd59d18f4)">
     <use xlink:href="#mf752ac591f" x="0" y="239.943571" style="fill: #1f77b4; fill-opacity: 0.25; stroke: #000000; stroke-opacity: 0.25; stroke-width: 0.7"/>
    </g>
   </g>
   <g id="FillBetweenPolyCollection_4">
    <defs>
     <path id="m9b553e0bb1" d="M 299.678839 -47.554654 
L 295.041767 -47.554654 
L 294.726384 -48.749544 
L 294.409806 -49.944433 
L 294.099611 -51.139323 
L 293.803491 -52.334212 
L 293.528851 -53.529102 
L 293.282392 -54.723991 
L 293.069706 -55.918881 
L 292.894913 -57.11377 
L 292.760361 -58.30866 
L 292.666435 -59.503549 
L 292.611499 -60.698439 
L 292.591982 -61.893328 
L 292.602627 -63.088218 
L 292.636878 -64.283107 
L 292.687376 -65.477997 
L 292.746514 -66.672886 
L 292.806997 -67.867776 
L 292.862365 -69.062665 
L 292.907404 -70.257555 
L 292.938453 -71.452444 
L 292.953551 -72.647334 
L 292.95246 -73.842223 
L 292.936548 -75.037113 
L 292.908571 -76.232002 
L 292.872354 -77.426892 
L 292.83241 -78.621781 
L 292.793504 -79.81667 
L 292.760171 -81.01156 
L 292.736234 -82.206449 
L 292.724302 -83.401339 
L 292.725315 -84.596228 
L 292.738136 -85.791118 
L 292.75923 -86.986007 
L 292.782448 -88.180897 
L 292.798938 -89.375786 
L 292.797181 -90.570676 
L 292.763158 -91.765565 
L 292.680645 -92.960455 
L 292.531634 -94.155344 
L 292.296903 -95.350234 
L 291.956752 -96.545123 
L 291.491928 -97.740013 
L 290.884779 -98.934902 
L 290.120611 -100.129792 
L 289.189221 -101.324681 
L 288.086489 -102.519571 
L 286.815872 -103.71446 
L 285.389587 -104.90935 
L 283.829269 -106.104239 
L 282.165892 -107.299129 
L 280.438838 -108.494018 
L 278.694111 -109.688908 
L 276.981806 -110.883797 
L 275.353106 -112.078687 
L 273.857131 -113.273576 
L 272.538021 -114.468466 
L 271.432571 -115.663355 
L 270.568648 -116.858245 
L 269.964459 -118.053134 
L 269.6286 -119.248024 
L 269.560682 -120.442913 
L 269.752306 -121.637803 
L 270.188137 -122.832692 
L 270.846919 -124.027582 
L 271.70238 -125.222471 
L 272.724089 -126.417361 
L 273.878367 -127.61225 
L 275.129414 -128.80714 
L 276.440718 -130.002029 
L 277.77675 -131.196918 
L 279.104823 -132.391808 
L 280.396899 -133.586697 
L 281.631097 -134.781587 
L 282.792633 -135.976476 
L 283.87405 -137.171366 
L 284.874656 -138.366255 
L 285.799266 -139.561145 
L 286.656436 -140.756034 
L 287.456454 -141.950924 
L 288.209404 -143.145813 
L 288.923544 -144.340703 
L 289.604213 -145.535592 
L 290.253354 -146.730482 
L 290.869658 -147.925371 
L 291.449224 -149.120261 
L 291.986601 -150.31515 
L 292.476017 -151.51004 
L 292.91261 -152.704929 
L 293.29349 -153.899819 
L 293.618499 -155.094708 
L 293.890586 -156.289598 
L 294.115747 -157.484487 
L 294.30256 -158.679377 
L 294.46138 -159.874266 
L 294.603299 -161.069156 
L 294.739022 -162.264045 
L 294.877798 -163.458935 
L 295.026566 -164.653824 
L 295.189413 -165.848714 
L 299.531193 -165.848714 
L 299.531193 -165.848714 
L 299.69404 -164.653824 
L 299.842809 -163.458935 
L 299.981584 -162.264045 
L 300.117307 -161.069156 
L 300.259227 -159.874266 
L 300.418046 -158.679377 
L 300.604859 -157.484487 
L 300.83002 -156.289598 
L 301.102107 -155.094708 
L 301.427116 -153.899819 
L 301.807996 -152.704929 
L 302.244589 -151.51004 
L 302.734005 -150.31515 
L 303.271382 -149.120261 
L 303.850948 -147.925371 
L 304.467252 -146.730482 
L 305.116394 -145.535592 
L 305.797062 -144.340703 
L 306.511202 -143.145813 
L 307.264152 -141.950924 
L 308.06417 -140.756034 
L 308.92134 -139.561145 
L 309.84595 -138.366255 
L 310.846556 -137.171366 
L 311.927973 -135.976476 
L 313.089509 -134.781587 
L 314.323707 -133.586697 
L 315.615783 -132.391808 
L 316.943856 -131.196918 
L 318.279888 -130.002029 
L 319.591192 -128.80714 
L 320.842239 -127.61225 
L 321.996517 -126.417361 
L 323.018226 -125.222471 
L 323.873687 -124.027582 
L 324.532469 -122.832692 
L 324.9683 -121.637803 
L 325.159924 -120.442913 
L 325.092006 -119.248024 
L 324.756147 -118.053134 
L 324.151958 -116.858245 
L 323.288035 -115.663355 
L 322.182585 -114.468466 
L 320.863475 -113.273576 
L 319.3675 -112.078687 
L 317.7388 -110.883797 
L 316.026495 -109.688908 
L 314.281768 -108.494018 
L 312.554714 -107.299129 
L 310.891337 -106.104239 
L 309.331019 -104.90935 
L 307.904734 -103.71446 
L 306.634117 -102.519571 
L 305.531385 -101.324681 
L 304.599995 -100.129792 
L 303.835827 -98.934902 
L 303.228678 -97.740013 
L 302.763854 -96.545123 
L 302.423703 -95.350234 
L 302.188972 -94.155344 
L 302.039961 -92.960455 
L 301.957448 -91.765565 
L 301.923425 -90.570676 
L 301.921668 -89.375786 
L 301.938158 -88.180897 
L 301.961376 -86.986007 
L 301.98247 -85.791118 
L 301.995291 -84.596228 
L 301.996304 -83.401339 
L 301.984372 -82.206449 
L 301.960435 -81.01156 
L 301.927103 -79.81667 
L 301.888196 -78.621781 
L 301.848252 -77.426892 
L 301.812035 -76.232002 
L 301.784058 -75.037113 
L 301.768147 -73.842223 
L 301.767055 -72.647334 
L 301.782153 -71.452444 
L 301.813202 -70.257555 
L 301.858241 -69.062665 
L 301.913609 -67.867776 
L 301.974092 -66.672886 
L 302.03323 -65.477997 
L 302.083728 -64.283107 
L 302.117979 -63.088218 
L 302.128624 -61.893328 
L 302.109107 -60.698439 
L 302.054171 -59.503549 
L 301.960245 -58.30866 
L 301.825693 -57.11377 
L 301.6509 -55.918881 
L 301.438214 -54.723991 
L 301.191755 -53.529102 
L 300.917115 -52.334212 
L 300.620995 -51.139323 
L 300.3108 -49.944433 
L 299.994222 -48.749544 
L 299.678839 -47.554654 
z
" style="stroke: #000000; stroke-opacity: 0.25; stroke-width: 0.7"/>
    </defs>
    <g clip-path="url(#p2bd59d18f4)">
     <use xlink:href="#m9b553e0bb1" x="0" y="239.943571" style="fill: #1f77b4; fill-opacity: 0.25; stroke: #000000; stroke-opacity: 0.25; stroke-width: 0.7"/>
    </g>
   </g>
   <g id="FillBetweenPolyCollection_5">
    <defs>
     <path id="me4740e85b8" d="M 367.999209 -58.841513 
L 365.719503 -58.841513 
L 365.567164 -60.065246 
L 365.418268 -61.288979 
L 365.274546 -62.512711 
L 365.136683 -63.736444 
L 365.004525 -64.960177 
L 364.877422 -66.18391 
L 364.75458 -67.407642 
L 364.63532 -68.631375 
L 364.519192 -69.855108 
L 364.405935 -71.078841 
L 364.295378 -72.302573 
L 364.187366 -73.526306 
L 364.081801 -74.750039 
L 363.978831 -75.973772 
L 363.879131 -77.197504 
L 363.78419 -78.421237 
L 363.696472 -79.64497 
L 363.619347 -80.868703 
L 363.556757 -82.092435 
L 363.512655 -83.316168 
L 363.490312 -84.539901 
L 363.491621 -85.763634 
L 363.51654 -86.987366 
L 363.562762 -88.211099 
L 363.625666 -89.434832 
L 363.698558 -90.658565 
L 363.773132 -91.882297 
L 363.840055 -93.10603 
L 363.88953 -94.329763 
L 363.911676 -95.553496 
L 363.896561 -96.777228 
L 363.833798 -98.000961 
L 363.7117 -99.224694 
L 363.516165 -100.448427 
L 363.229573 -101.672159 
L 362.830129 -102.895892 
L 362.292088 -104.119625 
L 361.587244 -105.343357 
L 360.687832 -106.56709 
L 359.570716 -107.790823 
L 358.222356 -109.014556 
L 356.643768 -110.238288 
L 354.854457 -111.462021 
L 352.894343 -112.685754 
L 350.822914 -113.909487 
L 348.715344 -115.133219 
L 346.655915 -116.356952 
L 344.729706 -117.580685 
L 343.013977 -118.804418 
L 341.570817 -120.02815 
L 340.442374 -121.251883 
L 339.649425 -122.475616 
L 339.193211 -123.699349 
L 339.059735 -124.923081 
L 339.225177 -126.146814 
L 339.660982 -127.370547 
L 340.337454 -128.59428 
L 341.225314 -129.818012 
L 342.295388 -131.041745 
L 343.517151 -132.265478 
L 344.857149 -133.489211 
L 346.278224 -134.712943 
L 347.740114 -135.936676 
L 349.201476 -137.160409 
L 350.622937 -138.384142 
L 351.970462 -139.607874 
L 353.218283 -140.831607 
L 354.350789 -142.05534 
L 355.363036 -143.279073 
L 356.259855 -144.502805 
L 357.053804 -145.726538 
L 357.762336 -146.950271 
L 358.404683 -148.174003 
L 358.99888 -149.397736 
L 359.559357 -150.621469 
L 360.095367 -151.845202 
L 360.610418 -153.068934 
L 361.102729 -154.292667 
L 361.566544 -155.5164 
L 361.99403 -156.740133 
L 362.377404 -157.963865 
L 362.710879 -159.187598 
L 362.992121 -160.411331 
L 363.222991 -161.635064 
L 363.409521 -162.858796 
L 363.5612 -164.082529 
L 363.689766 -165.306262 
L 363.807728 -166.529995 
L 363.926892 -167.753727 
L 364.057081 -168.97746 
L 364.2052 -170.201193 
L 364.374742 -171.424926 
L 364.56574 -172.648658 
L 364.775134 -173.872391 
L 364.997476 -175.096124 
L 365.225823 -176.319857 
L 365.452706 -177.543589 
L 365.671022 -178.767322 
L 365.874735 -179.991055 
L 367.843977 -179.991055 
L 367.843977 -179.991055 
L 368.04769 -178.767322 
L 368.266006 -177.543589 
L 368.49289 -176.319857 
L 368.721236 -175.096124 
L 368.943578 -173.872391 
L 369.152973 -172.648658 
L 369.34397 -171.424926 
L 369.513512 -170.201193 
L 369.661632 -168.97746 
L 369.79182 -167.753727 
L 369.910985 -166.529995 
L 370.028946 -165.306262 
L 370.157512 -164.082529 
L 370.309192 -162.858796 
L 370.495721 -161.635064 
L 370.726591 -160.411331 
L 371.007833 -159.187598 
L 371.341308 -157.963865 
L 371.724682 -156.740133 
L 372.152168 -155.5164 
L 372.615983 -154.292667 
L 373.108294 -153.068934 
L 373.623346 -151.845202 
L 374.159355 -150.621469 
L 374.719832 -149.397736 
L 375.314029 -148.174003 
L 375.956376 -146.950271 
L 376.664908 -145.726538 
L 377.458857 -144.502805 
L 378.355676 -143.279073 
L 379.367923 -142.05534 
L 380.500429 -140.831607 
L 381.748251 -139.607874 
L 383.095775 -138.384142 
L 384.517236 -137.160409 
L 385.978598 -135.936676 
L 387.440488 -134.712943 
L 388.861563 -133.489211 
L 390.201561 -132.265478 
L 391.423325 -131.041745 
L 392.493398 -129.818012 
L 393.381258 -128.59428 
L 394.05773 -127.370547 
L 394.493535 -126.146814 
L 394.658977 -124.923081 
L 394.525501 -123.699349 
L 394.069287 -122.475616 
L 393.276338 -121.251883 
L 392.147896 -120.02815 
L 390.704735 -118.804418 
L 388.989006 -117.580685 
L 387.062797 -116.356952 
L 385.003368 -115.133219 
L 382.895798 -113.909487 
L 380.824369 -112.685754 
L 378.864255 -111.462021 
L 377.074945 -110.238288 
L 375.496356 -109.014556 
L 374.147996 -107.790823 
L 373.03088 -106.56709 
L 372.131468 -105.343357 
L 371.426624 -104.119625 
L 370.888583 -102.895892 
L 370.489139 -101.672159 
L 370.202547 -100.448427 
L 370.007012 -99.224694 
L 369.884914 -98.000961 
L 369.822151 -96.777228 
L 369.807036 -95.553496 
L 369.829182 -94.329763 
L 369.878657 -93.10603 
L 369.94558 -91.882297 
L 370.020154 -90.658565 
L 370.093047 -89.434832 
L 370.155951 -88.211099 
L 370.202172 -86.987366 
L 370.227091 -85.763634 
L 370.2284 -84.539901 
L 370.206057 -83.316168 
L 370.161955 -82.092435 
L 370.099365 -80.868703 
L 370.02224 -79.64497 
L 369.934522 -78.421237 
L 369.839582 -77.197504 
L 369.739881 -75.973772 
L 369.636911 -74.750039 
L 369.531347 -73.526306 
L 369.423334 -72.302573 
L 369.312777 -71.078841 
L 369.19952 -69.855108 
L 369.083392 -68.631375 
L 368.964133 -67.407642 
L 368.84129 -66.18391 
L 368.714187 -64.960177 
L 368.58203 -63.736444 
L 368.444166 -62.512711 
L 368.300444 -61.288979 
L 368.151549 -60.065246 
L 367.999209 -58.841513 
z
" style="stroke: #000000; stroke-opacity: 0.25; stroke-width: 0.7"/>
    </defs>
    <g clip-path="url(#p2bd59d18f4)">
     <use xlink:href="#me4740e85b8" x="0" y="239.943571" style="fill: #1f77b4; fill-opacity: 0.25; stroke: #000000; stroke-opacity: 0.25; stroke-width: 0.7"/>
    </g>
   </g>
   <g id="matplotlib.axis_1">
    <g id="xtick_1">
     <g id="line2d_1">
      <defs>
       <path id="m80ba2c51fd" d="M 0 0 
L 0 3.5 
" style="stroke: #000000; stroke-width: 0.8"/>
      </defs>
      <g>
       <use xlink:href="#m80ba2c51fd" x="88.863144" y="205.642245" style="stroke: #000000; stroke-width: 0.8"/>
      </g>
     </g>
     <g id="text_1">
      <!-- k=4 -->
      <g transform="translate(72.873692 232.534043) rotate(-45) scale(0.1 -0.1)">
       <defs>
        <path id="DejaVuSans-6b" d="M 581 4863 
L 1159 4863 
L 1159 1991 
L 2875 3500 
L 3609 3500 
L 1753 1863 
L 3688 0 
L 2938 0 
L 1159 1709 
L 1159 0 
L 581 0 
L 581 4863 
z
" transform="scale(0.015625)"/>
        <path id="DejaVuSans-3d" d="M 678 2906 
L 4684 2906 
L 4684 2381 
L 678 2381 
L 678 2906 
z
M 678 1631 
L 4684 1631 
L 4684 1100 
L 678 1100 
L 678 1631 
z
" transform="scale(0.015625)"/>
        <path id="DejaVuSans-34" d="M 2419 4116 
L 825 1625 
L 2419 1625 
L 2419 4116 
z
M 2253 4666 
L 3047 4666 
L 3047 1625 
L 3713 1625 
L 3713 1100 
L 3047 1100 
L 3047 0 
L 2419 0 
L 2419 1100 
L 313 1100 
L 313 1709 
L 2253 4666 
z
" transform="scale(0.015625)"/>
       </defs>
       <use xlink:href="#DejaVuSans-6b"/>
       <use xlink:href="#DejaVuSans-3d" transform="translate(57.910156 0)"/>
       <use xlink:href="#DejaVuSans-34" transform="translate(141.699219 0)"/>
      </g>
     </g>
    </g>
    <g id="xtick_2">
     <g id="line2d_2">
      <g>
       <use xlink:href="#m80ba2c51fd" x="158.362197" y="205.642245" style="stroke: #000000; stroke-width: 0.8"/>
      </g>
     </g>
     <g id="text_2">
      <!-- k=16 -->
      <g transform="translate(137.873778 237.03301) rotate(-45) scale(0.1 -0.1)">
       <defs>
        <path id="DejaVuSans-31" d="M 794 531 
L 1825 531 
L 1825 4091 
L 703 3866 
L 703 4441 
L 1819 4666 
L 2450 4666 
L 2450 531 
L 3481 531 
L 3481 0 
L 794 0 
L 794 531 
z
" transform="scale(0.015625)"/>
        <path id="DejaVuSans-36" d="M 2113 2584 
Q 1688 2584 1439 2293 
Q 1191 2003 1191 1497 
Q 1191 994 1439 701 
Q 1688 409 2113 409 
Q 2538 409 2786 701 
Q 3034 994 3034 1497 
Q 3034 2003 2786 2293 
Q 2538 2584 2113 2584 
z
M 3366 4563 
L 3366 3988 
Q 3128 4100 2886 4159 
Q 2644 4219 2406 4219 
Q 1781 4219 1451 3797 
Q 1122 3375 1075 2522 
Q 1259 2794 1537 2939 
Q 1816 3084 2150 3084 
Q 2853 3084 3261 2657 
Q 3669 2231 3669 1497 
Q 3669 778 3244 343 
Q 2819 -91 2113 -91 
Q 1303 -91 875 529 
Q 447 1150 447 2328 
Q 447 3434 972 4092 
Q 1497 4750 2381 4750 
Q 2619 4750 2861 4703 
Q 3103 4656 3366 4563 
z
" transform="scale(0.015625)"/>
       </defs>
       <use xlink:href="#DejaVuSans-6b"/>
       <use xlink:href="#DejaVuSans-3d" transform="translate(57.910156 0)"/>
       <use xlink:href="#DejaVuSans-31" transform="translate(141.699219 0)"/>
       <use xlink:href="#DejaVuSans-36" transform="translate(205.322266 0)"/>
      </g>
     </g>
    </g>
    <g id="xtick_3">
     <g id="line2d_3">
      <g>
       <use xlink:href="#m80ba2c51fd" x="227.86125" y="205.642245" style="stroke: #000000; stroke-width: 0.8"/>
      </g>
     </g>
     <g id="text_3">
      <!-- k=41 -->
      <g transform="translate(207.372831 237.03301) rotate(-45) scale(0.1 -0.1)">
       <use xlink:href="#DejaVuSans-6b"/>
       <use xlink:href="#DejaVuSans-3d" transform="translate(57.910156 0)"/>
       <use xlink:href="#DejaVuSans-34" transform="translate(141.699219 0)"/>
       <use xlink:href="#DejaVuSans-31" transform="translate(205.322266 0)"/>
      </g>
     </g>
    </g>
    <g id="xtick_4">
     <g id="line2d_4">
      <g>
       <use xlink:href="#m80ba2c51fd" x="297.360303" y="205.642245" style="stroke: #000000; stroke-width: 0.8"/>
      </g>
     </g>
     <g id="text_4">
      <!-- k=60 -->
      <g transform="translate(276.871884 237.03301) rotate(-45) scale(0.1 -0.1)">
       <defs>
        <path id="DejaVuSans-30" d="M 2034 4250 
Q 1547 4250 1301 3770 
Q 1056 3291 1056 2328 
Q 1056 1369 1301 889 
Q 1547 409 2034 409 
Q 2525 409 2770 889 
Q 3016 1369 3016 2328 
Q 3016 3291 2770 3770 
Q 2525 4250 2034 4250 
z
M 2034 4750 
Q 2819 4750 3233 4129 
Q 3647 3509 3647 2328 
Q 3647 1150 3233 529 
Q 2819 -91 2034 -91 
Q 1250 -91 836 529 
Q 422 1150 422 2328 
Q 422 3509 836 4129 
Q 1250 4750 2034 4750 
z
" transform="scale(0.015625)"/>
       </defs>
       <use xlink:href="#DejaVuSans-6b"/>
       <use xlink:href="#DejaVuSans-3d" transform="translate(57.910156 0)"/>
       <use xlink:href="#DejaVuSans-36" transform="translate(141.699219 0)"/>
       <use xlink:href="#DejaVuSans-30" transform="translate(205.322266 0)"/>
      </g>
     </g>
    </g>
    <g id="xtick_5">
     <g id="line2d_5">
      <g>
       <use xlink:href="#m80ba2c51fd" x="366.859356" y="205.642245" style="stroke: #000000; stroke-width: 0.8"/>
      </g>
     </g>
     <g id="text_5">
      <!-- k=23 -->
      <g transform="translate(346.370937 237.03301) rotate(-45) scale(0.1 -0.1)">
       <defs>
        <path id="DejaVuSans-32" d="M 1228 531 
L 3431 531 
L 3431 0 
L 469 0 
L 469 531 
Q 828 903 1448 1529 
Q 2069 2156 2228 2338 
Q 2531 2678 2651 2914 
Q 2772 3150 2772 3378 
Q 2772 3750 2511 3984 
Q 2250 4219 1831 4219 
Q 1534 4219 1204 4116 
Q 875 4013 500 3803 
L 500 4441 
Q 881 4594 1212 4672 
Q 1544 4750 1819 4750 
Q 2544 4750 2975 4387 
Q 3406 4025 3406 3419 
Q 3406 3131 3298 2873 
Q 3191 2616 2906 2266 
Q 2828 2175 2409 1742 
Q 1991 1309 1228 531 
z
" transform="scale(0.015625)"/>
        <path id="DejaVuSans-33" d="M 2597 2516 
Q 3050 2419 3304 2112 
Q 3559 1806 3559 1356 
Q 3559 666 3084 287 
Q 2609 -91 1734 -91 
Q 1441 -91 1130 -33 
Q 819 25 488 141 
L 488 750 
Q 750 597 1062 519 
Q 1375 441 1716 441 
Q 2309 441 2620 675 
Q 2931 909 2931 1356 
Q 2931 1769 2642 2001 
Q 2353 2234 1838 2234 
L 1294 2234 
L 1294 2753 
L 1863 2753 
Q 2328 2753 2575 2939 
Q 2822 3125 2822 3475 
Q 2822 3834 2567 4026 
Q 2313 4219 1838 4219 
Q 1578 4219 1281 4162 
Q 984 4106 628 3988 
L 628 4550 
Q 988 4650 1302 4700 
Q 1616 4750 1894 4750 
Q 2613 4750 3031 4423 
Q 3450 4097 3450 3541 
Q 3450 3153 3228 2886 
Q 3006 2619 2597 2516 
z
" transform="scale(0.015625)"/>
       </defs>
       <use xlink:href="#DejaVuSans-6b"/>
       <use xlink:href="#DejaVuSans-3d" transform="translate(57.910156 0)"/>
       <use xlink:href="#DejaVuSans-32" transform="translate(141.699219 0)"/>
       <use xlink:href="#DejaVuSans-33" transform="translate(205.322266 0)"/>
      </g>
     </g>
    </g>
   </g>
   <g id="matplotlib.axis_2">
    <g id="ytick_1">
     <g id="line2d_6">
      <defs>
       <path id="m1fa4ff3c65" d="M 0 0 
L -3.5 0 
" style="stroke: #000000; stroke-width: 0.8"/>
      </defs>
      <g>
       <use xlink:href="#m1fa4ff3c65" x="44.38375" y="197.466038" style="stroke: #000000; stroke-width: 0.8"/>
      </g>
     </g>
     <g id="text_6">
      <!-- 0.00 -->
      <g transform="translate(15.118125 201.265256) scale(0.1 -0.1)">
       <defs>
        <path id="DejaVuSans-2e" d="M 684 794 
L 1344 794 
L 1344 0 
L 684 0 
L 684 794 
z
" transform="scale(0.015625)"/>
       </defs>
       <use xlink:href="#DejaVuSans-30"/>
       <use xlink:href="#DejaVuSans-2e" transform="translate(63.623047 0)"/>
       <use xlink:href="#DejaVuSans-30" transform="translate(95.410156 0)"/>
       <use xlink:href="#DejaVuSans-30" transform="translate(159.033203 0)"/>
      </g>
     </g>
    </g>
    <g id="ytick_2">
     <g id="line2d_7">
      <g>
       <use xlink:href="#m1fa4ff3c65" x="44.38375" y="175.930187" style="stroke: #000000; stroke-width: 0.8"/>
      </g>
     </g>
     <g id="text_7">
      <!-- 0.01 -->
      <g transform="translate(15.118125 179.729405) scale(0.1 -0.1)">
       <use xlink:href="#DejaVuSans-30"/>
       <use xlink:href="#DejaVuSans-2e" transform="translate(63.623047 0)"/>
       <use xlink:href="#DejaVuSans-30" transform="translate(95.410156 0)"/>
       <use xlink:href="#DejaVuSans-31" transform="translate(159.033203 0)"/>
      </g>
     </g>
    </g>
    <g id="ytick_3">
     <g id="line2d_8">
      <g>
       <use xlink:href="#m1fa4ff3c65" x="44.38375" y="154.394336" style="stroke: #000000; stroke-width: 0.8"/>
      </g>
     </g>
     <g id="text_8">
      <!-- 0.02 -->
      <g transform="translate(15.118125 158.193554) scale(0.1 -0.1)">
       <use xlink:href="#DejaVuSans-30"/>
       <use xlink:href="#DejaVuSans-2e" transform="translate(63.623047 0)"/>
       <use xlink:href="#DejaVuSans-30" transform="translate(95.410156 0)"/>
       <use xlink:href="#DejaVuSans-32" transform="translate(159.033203 0)"/>
      </g>
     </g>
    </g>
    <g id="ytick_4">
     <g id="line2d_9">
      <g>
       <use xlink:href="#m1fa4ff3c65" x="44.38375" y="132.858484" style="stroke: #000000; stroke-width: 0.8"/>
      </g>
     </g>
     <g id="text_9">
      <!-- 0.03 -->
      <g transform="translate(15.118125 136.657703) scale(0.1 -0.1)">
       <use xlink:href="#DejaVuSans-30"/>
       <use xlink:href="#DejaVuSans-2e" transform="translate(63.623047 0)"/>
       <use xlink:href="#DejaVuSans-30" transform="translate(95.410156 0)"/>
       <use xlink:href="#DejaVuSans-33" transform="translate(159.033203 0)"/>
      </g>
     </g>
    </g>
    <g id="ytick_5">
     <g id="line2d_10">
      <g>
       <use xlink:href="#m1fa4ff3c65" x="44.38375" y="111.322633" style="stroke: #000000; stroke-width: 0.8"/>
      </g>
     </g>
     <g id="text_10">
      <!-- 0.04 -->
      <g transform="translate(15.118125 115.121852) scale(0.1 -0.1)">
       <use xlink:href="#DejaVuSans-30"/>
       <use xlink:href="#DejaVuSans-2e" transform="translate(63.623047 0)"/>
       <use xlink:href="#DejaVuSans-30" transform="translate(95.410156 0)"/>
       <use xlink:href="#DejaVuSans-34" transform="translate(159.033203 0)"/>
      </g>
     </g>
    </g>
    <g id="ytick_6">
     <g id="line2d_11">
      <g>
       <use xlink:href="#m1fa4ff3c65" x="44.38375" y="89.786782" style="stroke: #000000; stroke-width: 0.8"/>
      </g>
     </g>
     <g id="text_11">
      <!-- 0.05 -->
      <g transform="translate(15.118125 93.586001) scale(0.1 -0.1)">
       <defs>
        <path id="DejaVuSans-35" d="M 691 4666 
L 3169 4666 
L 3169 4134 
L 1269 4134 
L 1269 2991 
Q 1406 3038 1543 3061 
Q 1681 3084 1819 3084 
Q 2600 3084 3056 2656 
Q 3513 2228 3513 1497 
Q 3513 744 3044 326 
Q 2575 -91 1722 -91 
Q 1428 -91 1123 -41 
Q 819 9 494 109 
L 494 744 
Q 775 591 1075 516 
Q 1375 441 1709 441 
Q 2250 441 2565 725 
Q 2881 1009 2881 1497 
Q 2881 1984 2565 2268 
Q 2250 2553 1709 2553 
Q 1456 2553 1204 2497 
Q 953 2441 691 2322 
L 691 4666 
z
" transform="scale(0.015625)"/>
       </defs>
       <use xlink:href="#DejaVuSans-30"/>
       <use xlink:href="#DejaVuSans-2e" transform="translate(63.623047 0)"/>
       <use xlink:href="#DejaVuSans-30" transform="translate(95.410156 0)"/>
       <use xlink:href="#DejaVuSans-35" transform="translate(159.033203 0)"/>
      </g>
     </g>
    </g>
    <g id="ytick_7">
     <g id="line2d_12">
      <g>
       <use xlink:href="#m1fa4ff3c65" x="44.38375" y="68.250931" style="stroke: #000000; stroke-width: 0.8"/>
      </g>
     </g>
     <g id="text_12">
      <!-- 0.06 -->
      <g transform="translate(15.118125 72.05015) scale(0.1 -0.1)">
       <use xlink:href="#DejaVuSans-30"/>
       <use xlink:href="#DejaVuSans-2e" transform="translate(63.623047 0)"/>
       <use xlink:href="#DejaVuSans-30" transform="translate(95.410156 0)"/>
       <use xlink:href="#DejaVuSans-36" transform="translate(159.033203 0)"/>
      </g>
     </g>
    </g>
    <g id="ytick_8">
     <g id="line2d_13">
      <g>
       <use xlink:href="#m1fa4ff3c65" x="44.38375" y="46.71508" style="stroke: #000000; stroke-width: 0.8"/>
      </g>
     </g>
     <g id="text_13">
      <!-- 0.07 -->
      <g transform="translate(15.118125 50.514299) scale(0.1 -0.1)">
       <defs>
        <path id="DejaVuSans-37" d="M 525 4666 
L 3525 4666 
L 3525 4397 
L 1831 0 
L 1172 0 
L 2766 4134 
L 525 4134 
L 525 4666 
z
" transform="scale(0.015625)"/>
       </defs>
       <use xlink:href="#DejaVuSans-30"/>
       <use xlink:href="#DejaVuSans-2e" transform="translate(63.623047 0)"/>
       <use xlink:href="#DejaVuSans-30" transform="translate(95.410156 0)"/>
       <use xlink:href="#DejaVuSans-37" transform="translate(159.033203 0)"/>
      </g>
     </g>
    </g>
    <g id="ytick_9">
     <g id="line2d_14">
      <g>
       <use xlink:href="#m1fa4ff3c65" x="44.38375" y="25.179229" style="stroke: #000000; stroke-width: 0.8"/>
      </g>
     </g>
     <g id="text_14">
      <!-- 0.08 -->
      <g transform="translate(15.118125 28.978448) scale(0.1 -0.1)">
       <defs>
        <path id="DejaVuSans-38" d="M 2034 2216 
Q 1584 2216 1326 1975 
Q 1069 1734 1069 1313 
Q 1069 891 1326 650 
Q 1584 409 2034 409 
Q 2484 409 2743 651 
Q 3003 894 3003 1313 
Q 3003 1734 2745 1975 
Q 2488 2216 2034 2216 
z
M 1403 2484 
Q 997 2584 770 2862 
Q 544 3141 544 3541 
Q 544 4100 942 4425 
Q 1341 4750 2034 4750 
Q 2731 4750 3128 4425 
Q 3525 4100 3525 3541 
Q 3525 3141 3298 2862 
Q 3072 2584 2669 2484 
Q 3125 2378 3379 2068 
Q 3634 1759 3634 1313 
Q 3634 634 3220 271 
Q 2806 -91 2034 -91 
Q 1263 -91 848 271 
Q 434 634 434 1313 
Q 434 1759 690 2068 
Q 947 2378 1403 2484 
z
M 1172 3481 
Q 1172 3119 1398 2916 
Q 1625 2713 2034 2713 
Q 2441 2713 2670 2916 
Q 2900 3119 2900 3481 
Q 2900 3844 2670 4047 
Q 2441 4250 2034 4250 
Q 1625 4250 1398 4047 
Q 1172 3844 1172 3481 
z
" transform="scale(0.015625)"/>
       </defs>
       <use xlink:href="#DejaVuSans-30"/>
       <use xlink:href="#DejaVuSans-2e" transform="translate(63.623047 0)"/>
       <use xlink:href="#DejaVuSans-30" transform="translate(95.410156 0)"/>
       <use xlink:href="#DejaVuSans-38" transform="translate(159.033203 0)"/>
      </g>
     </g>
    </g>
    <g id="text_15">
     <!-- Chamfer distance (normalized) -->
     <g transform="translate(9.038438 188.636904) rotate(-90) scale(0.1 -0.1)">
      <defs>
       <path id="DejaVuSans-43" d="M 4122 4306 
L 4122 3641 
Q 3803 3938 3442 4084 
Q 3081 4231 2675 4231 
Q 1875 4231 1450 3742 
Q 1025 3253 1025 2328 
Q 1025 1406 1450 917 
Q 1875 428 2675 428 
Q 3081 428 3442 575 
Q 3803 722 4122 1019 
L 4122 359 
Q 3791 134 3420 21 
Q 3050 -91 2638 -91 
Q 1578 -91 968 557 
Q 359 1206 359 2328 
Q 359 3453 968 4101 
Q 1578 4750 2638 4750 
Q 3056 4750 3426 4639 
Q 3797 4528 4122 4306 
z
" transform="scale(0.015625)"/>
       <path id="DejaVuSans-68" d="M 3513 2113 
L 3513 0 
L 2938 0 
L 2938 2094 
Q 2938 2591 2744 2837 
Q 2550 3084 2163 3084 
Q 1697 3084 1428 2787 
Q 1159 2491 1159 1978 
L 1159 0 
L 581 0 
L 581 4863 
L 1159 4863 
L 1159 2956 
Q 1366 3272 1645 3428 
Q 1925 3584 2291 3584 
Q 2894 3584 3203 3211 
Q 3513 2838 3513 2113 
z
" transform="scale(0.015625)"/>
       <path id="DejaVuSans-61" d="M 2194 1759 
Q 1497 1759 1228 1600 
Q 959 1441 959 1056 
Q 959 750 1161 570 
Q 1363 391 1709 391 
Q 2188 391 2477 730 
Q 2766 1069 2766 1631 
L 2766 1759 
L 2194 1759 
z
M 3341 1997 
L 3341 0 
L 2766 0 
L 2766 531 
Q 2569 213 2275 61 
Q 1981 -91 1556 -91 
Q 1019 -91 701 211 
Q 384 513 384 1019 
Q 384 1609 779 1909 
Q 1175 2209 1959 2209 
L 2766 2209 
L 2766 2266 
Q 2766 2663 2505 2880 
Q 2244 3097 1772 3097 
Q 1472 3097 1187 3025 
Q 903 2953 641 2809 
L 641 3341 
Q 956 3463 1253 3523 
Q 1550 3584 1831 3584 
Q 2591 3584 2966 3190 
Q 3341 2797 3341 1997 
z
" transform="scale(0.015625)"/>
       <path id="DejaVuSans-6d" d="M 3328 2828 
Q 3544 3216 3844 3400 
Q 4144 3584 4550 3584 
Q 5097 3584 5394 3201 
Q 5691 2819 5691 2113 
L 5691 0 
L 5113 0 
L 5113 2094 
Q 5113 2597 4934 2840 
Q 4756 3084 4391 3084 
Q 3944 3084 3684 2787 
Q 3425 2491 3425 1978 
L 3425 0 
L 2847 0 
L 2847 2094 
Q 2847 2600 2669 2842 
Q 2491 3084 2119 3084 
Q 1678 3084 1418 2786 
Q 1159 2488 1159 1978 
L 1159 0 
L 581 0 
L 581 3500 
L 1159 3500 
L 1159 2956 
Q 1356 3278 1631 3431 
Q 1906 3584 2284 3584 
Q 2666 3584 2933 3390 
Q 3200 3197 3328 2828 
z
" transform="scale(0.015625)"/>
       <path id="DejaVuSans-66" d="M 2375 4863 
L 2375 4384 
L 1825 4384 
Q 1516 4384 1395 4259 
Q 1275 4134 1275 3809 
L 1275 3500 
L 2222 3500 
L 2222 3053 
L 1275 3053 
L 1275 0 
L 697 0 
L 697 3053 
L 147 3053 
L 147 3500 
L 697 3500 
L 697 3744 
Q 697 4328 969 4595 
Q 1241 4863 1831 4863 
L 2375 4863 
z
" transform="scale(0.015625)"/>
       <path id="DejaVuSans-65" d="M 3597 1894 
L 3597 1613 
L 953 1613 
Q 991 1019 1311 708 
Q 1631 397 2203 397 
Q 2534 397 2845 478 
Q 3156 559 3463 722 
L 3463 178 
Q 3153 47 2828 -22 
Q 2503 -91 2169 -91 
Q 1331 -91 842 396 
Q 353 884 353 1716 
Q 353 2575 817 3079 
Q 1281 3584 2069 3584 
Q 2775 3584 3186 3129 
Q 3597 2675 3597 1894 
z
M 3022 2063 
Q 3016 2534 2758 2815 
Q 2500 3097 2075 3097 
Q 1594 3097 1305 2825 
Q 1016 2553 972 2059 
L 3022 2063 
z
" transform="scale(0.015625)"/>
       <path id="DejaVuSans-72" d="M 2631 2963 
Q 2534 3019 2420 3045 
Q 2306 3072 2169 3072 
Q 1681 3072 1420 2755 
Q 1159 2438 1159 1844 
L 1159 0 
L 581 0 
L 581 3500 
L 1159 3500 
L 1159 2956 
Q 1341 3275 1631 3429 
Q 1922 3584 2338 3584 
Q 2397 3584 2469 3576 
Q 2541 3569 2628 3553 
L 2631 2963 
z
" transform="scale(0.015625)"/>
       <path id="DejaVuSans-20" transform="scale(0.015625)"/>
       <path id="DejaVuSans-64" d="M 2906 2969 
L 2906 4863 
L 3481 4863 
L 3481 0 
L 2906 0 
L 2906 525 
Q 2725 213 2448 61 
Q 2172 -91 1784 -91 
Q 1150 -91 751 415 
Q 353 922 353 1747 
Q 353 2572 751 3078 
Q 1150 3584 1784 3584 
Q 2172 3584 2448 3432 
Q 2725 3281 2906 2969 
z
M 947 1747 
Q 947 1113 1208 752 
Q 1469 391 1925 391 
Q 2381 391 2643 752 
Q 2906 1113 2906 1747 
Q 2906 2381 2643 2742 
Q 2381 3103 1925 3103 
Q 1469 3103 1208 2742 
Q 947 2381 947 1747 
z
" transform="scale(0.015625)"/>
       <path id="DejaVuSans-69" d="M 603 3500 
L 1178 3500 
L 1178 0 
L 603 0 
L 603 3500 
z
M 603 4863 
L 1178 4863 
L 1178 4134 
L 603 4134 
L 603 4863 
z
" transform="scale(0.015625)"/>
       <path id="DejaVuSans-73" d="M 2834 3397 
L 2834 2853 
Q 2591 2978 2328 3040 
Q 2066 3103 1784 3103 
Q 1356 3103 1142 2972 
Q 928 2841 928 2578 
Q 928 2378 1081 2264 
Q 1234 2150 1697 2047 
L 1894 2003 
Q 2506 1872 2764 1633 
Q 3022 1394 3022 966 
Q 3022 478 2636 193 
Q 2250 -91 1575 -91 
Q 1294 -91 989 -36 
Q 684 19 347 128 
L 347 722 
Q 666 556 975 473 
Q 1284 391 1588 391 
Q 1994 391 2212 530 
Q 2431 669 2431 922 
Q 2431 1156 2273 1281 
Q 2116 1406 1581 1522 
L 1381 1569 
Q 847 1681 609 1914 
Q 372 2147 372 2553 
Q 372 3047 722 3315 
Q 1072 3584 1716 3584 
Q 2034 3584 2315 3537 
Q 2597 3491 2834 3397 
z
" transform="scale(0.015625)"/>
       <path id="DejaVuSans-74" d="M 1172 4494 
L 1172 3500 
L 2356 3500 
L 2356 3053 
L 1172 3053 
L 1172 1153 
Q 1172 725 1289 603 
Q 1406 481 1766 481 
L 2356 481 
L 2356 0 
L 1766 0 
Q 1100 0 847 248 
Q 594 497 594 1153 
L 594 3053 
L 172 3053 
L 172 3500 
L 594 3500 
L 594 4494 
L 1172 4494 
z
" transform="scale(0.015625)"/>
       <path id="DejaVuSans-6e" d="M 3513 2113 
L 3513 0 
L 2938 0 
L 2938 2094 
Q 2938 2591 2744 2837 
Q 2550 3084 2163 3084 
Q 1697 3084 1428 2787 
Q 1159 2491 1159 1978 
L 1159 0 
L 581 0 
L 581 3500 
L 1159 3500 
L 1159 2956 
Q 1366 3272 1645 3428 
Q 1925 3584 2291 3584 
Q 2894 3584 3203 3211 
Q 3513 2838 3513 2113 
z
" transform="scale(0.015625)"/>
       <path id="DejaVuSans-63" d="M 3122 3366 
L 3122 2828 
Q 2878 2963 2633 3030 
Q 2388 3097 2138 3097 
Q 1578 3097 1268 2742 
Q 959 2388 959 1747 
Q 959 1106 1268 751 
Q 1578 397 2138 397 
Q 2388 397 2633 464 
Q 2878 531 3122 666 
L 3122 134 
Q 2881 22 2623 -34 
Q 2366 -91 2075 -91 
Q 1284 -91 818 406 
Q 353 903 353 1747 
Q 353 2603 823 3093 
Q 1294 3584 2113 3584 
Q 2378 3584 2631 3529 
Q 2884 3475 3122 3366 
z
" transform="scale(0.015625)"/>
       <path id="DejaVuSans-28" d="M 1984 4856 
Q 1566 4138 1362 3434 
Q 1159 2731 1159 2009 
Q 1159 1288 1364 580 
Q 1569 -128 1984 -844 
L 1484 -844 
Q 1016 -109 783 600 
Q 550 1309 550 2009 
Q 550 2706 781 3412 
Q 1013 4119 1484 4856 
L 1984 4856 
z
" transform="scale(0.015625)"/>
       <path id="DejaVuSans-6f" d="M 1959 3097 
Q 1497 3097 1228 2736 
Q 959 2375 959 1747 
Q 959 1119 1226 758 
Q 1494 397 1959 397 
Q 2419 397 2687 759 
Q 2956 1122 2956 1747 
Q 2956 2369 2687 2733 
Q 2419 3097 1959 3097 
z
M 1959 3584 
Q 2709 3584 3137 3096 
Q 3566 2609 3566 1747 
Q 3566 888 3137 398 
Q 2709 -91 1959 -91 
Q 1206 -91 779 398 
Q 353 888 353 1747 
Q 353 2609 779 3096 
Q 1206 3584 1959 3584 
z
" transform="scale(0.015625)"/>
       <path id="DejaVuSans-6c" d="M 603 4863 
L 1178 4863 
L 1178 0 
L 603 0 
L 603 4863 
z
" transform="scale(0.015625)"/>
       <path id="DejaVuSans-7a" d="M 353 3500 
L 3084 3500 
L 3084 2975 
L 922 459 
L 3084 459 
L 3084 0 
L 275 0 
L 275 525 
L 2438 3041 
L 353 3041 
L 353 3500 
z
" transform="scale(0.015625)"/>
       <path id="DejaVuSans-29" d="M 513 4856 
L 1013 4856 
Q 1481 4119 1714 3412 
Q 1947 2706 1947 2009 
Q 1947 1309 1714 600 
Q 1481 -109 1013 -844 
L 513 -844 
Q 928 -128 1133 580 
Q 1338 1288 1338 2009 
Q 1338 2731 1133 3434 
Q 928 4138 513 4856 
z
" transform="scale(0.015625)"/>
      </defs>
      <use xlink:href="#DejaVuSans-43"/>
      <use xlink:href="#DejaVuSans-68" transform="translate(69.824219 0)"/>
      <use xlink:href="#DejaVuSans-61" transform="translate(133.203125 0)"/>
      <use xlink:href="#DejaVuSans-6d" transform="translate(194.482422 0)"/>
      <use xlink:href="#DejaVuSans-66" transform="translate(291.894531 0)"/>
      <use xlink:href="#DejaVuSans-65" transform="translate(327.099609 0)"/>
      <use xlink:href="#DejaVuSans-72" transform="translate(388.623047 0)"/>
      <use xlink:href="#DejaVuSans-20" transform="translate(429.736328 0)"/>
      <use xlink:href="#DejaVuSans-64" transform="translate(461.523438 0)"/>
      <use xlink:href="#DejaVuSans-69" transform="translate(525 0)"/>
      <use xlink:href="#DejaVuSans-73" transform="translate(552.783203 0)"/>
      <use xlink:href="#DejaVuSans-74" transform="translate(604.882812 0)"/>
      <use xlink:href="#DejaVuSans-61" transform="translate(644.091797 0)"/>
      <use xlink:href="#DejaVuSans-6e" transform="translate(705.371094 0)"/>
      <use xlink:href="#DejaVuSans-63" transform="translate(768.75 0)"/>
      <use xlink:href="#DejaVuSans-65" transform="translate(823.730469 0)"/>
      <use xlink:href="#DejaVuSans-20" transform="translate(885.253906 0)"/>
      <use xlink:href="#DejaVuSans-28" transform="translate(917.041016 0)"/>
      <use xlink:href="#DejaVuSans-6e" transform="translate(956.054688 0)"/>
      <use xlink:href="#DejaVuSans-6f" transform="translate(1019.433594 0)"/>
      <use xlink:href="#DejaVuSans-72" transform="translate(1080.615234 0)"/>
      <use xlink:href="#DejaVuSans-6d" transform="translate(1119.978516 0)"/>
      <use xlink:href="#DejaVuSans-61" transform="translate(1217.390625 0)"/>
      <use xlink:href="#DejaVuSans-6c" transform="translate(1278.669922 0)"/>
      <use xlink:href="#DejaVuSans-69" transform="translate(1306.453125 0)"/>
      <use xlink:href="#DejaVuSans-7a" transform="translate(1334.236328 0)"/>
      <use xlink:href="#DejaVuSans-65" transform="translate(1386.726562 0)"/>
      <use xlink:href="#DejaVuSans-64" transform="translate(1448.25 0)"/>
      <use xlink:href="#DejaVuSans-29" transform="translate(1511.726562 0)"/>
     </g>
    </g>
   </g>
   <g id="LineCollection_1">
    <path d="M 74.963333 122.617815 
L 102.762955 122.617815 
" clip-path="url(#p2bd59d18f4)" style="fill: none; stroke: #000000; stroke-width: 1.1"/>
    <path d="M 144.462386 129.419667 
L 172.262008 129.419667 
" clip-path="url(#p2bd59d18f4)" style="fill: none; stroke: #000000; stroke-width: 1.1"/>
    <path d="M 213.961439 126.08556 
L 241.761061 126.08556 
" clip-path="url(#p2bd59d18f4)" style="fill: none; stroke: #000000; stroke-width: 1.1"/>
    <path d="M 283.460492 121.768102 
L 311.260114 121.768102 
" clip-path="url(#p2bd59d18f4)" style="fill: none; stroke: #000000; stroke-width: 1.1"/>
    <path d="M 352.959545 114.334187 
L 380.759167 114.334187 
" clip-path="url(#p2bd59d18f4)" style="fill: none; stroke: #000000; stroke-width: 1.1"/>
   </g>
   <g id="patch_3">
    <path d="M 44.38375 205.642245 
L 44.38375 16.558125 
" style="fill: none; stroke: #000000; stroke-width: 0.8; stroke-linejoin: miter; stroke-linecap: square"/>
   </g>
   <g id="patch_4">
    <path d="M 44.38375 205.642245 
L 411.33875 205.642245 
" style="fill: none; stroke: #000000; stroke-width: 0.8; stroke-linejoin: miter; stroke-linecap: square"/>
   </g>
   <g id="text_16">
    <!-- Within-cluster chamfer (per component) -->
    <g transform="translate(106.995937 10.558125) scale(0.12 -0.12)">
     <defs>
      <path id="DejaVuSans-57" d="M 213 4666 
L 850 4666 
L 1831 722 
L 2809 4666 
L 3519 4666 
L 4500 722 
L 5478 4666 
L 6119 4666 
L 4947 0 
L 4153 0 
L 3169 4050 
L 2175 0 
L 1381 0 
L 213 4666 
z
" transform="scale(0.015625)"/>
      <path id="DejaVuSans-2d" d="M 313 2009 
L 1997 2009 
L 1997 1497 
L 313 1497 
L 313 2009 
z
" transform="scale(0.015625)"/>
      <path id="DejaVuSans-75" d="M 544 1381 
L 544 3500 
L 1119 3500 
L 1119 1403 
Q 1119 906 1312 657 
Q 1506 409 1894 409 
Q 2359 409 2629 706 
Q 2900 1003 2900 1516 
L 2900 3500 
L 3475 3500 
L 3475 0 
L 2900 0 
L 2900 538 
Q 2691 219 2414 64 
Q 2138 -91 1772 -91 
Q 1169 -91 856 284 
Q 544 659 544 1381 
z
M 1991 3584 
L 1991 3584 
z
" transform="scale(0.015625)"/>
      <path id="DejaVuSans-70" d="M 1159 525 
L 1159 -1331 
L 581 -1331 
L 581 3500 
L 1159 3500 
L 1159 2969 
Q 1341 3281 1617 3432 
Q 1894 3584 2278 3584 
Q 2916 3584 3314 3078 
Q 3713 2572 3713 1747 
Q 3713 922 3314 415 
Q 2916 -91 2278 -91 
Q 1894 -91 1617 61 
Q 1341 213 1159 525 
z
M 3116 1747 
Q 3116 2381 2855 2742 
Q 2594 3103 2138 3103 
Q 1681 3103 1420 2742 
Q 1159 2381 1159 1747 
Q 1159 1113 1420 752 
Q 1681 391 2138 391 
Q 2594 391 2855 752 
Q 3116 1113 3116 1747 
z
" transform="scale(0.015625)"/>
     </defs>
     <use xlink:href="#DejaVuSans-57"/>
     <use xlink:href="#DejaVuSans-69" transform="translate(96.626953 0)"/>
     <use xlink:href="#DejaVuSans-74" transform="translate(124.410156 0)"/>
     <use xlink:href="#DejaVuSans-68" transform="translate(163.619141 0)"/>
     <use xlink:href="#DejaVuSans-69" transform="translate(226.998047 0)"/>
     <use xlink:href="#DejaVuSans-6e" transform="translate(254.78125 0)"/>
     <use xlink:href="#DejaVuSans-2d" transform="translate(318.160156 0)"/>
     <use xlink:href="#DejaVuSans-63" transform="translate(354.244141 0)"/>
     <use xlink:href="#DejaVuSans-6c" transform="translate(409.224609 0)"/>
     <use xlink:href="#DejaVuSans-75" transform="translate(437.007812 0)"/>
     <use xlink:href="#DejaVuSans-73" transform="translate(500.386719 0)"/>
     <use xlink:href="#DejaVuSans-74" transform="translate(552.486328 0)"/>
     <use xlink:href="#DejaVuSans-65" transform="translate(591.695312 0)"/>
     <use xlink:href="#DejaVuSans-72" transform="translate(653.21875 0)"/>
     <use xlink:href="#DejaVuSans-20" transform="translate(694.332031 0)"/>
     <use xlink:href="#DejaVuSans-63" transform="translate(726.119141 0)"/>
     <use xlink:href="#DejaVuSans-68" transform="translate(781.099609 0)"/>
     <use xlink:href="#DejaVuSans-61" transform="translate(844.478516 0)"/>
     <use xlink:href="#DejaVuSans-6d" transform="translate(905.757812 0)"/>
     <use xlink:href="#DejaVuSans-66" transform="translate(1003.169922 0)"/>
     <use xlink:href="#DejaVuSans-65" transform="translate(1038.375 0)"/>
     <use xlink:href="#DejaVuSans-72" transform="translate(1099.898438 0)"/>
     <use xlink:href="#DejaVuSans-20" transform="translate(1141.011719 0)"/>
     <use xlink:href="#DejaVuSans-28" transform="translate(1172.798828 0)"/>
     <use xlink:href="#DejaVuSans-70" transform="translate(1211.8125 0)"/>
     <use xlink:href="#DejaVuSans-65" transform="translate(1275.289062 0)"/>
     <use xlink:href="#DejaVuSans-72" transform="translate(1336.8125 0)"/>
     <use xlink:href="#DejaVuSans-20" transform="translate(1377.925781 0)"/>
     <use xlink:href="#DejaVuSans-63" transform="translate(1409.712891 0)"/>
     <use xlink:href="#DejaVuSans-6f" transform="translate(1464.693359 0)"/>
     <use xlink:href="#DejaVuSans-6d" transform="translate(1525.875 0)"/>
     <use xlink:href="#DejaVuSans-70" transform="translate(1623.287109 0)"/>
     <use xlink:href="#DejaVuSans-6f" transform="translate(1686.763672 0)"/>
     <use xlink:href="#DejaVuSans-6e" transform="translate(1747.945312 0)"/>
     <use xlink:href="#DejaVuSans-65" transform="translate(1811.324219 0)"/>
     <use xlink:href="#DejaVuSans-6e" transform="translate(1872.847656 0)"/>
     <use xlink:href="#DejaVuSans-74" transform="translate(1936.226562 0)"/>
     <use xlink:href="#DejaVuSans-29" transform="translate(1975.435547 0)"/>
    </g>
   </g>
   <g id="LineCollection_2">
    <path d="M 88.863144 129.551735 
L 88.863144 126.97298 
" clip-path="url(#p2bd59d18f4)" style="fill: none; stroke: #000000"/>
    <path d="M 158.362197 139.865681 
L 158.362197 135.00993 
" clip-path="url(#p2bd59d18f4)" style="fill: none; stroke: #000000"/>
    <path d="M 227.86125 139.291266 
L 227.86125 134.366144 
" clip-path="url(#p2bd59d18f4)" style="fill: none; stroke: #000000"/>
    <path d="M 297.360303 126.571158 
L 297.360303 123.890494 
" clip-path="url(#p2bd59d18f4)" style="fill: none; stroke: #000000"/>
    <path d="M 366.859356 115.973891 
L 366.859356 113.697955 
" clip-path="url(#p2bd59d18f4)" style="fill: none; stroke: #000000"/>
   </g>
   <g id="line2d_15">
    <defs>
     <path id="mbc442fb37b" d="M 3 0 
L -3 -0 
" style="stroke: #000000"/>
    </defs>
    <g clip-path="url(#p2bd59d18f4)">
     <use xlink:href="#mbc442fb37b" x="88.863144" y="129.551735" style="stroke: #000000"/>
     <use xlink:href="#mbc442fb37b" x="158.362197" y="139.865681" style="stroke: #000000"/>
     <use xlink:href="#mbc442fb37b" x="227.86125" y="139.291266" style="stroke: #000000"/>
     <use xlink:href="#mbc442fb37b" x="297.360303" y="126.571158" style="stroke: #000000"/>
     <use xlink:href="#mbc442fb37b" x="366.859356" y="115.973891" style="stroke: #000000"/>
    </g>
   </g>
   <g id="line2d_16">
    <g clip-path="url(#p2bd59d18f4)">
     <use xlink:href="#mbc442fb37b" x="88.863144" y="126.97298" style="stroke: #000000"/>
     <use xlink:href="#mbc442fb37b" x="158.362197" y="135.00993" style="stroke: #000000"/>
     <use xlink:href="#mbc442fb37b" x="227.86125" y="134.366144" style="stroke: #000000"/>
     <use xlink:href="#mbc442fb37b" x="297.360303" y="123.890494" style="stroke: #000000"/>
     <use xlink:href="#mbc442fb37b" x="366.859356" y="113.697955" style="stroke: #000000"/>
    </g>
   </g>
   <g id="line2d_17">
    <defs>
     <path id="m491d4923ac" d="M 0 1.75 
C 0.464105 1.75 0.909265 1.565609 1.237437 1.237437 
C 1.565609 0.909265 1.75 0.464105 1.75 0 
C 1.75 -0.464105 1.565609 -0.909265 1.237437 -1.237437 
C 0.909265 -1.565609 0.464105 -1.75 0 -1.75 
C -0.464105 -1.75 -0.909265 -1.565609 -1.237437 -1.237437 
C -1.565609 -0.909265 -1.75 -0.464105 -1.75 0 
C -1.75 0.464105 -1.565609 0.909265 -1.237437 1.237437 
C -0.909265 1.565609 -0.464105 1.75 0 1.75 
z
" style="stroke: #000000"/>
    </defs>
    <g clip-path="url(#p2bd59d18f4)">
     <use xlink:href="#m491d4923ac" x="88.863144" y="128.262357" style="stroke: #000000"/>
     <use xlink:href="#m491d4923ac" x="158.362197" y="137.437805" style="stroke: #000000"/>
     <use xlink:href="#m491d4923ac" x="227.86125" y="136.828705" style="stroke: #000000"/>
     <use xlink:href="#m491d4923ac" x="297.360303" y="125.230826" style="stroke: #000000"/>
     <use xlink:href="#m491d4923ac" x="366.859356" y="114.835923" style="stroke: #000000"/>
    </g>
   </g>
  </g>
 </g>
 <defs>
  <clipPath id="p2bd59d18f4">
   <rect x="44.38375" y="16.558125" width="366.955" height="189.08412"/>
  </clipPath>
 </defs>
</svg>
