<?xml version="1.0" encoding="utf-8" standalone="no"?>
<!DOCTYPE svg PUBLIC "-//W3C//DTD SVG 1.1//EN"
  "http://www.w3.org/Graphics/SVG/1.1/DTD/svg11.dtd">
<svg xmlns:xlink="http://www.w3.org/1999/xlink" width="186.08pt" height="186.08pt" viewBox="0 0 186.08 186.08" xmlns="http://www.w3.org/2000/svg" version="1.1">
 <metadata>
  <rdf:RDF xmlns:dc="http://purl.org/dc/elements/1.1/" xmlns:cc="http://creativecommons.org/ns#" xmlns:rdf="http://www.w3.org/1999/02/22-rdf-syntax-ns#">
   <cc:Work>
    <dc:type rdf:resource="http://purl.org/dc/dcmitype/StillImage"/>
    <dc:date>2026-02-07T15:30:41.750365</dc:date>
    <dc:format>image/svg+xml</dc:format>
    <dc:creator>
     <cc:Agent>
      <dc:title>Matplotlib v3.10.8, https://matplotlib.org/</dc:title>
     </cc:Agent>
    </dc:creator>
   </cc:Work>
  </rdf:RDF>
 </metadata>
 <defs>
  <style type="text/css">*{stroke-linejoin: round; stroke-linecap: butt}</style>
 </defs>
 <g id="figure_1">
  <g id="patch_1">
   <path d="M 0 186.08 
L 186.08 186.08 
L 186.08 0 
L 0 0 
z
" style="fill: #ffffff"/>
  </g>
  <g id="axes_1">
   <g id="patch_2">
    <path d="M 1.44 184.64 
L 184.64 184.64 
L 184.64 1.44 
L 1.44 1.44 
z
" style="fill: #ffffff"/>
   </g>
   <g id="matplotlib.axis_1"/>
   <g id="matplotlib.axis_2"/>
   <g id="line2d_1">
    <path d="M 135.096367 160.392941 
L 133.5901 158.086387 
L 132.290681 156.077043 
L 130.647074 153.543273 
L 128.897566 150.859132 
L 127.350681 148.485551 
L 125.709203 145.976501 
L 123.815017 143.095516 
L 121.991952 140.342864 
L 120.178986 137.619666 
L 118.441512 135.019363 
L 118.271184 134.77788 
L 116.4467 132.039919 
L 114.586437 129.240299 
L 112.685589 126.364611 
L 111.327227 124.29396 
L 110.154501 122.505051 
L 109.138617 120.949432 
L 108.218132 119.522924 
L 106.854511 117.429813 
L 104.958889 114.549957 
L 104.328182 113.592501 
L 103.316669 112.062732 
L 101.440985 109.228645 
L 99.629744 106.48009 
L 97.816036 103.733513 
L 96.037267 101.045982 
L 94.719732 99.051047 
L 93.173718 96.707059 
L 91.386093 93.999116 
L 89.483067 91.125123 
L 87.568306 88.260453 
L 85.865877 85.73756 
L 84.468615 83.686756 
L 83.781401 82.715033 
L 82.769719 81.265782 
L 81.132613 78.870446 
L 79.620554 76.647871 
L 78.199442 74.540139 
L 76.286649 71.673915 
L 74.498274 68.973036 
L 72.782343 66.35557 
L 71.011051 63.628627 
L 70.186401 62.31661 
L 69.649407 61.436282 
L 69.116163 60.552987 
L 67.933533 58.682218 
L 66.174944 55.945176 
L 66.089288 55.736182 
L 66.694 56.572579 
L 66.697307 56.501879 
L 64.936338 53.766744 
L 65.256959 54.168203 
L 66.205407 55.515535 
L 65.388233 54.202035 
L 64.105308 52.179553 
L 63.66602 51.424168 
L 63.831185 51.583721 
L 64.952187 53.196056 
L 65.401662 53.800717 
L 63.722511 51.200696 
L 61.843124 48.307845 
L 61.397134 47.572731 
L 62.0627 48.510905 
L 63.755152 50.991773 
L 63.762846 50.927924 
L 62.469113 48.91406 
L 60.962846 46.59564 
L 59.440939 44.202211 
L 50.983633 25.687059 
" clip-path="url(#pf38f7da624)" style="fill: none; stroke: #ff7f0e; stroke-width: 2.2; stroke-linecap: round"/>
   </g>
   <g id="line2d_2">
    <path d="M 134.176869 160.392941 
L 132.787978 158.167134 
L 131.412408 155.930794 
L 130.036822 153.694382 
L 128.661252 151.457969 
L 127.277289 149.228258 
L 125.881435 147.007974 
L 124.482771 144.789973 
L 123.060947 142.537137 
L 121.629602 140.269867 
L 120.21602 138.0459 
L 118.794565 135.846016 
L 117.365929 133.651876 
L 115.916217 131.448383 
L 114.427802 129.244964 
L 112.933063 127.046626 
L 111.483166 124.915822 
L 110.089801 122.853509 
L 108.650803 120.70363 
L 107.19618 118.530185 
L 105.751177 116.349007 
L 104.309572 114.138371 
L 102.812933 111.941506 
L 101.29219 109.74582 
L 99.764517 107.599329 
L 98.740199 106.280621 
L 97.153371 104.18119 
L 95.643813 102.249746 
L 94.278184 100.535779 
L 93.11463 99.014691 
L 91.800151 97.227815 
L 90.317396 95.09458 
L 88.871376 92.914286 
L 87.47611 90.70851 
L 86.27419 88.732584 
L 84.979406 86.613195 
L 83.602449 84.377887 
L 82.203432 82.110616 
L 80.79069 79.828543 
L 79.404339 77.579169 
L 78.027382 75.343861 
L 76.807733 73.312405 
L 75.587017 71.218571 
L 74.268727 68.936572 
L 73.040728 66.760549 
L 71.907988 64.729609 
L 70.786828 62.68939 
L 69.671371 60.58716 
L 68.550968 58.421742 
L 67.724789 56.647459 
L 67.176433 55.237651 
L 66.652416 53.808474 
L 66.698418 53.176222 
L 67.027593 52.931348 
L 67.669014 53.141092 
L 68.095459 53.011696 
L 68.270899 52.501917 
L 68.909032 52.6878 
L 69.51751 52.827212 
L 69.694481 52.316182 
L 69.860461 51.813915 
L 69.965123 51.360476 
L 69.973297 50.983776 
L 69.302215 49.74733 
L 68.857512 48.985461 
L 68.854737 49.096814 
L 67.827593 47.884009 
L 66.210497 45.980772 
L 65.19109 45.055408 
L 64.747194 44.994429 
L 64.553378 45.371055 
L 63.911217 45.1619 
L 63.352837 45.092083 
L 63.063828 45.431298 
L 62.666355 45.605765 
L 62.065244 45.363985 
L 61.512069 45.083982 
L 60.721632 44.992956 
L 51.903131 25.687059 
" clip-path="url(#pf38f7da624)" style="fill: none; stroke: #ff7f0e; stroke-width: 2.2; stroke-linecap: round"/>
   </g>
  </g>
 </g>
 <defs>
  <clipPath id="pf38f7da624">
   <rect x="1.44" y="1.44" width="183.2" height="183.2"/>
  </clipPath>
 </defs>
</svg>
