<?xml version="1.0" encoding="utf-8" standalone="no"?>
<!DOCTYPE svg PUBLIC "-//W3C//DTD SVG 1.1//EN"
  "http://www.w3.org/Graphics/SVG/1.1/DTD/svg11.dtd">
<svg xmlns:xlink="http://www.w3.org/1999/xlink" width="186.08pt" height="186.08pt" viewBox="0 0 186.08 186.08" xmlns="http://www.w3.org/2000/svg" version="1.1">
 <metadata>
  <rdf:RDF xmlns:dc="http://purl.org/dc/elements/1.1/" xmlns:cc="http://creativecommons.org/ns#" xmlns:rdf="http://www.w3.org/1999/02/22-rdf-syntax-ns#">
   <cc:Work>
    <dc:type rdf:resource="http://purl.org/dc/dcmitype/StillImage"/>
    <dc:date>2026-02-07T15:30:41.834729</dc:date>
    <dc:format>image/svg+xml</dc:format>
    <dc:creator>
     <cc:Agent>
      <dc:title>Matplotlib v3.10.8, https://matplotlib.org/</dc:title>
     </cc:Agent>
    </dc:creator>
   </cc:Work>
  </rdf:RDF>
 </metadata>
 <defs>
  <style type="text/css">*{stroke-linejoin: round; stroke-linecap: butt}</style>
 </defs>
 <g id="figure_1">
  <g id="patch_1">
   <path d="M 0 186.08 
L 186.08 186.08 
L 186.08 0 
L 0 0 
z
" style="fill: #ffffff"/>
  </g>
  <g id="axes_1">
   <g id="patch_2">
    <path d="M 1.44 184.64 
L 184.64 184.64 
L 184.64 1.44 
L 1.44 1.44 
z
" style="fill: #ffffff"/>
   </g>
   <g id="matplotlib.axis_1"/>
   <g id="matplotlib.axis_2"/>
   <g id="line2d_1">
    <path d="M 153.524561 160.392941 
L 149.512655 158.291393 
L 145.631899 156.581852 
L 141.705195 154.99776 
L 137.693932 153.481051 
L 133.576777 152.04859 
L 129.351346 150.702385 
L 125.104087 149.373447 
L 120.950247 148.210516 
L 117.063273 147.668725 
L 112.771772 146.620802 
L 108.414495 145.503167 
L 104.491532 144.990048 
L 100.650855 143.812099 
L 97.09335 142.048748 
L 93.962714 139.830987 
L 91.08559 136.703522 
L 88.511247 133.124698 
L 86.455467 129.277388 
L 85.174623 124.813115 
L 84.299059 119.765207 
L 84.24825 115.201988 
L 85.822226 112.392883 
L 87.582709 109.15298 
L 89.511137 105.157733 
L 92.034635 101.311146 
L 94.602191 97.71112 
L 97.184568 95.328155 
L 98.696252 93.350289 
L 98.089003 90.382887 
L 96.308197 87.869414 
L 94.82287 88.050118 
L 93.412308 90.546806 
L 91.135005 93.733542 
L 88.453376 97.242092 
L 85.716059 100.794975 
L 83.270224 104.777452 
L 81.008971 109.03765 
L 78.526836 112.583144 
L 76.508181 115.744501 
L 74.720166 118.54172 
L 73.852076 122.18359 
L 74.489434 127.512673 
L 75.298039 132.387747 
L 76.152684 136.930005 
L 76.985106 141.427367 
L 77.636561 146.392633 
L 73.810823 145.158625 
L 69.657644 143.924296 
L 65.605412 142.877096 
L 62.453132 141.750466 
L 60.383466 140.500556 
L 59.167418 138.77423 
L 58.841241 136.573817 
L 59.357025 133.703192 
L 60.756288 130.129187 
L 62.853715 125.999417 
L 64.983544 121.843866 
L 67.132229 117.673216 
L 69.315857 113.555252 
L 71.949906 110.084529 
L 74.415037 106.294322 
L 76.338769 102.30277 
L 77.875161 99.043832 
L 79.018398 96.577663 
L 78.673099 93.26331 
L 76.759474 89.111775 
L 74.123381 85.53536 
L 70.742286 82.620885 
L 66.954747 80.340801 
L 63.086739 78.451038 
L 59.238541 76.804463 
L 55.709981 75.54082 
L 52.372917 73.997527 
L 49.127355 71.285922 
L 46.362451 67.905712 
L 44.186362 63.897936 
L 43.118559 60.179529 
L 42.26075 56.29391 
L 41.463481 52.289026 
L 42.172229 46.740608 
L 32.555439 25.687059 
" clip-path="url(#p77acb9d6d1)" style="fill: none; stroke: #2ca02c; stroke-width: 2.2; stroke-linecap: round"/>
   </g>
   <g id="line2d_2">
    <path d="M 151.518345 160.392941 
L 149.752121 154.814578 
L 148.231653 149.331631 
L 146.995159 143.97858 
L 145.522025 138.166878 
L 144.326468 132.670555 
L 143.20944 127.235167 
L 142.09326 121.79911 
L 141.021616 116.327533 
L 139.993029 110.821772 
L 138.799389 105.44732 
L 137.110049 100.467538 
L 135.18989 96.387226 
L 132.541243 92.520783 
L 129.37904 89.111433 
L 126.046048 86.754857 
L 122.452299 85.446821 
L 122.129662 90.10565 
L 121.511933 94.609688 
L 120.487097 98.685839 
L 118.465666 101.383877 
L 116.254284 103.999801 
L 113.918074 106.547135 
L 111.525857 109.076188 
L 109.036746 111.463157 
L 106.092429 113.153825 
L 102.977799 114.552744 
L 99.891682 115.928925 
L 96.646758 116.999014 
L 93.098799 117.550557 
L 89.200598 117.51459 
L 85.32867 117.457593 
L 81.496286 117.369161 
L 77.68942 117.260443 
L 73.882545 117.151725 
L 69.766645 116.577815 
L 65.744633 116.109279 
L 61.967247 115.977004 
L 58.189708 115.844952 
L 54.095362 115.305597 
L 50.00581 114.839142 
L 46.152492 114.776943 
L 42.611492 115.245405 
L 39.465964 115.612877 
L 37.232595 115.699227 
L 35.98126 115.614809 
L 34.561655 113.611734 
L 35.716217 113.773214 
L 38.152265 114.185644 
L 41.544743 114.351805 
L 44.83847 113.476115 
L 48.665185 113.463036 
L 52.527915 113.527316 
L 56.386596 113.594791 
L 60.224538 113.678763 
L 64.077789 113.750623 
L 67.940527 113.814903 
L 71.803257 113.879182 
L 75.172832 113.201162 
L 78.758918 112.849072 
L 82.627409 112.908745 
L 86.516658 112.95192 
L 90.415283 112.987589 
L 94.164131 112.756034 
L 97.503096 111.840513 
L 100.58195 110.470054 
L 103.381868 108.616718 
L 105.849849 106.23562 
L 108.124298 103.569461 
L 110.383795 100.89981 
L 112.1416 97.509632 
L 113.871299 94.141821 
L 115.351664 90.972497 
L 115.926844 88.176739 
L 115.434504 85.482565 
L 114.38387 83.642828 
L 113.068644 83.071742 
L 112.653051 85.393391 
L 110.854122 87.13303 
L 107.12828 86.959809 
L 102.700579 85.554944 
L 98.312592 83.933312 
L 94.071599 82.194714 
L 90.019098 80.306005 
L 85.742735 77.654635 
L 81.404986 74.441541 
L 77.114918 70.513717 
L 73.058488 66.041485 
L 69.320366 61.130664 
L 65.72789 55.936864 
L 62.398844 50.760527 
L 59.998701 45.16745 
L 51.100495 25.687059 
" clip-path="url(#p77acb9d6d1)" style="fill: none; stroke: #2ca02c; stroke-width: 2.2; stroke-linecap: round"/>
   </g>
  </g>
 </g>
 <defs>
  <clipPath id="p77acb9d6d1">
   <rect x="1.44" y="1.44" width="183.2" height="183.2"/>
  </clipPath>
 </defs>
</svg>
