<?xml version="1.0" encoding="utf-8" standalone="no"?>
<!DOCTYPE svg PUBLIC "-//W3C//DTD SVG 1.1//EN"
  "http://www.w3.org/Graphics/SVG/1.1/DTD/svg11.dtd">
<svg xmlns:xlink="http://www.w3.org/1999/xlink" width="186.08pt" height="186.08pt" viewBox="0 0 186.08 186.08" xmlns="http://www.w3.org/2000/svg" version="1.1">
 <metadata>
  <rdf:RDF xmlns:dc="http://purl.org/dc/elements/1.1/" xmlns:cc="http://creativecommons.org/ns#" xmlns:rdf="http://www.w3.org/1999/02/22-rdf-syntax-ns#">
   <cc:Work>
    <dc:type rdf:resource="http://purl.org/dc/dcmitype/StillImage"/>
    <dc:date>2026-02-07T15:30:41.667952</dc:date>
    <dc:format>image/svg+xml</dc:format>
    <dc:creator>
     <cc:Agent>
      <dc:title>Matplotlib v3.10.8, https://matplotlib.org/</dc:title>
     </cc:Agent>
    </dc:creator>
   </cc:Work>
  </rdf:RDF>
 </metadata>
 <defs>
  <style type="text/css">*{stroke-linejoin: round; stroke-linecap: butt}</style>
 </defs>
 <g id="figure_1">
  <g id="patch_1">
   <path d="M 0 186.08 
L 186.08 186.08 
L 186.08 0 
L 0 0 
z
" style="fill: #ffffff"/>
  </g>
  <g id="axes_1">
   <g id="patch_2">
    <path d="M 1.44 184.64 
L 184.64 184.64 
L 184.64 1.44 
L 1.44 1.44 
z
" style="fill: #ffffff"/>
   </g>
   <g id="matplotlib.axis_1"/>
   <g id="matplotlib.axis_2"/>
   <g id="line2d_1">
    <path d="M 126.913535 160.392941 
L 124.973292 158.586063 
L 123.180356 156.776726 
L 121.537646 154.889925 
L 119.921255 152.982221 
L 118.153484 151.079094 
L 116.464345 149.07234 
L 114.83878 147.129661 
L 113.215603 145.190535 
L 111.442762 143.250383 
L 109.599153 141.507239 
L 107.668271 139.849892 
L 105.561733 138.332377 
L 103.178537 137.035163 
L 100.847558 136.22589 
L 98.664059 136.071645 
L 96.335819 136.032708 
L 94.104611 136.517576 
L 92.075113 137.583559 
L 89.415094 137.80871 
L 87.463377 139.205794 
L 85.990385 141.355931 
L 83.903466 142.577184 
L 81.823115 143.9091 
L 80.349781 146.187251 
L 78.48905 147.879709 
L 76.51996 149.378234 
L 75.073537 151.634936 
L 73.617052 153.89963 
L 72.174304 156.153394 
L 70.775341 158.372252 
L 69.038328 159.700001 
L 67.107415 160.198052 
L 65.125976 159.882936 
L 63.06047 158.442133 
L 61.363108 156.532995 
L 60.079751 154.247876 
L 59.484194 151.921088 
L 59.21082 149.337863 
L 59.166465 146.637895 
L 59.607749 144.227905 
L 60.074587 141.652535 
L 60.28196 138.686567 
L 61.046066 136.462859 
L 61.882539 134.348038 
L 62.180321 131.310139 
L 62.781791 128.554635 
L 63.400298 126.003515 
L 64.358438 123.957688 
L 65.235373 121.616828 
L 65.561518 118.556318 
L 66.517022 116.386233 
L 67.35947 114.060675 
L 67.695366 110.992378 
L 68.679006 108.812115 
L 69.561051 106.688755 
L 70.19565 104.124862 
L 70.750418 101.299066 
L 71.0321 98.27401 
L 71.975278 96.319786 
L 72.628888 93.938486 
L 72.83626 90.972518 
L 73.349801 88.467372 
L 73.76106 86.039416 
L 73.861673 83.158425 
L 73.926855 80.305716 
L 73.913259 77.562917 
L 74.08815 75.249928 
L 73.823895 72.419965 
L 73.456366 69.672454 
L 73.188515 67.084788 
L 72.661643 64.425533 
L 72.008493 61.685468 
L 71.590284 59.21755 
L 71.011826 56.508429 
L 70.454188 53.783255 
L 70.035971 51.315337 
L 69.456226 48.97598 
L 68.716972 46.577329 
L 68.25419 43.594215 
L 60.074603 25.687059 
" clip-path="url(#p41fd185133)" style="fill: none; stroke: #1f77b4; stroke-width: 2.2; stroke-linecap: round"/>
   </g>
   <g id="line2d_2">
    <path d="M 130.236095 160.392941 
L 128.600117 158.876367 
L 126.903443 157.26851 
L 125.069834 155.627553 
L 123.073855 154.115912 
L 120.941442 152.712892 
L 118.940298 151.914995 
L 117.307811 152.174587 
L 115.48569 152.58522 
L 113.486127 153.137026 
L 111.384312 153.770314 
L 109.0237 153.992078 
L 106.558723 154.036075 
L 104.134721 154.047382 
L 102.033862 154.475559 
L 99.908883 154.933752 
L 97.474646 154.953215 
L 95.140891 155.123924 
L 93.119807 155.692931 
L 90.825346 155.850482 
L 88.405703 155.858294 
L 86.059443 155.807719 
L 84.071776 156.157429 
L 82.021228 156.385634 
L 79.451049 155.831773 
L 77.131122 155.546481 
L 75.046885 155.2873 
L 73.278761 154.776475 
L 71.57423 153.703292 
L 70.119873 152.190555 
L 68.990442 150.143076 
L 68.45969 147.934141 
L 68.386081 145.526193 
L 69.298934 143.787238 
L 70.474537 142.038894 
L 71.376606 139.587498 
L 72.804997 137.751298 
L 74.375011 136.113836 
L 75.953626 134.468699 
L 77.157934 132.161765 
L 78.370192 129.848458 
L 79.879064 128.080034 
L 81.444602 126.446136 
L 83.007682 124.753233 
L 84.03652 122.200892 
L 85.359522 120.084746 
L 86.933261 118.444337 
L 88.40075 116.888495 
L 89.712482 115.404609 
L 90.433314 113.09747 
L 90.750985 110.514976 
L 90.504427 107.764651 
L 90.581526 105.90241 
L 90.262 103.880424 
L 89.395624 101.471517 
L 88.521008 99.221189 
L 87.489446 97.023972 
L 86.287525 94.880209 
L 85.166108 92.73247 
L 84.085486 90.646135 
L 83.005225 88.429593 
L 82.02259 86.182074 
L 81.028537 84.026798 
L 80.032222 81.873303 
L 79.114228 79.601251 
L 78.219617 77.212834 
L 77.282575 75.009313 
L 76.28626 72.855886 
L 75.334458 70.666961 
L 74.445138 68.291703 
L 73.534359 65.993678 
L 72.538052 63.840251 
L 71.541737 61.686757 
L 70.626146 59.40607 
L 69.733225 57.02012 
L 68.79209 54.822766 
L 67.795775 52.66934 
L 66.849311 50.476166 
L 65.870542 48.165394 
L 64.835004 45.973385 
L 64.049821 43.651854 
L 55.843905 25.687059 
" clip-path="url(#p41fd185133)" style="fill: none; stroke: #1f77b4; stroke-width: 2.2; stroke-linecap: round"/>
   </g>
  </g>
 </g>
 <defs>
  <clipPath id="p41fd185133">
   <rect x="1.44" y="1.44" width="183.2" height="183.2"/>
  </clipPath>
 </defs>
</svg>
